<?xml version="1.0" encoding="utf-8"?>
<!-- Roman Inozemtsev: https://github.com/mir-one/  -->
<svg version="1.1"
	 id="Слой_1" image-rendering="optimizeQuality" shape-rendering="geometricPrecision" text-rendering="geometricPrecision"
	 xmlns="http://www.w3.org/2000/svg" xmlns:xlink="http://www.w3.org/1999/xlink" x="0px" y="0px" viewBox="0 0 256.7 32.3"
	 style="enable-background:new 0 0 256.7 32.3;" xml:space="preserve">
<style type="text/css">
	.st0{fill:#4598C5;}
</style>
<g>
	<path class="st0" d="M96.4,18.7L96.4,18.7c0,1.3-0.3,2.2-0.9,2.8s-1.6,0.9-2.7,0.9c-1.2,0-2.2-0.4-2.9-1.1
		c-0.7-0.7-1.1-1.7-1.1-3.1v-3.4c0-1.3,0.3-2.3,1-3.1c0.7-0.7,1.6-1.1,2.8-1.1c1.2,0,2.2,0.3,2.9,0.9c0.7,0.6,1,1.5,1,2.7l0,0h-2.1
		c0-0.7-0.1-1.2-0.4-1.5s-0.7-0.4-1.3-0.4c-0.5,0-1,0.2-1.2,0.6c-0.3,0.4-0.4,1-0.4,1.8v3.4c0,0.8,0.1,1.4,0.4,1.8s0.7,0.6,1.3,0.6
		c0.5,0,0.9-0.1,1.2-0.4c0.2-0.3,0.4-0.8,0.4-1.5h2V18.7z"/>
	<path class="st0" d="M97.3,17.9c0-1.3,0.3-2.3,0.9-3.1s1.5-1.2,2.5-1.2c1.1,0,1.9,0.4,2.6,1.2s0.9,1.8,0.9,3.1v0.2
		c0,1.3-0.3,2.3-0.9,3.1c-0.6,0.8-1.5,1.2-2.5,1.2c-1.1,0-2-0.4-2.6-1.2c-0.6-0.8-0.9-1.8-0.9-3.1V17.9z M99.5,18.1
		c0,0.8,0.1,1.4,0.3,1.9s0.5,0.7,1,0.7c0.4,0,0.8-0.2,1-0.7s0.3-1.1,0.3-1.9v-0.2c0-0.8-0.1-1.4-0.3-1.9c-0.2-0.5-0.5-0.7-1-0.7
		s-0.8,0.2-1,0.7c-0.2,0.5-0.3,1.1-0.3,1.9V18.1z"/>
	<path class="st0" d="M106,22.2v-6.8h-1v-1.6h1v-0.9c0-0.9,0.2-1.7,0.7-2.2s1.2-0.8,2.1-0.8c0.2,0,0.3,0,0.5,0s0.4,0.1,0.6,0.1
		l-0.2,1.6c-0.1,0-0.2,0-0.3-0.1c-0.1,0-0.2,0-0.3,0c-0.3,0-0.5,0.1-0.7,0.3s-0.2,0.5-0.2,0.9v0.9h1.4v1.6h-1.4V22H106V22.2z"/>
	<path class="st0" d="M110.9,22.2v-6.8h-1v-1.6h1v-0.9c0-0.9,0.2-1.7,0.7-2.2s1.2-0.8,2.1-0.8c0.2,0,0.3,0,0.5,0s0.4,0.1,0.6,0.1
		l-0.2,1.6c-0.1,0-0.2,0-0.3-0.1c-0.1,0-0.2,0-0.3,0c-0.3,0-0.5,0.1-0.7,0.3s-0.2,0.5-0.2,0.9v0.9h1.4v1.6h-1.4V22h-2.2V22.2z"/>
	<path class="st0" d="M118.4,22.4c-1.1,0-2-0.4-2.6-1.2c-0.6-0.8-0.9-1.8-0.9-3v-0.3c0-1.3,0.3-2.3,0.9-3.1s1.4-1.2,2.5-1.2
		c1,0,1.7,0.3,2.3,1c0.5,0.7,0.8,1.6,0.8,2.8v1.2h-4.2c0,0.6,0.2,1.1,0.4,1.5s0.6,0.6,1.1,0.6c0.4,0,0.8-0.1,1.1-0.2
		c0.3-0.1,0.6-0.3,0.9-0.5l0.6,1.4c-0.3,0.3-0.7,0.5-1.2,0.7C119.5,22.3,119,22.4,118.4,22.4z M118.3,15.4c-0.4,0-0.6,0.2-0.8,0.5
		s-0.3,0.8-0.3,1.3h2.1V17c0-0.5-0.1-0.9-0.2-1.2C119,15.5,118.6,15.4,118.3,15.4z"/>
	<path class="st0" d="M125.7,22.4c-1.1,0-2-0.4-2.6-1.2c-0.6-0.8-0.9-1.8-0.9-3v-0.3c0-1.3,0.3-2.3,0.9-3.1s1.4-1.2,2.5-1.2
		c1,0,1.7,0.3,2.3,1c0.5,0.7,0.8,1.6,0.8,2.8v1.2h-4.2c0,0.6,0.2,1.1,0.4,1.5c0.2,0.4,0.6,0.6,1.1,0.6c0.4,0,0.8-0.1,1.1-0.2
		c0.3-0.1,0.6-0.3,0.9-0.5l0.6,1.4c-0.3,0.3-0.7,0.5-1.2,0.7C126.8,22.3,126.3,22.4,125.7,22.4z M125.6,15.4c-0.4,0-0.6,0.2-0.8,0.5
		s-0.3,0.8-0.3,1.3h2.1V17c0-0.5-0.1-0.9-0.2-1.2C126.1,15.5,125.9,15.4,125.6,15.4z"/>
	<path class="st0" d="M137.6,18.1L137.6,18.1l1.2-7.2h2.2l-2.2,11.3h-2l-1.7-7l0,0l-1.6,7h-2l-2.2-11.3h2.2l1.2,7.2l0,0l1.6-7.2h1.7
		L137.6,18.1z"/>
	<path class="st0" d="M145.9,22.2c-0.1-0.2-0.2-0.4-0.2-0.6c-0.1-0.2-0.1-0.4-0.1-0.7c-0.2,0.4-0.4,0.8-0.7,1
		c-0.3,0.3-0.7,0.4-1.1,0.4c-0.8,0-1.4-0.2-1.8-0.7c-0.4-0.4-0.6-1.1-0.6-1.8c0-0.8,0.3-1.5,0.8-1.9c0.5-0.5,1.4-0.7,2.4-0.7h1v-0.7
		c0-0.4-0.1-0.7-0.2-1c-0.2-0.2-0.4-0.3-0.7-0.3s-0.5,0.1-0.6,0.3s-0.2,0.4-0.2,0.8h-2.1l0,0c0-0.7,0.2-1.3,0.8-1.9
		c0.6-0.5,1.3-0.8,2.3-0.8c0.9,0,1.6,0.3,2.2,0.8c0.5,0.5,0.8,1.2,0.8,2.2V20c0,0.4,0,0.8,0.1,1.1s0.1,0.7,0.3,1.1H145.9z
		 M144.3,20.8c0.3,0,0.5-0.1,0.8-0.3c0.2-0.2,0.4-0.4,0.5-0.6v-1.3h-1c-0.4,0-0.6,0.1-0.8,0.4c-0.2,0.2-0.3,0.5-0.3,0.9
		c0,0.3,0.1,0.5,0.2,0.7S144,20.8,144.3,20.8z"/>
	<path class="st0" d="M151.4,22.2h-2.2V10.1h2.2V22.2z"/>
	<path class="st0" d="M155.3,22.2h-2.2V10.1h2.2V22.2z"/>
	<path class="st0" d="M160.1,22.4c-1.1,0-2-0.4-2.6-1.2c-0.6-0.8-0.9-1.8-0.9-3v-0.3c0-1.3,0.3-2.3,0.9-3.1c0.6-0.8,1.4-1.2,2.5-1.2
		c1,0,1.7,0.3,2.3,1c0.5,0.7,0.8,1.6,0.8,2.8v1.2h-4.2c0,0.6,0.2,1.1,0.4,1.5s0.6,0.6,1.1,0.6c0.4,0,0.8-0.1,1.1-0.2
		s0.6-0.3,0.9-0.5l0.6,1.4c-0.3,0.3-0.7,0.5-1.2,0.7C161.2,22.3,160.7,22.4,160.1,22.4z M159.9,15.4c-0.4,0-0.6,0.2-0.8,0.5
		c-0.2,0.3-0.3,0.8-0.3,1.3h2.1V17c0-0.5-0.1-0.9-0.2-1.2C160.5,15.5,160.3,15.4,159.9,15.4z"/>
	<path class="st0" d="M166.7,11.7v2.1h1.1v1.6h-1.1v4.3c0,0.4,0.1,0.6,0.2,0.8c0.1,0.2,0.2,0.2,0.4,0.2c0.1,0,0.2,0,0.3,0
		s0.2,0,0.2-0.1l0.2,1.6c-0.2,0.1-0.4,0.1-0.6,0.2c-0.2,0-0.4,0.1-0.6,0.1c-0.7,0-1.3-0.2-1.6-0.7s-0.6-1.1-0.6-2.1v-4.3h-1v-1.6h1
		v-2.1C164.6,11.7,166.7,11.7,166.7,11.7z"/>
</g>
</svg>
