<?xml version="1.0" encoding="utf-8"?>
<!-- Roman Inozemtsev: https://github.com/mir-one/  -->
<svg version="1.1"
	 id="Слой_1" shape-rendering="geometricPrecision" image-rendering="optimizeQuality" text-rendering="geometricPrecision"
	 xmlns="http://www.w3.org/2000/svg" xmlns:xlink="http://www.w3.org/1999/xlink" x="0px" y="0px" viewBox="0 0 114 114"
	 style="enable-background:new 0 0 114 114;" xml:space="preserve">
<style type="text/css">
	.st0{fill:#3AAF85;}
</style>
<path id="Layer_x0020_1" class="st0" d="M4.2,46.9L46.9,4.2c5.5-5.5,14.6-5.5,20.1,0l42.8,42.8c5.5,5.5,5.5,14.6,0,20.1l-42.8,42.8
	c-5.5,5.5-14.6,5.5-20.1,0L4.2,67.1C-1.4,61.5-1.4,52.5,4.2,46.9z M35.5,56.6c0.6,0.4,0.5,0.5,0.8,1.3c0.2,0.6,0.3,1,0.5,1.6
	c0.7,2.2,3,8.9,3.2,10.2l-0.1,0.3c-4.9,1.2-12.4,3.2-10.4,10c0.7,2.5,3,4.6,6,4.7c2,0,6.4-1.8,8.5-2.4l0.3,0.3
	c0.3,1.6,1.4,4.9,2.1,6.5c0.5,1.2,1,1.7,1.8,2.5c1.1,1,1.7,0.9,2.7,1.6h3c1.4-0.9,2.5-1,3.5-2.3c0.7-0.9,1.5-2.3,1.5-3.9
	c0.1-2.5-1.8-6-2.3-8.5l0.5-0.5l12.5-4l0.5,0c0.2,1.4,2.1,6.9,2.7,7.9c3.8,5.5,12.2,2.6,11.9-3.9c-0.1-2.4-2-5.7-2.3-8l0.1-0.3
	c1.4-0.2,6.7-2,7.8-2.7c1.9-1.2,3.7-3.9,2.6-7.3c-0.7-2.4-3.1-4.5-6.1-4.5c-2,0-6.2,1.6-8.3,2.3l-0.5-0.1L74,44.5l0.1-0.6
	c1.5-0.4,6.6-2,7.7-2.7c5.3-3.4,3.1-12-3.5-11.9c-2.8,0-5.9,2-8.3,2.3L69.5,31c-0.9-5-3.6-12.1-10.2-9.7c-2.3,0.8-4.3,3-4.2,6.2
	c0,1.7,1.7,6.4,2.4,8.2c-0.4,0-0.3-0.1-0.3,0.3L44.5,40l-0.7-0.1c0.1-0.8-2-6.7-2.5-7.6c-3.1-5.4-12-3.3-12,3.4
	c0,1.9,1.7,6.3,2.3,8.3l-0.5,0.4c-1.6,0.4-4.7,1.4-6.2,2c-1.1,0.4-1.9,1-2.5,1.7c-0.8,0.9-1,1.9-1.5,2.8v3c1,1.5,0.7,1.9,2.1,3.4
	c0.8,0.8,2.2,1.5,3.8,1.7C28.8,59.1,33.5,57.2,35.5,56.6z M65.7,61.7l-12.8,4.1c-0.6-0.2-0.3,0-0.6-0.2c-0.4-2-1.5-4.6-2.1-6.7
	c-0.4-1.4-2.1-5.4-1.8-6.6l12.8-4.1c0.4,0.3,0.2-0.1,0.5,0.3l4.1,12.8L65.7,61.7z"/>
</svg>
