<?xml version="1.0" encoding="utf-8"?>
<!-- Roman Inozemtsev: https://github.com/mir-one/  -->
<svg version="1.1" id="Layer_2" xmlns="http://www.w3.org/2000/svg" xmlns:xlink="http://www.w3.org/1999/xlink" x="0px" y="0px"
	 viewBox="0 0 24 24" style="enable-background:new 0 0 24 24;" xml:space="preserve">
<style type="text/css">
	.st0{fill:#4598C5;}
</style>
<path class="st0" d="M24,11.9c0-5.2-3.4-9.6-8-11.2v2.2c3.5,1.5,6,5,6,9.1c0,2-0.5,3.8-1.5,5.3L13,17.4l-0.2-17l0,0V0.1
	c-0.3,0-0.6,0-0.9,0C5.3,0.1,0,5.5,0,12.1c0.1,6.6,5.5,12,12.1,11.9S24.1,18.5,24,11.9z M12.1,22c-5.5,0-10-4.4-10.1-9.9
	c0-4.9,3.5-9,8.1-9.9l0.1,16.7h1.9l0,0l7-0.1C17.4,20.8,14.9,22,12.1,22z"/>
</svg>
