<?xml version="1.0" encoding="utf-8"?>
<!-- Roman Inozemtsev: https://github.com/mir-one/  -->
<svg version="1.1"
	 id="Слой_1" shape-rendering="geometricPrecision" image-rendering="optimizeQuality" text-rendering="geometricPrecision"
	 xmlns="http://www.w3.org/2000/svg" xmlns:xlink="http://www.w3.org/1999/xlink" x="0px" y="0px" viewBox="0 0 100 74.4"
	 style="enable-background:new 0 0 100 74.4;" xml:space="preserve">
<style type="text/css">
	.st0{fill:#9ABC3D;}
</style>
<g>
	<path class="st0" d="M97.5,41.6c-0.1,1.4,0.9,2.3,1.4,3.4c0.4,0.7,0.6,1.3,0.3,2c-0.3,0.8,0,1.6,0.2,2.4c0.2,0.6,0.2,1.3,0.5,1.9
		c0.1,0.2,0.1,0.6,0,0.7c-0.8,1-0.5,2.3-0.5,3.4c0,1.2-0.1,2.3-1.2,3.1c-0.4,0.3-0.3,0.8-0.5,1.2c-0.3,0.8-0.5,1.7-0.7,2.6
		c-0.1,0.4-0.4,0.6-0.6,0.7c-1.3,0.5-1.6,1.9-2.2,2.9c-0.5,0.9-1,1.7-2.2,1.7c-0.3,0-0.4,0.3-0.6,0.4c-0.6,0.6-1.2,1.2-1.8,1.8
		c-0.5,0.6-1.1,0.9-2,0.8c-1-0.1-1.7,0.8-2.5,1.2c-0.9,0.4-1.6,0.9-2.7,0.5c-0.9-0.3-2,0.3-2.9,0.6c-0.8,0.2-1.4,0.4-2.1-0.2
		c-0.3-0.2-0.6-0.2-0.9-0.2c-0.9,0-1.7,0.1-2.5,0c-0.8-0.1-1.5-0.2-2-1c-0.6-0.8-1.6-0.8-2.5-1c-1.1-0.2-1.9-0.7-2.4-1.7
		c-0.5-1-1.7-1.3-2.7-1.9c-0.7-0.4-1.2-0.9-1.2-1.8c0-0.4-0.3-0.8-0.6-1.1c-0.4-0.4-0.8-0.9-1.2-1.2c-0.9-0.7-1.4-1.6-1.3-2.8
		c0-0.2,0-0.4-0.1-0.6c-0.6-0.7-0.9-1.6-1.3-2.5c-0.4-0.6-0.5-1.2-0.1-1.9c0.4-0.8-0.3-1.5-0.3-2.3c-0.1-0.7-0.3-1.3-0.5-2
		c-0.1-0.2,0-0.4,0.1-0.5c0.8-0.9,0.7-2,0.7-3c0-0.5,0-1.1,0-1.6c0-0.4,0.1-1,0.3-1.2c1.3-1,1.2-2.6,1.7-4c0.2-0.6,0.4-1.2,1.1-1.5
		c1-0.4,1.2-1.4,1.7-2.2c0.6-1,1.1-1.9,2.4-2.3c1.1-0.3,1.6-1.5,2.4-2.3c0.3-0.3,0.7-0.7,1.1-0.7c1.4,0.2,2.4-0.6,3.5-1.3
		c0.8-0.5,1.5-0.9,2.5-0.4c0.5,0.3,1.1-0.1,1.6-0.2c0.6-0.1,1.1-0.3,1.6-0.5c0.7-0.2,1.3-0.3,1.9,0.3c0.2,0.2,0.6,0.3,0.9,0.3
		c0.7,0,1.5,0,2.2,0c1-0.1,1.7,0.2,2.3,1c0.3,0.5,0.8,0.5,1.3,0.7c0.9,0.3,1.8,0.6,2.7,0.8c0.3,0.1,0.6,0.3,0.6,0.5
		c0.2,1.1,1.2,1.5,2,1.9c1.2,0.7,2.2,1.3,2.5,2.8c0.2,0.9,1.2,1.5,1.8,2.1C97.2,40.2,97.7,40.8,97.5,41.6z M79.2,35.3
		c-4.7-0.1-8.3,1.5-11.3,4.6c-0.9,0.9-1.5,2.1-2.2,3.2c-1.3,1.9-1.8,4.1-2.1,6.2c-0.4,3.3,0.2,6.5,1.9,9.6c1.3,2.5,3,4.5,5.4,6
		c1.8,1.1,3.8,1.9,5.8,2.1c2.6,0.3,5.2,0.1,7.7-0.9c2-0.9,3.8-2.1,5.4-3.7c2.7-2.8,4-6.3,4.4-10c0.3-3.1-0.4-6-1.8-8.8
		c-1.6-3.1-4-5.4-7.1-6.9C83.2,35.6,81.1,35.1,79.2,35.3z"/>
	<path class="st0" d="M15.3,42c3.3,0.4,6.1,1.2,8.6,3.2c2.4,1.9,4,4.4,5.1,7.2c0.9,2.3,1.1,4.7,0.8,7.1c-0.4,3.2-1.6,6.2-3.8,8.6
		c-2.3,2.5-5.1,4.2-8.4,4.9c-2.4,0.5-4.8,0.2-7.2-0.6c-4.7-1.6-7.7-4.9-9.4-9.4c-1.2-3.2-1.2-6.6-0.2-10c0.6-2.2,1.8-4.1,3.2-5.9
		c0.7-0.9,1.6-1.6,2.5-2.2c1.4-1,2.9-1.7,4.5-2.3C12.4,42.2,13.9,42.3,15.3,42z M23.8,57.8c0.1-2.3-0.7-4.4-2.2-6.3
		c-2.3-2.8-7.1-4-10.5-2.2c-3.2,1.6-4.7,4.2-5,7.4c-0.4,3.8,1,7.1,4.4,9.1c2.2,1.3,4.5,1.6,6.9,0.9C21.4,65.5,23.9,61.6,23.8,57.8z"
		/>
	<path class="st0" d="M73.1,51C73,48,76.1,45,79,45.1c2.7,0.1,5.8,2.8,5.7,6.2c-0.1,3.3-2.7,6-5.9,5.9C76,57.2,72.9,54.7,73.1,51z"
		/>
	<path class="st0" d="M18.9,57.8C19.1,60,16.7,62,15,62c-2.1,0-4.1-2.4-4.2-4.1c-0.1-2,2.1-4.4,4-4.4C16.9,53.5,19,55.3,18.9,57.8z"
		/>
	<path class="st0" d="M28.7,18.2c0-1.7,0-3.4,0-5.1c0-1.2,0.1-2.5,1.3-3.3c0.3-0.2,0.5-0.4,0.9-0.4c0.7,0,1-0.4,0.9-1.1
		c-0.1-0.8,0-1.5,0-2.3c0-0.5,0.1-0.7,0.7-0.7c0.5,0,0.6,0.2,0.6,0.7c0,0.8,0,1.5,0,2.3c0,0.6,0.2,1,0.8,1.1c0.6,0.1,1,0.5,1.4,0.8
		c0.6,0.4,0.9,1,0.9,1.8c0,3.6,0,7.2,0,10.8c0,0.7,0.2,0.9,0.9,0.9c1.5,0,3.1-0.3,4.6-0.2c1,0.1,1.3-0.7,1.5-1.5
		c0.8-3.9,1.7-7.7,2.6-11.5c0.4-1.5,0.6-3.1,1.3-4.6c0.9-2.2,2.5-3.6,4.6-4.5c1.2-0.5,2.6-0.6,3.9-0.6c10.4,0,20.8,0,31.2,0
		c1.4,0,2.7,0.9,2.4,2.5c-0.2,0.9-0.9,1.3-1.7,1.4c-1,0.1-1.1,0.6-1,1.3c0.5,2.1,0.7,4.4,1.1,6.5c0.5,2.3,0.7,4.6,1.1,6.9
		c0.2,1.2,0.4,2.4,0.6,3.6c0.1,0.7,0.8,0.7,1.3,0.7c1.1-0.1,2.1,0.1,2.9,1c0.4,0.4,0.6,0.9,0.8,1.5c0.5,1.2,0.8,2.4,1.3,3.6
		c0.2,0.5,0.3,0.9-0.2,1.2c-0.5,0.3-1,0.4-1.5,0.1c-0.9-0.5-1.7-1.1-2.6-1.6c-2.8-1.5-5.7-2.5-8.8-3c-2.3-0.4-4.7-0.3-7-0.1
		c-3.1,0.3-5.9,1.3-8.6,2.7c-2.5,1.4-4.6,3.3-6.4,5.5c-2.3,2.8-3.7,6.1-4.7,9.5c-0.4,1.4-0.6,2.9-0.8,4.3c-0.3,2.2-0.1,4.4-0.2,6.5
		c0,0.8,0.2,1.7,0.2,2.5c0,0.7-0.2,0.9-0.9,0.9c-2.8,0-5.6-0.1-8.4,0c-2.2,0.1-4.5-0.1-6.7,0.1c-1.5,0.1-3-0.1-4.5,0
		c-0.4,0-0.8-0.4-0.9-1c-0.1-2.5-0.7-5-1.7-7.3c-1.4-3.2-3.4-6-6.4-8.1c-2.9-2-6.1-3.2-9.7-3.2c-2,0-3.9-0.1-5.9,0.4
		c-0.9,0.2-1.3-0.1-1.1-1c0.3-2.2,0-4.4,1-6.5c0.8-1.8,2-3,3.8-3.7c3.6-1.4,7.3-2.1,11.1-2.8c1-0.2,2.1-0.4,3.2-0.4
		c0.6,0,0.8-0.3,0.8-0.8C28.7,21.8,28.7,20,28.7,18.2z M65.9,15.4c0-3,0-6,0-8.9c0-0.6-0.2-0.8-0.8-0.8c-4.8,0-9.6,0-14.4,0
		c-0.6,0-1,0.2-1.1,0.8c-0.2,1.2-0.4,2.3-0.7,3.5c-0.5,2.4-1.1,4.8-1.6,7.2c-0.4,2.1-1.1,4.3-1.2,6.4C46,29,46.1,34.4,46.1,39.8
		c0,0.6,0.2,0.8,0.8,0.8c1.9,0,3.7,0,5.6,0c0.5,0,0.9-0.2,1-0.7c0.4-2,1.3-3.8,2.2-5.6c1-1.7,2.3-3.2,3.7-4.6
		c1.8-1.7,3.8-3.1,5.9-4.4c0.5-0.3,0.6-0.6,0.6-1.2C65.9,21.3,65.9,18.3,65.9,15.4z M69.2,14.9c0,2.8,0,5.5,0,8.3
		c0,1.1,0.2,1.2,1.2,0.9c2.4-0.9,4.9-1.3,7.5-1.4c2.1-0.1,4.1,0.2,6.2,0.5c0.5,0.1,1,0,0.9-0.7c-0.2-1-0.2-2-0.4-2.9
		c-0.5-2.7-0.7-5.5-1.2-8.2c-0.3-1.7-0.3-3.4-0.8-5.1c-0.2-0.6-0.4-0.6-0.8-0.6c-3.9,0-7.7,0-11.6,0c-0.7,0-0.9,0.3-0.9,1
		C69.3,9.4,69.2,12.1,69.2,14.9z"/>
</g>
</svg>
