<?xml version="1.0" encoding="utf-8"?>
<!-- Roman Inozemtsev: https://github.com/mir-one/  -->
<svg version="1.1"
	 id="Слой_1" shape-rendering="geometricPrecision" image-rendering="optimizeQuality" text-rendering="geometricPrecision"
	 xmlns="http://www.w3.org/2000/svg" xmlns:xlink="http://www.w3.org/1999/xlink" x="0px" y="0px" viewBox="0 0 256.7 32.2"
	 style="enable-background:new 0 0 256.7 32.2;" xml:space="preserve">
<style type="text/css">
	.st0{fill:#B62A6F;}
</style>
<g>
	<path class="st0" d="M37.6,12.3c1,0.1,1.9,0.5,2.5,1.2s1,1.6,1,2.7c0,1.1-0.3,2-1,2.7s-1.5,1.1-2.5,1.2v1.4h-2.1v-1.4
		c-1.1-0.1-1.9-0.5-2.6-1.2c-0.6-0.7-1-1.6-1-2.7c0-1.1,0.3-2,1-2.8c0.6-0.7,1.5-1.1,2.6-1.2v-1.5h2.1V12.3z M34,16.3
		c0,0.6,0.1,1.1,0.4,1.4s0.6,0.6,1.1,0.6l0,0v-4.2l0,0c-0.4,0-0.8,0.3-1.1,0.6C34.2,15.1,34,15.6,34,16.3z M39.1,16.2
		c0-0.6-0.1-1.1-0.4-1.5c-0.3-0.4-0.6-0.6-1-0.6l0,0v4.2l0,0c0.4,0,0.8-0.2,1-0.6C39,17.3,39.1,16.8,39.1,16.2z"/>
	<path class="st0" d="M45.1,21.7c-1,0-1.9-0.4-2.4-1.1s-0.9-1.7-0.9-2.8v-0.3c0-1.2,0.3-2.2,0.8-2.9s1.3-1.1,2.3-1.1
		c0.9,0,1.6,0.3,2.1,1s0.7,1.5,0.7,2.6v1.1h-4c0,0.6,0.2,1.1,0.4,1.4c0.2,0.3,0.6,0.5,1.1,0.5c0.4,0,0.8,0,1-0.1
		c0.3-0.1,0.6-0.2,0.9-0.5l0.5,1.3c-0.3,0.3-0.7,0.5-1.1,0.7S45.6,21.7,45.1,21.7z M45,15.1c-0.3,0-0.6,0.2-0.8,0.5
		c-0.2,0.3-0.3,0.7-0.3,1.3h2v-0.2c0-0.5-0.1-0.9-0.2-1.1S45.3,15.1,45,15.1z"/>
	<path class="st0" d="M55.2,17.8c0,1.2-0.2,2.1-0.7,2.8c-0.5,0.7-1.1,1.1-2,1.1c-0.3,0-0.6-0.1-0.9-0.2c-0.3-0.1-0.5-0.3-0.7-0.6
		v3.7h-2.1v-11h1.9l0.1,0.8c0.2-0.3,0.4-0.5,0.7-0.7s0.6-0.2,0.9-0.2c0.8,0,1.5,0.4,2,1.1s0.7,1.8,0.7,3V17.8z M53.1,17.6
		c0-0.8-0.1-1.4-0.3-1.8c-0.2-0.5-0.5-0.7-0.9-0.7c-0.2,0-0.4,0.1-0.6,0.2c-0.2,0.1-0.3,0.3-0.4,0.5v3.7c0.1,0.2,0.2,0.3,0.4,0.4
		s0.4,0.1,0.6,0.1c0.4,0,0.7-0.2,0.9-0.6c0.2-0.4,0.3-1,0.3-1.7V17.6z"/>
	<path class="st0" d="M60.5,19.1L60.5,19.1l1.6-5.5h2.6v7.9h-2.1v-4.3h0l-1.4,4.3h-1.4l-1.3-4.1l0,0v4.1h-2.1v-7.9H59L60.5,19.1z"/>
	<path class="st0" d="M69.3,21.7c-1,0-1.9-0.4-2.4-1.1c-0.6-0.7-0.9-1.7-0.9-2.8v-0.3c0-1.2,0.3-2.2,0.8-2.9s1.3-1.1,2.3-1.1
		c0.9,0,1.6,0.3,2.1,1s0.7,1.5,0.7,2.6v1.1h-4c0,0.6,0.2,1.1,0.4,1.4c0.2,0.3,0.6,0.5,1.1,0.5c0.4,0,0.8,0,1-0.1
		c0.3-0.1,0.6-0.2,0.9-0.5l0.5,1.3c-0.3,0.3-0.7,0.5-1.1,0.7S69.9,21.7,69.3,21.7z M69.2,15.1c-0.3,0-0.6,0.2-0.8,0.5
		c-0.2,0.3-0.3,0.7-0.3,1.3h2v-0.2c0-0.5-0.1-0.9-0.2-1.1S69.5,15.1,69.2,15.1z"/>
	<path class="st0" d="M79.4,17.8c0,1.2-0.2,2.1-0.7,2.8c-0.5,0.7-1.1,1.1-2,1.1c-0.3,0-0.6-0.1-0.9-0.2c-0.3-0.1-0.5-0.3-0.7-0.6
		v3.7h-2.1v-11H75l0.1,0.8c0.2-0.3,0.4-0.5,0.7-0.7c0.3-0.2,0.6-0.2,0.9-0.2c0.8,0,1.5,0.4,2,1.1s0.7,1.8,0.7,3V17.8z M77.4,17.6
		c0-0.8-0.1-1.4-0.3-1.8s-0.5-0.7-0.9-0.7c-0.2,0-0.4,0.1-0.6,0.2c-0.2,0.1-0.3,0.3-0.4,0.5v3.7c0.1,0.2,0.2,0.3,0.4,0.4
		c0.2,0.1,0.4,0.1,0.6,0.1c0.4,0,0.7-0.2,0.9-0.6c0.2-0.4,0.3-1,0.3-1.7V17.6z"/>
	<path class="st0" d="M83.4,20.1c0.3,0,0.5-0.1,0.7-0.3c0.2-0.2,0.2-0.5,0.2-0.9h1.9l0,0c0,0.8-0.2,1.5-0.8,2
		c-0.5,0.5-1.2,0.8-2,0.8c-1,0-1.8-0.4-2.4-1.1c-0.6-0.7-0.8-1.7-0.8-2.9v-0.2c0-1.2,0.3-2.1,0.8-2.9c0.6-0.8,1.3-1.1,2.4-1.1
		c0.9,0,1.5,0.3,2.1,0.8c0.5,0.5,0.8,1.3,0.7,2.2l0,0h-1.9c0-0.4-0.1-0.8-0.2-1.1c-0.2-0.3-0.4-0.4-0.7-0.4c-0.4,0-0.7,0.2-0.9,0.7
		c-0.2,0.4-0.2,1-0.2,1.7v0.2c0,0.7,0.1,1.3,0.2,1.8C82.7,19.8,83,20.1,83.4,20.1z"/>
	<path class="st0" d="M90.1,18.5h-0.6v3h-2.1v-7.9h2.1v3H90l1.3-3h2.6l-2.1,3.6l0,0l0,0l2.3,4.3h-2.8L90.1,18.5z"/>
	<path class="st0" d="M94.4,17.5c0-1.2,0.3-2.2,0.9-2.9c0.6-0.8,1.4-1.1,2.4-1.1c1,0,1.8,0.4,2.4,1.1c0.6,0.7,0.9,1.7,0.9,2.9v0.2
		c0,1.2-0.3,2.2-0.9,2.9c-0.6,0.7-1.4,1.1-2.4,1.1c-1,0-1.8-0.4-2.4-1.1s-0.9-1.7-0.9-2.9V17.5z M96.5,17.6c0,0.7,0.1,1.3,0.3,1.8
		c0.2,0.4,0.5,0.7,0.9,0.7c0.4,0,0.7-0.2,0.9-0.7c0.2-0.4,0.3-1,0.3-1.8v-0.2c0-0.7-0.1-1.3-0.3-1.8c-0.2-0.4-0.5-0.7-0.9-0.7
		s-0.7,0.2-0.9,0.7s-0.3,1-0.3,1.8V17.6z"/>
	<path class="st0" d="M105.1,21.7c-1,0-1.9-0.4-2.4-1.1c-0.6-0.7-0.9-1.7-0.9-2.8v-0.3c0-1.2,0.3-2.2,0.8-2.9s1.3-1.1,2.3-1.1
		c0.9,0,1.6,0.3,2.1,1s0.7,1.5,0.7,2.6v1.1h-4c0,0.6,0.2,1.1,0.4,1.4c0.2,0.3,0.6,0.5,1.1,0.5c0.4,0,0.8,0,1-0.1
		c0.3-0.1,0.6-0.2,0.9-0.5l0.5,1.3c-0.3,0.3-0.7,0.5-1.1,0.7S105.7,21.7,105.1,21.7z M105,15.1c-0.3,0-0.6,0.2-0.8,0.5
		c-0.2,0.3-0.3,0.7-0.3,1.3h2v-0.2c0-0.5-0.1-0.9-0.2-1.1S105.3,15.1,105,15.1z"/>
	<path class="st0" d="M114.9,16.1L114.9,16.1l0.9-2.5h2.3l-2,3.9l2.1,4h-2.3l-0.9-2.6h0l-0.9,2.6h-2.3l2.1-4l-2-3.9h2.3L114.9,16.1z
		"/>
	<path class="st0" d="M118.6,17.5c0-1.2,0.3-2.2,0.9-2.9c0.6-0.8,1.4-1.1,2.4-1.1c1,0,1.8,0.4,2.4,1.1c0.6,0.7,0.9,1.7,0.9,2.9v0.2
		c0,1.2-0.3,2.2-0.9,2.9c-0.6,0.7-1.4,1.1-2.4,1.1c-1,0-1.8-0.4-2.4-1.1s-0.9-1.7-0.9-2.9V17.5z M120.6,17.6c0,0.7,0.1,1.3,0.3,1.8
		c0.2,0.4,0.5,0.7,0.9,0.7c0.4,0,0.7-0.2,0.9-0.7c0.2-0.4,0.3-1,0.3-1.8v-0.2c0-0.7-0.1-1.3-0.3-1.8c-0.2-0.4-0.5-0.7-0.9-0.7
		s-0.7,0.2-0.9,0.7s-0.3,1-0.3,1.8V17.6z"/>
	<path class="st0" d="M129.2,16.8c0.3,0,0.5-0.1,0.7-0.2s0.2-0.4,0.2-0.7c0-0.3-0.1-0.5-0.2-0.7c-0.1-0.2-0.4-0.3-0.7-0.3
		c-0.3,0-0.5,0.1-0.7,0.2c-0.2,0.2-0.3,0.4-0.3,0.6h-2l0,0c0-0.7,0.2-1.3,0.8-1.7s1.2-0.6,2.1-0.6c0.9,0,1.7,0.2,2.3,0.6
		s0.8,1,0.8,1.7c0,0.4-0.1,0.7-0.3,1s-0.5,0.5-0.9,0.7c0.4,0.2,0.7,0.4,1,0.7s0.3,0.7,0.3,1.1c0,0.7-0.3,1.3-0.9,1.7
		c-0.6,0.4-1.4,0.6-2.3,0.6c-0.8,0-1.5-0.2-2.1-0.6c-0.6-0.4-0.9-1-0.8-1.8l0,0h2c0,0.3,0.1,0.5,0.3,0.7s0.4,0.3,0.8,0.3
		c0.3,0,0.6-0.1,0.8-0.3c0.2-0.2,0.3-0.4,0.3-0.7c0-0.3-0.1-0.6-0.3-0.8c-0.2-0.2-0.5-0.3-0.8-0.3h-1.1v-1.3H129.2z"/>
	<path class="st0" d="M139.4,13.6v7.9h-2.1v-2.8h-0.8l-1.3,2.8h-2.1l1.5-3.1c-0.4-0.2-0.8-0.5-1-0.9c-0.2-0.4-0.3-0.8-0.3-1.3
		c0-0.8,0.3-1.4,0.8-1.9s1.3-0.7,2.2-0.7H139.4z M135.4,16.3c0,0.3,0.1,0.5,0.3,0.7s0.4,0.3,0.7,0.3h1v-2.2h-1
		c-0.3,0-0.5,0.1-0.7,0.3C135.5,15.7,135.4,16,135.4,16.3z"/>
	<path class="st0" d="M144.9,13.6h2.1v7.9h-2.1v-4.4l0,0l-1.9,4.4h-2.1v-7.9h2.1V18l0,0L144.9,13.6z M146.3,10.1L146.3,10.1
		c0,0.7-0.2,1.2-0.6,1.6c-0.4,0.4-1,0.6-1.7,0.6c-0.7,0-1.3-0.2-1.7-0.6s-0.6-0.9-0.6-1.5l0,0h1.5c0,0.3,0.1,0.5,0.2,0.7
		s0.3,0.2,0.6,0.2c0.3,0,0.5-0.1,0.6-0.3c0.1-0.2,0.2-0.4,0.2-0.6H146.3z"/>
	<path class="st0" d="M151.2,20.1c0.3,0,0.5-0.1,0.7-0.3c0.2-0.2,0.2-0.5,0.2-0.9h1.9l0,0c0,0.8-0.2,1.5-0.8,2
		c-0.5,0.5-1.2,0.8-2,0.8c-1,0-1.8-0.4-2.4-1.1c-0.6-0.7-0.8-1.7-0.8-2.9v-0.2c0-1.2,0.3-2.1,0.8-2.9c0.6-0.8,1.3-1.1,2.4-1.1
		c0.9,0,1.5,0.3,2.1,0.8c0.5,0.5,0.8,1.3,0.7,2.2l0,0h-1.9c0-0.4-0.1-0.8-0.2-1.1s-0.4-0.4-0.7-0.4c-0.4,0-0.7,0.2-0.9,0.7
		c-0.2,0.4-0.2,1-0.2,1.7v0.2c0,0.7,0.1,1.3,0.2,1.8S150.8,20.1,151.2,20.1z"/>
	<path class="st0" d="M161,15.2h-2.1v6.3h-2.1v-6.3h-2.1v-1.6h6.3V15.2z"/>
	<path class="st0" d="M162.1,21.5v-7.9h2.9c0.9,0,1.6,0.2,2.1,0.6c0.5,0.4,0.8,0.9,0.8,1.6c0,0.4-0.1,0.7-0.3,1
		c-0.2,0.3-0.5,0.5-1,0.7c0.6,0.1,1,0.3,1.3,0.7s0.4,0.7,0.4,1.2c0,0.7-0.2,1.3-0.7,1.7c-0.5,0.4-1.2,0.6-2.1,0.6H162.1z
		 M164.1,16.8h0.9c0.3,0,0.5-0.1,0.6-0.2c0.1-0.1,0.2-0.3,0.2-0.6c0-0.3-0.1-0.5-0.2-0.7s-0.4-0.2-0.6-0.2h-0.8V16.8z M164.1,18.2
		v1.7h1.3c0.3,0,0.5-0.1,0.6-0.2s0.2-0.4,0.2-0.6c0-0.3-0.1-0.5-0.2-0.6s-0.3-0.2-0.6-0.2H164.1z"/>
	<path class="st0" d="M169.1,17.5c0-1.2,0.3-2.2,0.9-2.9c0.6-0.8,1.4-1.1,2.4-1.1c1,0,1.8,0.4,2.4,1.1c0.6,0.7,0.9,1.7,0.9,2.9v0.2
		c0,1.2-0.3,2.2-0.9,2.9c-0.6,0.7-1.4,1.1-2.4,1.1c-1,0-1.8-0.4-2.4-1.1s-0.9-1.7-0.9-2.9V17.5z M171.1,17.6c0,0.7,0.1,1.3,0.3,1.8
		c0.2,0.4,0.5,0.7,0.9,0.7c0.4,0,0.7-0.2,0.9-0.7c0.2-0.4,0.3-1,0.3-1.8v-0.2c0-0.7-0.1-1.3-0.3-1.8c-0.2-0.4-0.5-0.7-0.9-0.7
		s-0.7,0.2-0.9,0.7s-0.3,1-0.3,1.8V17.6z"/>
	<path class="st0" d="M185.5,16.8h-3.3v3.1h3.9v1.6h-6V10.9h6v1.6h-3.9v2.7h3.3V16.8z"/>
	<path class="st0" d="M190.1,20.1c0.3,0,0.5-0.1,0.7-0.3c0.2-0.2,0.2-0.5,0.2-0.9h1.9l0,0c0,0.8-0.2,1.5-0.8,2
		c-0.5,0.5-1.2,0.8-2,0.8c-1,0-1.8-0.4-2.4-1.1c-0.6-0.7-0.8-1.7-0.8-2.9v-0.2c0-1.2,0.3-2.1,0.8-2.9c0.6-0.8,1.3-1.1,2.4-1.1
		c0.9,0,1.5,0.3,2.1,0.8c0.5,0.5,0.8,1.3,0.7,2.2l0,0H191c0-0.4-0.1-0.8-0.2-1.1s-0.4-0.4-0.7-0.4c-0.4,0-0.7,0.2-0.9,0.7
		c-0.2,0.4-0.2,1-0.2,1.7v0.2c0,0.7,0.1,1.3,0.2,1.8S189.7,20.1,190.1,20.1z"/>
	<path class="st0" d="M193.7,17.5c0-1.2,0.3-2.2,0.9-2.9c0.6-0.8,1.4-1.1,2.4-1.1c1,0,1.8,0.4,2.4,1.1c0.6,0.7,0.9,1.7,0.9,2.9v0.2
		c0,1.2-0.3,2.2-0.9,2.9c-0.6,0.7-1.4,1.1-2.4,1.1c-1,0-1.8-0.4-2.4-1.1s-0.9-1.7-0.9-2.9V17.5z M195.7,17.6c0,0.7,0.1,1.3,0.3,1.8
		c0.2,0.4,0.5,0.7,0.9,0.7c0.4,0,0.7-0.2,0.9-0.7c0.2-0.4,0.3-1,0.3-1.8v-0.2c0-0.7-0.1-1.3-0.3-1.8c-0.2-0.4-0.5-0.7-0.9-0.7
		s-0.7,0.2-0.9,0.7c-0.2,0.4-0.3,1-0.3,1.8V17.6z"/>
	<path class="st0" d="M203.5,17.7v3.9h-2.1V10.9h3.6c1.1,0,1.9,0.3,2.5,0.9c0.6,0.6,0.9,1.4,0.9,2.5c0,1-0.3,1.8-0.9,2.5
		c-0.6,0.6-1.5,0.9-2.5,0.9H203.5z M203.5,16h1.5c0.5,0,0.8-0.2,1.1-0.5c0.2-0.3,0.4-0.8,0.4-1.3c0-0.5-0.1-1-0.4-1.3
		c-0.2-0.3-0.6-0.5-1.1-0.5h-1.5V16z"/>
	<path class="st0" d="M209.3,17.5c0-1.2,0.3-2.2,0.9-2.9c0.6-0.8,1.4-1.1,2.4-1.1c1,0,1.8,0.4,2.4,1.1c0.6,0.7,0.9,1.7,0.9,2.9v0.2
		c0,1.2-0.3,2.2-0.9,2.9c-0.6,0.7-1.4,1.1-2.4,1.1c-1,0-1.8-0.4-2.4-1.1s-0.9-1.7-0.9-2.9V17.5z M211.4,17.6c0,0.7,0.1,1.3,0.3,1.8
		c0.2,0.4,0.5,0.7,0.9,0.7c0.4,0,0.7-0.2,0.9-0.7c0.2-0.4,0.3-1,0.3-1.8v-0.2c0-0.7-0.1-1.3-0.3-1.8c-0.2-0.4-0.5-0.7-0.9-0.7
		s-0.7,0.2-0.9,0.7s-0.3,1-0.3,1.8V17.6z"/>
	<path class="st0" d="M219.1,21.5h-2.1V10.1h2.1V21.5z"/>
	<path class="st0" d="M223.6,21.7c-1,0-1.9-0.4-2.4-1.1s-0.9-1.7-0.9-2.8v-0.3c0-1.2,0.3-2.2,0.8-2.9c0.6-0.8,1.3-1.1,2.3-1.1
		c0.9,0,1.6,0.3,2.1,1s0.7,1.5,0.7,2.6v1.1h-4c0,0.6,0.2,1.1,0.4,1.4c0.2,0.3,0.6,0.5,1.1,0.5c0.4,0,0.8,0,1-0.1
		c0.3-0.1,0.6-0.2,0.9-0.5l0.5,1.3c-0.3,0.3-0.7,0.5-1.1,0.7C224.7,21.6,224.2,21.7,223.6,21.7z M223.5,15.1c-0.3,0-0.6,0.2-0.8,0.5
		c-0.2,0.3-0.3,0.7-0.3,1.3h2v-0.2c0-0.5-0.1-0.9-0.2-1.1S223.8,15.1,223.5,15.1z"/>
</g>
</svg>
