<?xml version="1.0" encoding="utf-8"?>
<!-- Roman Inozemtsev: https://github.com/mir-one/  -->
<svg version="1.1"
	 id="Слой_1" shape-rendering="geometricPrecision" image-rendering="optimizeQuality" text-rendering="geometricPrecision"
	 xmlns="http://www.w3.org/2000/svg" xmlns:xlink="http://www.w3.org/1999/xlink" x="0px" y="0px" viewBox="0 0 256.7 32.3"
	 style="enable-background:new 0 0 256.7 32.3;" xml:space="preserve">
<style type="text/css">
	.st0{fill:#B62A6F;}
</style>
<g>
	<path class="st0" d="M35.1,12.1c1,0.1,1.9,0.5,2.5,1.2s1,1.6,1,2.7c0,1.1-0.3,2-1,2.7s-1.5,1.1-2.5,1.2v1.4H33v-1.4
		c-1.1-0.1-1.9-0.5-2.6-1.2c-0.6-0.7-1-1.6-1-2.7c0-1.1,0.3-2,1-2.8c0.6-0.7,1.5-1.1,2.6-1.2v-1.5h2.1V12.1z M31.5,16
		c0,0.6,0.1,1.1,0.4,1.4s0.6,0.6,1.1,0.6l0,0v-4.2l0,0c-0.4,0-0.8,0.3-1.1,0.6C31.6,14.9,31.5,15.4,31.5,16z M36.6,16
		c0-0.6-0.1-1.1-0.4-1.5c-0.3-0.4-0.6-0.6-1-0.6l0,0V18l0,0c0.4,0,0.8-0.2,1-0.6C36.4,17.1,36.6,16.6,36.6,16z"/>
	<path class="st0" d="M42.6,21.4c-1,0-1.9-0.4-2.4-1.1s-0.9-1.7-0.9-2.8v-0.3c0-1.2,0.3-2.2,0.8-2.9s1.3-1.1,2.3-1.1
		c0.9,0,1.6,0.3,2.1,1s0.7,1.5,0.7,2.6v1.1h-4c0,0.6,0.2,1.1,0.4,1.4c0.2,0.3,0.6,0.5,1.1,0.5c0.4,0,0.8,0,1-0.1
		c0.3-0.1,0.6-0.2,0.9-0.5l0.5,1.3c-0.3,0.3-0.7,0.5-1.1,0.7S43.1,21.4,42.6,21.4z M42.4,14.8c-0.3,0-0.6,0.2-0.8,0.5
		c-0.2,0.3-0.3,0.7-0.3,1.3h2v-0.2c0-0.5-0.1-0.9-0.2-1.1S42.7,14.8,42.4,14.8z"/>
	<path class="st0" d="M52.7,17.5c0,1.2-0.2,2.1-0.7,2.8c-0.5,0.7-1.1,1.1-2,1.1c-0.3,0-0.6-0.1-0.9-0.2c-0.3-0.1-0.5-0.3-0.7-0.6
		v3.7h-2.1v-11h1.9l0.1,0.8c0.2-0.3,0.4-0.5,0.7-0.7s0.6-0.2,0.9-0.2c0.8,0,1.5,0.4,2,1.1s0.7,1.8,0.7,3V17.5z M50.6,17.4
		c0-0.8-0.1-1.4-0.3-1.8c-0.2-0.5-0.5-0.7-0.9-0.7c-0.2,0-0.4,0.1-0.6,0.2c-0.2,0.1-0.3,0.3-0.4,0.5v3.7c0.1,0.2,0.2,0.3,0.4,0.4
		s0.4,0.1,0.6,0.1c0.4,0,0.7-0.2,0.9-0.6c0.2-0.4,0.3-1,0.3-1.7V17.4z"/>
	<path class="st0" d="M58,18.8L58,18.8l1.6-5.5h2.6v7.9h-2.1V17h0l-1.4,4.3h-1.4L56,17.2l0,0v4.1h-2.1v-7.9h2.5L58,18.8z"/>
	<path class="st0" d="M66.8,21.4c-1,0-1.9-0.4-2.4-1.1c-0.6-0.7-0.9-1.7-0.9-2.8v-0.3c0-1.2,0.3-2.2,0.8-2.9s1.3-1.1,2.3-1.1
		c0.9,0,1.6,0.3,2.1,1s0.7,1.5,0.7,2.6v1.1h-4c0,0.6,0.2,1.1,0.4,1.4c0.2,0.3,0.6,0.5,1.1,0.5c0.4,0,0.8,0,1-0.1
		c0.3-0.1,0.6-0.2,0.9-0.5l0.5,1.3c-0.3,0.3-0.7,0.5-1.1,0.7S67.3,21.4,66.8,21.4z M66.7,14.8c-0.3,0-0.6,0.2-0.8,0.5
		c-0.2,0.3-0.3,0.7-0.3,1.3h2v-0.2c0-0.5-0.1-0.9-0.2-1.1S67,14.8,66.7,14.8z"/>
	<path class="st0" d="M76.9,17.5c0,1.2-0.2,2.1-0.7,2.8c-0.5,0.7-1.1,1.1-2,1.1c-0.3,0-0.6-0.1-0.9-0.2c-0.3-0.1-0.5-0.3-0.7-0.6
		v3.7h-2.1v-11h1.9l0.1,0.8c0.2-0.3,0.4-0.5,0.7-0.7c0.3-0.2,0.6-0.2,0.9-0.2c0.8,0,1.5,0.4,2,1.1s0.7,1.8,0.7,3V17.5z M74.8,17.4
		c0-0.8-0.1-1.4-0.3-1.8s-0.5-0.7-0.9-0.7c-0.2,0-0.4,0.1-0.6,0.2c-0.2,0.1-0.3,0.3-0.4,0.5v3.7c0.1,0.2,0.2,0.3,0.4,0.4
		c0.2,0.1,0.4,0.1,0.6,0.1c0.4,0,0.7-0.2,0.9-0.6c0.2-0.4,0.3-1,0.3-1.7V17.4z"/>
	<path class="st0" d="M80.9,19.8c0.3,0,0.5-0.1,0.7-0.3c0.2-0.2,0.2-0.5,0.2-0.9h1.9l0,0c0,0.8-0.2,1.5-0.8,2
		c-0.5,0.5-1.2,0.8-2,0.8c-1,0-1.8-0.4-2.4-1.1c-0.6-0.7-0.8-1.7-0.8-2.9v-0.2c0-1.2,0.3-2.1,0.8-2.9c0.6-0.8,1.3-1.1,2.4-1.1
		c0.9,0,1.5,0.3,2.1,0.8c0.5,0.5,0.8,1.3,0.7,2.2l0,0h-1.9c0-0.4-0.1-0.8-0.2-1.1c-0.2-0.3-0.4-0.4-0.7-0.4c-0.4,0-0.7,0.2-0.9,0.7
		c-0.2,0.4-0.2,1-0.2,1.7v0.2c0,0.7,0.1,1.3,0.2,1.8C80.2,19.6,80.5,19.8,80.9,19.8z"/>
	<path class="st0" d="M87.6,18.3h-0.6v3h-2.1v-7.9h2.1v3h0.5l1.3-3h2.6l-2.1,3.6l0,0l0,0l2.3,4.3h-2.8L87.6,18.3z"/>
	<path class="st0" d="M91.9,17.2c0-1.2,0.3-2.2,0.9-2.9c0.6-0.8,1.4-1.1,2.4-1.1c1,0,1.8,0.4,2.4,1.1c0.6,0.7,0.9,1.7,0.9,2.9v0.2
		c0,1.2-0.3,2.2-0.9,2.9c-0.6,0.7-1.4,1.1-2.4,1.1c-1,0-1.8-0.4-2.4-1.1s-0.9-1.7-0.9-2.9V17.2z M93.9,17.4c0,0.7,0.1,1.3,0.3,1.8
		c0.2,0.4,0.5,0.7,0.9,0.7c0.4,0,0.7-0.2,0.9-0.7c0.2-0.4,0.3-1,0.3-1.8v-0.2c0-0.7-0.1-1.3-0.3-1.8c-0.2-0.4-0.5-0.7-0.9-0.7
		s-0.7,0.2-0.9,0.7s-0.3,1-0.3,1.8V17.4z"/>
	<path class="st0" d="M102.6,21.4c-1,0-1.9-0.4-2.4-1.1c-0.6-0.7-0.9-1.7-0.9-2.8v-0.3c0-1.2,0.3-2.2,0.8-2.9s1.3-1.1,2.3-1.1
		c0.9,0,1.6,0.3,2.1,1s0.7,1.5,0.7,2.6v1.1h-4c0,0.6,0.2,1.1,0.4,1.4c0.2,0.3,0.6,0.5,1.1,0.5c0.4,0,0.8,0,1-0.1
		c0.3-0.1,0.6-0.2,0.9-0.5l0.5,1.3c-0.3,0.3-0.7,0.5-1.1,0.7S103.1,21.4,102.6,21.4z M102.4,14.8c-0.3,0-0.6,0.2-0.8,0.5
		c-0.2,0.3-0.3,0.7-0.3,1.3h2v-0.2c0-0.5-0.1-0.9-0.2-1.1S102.7,14.8,102.4,14.8z"/>
	<path class="st0" d="M112.4,15.9L112.4,15.9l0.9-2.5h2.3l-2,3.9l2.1,4h-2.3l-0.9-2.6h0l-0.9,2.6h-2.3l2.1-4l-2-3.9h2.3L112.4,15.9z
		"/>
	<path class="st0" d="M116,17.2c0-1.2,0.3-2.2,0.9-2.9c0.6-0.8,1.4-1.1,2.4-1.1c1,0,1.8,0.4,2.4,1.1c0.6,0.7,0.9,1.7,0.9,2.9v0.2
		c0,1.2-0.3,2.2-0.9,2.9c-0.6,0.7-1.4,1.1-2.4,1.1c-1,0-1.8-0.4-2.4-1.1s-0.9-1.7-0.9-2.9V17.2z M118.1,17.4c0,0.7,0.1,1.3,0.3,1.8
		c0.2,0.4,0.5,0.7,0.9,0.7c0.4,0,0.7-0.2,0.9-0.7c0.2-0.4,0.3-1,0.3-1.8v-0.2c0-0.7-0.1-1.3-0.3-1.8c-0.2-0.4-0.5-0.7-0.9-0.7
		s-0.7,0.2-0.9,0.7s-0.3,1-0.3,1.8V17.4z"/>
	<path class="st0" d="M126.6,16.6c0.3,0,0.5-0.1,0.7-0.2s0.2-0.4,0.2-0.7c0-0.3-0.1-0.5-0.2-0.7c-0.1-0.2-0.4-0.3-0.7-0.3
		c-0.3,0-0.5,0.1-0.7,0.2c-0.2,0.2-0.3,0.4-0.3,0.6h-2l0,0c0-0.7,0.2-1.3,0.8-1.7s1.2-0.6,2.1-0.6c0.9,0,1.7,0.2,2.3,0.6
		s0.8,1,0.8,1.7c0,0.4-0.1,0.7-0.3,1s-0.5,0.5-0.9,0.7c0.4,0.2,0.7,0.4,1,0.7s0.3,0.7,0.3,1.1c0,0.7-0.3,1.3-0.9,1.7
		c-0.6,0.4-1.4,0.6-2.3,0.6c-0.8,0-1.5-0.2-2.1-0.6c-0.6-0.4-0.9-1-0.8-1.8l0,0h2c0,0.3,0.1,0.5,0.3,0.7s0.4,0.3,0.8,0.3
		c0.3,0,0.6-0.1,0.8-0.3c0.2-0.2,0.3-0.4,0.3-0.7c0-0.3-0.1-0.6-0.3-0.8c-0.2-0.2-0.5-0.3-0.8-0.3h-1.1v-1.3H126.6z"/>
	<path class="st0" d="M136.9,13.3v7.9h-2.1v-2.8H134l-1.3,2.8h-2.1l1.5-3.1c-0.4-0.2-0.8-0.5-1-0.9c-0.2-0.4-0.3-0.8-0.3-1.3
		c0-0.8,0.3-1.4,0.8-1.9s1.3-0.7,2.2-0.7H136.9z M132.9,16c0,0.3,0.1,0.5,0.3,0.7s0.4,0.3,0.7,0.3h1V15h-1c-0.3,0-0.5,0.1-0.7,0.3
		C132.9,15.5,132.9,15.8,132.9,16z"/>
	<path class="st0" d="M142.4,13.3h2.1v7.9h-2.1v-4.4l0,0l-1.9,4.4h-2.1v-7.9h2.1v4.4l0,0L142.4,13.3z M143.7,9.9L143.7,9.9
		c0,0.7-0.2,1.2-0.6,1.6c-0.4,0.4-1,0.6-1.7,0.6c-0.7,0-1.3-0.2-1.7-0.6s-0.6-0.9-0.6-1.5l0,0h1.5c0,0.3,0.1,0.5,0.2,0.7
		s0.3,0.2,0.6,0.2c0.3,0,0.5-0.1,0.6-0.3c0.1-0.2,0.2-0.4,0.2-0.6H143.7z"/>
	<path class="st0" d="M148.7,19.8c0.3,0,0.5-0.1,0.7-0.3c0.2-0.2,0.2-0.5,0.2-0.9h1.9l0,0c0,0.8-0.2,1.5-0.8,2
		c-0.5,0.5-1.2,0.8-2,0.8c-1,0-1.8-0.4-2.4-1.1c-0.6-0.7-0.8-1.7-0.8-2.9v-0.2c0-1.2,0.3-2.1,0.8-2.9c0.6-0.8,1.3-1.1,2.4-1.1
		c0.9,0,1.5,0.3,2.1,0.8c0.5,0.5,0.8,1.3,0.7,2.2l0,0h-1.9c0-0.4-0.1-0.8-0.2-1.1s-0.4-0.4-0.7-0.4c-0.4,0-0.7,0.2-0.9,0.7
		c-0.2,0.4-0.2,1-0.2,1.7v0.2c0,0.7,0.1,1.3,0.2,1.8S148.3,19.8,148.7,19.8z"/>
	<path class="st0" d="M158.5,15h-2.1v6.3h-2.1V15h-2.1v-1.6h6.3V15z"/>
	<path class="st0" d="M159.5,21.3v-7.9h2.9c0.9,0,1.6,0.2,2.1,0.6c0.5,0.4,0.8,0.9,0.8,1.6c0,0.4-0.1,0.7-0.3,1
		c-0.2,0.3-0.5,0.5-1,0.7c0.6,0.1,1,0.3,1.3,0.7s0.4,0.7,0.4,1.2c0,0.7-0.2,1.3-0.7,1.7c-0.5,0.4-1.2,0.6-2.1,0.6H159.5z
		 M161.6,16.6h0.9c0.3,0,0.5-0.1,0.6-0.2c0.1-0.1,0.2-0.3,0.2-0.6c0-0.3-0.1-0.5-0.2-0.7s-0.4-0.2-0.6-0.2h-0.8V16.6z M161.6,17.9
		v1.7h1.3c0.3,0,0.5-0.1,0.6-0.2s0.2-0.4,0.2-0.6c0-0.3-0.1-0.5-0.2-0.6s-0.3-0.2-0.6-0.2H161.6z"/>
	<path class="st0" d="M166.5,17.2c0-1.2,0.3-2.2,0.9-2.9c0.6-0.8,1.4-1.1,2.4-1.1c1,0,1.8,0.4,2.4,1.1c0.6,0.7,0.9,1.7,0.9,2.9v0.2
		c0,1.2-0.3,2.2-0.9,2.9c-0.6,0.7-1.4,1.1-2.4,1.1c-1,0-1.8-0.4-2.4-1.1s-0.9-1.7-0.9-2.9V17.2z M168.6,17.4c0,0.7,0.1,1.3,0.3,1.8
		c0.2,0.4,0.5,0.7,0.9,0.7c0.4,0,0.7-0.2,0.9-0.7c0.2-0.4,0.3-1,0.3-1.8v-0.2c0-0.7-0.1-1.3-0.3-1.8c-0.2-0.4-0.5-0.7-0.9-0.7
		s-0.7,0.2-0.9,0.7s-0.3,1-0.3,1.8V17.4z"/>
	<path class="st0" d="M183,16.6h-3.3v3.1h3.9v1.6h-6V10.6h6v1.6h-3.9V15h3.3V16.6z"/>
	<path class="st0" d="M187.6,19.8c0.3,0,0.5-0.1,0.7-0.3c0.2-0.2,0.2-0.5,0.2-0.9h1.9l0,0c0,0.8-0.2,1.5-0.8,2
		c-0.5,0.5-1.2,0.8-2,0.8c-1,0-1.8-0.4-2.4-1.1c-0.6-0.7-0.8-1.7-0.8-2.9v-0.2c0-1.2,0.3-2.1,0.8-2.9c0.6-0.8,1.3-1.1,2.4-1.1
		c0.9,0,1.5,0.3,2.1,0.8c0.5,0.5,0.8,1.3,0.7,2.2l0,0h-1.9c0-0.4-0.1-0.8-0.2-1.1s-0.4-0.4-0.7-0.4c-0.4,0-0.7,0.2-0.9,0.7
		c-0.2,0.4-0.2,1-0.2,1.7v0.2c0,0.7,0.1,1.3,0.2,1.8S187.1,19.8,187.6,19.8z"/>
	<path class="st0" d="M191.1,17.2c0-1.2,0.3-2.2,0.9-2.9c0.6-0.8,1.4-1.1,2.4-1.1c1,0,1.8,0.4,2.4,1.1c0.6,0.7,0.9,1.7,0.9,2.9v0.2
		c0,1.2-0.3,2.2-0.9,2.9c-0.6,0.7-1.4,1.1-2.4,1.1c-1,0-1.8-0.4-2.4-1.1s-0.9-1.7-0.9-2.9V17.2z M193.2,17.4c0,0.7,0.1,1.3,0.3,1.8
		c0.2,0.4,0.5,0.7,0.9,0.7c0.4,0,0.7-0.2,0.9-0.7c0.2-0.4,0.3-1,0.3-1.8v-0.2c0-0.7-0.1-1.3-0.3-1.8c-0.2-0.4-0.5-0.7-0.9-0.7
		s-0.7,0.2-0.9,0.7c-0.2,0.4-0.3,1-0.3,1.8V17.4z"/>
	<path class="st0" d="M201,17.4v3.9h-2.1V10.6h3.6c1.1,0,1.9,0.3,2.5,0.9c0.6,0.6,0.9,1.4,0.9,2.5c0,1-0.3,1.8-0.9,2.5
		c-0.6,0.6-1.5,0.9-2.5,0.9H201z M201,15.8h1.5c0.5,0,0.8-0.2,1.1-0.5c0.2-0.3,0.4-0.8,0.4-1.3c0-0.5-0.1-1-0.4-1.3
		c-0.2-0.3-0.6-0.5-1.1-0.5H201V15.8z"/>
	<path class="st0" d="M206.8,17.2c0-1.2,0.3-2.2,0.9-2.9c0.6-0.8,1.4-1.1,2.4-1.1c1,0,1.8,0.4,2.4,1.1c0.6,0.7,0.9,1.7,0.9,2.9v0.2
		c0,1.2-0.3,2.2-0.9,2.9c-0.6,0.7-1.4,1.1-2.4,1.1c-1,0-1.8-0.4-2.4-1.1s-0.9-1.7-0.9-2.9V17.2z M208.8,17.4c0,0.7,0.1,1.3,0.3,1.8
		c0.2,0.4,0.5,0.7,0.9,0.7c0.4,0,0.7-0.2,0.9-0.7c0.2-0.4,0.3-1,0.3-1.8v-0.2c0-0.7-0.1-1.3-0.3-1.8c-0.2-0.4-0.5-0.7-0.9-0.7
		s-0.7,0.2-0.9,0.7s-0.3,1-0.3,1.8V17.4z"/>
	<path class="st0" d="M216.6,21.3h-2.1V9.8h2.1V21.3z"/>
	<path class="st0" d="M221.1,21.4c-1,0-1.9-0.4-2.4-1.1s-0.9-1.7-0.9-2.8v-0.3c0-1.2,0.3-2.2,0.8-2.9c0.6-0.8,1.3-1.1,2.3-1.1
		c0.9,0,1.6,0.3,2.1,1s0.7,1.5,0.7,2.6v1.1h-4c0,0.6,0.2,1.1,0.4,1.4c0.2,0.3,0.6,0.5,1.1,0.5c0.4,0,0.8,0,1-0.1
		c0.3-0.1,0.6-0.2,0.9-0.5l0.5,1.3c-0.3,0.3-0.7,0.5-1.1,0.7C222.2,21.3,221.6,21.4,221.1,21.4z M221,14.8c-0.3,0-0.6,0.2-0.8,0.5
		c-0.2,0.3-0.3,0.7-0.3,1.3h2v-0.2c0-0.5-0.1-0.9-0.2-1.1S221.3,14.8,221,14.8z"/>
</g>
</svg>
