<?xml version="1.0" encoding="utf-8"?>
<!-- Roman Inozemtsev: https://github.com/mir-one/  -->
<svg version="1.1"
	 id="Слой_1" shape-rendering="geometricPrecision" image-rendering="optimizeQuality" text-rendering="geometricPrecision"
	 xmlns="http://www.w3.org/2000/svg" xmlns:xlink="http://www.w3.org/1999/xlink" x="0px" y="0px" viewBox="0 0 24 24"
	 style="enable-background:new 0 0 24 24;" xml:space="preserve">
<style type="text/css">
	.st0{fill:#9ABC3E;}
	.st1{fill:#FFFFFF;}
</style>
<circle class="st0" cx="12" cy="12" r="12"/>
<circle class="st1" cx="12" cy="12" r="11.1"/>
<ellipse transform="matrix(0.7071 -0.7071 0.7071 0.7071 -4.9704 11.9931)" class="st1" cx="12" cy="12" rx="10.4" ry="10.4"/>
<path class="st0" d="M15.6,8.5c-1.9-2.2-5.3-2.2-7.1,0.1c-1.2,1.5-1.3,3.2-0.5,4.9c0.4,0.9,1,1.6,1.6,2.3c0.8,1,1.7,1.9,2.4,2.9
	c0.1,0.2,0.1,0.1,0.2,0c0.5-0.7,1-1.3,1.6-2c0.7-0.8,1.4-1.5,1.9-2.4c0.6-0.8,0.9-1.8,0.9-2.7C16.6,10.4,16.2,9.5,15.6,8.5z"/>
<g>
	<path class="st1" d="M12.1,14.1c-0.6,0-1.1-0.2-1.5-0.7c-0.3-0.4-0.5-1-0.5-1.7v-0.2c0-0.7,0.2-1.3,0.5-1.8
		c0.3-0.5,0.8-0.7,1.4-0.7c0.6,0,1,0.2,1.3,0.6c0.3,0.4,0.4,0.9,0.4,1.6V12h-2.4c0,0.4,0.1,0.6,0.2,0.8s0.4,0.3,0.6,0.3
		c0.2,0,0.5,0,0.6-0.1c0.2-0.1,0.3-0.1,0.5-0.3l0.3,0.8c-0.2,0.2-0.4,0.3-0.7,0.4C12.8,14.1,12.5,14.1,12.1,14.1z M12.1,10.2
		c-0.2,0-0.4,0.1-0.5,0.3c-0.1,0.2-0.2,0.4-0.2,0.8h1.2v-0.1c0-0.3,0-0.5-0.1-0.7S12.3,10.2,12.1,10.2z"/>
</g>
</svg>
