<?xml version="1.0" encoding="utf-8"?>
<!-- Roman Inozemtsev: https://github.com/mir-one/  -->
<svg version="1.1"
	 id="Слой_1" shape-rendering="geometricPrecision" image-rendering="optimizeQuality" text-rendering="geometricPrecision"
	 xmlns="http://www.w3.org/2000/svg" xmlns:xlink="http://www.w3.org/1999/xlink" x="0px" y="0px" viewBox="0 0 199.2 126.6"
	 style="enable-background:new 0 0 199.2 126.6;" xml:space="preserve">
<style type="text/css">
	.st0{fill:#9ABC3D;}
	.st1{fill:#B62A6F;}
</style>
<g>
	<path class="st0" d="M146.7,41.6c-0.1,1.4,0.9,2.3,1.4,3.4c0.4,0.7,0.6,1.3,0.3,2.1c-0.3,0.8,0,1.6,0.2,2.4
		c0.2,0.6,0.2,1.3,0.5,1.9c0.1,0.2,0.1,0.6,0,0.7c-0.8,1.1-0.5,2.3-0.6,3.4c0,1.2-0.1,2.3-1.2,3.1c-0.4,0.3-0.3,0.8-0.5,1.3
		c-0.3,0.9-0.5,1.7-0.7,2.6c-0.1,0.4-0.4,0.6-0.6,0.8c-1.3,0.5-1.6,1.9-2.3,2.9c-0.5,0.9-1,1.7-2.2,1.7c-0.3,0-0.4,0.3-0.6,0.4
		c-0.6,0.6-1.2,1.2-1.8,1.8c-0.6,0.6-1.2,0.9-2,0.9c-1.1-0.1-1.7,0.8-2.5,1.2c-0.9,0.4-1.6,1-2.8,0.5c-1-0.4-2,0.3-3,0.6
		c-0.8,0.2-1.5,0.4-2.1-0.2c-0.3-0.2-0.6-0.2-1-0.2c-0.9,0-1.7,0.1-2.6,0c-0.8-0.1-1.5-0.2-2-1c-0.6-0.8-1.7-0.8-2.6-1
		c-1.1-0.2-1.9-0.7-2.5-1.8c-0.5-1-1.8-1.3-2.7-1.9c-0.7-0.4-1.2-0.9-1.2-1.8c0-0.5-0.3-0.8-0.6-1.1c-0.4-0.4-0.8-0.9-1.2-1.2
		c-0.9-0.8-1.4-1.7-1.3-2.9c0-0.2,0-0.4-0.1-0.6c-0.6-0.8-0.9-1.7-1.3-2.5c-0.4-0.6-0.5-1.2-0.1-1.9c0.4-0.8-0.3-1.6-0.3-2.4
		c-0.1-0.7-0.3-1.3-0.5-2c-0.1-0.2,0-0.4,0.1-0.5c0.8-0.9,0.7-2,0.7-3c0-0.6,0-1.1,0-1.7c0-0.4,0.1-1,0.3-1.2c1.3-1,1.2-2.6,1.7-4
		c0.2-0.6,0.4-1.3,1.1-1.6c1-0.4,1.2-1.4,1.7-2.2c0.6-1.1,1.1-2,2.5-2.3c1.1-0.3,1.7-1.5,2.5-2.3c0.3-0.3,0.7-0.7,1.1-0.7
		c1.4,0.2,2.4-0.7,3.5-1.3c0.8-0.5,1.5-0.9,2.5-0.4c0.5,0.3,1.1-0.1,1.6-0.2c0.6-0.1,1.1-0.3,1.6-0.5c0.7-0.2,1.3-0.3,1.9,0.3
		c0.2,0.2,0.6,0.3,0.9,0.3c0.7,0,1.5,0,2.2,0c1-0.1,1.8,0.2,2.3,1c0.3,0.5,0.9,0.5,1.3,0.7c0.9,0.3,1.8,0.6,2.8,0.9
		c0.3,0.1,0.6,0.3,0.6,0.5c0.2,1.2,1.2,1.5,2,2c1.2,0.7,2.2,1.3,2.6,2.8c0.2,0.9,1.2,1.5,1.9,2.2C146.4,40.2,146.9,40.8,146.7,41.6z
		 M128.1,35.3c-4.7-0.1-8.4,1.5-11.4,4.6c-0.9,1-1.5,2.1-2.2,3.2c-1.3,1.9-1.9,4.1-2.1,6.3c-0.4,3.4,0.2,6.6,1.9,9.7
		c1.3,2.5,3.1,4.6,5.5,6.1c1.8,1.1,3.8,1.9,5.9,2.2c2.6,0.3,5.3,0.1,7.8-0.9c2.1-0.9,3.9-2.1,5.4-3.8c2.8-2.8,4.1-6.3,4.4-10.1
		c0.3-3.1-0.4-6.1-1.9-9c-1.6-3.2-4.1-5.5-7.2-7C132.3,35.6,130.1,35.1,128.1,35.3z"/>
	<path class="st0" d="M63.4,42.1c3.3,0.4,6.2,1.3,8.7,3.3c2.4,2,4,4.4,5.1,7.3c0.9,2.3,1.1,4.7,0.8,7.2c-0.4,3.3-1.6,6.3-3.9,8.7
		c-2.3,2.5-5.1,4.3-8.5,5c-2.5,0.5-4.9,0.2-7.2-0.6c-4.7-1.6-7.8-5-9.5-9.6c-1.2-3.3-1.2-6.7-0.2-10.1c0.7-2.2,1.8-4.2,3.2-6
		c0.7-0.9,1.6-1.6,2.6-2.3c1.4-1,2.9-1.8,4.6-2.3C60.5,42.3,62.1,42.4,63.4,42.1z M72.1,58.1c0.1-2.4-0.7-4.5-2.2-6.4
		c-2.3-2.9-7.2-4-10.7-2.2c-3.2,1.6-4.8,4.2-5.1,7.5c-0.4,3.9,1,7.1,4.5,9.2c2.2,1.3,4.6,1.6,7,0.9C69.7,65.9,72.2,61.9,72.1,58.1z"
		/>
	<path class="st0" d="M122,51.2c-0.1-3.1,3-6.1,5.9-6c2.7,0.1,5.9,2.8,5.7,6.3c-0.1,3.4-2.7,6-6,6C125,57.4,121.8,54.9,122,51.2z"/>
	<path class="st0" d="M67.1,58c0.3,2.2-2.2,4.3-3.9,4.3c-2.2,0-4.2-2.4-4.3-4.2c-0.1-2.1,2.1-4.5,4.1-4.4
		C65.1,53.7,67.3,55.5,67.1,58z"/>
	<path class="st0" d="M77,17.9c0-1.7,0-3.4,0-5.2c0-1.2,0.1-2.5,1.3-3.3c0.3-0.2,0.5-0.4,0.9-0.4c0.8,0,1-0.4,0.9-1.1
		c-0.1-0.8,0-1.5,0-2.3c0-0.5,0.1-0.7,0.7-0.7c0.5,0,0.6,0.2,0.6,0.7c0,0.8,0,1.5,0,2.3c0,0.7,0.3,1,0.8,1.1c0.6,0.1,1,0.5,1.4,0.8
		c0.6,0.4,0.9,1,0.9,1.8c0,3.6,0,7.3,0,10.9c0,0.7,0.2,0.9,0.9,0.9c1.6,0,3.1-0.3,4.7-0.2c1,0.1,1.3-0.7,1.5-1.5
		c0.8-3.9,1.7-7.8,2.6-11.7c0.4-1.6,0.6-3.1,1.3-4.6c1-2.2,2.5-3.7,4.7-4.6c1.3-0.5,2.6-0.6,3.9-0.6c10.5,0,21,0,31.6,0
		c1.4,0,2.7,0.9,2.4,2.6c-0.2,0.9-0.9,1.3-1.7,1.4c-1,0.1-1.2,0.6-1,1.3c0.6,2.2,0.7,4.4,1.2,6.6c0.5,2.3,0.7,4.7,1.1,7
		c0.2,1.2,0.4,2.5,0.6,3.7c0.1,0.7,0.8,0.7,1.3,0.7c1.1-0.1,2.2,0.1,3,1c0.4,0.4,0.6,1,0.8,1.5c0.5,1.2,0.8,2.5,1.3,3.7
		c0.2,0.5,0.3,0.9-0.2,1.2c-0.5,0.4-1,0.4-1.5,0.1c-0.9-0.6-1.7-1.1-2.6-1.6c-2.8-1.5-5.8-2.6-8.9-3.1c-2.3-0.4-4.7-0.4-7.1-0.1
		c-3.1,0.3-6,1.3-8.7,2.8c-2.6,1.4-4.6,3.3-6.5,5.5c-2.4,2.8-3.8,6.1-4.8,9.6c-0.4,1.4-0.6,2.9-0.8,4.4c-0.3,2.2-0.1,4.4-0.2,6.6
		c0,0.9,0.3,1.7,0.2,2.5c0,0.7-0.2,0.9-0.9,0.9c-2.8,0-5.7-0.1-8.5,0c-2.3,0.1-4.5-0.1-6.8,0.1c-1.5,0.1-3-0.1-4.5,0
		c-0.5,0-0.8-0.4-0.9-1c-0.1-2.6-0.7-5.1-1.7-7.4c-1.4-3.2-3.4-6.1-6.4-8.2c-3-2.1-6.2-3.2-9.8-3.3c-2,0-4-0.1-6,0.4
		c-0.9,0.2-1.3-0.1-1.1-1c0.3-2.2,0-4.5,1-6.6c0.8-1.8,2.1-3.1,3.9-3.8c3.6-1.4,7.4-2.1,11.2-2.9c1.1-0.2,2.1-0.4,3.2-0.4
		c0.6,0,0.8-0.3,0.8-0.9C77,21.6,77,19.7,77,17.9z M114.8,15.1c0-3,0-6,0-9c0-0.6-0.2-0.8-0.8-0.8c-4.9,0-9.7,0-14.6,0
		c-0.6,0-1,0.2-1.1,0.8c-0.2,1.2-0.4,2.4-0.7,3.6c-0.5,2.4-1.1,4.9-1.6,7.3c-0.4,2.2-1.1,4.3-1.2,6.5c-0.2,5.5-0.1,11-0.1,16.4
		c0,0.6,0.2,0.8,0.8,0.8c1.9,0,3.8,0,5.6,0c0.5,0,0.9-0.2,1-0.8c0.4-2,1.3-3.9,2.3-5.6c1-1.8,2.3-3.2,3.8-4.6c1.8-1.7,3.9-3.1,6-4.4
		c0.5-0.3,0.6-0.7,0.6-1.2C114.8,21.1,114.8,18.1,114.8,15.1z M118.1,14.6c0,2.8,0,5.6,0,8.4c0,1.1,0.2,1.3,1.2,0.9
		c2.4-0.9,5-1.4,7.6-1.4c2.1-0.1,4.2,0.2,6.3,0.6c0.5,0.1,1,0,0.9-0.7c-0.2-1-0.2-2-0.4-3c-0.6-2.8-0.7-5.6-1.2-8.4
		c-0.3-1.7-0.3-3.4-0.8-5.1c-0.2-0.6-0.4-0.6-0.9-0.6c-3.9,0-7.8,0-11.7,0c-0.7,0-1,0.3-0.9,1C118.1,9,118.1,11.8,118.1,14.6z"/>
</g>
<g>
	<path class="st1" d="M22.9,105.6h-14V119h16.8v6.9H0V80h25.7v7H8.9v11.7h14V105.6z"/>
	<path class="st1" d="M42.8,119.7c1.3,0,2.2-0.5,2.9-1.4c0.7-0.9,1-2.3,1-4h8l0.1,0.2c0.1,3.6-1,6.5-3.3,8.8
		c-2.3,2.3-5.2,3.4-8.7,3.4c-4.5,0-7.9-1.6-10.3-4.8c-2.4-3.2-3.6-7.4-3.6-12.4v-0.9c0-5,1.2-9.2,3.6-12.4c2.4-3.2,5.8-4.8,10.2-4.8
		c3.7,0,6.6,1.2,8.8,3.5c2.2,2.4,3.3,5.6,3.2,9.6l-0.1,0.2h-8.1c0-1.9-0.3-3.4-1-4.6c-0.7-1.2-1.6-1.7-2.9-1.7
		c-1.9,0-3.1,0.9-3.8,2.8c-0.7,1.9-1.1,4.4-1.1,7.5v0.9c0,3.2,0.4,5.7,1.1,7.5C39.6,118.7,40.9,119.7,42.8,119.7z"/>
	<path class="st1" d="M58.2,108.6c0-5.1,1.2-9.3,3.7-12.5c2.5-3.2,5.9-4.8,10.3-4.8c4.4,0,7.9,1.6,10.4,4.8
		c2.5,3.2,3.7,7.4,3.7,12.5v0.7c0,5.1-1.2,9.3-3.7,12.5c-2.5,3.2-5.9,4.8-10.3,4.8c-4.5,0-7.9-1.6-10.4-4.8
		c-2.5-3.2-3.7-7.4-3.7-12.5V108.6z M67,109.3c0,3.2,0.4,5.7,1.2,7.6c0.8,1.9,2.1,2.8,4,2.8c1.8,0,3.1-0.9,3.9-2.8
		c0.8-1.9,1.2-4.4,1.2-7.6v-0.7c0-3.1-0.4-5.7-1.2-7.6c-0.8-1.9-2.1-2.9-4-2.9c-1.9,0-3.2,1-4,2.9c-0.8,1.9-1.2,4.4-1.2,7.5V109.3z"
		/>
	<path class="st1" d="M100.5,109.3v16.6h-8.9V80H107c4.6,0,8.3,1.4,10.9,4.1c2.7,2.7,4,6.2,4,10.6c0,4.4-1.3,7.9-4,10.6
		c-2.7,2.7-6.3,4-10.9,4H100.5z M100.5,102.3h6.5c2,0,3.5-0.7,4.6-2.1c1-1.4,1.6-3.3,1.6-5.5c0-2.3-0.5-4.1-1.6-5.6
		c-1-1.5-2.6-2.2-4.6-2.2h-6.5V102.3z"/>
	<path class="st1" d="M125.6,108.6c0-5.1,1.2-9.3,3.7-12.5c2.5-3.2,5.9-4.8,10.3-4.8c4.4,0,7.9,1.6,10.3,4.8
		c2.5,3.2,3.7,7.4,3.7,12.5v0.7c0,5.1-1.2,9.3-3.7,12.5c-2.5,3.2-5.9,4.8-10.3,4.8c-4.5,0-7.9-1.6-10.4-4.8
		c-2.5-3.2-3.7-7.4-3.7-12.5V108.6z M134.5,109.3c0,3.2,0.4,5.7,1.2,7.6c0.8,1.9,2.1,2.8,4,2.8c1.8,0,3.1-0.9,3.9-2.8
		s1.2-4.4,1.2-7.6v-0.7c0-3.1-0.4-5.7-1.2-7.6c-0.8-1.9-2.1-2.9-4-2.9c-1.9,0-3.2,1-4,2.9c-0.8,1.9-1.2,4.4-1.2,7.5V109.3z"/>
	<path class="st1" d="M167.8,125.9h-8.9V76.7h8.9V125.9z"/>
	<path class="st1" d="M187.2,126.6c-4.5,0-8-1.6-10.5-4.7c-2.5-3.1-3.7-7.1-3.7-12v-1.3c0-5.2,1.2-9.4,3.6-12.6
		c2.4-3.2,5.7-4.9,10.1-4.9c4,0,7.1,1.4,9.2,4.1c2.1,2.8,3.2,6.5,3.2,11.2v4.9h-17.2c0.1,2.5,0.7,4.5,1.7,6c1,1.5,2.5,2.2,4.6,2.2
		c1.8,0,3.2-0.2,4.4-0.6c1.2-0.4,2.5-1.1,3.8-1.9l2.3,5.6c-1.2,1.1-2.9,2.1-4.9,2.8C191.8,126.2,189.6,126.6,187.2,126.6z
		 M186.7,98.1c-1.5,0-2.6,0.7-3.3,2c-0.7,1.3-1.2,3.1-1.4,5.4h8.5v-0.8c0-2.1-0.3-3.7-0.9-4.9C189,98.7,188.1,98.1,186.7,98.1z"/>
</g>
</svg>
