<?xml version="1.0" encoding="utf-8"?>
<!-- Roman Inozemtsev: https://github.com/mir-one/  -->
<svg version="1.1"
	 id="Слой_1" shape-rendering="geometricPrecision" image-rendering="optimizeQuality" text-rendering="geometricPrecision"
	 xmlns="http://www.w3.org/2000/svg" xmlns:xlink="http://www.w3.org/1999/xlink" x="0px" y="0px" viewBox="0 0 199.2 49.6"
	 style="enable-background:new 0 0 199.2 49.6;" xml:space="preserve">
<style type="text/css">
	.st0{fill:#B62A6F;}
</style>
<g>
	<path class="st0" d="M22.9,28.7h-14V42h16.8V49H0V3h25.7v7H8.9v11.7h14V28.7z"/>
	<path class="st0" d="M42.8,42.7c1.3,0,2.2-0.5,2.9-1.4c0.7-0.9,1-2.3,1-4h8l0.1,0.2c0.1,3.6-1,6.5-3.3,8.8
		c-2.3,2.3-5.2,3.4-8.7,3.4c-4.5,0-7.9-1.6-10.3-4.8c-2.4-3.2-3.6-7.4-3.6-12.4v-0.9c0-5,1.2-9.2,3.6-12.4c2.4-3.2,5.8-4.8,10.2-4.8
		c3.7,0,6.6,1.2,8.8,3.5s3.3,5.6,3.2,9.6l-0.1,0.2h-8.1c0-1.9-0.3-3.4-1-4.6c-0.7-1.2-1.6-1.7-2.9-1.7c-1.9,0-3.1,0.9-3.8,2.8
		c-0.7,1.9-1.1,4.4-1.1,7.5v0.9c0,3.2,0.4,5.7,1.1,7.5C39.6,41.8,40.9,42.7,42.8,42.7z"/>
	<path class="st0" d="M58.2,31.6c0-5.1,1.2-9.3,3.7-12.5c2.5-3.2,5.9-4.8,10.3-4.8c4.4,0,7.9,1.6,10.4,4.8c2.5,3.2,3.7,7.4,3.7,12.5
		v0.7c0,5.1-1.2,9.3-3.7,12.5c-2.5,3.2-5.9,4.8-10.3,4.8c-4.5,0-7.9-1.6-10.4-4.8c-2.5-3.2-3.7-7.4-3.7-12.5V31.6z M67,32.3
		c0,3.2,0.4,5.7,1.2,7.6c0.8,1.9,2.1,2.8,4,2.8c1.8,0,3.1-0.9,3.9-2.8c0.8-1.9,1.2-4.4,1.2-7.6v-0.7c0-3.1-0.4-5.7-1.2-7.6
		c-0.8-1.9-2.1-2.9-4-2.9c-1.9,0-3.2,1-4,2.9C67.4,26,67,28.5,67,31.6V32.3z"/>
	<path class="st0" d="M100.5,32.3V49h-8.9V3H107c4.6,0,8.3,1.4,10.9,4.1c2.7,2.7,4,6.2,4,10.6c0,4.4-1.3,7.9-4,10.6
		c-2.7,2.7-6.3,4-10.9,4H100.5z M100.5,25.4h6.5c2,0,3.5-0.7,4.6-2.1c1-1.4,1.6-3.3,1.6-5.5c0-2.3-0.5-4.1-1.6-5.6
		c-1-1.5-2.6-2.2-4.6-2.2h-6.5V25.4z"/>
	<path class="st0" d="M125.6,31.6c0-5.1,1.2-9.3,3.7-12.5c2.5-3.2,5.9-4.8,10.3-4.8c4.4,0,7.9,1.6,10.3,4.8
		c2.5,3.2,3.7,7.4,3.7,12.5v0.7c0,5.1-1.2,9.3-3.7,12.5c-2.5,3.2-5.9,4.8-10.3,4.8c-4.5,0-7.9-1.6-10.4-4.8
		c-2.5-3.2-3.7-7.4-3.7-12.5V31.6z M134.5,32.3c0,3.2,0.4,5.7,1.2,7.6c0.8,1.9,2.1,2.8,4,2.8c1.8,0,3.1-0.9,3.9-2.8
		c0.8-1.9,1.2-4.4,1.2-7.6v-0.7c0-3.1-0.4-5.7-1.2-7.6c-0.8-1.9-2.1-2.9-4-2.9c-1.9,0-3.2,1-4,2.9c-0.8,1.9-1.2,4.4-1.2,7.5V32.3z"
		/>
	<path class="st0" d="M167.8,49h-8.9V-0.3h8.9V49z"/>
	<path class="st0" d="M187.2,49.6c-4.5,0-8-1.6-10.5-4.7c-2.5-3.1-3.7-7.1-3.7-12v-1.3c0-5.2,1.2-9.4,3.6-12.6
		c2.4-3.2,5.7-4.9,10.1-4.9c4,0,7.1,1.4,9.2,4.1c2.1,2.8,3.2,6.5,3.2,11.2v4.9h-17.2c0.1,2.5,0.7,4.5,1.7,6c1,1.5,2.5,2.2,4.6,2.2
		c1.8,0,3.2-0.2,4.4-0.6c1.2-0.4,2.5-1.1,3.8-1.9l2.3,5.6c-1.2,1.1-2.9,2.1-4.9,2.8C191.8,49.3,189.6,49.6,187.2,49.6z M186.7,21.2
		c-1.5,0-2.6,0.7-3.3,2c-0.7,1.3-1.2,3.1-1.4,5.4h8.5v-0.8c0-2.1-0.3-3.7-0.9-4.9C189,21.8,188.1,21.2,186.7,21.2z"/>
</g>
</svg>
