<?xml version="1.0" encoding="utf-8"?>
<!-- Roman Inozemtsev: https://github.com/mir-one/  -->
<svg version="1.1" id="Слой_1" xmlns="http://www.w3.org/2000/svg" xmlns:xlink="http://www.w3.org/1999/xlink" x="0px" y="0px"
	 viewBox="0 0 67 67" style="enable-background:new 0 0 67 67;" xml:space="preserve">
<style type="text/css">
	.st0{fill:#B62A6F;}
	.st1{fill:none;}
	.st2{fill:#872156;}
	.st3{fill:#FFFFFF;}
	.st4{fill:#58595B;}
</style>
<path class="st0" d="M54,13C42.7,1.7,24.3,1.7,13,13S1.7,42.7,13,54c5.4,5.4,12.5,8.2,19.6,8.5c7.7,0.2,15.5-2.6,21.4-8.5
	c5.3-5.3,8.1-12.2,8.4-19.2C62.8,27,60,19,54,13z"/>
<path class="st1" d="M33.5,2.6C16.4,2.6,2.6,16.4,2.6,33.5s13.9,30.9,30.9,30.9c0.3,0,0.7,0,1-0.1c0.1,0,0.1,0,0.2,0L14.3,43.9
	l2.5-7.1l2.9-1.2l-2.4-2.4l9.6-5.2l-0.5-7.9l4.9,5.5l1.4-6l8.5-0.7l7-0.7L64.4,35c0-0.5,0-1,0-1.5C64.4,16.4,50.6,2.6,33.5,2.6z"/>
<path class="st0" d="M34.5,64.4c-0.3,0-0.7,0.1-1,0.1c-17.1,0-30.9-13.9-30.9-30.9c0-17.1,13.9-30.9,30.9-30.9
	c17.1,0,30.9,13.9,30.9,30.9c0,0.5,0,1,0,1.5l2.3,2.4c0.2-1.3,0.3-2.6,0.3-3.9C67,15,52,0,33.5,0S0,15,0,33.5S15,67,33.5,67
	c1.2,0,2.3-0.1,3.4-0.2c0.1,0,0.1,0,0.2,0l-2.4-2.4C34.6,64.4,34.6,64.4,34.5,64.4z"/>
<path class="st2" d="M41.2,19l-8.5,0.7l-1.4,6l-4.9-5.5l0.5,7.9l-9.6,5.2l2.4,2.4l-2.9,1.2L14.3,44l20.4,20.4
	c15.5-0.6,28-12.5,29.6-27.7c0.1-0.5,0.1-1.1,0.1-1.6L48.2,18.4L41.2,19z"/>
<path class="st2" d="M66.5,38.9c0.1-0.5,0.1-1,0.2-1.5L64.4,35c0,0.6-0.1,1.1-0.1,1.6c-1.5,15.2-14.1,27.1-29.6,27.7l2.4,2.4
	C52.1,65.2,64.1,53.6,66.5,38.9z"/>
<path class="st3" d="M33.5,2.6C16.4,2.6,2.6,16.4,2.6,33.5s13.9,30.9,30.9,30.9c0.3,0,0.7,0,1-0.1c15.6-0.5,28.2-12.5,29.8-27.7
	c0.1-1,0.2-2.1,0.2-3.2C64.4,16.4,50.6,2.6,33.5,2.6z M54,54c-5.9,5.9-13.7,8.7-21.4,8.5c-7.1-0.2-14.2-3-19.6-8.5
	C1.7,42.7,1.7,24.3,13,13s29.7-11.3,41,0c6,6,8.8,14,8.4,21.8C62.1,41.8,59.3,48.7,54,54z"/>
<g>
	<path class="st4" d="M52.6,34.9c0,0.6,0.3,0.9,0.6,1.3c0.1,0.3,0.2,0.5,0.1,0.8c-0.1,0.3,0,0.6,0.1,0.9c0.1,0.2,0.1,0.5,0.2,0.8
		c0,0.1,0,0.2,0,0.3c-0.3,0.4-0.2,0.9-0.2,1.3c0,0.5,0,0.9-0.5,1.2c-0.2,0.1-0.1,0.3-0.2,0.5c-0.1,0.3-0.2,0.7-0.3,1
		c0,0.1-0.1,0.3-0.2,0.3c-0.5,0.2-0.6,0.7-0.9,1.1c-0.2,0.4-0.4,0.7-0.9,0.7c-0.1,0-0.2,0.1-0.2,0.2c-0.2,0.2-0.5,0.5-0.7,0.7
		s-0.5,0.4-0.8,0.3c-0.4,0-0.6,0.3-1,0.5c-0.3,0.2-0.6,0.4-1.1,0.2c-0.4-0.1-0.8,0.1-1.2,0.2c-0.3,0.1-0.6,0.1-0.8-0.1
		C44.5,47,44.4,47,44.2,47c-0.3,0-0.7,0-1,0s-0.6-0.1-0.8-0.4c-0.2-0.3-0.6-0.3-1-0.4c-0.4-0.1-0.7-0.3-1-0.7
		c-0.2-0.4-0.7-0.5-1.1-0.7c-0.3-0.2-0.5-0.4-0.5-0.7c0-0.2-0.1-0.3-0.2-0.4c-0.2-0.2-0.3-0.3-0.5-0.5c-0.4-0.3-0.6-0.6-0.5-1.1
		c0-0.1,0-0.2,0-0.2c-0.2-0.3-0.3-0.6-0.5-1c-0.1-0.2-0.2-0.5,0-0.7c0.2-0.3-0.1-0.6-0.1-0.9c0-0.3-0.1-0.5-0.2-0.8
		c0-0.1,0-0.1,0-0.2c0.3-0.3,0.3-0.8,0.3-1.2c0-0.2,0-0.4,0-0.6c0-0.2,0-0.4,0.1-0.5c0.5-0.4,0.5-1,0.7-1.6c0.1-0.2,0.2-0.5,0.4-0.6
		c0.4-0.2,0.5-0.5,0.7-0.9s0.4-0.8,1-0.9c0.4-0.1,0.6-0.6,1-0.9c0.1-0.1,0.3-0.3,0.4-0.3c0.6,0.1,0.9-0.3,1.4-0.5
		c0.3-0.2,0.6-0.4,1-0.2c0.2,0.1,0.4,0,0.6-0.1c0.2,0,0.4-0.1,0.6-0.2c0.3-0.1,0.5-0.1,0.7,0.1c0.1,0.1,0.2,0.1,0.4,0.1
		c0.3,0,0.6,0,0.9,0c0.4,0,0.7,0.1,0.9,0.4c0.1,0.2,0.3,0.2,0.5,0.3c0.4,0.1,0.7,0.2,1.1,0.3c0.1,0,0.2,0.1,0.2,0.2
		c0.1,0.5,0.5,0.6,0.8,0.8c0.5,0.3,0.9,0.5,1,1.1c0.1,0.3,0.5,0.6,0.7,0.8C52.5,34.4,52.7,34.6,52.6,34.9z M45.4,32.4
		c-1.8-0.1-3.3,0.6-4.4,1.8c-0.4,0.4-0.6,0.8-0.9,1.2c-0.5,0.8-0.7,1.6-0.8,2.5c-0.1,1.3,0.1,2.6,0.7,3.8c0.5,1,1.2,1.8,2.1,2.4
		c0.7,0.4,1.5,0.7,2.3,0.8c1,0.1,2.1,0,3-0.4c0.8-0.3,1.5-0.8,2.1-1.5c1.1-1.1,1.6-2.5,1.7-3.9c0.1-1.2-0.2-2.4-0.7-3.5
		c-0.6-1.2-1.6-2.1-2.8-2.7C47,32.6,46.1,32.4,45.4,32.4z"/>
	<path class="st4" d="M20.2,35.1c1.3,0.2,2.4,0.5,3.4,1.3c0.9,0.8,1.6,1.7,2,2.8c0.3,0.9,0.4,1.8,0.3,2.8c-0.2,1.3-0.6,2.4-1.5,3.4
		s-2,1.7-3.3,1.9c-1,0.2-1.9,0.1-2.8-0.2c-1.8-0.6-3-1.9-3.7-3.7c-0.5-1.3-0.5-2.6-0.1-3.9c0.3-0.9,0.7-1.6,1.2-2.3
		c0.3-0.3,0.6-0.6,1-0.9c0.5-0.4,1.1-0.7,1.8-0.9C19.1,35.2,19.7,35.2,20.2,35.1z M23.6,41.3c0.1-0.9-0.3-1.8-0.9-2.5
		c-0.9-1.1-2.8-1.6-4.1-0.9c-1.2,0.6-1.9,1.6-2,2.9c-0.2,1.5,0.4,2.8,1.7,3.6c0.8,0.5,1.8,0.6,2.7,0.3
		C22.7,44.3,23.6,42.8,23.6,41.3z"/>
	<path class="st4" d="M43,38.6c-0.1-1.2,1.2-2.4,2.3-2.3c1.1,0,2.3,1.1,2.2,2.4C47.4,40,46.4,41,45.2,41
		C44.2,41.1,42.9,40.1,43,38.6z"/>
	<path class="st4" d="M21.7,41.3c0.1,0.9-0.8,1.7-1.5,1.7c-0.8,0-1.6-0.9-1.7-1.6c0-0.8,0.8-1.7,1.6-1.7
		C20.9,39.6,21.7,40.3,21.7,41.3z"/>
	<path class="st4" d="M25.5,25.7c0-0.7,0-1.3,0-2c0-0.5,0-1,0.5-1.3c0.1-0.1,0.2-0.2,0.3-0.2c0.3,0,0.4-0.2,0.4-0.4
		c0-0.3,0-0.6,0-0.9c0-0.2,0.1-0.3,0.3-0.3c0.2,0,0.2,0.1,0.2,0.3c0,0.3,0,0.6,0,0.9s0.1,0.4,0.3,0.4c0.2,0,0.4,0.2,0.6,0.3
		c0.2,0.2,0.3,0.4,0.3,0.7c0,1.4,0,2.8,0,4.2c0,0.3,0.1,0.3,0.3,0.3c0.6,0,1.2-0.1,1.8-0.1c0.4,0,0.5-0.3,0.6-0.6
		c0.3-1.5,0.7-3,1-4.5c0.1-0.6,0.2-1.2,0.5-1.8c0.4-0.9,1-1.4,1.8-1.8c0.5-0.2,1-0.2,1.5-0.2c4.1,0,8.2,0,12.3,0
		c0.5,0,1.1,0.4,0.9,1c-0.1,0.4-0.3,0.5-0.7,0.5s-0.5,0.2-0.4,0.5c0.2,0.8,0.3,1.7,0.5,2.6s0.3,1.8,0.4,2.7c0.1,0.5,0.1,1,0.3,1.4
		c0.1,0.3,0.3,0.3,0.5,0.3c0.4,0,0.8,0,1.2,0.4c0.2,0.2,0.2,0.4,0.3,0.6c0.2,0.5,0.3,1,0.5,1.4c0.1,0.2,0.1,0.3-0.1,0.5
		c-0.2,0.1-0.4,0.2-0.6,0c-0.3-0.2-0.7-0.4-1-0.6c-1.1-0.6-2.2-1-3.5-1.2c-0.9-0.1-1.8-0.1-2.8,0c-1.2,0.1-2.3,0.5-3.4,1.1
		c-1,0.5-1.8,1.3-2.5,2.2c-0.9,1.1-1.5,2.4-1.9,3.7c-0.2,0.5-0.2,1.1-0.3,1.7c-0.1,0.9,0,1.7-0.1,2.6c0,0.3,0.1,0.7,0.1,1
		s-0.1,0.4-0.4,0.4c-1.1,0-2.2,0-3.3,0c-0.9,0-1.8,0-2.6,0c-0.6,0-1.2-0.1-1.8,0c-0.2,0-0.3-0.2-0.3-0.4c-0.1-1-0.3-2-0.7-2.9
		c-0.6-1.3-1.3-2.4-2.5-3.2s-2.4-1.2-3.8-1.3c-0.8,0-1.6,0-2.3,0.2c-0.3,0.1-0.5,0-0.4-0.4c0.1-0.9,0-1.7,0.4-2.6
		c0.3-0.7,0.8-1.2,1.5-1.5c1.4-0.6,2.9-0.8,4.4-1.1c0.4-0.1,0.8-0.2,1.3-0.2c0.2,0,0.3-0.1,0.3-0.3C25.5,27.1,25.5,26.4,25.5,25.7z
		 M40.2,24.6c0-1.2,0-2.3,0-3.5c0-0.2-0.1-0.3-0.3-0.3c-1.9,0-3.8,0-5.7,0c-0.2,0-0.4,0.1-0.4,0.3c-0.1,0.5-0.2,0.9-0.3,1.4
		c-0.2,1-0.4,1.9-0.6,2.9c-0.2,0.8-0.4,1.7-0.5,2.5c-0.1,2.1,0,4.3,0,6.4c0,0.2,0.1,0.3,0.3,0.3c0.7,0,1.5,0,2.2,0
		c0.2,0,0.3-0.1,0.4-0.3c0.2-0.8,0.5-1.5,0.9-2.2s0.9-1.3,1.5-1.8c0.7-0.7,1.5-1.2,2.3-1.7c0.2-0.1,0.2-0.3,0.2-0.5
		C40.2,26.9,40.2,25.8,40.2,24.6z M41.5,24.4c0,1.1,0,2.2,0,3.3c0,0.4,0.1,0.5,0.5,0.3c0.9-0.3,1.9-0.5,2.9-0.6
		c0.8,0,1.6,0.1,2.4,0.2c0.2,0,0.4,0,0.3-0.3c-0.1-0.4-0.1-0.8-0.2-1.2c-0.2-1.1-0.3-2.2-0.5-3.2c-0.1-0.7-0.1-1.3-0.3-2
		c-0.1-0.2-0.2-0.2-0.3-0.2c-1.5,0-3,0-4.6,0c-0.3,0-0.4,0.1-0.4,0.4C41.5,22.2,41.5,23.3,41.5,24.4z"/>
</g>
<g>
	<path class="st3" d="M51.7,34.3c0,0.6,0.3,0.9,0.6,1.3c0.1,0.3,0.2,0.5,0.1,0.8c-0.1,0.3,0,0.6,0.1,0.9c0.1,0.2,0.1,0.5,0.2,0.8
		c0,0.1,0,0.2,0,0.3c-0.3,0.4-0.2,0.9-0.2,1.3c0,0.5,0,0.9-0.5,1.2c-0.2,0.1-0.1,0.3-0.2,0.5c-0.1,0.3-0.2,0.7-0.3,1
		c0,0.1-0.1,0.3-0.2,0.3c-0.5,0.2-0.6,0.7-0.9,1.1c-0.2,0.4-0.4,0.7-0.9,0.7c-0.1,0-0.2,0.1-0.2,0.2c-0.2,0.2-0.5,0.5-0.7,0.7
		s-0.5,0.4-0.8,0.3c-0.4,0-0.6,0.3-1,0.5c-0.3,0.2-0.6,0.4-1.1,0.2c-0.4-0.1-0.8,0.1-1.2,0.2c-0.3,0.1-0.6,0.1-0.8-0.1
		c-0.1-0.1-0.2-0.1-0.4-0.1c-0.3,0-0.7,0-1,0s-0.6-0.1-0.8-0.4c-0.2-0.3-0.6-0.3-1-0.4c-0.4-0.1-0.7-0.3-1-0.7
		c-0.2-0.4-0.7-0.5-1.1-0.7c-0.3-0.2-0.5-0.4-0.5-0.7c0-0.2-0.1-0.3-0.2-0.4c-0.2-0.2-0.3-0.3-0.5-0.5c-0.4-0.3-0.6-0.6-0.5-1.1
		c0-0.1,0-0.2,0-0.2c-0.2-0.3-0.3-0.6-0.5-1c-0.1-0.2-0.2-0.5,0-0.7c0.2-0.3-0.1-0.6-0.1-0.9c0-0.3-0.1-0.5-0.2-0.8
		c0-0.1,0-0.1,0-0.2c0.3-0.3,0.3-0.8,0.3-1.2c0-0.2,0-0.4,0-0.6c0-0.2,0-0.4,0.1-0.5c0.5-0.4,0.5-1,0.7-1.6c0.1-0.2,0.2-0.5,0.4-0.6
		c0.4-0.2,0.5-0.5,0.7-0.9c0.2-0.4,0.4-0.8,1-0.9c0.4-0.1,0.6-0.6,1-0.9c0.1-0.1,0.3-0.3,0.4-0.3c0.6,0.1,0.9-0.3,1.4-0.5
		c0.3-0.2,0.6-0.4,1-0.2c0.2,0.1,0.4,0,0.6-0.1c0.2,0,0.4-0.1,0.6-0.2c0.3-0.1,0.5-0.1,0.7,0.1c0.1,0.1,0.2,0.1,0.4,0.1
		c0.3,0,0.6,0,0.9,0c0.4,0,0.7,0.1,0.9,0.4c0.1,0.2,0.3,0.2,0.5,0.3c0.4,0.1,0.7,0.2,1.1,0.3c0.1,0,0.2,0.1,0.2,0.2
		c0.1,0.5,0.5,0.6,0.8,0.8c0.5,0.3,0.9,0.5,1,1.1c0.1,0.3,0.5,0.6,0.7,0.8C51.6,33.8,51.8,34,51.7,34.3z M44.5,31.8
		c-1.8-0.1-3.3,0.6-4.4,1.8c-0.4,0.4-0.6,0.8-0.9,1.2c-0.5,0.8-0.7,1.6-0.8,2.5c-0.1,1.3,0.1,2.6,0.7,3.8c0.5,1,1.2,1.8,2.1,2.4
		c0.7,0.4,1.5,0.7,2.3,0.8c1,0.1,2.1,0,3-0.4c0.8-0.3,1.5-0.8,2.1-1.5c1.1-1.1,1.6-2.5,1.7-3.9c0.1-1.2-0.2-2.4-0.7-3.5
		c-0.6-1.2-1.6-2.1-2.8-2.7C46.1,31.9,45.3,31.7,44.5,31.8z"/>
	<path class="st3" d="M19.4,34.5c1.3,0.2,2.4,0.5,3.4,1.3c0.9,0.8,1.6,1.7,2,2.8c0.3,0.9,0.4,1.8,0.3,2.8c-0.2,1.3-0.6,2.4-1.5,3.4
		s-2,1.7-3.3,1.9c-1,0.2-1.9,0.1-2.8-0.2c-1.8-0.6-3-1.9-3.7-3.7c-0.5-1.3-0.5-2.6-0.1-3.9c0.3-0.9,0.7-1.6,1.2-2.3
		c0.3-0.3,0.6-0.6,1-0.9c0.5-0.4,1.1-0.7,1.8-0.9C18.2,34.5,18.8,34.6,19.4,34.5z M22.7,40.7c0.1-0.9-0.3-1.8-0.9-2.5
		c-0.9-1.1-2.8-1.6-4.1-0.9c-1.2,0.6-1.9,1.6-2,2.9c-0.2,1.5,0.4,2.8,1.7,3.6c0.8,0.5,1.8,0.6,2.7,0.3
		C21.8,43.7,22.8,42.2,22.7,40.7z"/>
	<path class="st3" d="M42.1,38c-0.1-1.2,1.2-2.4,2.3-2.3c1.1,0,2.3,1.1,2.2,2.4c-0.1,1.3-1.1,2.3-2.3,2.3
		C43.3,40.4,42.1,39.4,42.1,38z"/>
	<path class="st3" d="M20.8,40.7c0.1,0.9-0.8,1.7-1.5,1.7c-0.8,0-1.6-0.9-1.7-1.6c0-0.8,0.8-1.7,1.6-1.7C20,39,20.8,39.7,20.8,40.7z
		"/>
	<path class="st3" d="M24.6,25.1c0-0.7,0-1.3,0-2c0-0.5,0-1,0.5-1.3c0.1-0.1,0.2-0.2,0.3-0.2c0.3,0,0.4-0.2,0.4-0.4
		c0-0.3,0-0.6,0-0.9c0-0.2,0.1-0.3,0.3-0.3c0.2,0,0.2,0.1,0.2,0.3c0,0.3,0,0.6,0,0.9s0.1,0.4,0.3,0.4c0.2,0,0.4,0.2,0.6,0.3
		c0.2,0.2,0.3,0.4,0.3,0.7c0,1.4,0,2.8,0,4.2c0,0.3,0.1,0.3,0.3,0.3c0.6,0,1.2-0.1,1.8-0.1c0.4,0,0.5-0.3,0.6-0.6
		c0.3-1.5,0.7-3,1-4.5c0.1-0.6,0.2-1.2,0.5-1.8c0.4-0.9,1-1.4,1.8-1.8c0.5-0.2,1-0.2,1.5-0.2c4.1,0,8.2,0,12.3,0
		c0.5,0,1.1,0.4,0.9,1c-0.1,0.4-0.3,0.5-0.7,0.5s-0.5,0.2-0.4,0.5c0.2,0.8,0.3,1.7,0.5,2.6s0.3,1.8,0.4,2.7c0.1,0.5,0.1,1,0.3,1.4
		c0.1,0.3,0.3,0.3,0.5,0.3c0.4,0,0.8,0,1.2,0.4c0.2,0.2,0.2,0.4,0.3,0.6c0.2,0.5,0.3,1,0.5,1.4c0.1,0.2,0.1,0.3-0.1,0.5
		c-0.2,0.1-0.4,0.2-0.6,0c-0.3-0.2-0.7-0.4-1-0.6c-1.1-0.6-2.2-1-3.5-1.2c-0.9-0.1-1.8-0.1-2.8,0c-1.2,0.1-2.3,0.5-3.4,1.1
		c-1,0.5-1.8,1.3-2.5,2.2c-0.9,1.1-1.5,2.4-1.9,3.7c-0.2,0.5-0.2,1.1-0.3,1.7c-0.1,0.9,0,1.7-0.1,2.6c0,0.3,0.1,0.7,0.1,1
		s-0.1,0.4-0.4,0.4c-1.1,0-2.2,0-3.3,0c-0.9,0-1.8,0-2.6,0c-0.6,0-1.2-0.1-1.8,0c-0.2,0-0.3-0.2-0.3-0.4c-0.1-1-0.3-2-0.7-2.9
		c-0.6-1.3-1.3-2.4-2.5-3.2s-2.4-1.2-3.8-1.3c-0.8,0-1.6,0-2.3,0.2c-0.3,0.1-0.5,0-0.4-0.4c0.1-0.9,0-1.7,0.4-2.6
		c0.3-0.7,0.8-1.2,1.5-1.5c1.4-0.6,2.9-0.8,4.4-1.1c0.4-0.1,0.8-0.2,1.3-0.2c0.2,0,0.3-0.1,0.3-0.3C24.6,26.5,24.6,25.8,24.6,25.1z
		 M39.3,24c0-1.2,0-2.3,0-3.5c0-0.2-0.1-0.3-0.3-0.3c-1.9,0-3.8,0-5.7,0c-0.2,0-0.4,0.1-0.4,0.3c-0.1,0.5-0.2,0.9-0.3,1.4
		c-0.2,1-0.4,1.9-0.6,2.9c-0.2,0.8-0.4,1.7-0.5,2.5c-0.1,2.1,0,4.3,0,6.4c0,0.2,0.1,0.3,0.3,0.3c0.7,0,1.5,0,2.2,0
		c0.2,0,0.3-0.1,0.4-0.3c0.2-0.8,0.5-1.5,0.9-2.2s0.9-1.3,1.5-1.8c0.7-0.7,1.5-1.2,2.3-1.7c0.2-0.1,0.2-0.3,0.2-0.5
		C39.3,26.3,39.3,25.1,39.3,24z M40.6,23.8c0,1.1,0,2.2,0,3.3c0,0.4,0.1,0.5,0.5,0.3C42,27,43,26.9,44,26.8c0.8,0,1.6,0.1,2.4,0.2
		c0.2,0,0.4,0,0.3-0.3c-0.1-0.4-0.1-0.8-0.2-1.2c-0.2-1.1-0.3-2.2-0.5-3.2c-0.1-0.7-0.1-1.3-0.3-2c-0.1-0.2-0.2-0.2-0.3-0.2
		c-1.5,0-3,0-4.6,0c-0.3,0-0.4,0.1-0.4,0.4C40.6,21.6,40.6,22.7,40.6,23.8z"/>
</g>
</svg>
