<?xml version="1.0" encoding="utf-8"?>
<!-- Generator: Adobe Illustrator 21.0.0, SVG Export Plug-In . SVG Version: 6.00 Build 0)  -->
<svg version="1.1"
	 id="Слой_1" shape-rendering="geometricPrecision" text-rendering="geometricPrecision" image-rendering="optimizeQuality"
	 xmlns="http://www.w3.org/2000/svg" xmlns:xlink="http://www.w3.org/1999/xlink" x="0px" y="0px" viewBox="0 0 100 100"
	 style="enable-background:new 0 0 100 100;" xml:space="preserve">
<style type="text/css">
	.st0{fill:#322D6C;}
</style>
<path class="st0" d="M50,98.8c-26.9,0-49.2-22-49.3-48.5C0.6,23.2,22.3,2.8,45.5,1.3c34.1-2.2,53.5,24,53.8,47.8
	C99.6,76.8,77.1,98.6,50,98.8z M22.3,49c1-2.9,2.6-4.4,5.5-4.5c2.2-0.1,4.4-0.5,6.6-0.8c2-0.3,2.1-0.2,1.9,1.7c-0.2,2-0.5,4-0.8,6
	c-0.3,2.5-0.6,5-0.9,7.5c0,0.5-0.4,1.5,0.8,1.3c2.8-0.6,5.6-0.2,8.3-0.2c1.1,0,1.4-0.2,1.5-1.2c0.3-3.3,1.1-6.5,1.1-9.9
	c0.1-2.1,0.9-4.1,1.2-6.2c1.7-11.3,3.3-22.6,5-33.9c0.2-1.5-0.3-1.9-1.7-1.9c-10-0.3-19,2.7-26.8,8.7c-9.8,7.5-15.7,17.5-17,30
	c-0.7,6.9,0.2,13.6,2.8,20c3.6,8.9,9.5,16,17.8,21c2.6,1.6,5.3,2.9,8.7,3.9c-1-2.2-2.4-3.6-3.5-5.2c-2.8-4.3-5.7-8.4-8.7-12.5
	c-0.8-1-2.1-2-1.9-3.5c0.1-1.3,0.3-2.7,0.7-3.9c0.7-2,1.2-4,1.7-6c0.7-3.3,1.8-6.4,2.1-9.7c0.1-1.1,0-2-1.6-1.3
	C24.3,49,23.4,48.9,22.3,49z M93.1,50.3C93,39.6,89.4,30.1,82.5,21.8c-0.6-0.7-0.9-0.8-1.4,0.1c-1.5,2.4-2.9,4.9-4.1,7.4
	c-2.5,5.5-5.9,10.6-8.5,16.1c-2.1,4.5-4.6,8.8-7.1,13.1C60.4,60,61.1,60,62.3,60c5.5,0,11,0,16.5,0c1.9,0,0.5,0.1,5.6,0.1
	c0.7,0,1.1,0.2,1.2,0.9c1.2,4.9,1.2,4.9,2,7.3c0.1,0.4,0,1.1,0.6,1.1c0.5,0,0.7-0.6,0.9-1C91.6,62.7,92.9,56.7,93.1,50.3z
	 M53.3,70.4c0,0.1,0,0.1,0,0.2c-6.9,0-13.8,0-20.7,0c-0.4,0-1-0.2-1.2,0.2c-0.3,0.6,0.4,0.7,0.7,1c1.8,1.8,3.9,3.3,5.9,4.9
	c6,4.9,12,9.8,18,14.7c0.7,0.6,1.4,1,2.4,0.8c5.8-1.1,11.1-3.4,15.9-6.6c5-3.4,9.1-7.9,12.4-13c0.3-0.5,1-1.1,0.7-1.7
	c-0.4-0.8-1.3-0.4-1.9-0.4C74.8,70.3,64,70.4,53.3,70.4z M49.7,60c0.8-0.2,2.2,0.5,2.6-1.2c1.2-4.5,2.5-9,3.7-13.5
	c0.9-3.4,1.7-6.9,2.6-10.3c2.2-7.9,4.4-15.8,6.6-23.6c0.3-1.1,0-1.7-1.1-2c-1.5-0.4-2.9-0.9-4.4-1.3c-1.3-0.4-1.9-0.1-2.1,1.4
	c-0.7,4.2-1.6,8.4-2.5,12.6c-1.1,5.4-2.3,10.7-3.4,16.1c-0.2,1.3,0,0-0.8,3.8c-0.2,0.9-0.4,1.9-0.6,2.9c-0.9,4.2-1.8,8.4-2.7,12.7
	C47,59.9,47.1,60,49.7,60z M56.5,60c0.8-0.2,1.8,0.5,2.5-0.9c2.3-5.5,4.9-10.9,7.2-16.5c1.9-4.6,4.1-9.1,6-13.7
	c1.5-3.6,3-7.1,4.8-10.6c0.5-0.9,0.4-1.6-0.5-2.1c-1.5-1-2.9-2-4.4-3c-0.8-0.6-1.2-0.2-1.5,0.5c-1.3,3.5-2.5,7-3.8,10.5
	c-3,8.4-6.1,16.9-9.1,25.3c-1.1,3.1-2.2,6.1-3.3,9.2c-0.4,1.1-0.1,1.4,1,1.4C55.7,60,56.1,60,56.5,60z M51.2,92.9
	c0.2,0,0.9,0.3,1.3-0.2c0.3-0.5-0.3-0.8-0.7-1.1C44.4,84.8,36.9,78,29.5,71.2c-0.7-0.6-1.6-1.2-2.2-0.5c-0.6,0.7,0.3,1.4,0.9,2
	c1.4,1.3,2.8,2.5,4.2,3.8c5.4,5.2,10.8,10.4,16.1,15.7C49.2,92.8,49.9,93.1,51.2,92.9z M44.8,92.6c-0.3-0.5-0.3-0.7-0.4-0.8
	c-4.9-5.3-9.7-10.7-14.6-15.9c-1.4-1.5-2.8-3-4.1-4.5c-0.4-0.4-0.9-1.1-1.5-0.6c-0.6,0.5,0.2,1,0.5,1.3c1.2,1.4,2.2,2.9,3.4,4.4
	c3.7,4.5,7.2,9.2,10.8,13.8C40.3,92.1,42.3,92.5,44.8,92.6z"/>
</svg>
