<?xml version="1.0" encoding="utf-8"?>
<!-- Generator: Adobe Illustrator 21.0.0, SVG Export Plug-In . SVG Version: 6.00 Build 0)  -->
<svg version="1.1"
	 id="Слой_1" shape-rendering="geometricPrecision" text-rendering="geometricPrecision" image-rendering="optimizeQuality"
	 xmlns="http://www.w3.org/2000/svg" xmlns:xlink="http://www.w3.org/1999/xlink" x="0px" y="0px" viewBox="0 0 256.7 32.2"
	 style="enable-background:new 0 0 256.7 32.2;" xml:space="preserve">
<style type="text/css">
	.st0{fill:#332C6C;}
</style>
<path class="st0" d="M27.9,26.4c-5.1,0-9.3-4.2-9.3-9.2c0-5.1,4.1-9,8.5-9.3c6.5-0.4,10.1,4.6,10.2,9.1C37.3,22.3,33,26.4,27.9,26.4
	z M22.6,17c0.2-0.6,0.5-0.8,1.1-0.8c0.4,0,0.8-0.1,1.2-0.2s0.4,0,0.4,0.3c0,0.4-0.1,0.8-0.1,1.1c-0.1,0.5-0.1,0.9-0.2,1.4
	c0,0.1-0.1,0.3,0.2,0.2c0.5-0.1,1.1,0,1.6,0c0.2,0,0.3,0,0.3-0.2c0.1-0.6,0.2-1.2,0.2-1.9c0-0.4,0.2-0.8,0.2-1.2
	c0.3-2.1,0.6-4.3,0.9-6.4c0-0.3-0.1-0.4-0.3-0.4c-1.9-0.1-3.6,0.5-5.1,1.7c-1.9,1.4-3,3.3-3.2,5.7c-0.1,1.3,0,2.6,0.5,3.8
	c0.7,1.7,1.8,3,3.4,4c0.5,0.3,1,0.6,1.6,0.7c-0.2-0.4-0.5-0.7-0.7-1c-0.5-0.8-1.1-1.6-1.7-2.4c-0.1-0.2-0.4-0.4-0.4-0.7
	c0-0.2,0.1-0.5,0.1-0.7c0.1-0.4,0.2-0.7,0.3-1.1c0.1-0.6,0.3-1.2,0.4-1.8c0-0.2,0-0.4-0.3-0.2C23,17,22.8,17,22.6,17z M36,17.2
	c0-2-0.7-3.8-2-5.4c-0.1-0.1-0.2-0.1-0.3,0c-0.3,0.5-0.6,0.9-0.8,1.4c-0.5,1-1.1,2-1.6,3.1c-0.4,0.9-0.9,1.7-1.4,2.5
	c-0.2,0.3,0,0.3,0.2,0.3c1,0,2.1,0,3.1,0c0.4,0,0.1,0,1.1,0c0.1,0,0.2,0,0.2,0.2c0.2,0.9,0.2,0.9,0.4,1.4c0,0.1,0,0.2,0.1,0.2
	s0.1-0.1,0.2-0.2C35.7,19.6,36,18.5,36,17.2z M28.5,21C28.5,21.1,28.5,21.1,28.5,21c-1.3,0-2.6,0-3.9,0c-0.1,0-0.2,0-0.2,0
	c-0.1,0.1,0.1,0.1,0.1,0.2c0.3,0.3,0.7,0.6,1.1,0.9c1.1,0.9,2.3,1.9,3.4,2.8c0.1,0.1,0.3,0.2,0.5,0.2c1.1-0.2,2.1-0.6,3-1.3
	c1-0.6,1.7-1.5,2.3-2.5c0.1-0.1,0.2-0.2,0.1-0.3c-0.1-0.1-0.2-0.1-0.4-0.1C32.6,21,30.5,21,28.5,21z M27.8,19.1
	c0.2,0,0.4,0.1,0.5-0.2c0.2-0.9,0.5-1.7,0.7-2.6c0.2-0.6,0.3-1.3,0.5-1.9c0.4-1.5,0.8-3,1.2-4.5c0.1-0.2,0-0.3-0.2-0.4
	c-0.3-0.1-0.6-0.2-0.8-0.2c-0.2-0.1-0.4,0-0.4,0.3c-0.1,0.8-0.3,1.6-0.5,2.4c-0.2,1-0.4,2-0.6,3.1c0,0.3,0,0-0.2,0.7
	c0,0.2-0.1,0.4-0.1,0.5c-0.2,0.8-0.3,1.6-0.5,2.4C27.3,19.1,27.3,19.1,27.8,19.1z M29.1,19.1c0.1,0,0.3,0.1,0.5-0.2
	c0.4-1,0.9-2.1,1.4-3.1c0.4-0.9,0.8-1.7,1.1-2.6c0.3-0.7,0.6-1.3,0.9-2c0.1-0.2,0.1-0.3-0.1-0.4c-0.3-0.2-0.6-0.4-0.8-0.6
	c-0.1-0.1-0.2,0-0.3,0.1c-0.2,0.7-0.5,1.3-0.7,2c-0.6,1.6-1.1,3.2-1.7,4.8c-0.2,0.6-0.4,1.2-0.6,1.7C28.7,19,28.8,19.1,29.1,19.1
	C28.9,19.1,29,19.1,29.1,19.1z M28.1,25.3c0,0,0.2,0.1,0.2,0c0.1-0.1-0.1-0.1-0.1-0.2c-1.4-1.3-2.8-2.6-4.2-3.9
	c-0.1-0.1-0.3-0.2-0.4-0.1c-0.1,0.1,0.1,0.3,0.2,0.4c0.3,0.2,0.5,0.5,0.8,0.7c1,1,2,2,3.1,3C27.7,25.3,27.8,25.3,28.1,25.3z
	 M26.9,25.2c0-0.1-0.1-0.1-0.1-0.2c-0.9-1-1.8-2-2.8-3c-0.3-0.3-0.5-0.6-0.8-0.8c-0.1-0.1-0.2-0.2-0.3-0.1s0,0.2,0.1,0.2
	c0.2,0.3,0.4,0.6,0.6,0.8c0.7,0.9,1.4,1.7,2,2.6C26,25.2,26.4,25.2,26.9,25.2z"/>
<g>
	<path class="st0" d="M50.3,21h-1.5v-7.3h-3.8V21h-1.5v-8.5h6.7V21z"/>
	<path class="st0" d="M57.3,14.7V21h-1.4v-5.2h-1.8L54,18c-0.1,1.1-0.3,1.8-0.6,2.3S52.5,21,51.8,21h-0.4l0-1.2l0.3,0
		c0.3,0,0.5-0.2,0.7-0.6c0.1-0.3,0.2-1,0.3-1.8l0.1-2.7H57.3z"/>
	<path class="st0" d="M62.6,21c-0.1-0.1-0.1-0.3-0.2-0.6c-0.5,0.5-1,0.7-1.7,0.7c-0.6,0-1.2-0.2-1.6-0.5s-0.6-0.8-0.6-1.3
		c0-0.7,0.3-1.2,0.8-1.6s1.2-0.5,2.2-0.5h0.9v-0.4c0-0.3-0.1-0.6-0.3-0.8s-0.5-0.3-0.8-0.3c-0.3,0-0.6,0.1-0.8,0.2s-0.3,0.4-0.3,0.6
		h-1.4c0-0.3,0.1-0.7,0.3-1s0.5-0.5,0.9-0.7s0.8-0.3,1.3-0.3c0.7,0,1.3,0.2,1.8,0.6s0.7,0.9,0.7,1.6v2.9c0,0.6,0.1,1,0.2,1.4V21
		H62.6z M61.1,20c0.3,0,0.5-0.1,0.8-0.2s0.4-0.3,0.6-0.6V18h-0.8c-0.5,0-0.9,0.1-1.2,0.3s-0.4,0.4-0.4,0.8c0,0.3,0.1,0.5,0.3,0.7
		S60.8,20,61.1,20z"/>
	<path class="st0" d="M70.2,15.8h-2.1V21h-1.4v-5.2h-2v-1.1h5.5V15.8z"/>
	<path class="st0" d="M70.6,17.9c0-1,0.2-1.9,0.6-2.5s1-0.9,1.7-0.9c0.3,0,0.6,0.1,0.8,0.2V12h1.4v2.7c0.3-0.1,0.5-0.2,0.9-0.2
		c0.7,0,1.3,0.3,1.7,0.9s0.6,1.5,0.6,2.6c0,0.9-0.2,1.7-0.6,2.3s-1,0.8-1.7,0.8c-0.3,0-0.6-0.1-0.9-0.2v2.5h-1.4V21
		c-0.2,0.1-0.5,0.2-0.8,0.2c-0.7,0-1.2-0.3-1.6-0.8s-0.6-1.2-0.7-2.1L70.6,17.9z M72,18c0,0.6,0.1,1.1,0.3,1.4s0.5,0.5,0.9,0.5
		c0.2,0,0.3,0,0.5-0.1v-4.2c-0.1,0-0.3-0.1-0.4-0.1c-0.4,0-0.7,0.2-0.9,0.6S72,17.2,72,18z M76.9,17.9c0-0.7-0.1-1.3-0.3-1.6
		s-0.5-0.6-1-0.6c-0.2,0-0.3,0-0.5,0.1v4.2c0.1,0,0.3,0.1,0.5,0.1C76.5,20,76.9,19.3,76.9,17.9z"/>
	<path class="st0" d="M79.3,17.8c0-0.6,0.1-1.2,0.4-1.7s0.6-0.9,1-1.1s1-0.4,1.5-0.4c0.9,0,1.5,0.3,2.1,0.8s0.8,1.3,0.9,2.2l0,0.3
		c0,0.6-0.1,1.2-0.4,1.7s-0.6,0.9-1,1.1s-1,0.4-1.5,0.4c-0.9,0-1.6-0.3-2.1-0.9S79.3,18.8,79.3,17.8L79.3,17.8z M80.7,17.9
		c0,0.7,0.1,1.2,0.4,1.5s0.6,0.6,1.1,0.6s0.9-0.2,1.1-0.6s0.4-0.9,0.4-1.6c0-0.6-0.1-1.1-0.4-1.5s-0.6-0.6-1.1-0.6
		c-0.5,0-0.8,0.2-1.1,0.6S80.7,17.2,80.7,17.9z"/>
	<path class="st0" d="M91.9,17.9c0,1-0.2,1.8-0.7,2.3s-1,0.9-1.8,0.9c-0.7,0-1.3-0.2-1.7-0.7v3h-1.4v-8.8h1.3l0.1,0.6
		c0.4-0.5,1-0.8,1.7-0.8c0.8,0,1.4,0.3,1.8,0.9S91.9,16.8,91.9,17.9L91.9,17.9z M90.5,17.8c0-0.6-0.1-1.1-0.4-1.5s-0.6-0.6-1.1-0.6
		c-0.6,0-1,0.2-1.3,0.7v2.8C88,19.7,88.5,20,89,20c0.5,0,0.8-0.2,1.1-0.5S90.5,18.5,90.5,17.8z"/>
	<path class="st0" d="M96.9,19.2l1.9-4.6h1.8V21h-1.4v-4.2L97.4,21h-1l-1.8-4.2V21h-1.4v-6.3H95L96.9,19.2z"/>
	<path class="st0" d="M105.9,21c-0.1-0.1-0.1-0.3-0.2-0.6c-0.5,0.5-1,0.7-1.7,0.7c-0.6,0-1.2-0.2-1.6-0.5s-0.6-0.8-0.6-1.3
		c0-0.7,0.3-1.2,0.8-1.6s1.2-0.5,2.2-0.5h0.9v-0.4c0-0.3-0.1-0.6-0.3-0.8s-0.5-0.3-0.8-0.3c-0.3,0-0.6,0.1-0.8,0.2s-0.3,0.4-0.3,0.6
		h-1.4c0-0.3,0.1-0.7,0.3-1s0.5-0.5,0.9-0.7s0.8-0.3,1.3-0.3c0.7,0,1.3,0.2,1.8,0.6s0.7,0.9,0.7,1.6v2.9c0,0.6,0.1,1,0.2,1.4V21
		H105.9z M104.4,20c0.3,0,0.5-0.1,0.8-0.2s0.4-0.3,0.6-0.6V18h-0.8c-0.5,0-0.9,0.1-1.2,0.3s-0.4,0.4-0.4,0.8c0,0.3,0.1,0.5,0.3,0.7
		S104.1,20,104.4,20z"/>
	<path class="st0" d="M114.6,15c0.8,0,1.4,0.3,1.9,0.8s0.7,1.3,0.7,2.2v0.1c0,0.9-0.3,1.7-0.8,2.2s-1.2,0.8-2.1,0.8
		c-0.9,0-1.6-0.3-2.1-0.9s-0.8-1.4-0.8-2.4v-0.4c0-1.4,0.2-2.4,0.7-3.2s1.2-1.3,2.2-1.5c0.5-0.1,0.9-0.2,1-0.3s0.2-0.3,0.2-0.5h1.1
		c0,0.4-0.1,0.7-0.2,1s-0.3,0.4-0.6,0.6s-0.7,0.3-1.4,0.4c-0.6,0.1-1,0.3-1.4,0.7s-0.5,0.8-0.6,1.3C113.2,15.3,113.8,15,114.6,15z
		 M114.3,16.2c-0.5,0-0.8,0.2-1.1,0.5s-0.4,0.8-0.4,1.4c0,0.6,0.1,1.1,0.4,1.4s0.6,0.5,1.1,0.5c0.5,0,0.8-0.2,1.1-0.5
		s0.4-0.9,0.4-1.5c0-0.5-0.1-1-0.4-1.3S114.8,16.2,114.3,16.2z"/>
	<path class="st0" d="M123.7,14.7V21h-1.4v-5.2h-1.8l-0.1,2.2c-0.1,1.1-0.3,1.8-0.6,2.3s-0.8,0.7-1.5,0.7h-0.4l0-1.2l0.3,0
		c0.3,0,0.5-0.2,0.7-0.6c0.1-0.3,0.2-1,0.3-1.8l0.1-2.7H123.7z"/>
	<path class="st0" d="M125,17.8c0-0.6,0.1-1.2,0.4-1.7s0.6-0.9,1-1.1s1-0.4,1.5-0.4c0.9,0,1.5,0.3,2.1,0.8s0.8,1.3,0.9,2.2l0,0.3
		c0,0.6-0.1,1.2-0.4,1.7s-0.6,0.9-1,1.1s-1,0.4-1.5,0.4c-0.9,0-1.6-0.3-2.1-0.9S125,18.8,125,17.8L125,17.8z M126.4,17.9
		c0,0.7,0.1,1.2,0.4,1.5s0.6,0.6,1.1,0.6s0.9-0.2,1.1-0.6s0.4-0.9,0.4-1.6c0-0.6-0.1-1.1-0.4-1.5s-0.6-0.6-1.1-0.6
		c-0.5,0-0.8,0.2-1.1,0.6S126.4,17.2,126.4,17.9z"/>
	<path class="st0" d="M134.3,18.5h-0.7V21h-1.4v-6.3h1.4v2.5h0.6l1.8-2.5h1.8l-2.3,3l2.5,3.3h-1.9L134.3,18.5z"/>
	<path class="st0" d="M143.8,21h-1.4v-2.1c-0.4,0.1-0.8,0.1-1.2,0.1c-0.9,0-1.5-0.2-2-0.6s-0.7-1-0.7-1.8v-1.9h1.4v1.9
		c0,0.5,0.1,0.8,0.3,1s0.5,0.3,0.9,0.3c0.4,0,0.8,0,1.2-0.1v-3.1h1.4V21z"/>
	<path class="st0" d="M148.1,21.1c-0.9,0-1.6-0.3-2.2-0.9s-0.8-1.3-0.8-2.3v-0.2c0-0.6,0.1-1.2,0.4-1.7s0.6-0.9,1-1.2
		s0.9-0.4,1.5-0.4c0.9,0,1.5,0.3,2,0.8s0.7,1.3,0.7,2.3v0.6h-4.1c0,0.5,0.2,0.9,0.5,1.2s0.7,0.5,1.2,0.5c0.7,0,1.2-0.3,1.6-0.8
		l0.8,0.7c-0.3,0.4-0.6,0.7-1,0.9S148.6,21.1,148.1,21.1z M147.9,15.7c-0.4,0-0.7,0.1-0.9,0.4s-0.4,0.7-0.5,1.1h2.7v-0.1
		c0-0.5-0.2-0.8-0.4-1.1S148.3,15.7,147.9,15.7z"/>
	<path class="st0" d="M155.7,14.7h1.4V21h-1.4v-4.2l-2.5,4.2h-1.4v-6.3h1.4v4.2L155.7,14.7z M156.4,12.2c0,0.5-0.2,0.9-0.5,1.2
		s-0.8,0.5-1.4,0.5s-1-0.2-1.4-0.5s-0.5-0.7-0.5-1.2h1.1c0,0.3,0.1,0.5,0.2,0.6s0.3,0.2,0.6,0.2s0.5-0.1,0.6-0.2s0.2-0.3,0.2-0.6
		H156.4z"/>
	<path class="st0" d="M164,21h-1.4v-2.6h-2.5V21h-1.4v-6.3h1.4v2.6h2.5v-2.6h1.4V21z"/>
	<path class="st0" d="M172.8,15.8H170V21h-1.4v-6.3h4.2V15.8z"/>
	<path class="st0" d="M173.2,17.8c0-0.6,0.1-1.2,0.4-1.7s0.6-0.9,1-1.1s1-0.4,1.5-0.4c0.9,0,1.5,0.3,2.1,0.8s0.8,1.3,0.9,2.2l0,0.3
		c0,0.6-0.1,1.2-0.4,1.7s-0.6,0.9-1,1.1s-1,0.4-1.5,0.4c-0.9,0-1.6-0.3-2.1-0.9S173.2,18.8,173.2,17.8L173.2,17.8z M174.6,17.9
		c0,0.7,0.1,1.2,0.4,1.5s0.6,0.6,1.1,0.6s0.9-0.2,1.1-0.6s0.4-0.9,0.4-1.6c0-0.6-0.1-1.1-0.4-1.5s-0.6-0.6-1.1-0.6
		c-0.5,0-0.8,0.2-1.1,0.6S174.6,17.2,174.6,17.9z"/>
	<path class="st0" d="M182.9,20c0.4,0,0.7-0.1,0.9-0.3s0.4-0.5,0.4-0.8h1.3c0,0.4-0.1,0.8-0.4,1.1s-0.5,0.6-0.9,0.8
		s-0.8,0.3-1.3,0.3c-0.9,0-1.6-0.3-2.1-0.9s-0.8-1.4-0.8-2.4v-0.1c0-1,0.3-1.7,0.8-2.3s1.2-0.9,2.1-0.9c0.8,0,1.4,0.2,1.8,0.7
		s0.7,1,0.7,1.7h-1.3c0-0.4-0.1-0.7-0.4-0.9s-0.5-0.4-0.9-0.4c-0.5,0-0.8,0.2-1.1,0.5s-0.4,0.8-0.4,1.5v0.2c0,0.7,0.1,1.2,0.4,1.5
		S182.4,20,182.9,20z"/>
	<path class="st0" d="M188.8,19l1.3-4.3h1.5l-2.5,7.3c-0.4,1.1-1,1.6-2,1.6c-0.2,0-0.4,0-0.7-0.1v-1.1l0.3,0c0.4,0,0.6-0.1,0.8-0.2
		s0.3-0.4,0.4-0.7l0.2-0.5l-2.2-6.3h1.5L188.8,19z"/>
	<path class="st0" d="M192.1,19.9c0.4-0.4,0.7-0.9,0.8-1.3s0.2-0.9,0.2-1.5l0.1-2.4h4.4v5.2h0.9v3h-1.4V21H193v1.9h-1.4l0-3H192.1z
		 M193.8,19.9h2.4v-4h-1.6l0,1.2C194.5,18.3,194.2,19.2,193.8,19.9z"/>
	<path class="st0" d="M203.3,21c-0.1-0.1-0.1-0.3-0.2-0.6c-0.5,0.5-1,0.7-1.7,0.7c-0.6,0-1.2-0.2-1.6-0.5s-0.6-0.8-0.6-1.3
		c0-0.7,0.3-1.2,0.8-1.6s1.2-0.5,2.2-0.5h0.9v-0.4c0-0.3-0.1-0.6-0.3-0.8s-0.5-0.3-0.8-0.3c-0.3,0-0.6,0.1-0.8,0.2s-0.3,0.4-0.3,0.6
		h-1.4c0-0.3,0.1-0.7,0.3-1s0.5-0.5,0.9-0.7s0.8-0.3,1.3-0.3c0.7,0,1.3,0.2,1.8,0.6s0.7,0.9,0.7,1.6v2.9c0,0.6,0.1,1,0.2,1.4V21
		H203.3z M201.7,20c0.3,0,0.5-0.1,0.8-0.2s0.4-0.3,0.6-0.6V18h-0.8c-0.5,0-0.9,0.1-1.2,0.3s-0.4,0.4-0.4,0.8c0,0.3,0.1,0.5,0.3,0.7
		S201.4,20,201.7,20z"/>
	<path class="st0" d="M211.6,17.9c0,1-0.2,1.8-0.7,2.3s-1,0.9-1.8,0.9c-0.7,0-1.3-0.2-1.7-0.7v3H206v-8.8h1.3l0.1,0.6
		c0.4-0.5,1-0.8,1.7-0.8c0.8,0,1.4,0.3,1.8,0.9S211.6,16.8,211.6,17.9L211.6,17.9z M210.1,17.8c0-0.6-0.1-1.1-0.4-1.5
		s-0.6-0.6-1.1-0.6c-0.6,0-1,0.2-1.3,0.7v2.8c0.3,0.5,0.7,0.7,1.3,0.7c0.5,0,0.8-0.2,1.1-0.5S210.1,18.5,210.1,17.8z"/>
	<path class="st0" d="M215.4,20c0.4,0,0.7-0.1,0.9-0.3s0.4-0.5,0.4-0.8h1.3c0,0.4-0.1,0.8-0.4,1.1s-0.5,0.6-0.9,0.8
		s-0.8,0.3-1.3,0.3c-0.9,0-1.6-0.3-2.1-0.9s-0.8-1.4-0.8-2.4v-0.1c0-1,0.3-1.7,0.8-2.3s1.2-0.9,2.1-0.9c0.8,0,1.4,0.2,1.8,0.7
		s0.7,1,0.7,1.7h-1.3c0-0.4-0.1-0.7-0.4-0.9s-0.5-0.4-0.9-0.4c-0.5,0-0.8,0.2-1.1,0.5s-0.4,0.8-0.4,1.5v0.2c0,0.7,0.1,1.2,0.4,1.5
		S214.9,20,215.4,20z"/>
	<path class="st0" d="M224,15.8H222V21h-1.4v-5.2h-2v-1.1h5.5V15.8z"/>
	<path class="st0" d="M225.1,21v-6.3h2.6c0.9,0,1.5,0.2,2,0.5s0.7,0.7,0.7,1.3c0,0.3-0.1,0.6-0.3,0.8c-0.2,0.2-0.5,0.4-0.8,0.5
		c0.4,0.1,0.7,0.3,1,0.5s0.4,0.6,0.4,0.9c0,0.6-0.2,1-0.7,1.3s-1.1,0.5-1.9,0.5H225.1z M226.5,17.3h1.2c0.8,0,1.2-0.2,1.2-0.7
		c0-0.5-0.4-0.8-1.1-0.8h-1.2V17.3z M226.5,18.3v1.6h1.6c0.7,0,1.1-0.3,1.1-0.8c0-0.5-0.4-0.8-1.1-0.8H226.5z"/>
	<path class="st0" d="M235.6,21c-0.1-0.1-0.1-0.3-0.2-0.6c-0.5,0.5-1,0.7-1.7,0.7c-0.6,0-1.2-0.2-1.6-0.5s-0.6-0.8-0.6-1.3
		c0-0.7,0.3-1.2,0.8-1.6s1.2-0.5,2.2-0.5h0.9v-0.4c0-0.3-0.1-0.6-0.3-0.8s-0.5-0.3-0.8-0.3c-0.3,0-0.6,0.1-0.8,0.2s-0.3,0.4-0.3,0.6
		h-1.4c0-0.3,0.1-0.7,0.3-1s0.5-0.5,0.9-0.7s0.8-0.3,1.3-0.3c0.7,0,1.3,0.2,1.8,0.6s0.7,0.9,0.7,1.6v2.9c0,0.6,0.1,1,0.2,1.4V21
		H235.6z M234,20c0.3,0,0.5-0.1,0.8-0.2s0.4-0.3,0.6-0.6V18h-0.8c-0.5,0-0.9,0.1-1.2,0.3s-0.4,0.4-0.4,0.8c0,0.3,0.1,0.5,0.3,0.7
		S233.7,20,234,20z"/>
</g>
</svg>
