<?xml version="1.0" encoding="utf-8"?>
<!-- Roman Inozemtsev: https://github.com/mir-one/  -->
<svg version="1.1"
	 id="Слой_1" shape-rendering="geometricPrecision" text-rendering="geometricPrecision" image-rendering="optimizeQuality"
	 xmlns="http://www.w3.org/2000/svg" xmlns:xlink="http://www.w3.org/1999/xlink" x="0px" y="0px" viewBox="0 0 256.7 32.2"
	 style="enable-background:new 0 0 256.7 32.2;" xml:space="preserve">
<style type="text/css">
	.st0{fill:#332C6C;}
</style>
<path class="st0" d="M28.9,26.4c-5.1,0-9.3-4.2-9.3-9.2c0-5.1,4.1-9,8.5-9.3c6.5-0.4,10.1,4.6,10.2,9.1C38.3,22.3,34,26.4,28.9,26.4
	z M23.6,17c0.2-0.6,0.5-0.8,1.1-0.8c0.4,0,0.8-0.1,1.2-0.2s0.4,0,0.4,0.3c0,0.4-0.1,0.8-0.1,1.1c-0.1,0.5-0.1,0.9-0.2,1.4
	c0,0.1-0.1,0.3,0.2,0.2c0.5-0.1,1.1,0,1.6,0c0.2,0,0.3,0,0.3-0.2c0.1-0.6,0.2-1.2,0.2-1.9c0-0.4,0.2-0.8,0.2-1.2
	c0.3-2.1,0.6-4.3,0.9-6.4c0-0.3-0.1-0.4-0.3-0.4c-1.9-0.1-3.6,0.5-5.1,1.7c-1.9,1.4-3,3.3-3.2,5.7c-0.1,1.3,0,2.6,0.5,3.8
	c0.7,1.7,1.8,3,3.4,4c0.5,0.3,1,0.6,1.6,0.7c-0.2-0.4-0.5-0.7-0.7-1c-0.5-0.8-1.1-1.6-1.7-2.4c-0.1-0.2-0.4-0.4-0.4-0.7
	c0-0.2,0.1-0.5,0.1-0.7c0.1-0.4,0.2-0.7,0.3-1.1c0.1-0.6,0.3-1.2,0.4-1.8c0-0.2,0-0.4-0.3-0.2C24,17,23.8,17,23.6,17z M37,17.2
	c0-2-0.7-3.8-2-5.4c-0.1-0.1-0.2-0.1-0.3,0c-0.3,0.5-0.6,0.9-0.8,1.4c-0.5,1-1.1,2-1.6,3.1c-0.4,0.9-0.9,1.7-1.4,2.5
	c-0.2,0.3,0,0.3,0.2,0.3c1,0,2.1,0,3.1,0c0.4,0,0.1,0,1.1,0c0.1,0,0.2,0,0.2,0.2c0.2,0.9,0.2,0.9,0.4,1.4c0,0.1,0,0.2,0.1,0.2
	s0.1-0.1,0.2-0.2C36.7,19.6,37,18.5,37,17.2z M29.5,21C29.5,21.1,29.5,21.1,29.5,21c-1.3,0-2.6,0-3.9,0c-0.1,0-0.2,0-0.2,0
	c-0.1,0.1,0.1,0.1,0.1,0.2c0.3,0.3,0.7,0.6,1.1,0.9c1.1,0.9,2.3,1.9,3.4,2.8c0.1,0.1,0.3,0.2,0.5,0.2c1.1-0.2,2.1-0.6,3-1.3
	c1-0.6,1.7-1.5,2.3-2.5c0.1-0.1,0.2-0.2,0.1-0.3c-0.1-0.1-0.2-0.1-0.4-0.1C33.6,21,31.5,21,29.5,21z M28.8,19.1
	c0.2,0,0.4,0.1,0.5-0.2c0.2-0.9,0.5-1.7,0.7-2.6c0.2-0.6,0.3-1.3,0.5-1.9c0.4-1.5,0.8-3,1.2-4.5c0.1-0.2,0-0.3-0.2-0.4
	c-0.3-0.1-0.6-0.2-0.8-0.2c-0.2-0.1-0.4,0-0.4,0.3c-0.1,0.8-0.3,1.6-0.5,2.4c-0.2,1-0.4,2-0.6,3.1c0,0.3,0,0-0.2,0.7
	c0,0.2-0.1,0.4-0.1,0.5c-0.2,0.8-0.3,1.6-0.5,2.4C28.3,19.1,28.3,19.1,28.8,19.1z M30.1,19.1c0.1,0,0.3,0.1,0.5-0.2
	c0.4-1,0.9-2.1,1.4-3.1c0.4-0.9,0.8-1.7,1.1-2.6c0.3-0.7,0.6-1.3,0.9-2c0.1-0.2,0.1-0.3-0.1-0.4c-0.3-0.2-0.6-0.4-0.8-0.6
	c-0.1-0.1-0.2,0-0.3,0.1c-0.2,0.7-0.5,1.3-0.7,2c-0.6,1.6-1.1,3.2-1.7,4.8c-0.2,0.6-0.4,1.2-0.6,1.7C29.7,19,29.8,19.1,30.1,19.1
	C29.9,19.1,30,19.1,30.1,19.1z M29.1,25.3c0,0,0.2,0.1,0.2,0c0.1-0.1-0.1-0.1-0.1-0.2c-1.4-1.3-2.8-2.6-4.2-3.9
	c-0.1-0.1-0.3-0.2-0.4-0.1c-0.1,0.1,0.1,0.3,0.2,0.4c0.3,0.2,0.5,0.5,0.8,0.7c1,1,2,2,3.1,3C28.7,25.3,28.8,25.3,29.1,25.3z
	 M27.9,25.2c0-0.1-0.1-0.1-0.1-0.2c-0.9-1-1.8-2-2.8-3c-0.3-0.3-0.5-0.6-0.8-0.8c-0.1-0.1-0.2-0.2-0.3-0.1s0,0.2,0.1,0.2
	c0.2,0.3,0.4,0.6,0.6,0.8c0.7,0.9,1.4,1.7,2,2.6C27,25.2,27.4,25.2,27.9,25.2z"/>
<g>
	<path class="st0" d="M51.3,21h-1.5v-7.3h-3.8V21h-1.5v-8.5h6.7V21z"/>
	<path class="st0" d="M58.3,14.7V21h-1.4v-5.2h-1.8L55,18c-0.1,1.1-0.3,1.8-0.6,2.3S53.5,21,52.8,21h-0.4l0-1.2l0.3,0
		c0.3,0,0.5-0.2,0.7-0.6c0.1-0.3,0.2-1,0.3-1.8l0.1-2.7H58.3z"/>
	<path class="st0" d="M63.6,21c-0.1-0.1-0.1-0.3-0.2-0.6c-0.5,0.5-1,0.7-1.7,0.7c-0.6,0-1.2-0.2-1.6-0.5s-0.6-0.8-0.6-1.3
		c0-0.7,0.3-1.2,0.8-1.6s1.2-0.5,2.2-0.5h0.9v-0.4c0-0.3-0.1-0.6-0.3-0.8s-0.5-0.3-0.8-0.3c-0.3,0-0.6,0.1-0.8,0.2s-0.3,0.4-0.3,0.6
		h-1.4c0-0.3,0.1-0.7,0.3-1s0.5-0.5,0.9-0.7s0.8-0.3,1.3-0.3c0.7,0,1.3,0.2,1.8,0.6s0.7,0.9,0.7,1.6v2.9c0,0.6,0.1,1,0.2,1.4V21
		H63.6z M62.1,20c0.3,0,0.5-0.1,0.8-0.2s0.4-0.3,0.6-0.6V18h-0.8c-0.5,0-0.9,0.1-1.2,0.3s-0.4,0.4-0.4,0.8c0,0.3,0.1,0.5,0.3,0.7
		S61.8,20,62.1,20z"/>
	<path class="st0" d="M71.2,15.8h-2.1V21h-1.4v-5.2h-2v-1.1h5.5V15.8z"/>
	<path class="st0" d="M71.6,17.9c0-1,0.2-1.9,0.6-2.5s1-0.9,1.7-0.9c0.3,0,0.6,0.1,0.8,0.2V12h1.4v2.7c0.3-0.1,0.5-0.2,0.9-0.2
		c0.7,0,1.3,0.3,1.7,0.9s0.6,1.5,0.6,2.6c0,0.9-0.2,1.7-0.6,2.3s-1,0.8-1.7,0.8c-0.3,0-0.6-0.1-0.9-0.2v2.5h-1.4V21
		c-0.2,0.1-0.5,0.2-0.8,0.2c-0.7,0-1.2-0.3-1.6-0.8s-0.6-1.2-0.7-2.1L71.6,17.9z M73,18c0,0.6,0.1,1.1,0.3,1.4s0.5,0.5,0.9,0.5
		c0.2,0,0.3,0,0.5-0.1v-4.2c-0.1,0-0.3-0.1-0.4-0.1c-0.4,0-0.7,0.2-0.9,0.6S73,17.2,73,18z M77.9,17.9c0-0.7-0.1-1.3-0.3-1.6
		s-0.5-0.6-1-0.6c-0.2,0-0.3,0-0.5,0.1v4.2c0.1,0,0.3,0.1,0.5,0.1C77.5,20,77.9,19.3,77.9,17.9z"/>
	<path class="st0" d="M80.3,17.8c0-0.6,0.1-1.2,0.4-1.7s0.6-0.9,1-1.1s1-0.4,1.5-0.4c0.9,0,1.5,0.3,2.1,0.8s0.8,1.3,0.9,2.2l0,0.3
		c0,0.6-0.1,1.2-0.4,1.7s-0.6,0.9-1,1.1s-1,0.4-1.5,0.4c-0.9,0-1.6-0.3-2.1-0.9S80.3,18.8,80.3,17.8L80.3,17.8z M81.7,17.9
		c0,0.7,0.1,1.2,0.4,1.5s0.6,0.6,1.1,0.6s0.9-0.2,1.1-0.6s0.4-0.9,0.4-1.6c0-0.6-0.1-1.1-0.4-1.5s-0.6-0.6-1.1-0.6
		c-0.5,0-0.8,0.2-1.1,0.6S81.7,17.2,81.7,17.9z"/>
	<path class="st0" d="M92.9,17.9c0,1-0.2,1.8-0.7,2.3s-1,0.9-1.8,0.9c-0.7,0-1.3-0.2-1.7-0.7v3h-1.4v-8.8h1.3l0.1,0.6
		c0.4-0.5,1-0.8,1.7-0.8c0.8,0,1.4,0.3,1.8,0.9S92.9,16.8,92.9,17.9L92.9,17.9z M91.5,17.8c0-0.6-0.1-1.1-0.4-1.5s-0.6-0.6-1.1-0.6
		c-0.6,0-1,0.2-1.3,0.7v2.8C89,19.7,89.5,20,90,20c0.5,0,0.8-0.2,1.1-0.5S91.5,18.5,91.5,17.8z"/>
	<path class="st0" d="M97.9,19.2l1.9-4.6h1.8V21h-1.4v-4.2L98.4,21h-1l-1.8-4.2V21h-1.4v-6.3H96L97.9,19.2z"/>
	<path class="st0" d="M106.9,21c-0.1-0.1-0.1-0.3-0.2-0.6c-0.5,0.5-1,0.7-1.7,0.7c-0.6,0-1.2-0.2-1.6-0.5s-0.6-0.8-0.6-1.3
		c0-0.7,0.3-1.2,0.8-1.6s1.2-0.5,2.2-0.5h0.9v-0.4c0-0.3-0.1-0.6-0.3-0.8s-0.5-0.3-0.8-0.3c-0.3,0-0.6,0.1-0.8,0.2s-0.3,0.4-0.3,0.6
		h-1.4c0-0.3,0.1-0.7,0.3-1s0.5-0.5,0.9-0.7s0.8-0.3,1.3-0.3c0.7,0,1.3,0.2,1.8,0.6s0.7,0.9,0.7,1.6v2.9c0,0.6,0.1,1,0.2,1.4V21
		H106.9z M105.4,20c0.3,0,0.5-0.1,0.8-0.2s0.4-0.3,0.6-0.6V18h-0.8c-0.5,0-0.9,0.1-1.2,0.3s-0.4,0.4-0.4,0.8c0,0.3,0.1,0.5,0.3,0.7
		S105.1,20,105.4,20z"/>
	<path class="st0" d="M115.6,15c0.8,0,1.4,0.3,1.9,0.8s0.7,1.3,0.7,2.2v0.1c0,0.9-0.3,1.7-0.8,2.2s-1.2,0.8-2.1,0.8
		c-0.9,0-1.6-0.3-2.1-0.9s-0.8-1.4-0.8-2.4v-0.4c0-1.4,0.2-2.4,0.7-3.2s1.2-1.3,2.2-1.5c0.5-0.1,0.9-0.2,1-0.3s0.2-0.3,0.2-0.5h1.1
		c0,0.4-0.1,0.7-0.2,1s-0.3,0.4-0.6,0.6s-0.7,0.3-1.4,0.4c-0.6,0.1-1,0.3-1.4,0.7s-0.5,0.8-0.6,1.3C114.2,15.3,114.8,15,115.6,15z
		 M115.3,16.2c-0.5,0-0.8,0.2-1.1,0.5s-0.4,0.8-0.4,1.4c0,0.6,0.1,1.1,0.4,1.4s0.6,0.5,1.1,0.5c0.5,0,0.8-0.2,1.1-0.5
		s0.4-0.9,0.4-1.5c0-0.5-0.1-1-0.4-1.3S115.8,16.2,115.3,16.2z"/>
	<path class="st0" d="M124.7,14.7V21h-1.4v-5.2h-1.8l-0.1,2.2c-0.1,1.1-0.3,1.8-0.6,2.3s-0.8,0.7-1.5,0.7h-0.4l0-1.2l0.3,0
		c0.3,0,0.5-0.2,0.7-0.6c0.1-0.3,0.2-1,0.3-1.8l0.1-2.7H124.7z"/>
	<path class="st0" d="M126,17.8c0-0.6,0.1-1.2,0.4-1.7s0.6-0.9,1-1.1s1-0.4,1.5-0.4c0.9,0,1.5,0.3,2.1,0.8s0.8,1.3,0.9,2.2l0,0.3
		c0,0.6-0.1,1.2-0.4,1.7s-0.6,0.9-1,1.1s-1,0.4-1.5,0.4c-0.9,0-1.6-0.3-2.1-0.9S126,18.8,126,17.8L126,17.8z M127.4,17.9
		c0,0.7,0.1,1.2,0.4,1.5s0.6,0.6,1.1,0.6s0.9-0.2,1.1-0.6s0.4-0.9,0.4-1.6c0-0.6-0.1-1.1-0.4-1.5s-0.6-0.6-1.1-0.6
		c-0.5,0-0.8,0.2-1.1,0.6S127.4,17.2,127.4,17.9z"/>
	<path class="st0" d="M135.3,18.5h-0.7V21h-1.4v-6.3h1.4v2.5h0.6l1.8-2.5h1.8l-2.3,3l2.5,3.3h-1.9L135.3,18.5z"/>
	<path class="st0" d="M144.8,21h-1.4v-2.1c-0.4,0.1-0.8,0.1-1.2,0.1c-0.9,0-1.5-0.2-2-0.6s-0.7-1-0.7-1.8v-1.9h1.4v1.9
		c0,0.5,0.1,0.8,0.3,1s0.5,0.3,0.9,0.3c0.4,0,0.8,0,1.2-0.1v-3.1h1.4V21z"/>
	<path class="st0" d="M149.1,21.1c-0.9,0-1.6-0.3-2.2-0.9s-0.8-1.3-0.8-2.3v-0.2c0-0.6,0.1-1.2,0.4-1.7s0.6-0.9,1-1.2
		s0.9-0.4,1.5-0.4c0.9,0,1.5,0.3,2,0.8s0.7,1.3,0.7,2.3v0.6h-4.1c0,0.5,0.2,0.9,0.5,1.2s0.7,0.5,1.2,0.5c0.7,0,1.2-0.3,1.6-0.8
		l0.8,0.7c-0.3,0.4-0.6,0.7-1,0.9S149.6,21.1,149.1,21.1z M148.9,15.7c-0.4,0-0.7,0.1-0.9,0.4s-0.4,0.7-0.5,1.1h2.7v-0.1
		c0-0.5-0.2-0.8-0.4-1.1S149.3,15.7,148.9,15.7z"/>
	<path class="st0" d="M156.7,14.7h1.4V21h-1.4v-4.2l-2.5,4.2h-1.4v-6.3h1.4v4.2L156.7,14.7z M157.4,12.2c0,0.5-0.2,0.9-0.5,1.2
		s-0.8,0.5-1.4,0.5s-1-0.2-1.4-0.5s-0.5-0.7-0.5-1.2h1.1c0,0.3,0.1,0.5,0.2,0.6s0.3,0.2,0.6,0.2s0.5-0.1,0.6-0.2s0.2-0.3,0.2-0.6
		H157.4z"/>
	<path class="st0" d="M165,21h-1.4v-2.6h-2.5V21h-1.4v-6.3h1.4v2.6h2.5v-2.6h1.4V21z"/>
	<path class="st0" d="M173.8,15.8H171V21h-1.4v-6.3h4.2V15.8z"/>
	<path class="st0" d="M174.2,17.8c0-0.6,0.1-1.2,0.4-1.7s0.6-0.9,1-1.1s1-0.4,1.5-0.4c0.9,0,1.5,0.3,2.1,0.8s0.8,1.3,0.9,2.2l0,0.3
		c0,0.6-0.1,1.2-0.4,1.7s-0.6,0.9-1,1.1s-1,0.4-1.5,0.4c-0.9,0-1.6-0.3-2.1-0.9S174.2,18.8,174.2,17.8L174.2,17.8z M175.6,17.9
		c0,0.7,0.1,1.2,0.4,1.5s0.6,0.6,1.1,0.6s0.9-0.2,1.1-0.6s0.4-0.9,0.4-1.6c0-0.6-0.1-1.1-0.4-1.5s-0.6-0.6-1.1-0.6
		c-0.5,0-0.8,0.2-1.1,0.6S175.6,17.2,175.6,17.9z"/>
	<path class="st0" d="M183.9,20c0.4,0,0.7-0.1,0.9-0.3s0.4-0.5,0.4-0.8h1.3c0,0.4-0.1,0.8-0.4,1.1s-0.5,0.6-0.9,0.8
		s-0.8,0.3-1.3,0.3c-0.9,0-1.6-0.3-2.1-0.9s-0.8-1.4-0.8-2.4v-0.1c0-1,0.3-1.7,0.8-2.3s1.2-0.9,2.1-0.9c0.8,0,1.4,0.2,1.8,0.7
		s0.7,1,0.7,1.7h-1.3c0-0.4-0.1-0.7-0.4-0.9s-0.5-0.4-0.9-0.4c-0.5,0-0.8,0.2-1.1,0.5s-0.4,0.8-0.4,1.5v0.2c0,0.7,0.1,1.2,0.4,1.5
		S183.4,20,183.9,20z"/>
	<path class="st0" d="M189.8,19l1.3-4.3h1.5l-2.5,7.3c-0.4,1.1-1,1.6-2,1.6c-0.2,0-0.4,0-0.7-0.1v-1.1l0.3,0c0.4,0,0.6-0.1,0.8-0.2
		s0.3-0.4,0.4-0.7l0.2-0.5l-2.2-6.3h1.5L189.8,19z"/>
	<path class="st0" d="M193.1,19.9c0.4-0.4,0.7-0.9,0.8-1.3s0.2-0.9,0.2-1.5l0.1-2.4h4.4v5.2h0.9v3h-1.4V21H194v1.9h-1.4l0-3H193.1z
		 M194.8,19.9h2.4v-4h-1.6l0,1.2C195.5,18.3,195.2,19.2,194.8,19.9z"/>
	<path class="st0" d="M204.3,21c-0.1-0.1-0.1-0.3-0.2-0.6c-0.5,0.5-1,0.7-1.7,0.7c-0.6,0-1.2-0.2-1.6-0.5s-0.6-0.8-0.6-1.3
		c0-0.7,0.3-1.2,0.8-1.6s1.2-0.5,2.2-0.5h0.9v-0.4c0-0.3-0.1-0.6-0.3-0.8s-0.5-0.3-0.8-0.3c-0.3,0-0.6,0.1-0.8,0.2s-0.3,0.4-0.3,0.6
		h-1.4c0-0.3,0.1-0.7,0.3-1s0.5-0.5,0.9-0.7s0.8-0.3,1.3-0.3c0.7,0,1.3,0.2,1.8,0.6s0.7,0.9,0.7,1.6v2.9c0,0.6,0.1,1,0.2,1.4V21
		H204.3z M202.7,20c0.3,0,0.5-0.1,0.8-0.2s0.4-0.3,0.6-0.6V18h-0.8c-0.5,0-0.9,0.1-1.2,0.3s-0.4,0.4-0.4,0.8c0,0.3,0.1,0.5,0.3,0.7
		S202.4,20,202.7,20z"/>
	<path class="st0" d="M212.6,17.9c0,1-0.2,1.8-0.7,2.3s-1,0.9-1.8,0.9c-0.7,0-1.3-0.2-1.7-0.7v3H207v-8.8h1.3l0.1,0.6
		c0.4-0.5,1-0.8,1.7-0.8c0.8,0,1.4,0.3,1.8,0.9S212.6,16.8,212.6,17.9L212.6,17.9z M211.1,17.8c0-0.6-0.1-1.1-0.4-1.5
		s-0.6-0.6-1.1-0.6c-0.6,0-1,0.2-1.3,0.7v2.8c0.3,0.5,0.7,0.7,1.3,0.7c0.5,0,0.8-0.2,1.1-0.5S211.1,18.5,211.1,17.8z"/>
	<path class="st0" d="M216.4,20c0.4,0,0.7-0.1,0.9-0.3s0.4-0.5,0.4-0.8h1.3c0,0.4-0.1,0.8-0.4,1.1s-0.5,0.6-0.9,0.8
		s-0.8,0.3-1.3,0.3c-0.9,0-1.6-0.3-2.1-0.9s-0.8-1.4-0.8-2.4v-0.1c0-1,0.3-1.7,0.8-2.3s1.2-0.9,2.1-0.9c0.8,0,1.4,0.2,1.8,0.7
		s0.7,1,0.7,1.7h-1.3c0-0.4-0.1-0.7-0.4-0.9s-0.5-0.4-0.9-0.4c-0.5,0-0.8,0.2-1.1,0.5s-0.4,0.8-0.4,1.5v0.2c0,0.7,0.1,1.2,0.4,1.5
		S215.9,20,216.4,20z"/>
	<path class="st0" d="M225,15.8H223V21h-1.4v-5.2h-2v-1.1h5.5V15.8z"/>
	<path class="st0" d="M226.1,21v-6.3h2.6c0.9,0,1.5,0.2,2,0.5s0.7,0.7,0.7,1.3c0,0.3-0.1,0.6-0.3,0.8c-0.2,0.2-0.5,0.4-0.8,0.5
		c0.4,0.1,0.7,0.3,1,0.5s0.4,0.6,0.4,0.9c0,0.6-0.2,1-0.7,1.3s-1.1,0.5-1.9,0.5H226.1z M227.5,17.3h1.2c0.8,0,1.2-0.2,1.2-0.7
		c0-0.5-0.4-0.8-1.1-0.8h-1.2V17.3z M227.5,18.3v1.6h1.6c0.7,0,1.1-0.3,1.1-0.8c0-0.5-0.4-0.8-1.1-0.8H227.5z"/>
	<path class="st0" d="M236.6,21c-0.1-0.1-0.1-0.3-0.2-0.6c-0.5,0.5-1,0.7-1.7,0.7c-0.6,0-1.2-0.2-1.6-0.5s-0.6-0.8-0.6-1.3
		c0-0.7,0.3-1.2,0.8-1.6s1.2-0.5,2.2-0.5h0.9v-0.4c0-0.3-0.1-0.6-0.3-0.8s-0.5-0.3-0.8-0.3c-0.3,0-0.6,0.1-0.8,0.2s-0.3,0.4-0.3,0.6
		h-1.4c0-0.3,0.1-0.7,0.3-1s0.5-0.5,0.9-0.7s0.8-0.3,1.3-0.3c0.7,0,1.3,0.2,1.8,0.6s0.7,0.9,0.7,1.6v2.9c0,0.6,0.1,1,0.2,1.4V21
		H236.6z M235,20c0.3,0,0.5-0.1,0.8-0.2s0.4-0.3,0.6-0.6V18h-0.8c-0.5,0-0.9,0.1-1.2,0.3s-0.4,0.4-0.4,0.8c0,0.3,0.1,0.5,0.3,0.7
		S234.7,20,235,20z"/>
</g>
</svg>
