<?xml version="1.0" encoding="utf-8"?>
<!-- Roman Inozemtsev: https://github.com/mir-one/  -->
<svg version="1.1"
	 id="Слой_1" shape-rendering="geometricPrecision" text-rendering="geometricPrecision" image-rendering="optimizeQuality"
	 xmlns="http://www.w3.org/2000/svg" xmlns:xlink="http://www.w3.org/1999/xlink" x="0px" y="0px" viewBox="0 0 24 24"
	 style="enable-background:new 0 0 24 24;" xml:space="preserve">
<style type="text/css">
	.st0{fill:#332C6C;}
	.st1{fill:#FFFFFF;}
</style>
<circle class="st0" cx="12" cy="12" r="12"/>
<circle class="st1" cx="12" cy="12" r="11.1"/>
<ellipse transform="matrix(0.7071 -0.7071 0.7071 0.7071 -4.9787 12.0079)" class="st1" cx="12" cy="12" rx="10.4" ry="10.4"/>
<path class="st0" d="M15.6,8.5c-1.9-2.2-5.3-2.2-7.1,0.1c-1.2,1.5-1.3,3.2-0.5,4.9c0.4,0.9,1,1.6,1.6,2.3c0.8,1,1.7,1.9,2.4,2.9
	c0.1,0.2,0.1,0.1,0.2,0c0.5-0.7,1-1.3,1.6-2c0.7-0.8,1.4-1.5,1.9-2.4c0.6-0.8,0.9-1.8,0.9-2.7C16.6,10.4,16.2,9.5,15.6,8.5z"/>
<g>
	<path class="st0" d="M12,15.9c-2.5,0-4.5-2-4.6-4.5c0-2.5,2-4.4,4.1-4.5c3.2-0.2,4.9,2.2,5,4.4C16.6,13.9,14.6,15.9,12,15.9z
		 M9.5,11.3c0.1-0.3,0.2-0.4,0.5-0.4c0.2,0,0.4,0,0.6-0.1c0.2,0,0.2,0,0.2,0.2c0,0.2,0,0.4-0.1,0.6c0,0.2-0.1,0.5-0.1,0.7
		c0,0,0,0.1,0.1,0.1c0.3-0.1,0.5,0,0.8,0c0.1,0,0.1,0,0.1-0.1c0-0.3,0.1-0.6,0.1-0.9c0-0.2,0.1-0.4,0.1-0.6c0.2-1,0.3-2.1,0.5-3.1
		c0-0.1,0-0.2-0.2-0.2c-0.9,0-1.8,0.3-2.5,0.8C8.7,8.9,8.2,9.9,8.1,11c-0.1,0.6,0,1.3,0.3,1.9c0.3,0.8,0.9,1.5,1.6,1.9
		c0.2,0.1,0.5,0.3,0.8,0.4c-0.1-0.2-0.2-0.3-0.3-0.5c-0.3-0.4-0.5-0.8-0.8-1.2c-0.1-0.1-0.2-0.2-0.2-0.3c0-0.1,0-0.3,0.1-0.4
		c0.1-0.2,0.1-0.4,0.2-0.6c0.1-0.3,0.2-0.6,0.2-0.9c0-0.1,0-0.2-0.1-0.1C9.7,11.3,9.6,11.3,9.5,11.3z M16,11.4c0-1-0.3-1.9-1-2.6
		c-0.1-0.1-0.1-0.1-0.1,0c-0.1,0.2-0.3,0.5-0.4,0.7c-0.2,0.5-0.5,1-0.8,1.5c-0.2,0.4-0.4,0.8-0.7,1.2c-0.1,0.1,0,0.1,0.1,0.1
		c0.5,0,1,0,1.5,0c0.2,0,0.3,0.1,0.5,0c0.1,0,0.1,0,0.1,0.1c0,0.2,0.1,0.5,0.2,0.7c0,0,0,0.1,0.1,0.1c0,0,0.1-0.1,0.1-0.1
		C15.9,12.6,16,12,16,11.4z M12.3,13.3C12.3,13.3,12.3,13.3,12.3,13.3c-0.6,0-1.3,0-1.9,0c0,0-0.1,0-0.1,0c0,0.1,0,0.1,0.1,0.1
		c0.2,0.2,0.4,0.3,0.5,0.5c0.6,0.5,1.1,0.9,1.7,1.4c0.1,0.1,0.1,0.1,0.2,0.1c0.5-0.1,1-0.3,1.5-0.6c0.5-0.3,0.8-0.7,1.1-1.2
		c0-0.1,0.1-0.1,0.1-0.2c0-0.1-0.1,0-0.2,0C14.3,13.3,13.3,13.3,12.3,13.3z M12,12.3c0.1,0,0.2,0,0.2-0.1c0.1-0.4,0.2-0.8,0.3-1.2
		c0.1-0.3,0.2-0.6,0.2-0.9c0.2-0.7,0.4-1.5,0.6-2.2c0-0.1,0-0.2-0.1-0.2c-0.1,0-0.3-0.1-0.4-0.1c-0.1,0-0.2,0-0.2,0.1
		c-0.1,0.4-0.1,0.8-0.2,1.2c-0.1,0.5-0.2,1-0.3,1.5c0,0.1,0,0.1-0.1,0.4c0,0.1,0,0.2,0,0.3c-0.1,0.4-0.2,0.8-0.3,1.2
		C11.8,12.3,11.8,12.3,12,12.3z M12.6,12.3c0.1,0,0.2,0,0.2-0.1c0.2-0.5,0.5-1,0.7-1.5c0.2-0.4,0.4-0.8,0.6-1.3
		c0.1-0.3,0.3-0.7,0.4-1c0-0.1,0-0.1,0-0.2c-0.1-0.1-0.3-0.2-0.4-0.3C14,7.9,14,8,13.9,8c-0.1,0.3-0.2,0.6-0.4,1
		c-0.3,0.8-0.6,1.6-0.8,2.3c-0.1,0.3-0.2,0.6-0.3,0.8c0,0.1,0,0.1,0.1,0.1C12.6,12.3,12.6,12.3,12.6,12.3z M12.2,15.4
		c0,0,0.1,0,0.1,0c0,0,0-0.1-0.1-0.1c-0.7-0.6-1.4-1.3-2.1-1.9c-0.1-0.1-0.1-0.1-0.2,0c-0.1,0.1,0,0.1,0.1,0.2
		c0.1,0.1,0.3,0.2,0.4,0.4c0.5,0.5,1,1,1.5,1.4C12,15.4,12,15.4,12.2,15.4z M11.6,15.3C11.5,15.3,11.5,15.3,11.6,15.3
		c-0.5-0.6-0.9-1.1-1.4-1.5c-0.1-0.1-0.3-0.3-0.4-0.4c0,0-0.1-0.1-0.1-0.1c-0.1,0,0,0.1,0,0.1c0.1,0.1,0.2,0.3,0.3,0.4
		c0.3,0.4,0.7,0.8,1,1.3C11.1,15.3,11.3,15.3,11.6,15.3z"/>
	<path class="st1" d="M9.5,11.3c0.1,0,0.2,0,0.3,0c0.1-0.1,0.2,0,0.1,0.1c0,0.3-0.1,0.6-0.2,0.9c0,0.2-0.1,0.4-0.2,0.6
		c0,0.1-0.1,0.2-0.1,0.4c0,0.1,0.1,0.2,0.2,0.3c0.3,0.4,0.6,0.8,0.8,1.2c0.1,0.2,0.2,0.3,0.3,0.5c-0.3-0.1-0.6-0.2-0.8-0.4
		c-0.8-0.5-1.3-1.1-1.6-1.9C8.1,12.3,8,11.7,8.1,11c0.1-1.2,0.7-2.1,1.6-2.8c0.7-0.6,1.6-0.8,2.5-0.8c0.1,0,0.2,0,0.2,0.2
		c-0.2,1-0.3,2.1-0.5,3.1c0,0.2-0.1,0.4-0.1,0.6c0,0.3-0.1,0.6-0.1,0.9c0,0.1,0,0.1-0.1,0.1c-0.3,0-0.5,0-0.8,0
		c-0.1,0-0.1-0.1-0.1-0.1c0-0.2,0.1-0.5,0.1-0.7c0-0.2,0-0.4,0.1-0.6c0-0.2,0-0.2-0.2-0.2c-0.2,0-0.4,0.1-0.6,0.1
		C9.7,10.9,9.6,11.1,9.5,11.3z"/>
	<path class="st1" d="M16,11.4c0,0.6-0.1,1.1-0.4,1.7c0,0,0,0.1-0.1,0.1c-0.1,0,0-0.1-0.1-0.1c-0.1-0.2-0.2-0.4-0.2-0.7
		c0-0.1-0.1-0.1-0.1-0.1c-0.2,0.1-0.3,0-0.5,0c-0.5,0-1,0-1.5,0c-0.1,0-0.2,0-0.1-0.1c0.2-0.4,0.5-0.8,0.7-1.2
		c0.2-0.5,0.5-1,0.8-1.5c0.1-0.2,0.2-0.5,0.4-0.7c0-0.1,0.1-0.1,0.1,0C15.7,9.6,16,10.4,16,11.4z"/>
	<path class="st1" d="M12.3,13.3c1,0,2,0,3,0c0.1,0,0.1,0,0.2,0c0,0.1,0,0.1-0.1,0.2c-0.3,0.5-0.7,0.9-1.1,1.2
		c-0.4,0.3-0.9,0.5-1.5,0.6c-0.1,0-0.2,0-0.2-0.1c-0.6-0.5-1.1-0.9-1.7-1.4c-0.2-0.1-0.4-0.3-0.5-0.5c0,0-0.1,0-0.1-0.1
		c0,0,0.1,0,0.1,0C11.1,13.3,11.7,13.3,12.3,13.3C12.3,13.3,12.3,13.3,12.3,13.3z"/>
	<path class="st1" d="M12,12.3c-0.2,0-0.2,0-0.2-0.2c0.1-0.4,0.2-0.8,0.3-1.2c0-0.1,0-0.1,0-0.3c0.1-0.4,0.1-0.2,0.1-0.4
		c0.1-0.5,0.2-1,0.3-1.5c0.1-0.4,0.2-0.8,0.2-1.2c0-0.1,0.1-0.2,0.2-0.1c0.1,0,0.3,0.1,0.4,0.1c0.1,0,0.1,0.1,0.1,0.2
		C13.2,8.6,13,9.3,12.8,10c-0.1,0.3-0.2,0.6-0.2,0.9c-0.1,0.4-0.2,0.8-0.3,1.2C12.2,12.4,12.1,12.3,12,12.3z"/>
	<path class="st1" d="M12.6,12.3c0,0-0.1,0-0.1,0c-0.1,0-0.1,0-0.1-0.1c0.1-0.3,0.2-0.6,0.3-0.8c0.3-0.8,0.6-1.6,0.8-2.3
		c0.1-0.3,0.2-0.6,0.4-1C14,8,14,7.9,14.1,8c0.1,0.1,0.3,0.2,0.4,0.3c0.1,0.1,0.1,0.1,0,0.2c-0.2,0.3-0.3,0.6-0.4,1
		c-0.2,0.4-0.4,0.8-0.6,1.3c-0.2,0.5-0.5,1-0.7,1.5C12.8,12.4,12.7,12.3,12.6,12.3z"/>
	<path class="st1" d="M12.2,15.4c-0.1,0-0.2,0-0.2-0.1c-0.5-0.5-1-1-1.5-1.4c-0.1-0.1-0.3-0.2-0.4-0.4c-0.1-0.1-0.1-0.1-0.1-0.2
		c0.1-0.1,0.1,0,0.2,0c0.7,0.6,1.4,1.3,2.1,1.9c0,0,0.1,0.1,0.1,0.1C12.2,15.4,12.2,15.4,12.2,15.4z"/>
	<path class="st1" d="M11.6,15.3c-0.2,0-0.4,0-0.6-0.2c-0.3-0.4-0.7-0.9-1-1.3c-0.1-0.1-0.2-0.3-0.3-0.4c0,0-0.1-0.1,0-0.1
		c0.1,0,0.1,0,0.1,0.1c0.1,0.1,0.3,0.3,0.4,0.4C10.6,14.3,11.1,14.8,11.6,15.3C11.5,15.3,11.5,15.3,11.6,15.3z"/>
</g>
</svg>
