<?xml version="1.0" encoding="utf-8"?>
<!-- Generator: Adobe Illustrator 21.0.0, SVG Export Plug-In . SVG Version: 6.00 Build 0)  -->
<svg version="1.1"
	 id="Слой_1" shape-rendering="geometricPrecision" text-rendering="geometricPrecision" image-rendering="optimizeQuality"
	 xmlns="http://www.w3.org/2000/svg" xmlns:xlink="http://www.w3.org/1999/xlink" x="0px" y="0px" viewBox="0 0 211.7 126.6"
	 style="enable-background:new 0 0 211.7 126.6;" xml:space="preserve">
<style type="text/css">
	.st0{fill:#FFFFFF;}
</style>
<path class="st0" d="M105.5,82.5C83.4,82.5,65,64.2,65,42.4c0-22.3,17.8-39,36.9-40.3c28.1-1.8,44,19.8,44.4,39.5
	C146.5,64.4,128,82.4,105.5,82.5z M82.7,41.5c0.9-2.3,2-3.6,4.4-3.6c1.9-0.1,3.8-0.4,5.6-0.8c1.4-0.3,1.6,0.3,1.5,1.5
	c-0.3,1.6-0.5,3.4-0.6,5c-0.3,2-0.5,4.1-0.8,6.1c0,0.4-0.3,1.3,0.8,1c2.4-0.5,4.6-0.1,7-0.1c0.6,0,0.9,0,1-0.8
	c0.8-4,0.9-8.1,1.8-12.1c0.6-2.9,0.9-5.9,1.3-8.9c1-6.8,2-13.5,3-20.4c0.3-1,0.1-1.6-1.3-1.6c-7.3-0.4-14,1.8-20,5.6
	c-5.8,3.6-10,8.6-13,14.8c-1.5,3.3-2.9,6.6-3.1,10.1c-0.4,4.6-0.3,9.4,1,14c0.9,3.1,2.1,6.3,3.8,8.9c3,5,7,9.1,12.1,12.1
	c2.3,1.3,4.5,2.5,7,3.3c0-0.9-0.4-1.3-0.8-1.8c-0.6-1-1.4-1.9-2-2.9c-2.4-3.3-4.8-6.6-6.9-10c-0.6-1-2.1-1.8-1.6-3.4
	c0.5-1.6,0.9-3.3,1.3-4.9c0.8-3.5,1.6-7,2.4-10.5c0.3-1,0.1-1.9-1.4-1.1C84.4,41.5,83.6,41.4,82.7,41.5z M114.2,50.4
	c0.8,0,1.1,0.1,1.6,0.1c4.4,0,8.6,0.1,13,0c1.6,0,3.4,0.8,5,0c0.5-0.3,1,0.3,0.9,0.8c-0.1,1.4,0.8,2.6,1,4c0.1,1,0.8,2,1.1,3.1
	c0.3-0.1,0.4-0.1,0.4-0.3c0.1-0.3,0.4-0.5,0.5-0.8c1.8-3.5,2.8-7.3,3.1-11.1C142,36,139,26.9,132.4,19c-0.5-0.6-0.8-0.6-1.3,0.1
	c-1.3,2-2.4,4-3.4,6.1c-2.1,4.6-4.9,8.9-7.1,13.4C118.8,42.5,116.7,46.5,114.2,50.4z M108.4,59L108.4,59c-5.8,0.1-11.5,0.1-17.3,0.1
	c-0.3,0-0.6-0.1-0.9,0.1c-0.3,0.4,0.3,0.5,0.5,0.8c1.6,1.4,3.3,2.8,5,4.1c5,4,9.9,8.1,14.9,12.1c0.6,0.5,1.1,0.9,2,0.6
	c4.8-0.9,9.1-2.8,13.1-5.5c4.1-2.9,7.6-6.5,10.3-10.9c0.3-0.5,0.8-0.9,0.5-1.5c-0.3-0.4-0.9-0.3-1.4-0.3C126.1,59,117.2,59,108.4,59
	z M105.5,50.5c1,0.3,1.8-0.1,2.1-1.6c1.5-5.8,3.1-11.5,4.6-17.1c1.1-4.1,2.3-8.3,3.4-12.4c0.8-2.9,1.6-5.9,2.4-8.8
	c0.3-0.9,0.1-1.4-0.9-1.6c-1.3-0.4-2.5-0.8-3.8-1.1c-1-0.4-1.5,0-1.6,1.1c-0.6,3.5-1.4,7-2.1,10.5c-0.9,4.3-1.9,8.5-2.6,12.9
	c-0.3,1.3-1.1,2.1-1,3.4c0.1,0.8-0.1,1.5-0.3,2.4c-0.8,3.5-1.5,7-2.3,10.5C103.1,50.5,103.2,50.5,105.5,50.5z M111.1,50.5
	c1,0.4,1.6-0.1,2.1-1.4c2.1-5.1,4.4-10.3,6.8-15.3c1.5-3.3,3-6.4,4.4-9.6c1-2.4,1.9-4.8,3.1-7c1-1.9,0.9-2-1-3.4
	c-0.8-0.5-1.6-1.1-2.4-1.8c-1-0.8-1.3-0.3-1.6,0.6c-1.1,3.4-2.4,6.8-3.6,10.1c-1.5,4.3-3,8.5-4.6,12.8c-1.6,4.4-3.1,8.8-4.9,13
	C108.7,50.2,108.9,50.5,111.1,50.5z M106.5,77.6c0.1,0,0.8,0.3,1.1-0.3c0.3-0.4-0.3-0.6-0.5-0.8C101,71,94.9,65.4,88.6,59.7
	c-0.5-0.5-1.3-1-1.8-0.4c-0.5,0.5,0.3,1.1,0.6,1.5c1.1,1.1,2.4,2.1,3.5,3.3c4.5,4.3,8.9,8.6,13.3,12.9
	C105,77.5,105.5,77.7,106.5,77.6z M101.2,77.4c-0.3-0.4-0.3-0.5-0.4-0.6c-4-4.4-8-8.9-12.1-13.1c-1.1-1.3-2.4-2.5-3.5-3.8
	c-0.3-0.4-0.8-0.8-1.1-0.4c-0.4,0.4,0.1,0.6,0.4,1c0.8,1.3,1.8,2.4,2.6,3.5c3.1,3.9,6.1,7.6,9.1,11.5C97.6,77,99.2,77.2,101.2,77.4z
	"/>
<path class="st0" d="M58.1,107.3c3.5,1.4,4.8,4.2,5.7,7.6c0.9,3.4,1.9,6.8,2.8,10.5c-2.9,0-5.7,0-8.6,0c-1.1,0-1.2-1.2-1.5-2
	c-0.8-3.2-1.4-6.5-2.2-9.6c-0.6-2.6-3.4-4.2-6-3.5c-1.1,0.3-0.8,0.9-0.6,1.5c0.8,4.2,0.2,8.5,0.3,12.6c0,0.8-0.3,1.1-1.1,1.1
	c-2.3,0-4.6,0-6.9,0c-1.2,0-1.2-0.6-1.2-1.5c0-5.4,0-10.6,0-16c0-5.9,0-11.7,0-17.6c0-1.7,0.2-2.3,2.2-2.5c4.3-0.5,8.6-0.8,12.8-0.2
	c3.9,0.5,7.7,1.4,10.2,4.9c2.5,3.4,2.2,10-2.5,13.1C60.2,106.1,59.3,106.9,58.1,107.3z M47.7,98.7c0,1.5,0,3.1,0,4.8
	c0,0.5-0.2,1.1,0.8,1.2c2.5,0.2,4.8-0.5,6.3-2.3c1.5-1.9,1.7-5.4,0.3-7.4c-1.5-2-3.7-2.2-6-2.2c-1.1,0-1.4,0.6-1.4,1.7
	C47.7,95.9,47.7,97.3,47.7,98.7z"/>
<path class="st0" d="M147.7,106.4c0-5.7,0-11.6,0-17.3c0-0.9,0.2-1.2,1.1-1.4c5.1-0.6,10-1.1,15.1,0c3.7,0.8,6.8,2.6,9.3,5.6
	c4,5.1,3.9,11,3.2,16.7c-0.3,3.4-1.5,6.5-3.9,9.3c-2.5,2.9-5.7,4.5-9.3,5.2c-4.5,1.1-8.9,0.9-13.6,0.6c-1.5-0.2-2.2-0.6-2.2-2.5
	C147.7,117.3,147.7,111.8,147.7,106.4L147.7,106.4z M156.8,106.2c0,4,0,8,0,12c0,0.9,0.2,1.2,1.2,1.2c3.9,0.2,6.6-1.9,8-5.7
	c1.5-4.3,1.4-8.8,0.6-13.3c-0.6-4.3-3.2-7.7-8.5-7.4c-1.1,0-1.4,0.3-1.4,1.4C156.8,98.4,156.8,102.2,156.8,106.2z"/>
<path class="st0" d="M194,87.4c1.4,0,2.9,0,4.3,0c0.9,0,1.4,0.3,1.7,1.2c2.2,8.9,4.5,17.7,6.6,26.7c0.8,3.1,1.4,6.2,2.2,9.1
	c0.2,0.8-0.2,0.9-0.8,0.9c-2.3,0-4.6,0-6.9,0c-0.8,0-1.1-0.5-1.2-1.1c-0.5-2.2-1.1-4.3-1.5-6.5c-0.2-1.1-0.6-1.5-1.9-1.5
	c-2,0.2-3.9,0.2-5.9,0c-1.2,0-1.9,0.5-2,1.5c-0.3,1.9-0.8,3.7-1.1,5.7c-0.2,1.2-0.8,1.9-2.2,1.9c-2.2-0.2-4.3,0-6.3,0
	c-0.8,0-1.1-0.2-0.8-1.1c1.7-5.7,3.2-11.4,4.8-17.3c1.7-5.9,3.5-11.7,4.9-17.6c0.5-2,1.4-2.2,2.9-2C191.8,87.4,192.9,87.4,194,87.4z
	 M193.8,94.7c-0.2,0-0.2,0-0.3,0c-1.1,4.6-2.2,9.3-3.1,13.9c-0.5,2.3-0.3,2.3,2.2,2.3c0.9,0,2,0,2.9,0c1.1,0,1.5-0.2,1.2-1.4
	C195.7,104.5,194.7,99.6,193.8,94.7z"/>
<path class="st0" d="M2.5,125.4c1.1-5.6,2.8-10.6,4.2-15.9c1.2-4.6,2.6-9.3,3.9-13.9c0.6-2.5,1.4-4.8,2-7.2c0.2-0.8,0.6-0.8,1.2-0.8
	c3.1,0,6,0,9.1,0c1.1,0,1.2,0.6,1.4,1.4c2,8.5,4,17.1,6.2,25.6c0.8,3.4,1.7,6.6,2.5,9.9c0.3,1.1,0,1.1-0.9,1.1c-2,0-3.9-0.2-5.9,0
	c-1.7,0.2-2.2-0.8-2.5-2c-0.5-1.9-0.8-3.7-1.1-5.7c-0.2-0.9-0.6-1.4-1.5-1.2c-2.2,0-4.3,0-6.3,0c-0.9,0-1.4,0.3-1.5,1.2
	c-0.3,2-0.8,3.9-1.2,5.9c-0.2,1.4-0.8,2-2.3,1.9C7.3,125.2,5,125.4,2.5,125.4z M18.1,94.8c-0.2,0-0.3,0-0.3,0
	c-1.1,5.1-2.3,10.3-3.4,15.4c-0.2,0.8,0.3,0.8,0.8,0.8c1.7,0,3.2,0,4.9,0c0.9,0,1.1-0.3,0.9-1.2C20.1,104.7,19.2,99.8,18.1,94.8z"/>
<path class="st0" d="M88.8,125.4c-5.2,0-9.6-0.9-13.1-3.9c-2.5-2-4.2-4.6-4.9-7.7c-1.7-6.9-1.7-13.6,2.8-19.6
	C77,89.4,82.1,87.1,88,87c2.2,0,4.3-0.3,6.3,0.5c0.5,0.2,1.1,0.2,1.1,0.8c-0.2,1.9-0.8,3.5-1.4,5.2c-0.3,0.8-1.1,0.2-1.7,0
	c-2.3-0.6-4.6-0.3-6.9,0.6c-3.2,1.4-4.8,4.2-5.4,7.2c-0.8,4.2-1.1,8.3,0.9,12.3c2.5,4.8,4.8,5.1,9.4,5.1c1.1,0,2.5-0.8,3.4-0.3
	c1.1,0.5,0.2,2.2,0.8,3.2c0.3,0.5,0.3,1.1,0.5,1.5c0.2,0.8,0,1.2-0.9,1.4C92,125.2,90,125.5,88.8,125.4z"/>
<path class="st0" d="M107.1,109.8c0-4.8,0-9.4,0-14.2c0-1.1-0.3-1.5-1.5-1.5c-2,0.2-3.9,0-5.9,0c-0.9,0-1.4-0.2-1.2-1.2
	c0-1.5,0-3.1,0-4.5c0-0.8,0.3-1.1,1.1-1.1c8.2,0,16.3,0,24.5,0c0.9,0,1.2,0.3,1.1,1.2c0,1.4,0,2.9,0,4.3c0,0.9-0.3,1.2-1.2,1.2
	c-2,0-3.9,0.2-5.9,0c-1.5-0.2-1.7,0.6-1.7,1.9c0,9.1,0,18.4,0,27.5c0,1.5-0.3,2-1.9,1.9c-2-0.2-4-0.2-6,0c-1.4,0-1.5-0.5-1.5-1.7
	C107.1,119,107.1,114.4,107.1,109.8z"/>
<path class="st0" d="M139.2,106.2c0,5.9,0,11.6,0,17.4c0,1.2-0.3,1.7-1.5,1.7c-2-0.2-4-0.2-6,0c-1.2,0-1.7-0.3-1.7-1.5
	c0-11.6,0-23.3,0-34.9c0-1.1,0.2-1.5,1.4-1.4c2.2,0.2,4.3,0.2,6.3,0c1.2,0,1.5,0.5,1.5,1.5C139.2,94.7,139.2,100.4,139.2,106.2
	L139.2,106.2z"/>
</svg>
