<?xml version="1.0" encoding="utf-8"?>
<!-- Roman Inozemtsev: https://github.com/mir-one/  -->
<svg version="1.1" id="Слой_1" xmlns="http://www.w3.org/2000/svg" xmlns:xlink="http://www.w3.org/1999/xlink" x="0px" y="0px"
	 viewBox="0 0 67 67" style="enable-background:new 0 0 67 67;" xml:space="preserve">
<style type="text/css">
	.st0{fill:none;}
	.st1{fill:#25A9E0;}
	.st2{fill:#1B75BB;}
	.st3{fill:#FFFFFF;}
</style>
<path class="st0" d="M64.4,33.5c0-17.1-13.9-30.9-30.9-30.9C16.4,2.6,2.6,16.4,2.6,33.5s13.9,30.9,30.9,30.9c0.3,0,0.7,0,1-0.1
	c0.6,0,1.2-0.1,1.8-0.1L22.5,50.1L23.9,22h21.7l18.1,18.1c0.3-1.2,0.5-2.3,0.6-3.5C64.4,35.6,64.4,34.6,64.4,33.5z"/>
<g>
	<path class="st1" d="M54,13C42.7,1.7,24.3,1.7,13,13S1.7,42.7,13,54c5.4,5.4,12.5,8.2,19.6,8.5c7.7,0.2,15.5-2.6,21.4-8.5
		c5.3-5.3,8.1-12.2,8.4-19.2C62.8,27,60,19,54,13z"/>
	<path class="st1" d="M34.5,64.4c-0.3,0-0.7,0.1-1,0.1c-17.1,0-30.9-13.9-30.9-30.9c0-17.1,13.9-30.9,30.9-30.9
		c17.1,0,30.9,13.9,30.9,30.9c0,1.1-0.1,2.1-0.2,3.2c-0.1,1.2-0.3,2.4-0.6,3.5l2.1,2.1c0.3-1.1,0.6-2.2,0.7-3.4
		c0.3-1.8,0.5-3.5,0.5-5.4C67,15,52,0,33.5,0S0,15,0,33.5S15,67,33.5,67c1.2,0,2.3-0.1,3.4-0.2c0.6-0.1,1.1-0.2,1.7-0.2l-2.3-2.3
		C35.7,64.3,35.1,64.4,34.5,64.4z"/>
</g>
<g>
	<path class="st2" d="M23.9,22l-1.4,28.1l13.9,14.2C49.9,63,60.8,53.1,63.7,40.2L45.6,22H23.9z"/>
	<path class="st2" d="M65.8,42.2l-2.1-2.1c-2.9,13-13.8,22.8-27.4,24.1l2.3,2.3C51.8,64.6,62.4,54.9,65.8,42.2z"/>
</g>
<g>
	<path class="st3" d="M45.5,26h-3.2v17.1c0,1.3,0.2,2.1,0.7,2.6s1.1,0.7,1.9,0.7c0.4,0,0.9-0.1,1.3-0.2c0.4-0.1,0.8-0.3,1.1-0.5
		l1.1,3.5c-0.8,0.5-1.6,0.9-2.3,1.1c-0.8,0.2-1.6,0.3-2.5,0.3c-2.1,0-3.6-0.6-4.7-1.8c-1.1-1.2-1.6-3.2-1.6-6V26h-9.5v24.1h-5.1V26
		h-4v-4h27v4H45.5z"/>
</g>
<path class="st3" d="M33.5,2.6C16.4,2.6,2.6,16.4,2.6,33.5s13.9,30.9,30.9,30.9c0.3,0,0.7,0,1-0.1c15.6-0.5,28.2-12.5,29.8-27.7
	c0.1-1,0.2-2.1,0.2-3.2C64.4,16.4,50.6,2.6,33.5,2.6z M54,54c-5.9,5.9-13.7,8.7-21.4,8.5c-7.1-0.2-14.2-3-19.6-8.5
	C1.7,42.7,1.7,24.3,13,13s29.7-11.3,41,0c6,6,8.8,14,8.4,21.8C62.1,41.8,59.3,48.7,54,54z"/>
</svg>
