<?xml version="1.0" encoding="utf-8"?>
<!-- Generator: Adobe Illustrator 21.0.0, SVG Export Plug-In . SVG Version: 6.00 Build 0)  -->
<svg version="1.1" id="Слой_1" xmlns="http://www.w3.org/2000/svg" xmlns:xlink="http://www.w3.org/1999/xlink" x="0px" y="0px"
	 viewBox="0 0 67 67" style="enable-background:new 0 0 67 67;" xml:space="preserve">
<style type="text/css">
	.st0{fill:#332C6C;}
	.st1{fill:#FFFFFF;}
</style>
<g>
	<circle class="st0" cx="33.5" cy="33.5" r="33.5"/>
	<path class="st1" d="M35.3,6c-1.2,7.6-2.3,15.2-3.4,22.8c-0.2,1.4-0.8,2.8-0.8,4.2c-0.1,2.3-0.6,4.5-0.8,6.7
		c-0.1,0.7-0.3,0.8-1,0.8c-1.9-0.1-3.7-0.3-5.6,0.1c-0.8,0.1-0.6-0.6-0.6-0.9c0.2-1.7,0.4-3.3,0.6-5c0.1-1.4,0.3-2.7,0.5-4.1
		c0.1-1.3,0-1.2-1.3-1.2c-2,0-2.6,0.1-4.4,0.5c-1.9,0.4-3,1-3.7,3c0.7-0.1,1.4-0.1,2-0.3c1.2,0.1,1.2,0.1,1.1,0.8
		c-0.2,2.3-1,4.4-1.4,6.6c-0.3,1.3-0.6,2.7-1.1,4c-0.3,0.8-0.4,1.7-0.5,2.6c-0.1,1.1,0.8,1.7,1.3,2.4c2,2.7,4,5.5,5.9,8.4
		c0.6,1,1.4,1.8,2,3c0.7,0.3,1.5,0.5,2.2,0.7L26.2,61c-0.1-0.1-0.2-0.2-0.3-0.3c-2.4-3.1-4.8-6.2-7.3-9.3c-0.8-0.9-1.5-2-2.3-2.9
		c-0.2-0.2-0.7-0.6-0.3-0.9c0.4-0.3,0.7,0.1,1,0.4c0.9,1,1.9,2,2.8,3c3.4,3.5,6.9,7.6,10.2,11.2c0.9,0.1,2.3,0.3,3.2,0.3
		c-3.5-3.5-7.9-7.7-11.5-11.1c-0.9-0.9-1.9-1.7-2.8-2.6c-0.4-0.3-1-0.8-0.6-1.3s1.1-0.1,1.5,0.3c5,4.5,10,9.1,15,13.7
		c0.1,0.1,0.4,0.9,0.5,1c0.8-0.1,2.3,0.2,3.1,0c-4-3.3-9-7.7-12.9-10.9c-1.4-1.1-2.8-2.1-4-3.3c-0.2-0.2-0.7-0.3-0.5-0.7
		c0.1-0.2,0.5-0.1,0.8-0.1h14c7.3,0,14.5-0.2,21.7-0.3c0.1,0,0.3,0,0.4,0c0.2-0.3,1.2,0.4,1.4,0.1c0.1-0.1,0-0.6-0.6-1.5
		c-0.5-1.6-1.1-3.2-1.3-4.9c-0.1-0.5-0.4-0.6-0.8-0.6c-3.8,0-2.5,0-3.8,0H41.7c-0.7,0-1.2,0-0.6-1c1.7-2.9,3.4-5.8,4.8-8.8
		c1.7-3.7,4-7.2,5.7-10.9c0.8-1.7,1.8-3.4,2.8-5c0.1-0.1,0.2-0.2,0.2-0.2c-0.1-0.2-0.2-0.4-0.3-0.6c-0.7-1-1.5-1.8-2.5-2.5l0,0
		c0.1,0.3,0.1,0.6-0.1,0.9c-1.2,2.3-2.2,4.7-3.2,7.1c-1.2,3.2-2.7,6.2-4,9.3c-1.6,3.7-3.3,7.4-4.9,11.1c-0.5,0.9-1.2,0.4-1.7,0.6
		h-0.7c-0.8,0.1-1-0.2-0.7-0.9c0.7-2.1,1.5-4.1,2.2-6.2c2-5.7,4.1-11.4,6.1-17.1c0.9-2.4,2.5-6.1,3.4-8.5L47.5,9
		c-1.1-1.5-2.4-2.2-3.6-2c0.1,0.2,0.1,0.4,0,0.7C42.4,13,41,18.3,39.5,23.6c-0.7,2.3-1.2,4.6-1.8,6.9c-0.8,3.1-1.7,6.1-2.5,9.1
		c-0.3,1.2-1.2,0.7-1.8,0.8c-1.7,0.1-1.8,0-1.2-1.6c0.6-2.8,1.2-5.7,1.8-8.5c0.1-0.6,0.1-1.3,0.3-1.9c0.4-1.8,0.4-1.7,0.6-2.6
		c0.7-3.7,1.6-7.3,2.3-10.9c0.6-2.8,1.2-5.7,1.7-8.5c0.1-0.5,0.2-0.8,0.4-0.9l-0.1-0.1C37.6,5,36,5,34.3,5C35.1,4.7,35.4,5,35.3,6z"
		/>
	<g>
		<path class="st0" d="M35.7,47.4c7.2,0,14.5-0.1,21.7-0.1c0.4,0,1.1-0.2,1.3,0.3c0.2,0.4-0.2,0.8-0.5,1.2c-2.2,3.5-5,6.5-8.4,8.8
			c-3.2,2.2-6.8,3.7-10.7,4.5c-0.7,0.1-1.2-0.2-1.6-0.5c-4.1-3.3-8.1-6.6-12.1-9.9c-1.3-1.1-2.8-2.1-4-3.3c-0.2-0.2-0.7-0.3-0.5-0.7
			c0.1-0.3,0.5-0.1,0.8-0.1C26.4,47.4,31.1,47.4,35.7,47.4C35.7,47.3,35.7,47.4,35.7,47.4z"/>
		<g>
			<path class="st0" d="M14.8,32.9c0.7-0.1,1.4,0,1.9-0.3c1.1,0.1,1.1,0.1,1.1,0.8c-0.2,2.2-1,4.4-1.4,6.6c-0.3,1.4-0.7,2.7-1.1,4
				c-0.3,0.8-0.4,1.7-0.5,2.6c-0.1,1,0.8,1.7,1.3,2.4c2,2.8,4,5.5,5.9,8.4c0.7,1.1,1.7,2,2.3,3.5c-2.3-0.6-4.1-1.5-5.9-2.6
				c-5.6-3.4-9.5-8.1-12-14.2C4.7,39.8,4,35.2,4.5,30.6C5.4,22.2,9.4,15.5,16,10.4c5.3-4.1,11.4-6.1,18.1-5.9c0.9,0,1.3,0.3,1.1,1.3
				C34.1,13.4,33,21,31.8,28.6c-0.2,1.4,0,0-0.6,4.2c-0.6,4.4-0.6,4.4-0.9,6.6c-0.1,0.7-0.2,0.8-1,0.8c-5.6,0.1,0,0-5.6,0.1
				c-0.8,0-0.6-0.5-0.6-0.9c0.2-1.7,0.4-3.4,0.6-5c0.2-1.4,0.4-2.7,0.5-4.1c0.2-1.3,0.1-1.4-1.3-1.2c-1.5,0.2-2.9,0.5-4.4,0.5
				C16.6,29.9,15.5,30.9,14.8,32.9z"/>
			<path class="st0" d="M62.6,33.7c-0.1,4.3-1,8.4-2.8,12.2c-0.1,0.3-0.2,0.7-0.6,0.7c-0.4,0-0.3-0.5-0.4-0.8
				c-0.5-1.6-1.2-3.2-1.3-4.9c0-0.5-0.3-0.6-0.8-0.6c-3.5,0-2.5-0.1-3.8,0c-3.7,0-7.4,0-11.1,0c-0.8,0-1.2,0-0.6-1
				c1.7-2.9,3.4-5.8,4.8-8.8c1.7-3.7,4-7.1,5.7-10.9c0.8-1.7,1.8-3.4,2.8-5c0.3-0.6,0.6-0.5,1,0C60.1,20.1,62.5,26.5,62.6,33.7z"/>
			<path class="st0" d="M33.3,40.2c-1.7,0-1.8,0-1.4-1.6c0.6-2.8,1.2-5.7,1.8-8.5c0.1-0.6,0-0.6,0.3-1.9c0.6-2.6,0.4-1.7,0.6-2.6
				c0.7-3.6,1.5-7.3,2.3-10.9c0.6-2.8,1.2-5.7,1.7-8.5c0.2-1,0.6-1.2,1.4-0.9c1,0.3,2,0.6,2.9,0.9c0.7,0.2,1,0.6,0.7,1.3
				c-1.5,5.3-3,10.6-4.4,15.9c-0.6,2.3-1.2,4.6-1.8,6.9c-0.8,3-1.7,6-2.5,9.1C34.7,40.6,33.8,40.1,33.3,40.2z"/>
			<path class="st0" d="M37.9,40.2c-0.3,0-0.5,0-0.8,0c-0.7,0-0.9-0.2-0.7-0.9c0.8-2,1.5-4.1,2.2-6.2c2-5.7,4.1-11.4,6.1-17.1
				c0.9-2.4,1.7-4.7,2.6-7.1c0.2-0.5,0.5-0.7,1-0.3c1,0.7,2,1.4,3,2.1c0.6,0.4,0.6,0.8,0.3,1.4c-1.2,2.3-2.2,4.7-3.2,7.1
				c-1.3,3.1-2.8,6.1-4,9.3c-1.5,3.7-3.3,7.4-4.9,11.1C39.2,40.6,38.4,40.1,37.9,40.2z"/>
			<path class="st0" d="M34.3,62.4c-0.8,0.1-1.3-0.1-1.7-0.5c-3.6-3.5-7.2-7.1-10.9-10.6c-0.9-0.9-1.9-1.7-2.8-2.6
				c-0.4-0.4-1-0.9-0.6-1.3c0.4-0.5,1-0.1,1.5,0.3c5,4.6,10,9.2,15,13.7c0.2,0.2,0.7,0.4,0.4,0.7C34.9,62.6,34.4,62.4,34.3,62.4z"/>
			<path class="st0" d="M30,62.2c-1.7-0.1-3.1-0.3-4.1-1.6c-2.4-3.1-4.8-6.2-7.3-9.3c-0.8-1-1.5-2-2.3-2.9c-0.2-0.2-0.7-0.6-0.3-0.9
				c0.4-0.3,0.7,0.1,1,0.4c0.9,1,1.8,2,2.8,3c3.3,3.5,6.6,7.2,9.9,10.7C29.8,61.7,29.8,61.9,30,62.2z"/>
		</g>
	</g>
	<path class="st1" d="M33.5,3.1C16.7,3.1,3.1,16.7,3.1,33.5s13.6,30.4,30.4,30.4c0.3,0,0.7,0,1,0c15.3-0.5,27.8-12.3,29.3-27.3
		c0.1-1,0.2-2.1,0.2-3.1C63.9,16.7,50.3,3.1,33.5,3.1z M53.7,53.7c-5.8,5.8-13.5,8.6-21.1,8.3c-7-0.2-13.9-3-19.3-8.3
		c-11.1-11.1-11.1-29.2,0-40.4c11.1-11.1,29.2-11.1,40.4,0c5.9,5.9,8.6,13.8,8.3,21.5C61.7,41.7,58.9,48.4,53.7,53.7z"/>
</g>
</svg>
