<?xml version="1.0" encoding="utf-8"?>
<!-- Roman Inozemtsev: https://github.com/mir-one/  -->
<svg version="1.1"
	 id="Слой_1" image-rendering="optimizeQuality" shape-rendering="geometricPrecision" text-rendering="geometricPrecision"
	 xmlns="http://www.w3.org/2000/svg" xmlns:xlink="http://www.w3.org/1999/xlink" x="0px" y="0px" viewBox="0 0 256.7 32.2"
	 style="enable-background:new 0 0 256.7 32.2;" xml:space="preserve">
<style type="text/css">
	.st0{fill:#FFFFFF;}
	.st1{fill:#39B44A;}
	.st2{fill:#F9EE5D;}
</style>
<circle class="st0" cx="77.6" cy="16.1" r="10.3"/>
<g>
	<path class="st1" d="M67.4,16.3c0-0.1,0-0.2,0-0.3c0-0.1,0-0.2,0-0.2v0c0-0.6,0.1-1.1,0.2-1.7c0.2-0.9,0.5-1.7,0.9-2.5
		c0.5-1,1.2-2,2.1-2.8c0.9-0.8,1.9-1.5,3-2c1-0.4,2-0.7,3.1-0.8c0.5-0.1,1-0.1,1.4-0.1c0.6,0,1.1,0.1,1.7,0.2c1,0.2,1.9,0.5,2.8,1
		c1.3,0.7,2.4,1.6,3.3,2.8c0.7,0.9,1.2,1.8,1.6,2.9c0.2,0.6,0.4,1.3,0.5,1.9c0.1,0.3,0.1,0.7,0.1,1c0,0.1,0,0.2,0,0.2
		c0,0.1,0,0.2,0,0.3c0,0.1,0,0.2,0,0.2c0,0.2,0,0.5-0.1,0.7c-0.1,0.6-0.2,1.2-0.4,1.8c-0.5,1.8-1.5,3.3-2.8,4.6
		c-1.1,1-2.3,1.8-3.8,2.3c-0.6,0.2-1.2,0.3-1.9,0.4c-0.3,0.1-0.7,0.1-1,0.1c-0.1,0-0.2,0-0.2,0c-0.1,0-0.2,0-0.3,0
		c-0.1,0-0.2,0-0.2,0c-0.5,0-0.9-0.1-1.3-0.2c-1-0.2-2-0.5-2.9-0.9c-1.1-0.6-2.1-1.3-3-2.3c-0.9-1.1-1.7-2.3-2.1-3.6
		c-0.2-0.6-0.3-1.2-0.4-1.9c-0.1-0.3-0.1-0.7-0.1-1C67.4,16.5,67.4,16.4,67.4,16.3z M87.1,16.1c0-5.2-4.2-9.4-9.3-9.5
		c-5.3-0.1-9.5,4.2-9.5,9.3c-0.1,5.3,4.2,9.5,9.3,9.5C82.8,25.6,87.1,21.4,87.1,16.1z"/>
	<path class="st2" d="M67.4,15.7L67.4,15.7c0,0.1,0,0.2,0,0.3C67.4,15.9,67.4,15.8,67.4,15.7z"/>
	<path class="st2" d="M67.4,16.5C67.4,16.5,67.4,16.6,67.4,16.5c0-0.1,0-0.2,0-0.2C67.4,16.4,67.4,16.5,67.4,16.5z"/>
	<path class="st1" d="M77.7,25c-4.8,0-8.8-3.9-8.8-8.7c-0.1-4.9,3.9-8.9,8.7-9c4.9-0.1,8.9,3.9,9,8.7C86.6,21,82.6,25,77.7,25z
		 M78.5,9C78.5,9,78.5,9,78.5,9c0.4,1,0.6,2,0.7,2.9c0,0.6,0,1.3-0.1,1.9c-0.2,0.9-0.5,1.8-1,2.5c-0.4,0.6-0.7,1.3-0.9,1.9
		c-0.3,0.9-0.4,1.8-0.4,2.7c0,0.4,0,0.9,0.1,1.3c0,0.3,0.1,0.6,0.2,1c0,0,0,0.1,0.1,0.1c0.1,0,0.2,0,0.3,0c0.7,0,1.3-0.1,2-0.3
		c0.8-0.3,1.5-0.9,2.1-1.5c0.6-0.7,1.1-1.6,1.4-2.5c0.4-1.2,0.5-2.5,0.4-3.7c-0.1-0.7-0.2-1.3-0.4-2c-0.4-1.1-0.9-2.1-1.8-2.8
		c-0.5-0.5-1-0.9-1.7-1.1C79.1,9.2,78.8,9.1,78.5,9z M75.9,23C75.9,23,75.9,23,75.9,23c-0.1-0.7-0.2-1.4-0.2-2.1
		c0-0.6,0.1-1.2,0.2-1.8c0.2-1.2,0.6-2.2,1.3-3.2c0.5-0.8,0.8-1.7,0.9-2.7c0.1-0.6,0-1.2-0.1-1.8C78,10.6,77.7,9.8,77.4,9
		c0-0.1,0-0.1-0.1-0.1c-0.5,0-0.9,0.2-1.3,0.3c-0.8,0.3-1.5,0.9-2.1,1.5c-0.6,0.7-1.1,1.6-1.4,2.5c-0.3,1-0.5,2.1-0.4,3.2
		c0,0.6,0.1,1.2,0.3,1.8c0.2,0.9,0.6,1.8,1.2,2.6c0.5,0.7,1.1,1.3,1.9,1.8C75.6,22.8,75.7,22.9,75.9,23z"/>
	<path class="st2" d="M78.5,9c0.3,0.1,0.6,0.2,0.9,0.3c0.6,0.3,1.2,0.6,1.7,1.1c0.8,0.8,1.4,1.8,1.8,2.8c0.2,0.6,0.4,1.3,0.4,2
		c0.1,1.3,0,2.5-0.4,3.7c-0.3,0.9-0.8,1.7-1.4,2.5c-0.6,0.7-1.3,1.2-2.1,1.5c-0.6,0.2-1.3,0.4-2,0.3c-0.1,0-0.2,0-0.3,0
		c0,0-0.1,0-0.1-0.1c-0.1-0.3-0.1-0.6-0.2-1c-0.1-0.4-0.1-0.9-0.1-1.3c0-0.9,0.2-1.8,0.4-2.7c0.2-0.7,0.5-1.3,0.9-1.9
		c0.5-0.8,0.8-1.6,1-2.5c0.1-0.6,0.2-1.3,0.1-1.9C79.1,10.9,78.9,10,78.5,9C78.5,9,78.5,9,78.5,9z"/>
	<path class="st2" d="M75.9,23c-0.2-0.1-0.4-0.2-0.6-0.3c-0.8-0.4-1.4-1-1.9-1.8c-0.6-0.8-0.9-1.7-1.2-2.6c-0.2-0.6-0.2-1.2-0.3-1.8
		c-0.1-1.1,0.1-2.2,0.4-3.2c0.3-0.9,0.8-1.7,1.4-2.5c0.6-0.7,1.3-1.2,2.1-1.5C76.3,9.1,76.8,9,77.3,9c0.1,0,0.1,0,0.1,0.1
		c0.3,0.7,0.6,1.5,0.7,2.3c0.1,0.6,0.1,1.2,0.1,1.8c-0.1,0.9-0.4,1.8-0.9,2.7c-0.6,1-1,2.1-1.3,3.2c-0.1,0.6-0.2,1.2-0.2,1.8
		C75.8,21.6,75.8,22.3,75.9,23C75.9,23,75.9,23,75.9,23z"/>
</g>
<path class="st1" d="M89.4,16.1C89.4,16.2,89.4,16.2,89.4,16.1C89.4,16.2,89.4,16.1,89.4,16.1C89.4,16.1,89.4,16.1,89.4,16.1z"/>
<g>
	<path class="st1" d="M107.7,21.4c-0.5,0.2-1.5,0.5-2.8,0.5c-3.8,0-5.8-2.4-5.8-5.5c0-3.8,2.7-5.9,6-5.9c1.3,0,2.3,0.3,2.7,0.5
		l-0.5,2c-0.5-0.2-1.2-0.4-2.1-0.4c-2,0-3.5,1.2-3.5,3.6c0,2.2,1.3,3.6,3.5,3.6c0.8,0,1.6-0.2,2.1-0.4L107.7,21.4z"/>
	<path class="st1" d="M118.9,16c0,3.6-2.2,5.8-5.4,5.8c-3.3,0-5.2-2.5-5.2-5.6c0-3.3,2.1-5.8,5.4-5.8C117.1,10.5,118.9,13,118.9,16z
		 M110.9,16.2c0,2.2,1,3.7,2.7,3.7c1.7,0,2.6-1.6,2.6-3.7c0-2-0.9-3.7-2.7-3.7C111.9,12.4,110.9,14,110.9,16.2z"/>
	<path class="st1" d="M120.5,10.6h6.7v2H123v2.5h4v2h-4v4.4h-2.5V10.6z"/>
	<path class="st1" d="M129.1,10.6h6.7v2h-4.2v2.5h4v2h-4v4.4h-2.5V10.6z"/>
	<path class="st1" d="M144.2,17h-4.1v2.6h4.5v2h-7v-11h6.8v2h-4.3V15h4.1V17z"/>
	<path class="st1" d="M152.9,17h-4.1v2.6h4.5v2h-7v-11h6.8v2h-4.3V15h4.1V17z"/>
	<path class="st1" d="M163.2,21.4c-0.5,0.2-1.5,0.5-2.8,0.5c-3.8,0-5.8-2.4-5.8-5.5c0-3.8,2.7-5.9,6-5.9c1.3,0,2.3,0.3,2.7,0.5
		l-0.5,2c-0.5-0.2-1.2-0.4-2.1-0.4c-2,0-3.5,1.2-3.5,3.6c0,2.2,1.3,3.6,3.5,3.6c0.8,0,1.6-0.2,2.1-0.4L163.2,21.4z"/>
	<path class="st1" d="M174.4,16c0,3.6-2.2,5.8-5.4,5.8c-3.3,0-5.2-2.5-5.2-5.6c0-3.3,2.1-5.8,5.4-5.8C172.5,10.5,174.4,13,174.4,16z
		 M166.4,16.2c0,2.2,1,3.7,2.7,3.7c1.7,0,2.6-1.6,2.6-3.7c0-2-0.9-3.7-2.7-3.7C167.4,12.4,166.4,14,166.4,16.2z"/>
	<path class="st1" d="M178.5,10.6v11H176v-11H178.5z"/>
	<path class="st1" d="M180.6,21.7v-11h2.9l2.3,4c0.7,1.2,1.3,2.5,1.8,3.8h0c-0.2-1.5-0.2-2.9-0.2-4.6v-3.2h2.3v11h-2.6l-2.4-4.3
		c-0.7-1.2-1.4-2.6-1.9-3.9l0,0c0.1,1.5,0.1,3,0.1,4.8v3.3H180.6z"/>
</g>
</svg>
