<?xml version="1.0" encoding="utf-8"?>
<!-- Roman Inozemtsev: https://github.com/mir-one/  -->
<svg version="1.1"
	 id="Слой_1" shape-rendering="geometricPrecision" image-rendering="optimizeQuality" text-rendering="geometricPrecision"
	 xmlns="http://www.w3.org/2000/svg" xmlns:xlink="http://www.w3.org/1999/xlink" x="0px" y="0px" viewBox="0 0 103.3 103.5"
	 style="enable-background:new 0 0 103.3 103.5;" xml:space="preserve">
<style type="text/css">
	.st0{fill:#FFFFFF;}
	.st1{fill:url(#SVGID_1_);}
	.st2{fill:url(#SVGID_2_);}
	.st3{fill:#F7F8F9;}
</style>
<path class="st0" d="M51.7,3.9C25.3,3.9,3.9,25.3,3.9,51.6c0,26.4,21.4,47.7,47.7,47.7c0.5,0,1-0.1,1.5-0.1
	c24-0.8,43.5-19.2,45.9-42.8c0.2-1.6,0.2-3.2,0.2-4.9C99.4,25.3,78,3.9,51.7,3.9z M83.3,83.3c-9.1,9.1-21.1,13.4-33.1,13
	c-11-0.3-21.8-4.7-30.2-13C2.5,65.8,2.5,37.5,20,20C37.5,2.5,65.8,2.5,83.3,20c9.3,9.3,13.6,21.6,13,33.7
	C95.8,64.5,91.5,75.1,83.3,83.3z"/>
<linearGradient id="SVGID_1_" gradientUnits="userSpaceOnUse" x1="51.65" y1="-38.8343" x2="51.65" y2="144.0319">
	<stop  offset="0" style="stop-color:#00ADEE"/>
	<stop  offset="1" style="stop-color:#00A551"/>
</linearGradient>
<path class="st1" d="M51.7,0C23.1,0,0,23.1,0,51.6s23.1,51.7,51.7,51.7c1.8,0,3.6-0.1,5.3-0.3c23.3-2.4,41.9-20.2,45.6-43.1
	c0.4-2.7,0.7-5.5,0.7-8.3C103.3,23.1,80.2,0,51.7,0z M53.2,99.3c-0.5,0-1,0.1-1.5,0.1C25.3,99.4,3.9,78,3.9,51.6
	c0-26.3,21.4-47.7,47.7-47.7c26.3,0,47.7,21.4,47.7,47.7c0,1.6-0.1,3.3-0.2,4.9C96.7,80.1,77.2,98.5,53.2,99.3z"/>
<linearGradient id="SVGID_2_" gradientUnits="userSpaceOnUse" x1="51.6245" y1="-38.3191" x2="51.6245" y2="142.5327">
	<stop  offset="0" style="stop-color:#25A9E0"/>
	<stop  offset="1" style="stop-color:#00A551"/>
</linearGradient>
<path class="st2" d="M83.3,20C65.8,2.5,37.5,2.5,20,20C2.5,37.5,2.5,65.8,20,83.3c8.4,8.4,19.2,12.7,30.2,13
	c11.9,0.4,24-3.9,33.1-13c8.2-8.2,12.5-18.8,13-29.6C96.8,41.6,92.5,29.3,83.3,20z"/>
<path class="st3" d="M30.2,9c1.7-0.7,3.3-1.5,5-2.2c0.5-0.2,1-0.2,1.5-0.4c1.1-0.3,2.3-0.7,3.4-1c0.1,0,0.1,0,0.1,0
	c0.1,0.1,0.3,0,0.4-0.1c1.8-0.4,3.6-0.7,5.4-0.9c3-0.4,6-0.4,9-0.2c4.8,0.3,9.4,1.4,13.8,3.1c4.8,1.9,9.3,4.5,13.3,7.8
	c0.2,0.1,0.3,0.3,0.5,0.4c0,0,0,0,0,0c0.4,0.4,0.9,0.8,1.3,1.1c2.3,2.3,4.5,4.6,6.4,7.2c4.4,6.1,7.2,12.9,8.4,20.4
	c0.9,5.9,0.8,11.7-0.4,17.5c0,0.2,0,0.3-0.1,0.5c0,0,0,0,0,0c-0.3,1.2-0.6,2.3-1,3.5c0,0,0,0.1,0,0.1c-0.2,0.5-0.4,0.9-0.5,1.4
	c0,0,0,0,0,0c-0.1,0.3-0.2,0.6-0.4,0.9c0,0,0,0,0,0.1c-0.4,0.9-0.7,1.8-1.1,2.8l0,0c0,0,0,0,0,0c-0.3,0.5-0.5,1.1-0.8,1.6
	c0,0.1-0.1,0.1-0.1,0.2c-0.5,1-1.1,2-1.6,3c-0.1,0-0.1,0.1-0.1,0.2c-1.5,2.5-3.2,4.9-5.1,7c-4.7,5.4-10.3,9.5-16.8,12.4
	c-4.8,2.1-9.7,3.3-14.9,3.8c-1.7,0.2-3.5,0.1-5.2,0.2c-0.5,0-1,0-1.4-0.1c-0.1,0-0.2,0-0.3,0c-1.9-0.1-3.8-0.3-5.7-0.6
	c-0.9-0.1-1.8-0.4-2.7-0.6c-1.4-0.3-2.7-0.8-4.1-1.2c-0.7-0.3-1.4-0.5-2.2-0.8c-0.5-0.2-1.1-0.4-1.6-0.6c-1.2-0.6-2.4-1.2-3.6-1.7
	c0,0,0-0.1-0.1,0c-0.1-0.1-0.2-0.1-0.3-0.1c-0.1,0-0.2-0.1-0.2-0.1l0,0c-0.1-0.1-0.2-0.1-0.3-0.2c-0.1-0.2-0.3-0.2-0.5-0.3
	c-0.1-0.1-0.2-0.2-0.4-0.2c-0.1-0.1-0.3-0.1-0.4-0.2c-0.2-0.2-0.5-0.4-0.8-0.5c0,0-0.1,0-0.1-0.1c-0.3-0.2-0.7-0.4-1-0.7
	c0,0-0.1-0.1-0.1-0.1c-1.5-1.2-3.1-2.3-4.5-3.5c-5.2-4.5-9.2-9.9-12.2-16.1c-0.4-0.9-0.8-1.9-1.2-2.8c-0.5-0.5-0.2-1.3-0.6-1.8
	c-0.7-2.1-1.3-4.3-1.7-6.5c0-0.1,0-0.2,0-0.3c0-0.1-0.1-0.2-0.1-0.3c0.1-0.4-0.1-0.8-0.2-1.2c0-0.1,0-0.2,0-0.3c0-0.1,0-0.2-0.1-0.2
	c0-0.4,0-0.8-0.2-1.2c-0.1-0.8-0.1-1.5-0.2-2.3c0-0.1,0-0.2,0-0.3c0-1.2-0.1-2.4-0.1-3.6c0-0.1,0-0.2,0-0.3C4,50,4,49.4,4,48.8
	c0-0.1,0-0.3,0-0.4c0,0,0-0.1,0-0.1c0-0.2,0-0.4,0-0.6c0,0,0.1-0.1,0-0.1c0,0,0,0,0,0c0.1-0.1,0.1-0.3,0.1-0.5c0-0.1,0-0.1,0-0.2
	c0,0,0-0.1,0-0.1c0-0.1,0-0.2,0-0.3c0-0.1,0-0.2,0-0.3c0.2-0.4,0.1-0.8,0.2-1.3c0.4-2.3,0.8-4.5,1.5-6.7c1.8-6.1,4.7-11.7,8.7-16.6
	c0.1-0.1,0.2-0.2,0.2-0.4l0,0c0.8-0.9,1.6-1.8,2.4-2.7c1.3-1.2,2.7-2.5,4-3.7c0.2-0.1,0.4-0.2,0.5-0.4c0.6-0.4,1.2-0.7,1.6-1.3
	c0.3-0.2,0.6-0.3,0.9-0.5c0.8-0.6,1.7-1.1,2.5-1.7c0.4-0.1,0.7-0.3,1-0.6c0.7-0.4,1.4-0.8,2.1-1.1C29.9,9.2,30.1,9.1,30.2,9z
	 M19.8,23.1c-0.2,0.2-0.4,0.4-0.5,0.5c-5.6,6.5-9,14-10.1,22.5c-0.6,4.5-0.5,9,0.4,13.5c1.5,7.6,4.8,14.3,9.8,20.2
	c0.3,0.4,0.5,0.4,0.9,0c9.2-9.2,18.4-18.4,27.6-27.6c0.4-0.4,0.5-0.7,0-1.2c-4.6-4.6-9.2-9.1-13.7-13.7c-4.6-4.6-9.3-9.3-13.9-13.9
	C20.1,23.3,19.9,23.2,19.8,23.1z M94.5,52.6c0-3.7-0.2-6.3-0.8-9C92.3,36.1,89,29.4,84,23.5c-0.3-0.4-0.5-0.4-0.9,0
	c-2.4,2.4-4.8,4.8-7.2,7.3c-6.8,6.8-13.6,13.6-20.4,20.4c-0.3,0.3-0.6,0.4-0.1,0.9c9.3,9.3,18.6,18.5,27.8,27.8
	c0.3,0.3,0.5,0.3,0.8,0C90.9,71.7,94.4,62.3,94.5,52.6z M49.2,45.9c0.1-0.2,0.1-0.2,0.1-0.3c0-4.9,0-9.8,0-14.7
	c0-0.3-0.1-0.4-0.3-0.6c-5.5-5.5-11-11-16.5-16.5c-0.2-0.2-0.4-0.3-0.7-0.1c-3,1.6-5.7,3.5-8.3,5.6c-0.5,0.4-0.4,0.6,0,1
	c6.4,6.3,12.7,12.7,19.1,19C44.8,41.5,46.9,43.7,49.2,45.9z M53.9,46c0.1,0,0.1,0.1,0.2,0.1c0.1-0.1,0.2-0.3,0.3-0.4
	c8.5-8.5,17-17,25.5-25.5c0.4-0.4,0.3-0.6,0-0.9c-2.5-2.1-5.2-4-8.1-5.5c-0.4-0.2-0.6-0.1-1,0.2c-5.5,5.5-11,11-16.4,16.4
	c-0.3,0.3-0.5,0.6-0.5,1.1c0,4.6,0,9.3,0,13.9C53.9,45.6,53.9,45.8,53.9,46z M49.3,57.4c-0.2,0.2-0.3,0.3-0.4,0.4
	c-8.5,8.5-16.9,16.9-25.4,25.4c-0.3,0.3-0.4,0.5,0,0.8c2.5,2.1,5.2,4,8.1,5.6c0.3,0.2,0.5,0.1,0.8-0.1c5.5-5.5,11.1-11.1,16.6-16.6
	c0.2-0.2,0.3-0.4,0.3-0.7C49.3,67.2,49.3,62.4,49.3,57.4z M54,57.2c-0.1,0.2-0.1,0.3-0.1,0.3c0,4.8,0,9.5,0,14.3
	c0,0.3,0.2,0.5,0.4,0.7c5.6,5.6,11.1,11.1,16.7,16.7c0.3,0.3,0.6,0.4,1,0.2c2.7-1.5,5.3-3.3,7.7-5.3c0.5-0.5,0.5-0.7,0-1.2
	c-7.1-7-14.1-14.1-21.2-21.2C57,60.3,55.5,58.7,54,57.2z M53.9,78.9C53.9,79,53.9,79,53.9,78.9c0,5.1,0,10.1,0,15
	c0,0.4,0.2,0.4,0.5,0.4c2.3-0.1,4.5-0.5,6.8-1c1.9-0.4,3.8-1,5.6-1.7C62.5,87.5,58.2,83.2,53.9,78.9z M66.6,11.5
	c-0.1,0-0.1-0.1-0.2-0.1c-3.8-1.4-7.7-2.2-11.8-2.5c-0.6,0-0.7,0.1-0.7,0.6c0,4.7,0,9.4,0,14.1c0,0.2-0.1,0.4,0,0.5
	C58.2,19.9,62.4,15.7,66.6,11.5z M49.3,79.2c-4.2,4.2-8.4,8.4-12.5,12.6c0,0,0,0,0.1,0.1c3.7,1.4,7.6,2.2,11.5,2.5
	c0.9,0.1,0.9,0,0.9-0.9c0-4.3,0-8.6,0-12.9C49.3,80.1,49.3,79.6,49.3,79.2z M49.2,23.8C49.2,23.7,49.3,23.7,49.2,23.8
	c0.1-4.9,0.1-9.7,0.1-14.5c0-0.4-0.1-0.4-0.5-0.4c-2.2,0.1-4.4,0.5-6.6,1c-1.8,0.4-3.6,0.9-5.3,1.6C41,15.6,45.1,19.7,49.2,23.8z"/>
</svg>
