<?xml version="1.0" encoding="utf-8"?>
<!-- Roman Inozemtsev: https://github.com/mir-one/  -->
<svg version="1.1"
	 id="Слой_1" shape-rendering="geometricPrecision" image-rendering="optimizeQuality" text-rendering="geometricPrecision"
	 xmlns="http://www.w3.org/2000/svg" xmlns:xlink="http://www.w3.org/1999/xlink" x="0px" y="0px" viewBox="0 0 256.7 32.2"
	 style="enable-background:new 0 0 256.7 32.2;" xml:space="preserve">
<style type="text/css">
	.st0{fill:#FFFFFF;}
	.st1{fill:url(#SVGID_1_);}
	.st2{fill:url(#SVGID_2_);}
	.st3{fill:#F7F8F9;}
	.st4{fill:#545454;}
</style>
<path class="st0" d="M88.8,8c-4.4,0-8,3.6-8,8s3.6,8,8,8c0.1,0,0.2,0,0.3,0c4-0.1,7.3-3.2,7.7-7.1c0-0.3,0-0.5,0-0.8
	C96.7,11.6,93.2,8,88.8,8z M94.1,21.2c-1.5,1.5-3.5,2.2-5.5,2.2c-1.8-0.1-3.6-0.8-5-2.2c-2.9-2.9-2.9-7.6,0-10.5s7.6-2.9,10.5,0
	c1.5,1.5,2.3,3.6,2.2,5.6C96.1,18.1,95.4,19.9,94.1,21.2z"/>
<linearGradient id="SVGID_1_" gradientUnits="userSpaceOnUse" x1="88.8" y1="33.1129" x2="88.8" y2="2.6292" gradientTransform="matrix(1 0 0 -1 0 34)">
	<stop  offset="0" style="stop-color:#00ADEE"/>
	<stop  offset="1" style="stop-color:#00A551"/>
</linearGradient>
<path class="st1" d="M88.8,7.4c-4.8,0-8.6,3.9-8.6,8.6s3.9,8.6,8.6,8.6c0.3,0,0.6,0,0.9,0c3.9-0.4,7-3.4,7.6-7.2
	c0.1-0.5,0.1-0.9,0.1-1.4C97.4,11.2,93.5,7.4,88.8,7.4z M89,23.9c-0.1,0-0.2,0-0.3,0c-4.4,0-8-3.6-8-8s3.6-8,8-8s8,3.6,8,8
	c0,0.3,0,0.5,0,0.8C96.3,20.7,93,23.8,89,23.9z"/>
<linearGradient id="SVGID_2_" gradientUnits="userSpaceOnUse" x1="88.8625" y1="33.027" x2="88.8625" y2="2.8791" gradientTransform="matrix(1 0 0 -1 0 34)">
	<stop  offset="0" style="stop-color:#25A9E0"/>
	<stop  offset="1" style="stop-color:#00A551"/>
</linearGradient>
<path class="st2" d="M94.1,10.7c-2.9-2.9-7.6-2.9-10.5,0s-2.9,7.6,0,10.5c1.4,1.4,3.2,2.1,5,2.2c2,0.1,4-0.7,5.5-2.2
	c1.4-1.4,2.1-3.1,2.2-4.9C96.3,14.3,95.6,12.2,94.1,10.7z"/>
<path class="st3" d="M85.2,8.9c0.3-0.1,0.6-0.3,0.8-0.4c0.1,0,0.2,0,0.2-0.1c0.2-0.1,0.4-0.1,0.6-0.2l0,0c0,0,0,0,0.1,0
	c0.3-0.1,0.6-0.1,0.9-0.1c0.5-0.1,1-0.1,1.5,0c0.8,0.1,1.6,0.2,2.3,0.5c0.8,0.3,1.5,0.7,2.2,1.3c0,0,0.1,0,0.1,0.1l0,0
	c0.1,0.1,0.1,0.1,0.2,0.2c0.4,0.4,0.7,0.8,1.1,1.2c0.7,1,1.2,2.2,1.4,3.4c0.2,1,0.1,1.9-0.1,2.9v0.1l0,0c-0.1,0.2-0.1,0.4-0.2,0.6
	l0,0c0,0.1-0.1,0.2-0.1,0.2l0,0c0,0.1,0,0.1-0.1,0.2l0,0C96,19,96,19.1,95.9,19.3l0,0l0,0c0,0.1-0.1,0.2-0.1,0.3l0,0
	c-0.1,0.2-0.2,0.3-0.3,0.5l0,0c-0.3,0.4-0.5,0.8-0.9,1.2c-0.8,0.9-1.7,1.6-2.8,2.1C91,23.7,90.2,24,89.3,24c-0.3,0-0.6,0-0.9,0
	c-0.1,0-0.2,0-0.2,0l0,0c-0.3,0-0.6,0-0.9-0.1c-0.2,0-0.3-0.1-0.5-0.1s-0.5-0.1-0.7-0.2c-0.1,0-0.2-0.1-0.4-0.1
	c-0.1,0-0.2-0.1-0.3-0.1c-0.2-0.1-0.4-0.2-0.6-0.3l0,0l0,0l0,0l0,0l0,0h-0.1c0,0,0,0-0.1,0c0,0,0,0-0.1,0L84.4,23l0,0
	c-0.1,0-0.1-0.1-0.2-0.1l0,0c-0.3-0.2-0.5-0.4-0.8-0.6c-0.9-0.8-1.5-1.6-2-2.7c-0.1-0.2-0.1-0.3-0.2-0.5c-0.1-0.1,0-0.2-0.1-0.3
	c-0.1-0.4-0.2-0.7-0.3-1.1l0,0l0,0c0-0.1,0-0.1,0-0.2l0,0l0,0c0-0.1,0-0.1,0-0.2s0-0.3,0-0.4l0,0c0-0.2,0-0.4,0-0.6c0,0,0,0,0-0.1
	s0-0.2,0-0.3c0,0,0,0,0-0.1l0,0v-0.1l0,0l0,0v-0.1l0,0l0,0l0,0l0,0c0-0.1,0-0.1,0-0.2c0.1-0.4,0.1-0.8,0.2-1.1
	c0.3-1,0.8-1.9,1.5-2.8c0,0,0,0,0-0.1l0,0c0.1-0.1,0.3-0.3,0.4-0.4c0.2-0.2,0.4-0.4,0.7-0.6c0,0,0.1,0,0.1-0.1
	c0.1-0.1,0.2-0.1,0.3-0.2l0.1-0.1c0.1-0.1,0.3-0.2,0.4-0.3c0.1,0,0.1-0.1,0.2-0.1C84.9,9,85,9,85.2,8.9L85.2,8.9z M83.5,11.2
	C83.4,11.2,83.4,11.3,83.5,11.2c-1,1.2-1.6,2.4-1.8,3.8c-0.1,0.8-0.1,1.5,0.1,2.2c0.2,1.3,0.8,2.4,1.6,3.4c0.1,0.1,0.1,0.1,0.2,0
	c1.5-1.5,3.1-3.1,4.6-4.6c0.1-0.1,0.1-0.1,0-0.2c-0.8-0.8-1.5-1.5-2.3-2.3C85.1,12.8,84.3,12,83.5,11.2
	C83.5,11.3,83.5,11.2,83.5,11.2z M95.9,16.1c0-0.6,0-1.1-0.1-1.5c-0.2-1.3-0.8-2.4-1.6-3.4c-0.1-0.1-0.1-0.1-0.1,0
	c-0.4,0.4-0.8,0.8-1.2,1.2c-1.1,1.1-2.3,2.3-3.4,3.4c0,0-0.1,0.1,0,0.1c1.5,1.5,3.1,3.1,4.6,4.6c0.1,0.1,0.1,0.1,0.1,0
	C95.3,19.3,95.9,17.7,95.9,16.1z M88.4,15L88.4,15c0-0.9,0-1.7,0-2.5v-0.1c-0.9-0.9-1.8-1.8-2.7-2.7h-0.1c-0.5,0.3-1,0.6-1.4,0.9
	c-0.1,0.1-0.1,0.1,0,0.2c1.1,1.1,2.1,2.1,3.2,3.2C87.6,14.3,88,14.6,88.4,15z M89.2,15L89.2,15L89.2,15c1.5-1.5,2.9-2.9,4.3-4.3
	c0.1-0.1,0.1-0.1,0-0.1c-0.4-0.4-0.9-0.7-1.3-0.9c-0.1,0-0.1,0-0.2,0c-0.9,0.9-1.8,1.8-2.7,2.7c-0.1,0.1-0.1,0.1-0.1,0.2
	C89.2,13.4,89.2,14.2,89.2,15L89.2,15z M88.4,16.9C88.3,17,88.3,17,88.4,16.9c-1.5,1.5-2.9,2.9-4.3,4.3c-0.1,0.1-0.1,0.1,0,0.1
	c0.4,0.4,0.9,0.7,1.4,0.9c0.1,0,0.1,0,0.1,0c0.9-0.9,1.8-1.8,2.8-2.8l0.1-0.1C88.4,18.6,88.4,17.8,88.4,16.9z M89.2,16.9L89.2,16.9
	c0,0.9,0,1.6,0,2.4c0,0.1,0,0.1,0.1,0.1c0.9,0.9,1.9,1.9,2.8,2.8c0.1,0.1,0.1,0.1,0.2,0c0.5-0.3,0.9-0.5,1.3-0.9
	c0.1-0.1,0.1-0.1,0-0.2c-1.2-1.2-2.4-2.4-3.5-3.5C89.7,17.4,89.4,17.2,89.2,16.9z M89.2,20.5L89.2,20.5c0,0.8,0,1.7,0,2.5
	c0,0.1,0,0.1,0.1,0.1c0.4,0,0.8-0.1,1.1-0.2c0.3-0.1,0.6-0.2,0.9-0.3C90.6,21.9,89.9,21.2,89.2,20.5z M91.3,9.3
	C91.3,9.3,91.2,9.3,91.3,9.3c-0.7-0.2-1.3-0.4-2-0.4c-0.1,0-0.1,0-0.1,0.1c0,0.8,0,1.6,0,2.3v0.1C89.9,10.7,90.6,10,91.3,9.3z
	 M88.4,20.6c-0.7,0.7-1.4,1.4-2.1,2.1l0,0c0.6,0.2,1.3,0.4,1.9,0.4c0.1,0,0.2,0,0.2-0.1c0-0.7,0-1.4,0-2.2
	C88.4,20.7,88.4,20.6,88.4,20.6z M88.4,11.3L88.4,11.3c0-0.8,0-1.6,0-2.4c0-0.1,0-0.1-0.1-0.1c-0.4,0-0.7,0.1-1.1,0.2
	c-0.3,0.1-0.6,0.2-0.9,0.3C87,10,87.7,10.6,88.4,11.3z"/>
<g>
	<path class="st4" d="M103.1,12.1h4.4V13h-3.3v2.7h3.1v0.9h-3.1v3.7h-1V12.1z"/>
	<path class="st4" d="M113.8,17.3c0,2.1-1.5,3.1-2.9,3.1c-1.6,0-2.8-1.2-2.8-3c0-1.9,1.3-3.1,2.9-3.1
		C112.7,14.3,113.8,15.5,113.8,17.3z M109.2,17.3c0,1.3,0.7,2.2,1.8,2.2c1,0,1.8-0.9,1.8-2.3c0-1-0.5-2.2-1.7-2.2
		C109.8,15.1,109.2,16.2,109.2,17.3z"/>
	<path class="st4" d="M115.2,16.2c0-0.7,0-1.3,0-1.8h0.9l0,1.1h0c0.3-0.8,0.9-1.3,1.6-1.3c0.1,0,0.2,0,0.3,0v1c-0.1,0-0.2,0-0.4,0
		c-0.7,0-1.3,0.6-1.4,1.4c0,0.1,0,0.3,0,0.5v3.1h-1V16.2z"/>
	<path class="st4" d="M119.5,17.5c0,1.4,0.9,2,2,2c0.8,0,1.2-0.1,1.6-0.3l0.2,0.8c-0.4,0.2-1,0.4-1.9,0.4c-1.8,0-2.9-1.2-2.9-2.9
		c0-1.8,1-3.1,2.7-3.1c1.9,0,2.4,1.7,2.4,2.7c0,0.2,0,0.4,0,0.5H119.5z M122.6,16.8c0-0.7-0.3-1.7-1.5-1.7c-1.1,0-1.5,1-1.6,1.7
		H122.6z"/>
	<path class="st4" d="M124.8,19.1c0.3,0.2,0.9,0.4,1.4,0.4c0.8,0,1.1-0.4,1.1-0.9c0-0.5-0.3-0.8-1.1-1.1c-1-0.4-1.5-0.9-1.5-1.6
		c0-0.9,0.8-1.7,2-1.7c0.6,0,1.1,0.2,1.4,0.4l-0.3,0.8c-0.2-0.1-0.6-0.3-1.2-0.3c-0.6,0-1,0.4-1,0.8c0,0.5,0.3,0.7,1.1,1
		c1,0.4,1.5,0.9,1.5,1.8c0,1-0.8,1.7-2.2,1.7c-0.6,0-1.2-0.2-1.6-0.4L124.8,19.1z"/>
	<path class="st4" d="M131,12.8v1.7h1.5v0.8H131v3.1c0,0.7,0.2,1.1,0.8,1.1c0.3,0,0.5,0,0.6-0.1l0,0.8c-0.2,0.1-0.5,0.1-0.9,0.1
		c-0.5,0-0.9-0.2-1.1-0.4c-0.3-0.3-0.4-0.8-0.4-1.5v-3.2h-0.9v-0.8h0.9V13L131,12.8z"/>
	<path class="st4" d="M136.3,12.2c0.5-0.1,1.2-0.2,2-0.2c1,0,1.8,0.2,2.3,0.7c0.4,0.4,0.7,1,0.7,1.7c0,0.7-0.2,1.3-0.6,1.7
		c-0.6,0.6-1.5,0.9-2.5,0.9c-0.3,0-0.6,0-0.8-0.1v3.2h-1V12.2z M137.3,16.1c0.2,0.1,0.5,0.1,0.9,0.1c1.3,0,2-0.6,2-1.7
		c0-1.1-0.8-1.6-1.9-1.6c-0.5,0-0.8,0-1,0.1V16.1z"/>
	<path class="st4" d="M142.6,11.7h1.1v8.5h-1.1V11.7z"/>
	<path class="st4" d="M148.6,20.2l-0.1-0.7h0c-0.3,0.5-0.9,0.9-1.8,0.9c-1.2,0-1.8-0.8-1.8-1.7c0-1.4,1.2-2.2,3.5-2.2v-0.1
		c0-0.5-0.1-1.3-1.3-1.3c-0.5,0-1.1,0.2-1.5,0.4l-0.2-0.7c0.5-0.3,1.2-0.5,1.9-0.5c1.8,0,2.2,1.2,2.2,2.4v2.2c0,0.5,0,1,0.1,1.4
		H148.6z M148.4,17.3c-1.2,0-2.5,0.2-2.5,1.3c0,0.7,0.5,1,1,1c0.8,0,1.2-0.5,1.4-1c0-0.1,0.1-0.2,0.1-0.3V17.3z"/>
	<path class="st4" d="M152.4,12.8v1.7h1.5v0.8h-1.5v3.1c0,0.7,0.2,1.1,0.8,1.1c0.3,0,0.5,0,0.6-0.1l0,0.8c-0.2,0.1-0.5,0.1-0.9,0.1
		c-0.5,0-0.9-0.2-1.1-0.4c-0.3-0.3-0.4-0.8-0.4-1.5v-3.2h-0.9v-0.8h0.9V13L152.4,12.8z"/>
	<path class="st4" d="M155.2,20.2v-5h-0.8v-0.8h0.8v-0.3c0-0.8,0.2-1.6,0.7-2c0.4-0.4,0.9-0.5,1.4-0.5c0.4,0,0.7,0.1,0.9,0.2
		l-0.1,0.8c-0.2-0.1-0.4-0.1-0.7-0.1c-0.9,0-1.1,0.8-1.1,1.7v0.3h1.4v0.8h-1.4v5H155.2z"/>
	<path class="st4" d="M163.7,17.3c0,2.1-1.5,3.1-2.9,3.1c-1.6,0-2.8-1.2-2.8-3c0-1.9,1.3-3.1,2.9-3.1
		C162.6,14.3,163.7,15.5,163.7,17.3z M159.1,17.3c0,1.3,0.7,2.2,1.8,2.2c1,0,1.8-0.9,1.8-2.3c0-1-0.5-2.2-1.7-2.2
		C159.6,15.1,159.1,16.2,159.1,17.3z"/>
	<path class="st4" d="M165,16.2c0-0.7,0-1.3,0-1.8h0.9l0,1.1h0c0.3-0.8,0.9-1.3,1.6-1.3c0.1,0,0.2,0,0.3,0v1c-0.1,0-0.2,0-0.4,0
		c-0.7,0-1.3,0.6-1.4,1.4c0,0.1,0,0.3,0,0.5v3.1h-1V16.2z"/>
	<path class="st4" d="M169,16c0-0.6,0-1.1,0-1.6h0.9l0,0.9h0c0.3-0.6,0.9-1.1,1.8-1.1c0.8,0,1.4,0.5,1.6,1.2h0
		c0.2-0.3,0.4-0.6,0.6-0.8c0.3-0.3,0.7-0.4,1.3-0.4c0.8,0,1.9,0.5,1.9,2.5v3.4h-1v-3.3c0-1.1-0.4-1.8-1.3-1.8c-0.6,0-1.1,0.4-1.2,1
		c0,0.1-0.1,0.3-0.1,0.5v3.6h-1v-3.5c0-0.9-0.4-1.6-1.2-1.6c-0.7,0-1.1,0.5-1.3,1.1c-0.1,0.2-0.1,0.3-0.1,0.5v3.5h-1V16z"/>
</g>
</svg>
