<?xml version="1.0" encoding="utf-8"?>
<!-- Roman Inozemtsev: https://github.com/mir-one/  -->
<svg version="1.1"
	 id="Слой_1" shape-rendering="geometricPrecision" image-rendering="optimizeQuality" text-rendering="geometricPrecision"
	 xmlns="http://www.w3.org/2000/svg" xmlns:xlink="http://www.w3.org/1999/xlink" x="0px" y="0px" viewBox="0 0 256.7 32.2"
	 style="enable-background:new 0 0 256.7 32.2;" xml:space="preserve">
<style type="text/css">
	.st0{fill:#FFFFFF;}
	.st1{fill:url(#SVGID_1_);}
	.st2{fill:url(#SVGID_2_);}
	.st3{fill:#F7F8F9;}
	.st4{fill:#545454;}
</style>
<path class="st0" d="M90.8,9c-4.4,0-8,3.6-8,8s3.6,8,8,8c0.1,0,0.2,0,0.3,0c4-0.1,7.3-3.2,7.7-7.1c0-0.3,0-0.5,0-0.8
	C98.7,12.6,95.2,9,90.8,9z M96.1,22.2c-1.5,1.5-3.5,2.2-5.5,2.2c-1.8-0.1-3.6-0.8-5-2.2c-2.9-2.9-2.9-7.6,0-10.5s7.6-2.9,10.5,0
	c1.5,1.5,2.3,3.6,2.2,5.6C98.1,19.1,97.4,20.9,96.1,22.2z"/>
<linearGradient id="SVGID_1_" gradientUnits="userSpaceOnUse" x1="90.8" y1="32.1129" x2="90.8" y2="1.6292" gradientTransform="matrix(1 0 0 -1 0 34)">
	<stop  offset="0" style="stop-color:#00ADEE"/>
	<stop  offset="1" style="stop-color:#00A551"/>
</linearGradient>
<path class="st1" d="M90.8,8.4c-4.8,0-8.6,3.9-8.6,8.6s3.9,8.6,8.6,8.6c0.3,0,0.6,0,0.9,0c3.9-0.4,7-3.4,7.6-7.2
	c0.1-0.5,0.1-0.9,0.1-1.4C99.4,12.2,95.5,8.4,90.8,8.4z M91,24.9c-0.1,0-0.2,0-0.3,0c-4.4,0-8-3.6-8-8s3.6-8,8-8s8,3.6,8,8
	c0,0.3,0,0.5,0,0.8C98.3,21.7,95,24.8,91,24.9z"/>
<linearGradient id="SVGID_2_" gradientUnits="userSpaceOnUse" x1="90.8625" y1="32.027" x2="90.8625" y2="1.8791" gradientTransform="matrix(1 0 0 -1 0 34)">
	<stop  offset="0" style="stop-color:#25A9E0"/>
	<stop  offset="1" style="stop-color:#00A551"/>
</linearGradient>
<path class="st2" d="M96.1,11.7c-2.9-2.9-7.6-2.9-10.5,0s-2.9,7.6,0,10.5c1.4,1.4,3.2,2.1,5,2.2c2,0.1,4-0.7,5.5-2.2
	c1.4-1.4,2.1-3.1,2.2-4.9C98.3,15.3,97.6,13.2,96.1,11.7z"/>
<path class="st3" d="M87.2,9.9c0.3-0.1,0.6-0.3,0.8-0.4c0.1,0,0.2,0,0.2-0.1c0.2-0.1,0.4-0.1,0.6-0.2l0,0c0,0,0,0,0.1,0
	c0.3-0.1,0.6-0.1,0.9-0.1c0.5-0.1,1-0.1,1.5,0c0.8,0.1,1.6,0.2,2.3,0.5c0.8,0.3,1.5,0.7,2.2,1.3c0,0,0.1,0,0.1,0.1l0,0
	c0.1,0.1,0.1,0.1,0.2,0.2c0.4,0.4,0.7,0.8,1.1,1.2c0.7,1,1.2,2.2,1.4,3.4c0.2,1,0.1,1.9-0.1,2.9v0.1l0,0c-0.1,0.2-0.1,0.4-0.2,0.6
	l0,0c0,0.1-0.1,0.2-0.1,0.2l0,0c0,0.1,0,0.1-0.1,0.2l0,0C98,20,98,20.1,97.9,20.3l0,0l0,0c0,0.1-0.1,0.2-0.1,0.3l0,0
	c-0.1,0.2-0.2,0.3-0.3,0.5l0,0c-0.3,0.4-0.5,0.8-0.9,1.2c-0.8,0.9-1.7,1.6-2.8,2.1C93,24.7,92.2,25,91.3,25c-0.3,0-0.6,0-0.9,0
	c-0.1,0-0.2,0-0.2,0l0,0c-0.3,0-0.6,0-0.9-0.1c-0.2,0-0.3-0.1-0.5-0.1s-0.5-0.1-0.7-0.2c-0.1,0-0.2-0.1-0.4-0.1
	c-0.1,0-0.2-0.1-0.3-0.1c-0.2-0.1-0.4-0.2-0.6-0.3l0,0l0,0l0,0l0,0l0,0h-0.1c0,0,0,0-0.1,0c0,0,0,0-0.1,0L86.4,24l0,0
	c-0.1,0-0.1-0.1-0.2-0.1l0,0c-0.3-0.2-0.5-0.4-0.8-0.6c-0.9-0.8-1.5-1.6-2-2.7c-0.1-0.2-0.1-0.3-0.2-0.5c-0.1-0.1,0-0.2-0.1-0.3
	c-0.1-0.4-0.2-0.7-0.3-1.1l0,0l0,0c0-0.1,0-0.1,0-0.2l0,0l0,0c0-0.1,0-0.1,0-0.2s0-0.3,0-0.4l0,0c0-0.2,0-0.4,0-0.6c0,0,0,0,0-0.1
	s0-0.2,0-0.3c0,0,0,0,0-0.1l0,0v-0.1l0,0l0,0v-0.1l0,0l0,0l0,0l0,0c0-0.1,0-0.1,0-0.2c0.1-0.4,0.1-0.8,0.2-1.1
	c0.3-1,0.8-1.9,1.5-2.8c0,0,0,0,0-0.1l0,0c0.1-0.1,0.3-0.3,0.4-0.4c0.2-0.2,0.4-0.4,0.7-0.6c0,0,0.1,0,0.1-0.1
	c0.1-0.1,0.2-0.1,0.3-0.2l0.1-0.1c0.1-0.1,0.3-0.2,0.4-0.3c0.1,0,0.1-0.1,0.2-0.1C86.9,10,87,10,87.2,9.9L87.2,9.9z M85.5,12.2
	C85.4,12.2,85.4,12.3,85.5,12.2c-1,1.2-1.6,2.4-1.8,3.8c-0.1,0.8-0.1,1.5,0.1,2.2c0.2,1.3,0.8,2.4,1.6,3.4c0.1,0.1,0.1,0.1,0.2,0
	c1.5-1.5,3.1-3.1,4.6-4.6c0.1-0.1,0.1-0.1,0-0.2c-0.8-0.8-1.5-1.5-2.3-2.3C87.1,13.8,86.3,13,85.5,12.2
	C85.5,12.3,85.5,12.2,85.5,12.2z M97.9,17.1c0-0.6,0-1.1-0.1-1.5c-0.2-1.3-0.8-2.4-1.6-3.4c-0.1-0.1-0.1-0.1-0.1,0
	c-0.4,0.4-0.8,0.8-1.2,1.2c-1.1,1.1-2.3,2.3-3.4,3.4c0,0-0.1,0.1,0,0.1c1.5,1.5,3.1,3.1,4.6,4.6c0.1,0.1,0.1,0.1,0.1,0
	C97.3,20.3,97.9,18.7,97.9,17.1z M90.4,16L90.4,16c0-0.9,0-1.7,0-2.5v-0.1c-0.9-0.9-1.8-1.8-2.7-2.7h-0.1c-0.5,0.3-1,0.6-1.4,0.9
	c-0.1,0.1-0.1,0.1,0,0.2c1.1,1.1,2.1,2.1,3.2,3.2C89.6,15.3,90,15.6,90.4,16z M91.2,16L91.2,16L91.2,16c1.5-1.5,2.9-2.9,4.3-4.3
	c0.1-0.1,0.1-0.1,0-0.1c-0.4-0.4-0.9-0.7-1.3-0.9c-0.1,0-0.1,0-0.2,0c-0.9,0.9-1.8,1.8-2.7,2.7c-0.1,0.1-0.1,0.1-0.1,0.2
	C91.2,14.4,91.2,15.2,91.2,16L91.2,16z M90.4,17.9C90.3,18,90.3,18,90.4,17.9c-1.5,1.5-2.9,2.9-4.3,4.3c-0.1,0.1-0.1,0.1,0,0.1
	c0.4,0.4,0.9,0.7,1.4,0.9c0.1,0,0.1,0,0.1,0c0.9-0.9,1.8-1.8,2.8-2.8l0.1-0.1C90.4,19.6,90.4,18.8,90.4,17.9z M91.2,17.9L91.2,17.9
	c0,0.9,0,1.6,0,2.4c0,0.1,0,0.1,0.1,0.1c0.9,0.9,1.9,1.9,2.8,2.8c0.1,0.1,0.1,0.1,0.2,0c0.5-0.3,0.9-0.5,1.3-0.9
	c0.1-0.1,0.1-0.1,0-0.2c-1.2-1.2-2.4-2.4-3.5-3.5C91.7,18.4,91.4,18.2,91.2,17.9z M91.2,21.5L91.2,21.5c0,0.8,0,1.7,0,2.5
	c0,0.1,0,0.1,0.1,0.1c0.4,0,0.8-0.1,1.1-0.2c0.3-0.1,0.6-0.2,0.9-0.3C92.6,22.9,91.9,22.2,91.2,21.5z M93.3,10.3
	C93.3,10.3,93.2,10.3,93.3,10.3c-0.7-0.2-1.3-0.4-2-0.4c-0.1,0-0.1,0-0.1,0.1c0,0.8,0,1.6,0,2.3v0.1C91.9,11.7,92.6,11,93.3,10.3z
	 M90.4,21.6c-0.7,0.7-1.4,1.4-2.1,2.1l0,0c0.6,0.2,1.3,0.4,1.9,0.4c0.1,0,0.2,0,0.2-0.1c0-0.7,0-1.4,0-2.2
	C90.4,21.7,90.4,21.6,90.4,21.6z M90.4,12.3L90.4,12.3c0-0.8,0-1.6,0-2.4c0-0.1,0-0.1-0.1-0.1c-0.4,0-0.7,0.1-1.1,0.2
	c-0.3,0.1-0.6,0.2-0.9,0.3C89,11,89.7,11.6,90.4,12.3z"/>
<g>
	<path class="st4" d="M105.1,13.1h4.4V14h-3.3v2.7h3.1v0.9h-3.1v3.7h-1V13.1z"/>
	<path class="st4" d="M115.8,18.3c0,2.1-1.5,3.1-2.9,3.1c-1.6,0-2.8-1.2-2.8-3c0-1.9,1.3-3.1,2.9-3.1
		C114.7,15.3,115.8,16.5,115.8,18.3z M111.2,18.3c0,1.3,0.7,2.2,1.8,2.2c1,0,1.8-0.9,1.8-2.3c0-1-0.5-2.2-1.7-2.2
		C111.8,16.1,111.2,17.2,111.2,18.3z"/>
	<path class="st4" d="M117.2,17.2c0-0.7,0-1.3,0-1.8h0.9l0,1.1h0c0.3-0.8,0.9-1.3,1.6-1.3c0.1,0,0.2,0,0.3,0v1c-0.1,0-0.2,0-0.4,0
		c-0.7,0-1.3,0.6-1.4,1.4c0,0.1,0,0.3,0,0.5v3.1h-1V17.2z"/>
	<path class="st4" d="M121.5,18.5c0,1.4,0.9,2,2,2c0.8,0,1.2-0.1,1.6-0.3l0.2,0.8c-0.4,0.2-1,0.4-1.9,0.4c-1.8,0-2.9-1.2-2.9-2.9
		c0-1.8,1-3.1,2.7-3.1c1.9,0,2.4,1.7,2.4,2.7c0,0.2,0,0.4,0,0.5H121.5z M124.6,17.8c0-0.7-0.3-1.7-1.5-1.7c-1.1,0-1.5,1-1.6,1.7
		H124.6z"/>
	<path class="st4" d="M126.8,20.1c0.3,0.2,0.9,0.4,1.4,0.4c0.8,0,1.1-0.4,1.1-0.9c0-0.5-0.3-0.8-1.1-1.1c-1-0.4-1.5-0.9-1.5-1.6
		c0-0.9,0.8-1.7,2-1.7c0.6,0,1.1,0.2,1.4,0.4l-0.3,0.8c-0.2-0.1-0.6-0.3-1.2-0.3c-0.6,0-1,0.4-1,0.8c0,0.5,0.3,0.7,1.1,1
		c1,0.4,1.5,0.9,1.5,1.8c0,1-0.8,1.7-2.2,1.7c-0.6,0-1.2-0.2-1.6-0.4L126.8,20.1z"/>
	<path class="st4" d="M133,13.8v1.7h1.5v0.8H133v3.1c0,0.7,0.2,1.1,0.8,1.1c0.3,0,0.5,0,0.6-0.1l0,0.8c-0.2,0.1-0.5,0.1-0.9,0.1
		c-0.5,0-0.9-0.2-1.1-0.4c-0.3-0.3-0.4-0.8-0.4-1.5v-3.2h-0.9v-0.8h0.9V14L133,13.8z"/>
	<path class="st4" d="M138.3,13.2c0.5-0.1,1.2-0.2,2-0.2c1,0,1.8,0.2,2.3,0.7c0.4,0.4,0.7,1,0.7,1.7c0,0.7-0.2,1.3-0.6,1.7
		c-0.6,0.6-1.5,0.9-2.5,0.9c-0.3,0-0.6,0-0.8-0.1v3.2h-1V13.2z M139.3,17.1c0.2,0.1,0.5,0.1,0.9,0.1c1.3,0,2-0.6,2-1.7
		c0-1.1-0.8-1.6-1.9-1.6c-0.5,0-0.8,0-1,0.1V17.1z"/>
	<path class="st4" d="M144.6,12.7h1.1v8.5h-1.1V12.7z"/>
	<path class="st4" d="M150.6,21.2l-0.1-0.7h0c-0.3,0.5-0.9,0.9-1.8,0.9c-1.2,0-1.8-0.8-1.8-1.7c0-1.4,1.2-2.2,3.5-2.2v-0.1
		c0-0.5-0.1-1.3-1.3-1.3c-0.5,0-1.1,0.2-1.5,0.4l-0.2-0.7c0.5-0.3,1.2-0.5,1.9-0.5c1.8,0,2.2,1.2,2.2,2.4v2.2c0,0.5,0,1,0.1,1.4
		H150.6z M150.4,18.3c-1.2,0-2.5,0.2-2.5,1.3c0,0.7,0.5,1,1,1c0.8,0,1.2-0.5,1.4-1c0-0.1,0.1-0.2,0.1-0.3V18.3z"/>
	<path class="st4" d="M154.4,13.8v1.7h1.5v0.8h-1.5v3.1c0,0.7,0.2,1.1,0.8,1.1c0.3,0,0.5,0,0.6-0.1l0,0.8c-0.2,0.1-0.5,0.1-0.9,0.1
		c-0.5,0-0.9-0.2-1.1-0.4c-0.3-0.3-0.4-0.8-0.4-1.5v-3.2h-0.9v-0.8h0.9V14L154.4,13.8z"/>
	<path class="st4" d="M157.2,21.2v-5h-0.8v-0.8h0.8v-0.3c0-0.8,0.2-1.6,0.7-2c0.4-0.4,0.9-0.5,1.4-0.5c0.4,0,0.7,0.1,0.9,0.2
		l-0.1,0.8c-0.2-0.1-0.4-0.1-0.7-0.1c-0.9,0-1.1,0.8-1.1,1.7v0.3h1.4v0.8h-1.4v5H157.2z"/>
	<path class="st4" d="M165.7,18.3c0,2.1-1.5,3.1-2.9,3.1c-1.6,0-2.8-1.2-2.8-3c0-1.9,1.3-3.1,2.9-3.1
		C164.6,15.3,165.7,16.5,165.7,18.3z M161.1,18.3c0,1.3,0.7,2.2,1.8,2.2c1,0,1.8-0.9,1.8-2.3c0-1-0.5-2.2-1.7-2.2
		C161.6,16.1,161.1,17.2,161.1,18.3z"/>
	<path class="st4" d="M167,17.2c0-0.7,0-1.3,0-1.8h0.9l0,1.1h0c0.3-0.8,0.9-1.3,1.6-1.3c0.1,0,0.2,0,0.3,0v1c-0.1,0-0.2,0-0.4,0
		c-0.7,0-1.3,0.6-1.4,1.4c0,0.1,0,0.3,0,0.5v3.1h-1V17.2z"/>
	<path class="st4" d="M171,17c0-0.6,0-1.1,0-1.6h0.9l0,0.9h0c0.3-0.6,0.9-1.1,1.8-1.1c0.8,0,1.4,0.5,1.6,1.2h0
		c0.2-0.3,0.4-0.6,0.6-0.8c0.3-0.3,0.7-0.4,1.3-0.4c0.8,0,1.9,0.5,1.9,2.5v3.4h-1v-3.3c0-1.1-0.4-1.8-1.3-1.8c-0.6,0-1.1,0.4-1.2,1
		c0,0.1-0.1,0.3-0.1,0.5v3.6h-1v-3.5c0-0.9-0.4-1.6-1.2-1.6c-0.7,0-1.1,0.5-1.3,1.1c-0.1,0.2-0.1,0.3-0.1,0.5v3.5h-1V17z"/>
</g>
</svg>
