<?xml version="1.0" encoding="utf-8"?>
<!-- Roman Inozemtsev: https://github.com/mir-one/  -->
<svg version="1.1"
	 id="Слой_1" shape-rendering="geometricPrecision" image-rendering="optimizeQuality" text-rendering="geometricPrecision"
	 xmlns="http://www.w3.org/2000/svg" xmlns:xlink="http://www.w3.org/1999/xlink" x="0px" y="0px" viewBox="0 0 24 24"
	 style="enable-background:new 0 0 24 24;" xml:space="preserve">
<style type="text/css">
	.st0{fill:url(#SVGID_1_);}
	.st1{fill:#FFFFFF;}
	.st2{fill:url(#SVGID_2_);}
	.st3{fill:url(#SVGID_3_);}
	.st4{fill:url(#SVGID_4_);}
</style>
<linearGradient id="SVGID_1_" gradientUnits="userSpaceOnUse" x1="12" y1="0.125" x2="12" y2="24.125">
	<stop  offset="0" style="stop-color:#25A9E0"/>
	<stop  offset="1" style="stop-color:#00A551"/>
</linearGradient>
<circle class="st0" cx="12" cy="12" r="12"/>
<circle class="st1" cx="12" cy="12" r="11.1"/>
<ellipse transform="matrix(0.7071 -0.7071 0.7071 0.7071 -4.975 11.9955)" class="st1" cx="12" cy="12" rx="10.4" ry="10.4"/>
<g>
	<linearGradient id="SVGID_2_" gradientUnits="userSpaceOnUse" x1="11.0272" y1="-0.245" x2="11.1522" y2="24.005">
		<stop  offset="0" style="stop-color:#25A9E0"/>
		<stop  offset="1" style="stop-color:#00A551"/>
	</linearGradient>
	<path class="st2" d="M8.2,11.4c0.1,3.6,3.3,6,6.8,5.1c-1,1.4-2.3,2-3.9,1.8c-1.8-0.2-3-1.1-3.6-2.8C6.9,14.2,7.3,12.3,8.2,11.4z"/>
	<linearGradient id="SVGID_3_" gradientUnits="userSpaceOnUse" x1="7.6758" y1="-0.2277" x2="7.8008" y2="24.0223">
		<stop  offset="0" style="stop-color:#25A9E0"/>
		<stop  offset="1" style="stop-color:#00A551"/>
	</linearGradient>
	<path class="st3" d="M9.6,8.4C9.1,8.8,8.8,9.2,8.3,9.6c-1.1,0.8-1.6,1.9-1.6,3.2c0,0.8,0.1,1.7,0.1,2.6c-1-1.4-1.2-2.9-0.6-4.5
		c0.6-1.4,1.7-2.3,3.2-2.6C9.5,8.3,9.5,8.3,9.6,8.4z"/>
	<linearGradient id="SVGID_4_" gradientUnits="userSpaceOnUse" x1="13.4394" y1="-0.2574" x2="13.5644" y2="23.9926">
		<stop  offset="0" style="stop-color:#25A9E0"/>
		<stop  offset="1" style="stop-color:#00A551"/>
	</linearGradient>
	<path class="st4" d="M13.5,6.9c-2.6,0-4.6,2.1-4.6,4.6c0,2.6,2.1,4.6,4.6,4.6c2.6,0,4.6-2.1,4.6-4.6S16,6.9,13.5,6.9z M15.6,10.2
		H14v4.3h-1.1v-4.3h-1.5V9.3h4.2C15.6,9.3,15.6,10.2,15.6,10.2z"/>
</g>
</svg>
