<?xml version="1.0" encoding="utf-8"?>
<!-- Roman Inozemtsev: https://github.com/mir-one/  -->
<svg version="1.1"
	 id="Слой_1" shape-rendering="geometricPrecision" image-rendering="optimizeQuality" text-rendering="geometricPrecision"
	 xmlns="http://www.w3.org/2000/svg" xmlns:xlink="http://www.w3.org/1999/xlink" x="0px" y="0px" viewBox="0 0 24 24"
	 style="enable-background:new 0 0 24 24;" xml:space="preserve">
<style type="text/css">
	.st0{fill:url(#SVGID_1_);}
	.st1{fill:#FFFFFF;}
	.st2{fill:url(#SVGID_2_);}
	.st3{fill:#F7F8F9;}
</style>
<linearGradient id="SVGID_1_" gradientUnits="userSpaceOnUse" x1="12" y1="-0.125" x2="12" y2="23.875">
	<stop  offset="0" style="stop-color:#00ADEE"/>
	<stop  offset="1" style="stop-color:#00A551"/>
</linearGradient>
<circle class="st0" cx="12" cy="12" r="12"/>
<circle class="st1" cx="12" cy="12" r="11.1"/>
<ellipse transform="matrix(0.7071 -0.7071 0.7071 0.7071 -4.9787 12.0079)" class="st1" cx="12" cy="12" rx="10.4" ry="10.4"/>
<linearGradient id="SVGID_2_" gradientUnits="userSpaceOnUse" x1="12.0055" y1="1.3471" x2="12.0055" y2="24.0732">
	<stop  offset="0" style="stop-color:#00ADEE"/>
	<stop  offset="1" style="stop-color:#00A551"/>
</linearGradient>
<path class="st2" d="M15.6,7.7c-1.9-2.2-5.3-2.2-7.1,0.1C7.3,9.3,7.2,11,8,12.7c0.4,0.9,1,1.6,1.6,2.3c0.8,1,1.7,1.9,2.4,2.9
	c0.1,0.2,0.1,0.1,0.2,0c0.5-0.7,1-1.3,1.6-2c0.7-0.8,1.4-1.5,1.9-2.4c0.6-0.8,0.9-1.8,0.9-2.7C16.6,9.6,16.2,8.7,15.6,7.7z"/>
<path class="st3" d="M10.8,8.2c0.1,0,0.2-0.1,0.3-0.1c0,0,0.1,0,0.1,0c0.1,0,0.1,0,0.2-0.1c0,0,0,0,0,0c0,0,0,0,0,0
	c0.1,0,0.2,0,0.3-0.1c0.2,0,0.3,0,0.5,0c0.3,0,0.5,0.1,0.8,0.2c0.3,0.1,0.5,0.3,0.7,0.4c0,0,0,0,0,0c0,0,0,0,0,0c0,0,0,0,0.1,0.1
	c0.1,0.1,0.3,0.3,0.4,0.4c0.2,0.3,0.4,0.7,0.5,1.1c0.1,0.3,0,0.7,0,1c0,0,0,0,0,0c0,0,0,0,0,0c0,0.1,0,0.1-0.1,0.2c0,0,0,0,0,0
	c0,0,0,0.1,0,0.1c0,0,0,0,0,0c0,0,0,0,0,0.1c0,0,0,0,0,0c0,0.1,0,0.1-0.1,0.2l0,0c0,0,0,0,0,0c0,0,0,0.1,0,0.1c0,0,0,0,0,0
	c0,0.1-0.1,0.1-0.1,0.2c0,0,0,0,0,0c-0.1,0.1-0.2,0.3-0.3,0.4c-0.3,0.3-0.6,0.5-0.9,0.7c-0.3,0.1-0.5,0.2-0.8,0.2
	c-0.1,0-0.2,0-0.3,0c0,0-0.1,0-0.1,0c0,0,0,0,0,0c-0.1,0-0.2,0-0.3,0c-0.1,0-0.1,0-0.2,0c-0.1,0-0.2,0-0.2-0.1c0,0-0.1,0-0.1,0
	c0,0-0.1,0-0.1,0c-0.1,0-0.1-0.1-0.2-0.1c0,0,0,0,0,0c0,0,0,0,0,0c0,0,0,0,0,0l0,0c0,0,0,0,0,0c0,0,0,0,0,0c0,0,0,0,0,0c0,0,0,0,0,0
	c0,0,0,0,0,0c0,0,0,0,0,0c0,0,0,0-0.1,0c0,0,0,0,0,0c-0.1-0.1-0.2-0.1-0.3-0.2C10,12.4,9.7,12,9.6,11.7c0-0.1,0-0.1-0.1-0.2
	c0,0,0-0.1,0-0.1c0-0.1-0.1-0.2-0.1-0.4c0,0,0,0,0,0c0,0,0,0,0,0c0,0,0,0,0-0.1c0,0,0,0,0,0c0,0,0,0,0,0c0,0,0,0,0-0.1
	c0,0,0-0.1,0-0.1c0,0,0,0,0,0c0-0.1,0-0.1,0-0.2c0,0,0,0,0,0c0,0,0-0.1,0-0.1c0,0,0,0,0,0c0,0,0,0,0,0c0,0,0,0,0,0c0,0,0,0,0,0
	c0,0,0,0,0,0c0,0,0,0,0,0c0,0,0,0,0,0c0,0,0,0,0,0c0,0,0,0,0,0c0,0,0,0,0,0c0,0,0,0,0-0.1c0-0.1,0-0.3,0.1-0.4
	c0.1-0.3,0.3-0.7,0.5-0.9c0,0,0,0,0,0l0,0c0-0.1,0.1-0.1,0.1-0.2c0.1-0.1,0.1-0.1,0.2-0.2c0,0,0,0,0,0c0,0,0.1,0,0.1-0.1
	c0,0,0,0,0,0c0,0,0.1-0.1,0.1-0.1c0,0,0,0,0.1,0C10.7,8.3,10.7,8.2,10.8,8.2C10.8,8.2,10.8,8.2,10.8,8.2z M10.2,9
	C10.2,9,10.2,9,10.2,9c-0.3,0.4-0.5,0.8-0.6,1.3c0,0.3,0,0.5,0,0.8c0.1,0.4,0.3,0.8,0.5,1.1c0,0,0,0,0.1,0c0.5-0.5,1-1,1.5-1.5
	c0,0,0,0,0-0.1c-0.3-0.3-0.5-0.5-0.8-0.8C10.8,9.5,10.5,9.3,10.2,9C10.2,9,10.2,9,10.2,9z M14.4,10.6c0-0.2,0-0.4,0-0.5
	c-0.1-0.4-0.3-0.8-0.5-1.1c0,0,0,0,0,0c-0.1,0.1-0.3,0.3-0.4,0.4c-0.4,0.4-0.8,0.8-1.1,1.1c0,0,0,0,0,0c0.5,0.5,1,1,1.6,1.6
	c0,0,0,0,0,0C14.2,11.7,14.4,11.2,14.4,10.6z M11.9,10.3C11.9,10.3,11.9,10.2,11.9,10.3c0-0.3,0-0.6,0-0.8c0,0,0,0,0,0
	c-0.3-0.3-0.6-0.6-0.9-0.9c0,0,0,0,0,0c-0.2,0.1-0.3,0.2-0.5,0.3c0,0,0,0,0,0.1c0.4,0.4,0.7,0.7,1.1,1.1
	C11.6,10,11.7,10.1,11.9,10.3z M12.1,10.3C12.1,10.3,12.1,10.3,12.1,10.3C12.1,10.3,12.2,10.3,12.1,10.3c0.5-0.5,1-1,1.5-1.4
	c0,0,0,0,0,0c-0.1-0.1-0.3-0.2-0.5-0.3c0,0,0,0-0.1,0c-0.3,0.3-0.6,0.6-0.9,0.9c0,0,0,0,0,0.1C12.1,9.7,12.1,10,12.1,10.3
	C12.1,10.2,12.1,10.3,12.1,10.3z M11.9,10.9C11.9,10.9,11.9,10.9,11.9,10.9c-0.5,0.5-1,1-1.4,1.4c0,0,0,0,0,0
	c0.1,0.1,0.3,0.2,0.5,0.3c0,0,0,0,0,0c0.3-0.3,0.6-0.6,0.9-0.9c0,0,0,0,0,0C11.9,11.5,11.9,11.2,11.9,10.9z M12.1,10.9
	C12.1,10.9,12.1,10.9,12.1,10.9c0,0.3,0,0.6,0,0.8c0,0,0,0,0,0c0.3,0.3,0.6,0.6,0.9,0.9c0,0,0,0,0.1,0c0.2-0.1,0.3-0.2,0.4-0.3
	c0,0,0,0,0-0.1c-0.4-0.4-0.8-0.8-1.2-1.2C12.3,11.1,12.2,11,12.1,10.9z M12.1,12.1C12.1,12.1,12.1,12.1,12.1,12.1c0,0.3,0,0.6,0,0.8
	c0,0,0,0,0,0c0.1,0,0.3,0,0.4-0.1c0.1,0,0.2-0.1,0.3-0.1C12.6,12.6,12.4,12.3,12.1,12.1z M12.8,8.3C12.8,8.3,12.8,8.3,12.8,8.3
	c-0.2-0.1-0.4-0.1-0.7-0.1c0,0,0,0,0,0c0,0.3,0,0.5,0,0.8c0,0,0,0,0,0C12.4,8.8,12.6,8.6,12.8,8.3z M11.9,12.1
	c-0.2,0.2-0.5,0.5-0.7,0.7c0,0,0,0,0,0c0.2,0.1,0.4,0.1,0.6,0.1c0.1,0,0.1,0,0.1,0C11.9,12.7,11.9,12.4,11.9,12.1
	C11.9,12.2,11.9,12.1,11.9,12.1z M11.9,9C11.9,9,11.9,9,11.9,9c0-0.3,0-0.5,0-0.8c0,0,0,0,0,0c-0.1,0-0.2,0-0.4,0.1
	c-0.1,0-0.2,0.1-0.3,0.1C11.4,8.6,11.6,8.8,11.9,9z"/>
</svg>
