<?xml version="1.0" encoding="utf-8"?>
<!-- Roman Inozemtsev: https://github.com/mir-one/  -->
<svg version="1.1"
	 id="Слой_1" shape-rendering="geometricPrecision" image-rendering="optimizeQuality" text-rendering="geometricPrecision"
	 xmlns="http://www.w3.org/2000/svg" xmlns:xlink="http://www.w3.org/1999/xlink" x="0px" y="0px" viewBox="0 0 105.3 76.4"
	 style="enable-background:new 0 0 105.3 76.4;" xml:space="preserve">
<style type="text/css">
	.st0{fill:#FFFFFF;}
	.st1{fill:url(#SVGID_1_);}
	.st2{fill:url(#SVGID_2_);}
	.st3{fill:#F7F8F9;}
	.st4{fill:#565656;}
</style>
<path class="st0" d="M52.7,2.1c-13.8,0-25,11.2-25,25c0,13.8,11.2,25,25,25c0.3,0,0.5,0,0.8,0c12.6-0.4,22.8-10.1,24-22.4
	c0.1-0.8,0.1-1.7,0.1-2.5C77.6,13.2,66.4,2.1,52.7,2.1z M69.2,43.6c-4.8,4.8-11.1,7-17.3,6.8c-5.7-0.2-11.4-2.4-15.8-6.8
	c-9.1-9.1-9.1-24,0-33.1c9.1-9.1,24-9.1,33.1,0c4.8,4.8,7.1,11.3,6.8,17.6C75.8,33.7,73.5,39.3,69.2,43.6z"/>
<linearGradient id="SVGID_1_" gradientUnits="userSpaceOnUse" x1="52.65" y1="-20.3326" x2="52.65" y2="75.4113">
	<stop  offset="0" style="stop-color:#00ADEE"/>
	<stop  offset="1" style="stop-color:#00A551"/>
</linearGradient>
<path class="st1" d="M52.7,0c-14.9,0-27,12.1-27,27s12.1,27,27,27c0.9,0,1.9,0,2.8-0.1c12.2-1.2,22-10.6,23.9-22.6
	c0.2-1.4,0.4-2.9,0.4-4.3C79.7,12.1,67.6,0,52.7,0z M53.5,52c-0.3,0-0.5,0-0.8,0c-13.8,0-25-11.2-25-25c0-13.8,11.2-25,25-25
	c13.8,0,25,11.2,25,25c0,0.9,0,1.7-0.1,2.5C76.3,41.9,66,51.6,53.5,52z"/>
<linearGradient id="SVGID_2_" gradientUnits="userSpaceOnUse" x1="52.6367" y1="-20.0629" x2="52.6367" y2="74.6264">
	<stop  offset="0" style="stop-color:#25A9E0"/>
	<stop  offset="1" style="stop-color:#00A551"/>
</linearGradient>
<path class="st2" d="M69.2,10.5c-9.1-9.1-24-9.1-33.1,0c-9.1,9.1-9.1,24,0,33.1c4.4,4.4,10.1,6.6,15.8,6.8
	c6.2,0.2,12.5-2.1,17.3-6.8c4.3-4.3,6.6-9.9,6.8-15.5C76.3,21.8,74.1,15.3,69.2,10.5z"/>
<path class="st3" d="M41.4,4.7c0.9-0.4,1.7-0.8,2.6-1.2c0.2-0.1,0.5-0.1,0.8-0.2C45.4,3.1,46,3,46.6,2.8c0,0,0,0,0.1,0
	c0.1,0,0.1,0,0.2,0c0.9-0.2,1.9-0.3,2.9-0.5C51.3,2,52.9,2,54.4,2.1c2.5,0.2,4.9,0.7,7.2,1.6c2.5,1,4.9,2.3,6.9,4.1
	C68.7,7.9,68.8,8,68.9,8c0,0,0,0,0,0c0.2,0.2,0.5,0.4,0.7,0.6c1.2,1.2,2.4,2.4,3.3,3.8c2.3,3.2,3.8,6.8,4.4,10.7
	c0.5,3.1,0.4,6.1-0.2,9.2c0,0.1,0,0.2,0,0.3c0,0,0,0,0,0c-0.2,0.6-0.3,1.2-0.5,1.8c0,0,0,0,0,0.1c-0.1,0.2-0.2,0.5-0.2,0.8
	c0,0,0,0,0,0c-0.1,0.2-0.1,0.3-0.2,0.5c0,0,0,0,0,0c-0.2,0.5-0.4,1-0.6,1.4l0,0c0,0,0,0,0,0c-0.1,0.3-0.3,0.6-0.4,0.8
	c0,0,0,0.1,0,0.1c-0.3,0.5-0.6,1-0.8,1.6c-0.1,0-0.1,0.1-0.1,0.1c-0.8,1.3-1.7,2.5-2.7,3.7c-2.5,2.8-5.4,5-8.8,6.5
	c-2.5,1.1-5.1,1.8-7.8,2C54,52,53.1,52,52.2,52c-0.3,0-0.5,0-0.8,0c0,0-0.1,0-0.1,0c-1,0-2-0.2-3-0.3c-0.5-0.1-0.9-0.2-1.4-0.3
	c-0.7-0.2-1.4-0.4-2.1-0.6c-0.4-0.1-0.8-0.3-1.1-0.4c-0.3-0.1-0.6-0.2-0.8-0.3c-0.6-0.3-1.3-0.6-1.9-0.9c0,0,0,0,0,0
	c0-0.1-0.1-0.1-0.1-0.1c0,0-0.1,0-0.1-0.1l0,0c0-0.1-0.1-0.1-0.1-0.1c-0.1-0.1-0.2-0.1-0.3-0.1c-0.1,0-0.1-0.1-0.2-0.1
	c-0.1,0-0.1-0.1-0.2-0.1c-0.1-0.1-0.3-0.2-0.4-0.3c0,0,0,0-0.1,0c-0.2-0.1-0.4-0.2-0.5-0.4c0,0,0,0-0.1,0c-0.8-0.6-1.6-1.2-2.4-1.8
	c-2.7-2.4-4.8-5.2-6.4-8.4c-0.2-0.5-0.4-1-0.6-1.5c-0.2-0.3-0.1-0.7-0.3-0.9c-0.4-1.1-0.7-2.3-0.9-3.4c0-0.1,0-0.1,0-0.2
	c0,0,0-0.1-0.1-0.1c0-0.2-0.1-0.4-0.1-0.6c0-0.1,0-0.1,0-0.2c0,0,0-0.1,0-0.1c0-0.2,0-0.4-0.1-0.6c0-0.4-0.1-0.8-0.1-1.2
	c0-0.1,0-0.1,0-0.2c0-0.6,0-1.3-0.1-1.9c0-0.1,0-0.1,0-0.2c0.1-0.3,0.1-0.6,0.1-0.9c0-0.1,0-0.2,0-0.2c0,0,0,0,0-0.1
	c0-0.1,0-0.2,0-0.3c0,0,0,0,0-0.1c0,0,0,0,0,0c0.1-0.1,0-0.2,0-0.2c0,0,0-0.1,0-0.1c0,0,0,0,0-0.1c0-0.1,0-0.1,0-0.2
	c0,0,0-0.1,0-0.1c0.1-0.2,0.1-0.4,0.1-0.7c0.2-1.2,0.4-2.4,0.8-3.5c0.9-3.2,2.5-6.1,4.6-8.7c0-0.1,0.1-0.1,0.1-0.2l0,0
	c0.4-0.5,0.8-0.9,1.3-1.4c0.7-0.6,1.4-1.3,2.1-1.9c0.1,0,0.2-0.1,0.3-0.2c0.3-0.2,0.6-0.4,0.8-0.7c0.1-0.1,0.3-0.2,0.4-0.3
	c0.4-0.3,0.9-0.6,1.3-0.9c0.2-0.1,0.4-0.2,0.5-0.3c0.4-0.2,0.7-0.4,1.1-0.6C41.2,4.8,41.3,4.8,41.4,4.7z M36,12.1
	c-0.1,0.1-0.2,0.2-0.3,0.3c-2.9,3.4-4.7,7.3-5.3,11.8c-0.3,2.4-0.2,4.7,0.2,7.1c0.8,4,2.5,7.5,5.1,10.6c0.2,0.2,0.3,0.2,0.5,0
	c4.8-4.8,9.6-9.6,14.4-14.4c0.2-0.2,0.3-0.4,0-0.6c-2.4-2.4-4.8-4.8-7.2-7.2c-2.4-2.4-4.8-4.8-7.3-7.3C36.1,12.2,36,12.2,36,12.1z
	 M75.1,27.6c0-1.9-0.1-3.3-0.4-4.7c-0.8-4-2.5-7.5-5.1-10.5c-0.2-0.2-0.3-0.2-0.5,0c-1.3,1.3-2.5,2.5-3.8,3.8
	c-3.6,3.6-7.1,7.1-10.7,10.7c-0.1,0.1-0.3,0.2-0.1,0.5c4.9,4.8,9.7,9.7,14.6,14.6c0.2,0.2,0.2,0.2,0.4,0
	C73.2,37.6,75,32.6,75.1,27.6z M51.3,24c0-0.1,0.1-0.1,0.1-0.1c0-2.6,0-5.1,0-7.7c0-0.1,0-0.2-0.1-0.3c-2.9-2.9-5.8-5.8-8.6-8.6
	c-0.1-0.1-0.2-0.2-0.4-0.1c-1.6,0.8-3,1.8-4.3,2.9c-0.2,0.2-0.2,0.3,0,0.5c3.3,3.3,6.7,6.6,10,10C49,21.7,50.2,22.9,51.3,24z
	 M53.8,24.1C53.9,24.1,53.9,24.1,53.8,24.1c0.1,0,0.2-0.1,0.2-0.1c4.4-4.4,8.9-8.9,13.3-13.3c0.2-0.2,0.2-0.3,0-0.5
	C66.1,9,64.7,8,63.2,7.2c-0.2-0.1-0.3-0.1-0.5,0.1c-2.9,2.9-5.7,5.7-8.6,8.6c-0.2,0.2-0.2,0.3-0.2,0.6c0,2.4,0,4.9,0,7.3
	C53.8,23.9,53.8,24,53.8,24.1z M51.4,30c-0.1,0.1-0.2,0.1-0.2,0.2c-4.4,4.4-8.9,8.9-13.3,13.3c-0.2,0.2-0.2,0.3,0,0.4
	c1.3,1.1,2.7,2.1,4.2,2.9c0.2,0.1,0.3,0.1,0.4-0.1c2.9-2.9,5.8-5.8,8.7-8.7c0.1-0.1,0.2-0.2,0.2-0.4C51.4,35.2,51.4,32.7,51.4,30z
	 M53.9,29.9c0,0.1,0,0.1,0,0.2c0,2.5,0,5,0,7.5c0,0.2,0.1,0.3,0.2,0.4c2.9,2.9,5.8,5.8,8.7,8.7c0.2,0.2,0.3,0.2,0.5,0.1
	c1.4-0.8,2.8-1.7,4-2.8c0.3-0.2,0.3-0.4,0-0.6c-3.7-3.7-7.4-7.4-11.1-11.1C55.5,31.5,54.7,30.8,53.9,29.9z M53.9,41.3
	C53.8,41.3,53.8,41.4,53.9,41.3c0,2.7,0,5.3,0,7.9c0,0.2,0.1,0.2,0.3,0.2c1.2-0.1,2.4-0.2,3.5-0.5c1-0.2,2-0.5,2.9-0.9
	C58.3,45.8,56.1,43.6,53.9,41.3z M60.5,6c0,0-0.1,0-0.1,0c-2-0.7-4-1.2-6.2-1.3c-0.3,0-0.4,0-0.4,0.3c0,2.5,0,4.9,0,7.4
	c0,0.1,0,0.2,0,0.3C56.1,10.4,58.3,8.2,60.5,6z M51.4,41.5c-2.2,2.2-4.4,4.4-6.6,6.6c0,0,0,0,0.1,0c2,0.7,4,1.2,6,1.3
	c0.5,0,0.5,0,0.5-0.5c0-2.3,0-4.5,0-6.8C51.4,41.9,51.4,41.7,51.4,41.5z M51.4,12.4C51.4,12.4,51.4,12.4,51.4,12.4
	c0-2.5,0-5.1,0-7.6c0-0.2-0.1-0.2-0.3-0.2c-1.2,0.1-2.3,0.2-3.5,0.5c-0.9,0.2-1.9,0.5-2.8,0.8C47.1,8.1,49.2,10.3,51.4,12.4z"/>
<g>
	<path class="st4" d="M5.4,70.7c0-0.3,0-0.5-0.1-0.7s-0.1-0.4-0.2-0.5c-0.1-0.2-0.3-0.3-0.4-0.5c-0.2-0.1-0.4-0.3-0.6-0.4
		c-0.5-0.2-1-0.5-1.4-0.7c-0.4-0.3-0.8-0.6-1.1-0.9s-0.6-0.7-0.7-1.2s-0.3-1-0.3-1.6c0-0.5,0.1-1,0.2-1.5c0.2-0.4,0.4-0.8,0.6-1.2
		c0.3-0.3,0.6-0.6,1-0.8c0.4-0.2,0.8-0.3,1.3-0.4v-2h1.4v2.1c0.5,0.1,0.9,0.3,1.2,0.5c0.4,0.2,0.7,0.5,1,0.9
		c0.3,0.4,0.5,0.8,0.6,1.3c0.1,0.5,0.2,1.1,0.2,1.7H5.4c0-0.8-0.1-1.3-0.3-1.7c-0.2-0.4-0.5-0.6-0.9-0.6c-0.2,0-0.4,0-0.5,0.1
		c-0.1,0.1-0.2,0.2-0.3,0.4s-0.2,0.3-0.2,0.5c0,0.2-0.1,0.4-0.1,0.7c0,0.2,0,0.4,0.1,0.6s0.1,0.4,0.2,0.5c0.1,0.2,0.3,0.3,0.4,0.5
		c0.2,0.1,0.4,0.3,0.7,0.4c0.5,0.2,1,0.5,1.4,0.8c0.4,0.3,0.8,0.6,1.1,0.9s0.6,0.7,0.7,1.2s0.3,1,0.3,1.6c0,0.6-0.1,1.1-0.2,1.5
		S7.5,73,7.2,73.3c-0.3,0.3-0.6,0.6-1,0.8c-0.4,0.2-0.8,0.3-1.3,0.4v1.9H3.4v-1.9c-0.4-0.1-0.9-0.2-1.3-0.4s-0.8-0.5-1.1-0.8
		s-0.6-0.8-0.8-1.4S0,70.7,0,70h2.7c0,0.5,0,0.8,0.1,1.1s0.2,0.5,0.3,0.7s0.3,0.3,0.5,0.4c0.2,0.1,0.4,0.1,0.5,0.1
		c0.2,0,0.4,0,0.5-0.1S5,72,5.1,71.9c0.1-0.1,0.2-0.3,0.2-0.5S5.4,70.9,5.4,70.7z"/>
	<path class="st4" d="M17.2,68.7h-4.3v5.7h-2.8V60.5h7.7v2.3h-4.9v3.6h4.3V68.7z"/>
	<path class="st4" d="M25.2,70.7c0-0.2,0-0.5-0.1-0.6c0-0.2-0.1-0.4-0.3-0.5c-0.1-0.2-0.3-0.3-0.6-0.5c-0.3-0.2-0.6-0.3-1.1-0.5
		c-0.5-0.2-1-0.4-1.5-0.7c-0.5-0.3-0.9-0.6-1.2-0.9c-0.4-0.3-0.6-0.7-0.9-1.2c-0.2-0.5-0.3-1-0.3-1.6c0-0.6,0.1-1.1,0.3-1.6
		c0.2-0.5,0.5-0.9,0.9-1.2s0.9-0.6,1.4-0.8c0.5-0.2,1.1-0.3,1.8-0.3c0.7,0,1.3,0.1,1.8,0.3c0.5,0.2,1,0.5,1.4,0.9s0.7,0.8,0.9,1.4
		c0.2,0.5,0.3,1.1,0.3,1.7h-2.8c0-0.3,0-0.6-0.1-0.8c-0.1-0.2-0.2-0.5-0.3-0.6c-0.1-0.2-0.3-0.3-0.5-0.4c-0.2-0.1-0.4-0.1-0.7-0.1
		c-0.3,0-0.5,0-0.7,0.1c-0.2,0.1-0.4,0.2-0.5,0.3s-0.2,0.3-0.3,0.5c-0.1,0.2-0.1,0.4-0.1,0.6c0,0.2,0,0.4,0.1,0.6
		c0.1,0.2,0.2,0.4,0.4,0.5c0.2,0.2,0.4,0.3,0.7,0.4c0.3,0.1,0.5,0.3,0.9,0.4c0.6,0.2,1.2,0.5,1.7,0.8s0.9,0.6,1.2,1
		c0.3,0.4,0.6,0.8,0.7,1.2c0.2,0.5,0.2,1,0.2,1.5c0,0.6-0.1,1.2-0.3,1.6c-0.2,0.5-0.5,0.9-0.9,1.2c-0.4,0.3-0.8,0.6-1.3,0.8
		c-0.5,0.2-1.1,0.3-1.8,0.3c-0.6,0-1.2-0.1-1.8-0.3c-0.6-0.2-1.1-0.5-1.5-0.8c-0.5-0.4-0.8-0.8-1.1-1.4c-0.3-0.6-0.4-1.3-0.4-2h2.8
		c0,0.4,0,0.8,0.1,1.1c0.1,0.3,0.2,0.5,0.4,0.7s0.4,0.3,0.6,0.4c0.2,0.1,0.5,0.1,0.9,0.1c0.3,0,0.5,0,0.7-0.1
		c0.2-0.1,0.3-0.2,0.5-0.3c0.1-0.1,0.2-0.3,0.3-0.5C25.2,71.1,25.2,70.9,25.2,70.7z"/>
	<path class="st4" d="M38.9,62.8h-3.4v11.5h-2.8V62.8h-3.4v-2.3h9.6V62.8z"/>
	<path class="st4" d="M51.6,68.7h-4.3v5.7h-2.8V60.5h7.7v2.3h-4.9v3.6h4.3V68.7z"/>
	<path class="st4" d="M63.4,68.7c0,1-0.1,1.8-0.4,2.6c-0.2,0.7-0.6,1.3-1,1.8s-1,0.9-1.6,1.1c-0.6,0.2-1.3,0.4-2,0.4
		c-0.7,0-1.4-0.1-2-0.4c-0.6-0.2-1.1-0.6-1.6-1.1c-0.4-0.5-0.8-1.1-1-1.8s-0.4-1.6-0.4-2.6v-2.3c0-1,0.1-1.9,0.4-2.6
		c0.2-0.8,0.6-1.4,1-1.9s1-0.9,1.6-1.1c0.6-0.3,1.3-0.4,2-0.4s1.4,0.1,2,0.4s1.1,0.6,1.6,1.1s0.8,1.1,1,1.9c0.2,0.8,0.4,1.6,0.4,2.6
		V68.7z M60.6,66.3c0-0.7,0-1.2-0.1-1.7c-0.1-0.5-0.2-0.8-0.4-1.1c-0.2-0.3-0.4-0.5-0.7-0.7c-0.3-0.1-0.6-0.2-0.9-0.2
		c-0.4,0-0.7,0.1-1,0.2c-0.3,0.1-0.5,0.4-0.7,0.7c-0.2,0.3-0.3,0.7-0.4,1.1c-0.1,0.5-0.1,1-0.1,1.7v2.3c0,0.6,0,1.2,0.1,1.6
		c0.1,0.4,0.2,0.8,0.4,1.1s0.4,0.5,0.7,0.6s0.6,0.2,1,0.2c0.4,0,0.7-0.1,0.9-0.2s0.5-0.3,0.7-0.6c0.2-0.3,0.3-0.7,0.4-1.1
		c0.1-0.4,0.1-1,0.1-1.6V66.3z"/>
	<path class="st4" d="M69.6,69.3h-1.4v5.1h-2.8V60.5h4.5c0.7,0,1.3,0.1,1.9,0.3c0.5,0.2,1,0.4,1.4,0.8c0.4,0.4,0.7,0.8,0.9,1.3
		c0.2,0.5,0.3,1.1,0.3,1.8c0,0.5,0,1-0.1,1.4s-0.2,0.8-0.4,1.1s-0.4,0.6-0.6,0.8c-0.2,0.2-0.5,0.4-0.8,0.6l2.4,5.7v0.1h-3L69.6,69.3
		z M68.2,67h1.6c0.6,0,1-0.2,1.3-0.6c0.3-0.4,0.4-0.9,0.4-1.5c0-0.3,0-0.6-0.1-0.9c-0.1-0.3-0.2-0.5-0.3-0.7
		c-0.1-0.2-0.3-0.3-0.5-0.4c-0.2-0.1-0.4-0.1-0.7-0.1h-1.7V67z"/>
	<path class="st4" d="M83.4,68.4H79V72h5.2v2.3h-8V60.5h7.9v2.3H79v3.3h4.4V68.4z"/>
	<path class="st4" d="M91.7,70.7c0-0.2,0-0.5-0.1-0.6c0-0.2-0.1-0.4-0.3-0.5c-0.1-0.2-0.3-0.3-0.6-0.5c-0.3-0.2-0.6-0.3-1.1-0.5
		c-0.5-0.2-1-0.4-1.5-0.7c-0.5-0.3-0.9-0.6-1.2-0.9c-0.4-0.3-0.6-0.7-0.9-1.2c-0.2-0.5-0.3-1-0.3-1.6c0-0.6,0.1-1.1,0.3-1.6
		c0.2-0.5,0.5-0.9,0.9-1.2c0.4-0.3,0.9-0.6,1.4-0.8s1.1-0.3,1.8-0.3c0.7,0,1.3,0.1,1.8,0.3s1,0.5,1.4,0.9s0.7,0.8,0.9,1.4
		s0.3,1.1,0.3,1.7h-2.8c0-0.3,0-0.6-0.1-0.8c-0.1-0.2-0.2-0.5-0.3-0.6c-0.1-0.2-0.3-0.3-0.5-0.4c-0.2-0.1-0.4-0.1-0.7-0.1
		c-0.3,0-0.5,0-0.7,0.1c-0.2,0.1-0.4,0.2-0.5,0.3s-0.2,0.3-0.3,0.5s-0.1,0.4-0.1,0.6c0,0.2,0,0.4,0.1,0.6c0.1,0.2,0.2,0.4,0.4,0.5
		s0.4,0.3,0.7,0.4c0.3,0.1,0.5,0.3,0.9,0.4c0.6,0.2,1.2,0.5,1.7,0.8c0.5,0.3,0.9,0.6,1.2,1c0.3,0.4,0.6,0.8,0.7,1.2
		c0.2,0.5,0.2,1,0.2,1.5c0,0.6-0.1,1.2-0.3,1.6c-0.2,0.5-0.5,0.9-0.9,1.2c-0.4,0.3-0.8,0.6-1.3,0.8c-0.5,0.2-1.1,0.3-1.8,0.3
		c-0.6,0-1.2-0.1-1.8-0.3s-1.1-0.5-1.5-0.8c-0.5-0.4-0.8-0.8-1.1-1.4c-0.3-0.6-0.4-1.3-0.4-2h2.8c0,0.4,0,0.8,0.1,1.1
		c0.1,0.3,0.2,0.5,0.4,0.7c0.2,0.2,0.4,0.3,0.6,0.4c0.2,0.1,0.5,0.1,0.9,0.1c0.3,0,0.5,0,0.7-0.1c0.2-0.1,0.3-0.2,0.5-0.3
		c0.1-0.1,0.2-0.3,0.3-0.5C91.6,71.1,91.7,70.9,91.7,70.7z"/>
	<path class="st4" d="M105.3,62.8h-3.4v11.5h-2.8V62.8h-3.4v-2.3h9.6V62.8z"/>
</g>
</svg>
