<?xml version="1.0" encoding="utf-8"?>
<!-- Roman Inozemtsev: https://github.com/mir-one/  -->
<svg version="1.1"
	 id="Слой_1" shape-rendering="geometricPrecision" image-rendering="optimizeQuality" text-rendering="geometricPrecision"
	 xmlns="http://www.w3.org/2000/svg" xmlns:xlink="http://www.w3.org/1999/xlink" x="0px" y="0px" viewBox="0 0 105.3 76.4"
	 style="enable-background:new 0 0 105.3 76.4;" xml:space="preserve">
<style type="text/css">
	.st0{fill:#FFFFFF;}
</style>
<g>
	<path class="st0" d="M5.4,70.6c0-0.3,0-0.5-0.1-0.7s-0.1-0.4-0.2-0.5c-0.1-0.2-0.3-0.3-0.4-0.5c-0.2-0.1-0.4-0.3-0.6-0.4
		c-0.5-0.2-1-0.5-1.4-0.7c-0.4-0.3-0.8-0.6-1.1-0.9S1,66.2,0.9,65.7s-0.3-1-0.3-1.6c0-0.5,0.1-1,0.2-1.5c0.2-0.4,0.4-0.8,0.6-1.2
		c0.3-0.3,0.6-0.6,1-0.8s0.8-0.3,1.3-0.4v-2h1.4v2.1c0.5,0.1,0.9,0.3,1.2,0.5c0.4,0.2,0.7,0.5,1,0.9s0.5,0.8,0.6,1.3
		s0.2,1.1,0.2,1.7H5.4c0-0.8-0.1-1.3-0.3-1.7c-0.2-0.4-0.5-0.6-0.9-0.6c-0.2,0-0.4,0-0.5,0.1s-0.2,0.2-0.3,0.4s-0.2,0.3-0.2,0.5
		s-0.1,0.4-0.1,0.7c0,0.2,0,0.4,0.1,0.6s0.1,0.4,0.2,0.5c0.1,0.2,0.3,0.3,0.4,0.5C4,65.8,4.2,66,4.5,66.1c0.5,0.2,1,0.5,1.4,0.8
		s0.8,0.6,1.1,0.9s0.6,0.7,0.7,1.2S8,70,8,70.6s-0.1,1.1-0.2,1.5s-0.3,0.8-0.6,1.1s-0.6,0.6-1,0.8c-0.4,0.2-0.8,0.3-1.3,0.4v1.9H3.4
		v-1.9C3,74.3,2.5,74.2,2.1,74S1.3,73.5,1,73.2s-0.6-0.8-0.8-1.4S0,70.6,0,69.9h2.7c0,0.5,0,0.8,0.1,1.1s0.2,0.5,0.3,0.7
		s0.3,0.3,0.5,0.4s0.4,0.1,0.5,0.1c0.2,0,0.4,0,0.5-0.1s0.4-0.2,0.5-0.3s0.2-0.3,0.2-0.5S5.4,70.8,5.4,70.6z"/>
	<path class="st0" d="M17.2,68.6h-4.3v5.7h-2.8V60.4h7.7v2.3h-4.9v3.6h4.3V68.6z"/>
	<path class="st0" d="M25.2,70.6c0-0.2,0-0.5-0.1-0.6c0-0.2-0.1-0.4-0.3-0.5c-0.1-0.2-0.3-0.3-0.6-0.5c-0.3-0.2-0.6-0.3-1.1-0.5
		s-1-0.4-1.5-0.7c-0.5-0.3-0.9-0.6-1.2-0.9c-0.4-0.3-0.6-0.7-0.9-1.2c-0.2-0.5-0.3-1-0.3-1.6c0-0.6,0.1-1.1,0.3-1.6
		c0.2-0.5,0.5-0.9,0.9-1.2s0.9-0.6,1.4-0.8s1.1-0.3,1.8-0.3c0.7,0,1.3,0.1,1.8,0.3s1,0.5,1.4,0.9s0.7,0.8,0.9,1.4
		c0.2,0.5,0.3,1.1,0.3,1.7h-2.8c0-0.3,0-0.6-0.1-0.8s-0.2-0.5-0.3-0.6c-0.1-0.2-0.3-0.3-0.5-0.4c-0.2-0.1-0.4-0.1-0.7-0.1
		c-0.3,0-0.5,0-0.7,0.1s-0.4,0.2-0.5,0.3s-0.2,0.3-0.3,0.5C22,63.7,22,63.9,22,64.1c0,0.2,0,0.4,0.1,0.6s0.2,0.4,0.4,0.5
		c0.2,0.2,0.4,0.3,0.7,0.4c0.3,0.1,0.5,0.3,0.9,0.4c0.6,0.2,1.2,0.5,1.7,0.8s0.9,0.6,1.2,1c0.3,0.4,0.6,0.8,0.7,1.2
		c0.2,0.5,0.2,1,0.2,1.5c0,0.6-0.1,1.2-0.3,1.6c-0.2,0.5-0.5,0.9-0.9,1.2c-0.4,0.3-0.8,0.6-1.3,0.8c-0.5,0.2-1.1,0.3-1.8,0.3
		c-0.6,0-1.2-0.1-1.8-0.3c-0.6-0.2-1.1-0.5-1.5-0.8c-0.5-0.4-0.8-0.8-1.1-1.4c-0.3-0.6-0.4-1.3-0.4-2h2.8c0,0.4,0,0.8,0.1,1.1
		c0.1,0.3,0.2,0.5,0.4,0.7s0.4,0.3,0.6,0.4s0.5,0.1,0.9,0.1c0.3,0,0.5,0,0.7-0.1s0.3-0.2,0.5-0.3c0.1-0.1,0.2-0.3,0.3-0.5
		C25.2,71,25.2,70.8,25.2,70.6z"/>
	<path class="st0" d="M38.9,62.7h-3.4v11.5h-2.8V62.7h-3.4v-2.3h9.6V62.7z"/>
	<path class="st0" d="M51.6,68.6h-4.3v5.7h-2.8V60.4h7.7v2.3h-4.9v3.6h4.3V68.6z"/>
	<path class="st0" d="M63.4,68.6c0,1-0.1,1.8-0.4,2.6c-0.2,0.7-0.6,1.3-1,1.8s-1,0.9-1.6,1.1s-1.3,0.4-2,0.4s-1.4-0.1-2-0.4
		c-0.6-0.2-1.1-0.6-1.6-1.1c-0.4-0.5-0.8-1.1-1-1.8s-0.4-1.6-0.4-2.6v-2.3c0-1,0.1-1.9,0.4-2.6c0.2-0.8,0.6-1.4,1-1.9s1-0.9,1.6-1.1
		c0.6-0.3,1.3-0.4,2-0.4s1.4,0.1,2,0.4s1.1,0.6,1.6,1.1s0.8,1.1,1,1.9c0.2,0.8,0.4,1.6,0.4,2.6V68.6z M60.6,66.2
		c0-0.7,0-1.2-0.1-1.7s-0.2-0.8-0.4-1.1s-0.4-0.5-0.7-0.7c-0.3-0.1-0.6-0.2-0.9-0.2c-0.4,0-0.7,0.1-1,0.2c-0.3,0.1-0.5,0.4-0.7,0.7
		s-0.3,0.7-0.4,1.1c-0.1,0.5-0.1,1-0.1,1.7v2.3c0,0.6,0,1.2,0.1,1.6s0.2,0.8,0.4,1.1s0.4,0.5,0.7,0.6s0.6,0.2,1,0.2s0.7-0.1,0.9-0.2
		s0.5-0.3,0.7-0.6c0.2-0.3,0.3-0.7,0.4-1.1c0.1-0.4,0.1-1,0.1-1.6V66.2z"/>
	<path class="st0" d="M69.6,69.2h-1.4v5.1h-2.8V60.4h4.5c0.7,0,1.3,0.1,1.9,0.3c0.5,0.2,1,0.4,1.4,0.8c0.4,0.4,0.7,0.8,0.9,1.3
		c0.2,0.5,0.3,1.1,0.3,1.8c0,0.5,0,1-0.1,1.4s-0.2,0.8-0.4,1.1s-0.4,0.6-0.6,0.8c-0.2,0.2-0.5,0.4-0.8,0.6l2.4,5.7v0.1h-3L69.6,69.2
		z M68.2,66.9h1.6c0.6,0,1-0.2,1.3-0.6s0.4-0.9,0.4-1.5c0-0.3,0-0.6-0.1-0.9c-0.1-0.3-0.2-0.5-0.3-0.7c-0.1-0.2-0.3-0.3-0.5-0.4
		c-0.2-0.1-0.4-0.1-0.7-0.1h-1.7C68.2,62.7,68.2,66.9,68.2,66.9z"/>
	<path class="st0" d="M83.4,68.3H79v3.6h5.2v2.3h-8V60.4h7.9v2.3H79V66h4.4V68.3z"/>
	<path class="st0" d="M91.7,70.6c0-0.2,0-0.5-0.1-0.6c0-0.2-0.1-0.4-0.3-0.5c-0.1-0.2-0.3-0.3-0.6-0.5c-0.3-0.2-0.6-0.3-1.1-0.5
		s-1-0.4-1.5-0.7c-0.5-0.3-0.9-0.6-1.2-0.9c-0.4-0.3-0.6-0.7-0.9-1.2c-0.2-0.5-0.3-1-0.3-1.6c0-0.6,0.1-1.1,0.3-1.6
		c0.2-0.5,0.5-0.9,0.9-1.2s0.9-0.6,1.4-0.8s1.1-0.3,1.8-0.3c0.7,0,1.3,0.1,1.8,0.3s1,0.5,1.4,0.9s0.7,0.8,0.9,1.4s0.3,1.1,0.3,1.7
		h-2.8c0-0.3,0-0.6-0.1-0.8s-0.2-0.5-0.3-0.6c-0.1-0.2-0.3-0.3-0.5-0.4c-0.2-0.1-0.4-0.1-0.7-0.1c-0.3,0-0.5,0-0.7,0.1
		S89,62.9,88.9,63s-0.2,0.3-0.3,0.5s-0.1,0.4-0.1,0.6c0,0.2,0,0.4,0.1,0.6s0.2,0.4,0.4,0.5s0.4,0.3,0.7,0.4c0.3,0.1,0.5,0.3,0.9,0.4
		c0.6,0.2,1.2,0.5,1.7,0.8s0.9,0.6,1.2,1c0.3,0.4,0.6,0.8,0.7,1.2c0.2,0.5,0.2,1,0.2,1.5c0,0.6-0.1,1.2-0.3,1.6
		c-0.2,0.5-0.5,0.9-0.9,1.2c-0.4,0.3-0.8,0.6-1.3,0.8c-0.5,0.2-1.1,0.3-1.8,0.3c-0.6,0-1.2-0.1-1.8-0.3s-1.1-0.5-1.5-0.8
		c-0.5-0.4-0.8-0.8-1.1-1.4c-0.3-0.6-0.4-1.3-0.4-2h2.8c0,0.4,0,0.8,0.1,1.1c0.1,0.3,0.2,0.5,0.4,0.7c0.2,0.2,0.4,0.3,0.6,0.4
		s0.5,0.1,0.9,0.1c0.3,0,0.5,0,0.7-0.1s0.3-0.2,0.5-0.3c0.1-0.1,0.2-0.3,0.3-0.5C91.6,71,91.7,70.8,91.7,70.6z"/>
	<path class="st0" d="M105.3,62.7h-3.4v11.5h-2.8V62.7h-3.4v-2.3h9.6C105.3,60.4,105.3,62.7,105.3,62.7z"/>
</g>
<path class="st0" d="M39.8,3c1-0.4,1.9-0.9,2.9-1.3c0.3-0.1,0.6-0.1,0.9-0.3c0.7-0.2,1.3-0.4,2-0.6c0,0,0.1,0,0.1,0
	c0.1,0,0.1,0,0.2-0.1c1-0.2,2.1-0.4,3.2-0.5c1.7-0.2,3.5-0.3,5.2-0.1c2.8,0.2,5.4,0.8,8,1.8C65,3,67.6,4.5,69.9,6.5
	c0.1,0.1,0.2,0.1,0.3,0.2c0,0,0,0,0,0c0.3,0.2,0.5,0.4,0.8,0.7c1.3,1.3,2.6,2.7,3.7,4.2c2.6,3.6,4.2,7.5,4.9,11.9
	c0.5,3.4,0.5,6.8-0.3,10.2c0,0.1,0,0.2,0,0.3c0,0,0,0,0,0c-0.2,0.7-0.4,1.4-0.6,2c0,0,0,0,0,0.1c-0.1,0.3-0.2,0.5-0.3,0.8
	c0,0,0,0,0,0c-0.1,0.2-0.1,0.4-0.2,0.5c0,0,0,0,0,0c-0.2,0.5-0.4,1.1-0.6,1.6l0,0c0,0,0,0,0,0c-0.1,0.3-0.3,0.6-0.4,0.9
	c0,0,0,0.1,0,0.1c-0.3,0.6-0.6,1.2-0.9,1.7c-0.1,0-0.1,0.1-0.1,0.1c-0.9,1.4-1.9,2.8-3,4.1c-2.7,3.1-6,5.5-9.8,7.2
	c-2.8,1.2-5.7,1.9-8.7,2.2c-1,0.1-2,0.1-3,0.1c-0.3,0-0.6,0-0.8,0c-0.1,0-0.1,0-0.2,0c-1.1,0-2.2-0.2-3.3-0.3
	c-0.5-0.1-1.1-0.2-1.6-0.3c-0.8-0.2-1.6-0.5-2.4-0.7c-0.4-0.2-0.8-0.3-1.3-0.5c-0.3-0.1-0.6-0.2-0.9-0.4c-0.7-0.3-1.4-0.7-2.1-1
	c0,0,0,0,0,0c0-0.1-0.1-0.1-0.2-0.1c0,0-0.1,0-0.1-0.1l0,0c0-0.1-0.1-0.1-0.2-0.1c-0.1-0.1-0.2-0.1-0.3-0.2c-0.1,0-0.1-0.1-0.2-0.1
	c-0.1,0-0.1-0.1-0.2-0.1c-0.1-0.1-0.3-0.2-0.4-0.3c0,0-0.1,0-0.1,0c-0.2-0.1-0.4-0.3-0.6-0.4c0,0,0,0-0.1,0c-0.9-0.7-1.8-1.3-2.6-2
	c-3-2.6-5.4-5.7-7.1-9.4c-0.2-0.5-0.5-1.1-0.7-1.6c-0.3-0.3-0.1-0.7-0.4-1c-0.4-1.2-0.7-2.5-1-3.8c0-0.1,0-0.1,0-0.2
	c0-0.1,0-0.1-0.1-0.2c0-0.2-0.1-0.5-0.1-0.7c0-0.1,0-0.1,0-0.2c0,0,0-0.1,0-0.1c0-0.2,0-0.5-0.1-0.7c0-0.4-0.1-0.9-0.1-1.3
	c0-0.1,0-0.1,0-0.2c0-0.7,0-1.4-0.1-2.1c0-0.1,0-0.1,0-0.2c0.1-0.3,0.1-0.7,0.1-1c0-0.1,0-0.2,0-0.3c0,0,0-0.1,0-0.1
	c0-0.1,0-0.2,0-0.3c0,0,0,0,0-0.1c0,0,0,0,0,0c0.1-0.1,0-0.2,0-0.3c0,0,0-0.1,0-0.1c0,0,0-0.1,0-0.1c0-0.1,0-0.1,0-0.2
	c0-0.1,0-0.1,0-0.2c0.1-0.2,0.1-0.5,0.1-0.7c0.2-1.3,0.5-2.6,0.9-3.9c1.1-3.6,2.7-6.8,5.1-9.7c0.1-0.1,0.1-0.1,0.1-0.2l0,0
	c0.5-0.5,0.9-1,1.4-1.6c0.8-0.7,1.5-1.4,2.3-2.1c0.1-0.1,0.2-0.1,0.3-0.2c0.3-0.2,0.7-0.4,0.9-0.8c0.2-0.1,0.3-0.2,0.5-0.3
	c0.5-0.3,1-0.6,1.4-1c0.2-0.1,0.4-0.2,0.6-0.3c0.4-0.2,0.8-0.4,1.2-0.7C39.6,3.1,39.7,3.1,39.8,3z M33.7,11.2
	c-0.1,0.1-0.2,0.2-0.3,0.3c-3.2,3.8-5.2,8.1-5.9,13.1c-0.4,2.6-0.3,5.2,0.2,7.8c0.8,4.4,2.8,8.3,5.7,11.7c0.2,0.2,0.3,0.3,0.5,0
	c5.3-5.4,10.7-10.7,16-16c0.3-0.3,0.3-0.4,0-0.7c-2.7-2.6-5.3-5.3-8-8c-2.7-2.7-5.4-5.4-8.1-8.1C33.9,11.3,33.8,11.3,33.7,11.2z
	 M77.1,28.4c0-2.1-0.1-3.7-0.4-5.2c-0.9-4.4-2.8-8.3-5.7-11.7c-0.2-0.2-0.3-0.2-0.5,0c-1.4,1.4-2.8,2.8-4.2,4.2
	c-4,4-7.9,7.9-11.9,11.9c-0.1,0.1-0.3,0.2-0.1,0.5c5.4,5.4,10.8,10.8,16.2,16.2c0.2,0.2,0.3,0.2,0.4,0C75,39.5,77.1,34,77.1,28.4z
	 M50.8,24.5c0-0.1,0.1-0.1,0.1-0.1c0-2.9,0-5.7,0-8.6c0-0.2,0-0.3-0.2-0.4c-3.2-3.2-6.4-6.4-9.6-9.6c-0.1-0.1-0.2-0.2-0.4-0.1
	c-1.7,0.9-3.3,2-4.8,3.3c-0.3,0.2-0.2,0.3,0,0.6c3.7,3.7,7.4,7.4,11.1,11.1C48.2,21.9,49.5,23.2,50.8,24.5z M53.5,24.5
	C53.6,24.5,53.6,24.5,53.5,24.5c0.1,0,0.2-0.1,0.3-0.2c4.9-4.9,9.9-9.9,14.8-14.8c0.2-0.2,0.2-0.3,0-0.5c-1.5-1.2-3-2.3-4.7-3.2
	c-0.2-0.1-0.4-0.1-0.6,0.1c-3.2,3.2-6.4,6.4-9.6,9.6c-0.2,0.2-0.3,0.4-0.3,0.6c0,2.7,0,5.4,0,8.1C53.5,24.3,53.5,24.4,53.5,24.5z
	 M50.8,31.1c-0.1,0.1-0.2,0.2-0.2,0.2c-4.9,4.9-9.8,9.8-14.7,14.7c-0.2,0.2-0.2,0.3,0,0.5c1.5,1.2,3,2.3,4.7,3.2
	c0.2,0.1,0.3,0.1,0.5-0.1c3.2-3.2,6.4-6.4,9.6-9.6c0.1-0.1,0.2-0.2,0.2-0.4C50.8,36.9,50.8,34,50.8,31.1z M53.6,31
	c0,0.1,0,0.2,0,0.2c0,2.8,0,5.5,0,8.3c0,0.2,0.1,0.3,0.2,0.4c3.2,3.2,6.5,6.5,9.7,9.7c0.2,0.2,0.3,0.2,0.6,0.1
	c1.6-0.9,3.1-1.9,4.5-3.1c0.3-0.3,0.3-0.4,0-0.7c-4.1-4.1-8.2-8.2-12.3-12.3C55.3,32.8,54.5,31.9,53.6,31z M53.5,43.7
	C53.5,43.7,53.5,43.7,53.5,43.7c0,3,0,5.8,0,8.7c0,0.3,0.1,0.2,0.3,0.2c1.3-0.1,2.6-0.3,3.9-0.6c1.1-0.3,2.2-0.6,3.3-1
	C58.5,48.6,56,46.1,53.5,43.7z M60.9,4.5c0,0-0.1,0-0.1-0.1c-2.2-0.8-4.5-1.3-6.8-1.5c-0.3,0-0.4,0-0.4,0.4c0,2.7,0,5.5,0,8.2
	c0,0.1,0,0.2,0,0.3C56,9.4,58.4,6.9,60.9,4.5z M50.8,43.8c-2.4,2.4-4.9,4.9-7.3,7.3c0,0,0,0,0.1,0c2.2,0.8,4.4,1.3,6.7,1.5
	c0.5,0,0.5,0,0.5-0.5c0-2.5,0-5,0-7.5C50.8,44.3,50.8,44.1,50.8,43.8z M50.8,11.6C50.8,11.6,50.8,11.6,50.8,11.6c0-2.8,0-5.6,0-8.4
	c0-0.2-0.1-0.2-0.3-0.2C49.3,3,48,3.2,46.7,3.5c-1.1,0.2-2.1,0.5-3.1,0.9C46,6.8,48.4,9.2,50.8,11.6z"/>
</svg>
