<?xml version="1.0" encoding="utf-8"?>
<!-- Roman Inozemtsev: https://github.com/mir-one/  -->
<svg version="1.1" id="Слой_1" xmlns="http://www.w3.org/2000/svg" xmlns:xlink="http://www.w3.org/1999/xlink" x="0px" y="0px"
	 viewBox="0 0 67 67" style="enable-background:new 0 0 67 67;" xml:space="preserve">
<style type="text/css">
	.st0{fill:#EE4036;}
	.st1{fill:#FFFFFF;}
	.st2{fill:#BE1E2D;}
	.st3{fill:#58595B;}
</style>
<g>
	<path class="st0" d="M2.6,33.5c0-17.1,13.9-30.9,30.9-30.9c16.4,0,29.8,12.8,30.8,29l2.6,2.6c0-0.2,0-0.5,0-0.7C67,15,52,0,33.5,0
		C15,0,0,15,0,33.5C0,52,15,67,33.5,67c0.2,0,0.5,0,0.7,0l-2.6-2.6C15.4,63.4,2.6,49.9,2.6,33.5z"/>
	<path class="st1" d="M44.6,11.8l0.5,0.5C44.9,12.1,44.8,12,44.6,11.8z"/>
	<path class="st2" d="M67,34.2l-2.6-2.6c0,0.6,0.1,1.3,0.1,1.9c0,17.1-13.9,30.9-30.9,30.9c-0.6,0-1.3-0.1-1.9-0.1l2.6,2.6
		C52.1,66.6,66.6,52.1,67,34.2z"/>
	<path class="st1" d="M64.3,31.6c-1-16.2-14.4-29-30.8-29C16.4,2.6,2.6,16.4,2.6,33.5c0,16.4,12.8,29.9,29,30.8
		c0.6,0,1.3,0.1,1.9,0.1c17.1,0,30.9-13.9,30.9-30.9C64.4,32.9,64.4,32.2,64.3,31.6z M54,54c-6.7,6.7-15.9,9.4-24.6,8.2
		c-6-0.8-11.8-3.6-16.5-8.2C1.7,42.7,1.7,24.3,13,13C24.3,1.7,42.7,1.7,54,13c4.6,4.6,7.3,10.4,8.2,16.4C63.4,38.1,60.7,47.3,54,54z
		"/>
	<path class="st0" d="M47.1,23c-0.1-2.7-1.1-5.2-2.5-7.2c-0.6-0.8-1.3-1.4-2.1-2.1c-2.3-1.8-5.2-3-8.4-3c-7.2,0-13.2,5.7-13.6,12.9
		v9.6v2.1v0.4v8.4c0,3.5,1.3,6.6,3.5,9c2.5,2.4,5.9,4,9.6,4c7.6,0,13.7-6.2,13.7-13.7v-8.7L47.1,23z M38.6,48
		c-1.3,2.5-3.5,3.2-5.9,3.9c0.1-0.1,0.1-0.2,0.2-0.3c-0.3,0.1-0.6,0.2-0.9,0.3c3.5-4.8,2.7-6.7,1.2-10.3c-0.6-1.5-1.5-2.9-2.2-4.4
		c-0.9-2-1.9-4-2.5-6.2c-0.3-1-0.4-1.9-0.4-2.9c-0.4-6.1,3.2-11.4,8.3-12.7c-0.2,0.2-0.3,0.3-0.4,0.4c0.4-0.1,0.7-0.3,1.1-0.4
		c-0.7,0.7-1,1.1-1.4,1.6c-1.8,2-2.7,4.2-2.9,6.4c-0.3,3,0.6,6.2,2.2,9.3c1.2,2.6,2.2,4.2,3.1,6.4C39.3,42,40.2,44.9,38.6,48z"/>
	<path class="st2" d="M44.5,11.7L44.5,11.7c0,0,0.1,0.1,0.1,0.1L44.5,11.7z"/>
	<path class="st0" d="M54,13C42.7,1.7,24.3,1.7,13,13C1.7,24.3,1.7,42.7,13,54c4.6,4.6,10.4,7.3,16.5,8.2l-5.7-5.7
		c-0.8-0.7-1.5-1.4-2.2-2.2c-0.1-0.1-0.1-0.1-0.2-0.2c-2.5-2.9-4.1-6.6-4.1-10.8v-4.5V23.7v-0.8c0.4-8.6,7.5-15.4,16.2-15.4
		c4.2,0,8.1,1.6,11,4.2l0,0l0.1,0.1c0.2,0.2,0.3,0.3,0.5,0.5l17.1,17.1C61.3,23.4,58.6,17.6,54,13z"/>
	<path class="st2" d="M54,54c6.7-6.7,9.4-15.9,8.2-24.6L45.1,12.3c0.3,0.4,0.7,0.7,1,1.1c2.5,2.7,4,6.2,4.2,10.1v0.8V44
		c0,8.9-7.2,16.2-16.2,16.2c-3.9,0-7.5-1.4-10.3-3.7l5.7,5.7C38.2,63.4,47.3,60.7,54,54z"/>
	<path class="st3" d="M38.1,39c-0.9-2.2-1.9-3.8-3.1-6.4c-1.6-3.1-2.5-6.3-2.2-9.3c0.2-2.3,1.1-4.5,2.9-6.4c0.4-0.5,0.7-0.9,1.4-1.6
		c-0.4,0.1-0.7,0.3-1.1,0.4c-0.4,0.4-0.7,0.8-1,1.2c-2,2.2-2.9,4.6-3,7.2c-0.1,2.8,0.8,5.7,2.3,8.5c1.2,2.6,2.2,4.2,3.1,6.4
		c1.2,2.9,2.1,5.8,0.5,8.9c-1.1,2.2-3,3-5,3.6c-0.1,0.1-0.1,0.2-0.2,0.3c2.4-0.7,4.6-1.4,5.9-3.9C40.2,44.9,39.3,42,38.1,39z"/>
	<path class="st1" d="M37.4,39c-0.9-2.2-1.9-3.8-3.1-6.4c-1.5-2.8-2.4-5.7-2.3-8.5c0.1-2.5,0.9-5,3-7.2c0.3-0.4,0.6-0.7,1-1.2
		c0.1-0.1,0.2-0.3,0.4-0.4c-5.2,1.4-8.7,6.7-8.3,12.7c0.1,0.9,0.2,1.9,0.4,2.9c0.6,2.2,1.6,4.2,2.5,6.2c0.7,1.5,1.6,2.9,2.2,4.4
		c1.5,3.6,2.3,5.5-1.2,10.3c0.3-0.1,0.6-0.2,0.9-0.3c2.1-0.6,3.9-1.4,5-3.6C39.5,44.9,38.6,42,37.4,39z"/>
	<path class="st3" d="M49.7,23.7v19.7c0,8.9-7.2,16.2-16.2,16.2c-4.4,0-8.4-1.8-11.3-4.6l1.6,1.6c2.8,2.3,6.4,3.7,10.3,3.7
		c9,0,16.2-7.3,16.2-16.2V24.3v-0.8c-0.2-3.9-1.7-7.4-4.2-10.1c2.1,2.6,3.5,5.9,3.6,9.4V23.7z"/>
	<path class="st3" d="M42.6,13.6c-2.4-2.2-5.6-3.5-9.1-3.5c-7.2,0-13.2,5.7-13.6,12.9v9.6v2.1v1.6v7.2c0,3.8,1.6,7.2,4.1,9.7
		c-2.2-2.4-3.5-5.5-3.5-9v-8.4v-0.4v-2.1v-9.6c0.4-7.2,6.4-12.9,13.6-12.9c3.2,0,6.1,1.1,8.4,3c0.8,0.6,1.5,1.3,2.1,2.1
		C44,14.9,43.3,14.2,42.6,13.6z"/>
	<path class="st1" d="M46.1,13.4c-0.3-0.4-0.6-0.8-1-1.1l-0.5-0.5c0,0-0.1-0.1-0.1-0.1c-2.9-2.6-6.7-4.2-11-4.2
		c-8.7,0-15.8,6.8-16.2,15.4v0.8v15.2v4.5c0,4.2,1.6,7.9,4.1,10.8c0.2,0.2,0.3,0.4,0.5,0.6l0.2,0.2c2.9,2.9,6.9,4.6,11.3,4.6
		c9,0,16.2-7.3,16.2-16.2V23.7v-0.8C49.5,19.3,48.2,16,46.1,13.4z M47.3,43.5c0,7.5-6.1,13.7-13.7,13.7c-3.8,0-7.2-1.6-9.6-4
		c-2.5-2.5-4.1-5.9-4.1-9.7v-7.2v-1.6v-2.1V23c0.4-7.2,6.4-12.9,13.6-12.9c3.5,0,6.7,1.3,9.1,3.5c0.7,0.7,1.4,1.4,2,2.2
		c1.5,2.1,2.4,4.5,2.5,7.2l0.2,11.8V43.5z"/>
</g>
</svg>
