<?xml version="1.0" encoding="utf-8"?>
<!-- Roman Inozemtsev: https://github.com/mir-one/  -->
<svg version="1.1" id="Слой_1" xmlns="http://www.w3.org/2000/svg" xmlns:xlink="http://www.w3.org/1999/xlink" x="0px" y="0px"
	 viewBox="0 0 67 67" style="enable-background:new 0 0 67 67;" xml:space="preserve">
<style type="text/css">
	.st0{fill:#FFFFFF;}
	.st1{fill:url(#SVGID_1_);}
	.st2{fill:url(#SVGID_2_);}
	.st3{fill:#F7F8F9;}
</style>
<path class="st0" d="M33.6,2.5C16.5,2.5,2.7,16.4,2.7,33.4c0,17.1,13.8,30.9,30.9,30.9c0.3,0,0.7,0,1-0.1
	c15.5-0.5,28.2-12.4,29.7-27.7c0.1-1,0.2-2.1,0.2-3.1C64.5,16.4,50.6,2.5,33.6,2.5z M54,53.9c-5.9,5.9-13.7,8.7-21.4,8.4
	c-7.1-0.2-14.1-3-19.5-8.4C1.8,42.6,1.8,24.3,13.1,13C24.4,1.6,42.7,1.6,54,13c6,6,8.8,14,8.4,21.8C62.1,41.7,59.4,48.6,54,53.9z"/>
<linearGradient id="SVGID_1_" gradientUnits="userSpaceOnUse" x1="33.5681" y1="-25.1366" x2="33.5681" y2="93.2288">
	<stop  offset="0" style="stop-color:#00ADEE"/>
	<stop  offset="1" style="stop-color:#00A551"/>
</linearGradient>
<path class="st1" d="M33.6,0C15.1,0,0.1,15,0.1,33.4s15,33.4,33.4,33.4c1.2,0,2.3-0.1,3.4-0.2c15.1-1.5,27.1-13.1,29.5-27.9
	c0.3-1.8,0.5-3.5,0.5-5.4C67,15,52,0,33.6,0z M34.6,64.3c-0.3,0-0.7,0.1-1,0.1c-17.1,0-30.9-13.8-30.9-30.9
	c0-17.1,13.8-30.9,30.9-30.9c17.1,0,30.9,13.8,30.9,30.9c0,1.1-0.1,2.1-0.2,3.1C62.7,51.8,50.1,63.8,34.6,64.3z"/>
<linearGradient id="SVGID_2_" gradientUnits="userSpaceOnUse" x1="33.5516" y1="-24.8032" x2="33.5516" y2="92.2584">
	<stop  offset="0" style="stop-color:#25A9E0"/>
	<stop  offset="1" style="stop-color:#00A551"/>
</linearGradient>
<path class="st2" d="M54,13c-11.3-11.3-29.6-11.3-41,0c-11.3,11.3-11.3,29.6,0,40.9c5.4,5.4,12.5,8.2,19.5,8.4
	c7.7,0.2,15.5-2.5,21.4-8.4c5.3-5.3,8.1-12.2,8.4-19.1C62.8,26.9,60,18.9,54,13z"/>
<path class="st3" d="M19.7,5.8c1.1-0.5,2.2-1,3.2-1.4c0.3-0.1,0.7-0.1,1-0.3c0.7-0.2,1.5-0.4,2.2-0.6c0,0,0.1,0,0.1,0
	c0.1,0,0.2,0,0.2-0.1c1.2-0.3,2.3-0.4,3.5-0.6c1.9-0.2,3.9-0.3,5.8-0.1c3.1,0.2,6.1,0.9,8.9,2c3.1,1.2,6,2.9,8.6,5.1
	c0.1,0.1,0.2,0.2,0.3,0.2c0,0,0,0,0,0c0.3,0.2,0.6,0.5,0.8,0.7c1.5,1.5,2.9,3,4.1,4.7c2.9,4,4.7,8.4,5.5,13.2
	c0.6,3.8,0.5,7.6-0.3,11.3c0,0.1,0,0.2,0,0.3c0,0,0,0,0,0c-0.2,0.8-0.4,1.5-0.6,2.3c0,0,0,0.1,0,0.1c-0.1,0.3-0.2,0.6-0.3,0.9
	c0,0,0,0,0,0c-0.1,0.2-0.2,0.4-0.2,0.6c0,0,0,0,0,0c-0.2,0.6-0.5,1.2-0.7,1.8l0,0c0,0,0,0,0,0c-0.2,0.3-0.3,0.7-0.5,1
	c0,0,0,0.1-0.1,0.1c-0.3,0.6-0.7,1.3-1,1.9c-0.1,0-0.1,0.1-0.1,0.1c-1,1.6-2.1,3.1-3.3,4.6c-3,3.5-6.7,6.2-10.9,8
	c-3.1,1.4-6.3,2.2-9.6,2.5c-1.1,0.1-2.2,0.1-3.4,0.1c-0.3,0-0.6,0-0.9,0c-0.1,0-0.1,0-0.2,0c-1.2,0-2.4-0.2-3.7-0.4
	c-0.6-0.1-1.2-0.3-1.8-0.4c-0.9-0.2-1.8-0.5-2.6-0.8c-0.5-0.2-0.9-0.3-1.4-0.5c-0.3-0.1-0.7-0.3-1-0.4c-0.8-0.4-1.6-0.7-2.3-1.1
	c0,0,0,0-0.1,0c0-0.1-0.1-0.1-0.2-0.1c0,0-0.1-0.1-0.1-0.1l0,0c0-0.1-0.1-0.1-0.2-0.1c-0.1-0.1-0.2-0.2-0.3-0.2
	c-0.1-0.1-0.2-0.1-0.2-0.2c-0.1,0-0.2-0.1-0.2-0.1c-0.1-0.2-0.3-0.2-0.5-0.3c0,0-0.1,0-0.1,0c-0.2-0.1-0.4-0.3-0.7-0.4
	c0,0,0,0-0.1,0c-1-0.8-2-1.5-2.9-2.3c-3.4-2.9-6-6.4-7.9-10.4c-0.3-0.6-0.5-1.2-0.8-1.8c-0.3-0.3-0.1-0.8-0.4-1.2
	c-0.5-1.4-0.8-2.8-1.1-4.2c0-0.1,0-0.1,0-0.2c0-0.1,0-0.1-0.1-0.2c0-0.3-0.1-0.5-0.1-0.8c0-0.1,0-0.1,0-0.2c0,0,0-0.1,0-0.1
	c0-0.3,0-0.5-0.1-0.8c0-0.5-0.1-1-0.1-1.5c0-0.1,0-0.1,0-0.2c0-0.8,0-1.6-0.1-2.3c0-0.1,0-0.1,0-0.2c0.1-0.4,0.1-0.7,0.1-1.1
	c0-0.1,0-0.2,0-0.3c0,0,0-0.1,0-0.1c0-0.1,0-0.3,0-0.4c0,0,0,0,0-0.1c0,0,0,0,0,0c0.1-0.1,0.1-0.2,0-0.3c0,0,0-0.1,0-0.1
	c0,0,0-0.1,0-0.1c0-0.1,0-0.1,0-0.2c0-0.1,0-0.1,0-0.2C3,29.7,2.9,29.4,3,29.1c0.3-1.5,0.5-2.9,1-4.4c1.2-4,3-7.5,5.6-10.8
	c0.1-0.1,0.1-0.2,0.1-0.2l0,0c0.5-0.6,1-1.2,1.6-1.7c0.9-0.8,1.7-1.6,2.6-2.4c0.1-0.1,0.2-0.2,0.3-0.3c0.4-0.3,0.8-0.5,1-0.9
	c0.2-0.1,0.4-0.2,0.6-0.3c0.5-0.4,1.1-0.7,1.6-1.1C17.6,7,17.8,6.9,18,6.7c0.4-0.2,0.9-0.5,1.3-0.7C19.5,6,19.6,5.9,19.7,5.8z
	 M12.9,14.9c-0.1,0.1-0.2,0.2-0.3,0.4C9,19.5,6.8,24.3,6.1,29.8c-0.4,2.9-0.3,5.8,0.3,8.7c0.9,4.9,3.1,9.3,6.3,13.1
	c0.2,0.3,0.3,0.3,0.6,0c5.9-6,11.9-11.9,17.8-17.9c0.3-0.3,0.3-0.4,0-0.7c-3-3-5.9-5.9-8.9-8.9c-3-3-6-6-9-9
	C13.1,15.1,13,15,12.9,14.9z M61.3,34.1c0-2.4-0.2-4.1-0.5-5.8c-1-4.9-3.1-9.2-6.3-13c-0.2-0.2-0.3-0.3-0.6,0
	c-1.6,1.6-3.1,3.1-4.7,4.7c-4.4,4.4-8.8,8.8-13.2,13.2c-0.2,0.2-0.4,0.3-0.1,0.6c6,6,12,12,18,18c0.2,0.2,0.3,0.2,0.5,0
	C59,46.4,61.2,40.3,61.3,34.1z M32,29.7c0.1-0.1,0.1-0.1,0.1-0.2c0-3.2,0-6.4,0-9.5c0-0.2-0.1-0.3-0.2-0.4
	c-3.6-3.6-7.1-7.1-10.7-10.7c-0.2-0.2-0.3-0.2-0.5-0.1c-1.9,1-3.7,2.2-5.3,3.6c-0.3,0.3-0.3,0.4,0,0.6c4.1,4.1,8.2,8.2,12.3,12.3
	C29.1,26.8,30.5,28.3,32,29.7z M35,29.8c0,0,0.1,0,0.1,0.1c0.1-0.1,0.1-0.2,0.2-0.2c5.5-5.5,11-11,16.5-16.5c0.2-0.2,0.2-0.4,0-0.6
	c-1.6-1.4-3.3-2.6-5.2-3.6C46.3,8.8,46.2,8.8,46,9c-3.5,3.6-7.1,7.1-10.6,10.6c-0.2,0.2-0.3,0.4-0.3,0.7c0,3,0,6,0,9
	C35,29.5,35,29.6,35,29.8z M32,37.1c-0.1,0.1-0.2,0.2-0.3,0.2c-5.5,5.5-10.9,10.9-16.4,16.4c-0.2,0.2-0.3,0.3,0,0.5
	c1.6,1.4,3.4,2.6,5.3,3.6c0.2,0.1,0.3,0.1,0.5-0.1c3.6-3.6,7.2-7.2,10.7-10.7c0.1-0.1,0.2-0.2,0.2-0.4C32,43.5,32,40.4,32,37.1z
	 M35.1,37c0,0.1-0.1,0.2-0.1,0.2c0,3.1,0,6.2,0,9.3c0,0.2,0.1,0.3,0.2,0.5c3.6,3.6,7.2,7.2,10.8,10.8c0.2,0.2,0.4,0.3,0.6,0.1
	c1.8-1,3.4-2.1,5-3.4c0.4-0.3,0.4-0.4,0-0.8C47.1,49.1,42.6,44.5,38,40C37,39,36.1,38,35.1,37z M35.1,51.1
	C35.1,51.1,35,51.1,35.1,51.1c0,3.3,0,6.5,0,9.7c0,0.3,0.1,0.3,0.3,0.3c1.5-0.1,2.9-0.3,4.4-0.6c1.2-0.3,2.4-0.6,3.6-1.1
	C40.6,56.6,37.8,53.9,35.1,51.1z M43.2,7.4c0,0-0.1,0-0.1-0.1c-2.5-0.9-5-1.4-7.6-1.6c-0.4,0-0.5,0-0.5,0.4c0,3,0,6.1,0,9.1
	c0,0.1,0,0.2,0,0.3C37.8,12.9,40.5,10.2,43.2,7.4z M32,51.3c-2.7,2.7-5.4,5.4-8.1,8.1c0,0,0,0,0.1,0c2.4,0.9,4.9,1.4,7.5,1.6
	c0.6,0,0.6,0,0.6-0.6c0-2.8,0-5.6,0-8.4C32,51.8,32,51.6,32,51.3z M32,15.4C32,15.4,32,15.4,32,15.4c0-3.2,0-6.3,0-9.4
	c0-0.2-0.1-0.3-0.3-0.2c-1.4,0.1-2.9,0.3-4.3,0.6c-1.2,0.3-2.3,0.6-3.4,1C26.7,10.1,29.3,12.7,32,15.4z"/>
</svg>
