<?xml version="1.0" encoding="utf-8"?>
<!-- Roman Inozemtsev: https://github.com/mir-one/  -->
<svg version="1.1" id="Слой_1" xmlns="http://www.w3.org/2000/svg" xmlns:xlink="http://www.w3.org/1999/xlink" x="0px" y="0px"
	 viewBox="0 0 66.8 66.8" style="enable-background:new 0 0 66.8 66.8;" xml:space="preserve">
<style type="text/css">
	.st0{fill:#4CAF50;}
</style>
<path class="st0" d="M16.8,51c2.3-2.1,4.7-4.1,7-6.3c0.5,0.7,1.1,1.3,1.7,1.7c1.4,1.1,3.1,1.7,4.9,2.2c2.5,0.6,5.1,0.9,7.6,0.6
	c1.2-0.1,2.3-0.3,3.4-0.8c0.7-0.3,1.3-0.8,1.6-1.4c0.7-1.5,0.8-3,0.5-4.5c-0.1-0.4-0.3-0.7-0.5-1.1c-0.9-1.1-1.9-2-3.3-2.6
	c-0.7-0.3-1.4-0.4-2-0.7c-3-0.9-6-2-8.9-3.2c-1.9-0.8-3.7-1.7-5.3-2.8c-1-0.7-1.9-1.5-2.7-2.4c-1.1-1.3-1.6-2.8-1.7-4.5
	C19,23.6,19,22,19.2,20.4c0.8-5.6,3.9-9.4,9.3-11.1c1.4-0.4,2.7-0.7,4.2-0.8c0-2.7,0.1-5.4,0.1-8.1c1.9,0.1,3.7,0.1,5.6,0.1
	c0,2.7-0.1,5.3-0.1,8c0.6,0.1,1.2,0.1,1.7,0.2c3.2,0.5,6.2,1.3,9,3c1.1,0.6,2.1,1.5,3,2.6c-2,2.1-4.1,4.3-6.1,6.3
	c-0.2-0.1-0.5-0.4-0.6-0.6c-1.9-1.6-4.2-2.5-6.8-2.6c-1.4-0.1-2.8-0.1-4.2-0.1c-1.4,0-2.7,0.4-3.8,1.3c-1.7,1.4-1.7,3.6,0,4.9
	c0.8,0.6,1.7,1,2.6,1.4c2.3,1,4.8,1.7,7.2,2.4c2.9,1,5.9,2,8.4,3.7c3.1,1.9,4.8,4.7,5.5,8.4c0.4,2.7,0.3,5.4-0.6,8.1
	c-0.9,2.5-2.3,4.6-4.3,6.4c-1.5,1.3-3.2,2.5-5.1,3.4c-2,0.9-4.2,1.5-6.4,1.6c-0.2,0-0.3,0.1-0.5,0c0,2.5-0.1,5.1-0.1,7.6
	c-1.9,0-3.7-0.1-5.6-0.1c0-2.6,0.1-5.3,0.2-7.9c-0.6-0.1-1.1-0.2-1.7-0.3c-3.4-0.7-6.7-1.6-9.6-3.4c-1.4-0.9-2.7-1.8-3.5-3.2
	C17,51.2,16.9,51.1,16.8,51z"/>
</svg>
