<?xml version="1.0" encoding="utf-8"?>
<!-- Generator: Adobe Illustrator 21.0.0, SVG Export Plug-In . SVG Version: 6.00 Build 0)  -->
<svg version="1.1"
	 id="Слой_1" image-rendering="optimizeQuality" shape-rendering="geometricPrecision" text-rendering="geometricPrecision"
	 xmlns="http://www.w3.org/2000/svg" xmlns:xlink="http://www.w3.org/1999/xlink" x="0px" y="0px" viewBox="0 0 371.1 106.1"
	 style="enable-background:new 0 0 371.1 106.1;" xml:space="preserve">
<style type="text/css">
	.st0{fill:#95E1D3;}
</style>
<g id="Слой_x0020_1">
	<path class="st0" d="M0,98.4l23.8-64.1c-4.7,1.6-8.3,4.1-11,7.7c-2.6,3.6-3.9,8-3.9,13.3c0,2.7,0.3,4.6,1,5.8
		c0.1,0.2,0.2,0.4,0.2,0.6c-6.6,0-9.9-2.8-9.9-8.5c0-5.9,3.2-11.5,9.6-16.9c2.8-2.4,6-4.3,9.6-5.7c3.6-1.5,7-2.2,10.2-2.2
		c3.2,0,6.1,0.4,8.5,1.3l-2.1,49.2l20.4-49.2l13.4,0.1L60,98.4H46.6l6-41.8L35,98.4H21.2l1.9-42.1L7.5,98.4H0z M69.5,91
		c-0.7-1.9-1-4.1-1-6.5c0-2.4,0.2-4.9,0.6-7.3c0.4-2.4,1.1-4.9,2-7.3c1.9-5.3,4.7-9.8,8.3-13.3c3.6-3.5,8-5.2,13.1-5.2
		c2.7,0,4.6,0.5,5.8,1.4c1.2,0.9,1.8,2,1.8,3.4l-0.1,0.7l1.1-5h13.5l-6.7,31.7c-0.3,1-0.4,2-0.4,3c0,2.7,1.3,4,3.8,4
		c3.3,0,5.8-2.9,7.5-8.8h3.9C118.8,93.2,112.5,99,104,99c-5.5,0-8.6-2.9-9.2-8.6C90.8,96.1,86,99,80.6,99C75.2,99,71.5,96.3,69.5,91
		L69.5,91z M82.3,83.1c0,2.8,0.6,4.7,1.7,5.8c0.7,0.7,1.5,1,2.5,1c1.9,0,3.5-0.7,5.1-2.2c1.5-1.5,2.6-3.5,3.1-6l4.4-21
		c0-0.6-0.3-1.3-0.8-2.2c-0.5-0.9-1.6-1.4-3.4-1.4S91.6,58,90,59.8c-3.9,4.5-6.4,10.9-7.4,19.2C82.4,80.4,82.3,81.7,82.3,83.1z
		 M118,87.8c0-1.8,0.2-3.8,0.7-6.1l6.3-29.9h13.4l-6.7,31.7c-0.2,1-0.3,1.9-0.3,2.6c0,2.6,0.9,3.8,2.8,3.8c3.3,0,5.8-2.7,7.6-8.2
		l6.3-29.9h13.4l-6.7,31.7c-0.2,0.9-0.3,1.8-0.3,2.6c0,2.6,0.9,3.8,2.8,3.8c3.3,0,5.8-2.7,7.5-8.2l6.3-29.9h13.4l-6.8,31.7
		c-0.2,1.1-0.4,2.2-0.4,3.3c0,2.1,1.3,3.1,3.8,3.1c3.5,0,6-2.8,7.6-8.2h3.9c-4,11.5-10.3,17.3-18.8,17.3c-5.5,0-8.6-3-9.2-8.9
		c-3.6,5.9-8.3,8.9-13.8,8.9c-5.6,0-8.7-3-9.3-8.9C138.1,96,133.5,99,128,99c-2.8,0-5.1-0.9-7.1-2.6C119,94.6,118,91.7,118,87.8
		L118,87.8z M185.4,98.4l10-46.7h13.4l-4,18.5l5.8-6l4.4-4.9c2.9-3.2,5.3-5.4,7-6.6c1.7-1.2,3.7-1.8,6-1.8c2.2,0,3.9,0.6,4.9,1.8
		c1,1.2,1.6,2.7,1.6,4.5s-0.5,3.3-1.5,4.4c-1,1.1-2.5,1.6-4.4,1.6c-1.9,0-3.3-0.5-4-1.6c-0.7-1-1.1-1.8-1.1-2.3v-0.9
		c-1.8,1.1-3.3,2.3-4.7,3.9l-3.5,3.8c-0.9,1-1.8,2-2.8,3c1.4-0.2,2.7-0.4,3.9-0.4c3.4,0,5.7,0.7,7,2.3c1.3,1.5,1.9,3.7,1.9,6.4
		c0,0.7-0.1,1.4-0.2,2.2l-0.4,2.2c-0.4,2.2-0.5,3.7-0.5,4.7c0,2.3,1.2,3.5,3.7,3.5c1.9,0,3.3-0.7,4.4-2c1-1.3,2.1-3.4,3.4-6.3h3.9
		c-3.9,11.5-9.6,17.3-17,17.3c-3.8,0-6.6-0.9-8.5-2.8c-1.9-1.9-2.8-4.4-2.8-7.6c0-1.5,0.2-3.1,0.6-4.8c0.4-1.7,0.6-3,0.6-4.1
		c0-3-1.2-4.5-3.5-4.5c-1.1,0-2.1,0.4-3.2,1.3l-2.6,2.2l-4.2,19.7H185.4z M235,87.8c0-1.8,0.2-3.8,0.7-6.1l6.3-29.9h13.4l-6.7,31.7
		c-0.2,1-0.3,1.9-0.3,2.6c0,2.6,0.9,3.8,2.8,3.8c3.3,0,5.8-2.7,7.6-8.2l6.3-29.9h13.4l-6.7,31.7c-0.3,1.1-0.4,2.1-0.4,3.3
		c0,2.1,1.3,3.2,3.8,3.2c3.5,0,6-2.8,7.6-8.2h3.9C282.8,93.2,276.6,99,268,99c-5.6,0-8.7-3-9.3-8.9c-3.7,5.9-8.3,8.9-13.8,8.9
		c-2.8,0-5.1-0.9-7.1-2.6C235.9,94.6,235,91.7,235,87.8L235,87.8z M279.3,98.4l9.9-46.7h13.4l-4,18.7h10.4l4.2-18.7h12.9l-5,23.2
		l-1.6,7.2c-0.7,1.8-1,3.1-1,3.9c0,2.6,1.2,3.9,3.7,3.9c1.9,0,3.4-0.7,4.5-2.2c1.1-1.4,2.2-3.4,3.3-6.1h3.9
		c-3.9,11.5-9.7,17.3-17.4,17.3c-3.6,0-6.3-0.9-8.2-2.8c-1.9-1.9-2.8-4.3-2.8-7.1c0-2.1,0.7-6.5,2.1-13h-10.4l-4.7,22.4H279.3
		L279.3,98.4z M329.9,91.2c-0.7-1.8-1.1-3.8-1.1-6.1c0-2.3,0.2-4.6,0.6-7c0.4-2.3,1-4.8,1.8-7.2c2.8-8.4,12.8-22.1,23.1-21.4
		c17.3,1.2,16.1,24.6,4.5,41.7c-3.7,5.5-9.1,7.7-14.9,7.7C336.6,98.8,332,96.3,329.9,91.2L329.9,91.2z M342.7,83.2
		c0,3.1,0.3,5.1,0.8,5.9c0.5,0.8,1.1,1.4,1.7,1.6c0.6,0.2,1.4,0.3,2.5,0.3c8,0,17.1-34.3,7.1-34.3c-2.8,0-5.6,3.2-8.2,9.6
		C344,72.5,342.7,78.2,342.7,83.2L342.7,83.2z M295.8,20.1c0-1.1,0.4-2.2,1.1-3.2c1.5-2.1,3.6-3.7,6.6-4.7c1.4-0.5,2.8-0.7,4.3-0.7
		c0.4,0,0.8,0,1.2,0.1l-2.1,10.1c0.8-2,1.8-3.9,3.1-5.8c1.3-1.8,2.4-3,3.4-3.6c1-0.5,1.8-0.8,2.6-0.8c0.8,0,1.3,0.1,1.7,0.4
		c0.6,0.5,0.9,1,0.9,1.6c0,0.9-0.2,1.6-0.7,2c-0.4,0.4-0.9,0.6-1.5,0.6c-1,0-1.6-0.4-2-1.3c-2.1,1.3-4.1,3.8-5.8,7.6
		c0.3,0,0.5,0,0.8,0h0.7c2.2,0,3.6,0.7,4,2.2c0.1,0.4,0.2,1,0.2,1.6c0,0.9-0.3,2.4-0.8,4.4c-0.6,2-0.8,3.3-0.8,3.9
		c0,1.2,0.4,2,1.3,2.4c-1.4,0.4-2.4,0.6-3.1,0.6c-1.9,0-2.8-0.7-2.8-2.2c0-0.9,0.3-2.4,0.8-4.4c0.5-2.1,0.8-3.6,0.8-4.5
		c0-1.5-0.6-2.3-1.9-2.3c-0.3,0-0.8,0-1.3,0.1l-2.7,12.7h-4.9l4.9-22.9c-1.5,0.6-2.6,1.6-3.5,2.8c-0.8,1.2-1.2,2.8-1.2,4.6
		c0,0.9,0.1,1.6,0.4,2.1c0,0.1,0.1,0.2,0.1,0.2c-1.8,0-2.9-0.6-3.4-1.7C295.9,21.3,295.8,20.8,295.8,20.1L295.8,20.1z M316.5,35.8
		c-0.6-0.7-0.9-1.7-0.9-2.8c0-1.1,0.4-1.9,1.2-2.3c0.3-0.1,0.6-0.2,1-0.2c0.4,0,0.8,0.2,1.1,0.5c0.3,0.3,0.5,0.7,0.5,1.3
		c0,0.5-0.1,0.9-0.4,1.2c-0.3,0.3-0.6,0.4-0.9,0.3c0,0.2,0.1,0.5,0.3,0.7c0.2,0.2,0.5,0.4,1.1,0.4c0.5,0,1-0.2,1.3-0.5
		c0.6-0.6,1.1-1.8,1.4-3.5l0.5-2.5c1-4.7,2.4-7.4,4.4-8c0.6-0.2,1.3-0.3,2.1-0.3h5l-2.4,11c-0.2,0.6-0.2,1.1-0.2,1.4
		c0,0.9,0.4,1.4,1.3,1.4c0.7,0,1.2-0.3,1.6-0.8c0.4-0.5,0.8-1.3,1.2-2.2h1.4c-1.4,4.2-3.5,6.2-6.3,6.2c-1.3,0-2.3-0.3-2.9-1
		c-0.7-0.7-1-1.5-1-2.4c0-0.9,0.2-2.5,0.7-4.7l1.5-6.7c-1.1,0-1.9,0.5-2.5,1.4c-0.6,0.9-1.1,2.4-1.5,4.2c-0.4,1.9-0.8,3.3-1,4.4
		c-0.2,1-0.6,1.9-0.9,2.6c-0.8,1.4-2,2.2-3.8,2.2C318,36.9,317.1,36.5,316.5,35.8L316.5,35.8z M335.4,32.8c0-0.6,0.1-1.4,0.2-2.2
		l2.3-10.8h4.9l-2.4,11.4c-0.1,0.3-0.1,0.6-0.1,0.9c0,1,0.3,1.5,1,1.5s1.2-0.3,1.7-0.8c0.4-0.5,0.8-1.2,1.1-2l2.3-11h4.9l-3.3,15.6
		c1-0.3,1.9-0.9,2.5-1.6c0.7-0.7,1.2-1.8,1.7-3.3h1.4c-0.9,2.9-2.3,4.8-4.3,5.7c-0.6,0.3-1.1,0.4-1.6,0.6l-0.5,2.4
		c-0.4,2.2-1.3,3.7-2.6,4.7c-1,0.7-2,1.1-3.3,1.1s-2.2-0.3-2.9-0.8c-0.7-0.5-1.1-1.4-1.1-2.6c0-2,1.9-3.7,5.6-4.9L343,35
		c-1.2,1.3-2.5,1.9-4.1,1.9c-1,0-1.8-0.3-2.5-1C335.7,35.3,335.4,34.3,335.4,32.8L335.4,32.8z M338.9,41.3c0,0.4,0.2,0.8,0.7,1
		c0.1,0.1,0.4,0.1,0.6,0.1c0.3,0,0.6-0.2,1-0.7c0.4-0.5,0.7-1.2,0.9-2.2l0.2-1C340,39.3,338.9,40.2,338.9,41.3L338.9,41.3z
		 M351.6,31.3c0-2.7,0.8-5.1,2.4-7.2c1.8-2.2,4.1-3.3,7-3.3c0.1,0,0.2,0,0.3,0c0.1,0,0.2,0,0.3,0c-0.5-0.5-1-1-1.5-1.5
		c-0.5-0.5-1-0.9-1.4-1.4c-1-1-1.5-2-1.5-2.8c0-0.9,0.3-1.5,1-1.9c0.6-0.4,1.6-0.6,3-0.6h6.6c0.8,0,1.3-0.2,1.5-0.6
		c0.1-0.2,0.3-0.6,0.4-1h1.5c-0.5,2.6-1.2,4.2-1.9,5c-0.4,0.4-0.9,0.7-1.5,0.9c-0.6,0.2-1.3,0.2-2.2,0.2h-3.2
		c-0.3,0-0.4,0.1-0.4,0.4c0,0.1,0.2,0.4,0.5,0.8c2,2.3,3,4.9,3,7.6s-0.7,5.1-2.2,7.3c-0.7,1-1.6,1.9-2.7,2.6c-1,0.7-2.1,1-3.2,1
		c-1.9,0-3.4-0.5-4.3-1.4C352,34.6,351.6,33.2,351.6,31.3L351.6,31.3z M356.9,28.2c-0.4,1.4-0.5,2.5-0.5,3.4c0,0.9,0.1,1.5,0.4,1.9
		c0.3,0.3,0.7,0.5,1.3,0.5s1.1-0.2,1.5-0.5c0.4-0.4,0.8-0.8,1.1-1.4c0.6-1,1-2.3,1.3-3.7c0.3-1.4,0.4-2.6,0.4-3.4s-0.1-1.4-0.3-1.7
		c-0.2-0.3-0.6-0.4-1.1-0.4c-0.5,0-1,0.2-1.5,0.5c-0.5,0.3-0.9,0.8-1.2,1.3C357.8,25.6,357.3,26.8,356.9,28.2L356.9,28.2z"/>
</g>
</svg>
