<?xml version="1.0" encoding="utf-8"?>
<!-- Generator: Adobe Illustrator 21.0.0, SVG Export Plug-In . SVG Version: 6.00 Build 0)  -->
<svg version="1.1"
	 id="Слой_1" image-rendering="optimizeQuality" shape-rendering="geometricPrecision" text-rendering="geometricPrecision"
	 xmlns="http://www.w3.org/2000/svg" xmlns:xlink="http://www.w3.org/1999/xlink" x="0px" y="0px" viewBox="0 0 342.7 99.3"
	 style="enable-background:new 0 0 342.7 99.3;" xml:space="preserve">
<style type="text/css">
	.st0{fill:#FFFFFF;}
</style>
<path class="st0" d="M2.7,78.4h11.8v16.4h-3.2V81.4H5.9v13.5H2.7V78.4z M0,65.3L22.2,5.5c-4.4,1.5-7.8,3.8-10.2,7.1
	c-2.5,3.3-3.7,7.5-3.7,12.4c0,2.5,0.3,4.3,1,5.4c0.1,0.2,0.2,0.4,0.2,0.6c-6.2,0-9.2-2.6-9.2-7.9c0-5.5,3-10.8,8.9-15.8
	c2.6-2.2,5.6-4,8.9-5.4c3.4-1.4,6.5-2,9.5-2c3,0,5.7,0.4,7.9,1.2l-2,45.9L52.6,1.2l12.5,0.1L56,65.3H43.4l5.6-39l-16.3,39H19.8
	L21.5,26L6.9,65.3H0z M64.9,58.4c-0.7-1.8-1-3.8-1-6.1c0-2.3,0.2-4.6,0.6-6.8c0.4-2.3,1-4.6,1.8-6.8c1.8-5,4.4-9.1,7.8-12.4
	c3.4-3.3,7.4-4.9,12.2-4.9c2.5,0,4.3,0.4,5.4,1.3c1.1,0.8,1.7,1.9,1.7,3.2l-0.1,0.6l1-4.7h12.6l-6.2,29.6c-0.3,1-0.4,1.9-0.4,2.8
	c0,2.5,1.2,3.7,3.6,3.7c3.1,0,5.4-2.7,7-8.2h3.7C110.8,60.4,105,65.8,97,65.8c-5.1,0-8-2.7-8.5-8c-3.8,5.4-8.2,8-13.3,8
	C70.1,65.8,66.7,63.3,64.9,58.4L64.9,58.4z M76.8,51c0,2.6,0.5,4.4,1.6,5.4c0.6,0.6,1.4,0.9,2.3,0.9c1.7,0,3.3-0.7,4.7-2.1
	c1.4-1.4,2.4-3.2,2.9-5.6l4.1-19.6c0-0.6-0.2-1.2-0.8-2.1c-0.5-0.8-1.5-1.3-3.1-1.3s-3.2,0.9-4.7,2.6c-3.7,4.2-6,10.1-6.9,17.9
	C76.9,48.4,76.8,49.7,76.8,51z M110.1,55.4c0-1.6,0.2-3.5,0.6-5.7l5.9-27.9h12.5l-6.3,29.6c-0.2,0.9-0.3,1.7-0.3,2.5
	c0,2.4,0.9,3.6,2.6,3.6c3.1,0,5.4-2.6,7.1-7.7l5.9-27.9h12.5l-6.3,29.6c-0.2,0.8-0.3,1.6-0.3,2.5c0,2.4,0.9,3.6,2.7,3.6
	c3,0,5.4-2.6,7-7.7l5.9-27.9h12.5L166,51.3c-0.2,1-0.3,2.1-0.3,3.1c0,2,1.2,2.9,3.6,2.9c3.3,0,5.6-2.6,7.1-7.7h3.7
	c-3.7,10.8-9.6,16.1-17.5,16.1c-5.2,0-8-2.8-8.6-8.3c-3.4,5.5-7.7,8.3-12.9,8.3c-5.2,0-8.1-2.8-8.7-8.3c-3.4,5.5-7.7,8.3-12.9,8.3
	c-2.6,0-4.8-0.8-6.6-2.5C111,61.7,110.1,59,110.1,55.4L110.1,55.4z M173,65.3l9.3-43.5h12.5l-3.7,17.3l5.4-5.6l4.1-4.6
	c2.7-3,4.9-5,6.5-6.2c1.6-1.1,3.5-1.7,5.6-1.7c2.1,0,3.6,0.6,4.6,1.6c1,1.1,1.5,2.5,1.5,4.2s-0.5,3-1.4,4.1c-0.9,1-2.3,1.5-4.1,1.5
	s-3-0.5-3.7-1.5c-0.7-1-1-1.7-1-2.2v-0.8c-1.7,1-3.1,2.2-4.4,3.6l-3.2,3.6c-0.8,0.9-1.7,1.8-2.6,2.8c1.3-0.2,2.5-0.3,3.7-0.3
	c3.1,0,5.3,0.7,6.5,2.1c1.2,1.4,1.8,3.4,1.8,6c0,0.7-0.1,1.3-0.2,2l-0.4,2.1c-0.3,2-0.5,3.5-0.5,4.4c0,2.1,1.2,3.2,3.5,3.2
	c1.8,0,3.1-0.6,4.1-1.8c0.9-1.2,2-3.2,3.2-5.9h3.7c-3.7,10.8-8.9,16.1-15.9,16.1c-3.5,0-6.2-0.9-7.9-2.6c-1.7-1.7-2.6-4.1-2.6-7.1
	c0-1.4,0.2-2.9,0.5-4.5c0.3-1.6,0.5-2.8,0.5-3.8c0-2.8-1.1-4.2-3.3-4.2c-1,0-2,0.4-3,1.2l-2.5,2.1l-3.9,18.3H173z M219.2,55.4
	c0-1.6,0.2-3.5,0.6-5.7l5.9-27.9h12.5L232,51.3c-0.2,0.9-0.3,1.7-0.3,2.5c0,2.4,0.9,3.6,2.6,3.6c3.1,0,5.4-2.6,7.1-7.7l5.9-27.9
	h12.5l-6.3,29.6c-0.3,1-0.4,2-0.4,3c0,2,1.2,3,3.6,3c3.3,0,5.6-2.6,7.1-7.7h3.7c-3.7,10.8-9.5,16.1-17.5,16.1
	c-5.2,0-8.1-2.8-8.7-8.3c-3.4,5.5-7.7,8.3-12.9,8.3c-2.6,0-4.8-0.8-6.6-2.5C220.1,61.7,219.2,59,219.2,55.4L219.2,55.4z M260.5,65.3
	l9.2-43.5h12.5l-3.7,17.4h9.7l3.9-17.4h12l-4.7,21.6l-1.5,6.7c-0.6,1.7-0.9,2.9-0.9,3.6c0,2.4,1.2,3.6,3.5,3.6c1.8,0,3.2-0.7,4.2-2
	c1.1-1.3,2.1-3.2,3.1-5.6h3.7c-3.7,10.8-9.1,16.1-16.2,16.1c-3.4,0-5.9-0.9-7.6-2.6c-1.8-1.8-2.6-4-2.6-6.6c0-2,0.7-6,2-12.2h-9.7
	L273,65.3H260.5L260.5,65.3z M307.7,58.6c-0.7-1.7-1-3.6-1-5.7c0-2.1,0.2-4.3,0.5-6.5c0.3-2.2,0.9-4.5,1.7-6.8
	c2.6-7.9,11.9-20.6,21.5-20c16.1,1.1,15,22.9,4.2,38.9c-3.5,5.1-8.5,7.2-13.9,7.2C314,65.6,309.7,63.3,307.7,58.6L307.7,58.6z
	 M319.6,51.1c0,2.9,0.3,4.7,0.8,5.5c0.5,0.8,1,1.3,1.6,1.5c0.6,0.2,1.3,0.3,2.3,0.3c7.5,0,15.9-32,6.6-32c-2.7,0-5.2,3-7.6,8.9
	C320.8,41.2,319.6,46.4,319.6,51.1L319.6,51.1z M30.1,89.6h-9.8c0.1,0.9,0.5,1.6,1.1,2.1c0.6,0.5,1.4,0.8,2.3,0.8
	c1.1,0,2.1-0.4,2.9-1.2l2.6,1.2c-0.6,0.9-1.4,1.6-2.3,2c-0.9,0.4-1.9,0.7-3.2,0.7c-1.9,0-3.4-0.6-4.6-1.8c-1.2-1.2-1.8-2.7-1.8-4.5
	c0-1.8,0.6-3.4,1.8-4.6c1.2-1.2,2.7-1.8,4.5-1.8c1.9,0,3.5,0.6,4.7,1.8c1.2,1.2,1.8,2.8,1.8,4.8L30.1,89.6z M27.1,87.3
	c-0.2-0.7-0.6-1.2-1.2-1.6c-0.6-0.4-1.3-0.6-2.1-0.6c-0.9,0-1.6,0.2-2.2,0.7c-0.4,0.3-0.8,0.8-1.1,1.5L27.1,87.3L27.1,87.3z
	 M35.6,82.7V84c0.5-0.5,1.1-1,1.8-1.2c0.6-0.3,1.3-0.4,2.1-0.4c1.6,0,2.9,0.6,4,1.8c1.1,1.2,1.7,2.7,1.7,4.6c0,1.8-0.6,3.3-1.7,4.5
	c-1.1,1.2-2.5,1.8-4.1,1.8c-0.7,0-1.4-0.1-2-0.4c-0.6-0.2-1.2-0.7-1.8-1.2v5.7h-3V82.7L35.6,82.7L35.6,82.7z M38.8,85.2
	c-1,0-1.8,0.3-2.4,1c-0.6,0.7-0.9,1.5-0.9,2.6c0,1.1,0.3,2,0.9,2.6c0.6,0.7,1.4,1,2.4,1c0.9,0,1.7-0.3,2.3-1c0.6-0.7,1-1.5,1-2.6
	c0-1-0.3-1.9-0.9-2.6C40.6,85.5,39.8,85.2,38.8,85.2L38.8,85.2z M55.2,90.4l3.8-7.7h2l3,12.2h-3l-1.6-7.1l-3.6,7.1h-1.3l-3.5-7.1
	l-1.6,7.1h-3l3-12.2h2L55.2,90.4L55.2,90.4z M74.6,82.7h3v12.2h-3v-1.3c-0.6,0.6-1.2,1-1.8,1.2c-0.6,0.2-1.3,0.4-1.9,0.4
	c-1.6,0-2.9-0.6-4.1-1.8c-1.1-1.2-1.7-2.7-1.7-4.5c0-1.9,0.6-3.4,1.7-4.6c1.1-1.2,2.5-1.8,4-1.8c0.7,0,1.4,0.1,2.1,0.4
	c0.6,0.3,1.2,0.7,1.8,1.2V82.7z M71.4,85.2c-0.9,0-1.7,0.3-2.4,1c-0.6,0.7-0.9,1.5-0.9,2.6c0,1,0.3,1.9,1,2.6c0.6,0.7,1.4,1,2.3,1
	c1,0,1.8-0.3,2.4-1c0.6-0.7,0.9-1.5,0.9-2.6c0-1.1-0.3-1.9-0.9-2.6C73.2,85.5,72.4,85.2,71.4,85.2L71.4,85.2z M80.7,82.7h3v4.6
	l4.2-4.6h3.7l-5.4,5.9l5.5,6.2h-4.1l-3.6-4.3l-0.3,0.4v3.9h-3L80.7,82.7L80.7,82.7z M91.7,82.7h3.1l3.1,7.6l3.5-7.6h3.1L97,99.3
	h-3.1l2.5-5.3L91.7,82.7L91.7,82.7z M117.2,94.9h-3.1l-3.1-7.7l-3.1,7.7h-3.1l5.2-12.2h2L117.2,94.9L117.2,94.9z M121.8,87.1h0.9
	c1.3,0,2.3,0.1,2.9,0.3c0.7,0.2,1.3,0.6,1.7,1.2c0.5,0.6,0.7,1.4,0.7,2.4c0,0.9-0.2,1.7-0.6,2.3c-0.4,0.6-1,1-1.6,1.2
	c-0.7,0.2-1.6,0.3-2.8,0.3h-4.3V82.7h3L121.8,87.1L121.8,87.1z M121.8,92.5h0.9c0.6,0,1,0,1.2-0.1c0.2-0.1,0.5-0.2,0.6-0.4
	c0.2-0.2,0.3-0.5,0.3-0.8c0-1-0.6-1.6-1.8-1.6h-1.3V92.5L121.8,92.5z M129.4,82.7h11.3v2.9h-4.1v9.2h-3v-9.2h-4.2V82.7z M141.3,82.7
	h3.1l3.1,7.6l3.5-7.6h3.1l-7.6,16.6h-3.1L146,94L141.3,82.7L141.3,82.7z M159,82.7V84c0.5-0.5,1.1-1,1.8-1.2
	c0.6-0.3,1.3-0.4,2.1-0.4c1.6,0,2.9,0.6,4,1.8c1.1,1.2,1.7,2.7,1.7,4.6c0,1.8-0.6,3.3-1.7,4.5c-1.1,1.2-2.5,1.8-4.1,1.8
	c-0.7,0-1.4-0.1-2-0.4c-0.6-0.2-1.2-0.7-1.8-1.2v5.7h-3V82.7L159,82.7L159,82.7z M162.2,85.2c-1,0-1.8,0.3-2.4,1
	c-0.6,0.7-0.9,1.5-0.9,2.6c0,1.1,0.3,2,0.9,2.6c0.6,0.7,1.4,1,2.4,1c0.9,0,1.7-0.3,2.3-1c0.6-0.7,1-1.5,1-2.6c0-1-0.3-1.9-0.9-2.6
	C164,85.5,163.2,85.2,162.2,85.2L162.2,85.2z M174.1,87.1h4.6v-4.4h3v12.2h-3v-5h-4.6v5h-3V82.7h3V87.1z M190.5,82.4
	c1.1,0,2.2,0.3,3.2,0.9c1,0.6,1.8,1.3,2.4,2.3c0.6,1,0.9,2,0.9,3.2c0,1.1-0.3,2.2-0.9,3.2c-0.6,1-1.4,1.8-2.3,2.3
	c-1,0.6-2.1,0.8-3.3,0.8c-1.7,0-3.2-0.6-4.5-1.9c-1.2-1.2-1.9-2.7-1.9-4.5c0-1.9,0.7-3.5,2.1-4.7C187.5,83,188.9,82.4,190.5,82.4
	L190.5,82.4z M190.6,85.3c-0.9,0-1.7,0.3-2.4,1c-0.6,0.7-0.9,1.5-0.9,2.5c0,1.1,0.3,1.9,0.9,2.6c0.6,0.7,1.4,1,2.4,1
	c1,0,1.7-0.3,2.4-1c0.6-0.7,0.9-1.5,0.9-2.5c0-1-0.3-1.9-0.9-2.5C192.3,85.6,191.6,85.3,190.6,85.3z M211.6,89.6h-9.8
	c0.1,0.9,0.5,1.6,1.1,2.1c0.6,0.5,1.4,0.8,2.3,0.8c1.1,0,2.1-0.4,2.9-1.2l2.6,1.2c-0.6,0.9-1.4,1.6-2.3,2c-0.9,0.4-1.9,0.7-3.2,0.7
	c-1.9,0-3.4-0.6-4.6-1.8c-1.2-1.2-1.8-2.7-1.8-4.5c0-1.8,0.6-3.4,1.8-4.6c1.2-1.2,2.7-1.8,4.5-1.8c1.9,0,3.5,0.6,4.7,1.8
	c1.2,1.2,1.8,2.8,1.8,4.8L211.6,89.6z M208.6,87.3c-0.2-0.7-0.6-1.2-1.2-1.6c-0.6-0.4-1.3-0.6-2.1-0.6c-0.9,0-1.6,0.2-2.2,0.7
	c-0.4,0.3-0.8,0.8-1.1,1.5L208.6,87.3L208.6,87.3z M219.4,82.7h3.5l2.4,3.3l2.4-3.3h3.5l-4.1,5.7l4.7,6.4h-3.5l-2.9-4l-2.9,4H219
	l4.6-6.4L219.4,82.7L219.4,82.7z M239.1,82.4c1.1,0,2.2,0.3,3.2,0.9c1,0.6,1.8,1.3,2.4,2.3c0.6,1,0.9,2,0.9,3.2
	c0,1.1-0.3,2.2-0.9,3.2c-0.6,1-1.4,1.8-2.3,2.3c-1,0.6-2.1,0.8-3.3,0.8c-1.7,0-3.2-0.6-4.5-1.9c-1.2-1.2-1.9-2.7-1.9-4.5
	c0-1.9,0.7-3.5,2.1-4.7C236.1,83,237.5,82.4,239.1,82.4L239.1,82.4z M239.1,85.3c-0.9,0-1.7,0.3-2.4,1c-0.6,0.7-0.9,1.5-0.9,2.5
	c0,1.1,0.3,1.9,0.9,2.6c0.6,0.7,1.4,1,2.4,1c1,0,1.7-0.3,2.4-1c0.6-0.7,0.9-1.5,0.9-2.5c0-1-0.3-1.9-0.9-2.5
	C240.9,85.6,240.1,85.3,239.1,85.3L239.1,85.3z M250,89.7v-2.2h0.6c0.4,0,0.8-0.1,1.1-0.3c0.3-0.2,0.5-0.5,0.5-0.9
	c0-0.4-0.1-0.7-0.4-0.9c-0.3-0.2-0.6-0.4-1-0.4c-0.5,0-1.1,0.2-1.9,0.7l-1.2-2.1c1-0.8,2.2-1.3,3.5-1.3c1.2,0,2.2,0.3,2.9,0.9
	c0.8,0.6,1.2,1.4,1.2,2.5c0,1.1-0.6,1.9-1.7,2.6c1.5,0.6,2.3,1.6,2.3,3c0,1.1-0.4,2-1.3,2.7c-0.9,0.7-2,1.1-3.5,1.1
	c-1.6,0-3-0.5-4.1-1.4l1.7-2.1c0.7,0.5,1.4,0.8,2.1,0.8c0.5,0,0.9-0.1,1.2-0.4c0.3-0.2,0.5-0.6,0.5-1c0-0.4-0.1-0.7-0.4-1
	c-0.3-0.3-0.7-0.4-1.2-0.4L250,89.7L250,89.7z M260.4,89.9c-0.7-0.2-1.2-0.6-1.6-1.2c-0.4-0.6-0.6-1.3-0.6-2c0-0.9,0.3-1.7,0.8-2.4
	c0.5-0.7,1.1-1.1,1.8-1.3c0.7-0.2,1.8-0.3,3.3-0.3h3.1v12.2h-3v-4.4h-0.6l-2.9,4.4H257L260.4,89.9L260.4,89.9z M264.1,88.2v-2.9H263
	c-1.2,0-1.7,0.5-1.7,1.5c0,1,0.6,1.5,1.9,1.5H264.1L264.1,88.2z M271.8,94.9h-1.6V82.7h3v7.1l6.2-7.1h1.5v12.2h-3v-7L271.8,94.9
	L271.8,94.9z M271,77.3h2.5c0.2,0.3,0.5,0.5,0.8,0.7c0.3,0.2,0.8,0.2,1.3,0.2c0.5,0,1-0.1,1.4-0.3c0.3-0.1,0.5-0.3,0.7-0.6h2.5
	c-0.1,0.9-0.6,1.7-1.4,2.3c-0.8,0.6-1.8,0.9-3.2,0.9c-0.9,0-1.7-0.1-2.3-0.4c-0.6-0.3-1.1-0.6-1.5-1.1C271.4,78.5,271.1,78,271,77.3
	z M295.9,85.2l-2.5,1.4c-0.5-0.5-0.9-0.8-1.4-1c-0.5-0.2-1-0.3-1.6-0.3c-1.1,0-2.1,0.3-2.8,1c-0.7,0.7-1.1,1.5-1.1,2.6
	c0,1,0.3,1.9,1,2.5c0.7,0.7,1.6,1,2.7,1c1.4,0,2.4-0.5,3.2-1.4l2.4,1.6c-1.3,1.7-3.1,2.5-5.5,2.5c-2.1,0-3.8-0.6-5-1.9
	c-1.2-1.3-1.8-2.7-1.8-4.4c0-1.2,0.3-2.3,0.9-3.2c0.6-1,1.4-1.8,2.5-2.3c1.1-0.6,2.2-0.8,3.5-0.8c1.2,0,2.3,0.2,3.3,0.7
	C294.5,83.6,295.2,84.3,295.9,85.2L295.9,85.2z M297.5,82.7h11.3v2.9h-4.1v9.2h-3v-9.2h-4.2V82.7z M310.9,94.9V82.7h4.9
	c1.6,0,2.7,0.3,3.3,0.9c0.6,0.6,0.9,1.3,0.9,2.1c0,1.2-0.6,2-1.8,2.6c1.6,0.6,2.4,1.6,2.4,3.1c0,0.8-0.2,1.5-0.6,2
	c-0.4,0.5-1,0.9-1.6,1.1c-0.6,0.2-1.6,0.3-2.7,0.3L310.9,94.9L310.9,94.9z M313.9,87.5h1.2c0.5,0,0.9-0.1,1.2-0.4
	c0.3-0.2,0.4-0.5,0.4-0.8c0-0.5-0.1-0.8-0.4-1.1c-0.3-0.3-0.6-0.4-0.9-0.4l-0.4,0h-1V87.5L313.9,87.5z M313.9,92.5h1.5
	c0.6,0,1-0.1,1.3-0.4c0.2-0.3,0.4-0.5,0.4-0.8c0-0.4-0.1-0.8-0.4-1.1c-0.3-0.3-0.8-0.5-1.5-0.5h-1.3V92.5z M328.8,82.4
	c1.1,0,2.2,0.3,3.2,0.9c1,0.6,1.8,1.3,2.4,2.3c0.6,1,0.9,2,0.9,3.2c0,1.1-0.3,2.2-0.9,3.2c-0.6,1-1.4,1.8-2.3,2.3
	c-1,0.6-2.1,0.8-3.3,0.8c-1.7,0-3.2-0.6-4.5-1.9c-1.2-1.2-1.9-2.7-1.9-4.5c0-1.9,0.7-3.5,2.1-4.7C325.8,83,327.2,82.4,328.8,82.4
	L328.8,82.4z M328.9,85.3c-0.9,0-1.7,0.3-2.4,1c-0.6,0.7-0.9,1.5-0.9,2.5c0,1.1,0.3,1.9,0.9,2.6c0.6,0.7,1.4,1,2.4,1
	c1,0,1.7-0.3,2.4-1c0.6-0.7,0.9-1.5,0.9-2.5c0-1-0.3-1.9-0.9-2.5C330.6,85.6,329.8,85.3,328.9,85.3L328.9,85.3z"/>
</svg>
