<?xml version="1.0" encoding="utf-8"?>
<!-- Roman Inozemtsev: https://github.com/mir-one/  -->
<svg version="1.1" id="Слой_1" xmlns="http://www.w3.org/2000/svg" xmlns:xlink="http://www.w3.org/1999/xlink" x="0px" y="0px"
	 viewBox="0 0 67 67" style="enable-background:new 0 0 67 67;" xml:space="preserve">
<style type="text/css">
	.st0{fill:#355A77;}
	.st1{fill:none;}
	.st2{fill:#193441;}
	.st3{fill:#FAB436;}
	.st4{fill:#678298;}
	.st5{fill:#E6D9BC;}
	.st6{fill:#F2F0EF;}
	.st7{fill:#FFFFFF;}
</style>
<g>
	<path class="st0" d="M54,13C42.7,1.7,24.3,1.7,13,13C1.7,24.3,1.7,42.7,13,54c5.4,5.4,12.5,8.2,19.6,8.5c7.7,0.2,15.5-2.6,21.4-8.5
		c5.3-5.3,8.1-12.2,8.4-19.2C62.8,27,60,19,54,13z"/>
	<path class="st1" d="M33.5,2.6C16.4,2.6,2.6,16.4,2.6,33.5c0,17.1,13.9,30.9,30.9,30.9c0.3,0,0.7,0,1-0.1c1.2,0,2.4-0.2,3.5-0.3
		L21.7,47.8L43.3,15l21,21c0.1-0.8,0.1-1.7,0.1-2.5C64.4,16.4,50.6,2.6,33.5,2.6z"/>
	<path class="st0" d="M34.5,64.4c-0.3,0-0.7,0.1-1,0.1c-17.1,0-30.9-13.9-30.9-30.9c0-17.1,13.9-30.9,30.9-30.9
		c17.1,0,30.9,13.9,30.9,30.9c0,0.8,0,1.7-0.1,2.5l2.3,2.3c0.2-1.6,0.4-3.1,0.4-4.8C67,15,52,0,33.5,0S0,15,0,33.5S15,67,33.5,67
		c1.2,0,2.3-0.1,3.4-0.2c1.1-0.1,2.2-0.3,3.3-0.5L38,64.1C36.9,64.2,35.7,64.4,34.5,64.4z"/>
	<path class="st2" d="M21.7,47.8L38,64.1c13.9-2,24.8-13.3,26.3-27.4c0-0.2,0-0.4,0-0.7l-21-21L21.7,47.8z"/>
	<path class="st2" d="M66.5,38.9c0-0.2,0-0.4,0.1-0.6L64.3,36c0,0.2,0,0.4,0,0.7C62.9,50.8,51.9,62,38,64.1l2.2,2.2
		C53.8,63.5,64.3,52.6,66.5,38.9z"/>
	<g>
		<path class="st3" d="M24.2,49.8c-0.4-0.9-0.3-1.8-0.1-2.7c0.2-1.3,0.6-2.5,1.1-3.7c0.4-0.9,0.8-1.9,1-2.9c0.3-1.3,0.6-2.6,0.7-3.9
			c0.2-1.6,0.4-3.2,0.5-4.7c0.1-1.5,0.3-3.1,0.4-4.6c0.2-1.6,0.3-3.3,0.7-4.9c0.1-0.4,0.4-0.8,0.6-1.1c0.4-0.4,0.7-0.8,1.2-1.1
			c0.7-0.3,1.3-0.7,2.1-0.7c0.8-0.1,1.7-0.1,2.5,0.2c0.7,0.3,1.4,0.6,1.9,1.1c0.9,0.8,1.2,1.9,1.4,3.1c0.2,1.3,0.2,2.6,0.4,3.9
			c0.1,0.6,0,1.3,0.1,2c0.1,1.6,0.2,3.2,0.4,4.9c0.1,1,0.1,2,0.3,2.9c0.2,1.1,0.3,2.1,0.7,3.1c0.3,0.7,0.6,1.4,0.9,2.1
			c0.2,0.5,0.5,1.1,0.7,1.6c0.4,0.9,0.6,1.9,0.8,2.9c0.1,0.8,0.3,1.6-0.2,2.4c0,0,0,0.1,0,0.2c-0.6,1.5-1.7,2.6-3,3.4
			c-1.8,1.2-3.9,1.8-6,1.8c-1.7,0-3.3-0.4-4.8-1.1c-0.8-0.4-1.5-0.9-2.2-1.4c-0.7-0.6-1.3-1.2-1.7-2C24.4,50.3,24.3,50.1,24.2,49.8z
			 M36.6,39.8c0,0.3,0,0.5,0.1,0.7c0.1,0.1,0.1,0.3,0.3,0.3c0.2,0,0.3-0.2,0.3-0.3c0.1-0.5,0.1-1,0-1.6c0-0.1-0.1-0.2-0.2-0.2
			c-0.2,0-0.2,0.1-0.3,0.3C36.7,39.3,36.6,39.6,36.6,39.8z M29.2,39.8c0,0.2,0,0.5,0.1,0.8c0,0.1,0.1,0.2,0.2,0.2
			c0.1,0,0.2-0.1,0.2-0.2c0.2-0.6,0.2-1.1,0-1.7c0-0.1-0.1-0.2-0.2-0.2c-0.1,0-0.2,0.1-0.2,0.2C29.2,39.2,29.2,39.5,29.2,39.8z"/>
		<path class="st4" d="M22.6,17.3C22.5,17.3,22.5,17.3,22.6,17.3C22.5,17.3,22.5,17.3,22.6,17.3z"/>
		<path class="st2" d="M26.5,22.3c0,0.3-0.1,0.8-0.3,1.1c-0.3,0.4-0.7,0.4-1,0c-0.4-0.8-0.4-1.6,0-2.4c0.3-0.5,0.7-0.5,1,0
			C26.4,21.3,26.5,21.8,26.5,22.3z M26,21.6c-0.1-0.2,0-0.5-0.3-0.5c-0.3,0-0.3,0.3-0.3,0.5c0,0.2,0,0.5,0.3,0.5
			C26,22.2,26,21.9,26,21.6z"/>
		<path class="st2" d="M40.5,22.1c0-0.3,0.1-0.8,0.3-1.1c0.2-0.4,0.6-0.4,0.9,0c0.4,0.6,0.5,1.9,0,2.6c-0.3,0.4-0.7,0.4-0.9-0.1
			C40.6,23.1,40.5,22.7,40.5,22.1z M41.6,21.6c0-0.2,0-0.5-0.3-0.5c-0.3,0-0.3,0.3-0.3,0.5c0,0.2,0,0.5,0.3,0.5
			C41.6,22.1,41.5,21.8,41.6,21.6z"/>
		<path class="st5" d="M49.7,34c-0.5-2.2-1.5-4.1-2.4-6.1c-0.6-1.2-1-2.5-1.3-3.8c-0.1-0.2-0.1-0.4-0.1-0.6
			c-0.2-0.4-0.2-0.9-0.3-1.3c-0.2-1-0.4-1.9-0.6-2.9c-0.1-0.2-0.1-0.3-0.1-0.5c-0.2-0.5-0.3-1-0.4-1.5c-0.3-0.8-0.6-1.5-1.1-2.2
			c-0.3-0.3-0.6-0.6-0.9-0.9c-1.4-1.2-3.1-1.6-4.8-1.9c-2.1-0.3-4.2-0.3-6.3-0.2c-1.8,0.1-3.5,0.3-5.1,1.1c-1.9,0.8-3.1,2.3-3.7,4.2
			c0,0,0,0.1-0.1,0.1c0,0,0,0,0,0.1c-0.1,0.2-0.1,0.3-0.2,0.5c0,0.1-0.1,0.2-0.1,0.4c0,0,0,0.1,0,0.1l0,0c-0.1,0.4-0.1,0.8-0.2,1.2
			c0,0,0,0.1,0,0.1c-0.1,0.3-0.1,0.6-0.2,1c-0.1,0.6-0.2,1.3-0.4,1.9c-0.2,1.2-0.5,2.3-0.9,3.5c-0.6,2-1.6,3.8-2.4,5.8
			c-0.6,1.5-1.1,3-1.2,4.6c-0.1,2.9,0.7,5.6,2.2,8.1c0.1,0.1,0.1,0.3,0.2,0.4c0.2,0.3,0.5,0.7,0.7,1c0.5,0.7,1,1.3,1.6,1.9
			c0,0,0,0,0.1,0l0,0c0,0.1,0.1,0.1,0.2,0.2l0,0c0,0,0,0,0,0c0,0,0,0.1,0.1,0.1c0.1,0.1,0.1,0.1,0.2,0.2c0.1,0.3,0.5,0.4,0.6,0.6
			c0.1,0,0.2,0.1,0.2,0.2l0,0c0.4,0.2,0.8,0.6,1.2,0.8c-0.4-0.9-0.3-1.8-0.1-2.7c0.2-1.3,0.6-2.5,1.1-3.7c0.4-0.9,0.8-1.9,1-2.9
			c0.3-1.3,0.6-2.6,0.7-3.9c0.2-1.6,0.4-3.2,0.5-4.7c0.1-1.5,0.3-3.1,0.4-4.6c0.2-1.6,0.3-3.3,0.7-4.9c0.1-0.4,0.4-0.8,0.6-1.1
			c0.4-0.4,0.7-0.8,1.2-1.1c0.7-0.3,1.3-0.7,2.1-0.7c0.8-0.1,1.7-0.1,2.5,0.2c0.7,0.3,1.4,0.6,1.9,1.1c0.9,0.8,1.2,1.9,1.4,3.1
			c0.2,1.3,0.2,2.6,0.4,3.9c0.1,0.6,0,1.3,0.1,2c0.1,1.6,0.2,3.2,0.4,4.9c0.1,1,0.1,2,0.3,2.9c0.2,1.1,0.3,2.1,0.7,3.1
			c0.3,0.7,0.6,1.4,0.9,2.1c0.2,0.5,0.5,1.1,0.7,1.6c0.4,0.9,0.6,1.9,0.8,2.9c0.1,0.8,0.3,1.6-0.2,2.4c0,0,0,0.1,0,0.2
			c1.2-0.8,2.3-1.8,3.2-2.9c1.6-1.8,2.8-3.7,3.6-6C50.1,38.7,50.3,36.4,49.7,34z M26.2,23.4c-0.3,0.4-0.7,0.4-1,0
			c-0.4-0.8-0.4-1.6,0-2.4c0.3-0.5,0.7-0.5,1,0c0.2,0.3,0.3,0.7,0.3,1.3C26.5,22.7,26.4,23.1,26.2,23.4z M41.7,23.5
			c-0.3,0.4-0.7,0.4-0.9-0.1c-0.2-0.4-0.3-0.7-0.3-1.3c0-0.3,0.1-0.8,0.3-1.1c0.2-0.4,0.6-0.4,0.9,0C42.1,21.5,42.2,22.9,41.7,23.5z
			"/>
		<path class="st4" d="M22.2,18.4C22.2,18.4,22.2,18.3,22.2,18.4C22.2,18.3,22.2,18.4,22.2,18.4z"/>
		<path class="st2" d="M36.6,39.8c0-0.3,0-0.5,0.1-0.8c0-0.1,0.1-0.3,0.3-0.3c0.2,0,0.2,0.1,0.2,0.2c0.2,0.5,0.2,1,0,1.6
			c0,0.1-0.1,0.3-0.3,0.3c-0.2,0-0.2-0.2-0.3-0.3C36.6,40.3,36.6,40.1,36.6,39.8z"/>
		<path class="st2" d="M29.2,39.8c0-0.3,0-0.6,0.1-0.9c0-0.1,0.1-0.2,0.2-0.2c0.1,0,0.2,0.1,0.2,0.2c0.2,0.6,0.2,1.1,0,1.7
			c0,0.1-0.1,0.2-0.2,0.2c-0.2,0-0.2-0.1-0.2-0.2C29.2,40.4,29.2,40.1,29.2,39.8z"/>
		<path class="st6" d="M26,21.6c0,0.2,0,0.6-0.3,0.6c-0.3,0-0.3-0.3-0.3-0.5c0-0.2,0-0.5,0.3-0.5C26,21.1,26,21.4,26,21.6z"/>
		<path class="st6" d="M41.6,21.6c0,0.2,0,0.5-0.3,0.5c-0.2,0-0.3-0.3-0.3-0.5c0-0.2,0-0.5,0.3-0.5C41.6,21.1,41.5,21.4,41.6,21.6z"
			/>
	</g>
	<path class="st7" d="M33.5,2.6C16.4,2.6,2.6,16.4,2.6,33.5c0,17.1,13.9,30.9,30.9,30.9c0.3,0,0.7,0,1-0.1
		c15.6-0.5,28.2-12.5,29.8-27.7c0.1-1,0.2-2.1,0.2-3.2C64.4,16.4,50.6,2.6,33.5,2.6z M54,54c-5.9,5.9-13.7,8.7-21.4,8.5
		c-7.1-0.2-14.2-3-19.6-8.5C1.7,42.7,1.7,24.3,13,13C24.3,1.7,42.7,1.7,54,13c6,6,8.8,14,8.4,21.8C62.1,41.8,59.3,48.7,54,54z"/>
</g>
</svg>
