<?xml version="1.0" encoding="utf-8"?>
<!-- Generator: Adobe Illustrator 21.0.0, SVG Export Plug-In . SVG Version: 6.00 Build 0)  -->
<svg version="1.1" id="Слой_1" xmlns="http://www.w3.org/2000/svg" xmlns:xlink="http://www.w3.org/1999/xlink" x="0px" y="0px"
	 viewBox="0 0 67 67" style="enable-background:new 0 0 67 67;" xml:space="preserve">
<style type="text/css">
	.st0{fill:#00A4B9;}
	.st1{fill:none;}
	.st2{fill:#07809E;}
	.st3{fill:#D9A65F;}
	.st4{fill:#D87753;}
	.st5{fill:#4E2726;}
	.st6{fill:#762B24;}
	.st7{fill:#EEC48A;}
	.st8{fill:#F0EEEB;}
	.st9{fill:#CF542D;}
	.st10{fill:#FFFFFF;}
</style>
<g>
	<path class="st0" d="M54,13C42.7,1.7,24.4,1.7,13,13C1.7,24.4,1.7,42.7,13,54c5.4,5.4,12.5,8.2,19.6,8.4c7.7,0.2,15.5-2.5,21.4-8.4
		c5.3-5.3,8.1-12.2,8.4-19.2C62.8,27,60,19,54,13z"/>
	<path class="st1" d="M33.5,2.6C16.5,2.6,2.6,16.5,2.6,33.5s13.8,30.9,30.9,30.9c0.3,0,0.7,0,1-0.1c1.3,0,2.7-0.2,3.9-0.4l-8.7-8.6
		l2.3-5.6L13.8,31.8l12.3-0.4L12.6,18.2l8.1-1.1l12,11.2l15-10.6l7.1,0.3l9.1,9.1C60.8,13.1,48.4,2.6,33.5,2.6z"/>
	<path class="st0" d="M34.5,64.4c-0.3,0-0.7,0.1-1,0.1c-17.1,0-30.9-13.8-30.9-30.9S16.5,2.6,33.5,2.6c14.9,0,27.3,10.5,30.2,24.4
		l3.1,3.1c-1.7-16.9-16-30.1-33.3-30.1c-18.5,0-33.5,15-33.5,33.5S15.1,67,33.5,67c1.2,0,2.3-0.1,3.4-0.2c1.3-0.1,2.5-0.4,3.7-0.6
		L38.5,64C37.2,64.2,35.9,64.4,34.5,64.4z"/>
	<path class="st2" d="M47.6,17.6l-15,10.6L20.6,17l-8.1,1.1l13.5,13.2l-12.3,0.4l18.3,18.1l-2.3,5.6l8.7,8.6
		c13.7-2.2,24.4-13.4,25.8-27.3c0.1-1,0.2-2.1,0.2-3.2c0-2.2-0.2-4.4-0.7-6.5l-9.1-9.1L47.6,17.6z"/>
	<path class="st2" d="M66.5,38.9c0.3-1.8,0.5-3.5,0.5-5.4c0-1.1-0.1-2.3-0.2-3.4l-3.1-3.1c0.4,2.1,0.7,4.2,0.7,6.5
		c0,1.1-0.1,2.1-0.2,3.2C62.9,50.6,52.2,61.8,38.5,64l2.2,2.2C54,63.3,64.3,52.5,66.5,38.9z"/>
	<g>
		<path class="st3" d="M24.4,28.2c-0.5,0.8-0.8,1.7-1.1,2.7c-0.2,0.7-0.2,1.5-0.3,2.2c0,0.1,0,0.2-0.1,0.3c-1.4,0.4-2.8,0.6-4.3,0.4
			c-1.3-0.1-2.6-0.5-3.7-1.2c-0.1,0-0.1-0.1-0.2-0.1c-0.1-0.2-0.3-0.3-0.5-0.4c-0.8-0.7-1.4-1.5-1.7-2.5c-0.2-0.6-0.2-1.2,0-1.8
			c0.2-0.7,0.7-1.1,1.5-1.2c0.5,0,1.1,0.1,1.6,0.2c0.8,0.2,1.6,0.5,2.3,0.9c1.2,0.5,2.4,0.8,3.7,0.8c0.7,0,1.4-0.1,2.1-0.3
			C24,28.3,24.2,28.2,24.4,28.2z"/>
		<path class="st2" d="M24.9,42.9C25,42.9,25,42.9,24.9,42.9C25,42.9,25,42.9,24.9,42.9z"/>
		<path class="st3" d="M44,33.5c-0.1-1.1-0.2-2.2-0.5-3.3c-0.2-0.7-0.5-1.3-0.9-2c0.5,0.1,1,0.2,1.6,0.3c1.3,0.2,2.6,0.1,3.8-0.3
			c0.7-0.2,1.3-0.5,2-0.8c0.7-0.3,1.5-0.5,2.2-0.7c0.4-0.1,0.8-0.1,1.2,0c0.5,0.1,0.9,0.5,1.1,1c0.2,0.8,0.2,1.7-0.2,2.5
			c-0.5,1.2-1.4,2-2.5,2.6c-1.7,0.9-3.5,1.2-5.4,1c-0.7-0.1-1.3-0.2-2-0.3C44.2,33.5,44.1,33.5,44,33.5z"/>
		<path class="st4" d="M39,48.4C39,48.4,39,48.4,39,48.4C39,48.4,39,48.4,39,48.4z"/>
		<path class="st5" d="M34,48.9C34,49,34.1,49,34.2,49c0.4-0.2,0.8-0.4,1.1-0.7c0.4-0.3,0.7-0.7,1-1.1c0.1-0.1,0.1-0.2,0.2-0.3
			c0.2-0.2,0.4-0.2,0.6-0.1c0.2,0.1,0.3,0.4,0.2,0.7c-0.8,1.2-1.8,2.3-3.2,2.7c-0.2,0.1-0.4,0-0.6,0.1c0,0,0,0,0,0s0,0,0,0
			c-0.1-0.1-0.2-0.1-0.3,0c-0.8-0.1-1.4-0.4-2-0.9c-0.6-0.5-1.1-1.1-1.6-1.7c0,0-0.1-0.1-0.1-0.1c-0.1-0.2,0-0.5,0.2-0.6
			c0.2-0.1,0.4-0.1,0.6,0.1c0.1,0.1,0.2,0.2,0.3,0.3c0.4,0.6,0.9,1.1,1.4,1.5c0.3,0.2,0.6,0.4,1,0.4c0-1.1,0-2.1,0-3.1
			c0.2,0.2,0.5,0.4,0.8,0.1c0.1-0.1,0.1,0,0.2,0C34,46.9,34,47.9,34,48.9C34,48.8,34,48.9,34,48.9C34,48.9,34,48.9,34,48.9z"/>
		<path class="st6" d="M34,46c-0.1,0-0.1-0.1-0.2,0c-0.3,0.3-0.5,0.2-0.8-0.1c-0.6-0.5-1.2-1.1-1.6-1.8c-0.2-0.3-0.4-0.6-0.5-1
			c-0.2-0.6,0-0.8,0.6-0.7c0.4,0.1,0.7,0.1,1.1,0.2c0.4,0.1,0.9,0.1,1.3,0.1c0.5,0,1-0.2,1.4-0.3c0.1,0,0.2,0,0.3,0
			c0.4,0,0.5,0.1,0.5,0.5c0,0.4-0.2,0.8-0.4,1.1c-0.4,0.6-0.9,1.2-1.5,1.7C34.1,45.7,34,45.8,34,46z"/>
		<path class="st5" d="M28.5,35.7c-0.7,0-1.4-0.5-1.6-1.4c-0.1-0.2-0.1-0.4,0-0.6c0.1-0.5,0.3-0.8,0.8-0.9c0.8-0.2,1.6,0,2.2,0.5
			c0.4,0.3,0.5,0.7,0.4,1.2C30,35.2,29.3,35.7,28.5,35.7z M29,33.1c-0.3,0-0.4,0.1-0.4,0.4c0,0.3,0.3,0.5,0.5,0.5
			c0.3,0,0.5-0.2,0.5-0.5C29.6,33.3,29.3,33.1,29,33.1z"/>
		<path class="st7" d="M33.2,50.1c0.1,0,0.2,0,0.3,0C33.4,50.2,33.3,50.2,33.2,50.1z"/>
		<path class="st5" d="M38.5,35.7c-0.9,0-1.6-0.6-1.8-1.4c-0.1-0.4,0.1-0.7,0.4-1c0.7-0.5,1.4-0.7,2.3-0.5c0.5,0.1,0.7,0.5,0.8,1
			c0,0.7-0.3,1.3-0.9,1.7C39,35.7,38.7,35.8,38.5,35.7z M39.1,33.1c-0.3,0-0.6,0.2-0.6,0.4c0,0.2,0.2,0.5,0.5,0.5
			c0.3,0,0.5-0.2,0.5-0.5C39.5,33.3,39.4,33.1,39.1,33.1z"/>
		<path class="st6" d="M34,48.9C34,48.9,34,48.9,34,48.9C34,48.9,34,48.8,34,48.9C34,48.9,34,48.9,34,48.9z"/>
		<path class="st8" d="M29,33.1c0.3,0,0.6,0.2,0.6,0.4c0,0.2-0.2,0.5-0.5,0.5c-0.3,0-0.5-0.2-0.5-0.5C28.6,33.2,28.7,33.1,29,33.1z"
			/>
		<path class="st8" d="M39.1,33.1c0.3,0,0.4,0.1,0.4,0.4c0,0.3-0.3,0.5-0.5,0.5c-0.3,0-0.5-0.2-0.5-0.5
			C38.5,33.3,38.8,33.1,39.1,33.1z"/>
		<g>
			<path class="st7" d="M24.9,42.9C24.9,42.9,24.9,42.9,24.9,42.9C24.9,42.9,24.9,42.9,24.9,42.9L24.9,42.9z"/>
			<polygon class="st7" points="39,48.4 39,48.4 39,48.4 			"/>
			<path class="st7" d="M43.9,34.7c0.1-0.4,0.1-0.8,0.1-1.3c-0.1-1.1-0.2-2.2-0.5-3.3c-0.2-0.7-0.5-1.3-0.9-2
				c-0.3-0.4-0.6-0.8-0.9-1.2c-0.3-0.3-0.5-0.5-0.8-0.8c-0.7-0.6-1.5-0.8-2.4-0.9c-0.7-0.1-1.4-0.1-2.1-0.1
				c-0.6,0.1-1.3,0.1-1.9,0.1c-0.3,0.1-0.6,0-0.9,0.1c0,5.6,0,11.1,0,16.7c0-5.6,0-11.1,0-16.7c-0.8,0-1.6-0.1-2.4-0.1
				c-0.2,0-0.3,0-0.4-0.1c-0.6,0-1.2,0-1.8,0.1c-1.2,0.1-2.3,0.5-3.2,1.4c-0.1,0.1-0.2,0.2-0.3,0.3c-0.3,0.4-0.6,0.8-0.9,1.2
				c-0.5,0.8-0.8,1.7-1.1,2.7c-0.2,0.7-0.2,1.5-0.3,2.2c0,0.1,0,0.2-0.1,0.3c0.1,0.1,0.1,0.3,0.1,0.4c0,1,0.1,2,0.3,2.9
				c0,0.1,0,0.1,0.1,0.2c0.1,0.4,0,0.9,0.2,1.3c0.1,0.3,0.1,0.5,0.2,0.8c0.2,0.4,0.2,0.8,0.3,1.1c0.3,0.8,0.5,1.6,0.8,2.4
				c0,0.1,0.1,0.2,0.1,0.3c0,0,0.1,0,0.1,0.1c0.2,0.6,0.5,1.1,0.7,1.7c0.8,1.7,1.7,3.2,2.8,4.6c0.3,0.2,0.5,0.5,0.8,0.8
				c0.7,0.7,1.5,1.2,2.4,1.6c0.6,0.2,1.1,0.3,1.7,0.3c0,0,0,0,0,0l0,0c1.3-0.1,2.4-0.6,3.4-1.4c0.7-0.6,1.3-1.2,1.9-1.9
				c0-0.1,0.1-0.1,0.2-0.2c0,0,0-0.1,0.1-0.1c0.1-0.1,0.1-0.2,0.2-0.3c1.1-1.5,1.9-3.1,2.6-4.8c0.4-0.9,0.8-1.8,1-2.8
				c0-0.1,0-0.1,0-0.2c0.2-0.3,0.2-0.6,0.3-0.9c0,0,0,0,0,0c0.1-0.3,0.2-0.7,0.3-1c-0.2,0-0.4,0-0.6-0.1c0.2,0,0.4,0.1,0.6,0.1
				c0,0,0,0,0.1,0c0-0.2,0.1-0.4,0-0.6c0,0,0-0.1,0.1-0.1c0-0.2,0-0.4,0.1-0.6c-0.1-0.1-0.1-0.2-0.2-0.2c0.1,0,0.2,0.1,0.2,0.2
				c0,0,0,0,0.1,0c0-0.2,0.1-0.5,0.1-0.7c0,0,0-0.1,0-0.1c0.1-0.3,0.1-0.6,0.1-1 M28.5,35.7c-0.7,0-1.4-0.5-1.6-1.4
				c-0.1-0.2-0.1-0.4,0-0.6c0.1-0.5,0.3-0.8,0.8-0.9c0.8-0.2,1.6,0,2.2,0.5c0.4,0.3,0.5,0.7,0.4,1.2C30,35.2,29.3,35.7,28.5,35.7z
				 M37.3,47.4c-0.8,1.2-1.8,2.3-3.2,2.7c-0.2,0.1-0.4,0-0.6,0.1c0,0.2,0,0.4,0,0.6c0-0.2,0-0.4,0-0.6l0,0l0,0c-0.1,0-0.2,0-0.3,0
				c-0.8-0.1-1.4-0.4-2-0.9c-0.6-0.5-1.1-1.1-1.6-1.7c0,0-0.1-0.1-0.1-0.1c-0.1-0.2,0-0.5,0.2-0.6c0.2-0.1,0.4-0.1,0.6,0.1
				c0.1,0.1,0.2,0.2,0.3,0.3c0.4,0.6,0.9,1.1,1.4,1.5c0.3,0.2,0.6,0.4,1,0.4c0-1.1,0-2.1,0-3.1c-0.6-0.5-1.2-1.1-1.6-1.8
				c-0.2-0.3-0.4-0.6-0.5-1c-0.2-0.6,0-0.8,0.6-0.7c0.4,0.1,0.7,0.1,1.1,0.2c0.4,0.1,0.9,0.1,1.3,0.1c0.5,0,1-0.2,1.4-0.3
				c0.1,0,0.2,0,0.3,0c0.4,0,0.5,0.1,0.5,0.5c0,0.4-0.2,0.8-0.4,1.1c-0.4,0.6-0.9,1.2-1.5,1.7C34.1,45.7,34,45.8,34,46
				c0,1,0,1.9,0,2.9c0,0,0,0,0,0.1C34,49,34.1,49,34.2,49c0.4-0.2,0.8-0.4,1.1-0.7c0.4-0.3,0.7-0.7,1-1.1c0.1-0.1,0.1-0.2,0.2-0.3
				c0.2-0.2,0.4-0.2,0.6-0.1C37.4,46.9,37.5,47.2,37.3,47.4z M39.2,35.5c-0.2,0.2-0.5,0.2-0.8,0.2c-0.9,0-1.6-0.6-1.8-1.4
				c-0.1-0.4,0.1-0.7,0.4-1c0.7-0.5,1.4-0.7,2.3-0.5c0.5,0.1,0.7,0.5,0.8,1C40.1,34.5,39.8,35.1,39.2,35.5z"/>
		</g>
		<g>
			<path class="st9" d="M54.2,17.6c-1.4-1.2-3.1-1.9-4.9-2.1c-2.5-0.3-4.9,0.1-7.1,1.3c-1,0.5-1.9,1.1-2.6,1.9
				c-0.1,0-0.1,0.1-0.2,0.1c-0.6,0.7-1.1,1.4-1.6,2.1c0,0.1,0,0.1-0.1,0.2c-0.2,0.3-0.4,0.6-0.5,0.9c-0.1,0.2-0.3,0.5-0.3,0.7
				c0,0-0.1,0.1-0.1,0.1c0,0,0,0.1,0,0.1c0,0.1-0.1,0.3-0.1,0.4c-0.2,0.6-0.3,1.2-0.4,1.9c0.7,0,1.4,0,2.1,0.1
				c0.9,0.1,1.7,0.4,2.4,0.9c0.3,0.2,0.6,0.5,0.8,0.8c0.3-1.9,0.9-3.6,2-5.2c1.5-2.2,3.7-3.5,6.4-3.5c1.1,0,2.1,0,3.2,0
				c0.3,0,0.7,0,1-0.1c0.2,0,0.3,0,0.4-0.2C54.5,17.8,54.4,17.7,54.2,17.6z"/>
			<path class="st9" d="M30.2,23.2c0,0-0.1-0.1-0.1-0.1h0c0,0,0,0,0,0c0,0,0-0.1,0-0.1c0,0,0,0,0,0c0,0,0-0.1-0.1-0.1l0,0
				c0.1-0.2-0.2-0.3-0.1-0.5c-0.1-0.1-0.1-0.2-0.1-0.3c0,0,0,0-0.1,0c0-0.1,0-0.1-0.1-0.1c-0.1,0.1-0.2,0.2-0.3,0.3
				c0-0.1,0.1-0.2,0.3-0.3c0,0,0,0,0-0.1c0,0-0.1-0.1-0.1-0.1l0,0c-0.1-0.2-0.2-0.4-0.3-0.5c0,0,0-0.1,0-0.1
				c-0.2-0.1-0.2-0.3-0.3-0.5c0,0-0.1-0.1-0.1-0.1c-0.3-0.6-0.7-1.1-1.3-1.6c0-0.1-0.1-0.2-0.3-0.3c0-0.1-0.1-0.2-0.2-0.3
				c-0.2-0.1-0.3-0.2-0.4-0.3c-0.3-0.2-0.6-0.4-0.8-0.6c-1.8-1.2-3.7-1.9-5.8-2.1c-2.1-0.2-4.2,0.1-6.1,1.2
				c-0.6,0.3-1.2,0.7-1.6,1.2c-0.2,0.2-0.2,0.3,0.1,0.4c0.3,0.1,0.6,0.1,1,0.1c1.2,0,2.4,0,3.6,0c1.2,0,2.3,0.3,3.3,0.9
				c1.5,0.8,2.6,2.1,3.4,3.5c0.7,1.3,1.2,2.8,1.5,4.3c0.1-0.1,0.2-0.2,0.3-0.3c0.9-0.9,2-1.3,3.2-1.4c0.6,0,1.2,0,1.8-0.1
				c0-0.6-0.2-1.1-0.3-1.7C30.3,23.4,30.2,23.3,30.2,23.2z"/>
		</g>
		<path class="st4" d="M38.8,48.6c-0.6,0.7-1.2,1.4-1.9,1.9c-1,0.8-2.1,1.4-3.4,1.4c0,0,0,0,0,0c-0.6,0.1-1.2-0.1-1.7-0.3
			c-0.9-0.3-1.7-0.9-2.4-1.6c-0.3-0.3-0.5-0.6-0.8-0.8c0,0.2,0.1,0.3,0.1,0.4c0.2,0.7,0.4,1.3,0.5,2c0,0,0,0,0,0c0,0.2,0,0.4,0,0.6
			c0,0,0,0,0.1,0c0,0.3,0.1,0.6,0.1,0.9c0,0,0.1,0.1,0.1,0.1c0.1,0,0.3,0.1,0.4,0.2c-0.1-0.1-0.3-0.2-0.4-0.2
			c-0.1,0.2,0.1,0.5,0,0.7c0.1,0.2,0.1,0.3,0,0.5c0.1,0.2,0.1,0.4,0.1,0.6c0,0,0,0,0.1,0c0,0.1,0,0.3,0.1,0.4c0.1,0,0.2-0.1,0.3-0.2
			c0.3-0.2,0.5-0.4,0.7-0.6c0,0,0-0.1,0-0.1c0,0,0,0,0,0c0.1-0.1,0.3-0.2,0.4-0.3c0.2,0.3,0.1,0.7,0.3,1c0,0,0,0-0.1,0
			c0.1,0.2,0.2,0.4,0.2,0.7c0.1,0.1,0.2,0.2,0.2,0.4l0,0c0,0,0.1,0,0.1,0.1c0,0.1,0.1,0.2,0.1,0.3c0.4,0.7,0.8,1.3,1.3,1.9l0,0
			c0.1,0.3,0.3,0.4,0.6,0.6c-0.1-0.7,0-1.4,0.1-2.1c0,0,0,0,0.1,0c0,0,0-0.1,0-0.1c0.1-0.2,0.2-0.4,0.2-0.5c0-0.1,0.1-0.2,0.2-0.2
			c0.1-0.3,0.4-0.6,0.5-0.8c0.1-0.1,0.2-0.1,0.3,0c0.3,0.3,0.7,0.5,1,0.9c0.1,0,0.3,0.1,0.3,0.2c0,0,0.1,0.1,0.1,0.1
			c0.1,0,0.1,0.1,0.2,0.2c0.1,0,0.2,0,0.2-0.1c0-0.1,0-0.2,0.1-0.2c-0.1-0.1,0-0.1,0-0.2c0.1-0.7,0.2-1.3,0.3-2
			c0-0.7,0.2-1.5,0.3-2.2c0-0.1,0.1-0.2,0.2-0.2c0.2-0.9,0.4-1.7,0.6-2.5c0.1-0.3,0.2-0.5,0.2-0.8C38.9,48.5,38.8,48.5,38.8,48.6z
			 M33.5,56.3C33.5,56.3,33.5,56.3,33.5,56.3c0,0.2,0,0.5,0,0.7C33.5,56.7,33.5,56.5,33.5,56.3z M33.5,55.2L33.5,55.2L33.5,55.2
			c0-0.2,0-0.4,0-0.6l0,0l0,0C33.5,54.8,33.5,55,33.5,55.2C33.5,55.2,33.5,55.2,33.5,55.2L33.5,55.2z"/>
	</g>
	<path class="st10" d="M33.5,2.6C16.5,2.6,2.6,16.5,2.6,33.5c0,17.1,13.8,30.9,30.9,30.9c0.3,0,0.7,0,1-0.1
		c15.6-0.5,28.2-12.4,29.8-27.7c0.1-1,0.2-2.1,0.2-3.2C64.4,16.5,50.6,2.6,33.5,2.6z M54,54c-5.9,5.9-13.7,8.7-21.4,8.4
		c-7.1-0.2-14.1-3-19.6-8.4C1.7,42.7,1.7,24.4,13,13C24.4,1.7,42.7,1.7,54,13c6,6,8.8,14,8.4,21.8C62.1,41.8,59.4,48.7,54,54z"/>
</g>
</svg>
