<?xml version="1.0" encoding="utf-8"?>
<!-- Generator: Adobe Illustrator 21.0.0, SVG Export Plug-In . SVG Version: 6.00 Build 0)  -->
<svg version="1.1" id="Слой_1" xmlns="http://www.w3.org/2000/svg" xmlns:xlink="http://www.w3.org/1999/xlink" x="0px" y="0px"
	 viewBox="0 0 67 67" style="enable-background:new 0 0 67 67;" xml:space="preserve">
<style type="text/css">
	.st0{fill:#09AA4E;}
	.st1{fill:none;}
	.st2{fill:#039349;}
	.st3{fill:#D9372A;}
	.st4{fill:#EF957A;}
	.st5{fill:#5DB983;}
	.st6{fill:#E0AC28;}
	.st7{fill:#944525;}
	.st8{fill:#E9E8E7;}
	.st9{fill:#EDCCA1;}
	.st10{fill:#FFFFFF;}
</style>
<g>
	<path class="st0" d="M54.1,13C42.7,1.7,24.4,1.7,13,13C1.7,24.3,1.7,42.7,13,54c5.4,5.4,12.5,8.2,19.6,8.5
		c7.7,0.2,15.5-2.6,21.4-8.5c5.3-5.3,8.1-12.2,8.4-19.2C62.9,27,60.1,19,54.1,13z"/>
	<path class="st1" d="M33.6,2.6C16.5,2.6,2.6,16.4,2.6,33.5c0,17.1,13.9,30.9,30.9,30.9c0.3,0,0.7,0,1-0.1c0.8,0,1.7-0.1,2.5-0.2
		l-8.4-8.4l0.1-1.8l-7.2-7.8l10.2-23.4l10.7-8.3l22,22c0.1-1,0.1-2,0.1-3C64.5,16.4,50.6,2.6,33.6,2.6z"/>
	<path class="st0" d="M34.6,64.4c-0.3,0-0.7,0.1-1,0.1c-17.1,0-30.9-13.9-30.9-30.9c0-17.1,13.9-30.9,30.9-30.9
		c17.1,0,30.9,13.9,30.9,30.9c0,1-0.1,2-0.1,3l2.2,2.2c0.3-1.7,0.5-3.4,0.5-5.2C67.1,15,52.1,0,33.6,0S0.1,15,0.1,33.5
		S15.1,67,33.6,67c1.2,0,2.3-0.1,3.4-0.2c0.8-0.1,1.6-0.2,2.3-0.3L37,64.2C36.2,64.3,35.4,64.4,34.6,64.4z"/>
	<path class="st2" d="M31.7,22.8L21.5,46.2l7.2,7.8l-0.1,1.8l8.4,8.4c14.4-1.6,25.9-13.1,27.3-27.5c0-0.1,0-0.1,0-0.2l-22-22
		L31.7,22.8z"/>
	<path class="st2" d="M66.6,38.9c0-0.1,0-0.1,0-0.2l-2.2-2.2c0,0.1,0,0.1,0,0.2C62.9,51.1,51.4,62.6,37,64.2l2.3,2.3
		C53.3,64.1,64.3,52.9,66.6,38.9z"/>
	<g>
		<path class="st2" d="M28.5,55.7c0.1,0,0.1,0,0.1,0.1C28.6,55.8,28.5,55.7,28.5,55.7z"/>
		<path class="st3" d="M34.8,55.6c0-0.1,0-0.2,0.1-0.4c0-0.1,0.1-0.2,0.2-0.2c0.1,0,0.1,0.1,0.2,0.1c0,0.2,0.1,0.4-0.1,0.6
			c0,0-0.1,0-0.1,0C34.9,55.7,34.9,55.6,34.8,55.6z"/>
		<path class="st4" d="M32.4,55.4C32.4,55.4,32.4,55.4,32.4,55.4C32.4,55.4,32.4,55.4,32.4,55.4z"/>
		<path class="st5" d="M34.6,55.5C34.6,55.5,34.6,55.5,34.6,55.5C34.6,55.5,34.6,55.5,34.6,55.5z"/>
		<path class="st6" d="M37.7,44c-0.1-0.1-0.1-0.2-0.1-0.2c0.2-0.3,0.4-0.5,0.7-0.6c0.2-0.1,0.4-0.1,0.6,0c0.1,0.1,0.3,0.2,0.4,0.3
			c0.2,0.1,0.3,0.1,0.5-0.1c0.1-0.1,0.2-0.3,0-0.5c-0.4-0.5-1.2-0.9-2-0.4c-0.6,0.3-0.9,0.9-1.2,1.4c-0.5,0.9-0.8,1.8-1.1,2.8
			c-0.2,0.6-0.3,1.3-0.6,1.9c-0.3,0.6-0.7,1.1-1.4,1.2c-0.6-0.1-1-0.5-1.3-1.1c-0.3-0.5-0.4-1-0.6-1.5c-0.2-0.9-0.5-1.7-0.9-2.6
			c-0.3-0.7-0.7-1.3-1.3-1.9c-0.7-0.6-1.5-0.6-2.2,0.1c-0.2,0.2-0.2,0.4-0.1,0.5c0.1,0.2,0.3,0.2,0.5,0c0,0,0,0,0,0
			c0.7-0.6,1.2-0.2,1.6,0.4c0.1,0.1,0.1,0.2,0,0.2c-0.3,0.2-0.6,0.4-0.9,0.5c-0.5,0.2-0.9,0.2-1.4,0.1c-0.7-0.3-1-0.9-1.1-1.5
			c-0.1-0.4-0.1-0.8,0.1-1.1c0.3-0.6,0.7-0.8,1.3-0.9c0.3,0,0.7,0,1,0c0.7,0,1.3-0.3,1.8-0.8c0.3-0.4,0.6-0.7,0.9-1.1
			c0.6-0.9,1.4-1.3,2.4-1.3c1.2,0,2.1,0.6,2.7,1.6c0.3,0.5,0.6,0.9,1.1,1.2c0.4,0.3,0.8,0.4,1.3,0.4c0.5,0,1-0.1,1.5,0.1
			c0.7,0.2,1,0.6,1.1,1.3c0,0.6-0.1,1.1-0.4,1.5c-0.5,0.7-1.1,0.9-2,0.6C38.3,44.5,38,44.2,37.7,44z M34.9,40.3c0-0.2,0-0.4-0.2-0.5
			c-0.1-0.1-0.2,0.2-0.2,0.5c0,0.2,0,0.5,0.2,0.6C34.8,41,34.9,40.7,34.9,40.3z M32.1,40.4c0,0.2,0,0.5,0.2,0.5
			c0.2,0,0.2-0.3,0.2-0.5c0-0.2,0-0.5-0.2-0.6C32.2,39.8,32.1,40.1,32.1,40.4z"/>
		<path class="st7" d="M27.6,32.1c0-0.4,0.1-0.8,0.3-1.1c0.3-0.5,0.8-0.5,1,0c0.4,0.8,0.4,1.6,0,2.4c-0.3,0.5-0.7,0.5-1,0
			C27.7,33.1,27.6,32.6,27.6,32.1z M28.9,31.5c0,0,0-0.2-0.1-0.3c0-0.1-0.1-0.3-0.3-0.3c-0.2,0-0.2,0.1-0.3,0.3
			c-0.1,0.3-0.1,0.5,0,0.8c0,0.1,0.1,0.2,0.2,0.2c0.1,0,0.2-0.1,0.3-0.2C28.9,31.9,28.9,31.7,28.9,31.5z"/>
		<path class="st7" d="M39.3,32.2c0,0.3,0,0.6-0.2,1c-0.1,0.2-0.1,0.3-0.3,0.4c-0.2,0.2-0.4,0.2-0.7,0c0,0,0,0-0.1-0.1
			c-0.5-0.6-0.5-2.2,0-2.7c0.3-0.3,0.5-0.3,0.8,0C39.3,31.2,39.4,31.7,39.3,32.2z M38.4,31.6c0,0.2,0,0.4,0.1,0.6
			c0.1,0.1,0.2,0.1,0.3,0c0.2-0.2,0.2-0.8,0-1.1c-0.1-0.1-0.3-0.1-0.4,0C38.4,31.2,38.4,31.4,38.4,31.6z"/>
		<path class="st3" d="M37.9,55c0.2,0,0.3,0.2,0.3,0.4c0,0.2-0.2,0.3-0.4,0.3c-0.2,0-0.3-0.2-0.3-0.3C37.6,55.2,37.7,55,37.9,55z"/>
		<path class="st3" d="M39.1,55.1c0,0.1-0.1,0.2-0.1,0.2c0,0-0.1,0-0.1,0c-0.1,0-0.1-0.1-0.1-0.2C38.9,55,39,55,39.1,55.1z"/>
		<path class="st2" d="M38,56c0,0-0.1,0.1-0.1,0.1c0,0-0.1,0-0.1-0.1C37.9,56,37.9,56,38,56C38,56,38,56,38,56z"/>
		<path class="st7" d="M34.9,40.3c0,0.4-0.1,0.7-0.2,0.6c-0.2-0.1-0.2-0.4-0.2-0.6c0-0.3,0.1-0.6,0.2-0.5C35,40,34.9,40.2,34.9,40.3
			z"/>
		<path class="st7" d="M32.1,40.4c0-0.4,0.1-0.6,0.2-0.6c0.2,0.1,0.2,0.4,0.2,0.6c0,0.2,0,0.5-0.2,0.5C32,40.9,32.1,40.6,32.1,40.4z
			"/>
		<path class="st8" d="M28.9,31.5c0,0.2,0,0.4-0.1,0.5c-0.1,0.1-0.1,0.2-0.3,0.2c-0.1,0-0.2-0.1-0.2-0.2c-0.1-0.3-0.1-0.5,0-0.8
			c0-0.1,0.1-0.3,0.3-0.3c0.2,0,0.2,0.2,0.3,0.3C28.9,31.4,28.9,31.5,28.9,31.5z"/>
		<path class="st3" d="M42.8,15c-0.1-0.2-0.2-0.3-0.4-0.5c-0.4-0.5-0.9-0.9-1.6-1.1c-0.1-0.1-0.3-0.1-0.4-0.1
			c-0.5-0.1-0.9-0.2-1.4,0c0,0,0,0,0,0c-0.2,0.1-0.4,0.1-0.7,0.2c0,0,0,0.1-0.1,0.1c-0.1,0-0.3,0.1-0.4,0.1c0,0,0,0,0,0.1l0,0
			c-0.1,0-0.1,0-0.1,0.1c0,0-0.1,0-0.1,0c-0.2,0.2-0.3,0.1-0.4-0.1c-0.1-0.2-0.2-0.3-0.3-0.4c0,0,0,0,0.1,0c-1-1.3-2.4-1.9-4-1.6
			l0,0c-0.8,0.1-1.4,0.4-2,0.9c-0.2,0.1-0.3,0.1-0.4,0.3c-0.2,0.1-0.3,0.3-0.4,0.4c-0.2,0.1-0.3,0.3-0.4,0.5c-0.1,0.1-0.2,0.1-0.3,0
			c-0.4-0.3-0.9-0.5-1.4-0.6c0,0,0,0,0,0.1c-0.2-0.1-0.5-0.1-0.8,0c0,0-0.1,0-0.1-0.1c-0.1,0-0.2,0.1-0.3,0.1c-0.3,0-0.5,0-0.7,0.2
			c-2.1,0.6-3.1,3.4-1.7,5.3c0.4,0.6,1,1.1,1.5,1.5c0.4,0.3,0.9,0.7,1.3,1c0.2,0.1,0.4,0.3,0.6,0.4c1.8,1.4,3.4,3,4.3,5.1
			c0.1,0.3,0.4,0.5,0.7,0.6c0.2,0.1,0.4,0.1,0.5,0.1c0,0,0.1,0,0.1,0l0,0c0.7,0,1.2-0.3,1.4-0.9c0.6-1.5,1.6-2.7,2.8-3.8
			c0.6-0.5,1.2-1.1,1.9-1.5c0.2-0.2,0.5-0.4,0.7-0.5c0.7-0.6,1.5-1.2,2.1-1.9c0.5-0.6,0.7-1.3,0.7-2.1C43.2,16.1,43,15.5,42.8,15z
			 M33.1,15c0-0.1-0.1-0.1-0.1-0.2C33.1,14.9,33.1,15,33.1,15z M33.6,13.2L33.6,13.2C33.5,13.2,33.5,13.2,33.6,13.2L33.6,13.2
			C33.5,13.2,33.5,13.2,33.6,13.2z M29.8,13.9C29.8,13.9,29.8,13.9,29.8,13.9C29.8,13.9,29.8,13.9,29.8,13.9c0.2,0,0.3,0,0.5,0
			C30.1,13.9,30,13.9,29.8,13.9z M33.5,17.1c0-0.3,0-0.7,0-1c0,0,0,0,0-0.1c-0.4-0.1-0.8-0.3-1-0.7c0.2,0.3,0.5,0.6,1,0.7
			c0,0,0,0,0,0.1C33.5,16.4,33.5,16.7,33.5,17.1c0,0,0,0.1,0,0.1C33.4,17.2,33.4,17.1,33.5,17.1z M40.7,16.7c0.1,0,0.2,0,0.3,0.1
			C40.8,16.7,40.7,16.7,40.7,16.7c-0.1,0-0.2,0-0.2,0.2C40.5,16.7,40.5,16.7,40.7,16.7z"/>
		<g>
			<path class="st3" d="M34.6,55.5L34.6,55.5C34.6,55.5,34.7,55.5,34.6,55.5c0.1,0.1,0.1,0.1,0.2,0.1c0-0.1,0-0.2,0.1-0.4
				c0-0.1,0.1-0.2,0.2-0.2c0.1,0,0.1,0.1,0.2,0.1c0,0.2,0.1,0.4-0.1,0.6c0.1,0.1,0.2,0.1,0.3,0.1c0.6,0.3,1.3,0.4,2,0.2
				c0.2,0,0.3,0,0.5-0.1c0,0,0,0,0,0c0,0,0.1-0.1,0.1-0.1c0,0,0,0,0,0c0.2-0.1,0.3-0.2,0.4-0.3c0,0,0.1-0.1,0.2-0.1
				c0,0,0.1-0.1,0.1-0.1c0-0.1,0.1-0.1,0.1-0.1c0,0,0-0.1,0-0.1c-0.1,0-0.1-0.1-0.1-0.2c0.1-0.1,0.2-0.1,0.3-0.1c0,0,0.1,0,0.1,0
				c0,0,0-0.1,0.1-0.1c0,0,0,0,0-0.1c0.3-0.4,0.4-0.8,0.6-1.3c0,0,0-0.1,0-0.1c0.1-0.3,0-0.6,0.1-0.8c-0.1-0.2-0.1-0.4-0.1-0.6
				c-0.1-0.3-0.1-0.5-0.2-0.8c0,0,0-0.1,0-0.1c-0.2-0.7-0.4-1.4-0.5-2.1c0-0.1-0.1-0.2-0.1-0.3c-0.3-1.1-0.7-2.1-1-3.2
				c-0.2-0.5-0.4-1.1-0.5-1.6c-0.1-0.1-0.1-0.2-0.1-0.2c0.2-0.3,0.4-0.5,0.7-0.6c0.2-0.1,0.4-0.1,0.6,0c0.1,0.1,0.3,0.2,0.4,0.3
				c0.2,0.1,0.3,0.1,0.5-0.1c0.1-0.1,0.2-0.3,0-0.5c-0.4-0.5-1.2-0.9-2-0.4c-0.6,0.3-0.9,0.9-1.2,1.4c-0.5,0.9-0.8,1.8-1.1,2.8
				c-0.2,0.6-0.3,1.3-0.6,1.9c-0.3,0.6-0.7,1.1-1.4,1.2c-0.6-0.1-1-0.5-1.3-1.1c-0.3-0.5-0.4-1-0.6-1.5c-0.2-0.9-0.5-1.7-0.9-2.6
				c-0.3-0.7-0.7-1.3-1.3-1.9c-0.7-0.6-1.5-0.6-2.2,0.1c-0.2,0.2-0.2,0.4-0.1,0.5c0.1,0.2,0.3,0.2,0.5,0c0,0,0,0,0,0
				c0.7-0.6,1.2-0.2,1.6,0.4c0.1,0.1,0.1,0.2,0,0.2c-0.4,1.7-1,3.4-1.6,5.1c0,0.4-0.2,0.7-0.2,1.1c-0.1,0.3-0.2,0.6-0.2,0.9
				c-0.2,0.9-0.4,1.7-0.2,2.6c0.1,0.3,0.3,0.7,0.4,1c0.1,0,0.2,0.1,0.2,0.2c0.1,0.1,0.2,0.1,0.3,0.2c0,0,0,0.1,0,0.1
				c0,0,0.1,0.1,0.1,0.1c0,0,0,0,0.1,0c0.1,0.1,0.2,0.2,0.3,0.3l0,0c0.1,0,0.1,0,0.1,0.1c0,0,0.1,0,0.1,0c0.2,0.1,0.3,0.1,0.5,0.2
				c0.8,0.3,1.6,0.3,2.4-0.1c0,0,0,0,0,0c0.3-0.1,0.5-0.1,0.7-0.4c0.1,0,0.1-0.1,0.2-0.1c0,0,0,0,0,0c0,0,0.1-0.1,0.1-0.1
				c0,0,0,0,0.1,0c0,0,0.1-0.1,0.1-0.1c0-0.1,0.1-0.1,0.1-0.2c0.3-0.3,0.4-0.6,0.5-1.1c0.1,0,0.2,0,0.3,0c0,0.3,0.2,0.5,0.3,0.7
				 M34.4,55.3 M30.5,55.3C30.5,55.3,30.5,55.3,30.5,55.3c0.1-0.2,0.2-0.3,0.3-0.2C30.7,55,30.7,55.1,30.5,55.3z M30.9,55.4
				c0,0-0.1,0-0.2,0C30.8,55.4,30.8,55.4,30.9,55.4C30.9,55.4,30.9,55.4,30.9,55.4C30.9,55.4,30.9,55.4,30.9,55.4z M33.7,51.7
				c0.4,0,0.6,0.2,0.6,0.5C34.3,52,34.1,51.8,33.7,51.7c-0.1,0-0.1,0-0.2,0c0,0-0.1,0-0.1,0.1l0,0c0,0,0.1,0,0.1-0.1
				C33.6,51.7,33.7,51.7,33.7,51.7z M33.1,52.1c-0.2,0.2-0.1,0.5,0,0.7C33,52.6,33,52.4,33.1,52.1z M33.7,53.2c-0.1,0-0.1,0-0.2,0
				c0,0.1,0,0.2,0,0.3c0-0.1-0.1-0.2,0-0.3c0,0-0.1-0.1-0.1-0.1c0-0.3,0-0.6,0-0.9c0,0.3,0,0.6,0,0.9c0,0,0.1,0.1,0.1,0.1
				C33.6,53.2,33.7,53.2,33.7,53.2c0.2,0,0.3-0.1,0.4-0.2C34.1,53.1,33.9,53.2,33.7,53.2z M34.4,52.5C34.4,52.5,34.4,52.5,34.4,52.5
				L34.4,52.5C34.4,52.5,34.4,52.5,34.4,52.5z M35.4,55.1C35.4,55.1,35.4,55,35.4,55.1C35.4,55,35.4,55.1,35.4,55.1L35.4,55.1z
				 M36.7,55.7c-0.2,0-0.3-0.1-0.3-0.3c0-0.2,0.2-0.3,0.3-0.3c0.2,0,0.3,0.2,0.3,0.3C37,55.6,36.8,55.7,36.7,55.7z M37.8,55.7
				c-0.2,0-0.3-0.2-0.3-0.3c0-0.2,0.2-0.3,0.3-0.3c0.2,0,0.3,0.2,0.3,0.4C38.2,55.6,38,55.7,37.8,55.7z"/>
			<path class="st3" d="M37.9,56.1c0.1,0,0.1,0,0.1-0.1C38,56,38,56,37.9,56.1C38,56,37.9,56.1,37.9,56.1
				C37.9,56.1,37.9,56.1,37.9,56.1z"/>
		</g>
		<path class="st8" d="M38.4,31.6c0-0.2,0-0.3,0.1-0.5c0.1-0.2,0.3-0.2,0.4,0c0.2,0.2,0.2,0.9,0,1.1c-0.1,0.1-0.2,0.1-0.3,0
			C38.4,32,38.4,31.8,38.4,31.6z"/>
		<path class="st9" d="M48.3,37c0-0.1,0-0.1,0-0.2c0-0.2,0-0.3-0.1-0.5C48,36.5,48,36.6,48,36.7c0-0.1,0-0.2,0.1-0.3
			c0-0.2,0-0.5-0.2-0.7c0-0.3-0.1-0.5-0.2-0.7l-0.4-0.8c-0.1-0.2-0.2-0.4-0.3-0.6c-0.3-0.4-0.6-0.9-0.8-1.3c0,0-0.1,0-0.1,0
			c0,0,0-0.1,0-0.1c-0.7-1.3-1.1-2.7-1.5-4.2c-0.2-1.1-0.4-2.2-0.8-3.2c-0.4-1.1-1.1-2.1-2.1-2.7c-0.6-0.4-1.3-0.7-2.1-0.7
			c-0.7,0.4-1.3,1-1.9,1.5c-1.2,1.1-2.2,2.3-2.8,3.8c-0.3,0.7-0.8,0.9-1.4,0.9c0,0-0.1,0-0.1,0c-0.2,0-0.4-0.1-0.5-0.1
			c-0.3-0.1-0.6-0.3-0.7-0.6c-0.9-2.2-2.5-3.8-4.3-5.1c-0.2-0.1-0.4-0.3-0.6-0.4c-0.2,0.1-0.4,0-0.6,0.1c-1.8,0.6-3.1,1.7-3.8,3.6
			c-0.3,0.9-0.5,1.8-0.7,2.7c-0.3,1.6-0.7,3.1-1.4,4.6c0,0,0,0.1,0,0.1c0.1,0,0.3,0,0.4,0c-0.1,0-0.3-0.1-0.4,0
			c-0.2,0.2-0.3,0.3-0.3,0.6l0,0c-0.1,0-0.1,0-0.1,0.1c-0.1,0.2-0.3,0.5-0.4,0.7c0,0.3,0.2,0.5,0.3,0.6c-0.2-0.1-0.3-0.3-0.3-0.6
			c-0.2,0.3-0.4,0.5-0.4,0.9c0,0-0.1,0-0.1,0c-0.1,0.2-0.1,0.3-0.2,0.5c-0.1,0.3-0.3,0.6-0.3,1C19,36,18.9,36.1,19,36.2
			c-0.1,0.2-0.2,0.4-0.2,0.7c-0.1,0.8-0.2,1.7-0.2,2.5c0.1,2.3,0.8,4.4,2.3,6.2c0.6,0.7,1.3,1.3,2.1,1.9c0.8,0.5,1.5,0.9,2.3,1.2
			c0.8,0.3,1.6,0.4,2.5,0.4c0.5-1.7,1.1-3.4,1.6-5.1c-0.3,0.2-0.6,0.4-0.9,0.5c-0.5,0.2-0.9,0.2-1.4,0.1c-0.7-0.3-1-0.9-1.1-1.5
			c-0.1-0.4-0.1-0.8,0.1-1.1c0.3-0.6,0.7-0.8,1.3-0.9c0.3,0,0.7,0,1,0c0.7,0,1.3-0.3,1.8-0.8c0.3-0.4,0.6-0.7,0.9-1.1
			c0.6-0.9,1.4-1.3,2.4-1.3c1.2,0,2.1,0.6,2.7,1.6c0.3,0.5,0.6,0.9,1.1,1.2c0.4,0.3,0.8,0.4,1.3,0.4c0.5,0,1-0.1,1.5,0.1
			c0.7,0.2,1,0.6,1.1,1.3c0,0.6-0.1,1.1-0.4,1.5c-0.5,0.7-1.1,0.9-2,0.6c-0.4-0.1-0.7-0.3-1-0.5c0.1,0.6,0.3,1.1,0.5,1.6
			c0.3,1.1,0.7,2.1,1,3.2c0,0.1,0.1,0.2,0.1,0.3c0.6,0,1.2,0,1.8-0.3c2.3-0.9,4.3-2.3,5.7-4.4c1-1.5,1.6-3.2,1.7-5
			C48.5,38.7,48.5,37.8,48.3,37z M20.9,36.8c0.1,0,0.1-0.1,0.1-0.2C21,36.7,21,36.7,20.9,36.8z M21.6,36.2L21.6,36.2
			C21.6,36.2,21.6,36.2,21.6,36.2L21.6,36.2z M21.6,36.8c-0.1-0.1-0.2-0.2-0.2-0.3C21.4,36.6,21.5,36.7,21.6,36.8z M21.6,37.1
			c0-0.1,0.1-0.1,0.1-0.1C21.6,37,21.5,37,21.6,37.1z M22,37.2c0.1,0,0.1-0.1,0.1-0.1C22.1,37.1,22.1,37.1,22,37.2z M22.9,36.7
			c0-0.1,0-0.1,0.1-0.1C22.9,36.6,22.9,36.6,22.9,36.7z M23.3,36.6c0,0-0.1,0-0.2,0C23.2,36.6,23.2,36.6,23.3,36.6z M23.1,36.8
			c0.1,0,0.2,0,0.2-0.2C23.3,36.8,23.2,36.8,23.1,36.8z M28.9,33.4c-0.3,0.5-0.7,0.5-1,0c-0.2-0.3-0.3-0.8-0.3-1.3
			c0-0.4,0.1-0.8,0.3-1.1c0.3-0.5,0.8-0.5,1,0C29.3,31.8,29.3,32.6,28.9,33.4z M39.2,33.2c-0.1,0.2-0.1,0.3-0.3,0.4
			c-0.2,0.2-0.4,0.2-0.7,0c0,0,0,0-0.1-0.1c-0.5-0.6-0.5-2.2,0-2.7c0.3-0.3,0.5-0.3,0.8,0c0.3,0.4,0.4,0.9,0.4,1.4
			C39.4,32.5,39.3,32.8,39.2,33.2z M46.4,36.4c0.1-0.1,0.2-0.2,0.2-0.2C46.6,36.2,46.5,36.3,46.4,36.4z M46.8,36.4
			c0.1,0,0.1,0,0.2,0c0,0,0,0,0,0C46.9,36.4,46.8,36.4,46.8,36.4z"/>
		<path class="st3" d="M37,55.4c0,0.2-0.2,0.3-0.3,0.3c-0.2,0-0.3-0.1-0.3-0.3c0-0.2,0.2-0.3,0.3-0.3C36.8,55,37,55.2,37,55.4z"/>
	</g>
	<path class="st10" d="M33.6,2.6C16.5,2.6,2.6,16.4,2.6,33.5c0,17.1,13.9,30.9,30.9,30.9c0.3,0,0.7,0,1-0.1
		c15.6-0.5,28.2-12.5,29.8-27.7c0.1-1,0.2-2.1,0.2-3.2C64.5,16.4,50.6,2.6,33.6,2.6z M54.1,54c-5.9,5.9-13.7,8.7-21.4,8.5
		c-7.1-0.2-14.2-3-19.6-8.5C1.7,42.7,1.7,24.3,13,13c11.3-11.3,29.7-11.3,41,0c6,6,8.8,14,8.4,21.8C62.2,41.8,59.4,48.7,54.1,54z"/>
</g>
</svg>
