<?xml version="1.0" encoding="utf-8"?>
<!-- Generator: Adobe Illustrator 21.0.0, SVG Export Plug-In . SVG Version: 6.00 Build 0)  -->
<svg version="1.1" id="Слой_1" xmlns="http://www.w3.org/2000/svg" xmlns:xlink="http://www.w3.org/1999/xlink" x="0px" y="0px"
	 viewBox="0 0 67 67" style="enable-background:new 0 0 67 67;" xml:space="preserve">
<style type="text/css">
	.st0{fill:#9AD5CD;}
	.st1{fill:none;}
	.st2{fill:#2DBDC0;}
	.st3{fill:#FFFFFF;}
	.st4{fill:#58595B;}
</style>
<g>
	<path class="st0" d="M54.2,13c-11.3-11.3-29.7-11.3-41,0c-11.3,11.3-11.3,29.7,0,41c5.4,5.4,12.5,8.2,19.6,8.5
		c7.7,0.2,15.5-2.6,21.4-8.5c5.3-5.3,8.1-12.2,8.4-19.2C63,27,60.2,19,54.2,13z"/>
	<path class="st1" d="M33.7,2.6C16.6,2.6,2.8,16.4,2.8,33.5c0,16.1,12.3,29.3,28,30.8L16.6,50.2L22,35.7l-4-4.4l4.4-11.1l12.8-3.6
		l8.8,9.2l6.8-9.1l13.7,13.7C62.9,14.7,49.7,2.6,33.7,2.6z"/>
	<path class="st0" d="M2.8,33.5c0-17.1,13.9-30.9,30.9-30.9c16,0,29.2,12.1,30.8,27.7l2.7,2.7C66.9,14.7,52,0,33.7,0
		C15.2,0,0.2,15,0.2,33.5c0,18.4,14.9,33.4,33.2,33.5l-2.7-2.7C15,62.8,2.8,49.6,2.8,33.5z"/>
	<g>
		<path class="st2" d="M44,25.7l-8.8-9.2l-12.8,3.6L18,31.2l4,4.4l-5.4,14.5l14.1,14.1c1,0.1,2,0.1,3,0.1c0.3,0,0.7,0,1-0.1
			c15.6-0.5,28.2-12.5,29.8-27.7c0.1-1,0.2-2.1,0.2-3.2c0-1.1-0.1-2.2-0.2-3.2L50.8,16.6L44,25.7z"/>
		<path class="st2" d="M37.1,66.8c15.1-1.5,27.2-13.1,29.6-27.9c0.3-1.8,0.5-3.5,0.5-5.4c0-0.2,0-0.4,0-0.5l-2.7-2.7
			c0.1,1.1,0.2,2.1,0.2,3.2c0,1.1-0.1,2.1-0.2,3.2c-1.5,15.3-14.2,27.2-29.8,27.7c-0.3,0-0.7,0.1-1,0.1c-1,0-2-0.1-3-0.1l2.7,2.7
			c0.1,0,0.2,0,0.3,0C34.9,67,36,66.9,37.1,66.8z"/>
	</g>
	<path class="st3" d="M33.7,2.6C16.6,2.6,2.8,16.4,2.8,33.5c0,17.1,13.9,30.9,30.9,30.9c0.3,0,0.7,0,1-0.1
		c15.6-0.5,28.2-12.5,29.8-27.7c0.1-1,0.2-2.1,0.2-3.2C64.6,16.4,50.8,2.6,33.7,2.6z M54.2,54c-5.9,5.9-13.7,8.7-21.4,8.5
		c-7.1-0.2-14.2-3-19.6-8.5c-11.3-11.3-11.3-29.7,0-41c11.3-11.3,29.7-11.3,41,0c6,6,8.8,14,8.4,21.8C62.3,41.8,59.5,48.7,54.2,54z"
		/>
	<path class="st4" d="M17.7,50.8l11.6-31.4c-2.3,0.8-4.1,2-5.4,3.7c-1.3,1.7-1.9,3.9-1.9,6.5c0,1.3,0.2,2.3,0.5,2.9
		c0.1,0.1,0.1,0.2,0.1,0.3c-3.2,0-4.8-1.4-4.8-4.2c0-2.9,1.6-5.7,4.7-8.3c1.4-1.2,2.9-2.1,4.7-2.8c1.8-0.7,3.4-1.1,5-1.1
		c1.6,0,3,0.2,4.2,0.6l-1,24.1l10-24.1l6.6,0.1l-4.8,33.6h-6.6l2.9-20.5l-8.6,20.5h-6.8L29,30.2l-7.6,20.6H17.7z"/>
	<path class="st3" d="M16.6,50.2l11.6-31.4c-2.3,0.8-4.1,2-5.4,3.7C21.6,24.3,21,26.4,21,29c0,1.3,0.2,2.3,0.5,2.9
		c0.1,0.1,0.1,0.2,0.1,0.3c-3.2,0-4.8-1.4-4.8-4.2c0-2.9,1.6-5.7,4.7-8.3c1.4-1.2,2.9-2.1,4.7-2.8c1.8-0.7,3.4-1.1,5-1.1
		c1.6,0,3,0.2,4.2,0.6l-1,24.1l10-24.1l6.6,0.1L46,50.2h-6.6l2.9-20.5l-8.6,20.5H27l0.9-20.6l-7.6,20.6H16.6z"/>
</g>
</svg>
