<?xml version="1.0" encoding="utf-8"?>
<!-- Roman Inozemtsev: https://github.com/mir-one/  -->
<svg version="1.1" id="Слой_1" xmlns="http://www.w3.org/2000/svg" xmlns:xlink="http://www.w3.org/1999/xlink" x="0px" y="0px"
	 viewBox="0 0 67 67" style="enable-background:new 0 0 67 67;" xml:space="preserve">
<style type="text/css">
	.st0{fill:#F05A28;}
	.st1{fill:none;}
	.st2{fill:#AF3B25;}
	.st3{fill:#E3AD63;}
	.st4{fill:#F3D1A3;}
	.st5{fill:#FCDEB9;}
	.st6{fill:#682C23;}
	.st7{fill:#832E1E;}
	.st8{fill:#D6BDA7;}
	.st9{fill:#B18358;}
	.st10{fill:#F0EEEC;}
	.st11{fill:#FFFFFF;}
</style>
<g>
	<path class="st0" d="M54,13C42.7,1.7,24.3,1.7,13,13C1.7,24.3,1.7,42.7,13,54c5.4,5.4,12.5,8.2,19.6,8.5c7.7,0.2,15.5-2.6,21.4-8.5
		c5.3-5.3,8.1-12.2,8.4-19.2C62.8,27,60,19,54,13z"/>
	<path class="st1" d="M33.5,2.6C16.4,2.6,2.6,16.4,2.6,33.5s13.9,30.9,30.9,30.9c0.3,0,0.7,0,1-0.1c1.7-0.1,3.3-0.3,4.9-0.6l-31-31
		l38.3-13.7l8.9,9.4l1.8-1.3l7.1,7.1c0-0.3,0-0.5,0-0.8C64.4,16.4,50.6,2.6,33.5,2.6z"/>
	<path class="st0" d="M34.5,64.4c-0.3,0-0.7,0.1-1,0.1c-17.1,0-30.9-13.9-30.9-30.9S16.4,2.6,33.5,2.6c17.1,0,30.9,13.9,30.9,30.9
		c0,0.3,0,0.5,0,0.8l2.4,2.4c0.1-1.1,0.2-2.1,0.2-3.2C67,15,52,0,33.5,0S0,15,0,33.5S15,67,33.5,67c1.2,0,2.3-0.1,3.4-0.2
		c1.6-0.2,3.1-0.5,4.6-0.8l-2.2-2.2C37.8,64.1,36.2,64.3,34.5,64.4z"/>
	<g>
		<path class="st2" d="M55.5,28.5l-8.9-9.4L8.4,32.8l31,31c13.3-2.6,23.5-13.5,24.9-27.2c0.1-0.8,0.1-1.6,0.1-2.3l-7.1-7.1
			L55.5,28.5z"/>
		<path class="st2" d="M66.5,38.9c0.1-0.7,0.2-1.4,0.3-2.2l-2.4-2.4c0,0.8-0.1,1.6-0.1,2.3c-1.4,13.6-11.6,24.6-24.9,27.2l2.2,2.2
			C54.4,62.8,64.4,52.2,66.5,38.9z"/>
	</g>
	<g>
		<path class="st3" d="M59.5,29.7c0.2,0.4,0.5,0.8,0.7,1.2c0.4,1-0.2,2-1.3,2.1c-0.6,0.1-1.2,0-1.8-0.1c-1.3-0.3-2.4-0.8-3.6-1.2
			c-0.9-0.4-1.8-0.7-2.7-1.1c-0.8-0.3-1.7-0.4-2.6-0.3c-0.2,0-0.3,0-0.5,0c0-0.8-0.1-1.6-0.3-2.4c1-0.2,1.8-0.7,2.3-1.5
			c0.5-0.8,0.6-1.6,0.4-2.5c0.2,0,0.3,0,0.5,0c0.5,0.1,0.9,0.1,1.4,0.2c2.1,0.5,3.8,1.6,5.3,3.1C58.1,28,58.8,28.8,59.5,29.7z"/>
		<path class="st4" d="M13,32.2c-0.7,0.2-1.5,0.5-2.2,0.6c-0.7,0.1-1.4,0.2-2.1,0c-0.1,0-0.2-0.1-0.3-0.1c-0.3-0.3-0.6-0.6-0.7-1
			c-0.1-0.3,0-0.5,0.1-0.7c0.2-0.7,0.7-1.3,1.1-1.8c0.7-0.9,1.5-1.7,2.3-2.5c1-0.9,2.2-1.7,3.5-2.2c1-0.4,2-0.6,3.1-0.6
			c0,0.4-0.1,0.7,0,1.1c0.1,1,0.6,1.7,1.4,2.3c0.4,0.3,0.9,0.4,1.4,0.5c-0.1,0.8-0.2,1.6-0.2,2.4c-0.6-0.1-1.3-0.1-1.9-0.1
			c-0.6,0.1-1.2,0.3-1.8,0.5C15.4,31.2,14.3,31.7,13,32.2C13.1,32.2,13,32.2,13,32.2z"/>
		<path class="st5" d="M33.6,21.9c0,0-0.1,0-0.1,0C33.6,21.8,33.6,21.9,33.6,21.9z"/>
		<path class="st6" d="M26.4,29.4c0.8,0,1.5,0.2,2.1,0.6c0.6,0.5,0.7,1.1,0.4,1.7c-0.4,0.9-1.4,1.4-2.4,1.3
			c-0.8-0.1-1.6-0.9-1.8-1.8c-0.1-0.2-0.1-0.4-0.1-0.7c0.1-0.7,0.6-1.1,1.3-1.2C26.1,29.4,26.2,29.4,26.4,29.4z M27.4,29.9
			c-0.5,0-0.8,0.2-0.7,0.7c0.1,0.3,0.3,0.6,0.7,0.6c0.3,0,0.7-0.2,0.8-0.4c0.1-0.2,0.1-0.5-0.2-0.6C27.8,30,27.6,30,27.4,29.9z"/>
		<path class="st7" d="M29.6,49.3c-0.1,0-0.1,0-0.2-0.1c-0.1-0.1-0.2-0.2-0.2-0.3c-0.2-0.3-0.1-0.6,0.1-0.8c0.2-0.2,0.6-0.2,0.8,0
			c0,0,0.1,0.1,0.1,0.1c0.5,0.5,0.9,1,1.5,1.4c-0.4,0.1-0.4,0.1-0.4,0.4c0,0.3,0,0.3-0.3,0.3c-0.1,0-0.1,0-0.2,0c-0.1,0-0.1,0-0.2,0
			c0,0,0,0,0,0c-0.3-0.3-0.3-0.3-0.1-0.7c0,0,0-0.1,0-0.1C30.2,49.4,29.9,49.2,29.6,49.3z"/>
		<path class="st8" d="M29.9,49.9c0,0,0.1,0,0.1,0C30,50,29.9,49.9,29.9,49.9C29.9,49.9,29.9,49.9,29.9,49.9z"/>
		<path class="st9" d="M32.1,42.7c-0.1,0-0.1,0.1-0.2,0C31.9,42.7,32,42.7,32.1,42.7z"/>
		<path class="st6" d="M42,29.5c-0.9-0.1-1.7,0-2.5,0.5c-0.8,0.5-0.9,1.2-0.5,2c0.6,0.9,1.5,1.3,2.7,1c0,0,0.1,0,0.1,0
			c0.2-0.2,0.4-0.3,0.6-0.4c0,0,0-0.1,0-0.1c0.4-0.3,0.6-0.8,0.7-1.3C43.4,30.2,43,29.6,42,29.5z M42.5,30.8
			c-0.1,0.3-0.4,0.4-0.7,0.4c-0.3,0-0.5-0.1-0.7-0.4c-0.2-0.3-0.1-0.5,0.2-0.7c0.2-0.1,0.4-0.2,0.6-0.2
			C42.6,29.9,42.8,30.3,42.5,30.8z"/>
		<path class="st10" d="M27.4,29.9c0.2,0,0.4,0.1,0.6,0.2c0.2,0.2,0.3,0.4,0.2,0.6c-0.1,0.3-0.5,0.5-0.8,0.4c-0.3,0-0.6-0.3-0.7-0.6
			C26.6,30.2,26.9,29.9,27.4,29.9z"/>
		<path class="st7" d="M33.5,51.6c0.2-0.5,0.5-0.8,0.9-0.6c0.2,0.1,0.3,0.3,0.4,0.5c0,0,0,0.1,0,0.1C34.3,51.6,33.9,51.6,33.5,51.6
			C33.5,51.6,33.5,51.6,33.5,51.6z"/>
		<path class="st10" d="M42,29.9c0.6,0,0.8,0.4,0.6,0.9c-0.1,0.3-0.4,0.4-0.7,0.4c-0.3,0-0.5-0.1-0.7-0.4c-0.2-0.3-0.1-0.5,0.2-0.7
			C41.5,30,41.8,30,42,29.9z"/>
		<path class="st8" d="M32.7,54.1c0,0,0.1,0,0.1,0c0,0,0,0,0,0c0,0,0.1,0.1,0.1,0.1c0.1,0.1,0.1,0.1,0.2,0.1c0,0,0,0,0,0
			c0.1,0,0.3,0,0.4,0c0.1,0,0.2,0,0.4,0c0.2,0,0.4,0,0.6,0c0,0,0,0,0-0.1c0.1,0,0.1,0,0.2,0c0.1,0,0.1-0.1,0.2-0.1c0.3,0,0,0,0.3,0
			c0.1,0,0.2,0,0.2,0c0-0.1,0.1-0.1,0.2-0.1l0,0c0.1-0.2,0.3-0.2,0.5-0.2c0.7-0.3,1.4-0.7,2-1.2c0,0,0.1-0.1,0.1-0.1c0-1,0-2,0-3.1
			c-0.3,0.3-0.7,0.7-1.1,1c0,0,0,0,0,0.1c-0.4,0.2-0.7,0.5-1.1,0.6c-0.1,0.1-0.2,0.1-0.4,0.1c0,0.1-0.1,0.1-0.1,0.2
			c-0.1,0-0.1,0-0.2,0c0,0,0,0.1,0,0.1c-0.2,0-0.4,0.1-0.6,0.1c0,0,0,0.1,0,0.1c-0.4,0-0.8,0-1.2,0c0,0,0,0-0.1,0
			c-0.2,0-0.4-0.1-0.6-0.1l0,0c-0.3-0.1-0.5-0.1-0.8-0.3c-0.1,0-0.1-0.1-0.1-0.2C32,51,32,51,32.1,51c0.1,0,0.2,0,0.3,0
			c0.3,0,0.4-0.1,0.3-0.4c0-0.1-0.1-0.1-0.2-0.1c-0.1,0-0.1,0-0.2,0c-0.4,0-0.4,0-0.4-0.5c0.3,0,0.5,0.2,0.8,0.3
			c0.6,0.2,0.6,0.2,0.6-0.4c0-1,0-2.1,0-3.1c0-0.3-0.1-0.4-0.3-0.6c-0.6-0.4-1.1-0.8-1.6-1.3c-0.3-0.3-0.5-0.6-0.6-1
			c-0.1-0.4,0-0.7,0.4-0.9c0.2-0.1,0.4-0.1,0.6-0.1c0.1-0.1,0.1-0.1,0.2,0c0.4,0,0.9,0,1.3,0c0.2,0.1,0.4,0,0.6,0.1
			c0.8-0.1,1.6-0.1,2.3,0c0.7,0.1,0.9,0.5,0.7,1.2c-0.1,0.4-0.4,0.7-0.7,1c-0.5,0.4-1,0.8-1.5,1.1c-0.1,0.1-0.2,0.1-0.2,0.2
			c0,1.3,0,2.7,0,4c0.3,0,0.5-0.1,0.7-0.2c0.9-0.4,1.6-1,2.3-1.7c0.1-0.1,0.1-0.2,0.2-0.2c0.2-0.2,0.6-0.2,0.8,0
			c0.2,0.2,0.2,0.5,0.1,0.8c-0.1,0.1-0.2,0.2-0.2,0.3c-0.1,0-0.1,0-0.2,0.1c0,1,0,2,0,3.1c0.2-0.1,0.4-0.3,0.6-0.4
			c0-0.1,0.1-0.1,0.2-0.1c0.1-0.2,0.2-0.3,0.4-0.4c0.3-0.3,0.6-0.6,0.9-0.9c0.1-0.1,0.1-0.1,0.1-0.2c0.1-0.1,0.2-0.2,0.3-0.4
			c1.2-1.5,2.2-3.1,3.1-4.8c0.9-1.8,1.7-3.7,2.3-5.7c0.3-0.9,0.5-1.7,0.8-2.6c0,0,0,0-0.1-0.1c0,0,0-0.1,0-0.1
			c0-0.1,0.1-0.2,0.1-0.3c0-0.2,0.1-0.5,0.1-0.7c0-0.1,0-0.1,0-0.2c0.1-0.2,0.1-0.4,0.2-0.6c0-0.4,0-0.7,0.2-1.1
			c0.1-1.2,0.2-2.4,0.2-3.5c0-0.8-0.1-1.6-0.3-2.4c-0.4,0-0.8,0-1.1,0c-1.6-0.3-2.7-1.8-2.6-3.3c0-0.1,0-0.3,0-0.4
			c-0.7-0.1-1.3-0.4-1.8-0.8c-0.4-0.4-0.6-0.8-0.9-1.3c-0.1,0.1-0.3,0.1-0.4,0.2C39,23,37.2,22.4,36.3,21c-0.1,0-0.2,0-0.2,0.1
			c-0.6,0.5-1.3,0.8-2.1,0.8c0,0,0,0,0,0c-0.1,0-0.2,0-0.3,0c0,0-0.1,0-0.1,0c-0.7-0.1-1.3-0.4-1.8-0.9c-0.2,0.1-0.2,0.2-0.3,0.4
			c-0.7,0.8-1.5,1.2-2.5,1.3c-0.7,0-1.3-0.2-1.8-0.5c-0.5,1.2-1.4,1.9-2.6,2.1c0,0.1,0,0.3,0,0.4c0,1.6-1,2.9-2.5,3.3
			c-0.4,0.1-0.9,0.1-1.3,0.1c-0.1,0.8-0.2,1.6-0.2,2.4c0,0.8,0,1.6,0.1,2.4c0,0.3,0,0.3,0.1,0.8c0.3,1.7,0,0,0.3,1.7
			c0.1,0.4,0.2,0.8,0.2,1.2c0,0,0,0,0,0c0,0.1,0.1,0.2,0,0.3c0,0,0.1,0,0.1,0c0,0.1,0,0.2,0.1,0.2c0,0.2,0.1,0.4,0.1,0.6
			c0,0,0,0,0.1,0c0,0,0,0,0,0c0,0.2,0,0.3,0.1,0.5c0.7,2.7,1.7,5.4,3,7.9c0.6,1.1,1.2,2.2,1.9,3.2c0.3,0.4,0.6,0.9,1,1.3
			c0,0,0,0.1,0,0.1c0.2,0.2,0.4,0.4,0.6,0.6c0,0,0,0.1,0,0.1c0,0,0,0,0,0l0,0c0,0,0,0,0,0c0.2,0.2,0.4,0.4,0.6,0.6
			c0.2,0.1,0.4,0.3,0.6,0.4c0.1,0.2,0.5,0.3,0.6,0.6c0,0,0.1,0,0.1,0c0.1,0.1,0.1,0.1,0.2,0.2c0.4,0.3,0.9,0.5,1.4,0.7
			c0.1,0,0.1,0,0.2,0c0,0,0,0,0,0 M32.4,54 M22.4,37.5C22.4,37.5,22.4,37.5,22.4,37.5c0.1,0,0.1,0,0.2-0.1
			C22.5,37.4,22.4,37.5,22.4,37.5z M34,52.9L34,52.9c-0.2,0-0.4-0.1-0.5-0.2C33.6,52.8,33.8,52.8,34,52.9z M27.3,49.7
			c0-0.2,0.1-0.3,0.3-0.4C27.4,49.4,27.3,49.5,27.3,49.7z M26.5,33.1c-0.8-0.1-1.6-0.9-1.8-1.8c-0.1-0.2-0.1-0.4-0.1-0.7
			c0.1-0.7,0.6-1.1,1.3-1.2c0.2,0,0.3,0,0.5,0c0.8,0,1.5,0.2,2.1,0.6c0.6,0.5,0.7,1.1,0.4,1.7C28.5,32.6,27.5,33.2,26.5,33.1z
			 M29.9,49.9c0,0,0.1,0,0.1,0C30,50,29.9,49.9,29.9,49.9z M30.6,50.8C30.6,50.8,30.6,50.9,30.6,50.8C30.6,50.9,30.6,50.8,30.6,50.8
			z M31.3,50.9C31.3,50.9,31.3,50.9,31.3,50.9L31.3,50.9L31.3,50.9z M31.7,49.7c-0.4,0.1-0.4,0.1-0.4,0.4c0,0.3,0,0.3-0.3,0.3
			c-0.1,0-0.1,0-0.2,0c0,0.1,0.1,0.1,0.1,0.1c0,0-0.1-0.1-0.1-0.1c-0.1,0-0.1,0-0.2,0c0,0.1,0,0.2,0,0.3c0-0.1,0-0.2,0-0.3
			c0,0,0,0,0,0c-0.3-0.3-0.3-0.3-0.1-0.7c0,0,0-0.1,0-0.1c-0.3-0.2-0.6-0.4-0.9-0.3c-0.1,0-0.1,0-0.2-0.1c-0.1-0.1-0.2-0.2-0.2-0.3
			c-0.2-0.3-0.1-0.6,0.1-0.8c0.2-0.2,0.6-0.2,0.8,0c0,0,0.1,0.1,0.1,0.1C30.6,48.8,31.1,49.3,31.7,49.7z M42.4,34.5
			c0-0.3,0-0.6,0-0.9C42.4,33.9,42.4,34.2,42.4,34.5c0,0.3,0,0.6,0,1C42.4,35.2,42.4,34.9,42.4,34.5z M42.8,36.9L42.8,36.9
			c0.1,0.1,0.2,0.3,0.3,0.4C43,37.2,42.9,37,42.8,36.9z M43.3,31.2c-0.1,0.5-0.3,1-0.7,1.3c0,0,0,0.1,0,0.1
			c-0.2,0.1-0.4,0.2-0.6,0.4c0,0-0.1,0-0.1,0c-1.1,0.2-2.1-0.1-2.7-1c-0.5-0.8-0.3-1.5,0.5-2c0.8-0.5,1.6-0.6,2.5-0.5
			C43,29.6,43.4,30.2,43.3,31.2z M46.2,37.4c0-0.2,0.2-0.4,0.1-0.6C46.3,37.1,46.2,37.2,46.2,37.4z"/>
		<path class="st10" d="M50.1,24c-0.1-0.2-0.1-0.3-0.2-0.5c-0.5-1.1-1.3-1.9-2.6-2c0-0.3,0-0.6,0-0.9c0-0.5-0.2-1-0.5-1.4
			c0,0-0.1-0.1-0.1-0.1c-0.7-1-1.6-1.4-2.7-1.4c-0.6,0-1.1,0.2-1.6,0.5c-0.1-0.1-0.1-0.2-0.2-0.3c-0.4-0.7-0.9-1.3-1.7-1.6
			c-0.2-0.2-0.4-0.1-0.7-0.2c-0.2-0.1-0.5-0.1-0.8-0.1c0,0,0,0,0,0c-0.2,0-0.4,0.1-0.6,0.1c0,0,0,0,0,0.1c-0.1,0-0.2,0-0.2,0
			c-0.1,0-0.1,0.1-0.2,0.1c-0.4,0.1-0.7,0.4-1,0.6l0,0c-0.1-0.1-0.2-0.2-0.3-0.3c-0.1-0.2-0.3-0.3-0.4-0.5c0,0,0,0,0-0.1
			c0,0,0,0,0,0c0,0,0,0-0.1-0.1c0,0-0.1-0.1-0.1-0.1c0-0.1-0.1-0.1-0.2-0.2c-0.6-0.3-1.1-0.5-1.8-0.5c-0.5,0-1,0.1-1.4,0.3
			c-0.2,0.1-0.4,0.2-0.6,0.4c-0.2,0.2-0.4,0.5-0.7,0.7c0,0.1-0.1,0.2-0.1,0.3c0.1,0.1,0.1,0.2,0.1,0.3c0-0.1,0-0.2-0.1-0.3
			c-0.2,0-0.4-0.2-0.5-0.3c0,0-0.1-0.1-0.1-0.1c-0.1,0-0.1,0-0.2,0c-0.4-0.3-0.8-0.4-1.3-0.4c0,0-0.1,0-0.1,0c-0.2,0-0.5,0-0.7,0
			l0,0c-0.2,0-0.3,0.1-0.4,0.1c-0.2,0-0.5,0-0.6,0.2c-0.1,0-0.3,0.1-0.4,0.2c-0.6,0.4-1,1-1.3,1.6c-0.8-0.4-1.6-0.6-2.5-0.4
			c-1.3,0.3-2.3,1.4-2.5,2.7c-0.1,0.3,0,0.7-0.1,1c-1.3,0.2-2.1,0.9-2.6,2.1c-0.1,0.1-0.1,0.3-0.2,0.4c0,0.4-0.1,0.7,0,1.1
			c0.1,1,0.6,1.7,1.4,2.3c0.4,0.3,0.9,0.4,1.4,0.5c0.4,0,0.9,0,1.3-0.1c1.5-0.4,2.5-1.7,2.5-3.3c0-0.1,0-0.3,0-0.4
			c1.3-0.2,2.2-0.9,2.6-2.1c0.6,0.3,1.2,0.5,1.8,0.5c1,0,1.9-0.5,2.5-1.3c0.1-0.1,0.2-0.3,0.3-0.4c0.5,0.5,1.1,0.8,1.8,0.9
			c0,0,0.1,0,0.1,0c0.1,0,0.2,0,0.3,0l0,0c0,0,0,0,0,0c0.8-0.1,1.5-0.3,2.1-0.8c0.1-0.1,0.1-0.1,0.2-0.1c0.8,1.4,2.6,2,4.2,1.3
			c0.1-0.1,0.3-0.1,0.4-0.2c0.2,0.5,0.5,0.9,0.9,1.3c0.5,0.5,1.1,0.8,1.8,0.8l0,0c0,0.1,0,0.3,0,0.4c-0.1,1.5,1,2.9,2.6,3.3
			c0.4,0.1,0.8,0,1.1,0c1-0.2,1.8-0.7,2.3-1.5C50.1,25.7,50.2,24.8,50.1,24z M44,24.2c0.1,0,0.3,0,0.4,0
			C44.3,24.2,44.1,24.2,44,24.2z"/>
		<path class="st7" d="M38.7,48.1C38.6,48,38.4,48,38.3,48c-0.2,0-0.3,0-0.5,0.1c-0.1,0.1-0.2,0.2-0.2,0.2c-0.7,0.7-1.4,1.3-2.3,1.7
			c-0.2,0.1-0.4,0.1-0.6,0.2c0-1.3,0-2.7,0-4c0-0.1,0.1-0.1,0.2-0.2c0,0,0.1,0,0.1-0.1c0.5-0.3,1-0.7,1.5-1.1c0.3-0.3,0.6-0.6,0.8-1
			c0.2-0.7,0-1.1-0.7-1.2c-0.1,0-0.3,0-0.4,0c-0.1,0-0.1,0-0.2,0c0,0-0.1,0-0.1,0c-0.1,0-0.2,0-0.3,0c0,0-0.1,0-0.1,0
			c-0.1,0-0.3,0-0.4,0c0,0-0.1,0-0.1,0c-0.2,0-0.3,0-0.5,0c-0.1,0-0.2,0-0.3,0.1c-0.1,0-0.1,0-0.2,0c0,0-0.1,0-0.1,0
			c0,0-0.1,0-0.1,0c-0.1,0-0.1,0-0.2,0c-0.1,0-0.2,0-0.3-0.1c-0.2,0-0.3,0-0.5,0c0,0-0.1,0-0.1,0c-0.1,0-0.3,0-0.4,0
			c0,0-0.1,0-0.1,0c-0.1,0-0.2,0-0.3,0c0,0-0.1,0-0.1,0c-0.1,0-0.1,0.1-0.2,0c-0.1,0-0.3,0-0.4,0c-0.7,0.1-1,0.5-0.7,1.2
			c0.2,0.4,0.4,0.7,0.8,1c0.5,0.4,1,0.8,1.5,1.1c0,0,0.1,0,0.1,0.1c0.1,0.1,0.1,0.1,0.2,0.2c0,1.3,0,2.7,0,4c-0.2,0-0.4-0.1-0.6-0.2
			c-0.9-0.4-1.7-1-2.3-1.7c-0.1-0.1-0.2-0.2-0.2-0.2C29.9,48,29.7,48,29.6,48c-0.2,0-0.3,0-0.5,0.1c-0.2,0.2-0.2,0.5-0.1,0.8
			c0.1,0.1,0.2,0.2,0.2,0.3c0.1,0,0.1,0,0.2,0.1c0.3,0.4,0.7,0.7,1.1,1c0,0,0,0,0,0.1c0.4,0.2,0.7,0.5,1.1,0.7
			c0.1,0,0.2,0.1,0.3,0.1c0,0,0,0.1,0.1,0.1c0,0,0.1,0,0.1,0c0,0,0,0,0.1,0.1c0.1,0,0.1,0,0.2,0c0,0,0,0,0,0c0,0,0,0.1,0,0.1
			c0.2,0,0.4,0.1,0.5,0.1c0.2,0,0.4,0.1,0.6,0.1l0.1,0c0,0,0,0,0.1,0l0.4,0l0.4,0c0,0,0,0,0.1,0l0.1,0c0.2,0,0.4-0.1,0.6-0.1
			c0.2,0,0.3-0.1,0.5-0.1c0,0,0-0.1,0-0.1c0,0,0,0,0,0c0.1,0,0.1,0,0.2,0c0,0,0,0,0.1-0.1c0,0,0.1,0,0.1,0c0,0,0.1,0,0.1-0.1
			c0.1,0,0.2-0.1,0.3-0.1c0.4-0.2,0.7-0.5,1.1-0.7c0,0,0,0,0-0.1c0.4-0.3,0.8-0.6,1.1-1c0-0.1,0.1-0.1,0.2-0.1
			c0-0.1,0.1-0.2,0.2-0.3C39,48.7,38.9,48.3,38.7,48.1z"/>
	</g>
	<path class="st11" d="M33.5,2.6C16.4,2.6,2.6,16.4,2.6,33.5c0,17.1,13.9,30.9,30.9,30.9c0.3,0,0.7,0,1-0.1
		c15.6-0.5,28.2-12.5,29.8-27.7c0.1-1,0.2-2.1,0.2-3.2C64.4,16.4,50.6,2.6,33.5,2.6z M54,54c-5.9,5.9-13.7,8.7-21.4,8.5
		c-7.1-0.2-14.2-3-19.6-8.5C1.7,42.7,1.7,24.3,13,13C24.3,1.7,42.7,1.7,54,13c6,6,8.8,14,8.4,21.8C62.1,41.8,59.3,48.7,54,54z"/>
</g>
</svg>
