<?xml version="1.0" encoding="utf-8"?>
<!-- Roman Inozemtsev: https://github.com/mir-one/  -->
<svg version="1.1" id="Слой_1" xmlns="http://www.w3.org/2000/svg" xmlns:xlink="http://www.w3.org/1999/xlink" x="0px" y="0px"
	 viewBox="0 0 67 67" style="enable-background:new 0 0 67 67;" xml:space="preserve">
<style type="text/css">
	.st0{fill:#399C98;}
	.st1{fill:none;}
	.st2{fill:#2A726D;}
	.st3{fill:#FFFFFF;}
	.st4{fill:#FBF0DF;}
	.st5{fill:#F6D5B2;}
	.st6{fill:#EA954B;}
</style>
<g>
	<path class="st0" d="M54,13C42.7,1.7,24.3,1.7,13,13C1.7,24.3,1.7,42.7,13,54c5.4,5.4,12.5,8.2,19.6,8.5c7.7,0.2,15.5-2.6,21.4-8.5
		c5.3-5.3,8.1-12.2,8.4-19.2C62.8,27,60,19,54,13z"/>
	<path class="st1" d="M33.5,2.6C16.4,2.6,2.6,16.4,2.6,33.5s13.9,30.9,30.9,30.9c0.3,0,0.7,0,1-0.1c1.1,0,2.1-0.1,3.1-0.3l-19-19
		l28.7-28.7l17,17C64.4,16.4,50.5,2.6,33.5,2.6z"/>
	<path class="st0" d="M34.5,64.4c-0.3,0-0.7,0.1-1,0.1c-17.1,0-30.9-13.9-30.9-30.9S16.4,2.6,33.5,2.6c17.1,0,30.9,13.8,30.9,30.8
		l2.4,2.4c0.1-0.8,0.1-1.6,0.1-2.4C67,15,52,0,33.5,0S0,15,0,33.5S15,67,33.5,67c1.2,0,2.3-0.1,3.4-0.2c1-0.1,2-0.3,3-0.4l-2.3-2.3
		C36.6,64.3,35.6,64.4,34.5,64.4z"/>
	<path class="st2" d="M18.6,45.1l19,19c14.1-1.9,25.2-13.2,26.6-27.5c0.1-1,0.2-2.1,0.2-3.2c0,0,0-0.1,0-0.1l-17-17L18.6,45.1z"/>
	<path class="st2" d="M66.5,38.9c0.2-1,0.3-2,0.4-3l-2.4-2.4c0,0,0,0.1,0,0.1c0,1.1-0.1,2.1-0.2,3.2c-1.4,14.2-12.5,25.6-26.6,27.5
		l2.3,2.3C53.6,63.7,64.3,52.7,66.5,38.9z"/>
	<path class="st3" d="M33.5,2.6C16.4,2.6,2.6,16.4,2.6,33.5c0,17.1,13.9,30.9,30.9,30.9c0.3,0,0.7,0,1-0.1
		c15.6-0.5,28.2-12.5,29.8-27.7c0.1-1,0.2-2.1,0.2-3.2C64.4,16.4,50.6,2.6,33.5,2.6z M54,54c-5.9,5.9-13.7,8.7-21.4,8.5
		c-7.1-0.2-14.2-3-19.6-8.5C1.7,42.7,1.7,24.3,13,13C24.3,1.7,42.7,1.7,54,13c6,6,8.8,14,8.4,21.8C62.1,41.8,59.3,48.7,54,54z"/>
	<g>
		<path class="st4" d="M52.6,40.4c-0.1-0.8-0.3-1.7-0.6-2.4c-0.1-0.2-0.1-0.4-0.2-0.5c-0.2-0.5-0.6-1-0.9-1.5
			c-0.3-0.3-0.6-0.7-0.9-1c-1.1-1-2.3-1.7-3.7-2.2c-1.3-0.5-2.6-0.7-4-0.9c-1.6-0.1-3.1-0.1-4.7,0.1c-0.9,0.1-1.8,0.3-2.6,0.4
			c-0.6,0.2-1.2,0.4-1.9,0.6c-2.4,0.8-4.6,1.8-6.5,3.5c-1.4,1.2-2.5,2.5-3,4.3c-0.3,1-0.3,2,0,3c0,0.1,0,0.2,0.1,0.4
			c0.5,1.3,1.3,2.4,2.3,3.4c0.9,0.8,1.9,1.5,3,2.1c4.1,2.2,8.5,3.1,13.1,2.8c1.7-0.1,3.3-0.5,4.9-1.1c2.4-1,4.2-2.7,5.2-5.2
			C52.7,44.2,52.8,42.3,52.6,40.4z"/>
		<path class="st5" d="M51.2,24.1c-0.5-2.2-1.2-4.2-2.4-6.1c-0.9-1.3-2-2.4-3.5-3c-1.8-0.7-3.6-0.5-5.3,0.3
			c-1.9,0.9-3.3,2.2-4.7,3.7c-1.5,1.7-2.7,3.7-3.6,5.8c0.3,0.6,0.7,1.1,1,1.7c0.4,0.9,0.8,1.8,1.2,2.7c0.4,1,0.7,2.1,1,3.2
			c0.9-0.1,1.8-0.3,2.6-0.4c1.6-0.2,3.1-0.2,4.7-0.1c1.4,0.1,2.7,0.4,4,0.9c1.4,0.5,2.6,1.2,3.7,2.2c0.3,0.3,0.6,0.7,0.9,1
			c0,0,0-0.1,0.1-0.1c0.6-2.2,0.9-4.4,0.8-6.6C51.7,27.4,51.5,25.7,51.2,24.1z"/>
		<path class="st6" d="M33.8,29.2c-0.3-0.9-0.8-1.8-1.2-2.7c-0.3-0.6-0.7-1.1-1-1.7c-0.5-0.7-1-1.4-1.5-2.1
			c-1.2-1.5-2.6-2.8-4.4-3.7c-2.6-1.3-5.2-0.9-7.3,1.1c-0.9,0.9-1.6,2-2.2,3.2c-1,2.2-1.6,4.5-1.8,7c-0.3,3-0.1,6,0.8,9
			c0.7,2.2,1.7,4.2,3.4,5.8c2.1,1.9,4.5,2.6,7.3,2.3c-1-1-1.9-2-2.3-3.4c0-0.1-0.1-0.2-0.1-0.4c-0.3-1-0.3-2,0-3
			c0.5-1.8,1.6-3.1,3-4.3c1.9-1.6,4.2-2.7,6.5-3.5c0.6-0.2,1.2-0.4,1.9-0.6C34.6,31.3,34.2,30.2,33.8,29.2z"/>
	</g>
</g>
</svg>
