<?xml version="1.0" encoding="utf-8"?>
<!-- Generator: Adobe Illustrator 21.0.0, SVG Export Plug-In . SVG Version: 6.00 Build 0)  -->
<svg version="1.1"
	 id="Слой_1" image-rendering="optimizeQuality" shape-rendering="geometricPrecision" text-rendering="geometricPrecision"
	 xmlns="http://www.w3.org/2000/svg" xmlns:xlink="http://www.w3.org/1999/xlink" x="0px" y="0px" viewBox="0 0 256.7 32.2"
	 style="enable-background:new 0 0 256.7 32.2;" xml:space="preserve">
<style type="text/css">
	.st0{fill:none;}
	.st1{fill:#4598C5;}
</style>
<rect y="-1" class="st0" width="256.7" height="32.2"/>
<g>
	<path class="st1" d="M93.5,18.7L93.5,18.7c0,1.3-0.3,2.2-0.9,2.8s-1.6,0.9-2.7,0.9c-1.2,0-2.2-0.4-2.9-1.1
		c-0.7-0.7-1.1-1.7-1.1-3.1v-3.4c0-1.3,0.3-2.3,1-3.1c0.7-0.7,1.6-1.1,2.8-1.1c1.2,0,2.2,0.3,2.9,0.9c0.7,0.6,1,1.5,1,2.7l0,0h-2.1
		c0-0.7-0.1-1.2-0.4-1.5s-0.7-0.4-1.3-0.4c-0.5,0-1,0.2-1.2,0.6c-0.3,0.4-0.4,1-0.4,1.8v3.4c0,0.8,0.1,1.4,0.4,1.8s0.7,0.6,1.3,0.6
		c0.5,0,0.9-0.1,1.2-0.4c0.2-0.3,0.4-0.8,0.4-1.5h2V18.7z"/>
	<path class="st1" d="M94.5,17.9c0-1.3,0.3-2.3,0.9-3.1s1.5-1.2,2.5-1.2c1.1,0,1.9,0.4,2.6,1.2s0.9,1.8,0.9,3.1v0.2
		c0,1.3-0.3,2.3-0.9,3.1C99.9,22,99,22.4,98,22.4c-1.1,0-2-0.4-2.6-1.2c-0.6-0.8-0.9-1.8-0.9-3.1V17.9z M96.6,18.1
		c0,0.8,0.1,1.4,0.3,1.9s0.5,0.7,1,0.7c0.4,0,0.8-0.2,1-0.7s0.3-1.1,0.3-1.9v-0.2c0-0.8-0.1-1.4-0.3-1.9c-0.2-0.5-0.5-0.7-1-0.7
		s-0.8,0.2-1,0.7c-0.2,0.5-0.3,1.1-0.3,1.9V18.1z"/>
	<path class="st1" d="M103.1,22.2v-6.8h-1v-1.6h1v-0.9c0-0.9,0.2-1.7,0.7-2.2s1.2-0.8,2.1-0.8c0.2,0,0.3,0,0.5,0s0.4,0.1,0.6,0.1
		l-0.2,1.6c-0.1,0-0.2,0-0.3-0.1c-0.1,0-0.2,0-0.3,0c-0.3,0-0.5,0.1-0.7,0.3s-0.2,0.5-0.2,0.9v0.9h1.4v1.6h-1.4V22h-2.2V22.2z"/>
	<path class="st1" d="M108,22.2v-6.8h-1v-1.6h1v-0.9c0-0.9,0.2-1.7,0.7-2.2s1.2-0.8,2.1-0.8c0.2,0,0.3,0,0.5,0s0.4,0.1,0.6,0.1
		l-0.2,1.6c-0.1,0-0.2,0-0.3-0.1c-0.1,0-0.2,0-0.3,0c-0.3,0-0.5,0.1-0.7,0.3s-0.2,0.5-0.2,0.9v0.9h1.4v1.6h-1.4V22H108V22.2z"/>
	<path class="st1" d="M115.5,22.3c-1.1,0-2-0.4-2.6-1.2c-0.6-0.8-0.9-1.8-0.9-3v-0.3c0-1.3,0.3-2.3,0.9-3.1s1.4-1.2,2.5-1.2
		c1,0,1.7,0.3,2.3,1c0.5,0.7,0.8,1.6,0.8,2.8v1.2h-4.2c0,0.6,0.2,1.1,0.4,1.5c0.2,0.4,0.6,0.6,1.1,0.6c0.4,0,0.8-0.1,1.1-0.2
		c0.3-0.1,0.6-0.3,0.9-0.5l0.6,1.4c-0.3,0.3-0.7,0.5-1.2,0.7C116.7,22.2,116.1,22.3,115.5,22.3z M115.4,15.3c-0.4,0-0.6,0.2-0.8,0.5
		c-0.2,0.3-0.3,0.8-0.3,1.3h2.1v-0.2c0-0.5-0.1-0.9-0.2-1.2S115.7,15.3,115.4,15.3z"/>
	<path class="st1" d="M122.8,22.3c-1.1,0-2-0.4-2.6-1.2c-0.6-0.8-0.9-1.8-0.9-3v-0.3c0-1.3,0.3-2.3,0.9-3.1s1.4-1.2,2.5-1.2
		c1,0,1.7,0.3,2.3,1s0.8,1.6,0.8,2.8v1.2h-4.2c0,0.6,0.2,1.1,0.4,1.5c0.2,0.4,0.6,0.6,1.1,0.6c0.4,0,0.8-0.1,1.1-0.2
		c0.3-0.1,0.6-0.3,0.9-0.5l0.6,1.4c-0.3,0.3-0.7,0.5-1.2,0.7C123.9,22.2,123.4,22.3,122.8,22.3z M122.7,15.3c-0.4,0-0.6,0.2-0.8,0.5
		c-0.2,0.3-0.3,0.8-0.3,1.3h2.1v-0.2c0-0.5-0.1-0.9-0.2-1.2C123.2,15.5,123,15.3,122.7,15.3z"/>
	<path class="st1" d="M134.7,18L134.7,18l1.2-7.2h2.2l-2.2,11.3h-2l-1.7-7l0,0l-1.6,7h-2l-2.2-11.3h2.2l1.2,7.2l0,0l1.6-7.2h1.7
		L134.7,18z"/>
	<path class="st1" d="M143,22.2c-0.1-0.2-0.2-0.4-0.2-0.6c-0.1-0.2-0.1-0.4-0.1-0.7c-0.2,0.4-0.4,0.8-0.7,1
		c-0.3,0.3-0.7,0.4-1.1,0.4c-0.8,0-1.4-0.2-1.8-0.7c-0.4-0.4-0.6-1.1-0.6-1.8c0-0.8,0.3-1.5,0.8-1.9c0.5-0.5,1.4-0.7,2.4-0.7h1v-0.7
		c0-0.4-0.1-0.7-0.2-1c-0.2-0.2-0.4-0.3-0.7-0.3s-0.5,0.1-0.6,0.3s-0.2,0.4-0.2,0.8h-2.1l0,0c0-0.7,0.2-1.3,0.8-1.9
		c0.6-0.5,1.3-0.8,2.3-0.8c0.9,0,1.6,0.3,2.2,0.8c0.5,0.5,0.8,1.2,0.8,2.2V20c0,0.4,0,0.8,0.1,1.1c0.1,0.4,0.1,0.7,0.3,1.1H143z
		 M141.4,20.7c0.3,0,0.5-0.1,0.8-0.3c0.2-0.2,0.4-0.4,0.5-0.6v-1.3h-1c-0.4,0-0.6,0.1-0.8,0.4c-0.2,0.2-0.3,0.5-0.3,0.9
		c0,0.3,0.1,0.5,0.2,0.7S141.1,20.7,141.4,20.7z"/>
	<path class="st1" d="M148.5,22.2h-2.2V10h2.2V22.2z"/>
	<path class="st1" d="M152.4,22.2h-2.2V10h2.2V22.2z"/>
	<path class="st1" d="M157.2,22.3c-1.1,0-2-0.4-2.6-1.2c-0.6-0.8-0.9-1.8-0.9-3v-0.3c0-1.3,0.3-2.3,0.9-3.1c0.6-0.8,1.4-1.2,2.5-1.2
		c1,0,1.7,0.3,2.3,1c0.5,0.7,0.8,1.6,0.8,2.8v1.2H156c0,0.6,0.2,1.1,0.4,1.5s0.6,0.6,1.1,0.6c0.4,0,0.8-0.1,1.1-0.2s0.6-0.3,0.9-0.5
		l0.6,1.4c-0.3,0.3-0.7,0.5-1.2,0.7C158.3,22.2,157.8,22.3,157.2,22.3z M157,15.3c-0.4,0-0.6,0.2-0.8,0.5c-0.2,0.3-0.3,0.8-0.3,1.3
		h2.1v-0.2c0-0.5-0.1-0.9-0.2-1.2C157.6,15.5,157.4,15.3,157,15.3z"/>
	<path class="st1" d="M163.8,11.7v2.1h1.1v1.6h-1.1v4.3c0,0.4,0.1,0.6,0.2,0.8c0.1,0.2,0.2,0.2,0.4,0.2c0.1,0,0.2,0,0.3,0
		s0.2,0,0.2-0.1l0.2,1.6c-0.2,0.1-0.4,0.1-0.6,0.2c-0.2,0-0.4,0.1-0.6,0.1c-0.7,0-1.3-0.2-1.6-0.7s-0.6-1.1-0.6-2.1v-4.3h-1v-1.6h1
		v-2.1C161.7,11.7,163.8,11.7,163.8,11.7z"/>
</g>
</svg>
