<?xml version="1.0" encoding="utf-8"?>
<!-- Generator: Adobe Illustrator 21.0.0, SVG Export Plug-In . SVG Version: 6.00 Build 0)  -->
<svg version="1.1" id="Слой_1" xmlns="http://www.w3.org/2000/svg" xmlns:xlink="http://www.w3.org/1999/xlink" x="0px" y="0px"
	 viewBox="0 0 67 67" style="enable-background:new 0 0 67 67;" xml:space="preserve">
<style type="text/css">
	.st0{fill:#8A5D3B;}
	.st1{fill:#FFFFFF;}
	.st2{fill:#603813;}
	.st3{fill:#3F61AC;}
	.st4{fill:#58595B;}
</style>
<g>
	<path class="st0" d="M33.5,64.4c-17.1,0-30.9-13.9-30.9-30.9S16.4,2.6,33.5,2.6c17.1,0,30.9,13.9,30.9,30.9c0,1.8-0.2,3.5-0.5,5.2
		l2.2,2.2c0.5-2.4,0.9-4.9,0.9-7.4C67,15,52,0,33.5,0C15,0,0,15,0,33.5S15,67,33.5,67c3,0,5.8-0.4,8.6-1.1L40,63.8
		C37.9,64.2,35.7,64.4,33.5,64.4z"/>
	<path class="st1" d="M11.1,35C11.1,35,11.1,35,11.1,35L11.1,35C11.1,35,11.1,35,11.1,35z"/>
	<path class="st2" d="M66.1,40.9L64,38.7c-2.1,12.5-11.7,22.4-24,25l2.1,2.1C54,62.7,63.4,53.1,66.1,40.9z"/>
	<path class="st1" d="M33.5,2.6C16.4,2.6,2.6,16.4,2.6,33.5s13.9,30.9,30.9,30.9c2.2,0,4.4-0.2,6.5-0.7c12.3-2.6,21.9-12.5,24-25
		c0.3-1.7,0.5-3.4,0.5-5.2C64.4,16.4,50.6,2.6,33.5,2.6z M54,54c-4.4,4.4-10,7.1-15.7,8.1C29.4,63.6,19.9,60.9,13,54
		C1.7,42.7,1.7,24.3,13,13C24.3,1.7,42.7,1.7,54,13c6.6,6.6,9.3,15.5,8.3,24.1C61.5,43.2,58.8,49.3,54,54z"/>
	<path class="st2" d="M62.3,37l-6.5-6.5c-2.2,6.6-10.3,10.5-19,8.5c-2.7-0.6-5.1-1.8-7.6-2.8c-1.9-0.8-3.6-1.8-5.5-2.5
		c-4.4-1.7-6.8-2.6-12.5,1.3l27.1,27.1c5.8-1,11.3-3.6,15.7-8.1C58.8,49.3,61.5,43.2,62.3,37z"/>
	<path class="st3" d="M11.1,34.9L11.1,34.9C11.1,34.9,11.1,34.9,11.1,34.9L11.1,34.9z"/>
	<path class="st0" d="M54,13C42.7,1.7,24.3,1.7,13,13C1.7,24.3,1.7,42.7,13,54c6.9,6.9,16.4,9.6,25.3,8.1L11.2,35c0,0,0,0-0.1,0
		c0,0,0-0.1,0-0.1l0,0l0,0c0.8-2.6,1.7-5,4.8-6.4c0.8-0.4,1.7-0.6,2.5-0.8c2.9-0.5,5.7,0.3,8.5,1.4c2.7,1.1,4.7,2.2,7.9,3.5
		c6.6,3.2,13.6,4.1,19.3-0.8c0.4-0.4,0.8-0.7,1.5-1.3c0.1-0.1,0.2-0.1,0.3-0.2c0,0.1-0.1,0.2-0.1,0.3l6.5,6.5
		C63.3,28.5,60.6,19.6,54,13z"/>
	<path class="st4" d="M56.3,31.1c-0.7,0.6-1.2,0.9-1.5,1.3c-5.7,4.9-12.7,4-19.3,0.8c-3.2-1.3-5.2-2.4-7.9-3.5
		c-2.8-1.1-5.6-1.9-8.5-1.4c-0.8,0.2-1.6,0.4-2.5,0.8c-3,1.5-4,3.8-4.8,6.4c0,0,0,0,0,0.1l0,0c5.7-3.8,8.2-3,12.5-1.3
		c1.9,0.7,3.6,1.7,5.5,2.5c2.5,1,4.9,2.2,7.6,2.8c8.7,2.1,16.8-1.9,19-8.5c0-0.1,0.1-0.2,0.1-0.3C56.5,31,56.4,31,56.3,31.1z"/>
	<path class="st1" d="M55.6,30.4c-0.7,0.6-1.2,0.9-1.5,1.3c-5.7,4.9-12.7,4-19.3,0.8c-3.2-1.3-5.2-2.4-7.9-3.5
		c-2.8-1.1-5.6-1.9-8.5-1.4c-0.8,0.2-1.6,0.4-2.5,0.8c-3,1.5-4,3.8-4.8,6.4c0,0,0,0,0,0.1l0,0c5.7-3.8,8.2-3,12.5-1.3
		c1.9,0.7,3.6,1.7,5.5,2.5c2.5,1,4.9,2.2,7.6,2.8c8.7,2.1,16.8-1.9,19-8.5c0-0.1,0.1-0.2,0.1-0.3C55.8,30.3,55.7,30.3,55.6,30.4z"/>
</g>
</svg>
