<?xml version="1.0" encoding="utf-8"?>
<!-- Generator: Adobe Illustrator 21.0.0, SVG Export Plug-In . SVG Version: 6.00 Build 0)  -->
<svg version="1.1" id="Слой_1" xmlns="http://www.w3.org/2000/svg" xmlns:xlink="http://www.w3.org/1999/xlink" x="0px" y="0px"
	 viewBox="0 0 67 67" style="enable-background:new 0 0 67 67;" xml:space="preserve">
<style type="text/css">
	.st0{fill:#F0C800;}
	.st1{fill:#2D2D2D;}
</style>
<path class="st0" d="M24.8,21.9l0.1,0.1l-0.1,0.1l-5.5,10.2h-6.8H5.6L0.1,22.1L0,22l0.1-0.1l5.5-10.3h6.9h6.9L24.8,21.9z M66.9,44.3
	L66.9,44.3v-0.2l-5.5-10.2h-6.8h-6.9l-5.5,10.3l-0.1,0.1l0.1,0.1l5.5,10.3h6.9h6.9L66.9,44.3z M45.9,55L45.9,55v-0.2l-5.5-10.2h-6.8
	h-6.9l-5.5,10.3L21.1,55l0.1,0.1l5.5,10.3h6.9h6.9L45.9,55z M24.8,44.3l0.1-0.1l-0.1-0.1l-5.5-10.2h-6.8H5.6L0.1,44L0,44.1l0.1,0.1
	l5.5,10.3h6.9h6.9L24.8,44.3z M66.9,21.9L67,22l-0.1,0.1l-5.5,10.2h-6.8h-6.9L42.2,22l-0.1-0.1l0.1-0.1l5.5-10.3h6.9h6.9L66.9,21.9z
	 M45.9,11.2l0.1,0.1l-0.1,0.1l-5.5,10.2h-6.8h-6.9l-5.5-10.3l-0.1-0.1l0.1-0.1L26.7,1h6.9h6.9L45.9,11.2z"/>
<polygon class="st1" points="31.4,26.2 27.3,41.8 39.6,41.9 38.5,38.1 32.4,38 35.7,26.2 "/>
</svg>
