<?xml version="1.0" encoding="utf-8"?>
<!-- Roman Inozemtsev: https://github.com/mir-one/  -->
<svg version="1.1"
	 id="Слой_1" shape-rendering="geometricPrecision" text-rendering="geometricPrecision" image-rendering="optimizeQuality"
	 xmlns="http://www.w3.org/2000/svg" xmlns:xlink="http://www.w3.org/1999/xlink" x="0px" y="0px" viewBox="0 0 234 155.1"
	 style="enable-background:new 0 0 234 155.1;" xml:space="preserve">
<style type="text/css">
	.st0{fill:#4062ad;}
	.st1{fill:#161616;}
</style>
<rect id="Rectangle-path_1_" x="86.2" y="13.4" transform="matrix(0.7071 -0.7071 0.7071 0.7071 2.3269 97.2842)" class="st0" width="64.8" height="64.8"/>
<g id="Group_2_" transform="translate(0.000000, 9.831094)">
	<polygon id="Shape_14_" class="st1" points="62.8,103.7 54.8,103.7 54,104.4 45.9,132.3 45.8,132.3 36.7,104.4 35.9,103.7 
		27.6,103.7 26.8,104.4 17.7,132.2 17.6,132.1 17.5,132 9.4,104.4 8.6,103.7 0.5,103.7 0,104.4 12.7,143.7 13.6,144.5 21.5,144.5 
		22.4,143.7 31.5,115.6 31.7,115.6 40.8,143.7 41.6,144.5 49.7,144.5 50.6,143.7 63.3,104.4 	"/>
	<polygon id="Shape_13_" class="st1" points="152.3,103.7 144.3,103.7 143.5,104.4 132.3,133.5 132.2,133.5 121.2,104.4 
		120.3,103.7 112.2,103.7 111.7,104.4 127.6,143.7 128.5,144.5 135.9,144.5 136.8,143.7 152.8,104.4 	"/>
	<path id="Shape_12_" class="st1" d="M193.4,126.3l0.8-0.7v-1.2c0-6.4-1.8-11.8-5.4-15.7c-3.6-3.8-8.4-5.8-14.3-5.8
		c-5.7,0-10.5,2.1-14.1,6.3s-5.5,9.2-5.5,14.8c0,6.1,1.9,11.1,5.7,15.1c3.8,4,8.7,6,14.7,6c4.3,0,8.1-1,11.1-3.2
		c3-2.1,6.2-5.5,7.2-10.1l-0.6-0.8h-7.4l-1,0.8c-1.9,3.7-4.7,5.5-9.4,5.5c-3.1,0-5.8-1.1-8.1-3.2c-2.2-2-3.4-4.4-3.7-7.9
		L193.4,126.3z M163.9,119c1.3-4.8,5.3-8.4,10.6-8.4c7,0,9.9,5,10.7,8.4H163.9z"/>
	<path id="Shape_11_" class="st1" d="M98.8,103.7l-0.8,0.8v4l-0.2,0.2c-1-1.3-2.4-2.5-4.1-3.5c-0.4-0.2-0.8-0.4-1.2-0.6
		c-2.2-1.1-4.8-1.6-7.5-1.6c-5.1,0-9.6,2.1-13.3,6.1s-5.6,9.1-5.6,15.1s1.9,11,5.6,15.1c3.7,4,8.2,6.1,13.3,6.1
		c2.7,0,5.2-0.5,7.4-1.6c0.4-0.2,0.9-0.4,1.3-0.7c1.6-1,2.9-2.1,4-3.4c0.1-0.1,0.2,0.1,0.3,0v4.2l0.8,0.8h6.8l0.8-0.8v-39.4
		l-0.8-0.8L98.8,103.7L98.8,103.7z M94.6,133.8c-2.3,2.4-5,3.6-8.3,3.6c-3.2,0-5.6-1.2-7.9-3.7c-2.3-2.4-3.5-5.7-3.5-9.8
		c0-4,1.2-7.3,3.5-9.8c2.3-2.4,4.7-3.7,7.9-3.7c3.3,0,6,1.2,8.3,3.6c1.5,1.6,2.5,3.5,3.1,5.8v7.9C97.1,130.3,96.1,132.3,94.6,133.8z
		"/>
	<path id="Shape_10_" class="st1" d="M222.1,120.9c0,0-4.4-0.9-8.1-1.8c-3.4-0.8-5.1-1.8-5.1-4.1c0-2.5,2.4-4.7,7.7-4.7
		c5.1,0,8,2.3,8,4.3l0.9,0.8h7.4l0.6-0.7c0-5.3-4.6-11.7-16.7-11.7c-12.6,0-16.5,7.4-16.5,12.2c0,4,1.4,8.7,11.1,10.9
		c0,0,4.6,1,8.3,1.9c4.2,0.9,5.9,2.4,5.9,4.8c0,2.2-2.2,4.9-8,4.9c-5.4,0-8.6-2.6-8.8-5.6l-0.9-0.8h-7.6l-0.6,0.8
		c0.7,6.8,5.7,13.2,17.8,13.2c13.7,0,16.5-8.4,16.5-12.8C234,126.6,230.6,122.8,222.1,120.9z"/>
</g>
</svg>
