<?xml version="1.0" encoding="utf-8"?>
<!-- Roman Inozemtsev: https://github.com/mir-one/  -->
<svg version="1.1"
	 id="Слой_1" shape-rendering="geometricPrecision" text-rendering="geometricPrecision" image-rendering="optimizeQuality"
	 xmlns="http://www.w3.org/2000/svg" xmlns:xlink="http://www.w3.org/1999/xlink" x="0px" y="0px" viewBox="0 0 88.2 18.3"
	 style="enable-background:new 0 0 88.2 18.3;" xml:space="preserve">
<style type="text/css">
	.st0{fill:#4062ad;}
	.st1{fill:#161616;}
</style>
<rect id="Rectangle-path_1_" x="80.3" y="1.4" transform="matrix(0.7071 -0.7071 0.7071 0.7071 21.2162 60.4447)" class="st0" width="6.5" height="6.5"/>
<g id="Group_2_" transform="translate(0.000000, 9.831094)">
	<polygon id="Shape_14_" class="st1" points="20.5,-5.2 17.9,-5.2 17.7,-5 15,4.1 15,4.1 12,-5 11.7,-5.2 9,-5.2 8.8,-5 5.8,4.1 
		5.8,4.1 5.7,4 3.1,-5 2.8,-5.2 0.2,-5.2 0,-5 4.1,7.9 4.4,8.1 7,8.1 7.3,7.9 10.3,-1.3 10.4,-1.3 13.3,7.9 13.6,8.1 16.3,8.1 
		16.6,7.9 20.7,-5 	"/>
	<polygon id="Shape_13_" class="st1" points="49.8,-5.2 47.2,-5.2 46.9,-5 43.3,4.5 43.3,4.5 39.7,-5 39.4,-5.2 36.7,-5.2 36.5,-5 
		41.7,7.9 42,8.1 44.4,8.1 44.7,7.9 50,-5 	"/>
	<path id="Shape_12_" class="st1" d="M63.3,2.2l0.3-0.2V1.5c0-2.1-0.6-3.9-1.8-5.1c-1.2-1.3-2.7-1.9-4.7-1.9c-1.9,0-3.4,0.7-4.6,2
		c-1.2,1.4-1.8,3-1.8,4.9c0,2,0.6,3.6,1.9,4.9s2.9,2,4.8,2c1.4,0,2.6-0.3,3.6-1c1-0.7,2-1.8,2.4-3.3l-0.2-0.3h-2.4L60.4,4
		c-0.6,1.2-1.5,1.8-3.1,1.8c-1,0-1.9-0.4-2.6-1c-0.7-0.7-1.1-1.5-1.2-2.6L63.3,2.2z M53.6-0.2c0.4-1.6,1.7-2.7,3.5-2.7
		c2.3,0,3.2,1.6,3.5,2.7H53.6z"/>
	<path id="Shape_11_" class="st1" d="M32.3-5.2L32.1-5v1.3L32-3.6c-0.3-0.4-0.8-0.8-1.3-1.2c-0.1-0.1-0.3-0.1-0.4-0.2
		c-0.7-0.4-1.6-0.5-2.5-0.5c-1.7,0-3.1,0.7-4.4,2c-1.2,1.3-1.8,3-1.8,4.9s0.6,3.6,1.8,4.9c1.2,1.3,2.7,2,4.4,2
		c0.9,0,1.7-0.2,2.4-0.5c0.1-0.1,0.3-0.1,0.4-0.2c0.5-0.3,1-0.7,1.3-1.1c0,0,0.1,0,0.1,0v1.4l0.3,0.3h2.2l0.3-0.3V-5l-0.3-0.3
		L32.3-5.2L32.3-5.2z M30.9,4.6c-0.7,0.8-1.6,1.2-2.7,1.2c-1,0-1.8-0.4-2.6-1.2c-0.8-0.8-1.1-1.9-1.1-3.2c0-1.3,0.4-2.4,1.1-3.2
		C26.4-2.6,27.1-3,28.2-3s2,0.4,2.7,1.2c0.5,0.5,0.8,1.2,1,1.9v2.6C31.8,3.5,31.4,4.1,30.9,4.6z"/>
	<path id="Shape_10_" class="st1" d="M72.7,0.4c0,0-1.5-0.3-2.7-0.6c-1.1-0.3-1.7-0.6-1.7-1.4c0-0.8,0.8-1.5,2.5-1.5
		c1.7,0,2.6,0.7,2.6,1.4l0.3,0.3h2.4l0.2-0.2c0-1.7-1.5-3.8-5.4-3.8c-4.1,0-5.4,2.4-5.4,4c0,1.3,0.5,2.8,3.6,3.6
		c0,0,1.5,0.3,2.7,0.6c1.4,0.3,1.9,0.8,1.9,1.6c0,0.7-0.7,1.6-2.6,1.6c-1.8,0-2.8-0.8-2.9-1.8L68,3.8h-2.5L65.3,4
		c0.2,2.2,1.9,4.3,5.8,4.3c4.5,0,5.4-2.7,5.4-4.2C76.5,2.3,75.4,1,72.7,0.4z"/>
</g>
</svg>
