<?xml version="1.0" encoding="utf-8"?>
<!-- Roman Inozemtsev: https://github.com/mir-one/  -->
<svg version="1.1"
	 id="Слой_1" shape-rendering="geometricPrecision" image-rendering="optimizeQuality" text-rendering="geometricPrecision"
	 xmlns="http://www.w3.org/2000/svg" xmlns:xlink="http://www.w3.org/1999/xlink" x="0px" y="0px" viewBox="0 0 113.9 113.9"
	 style="enable-background:new 0 0 113.9 113.9;" xml:space="preserve">
<style type="text/css">
	.st0{fill:#4C75A3;}
</style>
<path id="Layer_x0020_1" class="st0" d="M4.1,46.9L46.9,4.1c5.5-5.5,14.6-5.5,20.1,0l42.8,42.8c5.5,5.5,5.5,14.6,0,20.1L67,109.8
	c-5.5,5.5-14.6,5.5-20.1,0L4.1,67C-1.4,61.5-1.4,52.4,4.1,46.9z M47.7,37.9c-2.3,0.1-4.7,0.3-6.1,2.2c-1.2,1.6,2.7-0.4,3.9,4
	c0.4,1.5,0.4,3.5,0.4,5.1c0.1,2.3,0.2,8.6-2,8.9c-2.9,0.4-8.3-10.1-9.5-12.6c-0.6-1.2-1.1-2.5-1.7-3.8c-0.6-1.4-1.6-2-3.5-2
	c-1.8,0-3.6,0-5.4,0c-1.4,0-4.1-0.1-5.3,0.2c-1.9,0.6-0.9,2.4-0.3,3.6c1.6,3.6,3.6,7.7,5.5,11c3.6,6.3,8.4,14.4,14.2,18.9
	c2,1.6,4.2,2.9,7,4c3.2,1.2,5.8,1.5,9.6,1.5c1.8,0,3.6,0.2,4.6-0.9c0.8-0.8,0.6-3.2,0.8-4.6c0.3-1.6,0.8-3,1.9-3.6
	c1.8-1.1,3.9,1.4,5,2.6c2.1,2.4,4.2,5.3,7.4,6.4c1.6,0.5,3.5,0.3,5.2,0.3c1.8,0,3.6-0.1,5.3-0.1c1.8,0,3.4-0.1,4.4-1.1
	c1.4-1.5-0.6-4.2-1.7-5.6c-0.4-0.5-0.9-1.1-1.3-1.5l-5.5-5.5c-2.1-2.3-4.3-3.2-1.7-6.9c1.2-1.7,3.4-4.5,4.7-6.2
	c1.3-1.7,3.5-4.8,4.4-6.6c1.8-3.4,2.8-6-2.3-5.7c-1.8,0.1-3.7,0-5.5,0c-1.8,0-3.7,0.1-5.5,0c-2,0-2.2,1.1-2.9,2.6
	c-2.1,4.9-3.8,8.1-6.9,12.4c-0.4,0.5-0.8,1.1-1.2,1.5c-0.4,0.4-0.9,0.9-1.4,1.3c-0.8,0.5-1.3,0.6-1.9-0.1c-0.9-1-1-2.8-1-4.5
	c0-1.8,0-3.7,0.1-5.5c0.1-1.7,0.2-3.6,0.1-5.3c-0.1-1.9-0.5-3.1-1.9-3.6C55.8,37.6,50.3,37.7,47.7,37.9z"/>
</svg>
