<?xml version="1.0" encoding="utf-8"?>
<!-- Roman Inozemtsev: https://github.com/mir-one/  -->
<svg version="1.1" id="Слой_1" xmlns="http://www.w3.org/2000/svg" xmlns:xlink="http://www.w3.org/1999/xlink" x="0px" y="0px"
	 viewBox="0 0 64.8 64.5" style="enable-background:new 0 0 64.8 64.5;" xml:space="preserve">
<style type="text/css">
	.st0{fill:#FFFFFF;}
	.st1{fill:#E2E2E2;}
	.st2{fill:#3889C7;}
</style>
<path class="st0" d="M32.3,2.5C15.8,2.5,2.5,15.8,2.5,32.2C2.5,48.7,15.8,62,32.3,62c0.3,0,0.6,0,1,0c15-0.5,27.2-12,28.7-26.7
	c0.1-1,0.2-2,0.2-3C62,15.8,48.7,2.5,32.3,2.5z M52,52c-5.7,5.7-13.2,8.4-20.6,8.1c-6.8-0.2-13.6-2.9-18.9-8.1
	c-10.9-10.9-10.9-28.6,0-39.5C23.4,1.6,41.1,1.6,52,12.5c5.8,5.8,8.5,13.5,8.1,21C59.8,40.2,57.1,46.9,52,52z"/>
<path class="st1" d="M32.3,0C14.4,0,0,14.4,0,32.2s14.4,32.3,32.3,32.3c1.1,0,2.2-0.1,3.3-0.2C50.1,62.9,61.7,51.7,64,37.4
	c0.3-1.7,0.5-3.4,0.5-5.2C64.5,14.4,50.1,0,32.3,0z M33.2,62c-0.3,0-0.6,0-1,0C15.8,62,2.5,48.7,2.5,32.2
	c0-16.5,13.3-29.8,29.8-29.8C48.7,2.5,62,15.8,62,32.2c0,1-0.1,2-0.2,3C60.4,50,48.2,61.5,33.2,62z"/>
<path class="st1" d="M52,12.5c-10.9-10.9-28.6-10.9-39.5,0C1.6,23.4,1.6,41.1,12.5,52c5.2,5.2,12,7.9,18.9,8.1
	c7.4,0.2,15-2.5,20.6-8.1c5.1-5.1,7.8-11.8,8.1-18.5C60.5,26,57.8,18.3,52,12.5z"/>
<g>
	<path class="st2" d="M54.9,34.2c-0.4,0.3-0.6,0.5-0.8,0.7c-2.9,2.5-6.5,2-9.8,0.4c-1.6-0.7-2.6-1.2-4-1.8c-1.4-0.6-2.9-1-4.3-0.7
		c-0.4,0.1-0.8,0.2-1.3,0.4c-1.5,0.7-2,1.9-2.4,3.3c0,0,0,0,0,0l0,0c2.9-2,4.2-1.5,6.4-0.6c1,0.4,1.8,0.9,2.8,1.3
		c1.3,0.5,2.5,1.1,3.9,1.4C49.8,39.6,53.9,37.6,54.9,34.2c0.1,0,0.1,0,0.1-0.1C55,34.1,55,34.2,54.9,34.2z"/>
	<path class="st2" d="M29.8,27.1c-0.3,0.3-0.5,0.5-0.7,0.7c-2.6,2.5-5.8,2-8.8,0.4c-1.5-0.7-2.4-1.2-3.6-1.8c-1.3-0.6-2.5-1-3.9-0.7
		c-0.4,0.1-0.7,0.2-1.1,0.4c-1.4,0.7-1.8,1.9-2.2,3.3c0,0,0,0,0,0l0,0c2.6-2,3.7-1.5,5.7-0.6c0.9,0.4,1.6,0.9,2.5,1.3
		c1.1,0.5,2.2,1.1,3.4,1.4C25.1,32.6,28.8,30.6,29.8,27.1c0.1,0,0.1,0,0.1-0.1C29.8,27.1,29.8,27.1,29.8,27.1z"/>
	<path class="st2" d="M47,31.7c-2.6-3.4-6.3-5.3-10.3-4.2c-1.2,0.3-2.5,0.8-3.6,1.3c-0.9,0.4-1.1,0.7-2.4,1.8
		c-1.7,1.3-5.3,6-10.2,3.3c-1.5-0.7-2.3-0.8-3.7-1.3c-1.3-0.5-2.7-0.7-4-0.4c-0.4,0.1-0.7,0.2-1.1,0.4c-1.4,0.7-1.8,1.9-2.2,3.3
		c0,0,0,0,0,0l0,0c2.6-2,3.7-1.5,5.7-0.6c0.9,0.4,1.6,0.9,2.5,1.3c1.1,0.5,2.3,0.9,3.4,1.4c0.7,0.3,1.5,0.5,2.2,0.5c0,0,0,0,0,0
		c1.8,0.3,3.8-0.6,5.3-1.7c0.3-0.3,1.2-0.9,1.4-1.2c1.4-1.2,2.2-1.9,3.4-2.7c1.1-0.8,2-1.3,3.5-1.8c3.2-0.7,4.8-0.7,8.4,0.8
		c1.8,1.3,2.5,2.1,2.6,2.2c0,0.1,0.4,0.3,0.4,0.3C48.3,34.2,47,31.7,47,31.7z"/>
</g>
</svg>
