<?xml version="1.0" encoding="utf-8"?>
<!-- Roman Inozemtsev: https://github.com/mir-one/  -->
<svg version="1.1" id="Слой_1" xmlns="http://www.w3.org/2000/svg" xmlns:xlink="http://www.w3.org/1999/xlink" x="0px" y="0px"
	 viewBox="0 0 64.5 64.5" style="enable-background:new 0 0 64.5 64.5;" xml:space="preserve">
<style type="text/css">
	.st0{fill:#22324D;}
	.st1{fill:#2A416D;}
	.st2{fill:#FFFFFF;}
</style>
<g>
	<path class="st0" d="M32.1,0.1C14.4,0.1,0,14.6,0,32.4s14.4,32.3,32.3,32.3c1.1,0,2.2-0.1,3.3-0.2C50.1,63,61.7,51.8,64,37.6
		c0.3-1.7,0.5-3.4,0.5-5.2C64.4,14.6,50,0.1,32.1,0.1z M33.1,62.1c-0.3,0-0.6,0-1,0c-16.4,0-29.8-13.3-29.8-29.8S15.7,2.5,32.1,2.5
		s29.8,13.3,29.8,29.8c0,1-0.1,2-0.2,3C60.3,50.1,48.1,61.6,33.1,62.1z"/>
	<path class="st0" d="M52,12.6c-10.9-10.9-28.6-10.9-39.4,0S1.7,41.2,12.5,52c5.2,5.2,12,8,18.8,8.2c7.5,0.2,14.9-2.5,20.6-8.2
		c5.1-5.1,7.8-11.7,8.2-18.4C60.4,26.1,57.7,18.4,52,12.6z"/>
	<g>
		<path class="st0" d="M30,60.2c-1.2,0-2.5-0.2-3.7-0.5c-5.6-1.2-10.5-3.8-14.4-7.9s-6.6-9-7.6-14.6c-0.6-3.2-0.6-6.5-0.1-9.7
			c0.4-2.1,0.9-4.2,1.8-6.2c0.2-0.4,0.3-0.8,0.5-1.2l0,0v-0.1c0,0,0,0,0-0.1c0.9-2,2.1-3.9,3.5-5.6c4.1-5,9.4-8.3,15.6-9.8
			c0.8-0.2,1.6-0.3,2.4-0.4c0.5,0,1.1-0.1,1.6-0.2c0.3,0,0.6,0,1,0c0.1,0,0.2,0,0.3,0c0.6,0.1,1.1,0.1,1.7,0c0.2,0,0.4,0,0.6,0
			c0.3,0,0.6,0.1,1,0.1c0.1,0,0.2,0,0.3,0c0.1,0,0.3,0.1,0.5,0c0.1,0,0.1,0,0.2,0c0.6,0.1,1.2,0.2,1.8,0.3c0.1,0,0.1,0,0.2,0
			c0.1,0.1,0.1,0.1,0.2,0c0.1,0,0.1,0,0.2,0c0.1,0.1,0.2,0,0.3,0.1h0.1c0.2,0.1,0.3,0.1,0.5,0.1h0.1c0.1,0.2,0.2,0.2,0.2,0.2h0.1
			c0.1,0.1,0.1,0.1,0.2,0.1h0.1c0,0.1,0.1,0.1,0.1,0c0.1,0,0.1,0,0.2,0c0,0.1,0.1,0.1,0.1,0c0.1,0,0.1,0,0.2,0c0,0,0,0,0.1,0h0.1
			C39.9,5,40,5,40.1,5h0.1c0,0.1,0.1,0.1,0.1,0h0.1c0,0.1,0.1,0.1,0.1,0c0.1,0,0.1,0,0.2,0.1h0.1C43.5,6,46,7.3,48.3,8.9
			c6,4.4,9.8,10.3,11.2,17.5c0.2,0.8,0.2,1.6,0.3,2.3c0.2,1.3,0.2,2.7,0.2,4c-0.2,5.1-1.6,9.9-4.4,14.1c-3.4,5.3-8,9-13.8,11.2
			c-2.1,0.8-4.3,1.4-6.6,1.6c-0.5,0-0.9,0.1-1.4,0.1c-0.4,0-0.8-0.1-1.2,0c-0.5,0.1-1,0.1-1.6,0C30.8,60.1,30.4,60.2,30,60.2z
			 M14.1,13.7L14.1,13.7L14.1,13.7C14,13.8,14,13.8,14.1,13.7L14.1,13.7c-0.1,0.1-0.1,0.1-0.2,0.2l0,0c0,0,0,0-0.1,0.1l0,0
			c0,0,0,0-0.1,0.1l-0.1,0.1c0,0,0,0-0.1,0.1l0,0c0,0,0,0-0.1,0.1c-0.1,0.2-0.2,0.3-0.4,0.4c0,0,0,0.1-0.1,0.1
			c0,0.1-0.1,0.2-0.2,0.2l-0.1,0.1c-0.2,0.2-0.5,0.5-0.7,0.8v0.1l0,0l0,0c0,0,0,0.1-0.1,0.1c-0.1,0.1-0.1,0.2-0.2,0.2
			c0,0,0,0-0.1,0.1l0,0c0,0,0,0.1-0.1,0.1c-0.1,0.1-0.1,0.2-0.2,0.2c0,0,0,0-0.1,0.1l0,0c-0.2,0-0.2,0.1-0.2,0.3
			c-0.1,0.1-0.1,0.2-0.2,0.2c0,0,0,0.1-0.1,0.1c0,0.1-0.1,0.1-0.1,0.2c0,0,0,0-0.1,0.1c0,0,0,0.1-0.1,0.1c-0.3,0-0.3,0.2-0.3,0.5
			l-0.1,0.1c-0.1,0-0.2,0-0.3,0.1c-0.9,1.3-1.6,2.7-2.3,4.2c-0.1,0.2-0.3,0.4,0,0.6c0,0.1-0.1,0.3-0.1,0.4v0.1c0,0.1,0,0.2-0.1,0.2
			c-0.2,0.1-0.5,0.8-0.5,1.1l0.1,0.1v0.1c-0.1,0-0.1,0.1-0.1,0.2l0,0c0.2-0.1,0.2,0,0.2,0.1c-0.1,0.6-0.4,1.3-0.5,1.9
			C6.1,29,6,30.4,5.9,31.8c-0.1,1.2,0,2.5,0.1,3.7c0.1,0.8,0.2,1.6,0.4,2.4c0.2,0.8,0.4,1.6,0.6,2.4c0.2,0.7,0.5,1.5,0.8,2.2
			c0.2,0.5,0.4,0.9,0.6,1.4c0.5,0.9,0.9,1.8,1.5,2.7c0.4,0.6,0.8,1.3,1.3,1.9c0.5,0.7,1.1,1.3,1.6,1.9c0.8,1,1.8,1.8,2.8,2.6
			c0.7,0.6,1.5,1.2,2.4,1.7c0.8,0.5,1.6,1,2.4,1.3c1,0.5,2.1,1,3.2,1.4c1.1,0.4,2.1,0.7,3.3,0.9c0.9,0.2,1.8,0.3,2.8,0.4
			c0.7,0.1,1.3,0.2,1.9,0.1c0.1,0,0.2,0,0.3,0.1c0.1,0.1,0.3,0.1,0.5,0.1c1.2,0.1,2.4-0.2,3.6-0.3c0.9-0.1,1.8-0.3,2.7-0.5
			c0.8-0.2,1.6-0.4,2.4-0.7c0.6-0.2,1.3-0.5,1.9-0.7c0.9-0.4,1.7-0.8,2.5-1.2c1.1-0.6,2.2-1.3,3.2-2.1c0.7-0.6,1.4-1.1,2.1-1.8
			c1.2-1.1,2.3-2.4,3.3-3.7c0.6-0.9,1.2-1.7,1.7-2.6c0.6-1.1,1.2-2.2,1.6-3.4c0.5-1.2,0.9-2.4,1.2-3.7c0.2-0.9,0.4-1.9,0.5-2.8
			c0.1-0.8,0.2-1.7,0-2.5c-0.3-1.4-1-2-2.3-2.3c-0.8-0.2-1.7-0.1-2.5,0c-0.4,0-0.8,0.2-1.2,0.2c-1.1-0.2-2.2-0.2-3.3,0.1
			c-0.6,0.2-1.2,0.5-1.7,1c-0.6,0.6-1,1.3-1.5,2c-0.8,1.2-1.6,2.3-2.5,3.4c-0.8,0.9-1.6,1.8-2.6,2.5c-0.7,0.5-1.4,0.7-2.2,0.6
			c-0.4-0.1-0.8-0.2-1.1-0.5c-0.6-0.6-1.2-1.3-1.6-2.1c-0.4-0.7-0.8-1.3-1.3-1.9c-0.5-0.7-1-1.3-1.6-1.8c-0.3-0.2-0.6-0.6-1-0.7
			C32,33.3,31.5,33.1,31,33c-0.5-0.1-1-0.1-1.6-0.2c-0.3,0-0.5,0-0.7,0.2c-0.2,0.1-0.3,0.1-0.5,0.1c0.3-0.5,0.7-1,1.1-1.5
			c0.8-0.8,1.5-0.9,2.4-0.2c0.6,0.4,1.1,0.9,1.6,1.5c1.1,1.3,2.1,2.7,3.2,4c0.6,0.7,1.3,1.3,2.1,1.8c0.3,0.2,0.7,0.3,1,0.2
			c0.8-0.1,1.4-0.5,1.9-1c0.8-0.8,1.5-1.8,2.1-2.8c0.3-0.4,0.5-0.9,0.7-1.4c-0.2,0.3-0.4,0.7-0.7,1c-0.7,1.2-1.5,2.4-2.7,3.2
			c-1,0.8-1.8,0.8-2.8,0c-0.1-0.1-0.2-0.2-0.4-0.3c-0.7-0.6-1.3-1.3-1.8-2c-1-1.2-1.9-2.6-3-3.7c-0.5-0.5-1-1-1.7-1.3
			c-0.6-0.3-1.2-0.2-1.8,0.1c-0.7,0.4-1.2,1-1.6,1.7c-0.6,0.9-1.1,1.9-1.6,2.9c0,0,0,0.1-0.1,0.1c0,0,0,0,0,0.1v0.1l0,0
			c-0.2,0-0.3,0.1-0.4,0.3c-0.3,0.5-0.7,0.9-1.2,1.2c-0.4,0.3-0.9,0.5-1.4,0.4c-0.4-0.1-0.7-0.3-1-0.6c-0.2-0.2-0.4-0.5-0.7-0.6
			c-0.4-0.6-0.7-1.2-1-1.9c-0.6-1.2-1.1-2.5-1.6-3.8c0-0.5-0.1-0.6-0.3-0.6c-0.5,0-1,0-1.5,0c0-0.1,0-0.1-0.1-0.1c0,0,0,0.1-0.1,0.1
			c-0.2,0-0.5,0-0.7,0c-0.1-0.3-0.3-0.3-0.4-0.2c-0.1,0-0.3,0-0.4-0.1c-0.6-0.5-0.9-1.1-0.8-1.8c0-1,0.4-2,0.8-3
			c0.6-1.4,1.4-2.8,2.4-4c1.2-1.5,2.5-2.8,4.1-3.8c1.7-1.2,3.6-2,5.6-2.6c0.9-0.3,1.8-0.3,2.7-0.6c0.5-0.1,1-0.2,1.5-0.3
			c0.4-0.2,0.9-0.3,1.2-0.8c0.2,0,0.1-0.1,0.2-0.3c0.1,0,0.2-0.1,0.3-0.2c0.2-0.3,0.4-0.6,0.4-1c0-0.3,0.2-0.6,0.1-0.9
			s-0.1-0.6-0.2-0.9c-0.1-0.4-0.2-0.9-0.7-1.1c0-0.1,0-0.2-0.1-0.3c-0.2-0.2-0.4-0.4-0.6-0.5c-0.6-0.3-1.3-0.4-2-0.5
			c-0.3,0-0.6-0.1-0.9-0.1c-0.7,0.1-1.4,0.2-2.1,0.3c-0.8,0.1-1.7,0.2-2.5,0.5c-0.1,0-0.3,0.1-0.3-0.1c1.7-0.6,3.5-1,5.4-1.2
			c0.8,0,1.5-0.1,2.3-0.1c-0.1-0.1-0.1-0.1-0.1-0.1c-0.4,0-0.8,0-1.2,0c-0.3,0-0.7,0-1,0.1c-0.2,0.1-0.4,0-0.6,0h-0.1
			c-1.6,0.2-3.2,0.5-4.8,1h-0.1c-0.1,0-0.2,0.1-0.3,0.1c0,0-0.1,0-0.1,0.1h-0.1c0,0-0.1,0-0.1,0.1h-0.1c-0.1,0-0.1,0-0.1,0.1h-0.1
			c-0.1,0-0.2,0-0.2,0.1l0,0C23,8,23,8,22.9,8.1c0,0,0,0-0.1,0s-0.1,0-0.2,0.1l0,0c-0.1,0-0.2,0-0.2,0.1l0,0c-0.1,0-0.1,0-0.2,0.1
			l0,0c-0.1,0-0.1,0-0.2,0.1c0,0,0,0-0.1,0h-0.1h-0.1h-0.1h-0.1c-0.1,0-0.2,0-0.2,0.1l0,0h-0.1c0,0,0,0-0.1,0H21h-0.1
			c-0.1,0-0.1,0-0.2,0.1l0,0h-0.1h-0.1c0,0,0,0-0.1,0h-0.1c0,0,0,0-0.1,0h-0.1c0,0,0,0-0.1,0h-0.1c0,0,0,0-0.1,0h-0.1
			c-0.1,0-0.1,0-0.1,0.1l0,0c-0.1,0-0.1,0-0.2,0.1l0,0h-0.1c0,0,0,0-0.1,0c0,0-0.1,0-0.1,0.1C19,9,19,9.1,18.9,9.1l0,0
			c0,0-0.1,0-0.1,0.1c0,0,0,0-0.1,0h-0.1h-0.1c0,0,0,0-0.1,0c0,0-0.1,0-0.1,0.1c0,0,0,0-0.1,0c0,0-0.1,0-0.1,0.1l0,0c0,0,0,0-0.1,0
			h-0.1c0,0-0.1,0-0.1,0.1c0,0,0,0-0.1,0c0,0-0.1,0-0.1,0.1l0,0c-0.1,0-0.1,0-0.1,0.1c0,0-0.1,0-0.1,0.1c0,0,0,0-0.1,0
			c0,0,0,0-0.1,0c0,0-0.1,0-0.1,0.1C17,9.9,17,10,16.9,10c0,0-0.1,0-0.1,0.1c-0.1,0-0.1,0.1-0.2,0.1c-0.9,0.5-1.7,1.2-2.5,1.9
			c-0.1,0-0.1,0-0.1,0.1c-0.2,0.2-0.3,0.4-0.5,0.5C14.3,13.5,14.2,13.6,14.1,13.7L14.1,13.7C14.2,13.6,14.2,13.6,14.1,13.7
			L14.1,13.7z M44.4,33.2c0.1,0,0.1-0.1,0.2-0.2c0.2-0.5,0.5-1,0.7-1.5c0.1-0.3,0.3-0.6,0.3-1C45.2,31.4,44.7,32.3,44.4,33.2
			C44.4,33.3,44.4,33.2,44.4,33.2z M44.3,33.4L44.3,33.4L44.3,33.4L44.3,33.4C44.3,33.3,44.3,33.4,44.3,33.4z"/>
		<path class="st1" d="M6.6,20C6.5,20,6.5,20,6.6,20C6.5,20,6.5,20,6.6,20z"/>
		<path class="st1" d="M6.5,20.1C6.5,20.2,6.5,20.2,6.5,20.1C6.4,20.1,6.5,20.1,6.5,20.1z"/>
		<path class="st0" d="M21,9.5L21,9.5c0.1,0,0.1,0,0.2,0h0.2c0.1,0,0.1,0,0.2-0.1h0.2c0,0,0,0,0.1,0H22c0.1,0,0.2,0,0.2-0.1h0.4
			c0,0,0,0,0.1,0c0.1,0,0.1,0,0.2-0.1c0.1,0,0.1,0,0.2-0.1c0.1,0,0.2,0,0.2-0.1c0.1,0,0.1,0,0.2-0.1c0,0,0,0,0.1,0
			c0.1,0,0.1,0,0.2-0.1c0.1,0,0.2,0,0.2-0.1h0.1c0.1,0,0.1,0,0.1-0.1h0.1c0.1,0,0.1,0,0.1-0.1h0.1c0.1,0,0.1,0,0.1-0.1
			c0.1,0,0.2-0.1,0.3-0.1H25c1.3-0.4,2.6-0.7,3.8-0.9c-2.2,0.1-3.6,0.4-5,0.9c-0.1,0-0.1,0-0.2,0.1c-1,0.3-1.9,0.7-2.8,1.1H21
			C20.9,9.5,20.9,9.5,21,9.5z"/>
		<path class="st0" d="M13.5,14.8c0.4-0.4,0.8-0.8,1.2-1.1c1.9-1.7,3.9-3.1,6.2-4.2h0c-0.1,0-0.1,0-0.1,0h-0.1c-0.1,0-0.1,0-0.1,0
			h-0.1c0,0.1,0,0.1-0.1,0.1c-0.1,0.1-0.1,0.1-0.2,0.1H20c-0.1,0-0.1,0-0.1,0c0,0.1-0.1,0.1-0.1,0.1c-0.1,0-0.1,0.1-0.2,0.1
			c0,0.1-0.1,0.1-0.1,0.1c-0.1,0-0.1,0-0.1,0h-0.2c-0.1,0-0.1,0-0.1,0c0,0.1-0.1,0.1-0.1,0.1c-0.1,0-0.1,0-0.1,0
			c0,0.1-0.1,0.1-0.1,0.1c-0.1,0-0.1,0-0.1,0h-0.1c0,0.1-0.1,0.1-0.1,0.1c-0.1,0-0.1,0-0.1,0c0,0.1-0.1,0.1-0.1,0.1
			c0,0.1,0,0.1-0.1,0.1c0,0.1-0.1,0.1-0.1,0.1c-0.1,0-0.1,0-0.1,0c-0.1,0-0.1,0-0.1,0c0,0.1-0.1,0.1-0.1,0.1c-0.1,0-0.1,0.1-0.2,0.1
			c0,0.1-0.1,0.1-0.1,0.1c-0.1,0-0.1,0.1-0.2,0.1c-0.9,0.6-1.7,1.2-2.5,1.9c0,0.1-0.1,0.1-0.1,0.1c-0.2,0.2-0.3,0.4-0.5,0.5
			c0,0.1-0.1,0.1-0.1,0.1c0,0.1-0.1,0.1-0.1,0.1c0,0.1-0.1,0.1-0.1,0.1c0,0.1-0.1,0.1-0.1,0.1c0,0.1-0.1,0.1-0.1,0.1
			c0,0.1-0.1,0.1-0.1,0.1c0,0.1-0.1,0.1-0.1,0.1l-0.1,0.1c-0.1,0.1-0.1,0.1-0.1,0.1c0,0,0,0,0,0.1C13.4,14.6,13.4,14.7,13.5,14.8z"
			/>
		<path class="st2" d="M57.8,31.4h-3.4c-0.4,0-0.5,0.1-0.5,0.5c0,3.3-0.6,6.5-2.1,9.5c-3.3,6.8-8.5,10.9-15.8,12.3
			c-7.6,1.5-14.1-0.7-19.6-6.2c-3.6-3.6-5.6-7.9-6.1-12.9c-0.7-6.7,1.4-12.4,6-17.3c3.6-3.8,8.1-6,13.2-6.6c0.4,0,0.8-0.1,1.2-0.1
			c0.2,0,0.4,0.1,0.3,0.3c-0.1,0.2,0.1,0.5-0.3,0.5c-3.8,0.2-7.4,1.3-10.5,3.5c-5.9,4.1-9.1,9.6-9.4,16.6
			c-0.3,5.5,1.4,10.3,4.9,14.4c1.2,1.5,2.6,2.7,4.2,3.8c2.1,1.4,4.4,2.5,6.9,3.1c0.9,0.2,1.7,0.4,2.5,0.5c6.5,0.6,12.1-1.2,16.9-5.7
			c3.5-3.3,5.6-7.4,6.3-12c0.2-1.2,0.2-2.3,0.2-3.5c0-0.3,0-0.4-0.3-0.4H49c-0.3,0-0.4,0.2-0.5,0.4c-1.2,2.5-2.6,4.7-4.4,6.8
			c-0.9,1.1-1.9,2.1-3.2,2.8c-0.6,0.4-1.3,0.6-2,0.7c-0.5,0.1-0.8,0-1.1-0.3c-0.7-0.5-1.1-1.1-1.6-1.7c-1-1.3-1.9-2.6-2.9-3.9
			c-0.5-0.6-1-1.2-1.6-1.6c-1-0.6-2-0.7-3,0.3c-0.9,0.8-1.4,1.9-2,3c-0.5,1-1,2.1-1.7,3.1c-0.2,0.4-0.5,0.7-0.8,1
			c-0.5,0.5-0.8,0.5-1.3,0.1c-0.6-0.4-1.1-1.1-1.6-1.7c-1.9-2.5-3.4-5.2-4.9-8c-0.2-0.3-0.3-0.7-0.5-1c-0.1-0.2-0.2-0.3,0.1-0.3H18
			c0.3,0,0.3,0.1,0.4,0.3c0.7,1.7,1.5,3.3,2.3,4.8c0.5,0.9,1,1.8,1.7,2.6c0.3,0.3,0.5,0.6,0.9,0.8c0.4,0.2,0.8,0.2,1.2-0.1
			c0.4-0.3,0.6-0.7,0.9-1.1c0.7-1.1,1.3-2.4,1.9-3.6c0.3-0.6,0.6-1.2,1-1.7c0.3-0.6,0.7-1.1,1.1-1.5c0.8-0.8,1.4-0.9,2.4-0.2
			c0.6,0.4,1.1,1,1.6,1.5c1.1,1.3,2.1,2.7,3.2,4c0.6,0.7,1.3,1.3,2.1,1.8c0.3,0.1,0.7,0.2,1,0.2c0.7-0.1,1.4-0.5,1.9-1
			c0.8-0.8,1.5-1.8,2.1-2.8c0.3-0.5,0.5-0.9,0.7-1.4c-0.3,0.3-0.5,0.7-0.7,1c-0.8,1.2-1.6,2.3-2.7,3.2c-1,0.8-1.8,0.7-2.8,0
			c-0.2-0.1-0.3-0.2-0.4-0.3c-0.7-0.6-1.2-1.3-1.8-2c-1-1.2-1.9-2.5-3-3.7c-0.5-0.5-1-1-1.7-1.3c-0.6-0.3-1.2-0.2-1.8,0.1
			c-0.7,0.4-1.2,1-1.6,1.7c-0.6,1-1.1,1.9-1.6,2.9c-0.1,0-0.1,0.1-0.1,0.1c0,0.1,0,0.1,0,0.1c0.1,0.1,0,0.1,0,0.1
			C25.6,37,25,38,24.3,39c-0.1,0.1-0.2,0.2-0.3,0.3c-0.3,0.2-0.5,0.2-0.8,0c-0.3-0.3-0.6-0.7-0.9-1.1c-0.4-0.6-0.7-1.1-1-1.7
			c-0.4-0.6-0.7-1.3-1-1.9c-0.6-1.3-1.1-2.5-1.6-3.8c-0.1-0.2-0.3-0.3-0.5-0.3h-1.5c-0.1,0-0.1,0-0.2,0h-2.3
			c0.2,0.4,0.3,0.7,0.5,1.1c0.5,1,0.9,1.9,1.4,2.8c1.3,2.5,2.7,4.9,4.4,7.2c0.5,0.7,1.1,1.3,1.8,1.8c0.1,0,0.2,0,0.2,0.1
			c0.6,0.3,1.2,0.3,1.8,0c0.9-0.7,1.5-1.6,2.1-2.6c0.7-1.2,1.3-2.6,2.1-3.8c0.3-0.4,0.6-0.9,1-1.2c0.4-0.4,0.7-0.4,1.2-0.1
			c0.6,0.4,1.1,0.9,1.5,1.5c0.8,1.1,1.5,2.2,2.3,3.3c0.5,0.8,1.1,1.5,1.7,2.2c0.9,1,2,1.2,3.3,0.9c1.7-0.5,3-1.4,4.2-2.6
			c2.3-2.1,3.9-4.7,5.4-7.4c0.2-0.3,0.4-0.4,0.7-0.4h0.9c0.2,0,0.3,0.1,0.3,0.3c-0.1,1.6-0.4,3.2-0.9,4.7
			c-2.4,6.8-7.1,11.2-14.1,12.9c-6.6,1.5-12.4-0.1-17.4-4.7c-4.4-4-6.5-9.2-6.2-15c0.4-8.9,7-16.3,15.6-17.9
			c1.4-0.2,2.8-0.3,4.3-0.3c0.2-0.1,0.2-0.2,0.2-0.3c0-1.4,0-2.7,0.2-4.2c0-0.1,0-0.2-0.1-0.3c-1,0.1-2.1,0.1-3.2,0.2
			c-3,0.2-5.9,1.1-8.6,2.5c-0.8,0.4-1.6,0.8-2.3,1.3c-2.4,1.7-4.5,3.7-6.2,6.1C9.6,22.3,8.2,26.6,8,31.3c-0.3,9.2,4.9,17.8,13,21.9
			c3.7,1.9,7.6,2.8,11.6,2.5c9-0.6,15.6-5,19.9-12.9c1.6-3,2.4-6.2,2.5-9.6c0-0.2,0.1-0.3,0.3-0.3c0.7,0,0.7,0,0.7,0.8
			c0,1.3-0.2,2.6-0.5,3.8c-0.2,0.9-0.5,1.9-0.8,2.8c-0.6,1.6-1.4,3.3-2.3,4.8c-1,1.7-2.2,3.2-3.6,4.6c-1.2,1.2-2.5,2.3-3.9,3.2
			c-2.9,2-6,3.2-9.4,3.8c-5.7,1-11,0.1-16.1-2.6c-2.3-1.2-4.4-2.8-6.2-4.7c-2.9-3-4.9-6.6-6-10.7C6.3,34.9,6.2,31,7,27.1
			c0.6-3,1.7-5.7,3.3-8.3c0.2-0.3,0.4-0.6,0.6-0.9c-0.1,0-0.2,0-0.3,0c-0.1,0.2-0.2,0.3-0.3,0.4L10,18.7c-1,1.6-1.2,1.8-1.9,3.5
			c0,0.1-0.1,0.3-0.1,0.4l-0.1,0.2c0,0.1,0.1,0.2,0,0.3c-0.1,0.4-0.3,0.6-0.5,1L7.2,25c0,0.1,0,0.3-0.1,0.5l-0.1,0.3
			c-0.2,1.1-0.5,2.3-0.7,3.4c-0.7,5.1-0.1,9.8,2.2,14.4c3.8,7.8,9.9,12.7,18.4,14.3c8.5,1.6,16.1-0.6,22.5-6.5
			c4.6-4.2,7.2-9.4,8.6-15.6c0.2-1.4,0.3-2.7,0.3-4.1C58.1,31.5,58.1,31.4,57.8,31.4z"/>
		<path class="st0" d="M7.1,25.4c-0.2,1.1-0.5,2.2-0.6,3.3c-0.7,5.1,0,10.1,2.2,14.6c3.8,7.8,10.1,12.6,18.5,14.2
			c8.6,1.6,16.1-0.6,22.5-6.5c4.5-4.1,7.2-9.4,8.1-15.3c0.2-1.4,0.3-2.7,0.3-4.1c0-0.3-0.1-0.3-0.3-0.3c-1.1,0-2.3,0-3.4,0
			c-0.4,0-0.5,0.1-0.5,0.5c0,3.3-0.6,6.5-2.1,9.5c-3.3,6.7-8.5,10.9-15.8,12.3c-7.6,1.2-14.1-1-19.6-6.4c-3.6-3.6-5.6-8-6.1-12.9
			c-0.6-6.7,1.4-12.4,6-17.3c3.6-3.8,8.1-5.9,13.2-6.6c0.4-0.1,0.8-0.1,1.2-0.1c0.2,0,0.3,0.1,0.3,0.3c0,0.2,0.2,0.5-0.3,0.5
			c-3.8,0.2-7.4,1.3-10.5,3.5c-5.8,4-9,9.6-9.4,16.6c-0.3,5.4,1.5,10.2,4.9,14.4c1.2,1.5,2.6,2.8,4.2,3.8c2.1,1.4,4.4,2.4,6.9,3.1
			c0.8,0.2,1.6,0.4,2.5,0.5c6.5,0.6,12.2-1.2,16.9-5.7c3.5-3.3,5.5-7.4,6.3-12c0.2-1.2,0.2-2.3,0.2-3.5c0-0.2,0-0.4-0.3-0.4
			c-1.1,0-2.3,0-3.4,0c-0.3,0-0.4,0.1-0.5,0.4c-1.2,2.4-2.6,4.7-4.4,6.8c-0.9,1.1-2,2.1-3.2,2.8c-0.6,0.4-1.3,0.6-2,0.7
			c-0.4,0.1-0.8-0.1-1.1-0.3c-0.6-0.5-1.1-1.1-1.6-1.7c-1-1.3-1.8-2.6-2.9-3.9c-0.5-0.6-1-1.2-1.6-1.6c-1-0.7-2-0.8-3,0.3
			c-0.9,0.9-1.4,2-2,3c-0.6,1-1.1,2.1-1.7,3.1c-0.2,0.4-0.5,0.7-0.8,1c-0.5,0.4-0.8,0.4-1.3,0.1c-0.6-0.5-1.2-1.1-1.6-1.7
			c-1.9-2.5-3.4-5.2-4.9-8c-0.2-0.3-0.3-0.7-0.5-1c-0.1-0.2-0.1-0.3,0.1-0.3c0.6,0,1.2,0,1.8,0c0.3,0,0.3,0.2,0.4,0.3
			c0.7,1.6,1.4,3.2,2.3,4.8c0.5,0.9,1,1.8,1.7,2.6c0.3,0.3,0.5,0.6,0.9,0.8c0.4,0.2,0.8,0.2,1.2-0.1c0.4-0.3,0.7-0.7,0.9-1.1
			c0.7-1.2,1.3-2.4,1.9-3.6c0.3-0.6,0.6-1.2,1-1.7c0.2,0,0.3,0,0.5-0.1s0.5-0.2,0.7-0.2c0.5,0,1.1,0,1.6,0.2
			c0.5,0.2,1.1,0.4,1.6,0.5c0.4,0.1,0.7,0.4,1,0.7c0.6,0.5,1.1,1.1,1.6,1.8c0.4,0.6,0.9,1.2,1.3,1.9c0.4,0.8,1,1.5,1.6,2.1
			c0.3,0.3,0.7,0.4,1.1,0.5c0.8,0.1,1.6-0.1,2.2-0.6c1-0.7,1.8-1.6,2.6-2.5c0.9-1.1,1.8-2.2,2.5-3.4c0.5-0.7,0.9-1.4,1.5-2
			c0.5-0.5,1.1-0.8,1.7-1c1.1-0.3,2.2-0.3,3.3-0.1c0.4,0.1,0.8-0.1,1.2-0.2c0.9-0.1,1.7-0.2,2.5,0c1.3,0.3,1.9,0.9,2.3,2.3
			c0.2,0.8,0.1,1.6,0,2.5c-0.1,1-0.3,1.9-0.5,2.8c-0.3,1.3-0.7,2.5-1.2,3.7c-0.4,1.2-1,2.3-1.6,3.4c-0.5,0.9-1.1,1.8-1.7,2.6
			c-1,1.4-2.1,2.6-3.3,3.7c-0.7,0.6-1.4,1.2-2.1,1.8c-1,0.8-2.1,1.5-3.2,2.1c-0.8,0.5-1.7,0.9-2.5,1.2c-0.6,0.3-1.3,0.5-1.9,0.7
			c-0.8,0.3-1.6,0.5-2.4,0.7c-0.9,0.2-1.8,0.4-2.7,0.5c-1.2,0.1-2.4,0.4-3.6,0.3c-0.2,0-0.3,0-0.5-0.1c-0.1-0.1-0.2-0.1-0.3-0.1
			c-0.7,0.1-1.3,0-1.9-0.1c-0.9-0.1-1.9-0.2-2.8-0.4c-1.1-0.2-2.2-0.5-3.3-0.9c-1.1-0.4-2.2-0.9-3.2-1.4c-0.8-0.4-1.6-0.9-2.4-1.3
			c-0.8-0.5-1.6-1.1-2.4-1.7c-1-0.8-1.9-1.6-2.8-2.6c-0.5-0.6-1.1-1.2-1.6-1.9c-0.5-0.6-0.9-1.2-1.3-1.9c-0.6-0.8-1-1.8-1.5-2.7
			C8.2,43.5,8,43,7.8,42.6c-0.3-0.7-0.5-1.5-0.8-2.2c-0.3-0.8-0.4-1.6-0.6-2.4c-0.2-0.8-0.2-1.6-0.4-2.4c-0.2-1.2-0.3-2.5-0.1-3.7
			C6,30.5,6.1,29,6.4,27.6c0.1-0.6,0.4-1.3,0.5-1.9C6.9,25.5,6.9,25.4,7.1,25.4z"/>
		<path class="st0" d="M16.2,30c-0.5,0-1,0-1.6,0c0.2,0.4,0.4,0.8,0.5,1.1c0.5,0.9,0.9,1.8,1.4,2.8c1.3,2.5,2.7,5,4.4,7.2
			c0.5,0.7,1.1,1.3,1.8,1.8c-0.2,0-0.4,0-0.5-0.1c-0.4-0.3-0.8-0.6-1.1-0.9c-1.1-1.2-2-2.5-2.9-3.9c-0.6-1-1.1-2-1.7-3
			c-0.2-0.3-0.5-0.7-0.8-0.9c-0.5-0.4-1-0.3-1.2,0.3c-0.1,0.4-0.2,0.8-0.1,1.1c0.2,1.2,0.4,2.5,0.9,3.6c0.5,1.2,1.1,2.3,1.8,3.3
			c0.7,0.9,1.4,1.8,2.2,2.6c0.7,0.7,1.6,1.4,2.4,2c1,0.7,2.2,1.3,3.3,1.8c1.6,0.7,3.3,1.1,5,1.3c1.2,0.2,2.5,0.2,3.8,0
			c0.4,0,0.7,0,1.1-0.1c0.5-0.1,0.9-0.4,1.5-0.4c0.8,0,1.5-0.5,2.2-0.7c0.9-0.2,1.5-0.9,2.4-1.2c0.5-0.2,0.9-0.5,1.3-0.8
			c1.6-1.2,3.1-2.6,4.3-4.3c0.7-1,1.3-2.1,1.5-3.3c0-0.3,0-0.5-0.2-0.6c-0.2-0.2-0.4,0-0.5,0.1c-0.7,0.3-1.1,0.9-1.7,1.3
			c-0.6,0.5-1.2,1.1-1.8,1.6c-0.9,0.7-1.8,1.2-2.9,1.6c-0.7,0.3-1.4,0.4-2.2,0.4c-1,0-1.9-0.5-2.6-1.1c-0.7-0.6-1.4-1.4-1.9-2.2
			c-0.7-0.9-1.3-1.9-2.2-2.7c-1.1-1-2.4-0.8-3.3,0.4c-0.2,0.2-0.3,0.4-0.4,0.6c-0.5,0.7-0.9,1.4-1.4,2.1c-0.3,0.4-0.7,0.7-1,1.1
			c-0.3,0.4-0.8,0.7-1.2,1c-0.1,0.1-0.2,0.1-0.3,0c1-0.6,1.5-1.6,2.1-2.6c0.7-1.3,1.3-2.6,2.1-3.8c0.3-0.4,0.6-0.9,1-1.2
			c0.4-0.3,0.7-0.4,1.2-0.1c0.6,0.4,1.1,1,1.5,1.5c0.8,1.1,1.6,2.2,2.3,3.3c0.5,0.8,1.1,1.5,1.7,2.2c0.9,1,2,1.2,3.3,0.9
			c1.6-0.4,3-1.4,4.2-2.6c2.2-2.2,3.9-4.7,5.4-7.4c0.2-0.3,0.3-0.4,0.7-0.4c0.3,0,0.6,0,0.9,0c0.2,0,0.3,0.1,0.3,0.3
			c-0.1,1.6-0.3,3.2-0.9,4.7C47.8,44.5,43.1,49,36,50.6c-6.3,1.8-12.2,0.1-17.1-4.5c-4.4-4-6.4-9.1-6.2-15
			c0.4-8.9,6.9-16.2,15.6-17.9c1.4-0.3,2.9-0.4,4.3-0.3c-0.2,0.5-0.7,0.6-1.2,0.8c-0.5,0.2-1,0.2-1.5,0.3c-0.9,0.2-1.8,0.3-2.7,0.6
			c-2,0.6-3.9,1.4-5.6,2.6c-1.6,1.1-2.9,2.3-4.1,3.8c-1,1.2-1.8,2.6-2.4,4c-0.4,1-0.7,2-0.8,3c0,0.7,0.2,1.4,0.8,1.8
			c0.1,0.1,0.2,0.1,0.4,0.1C15.9,29.7,16.1,29.7,16.2,30z"/>
		<path class="st0" d="M32.7,8.4c-1.1,0-2.2,0.1-3.2,0.2c-3,0.3-5.9,1.2-8.6,2.5c-0.8,0.4-1.6,0.8-2.3,1.3c-2.4,1.7-4.5,3.7-6.2,6.1
			c-2.7,3.9-4.1,8.1-4.3,12.7C8,40.4,13,49,21.3,53.1c3.7,1.8,7.6,2.8,11.6,2.5c9.1-0.6,15.7-5,19.9-12.9c1.6-3,2.4-6.2,2.5-9.6
			c0-0.2,0.1-0.3,0.3-0.3c0.8,0,0.8,0,0.7,0.8c-0.1,1.3-0.2,2.5-0.5,3.8c-0.2,1-0.5,1.9-0.8,2.8c-0.6,1.7-1.4,3.3-2.3,4.8
			c-1,1.7-2.2,3.2-3.6,4.6c-1.2,1.2-2.5,2.2-3.9,3.2c-2.8,1.9-6,3.2-9.4,3.8c-5.7,1-11,0.1-16.1-2.6c-2.3-1.2-4.4-2.8-6.2-4.7
			c-2.9-3.1-4.9-6.6-6-10.7c-1-3.8-1.1-7.7-0.4-11.5c0.6-3,1.7-5.7,3.3-8.3c1.2-1.9,2.7-3.7,4.4-5.2c2.6-2.4,5.6-4.2,9-5.3
			c0.1,0,0.1,0,0.2-0.1c0,0.2,0.2,0.2,0.3,0.1C25.2,8,26,7.9,26.9,7.8c0.7-0.1,1.4-0.2,2.1-0.3c0.3-0.1,0.6,0,0.9,0.1
			c0.7,0.1,1.4,0.2,2,0.5C32.3,8,32.6,8.1,32.7,8.4z"/>
		<path class="st0" d="M26.2,35.3c-0.5,1.1-1,2.2-1.8,3.1c-0.1,0.1-0.2,0.2-0.3,0.3c-0.2,0.2-0.5,0.2-0.8,0
			c-0.4-0.3-0.7-0.7-0.9-1.1c-0.4-0.5-0.7-1.1-1-1.7c0.4,0,0.5,0.4,0.7,0.6c0.3,0.3,0.6,0.5,1,0.6c0.5,0.1,1,0,1.4-0.4
			c0.4-0.3,0.8-0.7,1.2-1.2C26,35.4,26,35.3,26.2,35.3z"/>
		<path class="st1" d="M10.3,18.3c-1,1.6-1.8,3.2-2.5,5c-0.3-0.2-0.1-0.5,0-0.6c0.6-1.5,1.4-2.9,2.3-4.2
			C10,18.4,10.1,18.3,10.3,18.3z"/>
		<path class="st0" d="M44.3,33.2c0.4-0.9,0.9-1.8,1.3-2.7c0,0.4-0.2,0.7-0.3,1c-0.2,0.5-0.5,1-0.7,1.5
			C44.6,33.1,44.5,33.1,44.3,33.2C44.4,33.2,44.4,33.2,44.3,33.2z"/>
		<path class="st1" d="M7.6,23.9c-0.1,0.4-0.2,0.8-0.4,1.2L7.1,25C7.1,24.7,7.4,24,7.6,23.9z"/>
		<path class="st1" d="M10.7,17.7c-0.1,0.2-0.2,0.3-0.3,0.5C10.3,17.9,10.4,17.7,10.7,17.7z"/>
		<path class="st1" d="M11.3,16.8c0,0.1-0.1,0.2-0.2,0.3C11.1,16.9,11.1,16.8,11.3,16.8z"/>
		<path class="st1" d="M17,30c-0.1,0-0.1,0-0.2,0C16.8,30,16.8,29.9,17,30C17,29.9,17,30,17,30z"/>
		<path class="st1" d="M14.9,13C14.9,13.1,14.8,13,14.9,13C14.8,13,14.8,13,14.9,13z"/>
		<path class="st1" d="M7.2,25.2c0,0.1,0,0.1-0.1,0.2C7.1,25.3,7.1,25.2,7.2,25.2z"/>
		<path class="st1" d="M14,13.8L14,13.8L14,13.8z"/>
		<path class="st1" d="M14,13.8C14,13.9,13.9,13.9,14,13.8C13.9,13.9,13.9,13.9,14,13.8z"/>
		<path class="st1" d="M13.9,13.9C13.9,14,13.9,14,13.9,13.9C13.8,14,13.9,13.9,13.9,13.9z"/>
		<path class="st1" d="M13.8,14C13.8,14,13.8,14.1,13.8,14L13.8,14z"/>
		<path class="st1" d="M13.7,14.1C13.6,14.2,13.6,14.2,13.7,14.1C13.6,14.2,13.6,14.2,13.7,14.1z"/>
		<path class="st1" d="M13.6,14.2C13.6,14.3,13.6,14.3,13.6,14.2C13.5,14.3,13.6,14.2,13.6,14.2z"/>
		<path class="st1" d="M13.1,14.7L13.1,14.7L13.1,14.7z"/>
		<path class="st1" d="M12.8,15C12.8,15,12.8,15.1,12.8,15C12.8,15.1,12.8,15,12.8,15z"/>
		<path class="st1" d="M12,15.8L12,15.8C12,15.9,12,15.9,12,15.8z"/>
		<path class="st1" d="M12,16C11.9,16,11.9,16.1,12,16C11.9,16.1,11.9,16,12,16z"/>
		<path class="st1" d="M11.7,16.3C11.7,16.3,11.7,16.4,11.7,16.3C11.7,16.4,11.7,16.3,11.7,16.3z"/>
		<path class="st1" d="M11.6,16.4L11.6,16.4L11.6,16.4z"/>
		<path class="st1" d="M11.4,16.7L11.4,16.7L11.4,16.7z"/>
		<path class="st1" d="M10.9,17.3C10.9,17.3,10.9,17.4,10.9,17.3C10.9,17.4,10.9,17.3,10.9,17.3z"/>
		<path class="st1" d="M10.8,17.6C10.8,17.6,10.7,17.6,10.8,17.6C10.7,17.6,10.8,17.6,10.8,17.6z"/>
		<path class="st1" d="M7.7,23.6L7.7,23.6L7.7,23.6z"/>
		<path class="st2" d="M44.3,33.2L44.3,33.2C44.4,33.2,44.4,33.3,44.3,33.2z"/>
		<path class="st2" d="M44.3,33.4C44.3,33.4,44.3,33.3,44.3,33.4L44.3,33.4L44.3,33.4L44.3,33.4z"/>
		<path class="st1" d="M26.3,35C26.3,35.1,26.3,35.1,26.3,35C26.3,35.1,26.3,35.1,26.3,35z"/>
		<path class="st1" d="M26.3,35.2C26.3,35.2,26.3,35.3,26.3,35.2C26.2,35.2,26.3,35.2,26.3,35.2z"/>
		<path class="st1" d="M14.3,13.5C14.3,13.5,14.2,13.6,14.3,13.5C14.2,13.6,14.3,13.5,14.3,13.5z"/>
		<path class="st1" d="M14.2,13.6C14.2,13.6,14.2,13.7,14.2,13.6L14.2,13.6z"/>
		<path class="st1" d="M14.1,13.7L14.1,13.7L14.1,13.7z"/>
		<path class="st0" d="M24.4,42.9C24.2,42.8,24.4,42.9,24.4,42.9c0.5-0.4,0.9-0.7,1.2-1.1s0.5-0.6,0.8-1c0.5-0.7,1.2-1.5,1.7-2.2
			c0.2-0.2,0.6-0.8,0.7-1c0.9-1.1,2.3-0.9,3.4,0.1c0.9,0.8,1.5,1.8,2.2,2.7c0.6,0.8,1.2,1.6,1.9,2.2c0.7,0.6,1.6,0.9,2.6,0.9
			c0.7,0,1.5-0.2,2.2-0.5c1-0.4,1.8-1,2.7-1.7c0.6-0.5,1.2-1.2,1.8-1.8c0.5-0.5,1.4-1,2-1.3c0.2-0.1,0.1,0.4,0.3,0.5
			c0.2,0.2,0.2,0.4,0.2,0.6c-0.2,1.2-0.8,2.3-1.5,3.3c-1.2,1.7-2.6,3.1-4.3,4.3c-0.4,0.3-0.8,0.6-1.3,0.8c-0.9,0.3-1.5,0.9-2.4,1.2
			c-0.8,0.2-1.5,0.7-2.2,0.7c-0.5,0-1,0.3-1.5,0.4c-0.4,0.1-0.7,0.1-1.1,0.1c-1.3,0.2-2.5,0.2-3.8,0c-1.7-0.2-3.4-0.6-5-1.3
			c-1.1-0.5-2.3-1-3.3-1.8c-0.8-0.6-1.9-0.7-2.6-1.5c-0.8-0.8-1.6-2-2.3-2.9c-0.8-1-1.3-2.2-1.8-3.4c-0.5-1.2-0.7-2.4-0.9-3.6
			c-0.1-0.4-0.1-1.2,0-1.5c0.2-0.6,1.1-0.7,1.6-0.3c0.3,0.3,0.6,0.8,0.8,1.1c0.6,1,1.2,2,1.7,3c0.8,1.4,1.7,2.7,2.9,3.9
			c0.3,0.4,0.9,0.5,1.3,0.8c0.2,0.1,0.1,0.2,0.3,0.2l0,0c-0.1,0-0.1,0,0,0C23.5,43.2,23.8,43.2,24.4,42.9z"/>
		<path class="st1" d="M22.9,42.9c-0.1,0-0.1,0-0.2-0.1C22.8,42.8,22.9,42.9,22.9,42.9z"/>
	</g>
	<path class="st2" d="M32.1,2.6C15.7,2.6,2.4,16,2.4,32.4s13.3,29.8,29.8,29.8c0.3,0,0.6,0,1,0c14.9-0.5,27.2-11.9,28.7-26.7
		c0.1-1,0.2-2,0.2-3C61.9,16,48.6,2.6,32.1,2.6z M52,52.1c-5.7,5.7-13.1,8.4-20.6,8.2c-6.9-0.2-13.6-2.9-18.8-8.2
		c-10.9-10.9-10.9-28.6,0-39.4s28.6-10.9,39.4,0c5.8,5.8,8.5,13.4,8.2,21C59.7,40.4,57,46.9,52,52.1z"/>
</g>
</svg>
