<?xml version="1.0" encoding="utf-8"?>
<!-- Roman Inozemtsev: https://github.com/mir-one/  -->
<svg version="1.1" id="Слой_1" xmlns="http://www.w3.org/2000/svg" xmlns:xlink="http://www.w3.org/1999/xlink" x="0px" y="0px"
	 viewBox="0 0 67 67" style="enable-background:new 0 0 67 67;" xml:space="preserve">
<style type="text/css">
	.st0{fill:#58595B;}
	.st1{fill:#DDDDDD;}
	.st2{fill:#2CA7D1;}
	.st3{fill:#1E9CD3;}
	.st4{fill:#FFFFFF;}
</style>
<g>
	<g>
		<path class="st0" d="M33.4,0.2C14.9,0.2,0,15.2,0,33.6S14.9,67,33.4,67c1.2,0,2.3-0.1,3.4-0.2c15-1.5,27.1-13.1,29.5-27.8
			c0.3-1.7,0.5-3.5,0.5-5.4C66.8,15.2,51.8,0.2,33.4,0.2z M34.4,64.4c-0.3,0-0.7,0.1-1,0.1c-17,0-30.8-13.8-30.8-30.8
			c0-17,13.8-30.8,30.8-30.8c17,0,30.8,13.8,30.8,30.8c0,1.1-0.1,2.1-0.2,3.1C62.5,52,49.9,63.9,34.4,64.4z"/>
		<path class="st0" d="M53.8,13.2c-11.3-11.3-29.6-11.3-40.9,0c-11.3,11.3-11.3,29.6,0,40.9c5.4,5.4,12.4,8.2,19.5,8.4
			c7.7,0.2,15.5-2.5,21.4-8.4c5.3-5.3,8.1-12.2,8.4-19.1C62.6,27.1,59.8,19.2,53.8,13.2z"/>
	</g>
	<g>
		<path class="st1" d="M63.2,18.9c0-0.1,0-0.1,0-0.2c-0.5-1.1-1.1-2.1-1.8-3.2c-0.4-0.5-0.7-1.1-1.1-1.6c-0.5-0.7-1-1.3-1.5-2
			c-0.2-0.2-0.4-0.5-0.6-0.7c-1.3-1.4-2.8-2.6-4.3-3.9c-0.2-0.1-0.3-0.3-0.4-0.5c-0.2-0.1-0.4-0.3-0.6-0.4c0,0,0,0-0.1,0
			C52.4,6.4,52,6,51.5,5.8C50.3,5,49,4.2,47.7,3.5c-0.2-0.1-0.3-0.2-0.5-0.2c-0.6-0.3-1.3-0.5-2-0.7c-1.7-0.6-3.5-1.2-5.3-1.6
			c-0.6-0.1-1.1-0.2-1.7-0.3c-0.4-0.1-0.7-0.1-1.1-0.2c-1.3-0.2-2.7-0.3-4-0.3C20.8,0.1,9.9,6.9,4.1,17c-0.2,0.4-0.5,0.9-0.7,1.3
			c-0.1,0.2-0.1,0.4-0.1,0.6c-0.4,0.4-0.2,0.7,0.1,1c1.7,1.6,3.3,3.3,5,4.9c1.4,1.3,2.9,2.6,4.3,4c1.7,1.7,4.3,1.8,6.1-0.1
			c1.5-1.5,3.2-3,4.8-4.4c1-1,2.1-1.9,3.2-2.9c0.9-0.8,1.7-1.7,2.7-2.4c2.1-1.4,4.2-1.5,6.5-0.6c0.8,0.3,1.4,0.9,2.1,1.3
			c0.9,0.7,1.7,1.6,2.5,2.4c1.2,1.1,2.5,2.2,3.7,3.4c1.2,1.1,2.4,2.2,3.6,3.3c1.2,1.1,2.6,1.5,4.2,1.1c0.8-0.2,1.4-0.7,2-1.2
			c0.8-0.8,1.6-1.6,2.5-2.4c2.3-2,4.3-4.2,6.5-6.3C63.5,19.5,63.5,19.3,63.2,18.9z"/>
		<g>
			<path class="st2" d="M66.4,28.1c-0.2-1.7-0.5-3.3-1.2-4.9c0,0,0,0,0,0c0-0.2,0-0.4-0.2-0.4c-0.2-0.1-0.3,0.2-0.4,0.3
				c-0.1,0.1-0.1,0.2-0.1,0.2c-0.2,0-0.3,0-0.5,0.2c-0.4,0.3-0.8,0.7-1.1,1c-1.9,1.8-3.8,3.5-5.7,5.3c-0.8,0.7-1.6,1.4-2.3,2.2h0
				c-0.1,0-0.2,0-0.3,0.1c-2.1,1.1-4.3,1.2-6.4,0.2c-0.2-0.1-0.4-0.2-0.7-0.1c-0.1-0.3-0.4-0.5-0.6-0.7c-1.5-1.1-2.7-2.5-4.1-3.7
				c-2.1-1.9-4.2-3.9-6.3-5.8c-0.2-0.2-0.5-0.4-0.8-0.6c-1.5-1-3.5-0.8-4.8,0.4c-0.8,0.7-1.6,1.5-2.5,2.3c-0.7,0.7-1.4,1.4-2.2,2.1
				c-1.3,1-2.4,2.2-3.6,3.3c-1.3,1.2-2.6,2.5-4.3,3.3c-0.9,0.1-1.8,0.2-2.7,0.2c0,0-0.1,0.1-0.1,0.1c-0.1,0.1-0.1,0.1-0.2,0.2
				c0.1,0,0.2-0.1,0.2-0.2c-1.3,0-2.4-0.5-3.4-1.3c-1.7-1.3-3.2-2.9-4.8-4.3c-0.8-0.7-1.6-1.6-2.5-2.3c-0.9-0.8-1.8-1.4-2.5-2.3
				c-0.3-0.3-0.5-0.3-0.6,0.2c-0.3,1-0.7,2-0.8,3.1c0.1,0,0.2,0.1,0.2,0.1c-0.1-0.1-0.1-0.1-0.2-0.1C0.3,27.7,0,29.3,0,30.9
				c0,1.7,0,3.4,0,5.2c0,0.6,0,1.3,0.2,1.9c0.1,0.1,0.2,0.3,0.3,0.4c-0.1-0.2-0.2-0.3-0.3-0.4c0,0.1,0,0.2,0,0.4
				c0.5,2.7,1.1,5.4,2.2,7.9c0.9,2,1.8,4,3.1,5.8c1,1.4,2,2.7,3.1,4c1.9,2.1,4.1,4,6.5,5.5c2.4,1.6,5,2.8,7.7,3.7
				c2.4,0.8,4.9,1.4,7.4,1.5c2,0.1,4.1,0.1,6.2,0c0.1,0,0.2,0,0.3-0.1c0.2,0,0.3,0,0.5,0c0.3,0,0.6,0.1,0.8-0.2c0.1,0,0.1,0,0.2,0
				c0.2-0.3,0.6-0.2,0.8-0.2c0.4,0,0.8,0,1.1-0.1c2.7-0.6,5.3-1.5,7.8-2.7c3-1.5,5.8-3.4,8.2-5.7c2.1-1.9,3.9-4.2,5.4-6.5
				c1.2-1.8,2-3.7,2.9-5.7c1-2.3,1.6-4.7,1.9-7.1C66.9,35.1,66.9,31.6,66.4,28.1z M1.4,41.7c-0.1-0.4-0.3-0.9-0.4-1.3
				C1.1,40.8,1.3,41.3,1.4,41.7c0.4,1.4,1,2.7,1.5,4C2.4,44.4,1.8,43.1,1.4,41.7z M3.6,46.8c0-0.4-0.2-0.7-0.3-1
				c-0.8-2-1.6-3.9-1.9-6C1,38,0.6,36.2,0.7,34.3c0.1-1.3,0-2.6,0-3.9c0,1.3,0.1,2.6,0,3.9C0.6,36.2,1,38,1.3,39.8
				c0.4,2.1,1.2,4.1,1.9,6C3.4,46.1,3.6,46.5,3.6,46.8L3.6,46.8z M51.3,33.9c-1,0-1.9-0.1-2.9-0.4C49.4,33.8,50.3,33.9,51.3,33.9z
				 M55.9,32.1c0,0,0.1,0,0.1,0C56,32.1,55.9,32.1,55.9,32.1L55.9,32.1z M47.7,33.2L47.7,33.2c0.1-0.1,0.1-0.1,0.2-0.1
				C47.8,33.1,47.7,33.1,47.7,33.2z M47.2,33c-0.1-0.1-0.3-0.1-0.4-0.2c-0.1,0-0.1-0.1-0.2-0.1c0.1,0,0.1,0.1,0.2,0.1
				C46.9,32.9,47,32.9,47.2,33z M39.6,26.7c-0.2-0.2-0.4-0.4-0.5-0.6c-0.1-0.2-0.3-0.4-0.5-0.5c-0.5-0.4-1-0.8-1.4-1.2
				c0.5,0.4,0.9,0.8,1.4,1.2c0.2,0.1,0.4,0.3,0.5,0.5C39.3,26.3,39.4,26.5,39.6,26.7z M21.2,32C21.2,32,21.2,32,21.2,32L21.2,32
				c-0.1-0.1-0.1-0.1-0.2-0.1C21,31.9,21.1,31.9,21.2,32z M20.3,32.7c-0.1,0.1-0.2,0.1-0.3,0.2C20.1,32.8,20.2,32.7,20.3,32.7z
				 M18.7,33.5c-0.6,0.1-1.1,0.3-1.7,0.3C17.6,33.7,18.1,33.6,18.7,33.5z M12.3,32.6c0.4,0.2,0.8,0.3,1.3,0.4
				C13.1,33,12.7,32.8,12.3,32.6c-0.1,0-0.1-0.1-0.2-0.1C12.1,32.6,12.2,32.6,12.3,32.6z M11.9,32.7c-0.1,0.1,0,0.2,0,0.2
				C11.8,32.8,11.8,32.7,11.9,32.7L11.9,32.7z M11.9,32.9c0,0.1,0.1,0.1,0.2,0.2c0.1,0.1,0.2,0.1,0.3,0.2c0.1,0,0.3,0.1,0.4,0.1
				c-0.1,0-0.3-0.1-0.4-0.1c-0.1,0-0.2-0.1-0.3-0.2C12,33,11.9,33,11.9,32.9z M15.6,52.1c-0.3,0-0.7,0-1,0c-0.6,0-1.2,0-1.8,0
				c-0.5,0-0.6-0.2-0.5-0.7c0-0.9,0-1.8,0-2.7c0-0.4,0.1-0.5,0.5-0.5c0.9,0,1.9,0,2.8,0l0,0c0.2,0,0.3,0.1,0.3,0.3c0,1,0,2.1,0,3.1
				C16.1,52,15.9,52.1,15.6,52.1z M23.7,43.9c-0.5,0.2-0.7,0.5-0.7,1c0,2.1,0,4.2,0,6.3c0,0.8,0,0.9-0.8,0.9c-0.7,0-1.4,0-2.1,0
				c-0.6,0-0.8,0-0.7-0.8c0-3.1,0-6.3,0-9.4c0-0.1,0-0.1,0-0.2c0-0.7,0-0.7,0.7-0.7c0.9,0,1.7,0,2.5,0.1c0.2-0.1,0.3,0,0.3,0.2
				c0,0.2,0,0.3,0,0.5c0.2,0.4,0.4,0,0.6-0.1c0.8-0.5,1.6-1,2.5-1c1.4-0.1,2.6,0.1,3.5,1.2c0.1,0.1,0.2,0.2,0.2,0.3
				c0.7,0.5,0.7,1.3,0.7,2c0.1,2.4,0,4.8,0,7.2c0,0.5-0.2,0.6-0.7,0.6c-0.7,0-1.5,0-2.2,0c-0.5,0-0.8,0-0.7-0.8c0-1.8,0-3.6,0-5.4
				c0-0.5-0.1-0.9-0.2-1.4c-0.1-0.4-0.4-0.8-0.9-0.8C25.2,43.7,24.5,43.7,23.7,43.9z M28.9,65.7c-1-0.1-2-0.3-3-0.5
				C26.9,65.4,27.9,65.6,28.9,65.7c0.8,0.2,1.6,0.2,2.4,0.2C30.5,65.9,29.7,65.9,28.9,65.7z M29,24.9c-1.1,1-2.2,2.1-3.3,3.1
				c-1.2,1.1-2.6,2.2-3.7,3.5c0,0-0.1,0.1-0.1,0.1c0,0,0.1-0.1,0.1-0.1c1.1-1.3,2.4-2.3,3.7-3.5C26.8,27,27.8,25.9,29,24.9
				c0.9-0.7,1.6-1.6,2.5-2.3c0.6-0.5,1.3-0.8,2-0.8c-0.7,0-1.4,0.3-2,0.8C30.6,23.4,29.8,24.2,29,24.9z M44.6,46.5
				c0,0.8,0,0.8-0.8,0.8c-1.8,0-3.6,0-5.4,0c-0.3,0-0.6,0-0.9,0c-0.9,0-0.9,0-0.9,0.9c0.1,0.1,0.2,0.2,0.2,0.4
				c0.7,0.9,1.6,1.3,2.8,1.4c1.4,0.1,2.7-0.2,3.9-1c0.2-0.2,0.5-0.2,0.7-0.3c0.1,0,0.1,0,0.2,0c0.1,0.1,0.1,0.1,0.2,0.2
				c0,0.7,0,1.4,0,2.1c0,0.4-0.2,0.6-0.5,0.7c-2.4,0.8-4.8,1.2-7.3,0.3c-1.5-0.5-2.7-1.3-3.4-2.8c-0.1-0.5-0.2-1.1-0.3-1.6
				c-0.1-0.7-0.2-1.4,0.1-2.1c0.2-1.3,0.6-2.4,1.6-3.4v0c0.7-0.7,1.6-1.1,2.6-1.3c1.2-0.2,2.4-0.3,3.6,0c1.1,0.2,2,0.8,2.7,1.6
				c0.1,0.1,0.2,0.1,0.2,0.3l0,0.1c0.7,0.7,0.7,1.7,0.9,2.6C44.7,45.8,44.6,46.2,44.6,46.5z M43.8,30.4c-0.4-0.4-0.9-0.8-1.3-1.2
				c-0.3-0.4-0.7-0.7-1.1-1c0.4,0.3,0.7,0.7,1.1,1C42.9,29.6,43.4,30,43.8,30.4c0.4,0.3,0.8,0.7,1.2,1.1
				C44.6,31,44.2,30.7,43.8,30.4z M50.9,45c0,0.9,0,1.9,0,2.8c0,0.5,0,1,0.2,1.5c0.4,0.6,1,0.7,1.7,0.6c0.4-0.1,0.8-0.2,1.2-0.3
				c0.4,0.7,0.2,1.4,0.2,2.1c0,0.2-0.2,0.3-0.4,0.3c-1.5,0.3-3.1,0.4-4.6-0.1c-1.1-0.4-1.7-1.4-1.8-2.6c0-1.5,0-3.1,0-4.6
				c0-0.2,0-0.5,0-0.7c0-0.3-0.1-0.4-0.4-0.4c-0.1,0-0.3,0-0.4,0c-0.6,0-0.7-0.1-0.7-0.7c0-0.4-0.1-0.8,0.1-1.2c0-0.3,0-0.5,0.4-0.5
				c0.4,0,0.7,0.1,1.1-0.2c0-0.8-0.1-1.6,0-2.4c-0.1-0.4,0-0.5,0.4-0.5c0.9,0,1.8,0,2.7,0c0.3,0,0.3,0.3,0.3,0.5
				c0,0.8,0.1,1.6,0,2.4c1,0.2,2,0,3,0.1c0.1,0,0.2,0,0.2,0.1c0.1,0.1,0.1,0.2,0.1,0.2c0.3,2,0.2,2.1-1.8,2.1
				C50.7,43.5,50.9,43.3,50.9,45z M56.6,31.9c-0.1,0.1-0.2,0.2-0.3,0.2C56.3,32.1,56.5,32,56.6,31.9c0.4-0.4,0.8-0.8,1.2-1.1
				C57.3,31.1,56.9,31.5,56.6,31.9z M62.2,26.7c-1,0.9-2.1,1.9-3.1,2.8c-0.4,0.4-0.8,0.8-1.2,1.2c0.4-0.4,0.8-0.8,1.2-1.2
				C60.1,28.6,61.1,27.7,62.2,26.7c0.3-0.3,0.6-0.6,0.9-0.9C62.7,26.1,62.5,26.4,62.2,26.7z M64.4,24.6c0,0,0.1-0.1,0.1-0.1
				C64.5,24.5,64.5,24.5,64.4,24.6z"/>
			<polygon class="st2" points="36.6,48.2 36.6,48.2 36.6,48.2 			"/>
			<polygon class="st2" points="29.8,42.3 29.8,42.3 29.8,42.3 			"/>
		</g>
		<path class="st3" d="M41.1,44.8c0,0.3-0.1,0.4-0.4,0.4c-1.4,0-2.8,0.1-4.2-0.1c0-0.2,0-0.4,0.1-0.6c0.2-0.7,0.6-1.3,1.4-1.5
			C39.6,42.6,40.8,43.1,41.1,44.8z"/>
		<g>
			<path class="st4" d="M52.7,49.9c-0.7,0.1-1.3,0-1.7-0.6c-0.1-0.5-0.2-1-0.2-1.5c0-0.9,0-1.9,0-2.8c0-1.6-0.2-1.4,1.4-1.4
				c2,0,2.1-0.1,1.8-2.1c0-0.1,0-0.2-0.1-0.2c-0.1-0.1-0.2-0.1-0.2-0.1c-1-0.1-2,0.1-3-0.1c0.1-0.8,0-1.6,0-2.4c0-0.2,0-0.5-0.3-0.5
				c-0.9,0-1.8,0-2.7,0c-0.4,0-0.6,0.1-0.4,0.5c-0.1,0.8-0.1,1.6,0,2.4c-0.3,0.3-0.7,0.2-1.1,0.2c-0.4,0-0.5,0.2-0.4,0.5
				c-0.2,0.4-0.1,0.8-0.1,1.2c0,0.6,0.1,0.6,0.7,0.7c0.1,0,0.3,0,0.4,0c0.3,0,0.4,0.2,0.4,0.4c0,0.2,0,0.5,0,0.7c0,1.5,0,3.1,0,4.6
				c0,1.3,0.7,2.3,1.8,2.6c1.5,0.5,3,0.4,4.6,0.1c0.2,0,0.4-0.1,0.4-0.3c0-0.7,0.3-1.5-0.2-2.1C53.5,49.7,53.1,49.9,52.7,49.9z"/>
			<path class="st4" d="M43.8,42.8L43.8,42.8c-0.1-0.1-0.1-0.2-0.2-0.3c-0.7-0.9-1.6-1.4-2.7-1.6c-1.2-0.2-2.4-0.2-3.6,0
				c-1,0.2-1.9,0.5-2.6,1.3c-1,0.9-1.4,2.1-1.6,3.4c-0.3,0.7-0.2,1.4-0.1,2.1c0.1,0.5,0.2,1.1,0.3,1.6c0.7,1.5,1.9,2.3,3.4,2.8
				c2.5,0.9,4.9,0.6,7.3-0.3c0.4-0.1,0.5-0.3,0.5-0.7c0-0.7,0-1.4,0-2.1c-0.1-0.1-0.1-0.1-0.2-0.2c-0.1,0-0.1,0-0.2,0
				c-0.3,0-0.5,0.1-0.7,0.3c-1.2,0.9-2.5,1.1-3.9,1c-1.1-0.1-2.1-0.5-2.8-1.4c0-0.2,0-0.3-0.2-0.4c0-0.9,0-0.9,0.9-0.9
				c0.3,0,0.6,0,0.9,0c1.8,0,3.6,0,5.4,0c0.8,0,0.8,0,0.8-0.8c0-0.4,0-0.7,0-1.1C44.5,44.5,44.5,43.5,43.8,42.8z M36.3,45.1
				c-0.1-0.1-0.2-0.2-0.2-0.3C36.1,44.9,36.2,45,36.3,45.1z M36.5,45.1c0-0.2,0-0.4,0.1-0.6c0.2-0.7,0.6-1.3,1.4-1.5
				c1.6-0.4,2.8,0.1,3.1,1.8c0,0.3-0.1,0.4-0.4,0.4C39.3,45.2,37.9,45.3,36.5,45.1z"/>
			<path class="st4" d="M15.7,48.2C15.7,48.2,15.7,48.2,15.7,48.2c-1,0-1.9,0-2.8,0c-0.4,0-0.5,0.1-0.5,0.5c0,0.9,0,1.8,0,2.7
				c-0.1,0.4,0,0.7,0.5,0.7c0.6,0,1.2,0,1.8,0c0.3,0,0.7,0,1,0c0.3,0,0.4-0.2,0.4-0.4c0-1,0-2.1,0-3.1
				C16.1,48.4,15.9,48.2,15.7,48.2z"/>
			<path class="st4" d="M29.8,42.3c0-0.1,0-0.3-0.2-0.3c-0.9-1.1-2.2-1.3-3.5-1.2c-0.9,0.1-1.8,0.5-2.5,1c-0.1,0.1-0.3,0.4-0.6,0.1
				c0-0.2,0-0.3,0-0.5c0-0.2-0.1-0.3-0.3-0.2c-0.8,0-1.7-0.1-2.5-0.1c-0.6,0-0.6,0-0.7,0.7c0,0.1,0,0.1,0,0.2c0,3.1,0,6.3,0,9.4
				c-0.1,0.7,0.1,0.8,0.7,0.8c0.7,0,1.4,0,2.1,0c0.8,0,0.8,0,0.8-0.9c0-2.1,0-4.2,0-6.3c0-0.5,0.2-0.8,0.7-1
				c0.7-0.3,1.5-0.3,2.2-0.2c0.5,0,0.7,0.4,0.9,0.8C26.9,45,27,45.5,27,46c0,1.8,0,3.6,0,5.4c-0.2,0.8,0.1,0.8,0.7,0.8
				c0.7,0,1.5,0,2.2,0c0.4,0,0.7-0.1,0.7-0.6c0-2.4,0-4.8,0-7.2C30.5,43.6,30.5,42.8,29.8,42.3z"/>
		</g>
	</g>
	<path class="st4" d="M33.4,2.8c-17,0-30.8,13.8-30.8,30.8c0,17,13.8,30.8,30.8,30.8c0.3,0,0.7,0,1-0.1C49.9,63.9,62.5,52,64.1,36.8
		c0.1-1,0.2-2.1,0.2-3.1C64.2,16.6,50.4,2.8,33.4,2.8z M53.8,54.1c-5.9,5.9-13.7,8.7-21.4,8.4c-7.1-0.2-14.1-3-19.5-8.4
		c-11.3-11.3-11.3-29.6,0-40.9c11.3-11.3,29.6-11.3,40.9,0c6,6,8.8,13.9,8.4,21.8C61.9,41.9,59.1,48.8,53.8,54.1z"/>
</g>
</svg>
