<?xml version="1.0" encoding="utf-8"?>
<!-- Roman Inozemtsev: https://github.com/mir-one/  -->
<svg version="1.1"
	 id="Слой_1" shape-rendering="geometricPrecision" text-rendering="geometricPrecision" image-rendering="optimizeQuality"
	 xmlns="http://www.w3.org/2000/svg" xmlns:xlink="http://www.w3.org/1999/xlink" x="0px" y="0px" viewBox="0 0 211.7 126.6"
	 style="enable-background:new 0 0 211.7 126.6;" xml:space="preserve">
<style type="text/css">
	.st0{fill:#2BB673;}
	.st1{fill:#F79420;}
	.st2{fill:#FFFFFF;}
</style>
<g>
	<path class="st0" d="M8.3,114.5l-3.1,3.3v8.6H0.3V98.7h4.8v13l2.7-3.3l8.1-9.7h5.8L11.4,111l10.9,15.4h-5.7L8.3,114.5z"/>
	<path class="st0" d="M46.4,113.3c0,2.7-0.5,5.1-1.4,7.1s-2.3,3.6-4,4.7s-3.8,1.6-6,1.6s-4.2-0.5-6-1.6s-3.1-2.7-4.1-4.7
		s-1.4-4.4-1.5-7v-1.6c0-2.7,0.5-5.1,1.4-7.2c1-2.1,2.3-3.6,4.1-4.7c1.7-1.1,3.7-1.6,6-1.6c2.3,0,4.3,0.5,6,1.6s3.1,2.6,4,4.7
		c1,2,1.4,4.4,1.4,7.1L46.4,113.3L46.4,113.3z M41.6,111.9c0-3.1-0.6-5.4-1.7-7.1c-1.2-1.6-2.8-2.5-4.9-2.5c-2.1,0-3.7,0.8-4.9,2.4
		c-1.2,1.6-1.8,3.9-1.8,6.9v1.6c0,3,0.6,5.4,1.8,7.1c1.2,1.7,2.8,2.5,4.9,2.5s3.8-0.8,4.9-2.4c1.1-1.6,1.7-4,1.7-7.1V111.9z"/>
	<path class="st0" d="M56,122.6h12.6v3.9H51.2V98.7H56V122.6z"/>
	<path class="st0" d="M77.4,126.4h-4.8V98.7h4.8V126.4z"/>
	<path class="st0" d="M105.4,113.3c0,2.7-0.5,5.1-1.4,7.1s-2.3,3.6-4,4.7s-3.8,1.6-6,1.6s-4.2-0.5-6-1.6s-3.1-2.7-4.1-4.7
		s-1.4-4.4-1.5-7v-1.6c0-2.7,0.5-5.1,1.4-7.2c1-2.1,2.3-3.6,4.1-4.7c1.7-1.1,3.7-1.6,6-1.6s4.3,0.5,6,1.6s3.1,2.6,4,4.7
		c1,2,1.4,4.4,1.4,7.1L105.4,113.3L105.4,113.3z M100.6,111.9c0-3.1-0.6-5.4-1.7-7.1s-2.8-2.5-4.9-2.5s-3.7,0.8-4.9,2.4
		c-1.2,1.6-1.8,3.9-1.8,6.9v1.6c0,3,0.6,5.4,1.8,7.1c1.2,1.7,2.8,2.5,4.9,2.5s3.8-0.8,4.9-2.4s1.7-4,1.7-7.1V111.9z"/>
	<path class="st0" d="M132.1,126.4h-4.8L115,106.8v19.6h-4.8V98.7h4.8l12.4,19.7V98.7h4.8L132.1,126.4L132.1,126.4z"/>
	<path class="st0" d="M159.9,113.3c0,2.7-0.5,5.1-1.4,7.1s-2.3,3.6-4,4.7s-3.8,1.6-6,1.6s-4.2-0.5-6-1.6s-3.1-2.7-4.1-4.7
		s-1.4-4.4-1.5-7v-1.6c0-2.7,0.5-5.1,1.4-7.2c1-2.1,2.3-3.6,4.1-4.7c1.7-1.1,3.7-1.6,6-1.6s4.3,0.5,6,1.6s3.1,2.6,4,4.7
		c1,2,1.4,4.4,1.4,7.1v1.6H159.9z M155.1,111.9c0-3.1-0.6-5.4-1.7-7.1c-1.2-1.6-2.8-2.5-4.9-2.5c-2.1,0-3.7,0.8-4.9,2.4
		s-1.8,3.9-1.8,6.9v1.6c0,3,0.6,5.4,1.8,7.1s2.8,2.5,4.9,2.5c2.1,0,3.8-0.8,4.9-2.4c1.1-1.6,1.7-4,1.7-7.1V111.9z"/>
	<path class="st0" d="M174.1,120.4l7-21.7h5.3l-10,27.7h-4.7l-9.9-27.7h5.3L174.1,120.4z"/>
	<path class="st0" d="M211.4,113.3c0,2.7-0.5,5.1-1.4,7.1s-2.3,3.6-4,4.7s-3.8,1.6-6,1.6s-4.2-0.5-6-1.6s-3.1-2.7-4.1-4.7
		s-1.4-4.4-1.5-7v-1.6c0-2.7,0.5-5.1,1.4-7.2c1-2.1,2.3-3.6,4.1-4.7c1.7-1.1,3.7-1.6,6-1.6s4.3,0.5,6,1.6s3.1,2.6,4,4.7
		c1,2,1.4,4.4,1.4,7.1v1.6H211.4z M206.6,111.9c0-3.1-0.6-5.4-1.7-7.1c-1.2-1.6-2.8-2.5-4.9-2.5c-2.1,0-3.7,0.8-4.9,2.4
		s-1.8,3.9-1.8,6.9v1.6c0,3,0.6,5.4,1.8,7.1s2.8,2.5,4.9,2.5c2.1,0,3.8-0.8,4.9-2.4c1.1-1.6,1.7-4,1.7-7.1V111.9z"/>
</g>
<g>
	<g>
		<circle class="st1" cx="105.8" cy="44.9" r="45.1"/>
		<path class="st2" d="M105.8,3.5C83,3.5,64.5,22.1,64.5,44.9S83,86.3,105.9,86.3s41.4-18.5,41.4-41.4
			C147.2,22.1,128.7,3.5,105.8,3.5z M105.8,77.2c-17.8,0-32.3-14.5-32.3-32.3S88,12.6,105.8,12.6s32.3,14.5,32.3,32.3
			S123.7,77.2,105.8,77.2z"/>
	</g>
	<polygon class="st2" points="110.8,47.6 120.2,33.9 111.6,33.9 111.6,34 104.4,43.4 104.4,22 89.7,22 89.7,30.7 96,30.7 96,66.8 
		104.4,66.8 104.4,54.4 111.6,66.8 122,66.8 	"/>
</g>
</svg>
