<?xml version="1.0" encoding="utf-8"?>
<!-- Generator: Adobe Illustrator 21.0.0, SVG Export Plug-In . SVG Version: 6.00 Build 0)  -->
<svg version="1.1"
	 id="Слой_1" image-rendering="optimizeQuality" shape-rendering="geometricPrecision" text-rendering="geometricPrecision"
	 xmlns="http://www.w3.org/2000/svg" xmlns:xlink="http://www.w3.org/1999/xlink" x="0px" y="0px" viewBox="0 0 236 152.5"
	 style="enable-background:new 0 0 236 152.5;" xml:space="preserve">
<style type="text/css">
	.st0{fill:#FFFFFF;}
</style>
<path class="st0" d="M161.3,18.8L142.9,0.3H71.1V29h7.2v63.4h-7.2V121h71.8l18.5-18.5V66.1h-0.1l0.1-0.1l-7.7-7.7l7.7-7.7l0,0h0
	V18.8z M128.5,29v15.5h-18V29H128.5z M110.6,72.4h18v20h-18V72.4z"/>
<g>
	<path class="st0" d="M9.2,131.3c2.2,0,3.9,0.5,5.1,1.4c1.2,0.9,1.8,2.4,1.8,4.2c0,0.9-0.3,1.8-0.9,2.5c-0.6,0.7-1.4,1.3-2.3,1.6
		c1.3,0.3,2.2,0.9,3,1.9c0.7,1,1.1,2.1,1.1,3.4c0,1.9-0.6,3.4-1.9,4.4s-2.9,1.5-5.1,1.5H0v-1.8l2.3-0.4v-16.5L0,133.1v-1.8h2.3H9.2z
		 M5.2,140.2h4.7c1,0,1.8-0.3,2.5-0.9c0.6-0.6,0.9-1.4,0.9-2.4c0-1.1-0.4-2-1.1-2.5c-0.7-0.6-1.7-0.8-3.1-0.8h-4V140.2z M5.2,142.4
		v7.6h4.9c1.3,0,2.3-0.3,3-1c0.7-0.6,1.1-1.5,1.1-2.7c0-1.2-0.3-2.2-0.9-2.9c-0.6-0.7-1.5-1-2.7-1H5.2z"/>
	<path class="st0" d="M19.6,150.4l2.3-0.4v-11.1l-2.3-0.4v-1.8h5.2V150l2.3,0.4v1.8h-7.5V150.4z M24.7,132.7h-2.8v-2.9h2.8V132.7z"
		/>
	<path class="st0" d="M28.8,131.6v-1.8H34V150l2.3,0.4v1.8h-7.5v-1.8l2.3-0.4v-18L28.8,131.6z"/>
	<path class="st0" d="M38.1,131.6v-1.8h5.2V150l2.3,0.4v1.8h-7.5v-1.8l2.3-0.4v-18L38.1,131.6z"/>
	<path class="st0" d="M51.4,150h6.3l0.2-2.4h2.4v4.6H48.1v-2l8.4-11.3h-5.7l-0.2,2.4h-2.4v-4.6h11.8v1.9L51.4,150z"/>
	<path class="st0" d="M77.5,145c0,2.2-0.5,4-1.6,5.4c-1.1,1.4-2.6,2.1-4.4,2.1c-1,0-1.9-0.2-2.6-0.6c-0.7-0.4-1.4-1-1.9-1.7l-0.3,2
		h-2.4V132l-2.3-0.4v-1.8h5.2v8.7c0.5-0.7,1.1-1.2,1.8-1.6c0.7-0.4,1.6-0.5,2.5-0.5c1.9,0,3.4,0.8,4.5,2.3s1.6,3.5,1.6,6V145z
		 M74.7,144.7c0-1.8-0.3-3.2-1-4.4c-0.7-1.1-1.6-1.7-3-1.7c-0.9,0-1.6,0.2-2.2,0.6c-0.6,0.4-1.1,1-1.4,1.7v6.9
		c0.4,0.7,0.8,1.3,1.4,1.7c0.6,0.4,1.3,0.6,2.2,0.6c1.3,0,2.3-0.5,3-1.4c0.6-0.9,1-2.2,1-3.8V144.7z"/>
	<path class="st0" d="M80.4,144.3c0-2.3,0.6-4.2,1.9-5.7c1.2-1.5,2.9-2.2,5.1-2.2c2.1,0,3.8,0.7,5.1,2.2c1.2,1.5,1.9,3.4,1.9,5.7
		v0.3c0,2.3-0.6,4.2-1.9,5.7c-1.2,1.5-2.9,2.2-5.1,2.2c-2.2,0-3.9-0.7-5.1-2.2c-1.2-1.5-1.9-3.4-1.9-5.7V144.3z M83.2,144.6
		c0,1.6,0.3,3,1,4.1c0.7,1.1,1.7,1.6,3.1,1.6c1.3,0,2.4-0.5,3.1-1.6c0.7-1.1,1-2.4,1-4.1v-0.3c0-1.6-0.3-3-1-4.1
		c-0.7-1.1-1.7-1.6-3.1-1.6s-2.4,0.5-3.1,1.6c-0.7,1.1-1,2.4-1,4.1V144.6z"/>
	<path class="st0" d="M107,152.2c-0.1-0.4-0.2-0.8-0.2-1.1c0-0.3-0.1-0.7-0.1-1c-0.5,0.7-1.2,1.3-2,1.7c-0.8,0.5-1.7,0.7-2.6,0.7
		c-1.6,0-2.8-0.4-3.7-1.2c-0.8-0.8-1.3-1.9-1.3-3.3c0-1.5,0.6-2.6,1.8-3.4c1.2-0.8,2.8-1.2,4.9-1.2h2.9v-1.8c0-0.9-0.3-1.6-0.9-2.2
		c-0.6-0.5-1.4-0.8-2.4-0.8c-0.7,0-1.3,0.1-1.9,0.3c-0.5,0.2-1,0.4-1.3,0.7l-0.3,1.6h-2.2v-3c0.7-0.6,1.6-1,2.6-1.4
		c1-0.3,2.1-0.5,3.3-0.5c1.8,0,3.2,0.4,4.3,1.3s1.6,2.2,1.6,3.9v7.5c0,0.2,0,0.4,0,0.6c0,0.2,0,0.4,0,0.6l1.1,0.2v1.8H107z
		 M102.4,150.1c0.9,0,1.8-0.2,2.6-0.7c0.8-0.4,1.3-1,1.7-1.6v-2.6h-3c-1.2,0-2.1,0.3-2.7,0.8c-0.7,0.5-1,1.2-1,2
		c0,0.7,0.2,1.2,0.6,1.6C100.9,150,101.6,150.1,102.4,150.1z"/>
	<path class="st0" d="M113,138.5v-1.8h4.9l0.3,2.3c0.4-0.8,1-1.4,1.6-1.9c0.6-0.4,1.4-0.7,2.2-0.7c0.2,0,0.4,0,0.7,0.1
		c0.2,0,0.4,0.1,0.5,0.1l-0.4,2.6l-1.6-0.1c-0.7,0-1.4,0.2-1.9,0.5c-0.5,0.3-0.9,0.8-1.2,1.5v8.9l2.3,0.4v1.8H113v-1.8l2.3-0.4
		v-11.1L113,138.5z"/>
	<path class="st0" d="M135.4,150.3c-0.5,0.7-1.1,1.2-1.9,1.6c-0.7,0.4-1.6,0.5-2.5,0.5c-1.9,0-3.4-0.7-4.4-2.1
		c-1.1-1.4-1.6-3.2-1.6-5.4v-0.3c0-2.5,0.5-4.5,1.6-6c1.1-1.5,2.6-2.3,4.5-2.3c0.9,0,1.7,0.2,2.4,0.5c0.7,0.3,1.3,0.8,1.8,1.5V132
		l-2.3-0.4v-1.8h2.3h2.8V150l2.3,0.4v1.8h-4.8L135.4,150.3z M127.8,145c0,1.6,0.3,2.8,1,3.8c0.6,0.9,1.6,1.4,3,1.4
		c0.8,0,1.6-0.2,2.1-0.6c0.6-0.4,1-0.9,1.4-1.6v-7.2c-0.4-0.7-0.8-1.2-1.4-1.6c-0.6-0.4-1.3-0.6-2.1-0.6c-1.3,0-2.3,0.6-3,1.7
		c-0.6,1.1-1,2.6-1,4.4V145z"/>
	<path class="st0" d="M155.6,133.1l-2.1,0.3l2.7,11.5l0.4,2.6l0.1,0l0.6-2.6l3.8-13.7h2.5l3.9,13.7l0.6,2.7h0.1l0.4-2.7l2.6-11.5
		l-2.1-0.3v-1.8h6.6v1.8l-1.7,0.2l-4.6,18.9h-2.5l-4.1-14.5l-0.4-1.9h-0.1l-0.4,1.9l-4.2,14.5h-2.5l-4.6-18.9l-1.7-0.2v-1.8h6.6
		V133.1z"/>
	<path class="st0" d="M187,152.2c-0.1-0.4-0.2-0.8-0.2-1.1c0-0.3-0.1-0.7-0.1-1c-0.5,0.7-1.2,1.3-2,1.7c-0.8,0.5-1.7,0.7-2.6,0.7
		c-1.6,0-2.8-0.4-3.7-1.2c-0.8-0.8-1.3-1.9-1.3-3.3c0-1.5,0.6-2.6,1.8-3.4c1.2-0.8,2.8-1.2,4.9-1.2h2.9v-1.8c0-0.9-0.3-1.6-0.9-2.2
		c-0.6-0.5-1.4-0.8-2.4-0.8c-0.7,0-1.3,0.1-1.9,0.3c-0.5,0.2-1,0.4-1.3,0.7l-0.3,1.6h-2.2v-3c0.7-0.6,1.6-1,2.6-1.4
		c1-0.3,2.1-0.5,3.3-0.5c1.8,0,3.2,0.4,4.3,1.3c1.1,0.9,1.6,2.2,1.6,3.9v7.5c0,0.2,0,0.4,0,0.6c0,0.2,0,0.4,0,0.6l1.1,0.2v1.8H187z
		 M182.4,150.1c0.9,0,1.8-0.2,2.6-0.7c0.8-0.4,1.3-1,1.7-1.6v-2.6h-3c-1.2,0-2.1,0.3-2.7,0.8c-0.7,0.5-1,1.2-1,2
		c0,0.7,0.2,1.2,0.6,1.6C180.9,150,181.6,150.1,182.4,150.1z"/>
	<path class="st0" d="M192.6,131.6v-1.8h5.2V150l2.3,0.4v1.8h-7.5v-1.8l2.3-0.4v-18L192.6,131.6z"/>
	<path class="st0" d="M201.9,131.6v-1.8h5.2V150l2.3,0.4v1.8h-7.5v-1.8l2.3-0.4v-18L201.9,131.6z"/>
	<path class="st0" d="M218.6,152.5c-2.2,0-3.9-0.7-5.2-2.2c-1.3-1.4-1.9-3.3-1.9-5.6v-0.6c0-2.2,0.7-4.1,2-5.5
		c1.3-1.5,2.9-2.2,4.7-2.2c2.1,0,3.7,0.6,4.7,1.9c1.1,1.3,1.6,2.9,1.6,5.1v1.8h-10.1l0,0.1c0,1.5,0.4,2.7,1.1,3.7
		c0.7,1,1.7,1.4,3.1,1.4c1,0,1.8-0.1,2.5-0.4c0.7-0.3,1.3-0.6,1.9-1.1l1.1,1.8c-0.6,0.5-1.3,1-2.2,1.4
		C221,152.3,219.9,152.5,218.6,152.5z M218.2,138.6c-0.9,0-1.8,0.4-2.4,1.2s-1.1,1.8-1.2,3l0,0.1h7.2v-0.4c0-1.1-0.3-2-0.9-2.8
		C220.3,139,219.4,138.6,218.2,138.6z"/>
	<path class="st0" d="M232.3,132.9v3.7h2.9v2.1h-2.9v9.4c0,0.7,0.2,1.2,0.5,1.5c0.3,0.3,0.7,0.4,1.2,0.4c0.2,0,0.5,0,0.8-0.1
		c0.3,0,0.6-0.1,0.8-0.1l0.4,1.9c-0.3,0.2-0.7,0.3-1.2,0.4s-1,0.2-1.6,0.2c-1.1,0-2.1-0.3-2.7-1c-0.7-0.7-1-1.8-1-3.3v-9.4H227v-2.1
		h2.5v-3.7H232.3z"/>
</g>
</svg>
