<?xml version="1.0" encoding="utf-8"?>
<!-- Roman Inozemtsev: https://github.com/mir-one/  -->
<svg version="1.1"
	 id="Слой_1" image-rendering="optimizeQuality" shape-rendering="geometricPrecision" text-rendering="geometricPrecision"
	 xmlns="http://www.w3.org/2000/svg" xmlns:xlink="http://www.w3.org/1999/xlink" x="0px" y="0px" viewBox="0 0 100 100"
	 style="enable-background:new 0 0 100 100;" xml:space="preserve">
<style type="text/css">
	.st0{fill:#9AD5CD;}
	.st1{fill:none;}
	.st2{fill:#2DBDC0;}
	.st3{fill:#FFFFFF;}
	.st4{fill:#58595B;}
</style>
<g>
	<path class="st0" d="M80.7,19.4c-16.9-16.9-44.3-16.9-61.2,0c-16.9,16.9-16.9,44.3,0,61.2c8.1,8.1,18.6,12.3,29.2,12.6
		c11.5,0.4,23.2-3.8,32-12.6c8-7.9,12.1-18.2,12.6-28.6C93.8,40.3,89.6,28.3,80.7,19.4z"/>
	<path class="st1" d="M50.1,3.8C24.5,3.8,3.9,24.5,3.9,50c0,24,18.3,43.8,41.8,46L24.6,74.9l8-21.7l-5.9-6.6l6.6-16.5l19.1-5.4
		l13.1,13.7l10.1-13.6L96,45.2C93.6,21.9,73.9,3.8,50.1,3.8z"/>
	<path class="st0" d="M3.9,50c0-25.5,20.7-46.2,46.2-46.2c23.9,0,43.5,18.1,45.9,41.3l4,4C99.6,22,77.4,0,50.1,0
		c-27.6,0-50,22.4-50,50c0,27.5,22.2,49.8,49.6,50l-4-4C22.2,93.8,3.9,74,3.9,50z"/>
	<g>
		<path class="st2" d="M65.5,38.4L52.4,24.7l-19.1,5.4l-6.6,16.5l5.9,6.6l-8,21.7L45.7,96c1.5,0.1,2.9,0.2,4.4,0.2
			c0.5,0,1-0.1,1.5-0.1C74.8,95.4,93.7,77.5,96,54.7c0.2-1.5,0.2-3.1,0.2-4.7c0-1.6-0.1-3.3-0.3-4.8L75.6,24.8L65.5,38.4z"/>
		<path class="st2" d="M55.2,99.7C77.7,97.4,95.8,80.2,99.4,58c0.4-2.6,0.7-5.3,0.7-8c0-0.3,0-0.5,0-0.8l-4-4
			c0.2,1.6,0.3,3.2,0.3,4.8c0,1.6-0.1,3.2-0.2,4.7c-2.3,22.8-21.2,40.7-44.5,41.4c-0.5,0-1,0.1-1.5,0.1c-1.5,0-3-0.1-4.4-0.2l4,4
			c0.1,0,0.3,0,0.4,0C51.8,100,53.5,99.9,55.2,99.7z"/>
	</g>
	<path class="st3" d="M50.1,3.8C24.5,3.8,3.9,24.5,3.9,50c0,25.5,20.7,46.2,46.2,46.2c0.5,0,1-0.1,1.5-0.1
		C74.8,95.4,93.7,77.5,96,54.7c0.2-1.5,0.2-3.1,0.2-4.7C96.2,24.5,75.6,3.8,50.1,3.8z M80.7,80.6c-8.8,8.8-20.5,13-32,12.6
		c-10.6-0.3-21.1-4.5-29.2-12.6c-16.9-16.9-16.9-44.3,0-61.2c16.9-16.9,44.3-16.9,61.2,0c9,9,13.1,20.9,12.6,32.6
		C92.8,62.4,88.6,72.7,80.7,80.6z"/>
	<path class="st4" d="M26.3,75.8L43.6,29c-3.4,1.1-6.1,3-8,5.6c-1.9,2.6-2.9,5.9-2.9,9.8c0,2,0.3,3.4,0.8,4.3
		c0.1,0.2,0.1,0.3,0.1,0.4c-4.8,0-7.2-2.1-7.2-6.2c0-4.3,2.3-8.4,7-12.4c2-1.7,4.4-3.1,7-4.2c2.6-1.1,5.1-1.6,7.5-1.6
		c2.4,0,4.4,0.3,6.2,1l-1.5,35.9l14.9-35.9l9.8,0.1l-7.2,50.1h-9.8l4.4-30.5L51.9,75.8H41.7l1.4-30.8L31.7,75.8H26.3z"/>
	<path class="st3" d="M24.6,74.9L41.9,28c-3.4,1.1-6.1,3-8,5.6C32,36.2,31,39.5,31,43.4c0,2,0.3,3.4,0.8,4.3
		c0.1,0.2,0.1,0.3,0.1,0.4c-4.8,0-7.2-2.1-7.2-6.2c0-4.3,2.3-8.4,7-12.4c2-1.7,4.4-3.1,7-4.2c2.6-1.1,5.1-1.6,7.5-1.6
		c2.4,0,4.4,0.3,6.2,1l-1.5,35.9l14.9-35.9l9.8,0.1l-7.2,50.1h-9.8L63,44.3L50.2,74.9H40l1.4-30.8L30,74.9H24.6z"/>
</g>
</svg>
