<?xml version="1.0" encoding="utf-8"?>
<!-- Roman Inozemtsev: https://github.com/mir-one/  -->
<svg version="1.1"
	 id="Слой_1" image-rendering="optimizeQuality" shape-rendering="geometricPrecision" text-rendering="geometricPrecision"
	 xmlns="http://www.w3.org/2000/svg" xmlns:xlink="http://www.w3.org/1999/xlink" x="0px" y="0px" viewBox="0 0 256.7 32.3"
	 style="enable-background:new 0 0 256.7 32.3;" xml:space="preserve">
<style type="text/css">
	.st0{fill:#95E1D3;}
</style>
<path class="st0" d="M33.7,10.5h6.7v9.4h-1.8v-7.7h-3.1v7.7h-1.8V10.5z M49.3,16.8h-5.6c0.1,0.5,0.3,0.9,0.6,1.2
	c0.3,0.3,0.8,0.4,1.3,0.4c0.6,0,1.2-0.2,1.7-0.7l1.5,0.7c-0.4,0.5-0.8,0.9-1.3,1.1C47,19.9,46.4,20,45.7,20c-1.1,0-2-0.3-2.6-1
	c-0.7-0.7-1-1.5-1-2.6c0-1.1,0.3-1.9,1-2.6c0.7-0.7,1.5-1,2.6-1c1.1,0,2,0.3,2.7,1c0.7,0.7,1,1.6,1,2.7L49.3,16.8z M47.6,15.5
	c-0.1-0.4-0.3-0.7-0.7-0.9c-0.3-0.2-0.7-0.4-1.2-0.4c-0.5,0-0.9,0.1-1.3,0.4c-0.2,0.2-0.4,0.5-0.6,0.9L47.6,15.5L47.6,15.5z
	 M52.5,12.9v0.8c0.3-0.3,0.7-0.5,1-0.7c0.4-0.2,0.8-0.2,1.2-0.2c0.9,0,1.7,0.3,2.3,1c0.6,0.7,0.9,1.6,0.9,2.6c0,1-0.3,1.9-1,2.6
	c-0.7,0.7-1.4,1-2.3,1c-0.4,0-0.8-0.1-1.1-0.2s-0.7-0.4-1-0.7v3.3h-1.7v-9.4L52.5,12.9L52.5,12.9z M54.3,14.3c-0.5,0-1,0.2-1.4,0.6
	c-0.4,0.4-0.5,0.9-0.5,1.5c0,0.6,0.2,1.1,0.5,1.5c0.4,0.4,0.8,0.6,1.4,0.6c0.5,0,1-0.2,1.3-0.6c0.4-0.4,0.5-0.9,0.5-1.5
	c0-0.6-0.2-1.1-0.5-1.5C55.3,14.5,54.8,14.3,54.3,14.3L54.3,14.3z M63.6,17.3l2.1-4.4h1.1l1.7,6.9h-1.7l-0.9-4.1l-2.1,4.1h-0.7
	l-2-4.1l-0.9,4.1h-1.7l1.7-6.9h1.1L63.6,17.3L63.6,17.3z M74.6,12.9h1.7v6.9h-1.7v-0.7c-0.3,0.3-0.7,0.6-1,0.7
	c-0.3,0.1-0.7,0.2-1.1,0.2c-0.9,0-1.7-0.3-2.3-1c-0.7-0.7-1-1.6-1-2.6c0-1.1,0.3-1.9,0.9-2.6c0.6-0.7,1.4-1,2.3-1
	c0.4,0,0.8,0.1,1.2,0.2c0.4,0.2,0.7,0.4,1,0.7V12.9z M72.8,14.3c-0.5,0-1,0.2-1.3,0.6c-0.4,0.4-0.5,0.9-0.5,1.5
	c0,0.6,0.2,1.1,0.5,1.5c0.4,0.4,0.8,0.6,1.3,0.6c0.5,0,1-0.2,1.4-0.6c0.4-0.4,0.5-0.9,0.5-1.5c0-0.6-0.2-1.1-0.5-1.5
	C73.8,14.5,73.4,14.3,72.8,14.3L72.8,14.3z M78.1,12.9h1.7v2.6l2.4-2.6h2.1l-3.1,3.4l3.1,3.6h-2.3L80,17.4l-0.2,0.2v2.2h-1.7
	L78.1,12.9L78.1,12.9z M84.3,12.9h1.8l1.8,4.3l2-4.3h1.8l-4.3,9.4h-1.8l1.4-3L84.3,12.9L84.3,12.9z M98.9,19.8h-1.8l-1.7-4.4
	l-1.8,4.4h-1.8l2.9-6.9h1.1L98.9,19.8L98.9,19.8z M101.5,15.4h0.5c0.7,0,1.3,0.1,1.7,0.2c0.4,0.1,0.7,0.3,1,0.7
	c0.3,0.4,0.4,0.8,0.4,1.3c0,0.5-0.1,1-0.4,1.3c-0.2,0.4-0.6,0.6-0.9,0.7c-0.4,0.1-0.9,0.2-1.6,0.2h-2.4v-6.9h1.7L101.5,15.4
	L101.5,15.4z M101.5,18.5h0.5c0.3,0,0.5,0,0.7-0.1c0.1,0,0.3-0.1,0.4-0.3c0.1-0.1,0.2-0.3,0.2-0.5c0-0.6-0.3-0.9-1-0.9h-0.7V18.5
	L101.5,18.5z M105.8,12.9h6.4v1.7h-2.3v5.3h-1.7v-5.3h-2.4V12.9z M112.6,12.9h1.8l1.8,4.3l2-4.3h1.8l-4.3,9.4h-1.8l1.4-3L112.6,12.9
	L112.6,12.9z M122.7,12.9v0.8c0.3-0.3,0.7-0.5,1-0.7c0.4-0.2,0.8-0.2,1.2-0.2c0.9,0,1.7,0.3,2.3,1c0.6,0.7,0.9,1.6,0.9,2.6
	c0,1-0.3,1.9-1,2.6c-0.7,0.7-1.4,1-2.3,1c-0.4,0-0.8-0.1-1.1-0.2s-0.7-0.4-1-0.7v3.3h-1.7v-9.4L122.7,12.9L122.7,12.9z M124.5,14.3
	c-0.5,0-1,0.2-1.4,0.6c-0.4,0.4-0.5,0.9-0.5,1.5c0,0.6,0.2,1.1,0.5,1.5c0.4,0.4,0.8,0.6,1.4,0.6c0.5,0,1-0.2,1.3-0.6
	c0.4-0.4,0.5-0.9,0.5-1.5c0-0.6-0.2-1.1-0.5-1.5C125.5,14.5,125,14.3,124.5,14.3L124.5,14.3z M131.3,15.4h2.6v-2.5h1.7v6.9h-1.7V17
	h-2.6v2.9h-1.7v-6.9h1.7V15.4z M140.6,12.7c0.7,0,1.3,0.2,1.8,0.5c0.6,0.3,1,0.8,1.3,1.3c0.3,0.6,0.5,1.2,0.5,1.8
	c0,0.7-0.2,1.3-0.5,1.8c-0.3,0.6-0.8,1-1.3,1.3c-0.6,0.3-1.2,0.5-1.9,0.5c-1,0-1.8-0.4-2.5-1.1c-0.7-0.7-1.1-1.6-1.1-2.6
	c0-1.1,0.4-2,1.2-2.7C138.9,13,139.7,12.7,140.6,12.7L140.6,12.7z M140.6,14.4c-0.5,0-1,0.2-1.3,0.6c-0.4,0.4-0.5,0.9-0.5,1.4
	c0,0.6,0.2,1.1,0.5,1.5c0.4,0.4,0.8,0.6,1.3,0.6c0.5,0,1-0.2,1.4-0.6c0.4-0.4,0.5-0.9,0.5-1.5c0-0.6-0.2-1.1-0.5-1.4
	C141.6,14.5,141.2,14.4,140.6,14.4z M152.6,16.8h-5.6c0.1,0.5,0.3,0.9,0.6,1.2c0.3,0.3,0.8,0.4,1.3,0.4c0.6,0,1.2-0.2,1.7-0.7
	l1.5,0.7c-0.4,0.5-0.8,0.9-1.3,1.1c-0.5,0.2-1.1,0.4-1.8,0.4c-1.1,0-2-0.3-2.6-1c-0.7-0.7-1-1.5-1-2.6c0-1.1,0.3-1.9,1-2.6
	c0.7-0.7,1.5-1,2.6-1c1.1,0,2,0.3,2.7,1c0.7,0.7,1,1.6,1,2.7L152.6,16.8z M150.9,15.5c-0.1-0.4-0.3-0.7-0.7-0.9
	c-0.3-0.2-0.7-0.4-1.2-0.4c-0.5,0-0.9,0.1-1.3,0.4c-0.2,0.2-0.4,0.5-0.6,0.9L150.9,15.5L150.9,15.5z M157.1,12.9h2l1.4,1.9l1.4-1.9
	h2l-2.4,3.3l2.7,3.7h-2l-1.6-2.3l-1.6,2.3h-2l2.6-3.6L157.1,12.9L157.1,12.9z M168.2,12.7c0.7,0,1.3,0.2,1.8,0.5
	c0.6,0.3,1,0.8,1.3,1.3c0.3,0.6,0.5,1.2,0.5,1.8c0,0.7-0.2,1.3-0.5,1.8c-0.3,0.6-0.8,1-1.3,1.3c-0.6,0.3-1.2,0.5-1.9,0.5
	c-1,0-1.8-0.4-2.5-1.1c-0.7-0.7-1.1-1.6-1.1-2.6c0-1.1,0.4-2,1.2-2.7C166.5,13,167.3,12.7,168.2,12.7L168.2,12.7z M168.3,14.4
	c-0.5,0-1,0.2-1.3,0.6c-0.4,0.4-0.5,0.9-0.5,1.4c0,0.6,0.2,1.1,0.5,1.5c0.4,0.4,0.8,0.6,1.3,0.6c0.5,0,1-0.2,1.4-0.6
	c0.4-0.4,0.5-0.9,0.5-1.5c0-0.6-0.2-1.1-0.5-1.4C169.3,14.5,168.8,14.4,168.3,14.4L168.3,14.4z M174.5,16.9v-1.2h0.3
	c0.2,0,0.4-0.1,0.6-0.2c0.2-0.1,0.3-0.3,0.3-0.5c0-0.2-0.1-0.4-0.2-0.5c-0.2-0.1-0.3-0.2-0.6-0.2c-0.3,0-0.6,0.1-1.1,0.4l-0.7-1.2
	c0.6-0.5,1.3-0.7,2-0.7c0.7,0,1.2,0.2,1.7,0.5c0.4,0.3,0.7,0.8,0.7,1.4c0,0.6-0.3,1.1-1,1.5c0.9,0.3,1.3,0.9,1.3,1.7
	c0,0.6-0.2,1.1-0.7,1.5c-0.5,0.4-1.2,0.6-2,0.6c-0.9,0-1.7-0.3-2.3-0.8l1-1.2c0.4,0.3,0.8,0.5,1.2,0.5c0.3,0,0.5-0.1,0.7-0.2
	c0.2-0.1,0.3-0.3,0.3-0.5c0-0.2-0.1-0.4-0.2-0.6c-0.2-0.2-0.4-0.2-0.7-0.2L174.5,16.9L174.5,16.9z M180.4,17
	c-0.4-0.1-0.7-0.4-0.9-0.7c-0.2-0.3-0.4-0.7-0.4-1.2c0-0.5,0.1-1,0.4-1.3c0.3-0.4,0.6-0.6,1-0.7s1-0.2,1.9-0.2h1.8v6.9h-1.7v-2.5
	h-0.3l-1.7,2.5h-2.1L180.4,17L180.4,17z M182.5,16v-1.7h-0.6c-0.7,0-1,0.3-1,0.8c0,0.6,0.4,0.8,1.1,0.8H182.5L182.5,16z M186.9,19.8
	H186v-6.9h1.7V17l3.5-4.1h0.8v6.9h-1.7v-4L186.9,19.8L186.9,19.8z M186.4,9.9h1.4c0.1,0.2,0.3,0.3,0.5,0.4c0.2,0.1,0.4,0.1,0.7,0.1
	c0.3,0,0.5,0,0.8-0.2c0.2-0.1,0.3-0.2,0.4-0.4h1.4c-0.1,0.5-0.3,1-0.8,1.3c-0.4,0.3-1,0.5-1.8,0.5c-0.5,0-1-0.1-1.3-0.2
	c-0.4-0.1-0.6-0.4-0.9-0.6C186.6,10.5,186.5,10.2,186.4,9.9z M200.6,14.3l-1.4,0.8c-0.3-0.3-0.5-0.5-0.8-0.6
	c-0.3-0.1-0.6-0.2-0.9-0.2c-0.6,0-1.2,0.2-1.6,0.6c-0.4,0.4-0.6,0.9-0.6,1.5c0,0.6,0.2,1.1,0.6,1.4c0.4,0.4,0.9,0.6,1.5,0.6
	c0.8,0,1.4-0.3,1.8-0.8l1.4,0.9c-0.7,1-1.8,1.4-3.1,1.4c-1.2,0-2.2-0.4-2.9-1.1c-0.7-0.7-1-1.6-1-2.5c0-0.7,0.2-1.3,0.5-1.8
	c0.3-0.6,0.8-1,1.4-1.3c0.6-0.3,1.3-0.5,2-0.5c0.7,0,1.3,0.1,1.9,0.4C199.8,13.4,200.2,13.8,200.6,14.3L200.6,14.3z M201.5,12.9h6.4
	v1.7h-2.3v5.3h-1.7v-5.3h-2.4V12.9z M209.1,19.8v-6.9h2.8c0.9,0,1.5,0.2,1.9,0.5c0.3,0.4,0.5,0.8,0.5,1.2c0,0.7-0.3,1.2-1,1.5
	c0.9,0.3,1.4,0.9,1.4,1.8c0,0.5-0.1,0.9-0.4,1.2c-0.2,0.3-0.5,0.5-0.9,0.6c-0.4,0.1-0.9,0.2-1.6,0.2L209.1,19.8L209.1,19.8z
	 M210.8,15.6h0.7c0.3,0,0.5-0.1,0.7-0.2c0.2-0.1,0.2-0.3,0.2-0.5c0-0.3-0.1-0.5-0.2-0.6c-0.1-0.1-0.3-0.2-0.5-0.2l-0.2,0h-0.6V15.6
	L210.8,15.6z M210.8,18.5h0.9c0.3,0,0.6-0.1,0.7-0.2c0.1-0.2,0.2-0.3,0.2-0.5c0-0.2-0.1-0.4-0.2-0.6c-0.2-0.2-0.4-0.3-0.8-0.3h-0.7
	V18.5z M219.3,12.7c0.7,0,1.3,0.2,1.8,0.5c0.6,0.3,1,0.8,1.3,1.3c0.3,0.6,0.5,1.2,0.5,1.8c0,0.7-0.2,1.3-0.5,1.8
	c-0.3,0.6-0.8,1-1.3,1.3c-0.6,0.3-1.2,0.5-1.9,0.5c-1,0-1.8-0.4-2.5-1.1c-0.7-0.7-1.1-1.6-1.1-2.6c0-1.1,0.4-2,1.2-2.7
	C217.6,13,218.4,12.7,219.3,12.7L219.3,12.7z M219.3,14.4c-0.5,0-1,0.2-1.3,0.6c-0.4,0.4-0.5,0.9-0.5,1.4c0,0.6,0.2,1.1,0.5,1.5
	c0.4,0.4,0.8,0.6,1.3,0.6c0.5,0,1-0.2,1.4-0.6c0.4-0.4,0.5-0.9,0.5-1.5c0-0.6-0.2-1.1-0.5-1.4C220.3,14.5,219.9,14.4,219.3,14.4
	L219.3,14.4z"/>
</svg>
