<?xml version="1.0" encoding="utf-8"?>
<!-- Roman Inozemtsev: https://github.com/mir-one/  -->
<svg version="1.1"
	 id="Слой_1" image-rendering="optimizeQuality" shape-rendering="geometricPrecision" text-rendering="geometricPrecision"
	 xmlns="http://www.w3.org/2000/svg" xmlns:xlink="http://www.w3.org/1999/xlink" x="0px" y="0px" viewBox="0 0 219 42.3"
	 style="enable-background:new 0 0 219 42.3;" xml:space="preserve">
<style type="text/css">
	.st0{fill:#95E1D3;}
</style>
<path class="st0" d="M0.5,41.7l14-37.9c-2.8,0.9-4.9,2.4-6.5,4.5c-1.6,2.1-2.3,4.7-2.3,7.9c0,1.6,0.2,2.7,0.6,3.4
	c0.1,0.1,0.1,0.2,0.1,0.4c-3.9,0-5.8-1.7-5.8-5c0-3.5,1.9-6.8,5.7-10c1.6-1.4,3.5-2.5,5.6-3.4c2.1-0.9,4.1-1.3,6-1.3
	c1.9,0,3.6,0.3,5,0.8l-1.2,29.1L33.8,1.1l7.9,0.1L36,41.7h-7.9L31.6,17L21.2,41.7h-8.2l1.1-24.9L4.9,41.7H0.5z"/>
<path class="st0" d="M70.7,31.8c-1,3.5-2.5,5.2-4.4,5.2c-1.5,0-2.3-0.8-2.3-2.4c0-0.6,0.1-1.1,0.2-1.8l3.9-18.8h-8l-0.6,3l0-0.4
	c0-0.8-0.3-1.5-1-2c-0.7-0.5-1.8-0.8-3.4-0.8c-3,0-5.6,1-7.7,3.1c-2.1,2.1-3.8,4.7-4.9,7.8c-0.5,1.4-0.9,2.9-1.2,4.3
	C41.1,30.5,41,32,41,33.4c0,1.4,0.2,2.7,0.6,3.9v0c1.1,3.2,3.3,4.7,6.5,4.7c3.2,0,6-1.7,8.4-5.1c0.4,3.4,2.2,5.1,5.4,5.1
	c5,0,8.7-3.4,11.1-10.2H70.7z M56.5,31.8c-0.3,1.5-1,2.7-1.9,3.6c-0.9,0.9-1.9,1.3-3,1.3c-0.6,0-1.1-0.2-1.5-0.6
	c-0.7-0.7-1-1.8-1-3.4c0-0.8,0-1.6,0.1-2.4c0.6-4.9,2-8.7,4.4-11.4c1-1.1,2-1.6,3-1.6s1.7,0.3,2,0.8c0.3,0.5,0.5,1,0.5,1.3
	L56.5,31.8z"/>
<path class="st0" d="M70.3,35.4c0-1,0.1-2.2,0.4-3.6l3.7-17.7h7.9l-4,18.7c-0.1,0.6-0.2,1.1-0.2,1.6c0,1.5,0.6,2.3,1.7,2.3
	c2,0,3.4-1.6,4.5-4.9l3.7-17.7H96l-4,18.7c-0.1,0.5-0.2,1-0.2,1.6c0,1.5,0.6,2.3,1.7,2.3c1.9,0,3.4-1.6,4.4-4.9l3.7-17.7h7.9
	l-4,18.7c-0.1,0.7-0.2,1.3-0.2,2c0,1.2,0.8,1.9,2.3,1.9c2.1,0,3.6-1.6,4.5-4.9h2.3c-2.4,6.8-6.1,10.2-11.1,10.2
	c-3.3,0-5.1-1.7-5.4-5.2c-2.2,3.5-4.9,5.2-8.2,5.2c-3.3,0-5.1-1.7-5.5-5.2c-2.2,3.5-4.9,5.2-8.2,5.2c-1.6,0-3-0.5-4.2-1.6
	C70.8,39.4,70.3,37.7,70.3,35.4L70.3,35.4z"/>
<path class="st0" d="M110.1,41.7l5.9-27.6h7.9l-2.3,11l3.4-3.6l2.6-2.9c1.7-1.9,3.1-3.2,4.1-3.9c1-0.7,2.2-1.1,3.5-1.1
	c1.3,0,2.3,0.3,2.9,1c0.6,0.7,0.9,1.6,0.9,2.6c0,1.1-0.3,1.9-0.9,2.6c-0.6,0.6-1.5,1-2.6,1c-1.1,0-1.9-0.3-2.4-0.9
	c-0.4-0.6-0.6-1.1-0.6-1.4V18c-1,0.6-2,1.4-2.8,2.3l-2.1,2.3c-0.5,0.6-1.1,1.2-1.7,1.7c0.8-0.1,1.6-0.2,2.3-0.2c2,0,3.4,0.4,4.1,1.3
	c0.8,0.9,1.1,2.2,1.1,3.8c0,0.4,0,0.9-0.1,1.3l-0.2,1.3c-0.2,1.3-0.3,2.2-0.3,2.8c0,1.4,0.7,2,2.2,2c1.1,0,2-0.4,2.6-1.2
	c0.6-0.8,1.3-2,2-3.7h2.3c-2.3,6.8-5.7,10.2-10,10.2c-2.2,0-3.9-0.6-5-1.7c-1.1-1.1-1.6-2.6-1.6-4.5c0-0.9,0.1-1.9,0.3-2.8
	c0.2-1,0.3-1.8,0.3-2.4c0-1.8-0.7-2.6-2.1-2.6c-0.6,0-1.3,0.3-1.9,0.8l-1.6,1.3L118,41.7H110.1z"/>
<path class="st0" d="M139.4,35.4c0-1,0.1-2.2,0.4-3.6l3.7-17.7h7.9l-4,18.7c-0.1,0.6-0.2,1.1-0.2,1.6c0,1.5,0.6,2.3,1.7,2.3
	c2,0,3.4-1.6,4.5-4.9l3.7-17.7h7.9l-4,18.7c-0.2,0.6-0.2,1.3-0.2,1.9c0,1.3,0.8,1.9,2.3,1.9c2.1,0,3.6-1.6,4.5-4.9h2.3
	c-2.3,6.8-6,10.2-11.1,10.2c-3.3,0-5.1-1.7-5.5-5.2c-2.2,3.5-4.9,5.2-8.2,5.2c-1.6,0-3-0.5-4.2-1.6
	C139.9,39.4,139.4,37.7,139.4,35.4L139.4,35.4z"/>
<path class="st0" d="M165.6,41.7l5.8-27.6h7.9l-2.3,11h6.2l2.5-11h7.6l-3,13.7l-0.9,4.3c-0.4,1-0.6,1.8-0.6,2.3
	c0,1.5,0.7,2.3,2.2,2.3c1.1,0,2-0.4,2.7-1.3c0.7-0.8,1.3-2,2-3.6h2.3c-2.3,6.8-5.7,10.2-10.3,10.2c-2.1,0-3.7-0.6-4.8-1.7
	c-1.1-1.1-1.7-2.5-1.7-4.2c0-1.3,0.4-3.8,1.3-7.7h-6.1l-2.8,13.2H165.6L165.6,41.7z"/>
<path class="st0" d="M209.9,12.7c-6.1-0.4-12,7.7-13.6,12.6c-0.5,1.5-0.8,2.9-1.1,4.3c-0.2,1.4-0.3,2.8-0.3,4.1
	c0,1.4,0.2,2.6,0.6,3.6c1.2,3,4,4.5,8.2,4.5c3.4,0,6.6-1.3,8.8-4.5C219.4,27.2,220.1,13.4,209.9,12.7z M206,37.3
	c-0.6,0-1.1-0.1-1.5-0.2c-0.4-0.1-0.7-0.4-1-0.9c-0.3-0.5-0.5-1.6-0.5-3.5h0c0-2.9,0.8-6.3,2.3-10c1.5-3.8,3.2-5.7,4.8-5.7
	C216,17,210.7,37.3,206,37.3z"/>
</svg>
