<?xml version="1.0" encoding="utf-8"?>
<!-- Roman Inozemtsev: https://github.com/mir-one/  -->
<svg version="1.1" id="Слой_1" xmlns="http://www.w3.org/2000/svg" xmlns:xlink="http://www.w3.org/1999/xlink" x="0px" y="0px"
	 viewBox="0 0 67 67" style="enable-background:new 0 0 67 67;" xml:space="preserve">
<style type="text/css">
	.st0{fill:#F1F0F0;}
	.st1{fill:#1DA4CA;}
	.st2{fill:none;}
	.st3{fill:#097FB4;}
	.st4{fill:#FFFFFF;}
	.st5{fill:#3D2423;}
	.st6{fill:#F0EEEC;}
	.st7{fill:#F3D0A3;}
	.st8{fill:#EB4229;}
</style>
<path class="st0" d="M17.5,50.3C17.5,50.2,17.5,50.2,17.5,50.3C17.5,50.2,17.6,50.2,17.5,50.3z"/>
<g>
	<path class="st1" d="M54,13C42.7,1.7,24.3,1.7,13,13C1.7,24.3,1.7,42.7,13,54c5.4,5.4,12.5,8.2,19.6,8.5c7.7,0.2,15.5-2.6,21.4-8.5
		c5.3-5.3,8.1-12.2,8.4-19.2C62.8,27,60,19,54,13z"/>
	<path class="st2" d="M64.4,33.5c0-17.1-13.9-30.9-30.9-30.9C16.4,2.6,2.6,16.4,2.6,33.5c0,17.1,13.9,30.9,30.9,30.9
		c0.3,0,0.7,0,1-0.1c0.6,0,1.1-0.1,1.6-0.1L25,53.1l0-7.2l-4.5-5.1l21.6-25.6l22.1,22.1c0-0.2,0.1-0.5,0.1-0.7
		C64.4,35.6,64.4,34.6,64.4,33.5z"/>
	<path class="st1" d="M34.5,64.4c-0.3,0-0.7,0.1-1,0.1c-17.1,0-30.9-13.9-30.9-30.9c0-17.1,13.9-30.9,30.9-30.9
		c17.1,0,30.9,13.9,30.9,30.9c0,1.1-0.1,2.1-0.2,3.2c0,0.2-0.1,0.5-0.1,0.7l2.2,2.2c0-0.2,0.1-0.5,0.1-0.7c0.3-1.8,0.5-3.5,0.5-5.4
		C67,15,52,0,33.5,0S0,15,0,33.5S15,67,33.5,67c1.2,0,2.3-0.1,3.4-0.2c0.5-0.1,1-0.1,1.5-0.2l-2.3-2.3
		C35.6,64.3,35.1,64.4,34.5,64.4z"/>
	<path class="st3" d="M20.5,40.9L25,46l0,7.2l11.2,11.2c14.6-1.2,26.2-12.5,28-26.9L42.1,15.3L20.5,40.9z"/>
	<path class="st3" d="M66.4,39.6l-2.2-2.2c-1.8,14.4-13.5,25.7-28,26.9l2.3,2.3C52.6,64.5,63.8,53.6,66.4,39.6z"/>
	<path class="st4" d="M33.5,2.6C16.4,2.6,2.6,16.4,2.6,33.5c0,17.1,13.9,30.9,30.9,30.9c0.3,0,0.7,0,1-0.1
		c15.6-0.5,28.2-12.5,29.8-27.7c0.1-1,0.2-2.1,0.2-3.2C64.4,16.4,50.6,2.6,33.5,2.6z M54,54c-5.9,5.9-13.7,8.7-21.4,8.5
		c-7.1-0.2-14.2-3-19.6-8.5C1.7,42.7,1.7,24.3,13,13C24.3,1.7,42.7,1.7,54,13c6,6,8.8,14,8.4,21.8C62.1,41.8,59.3,48.7,54,54z"/>
	<g>
		<path class="st3" d="M21,41.4c0.1,0,0.2,0.1,0.3,0.2C21.2,41.5,21.1,41.5,21,41.4z"/>
		<path class="st5" d="M40.2,21.8c0-0.5,0.1-0.9,0.4-1.3c0.5-0.7,1.4-0.7,1.9,0c0.6,0.7,0.6,2,0,2.7c-0.5,0.7-1.4,0.7-1.9,0
			C40.3,22.8,40.2,22.3,40.2,21.8z M41.4,20.9c0,0.3,0.2,0.6,0.4,0.6c0.2,0,0.4-0.2,0.4-0.5c0,0,0,0,0,0c0-0.3-0.2-0.6-0.4-0.6
			C41.6,20.3,41.4,20.6,41.4,20.9z"/>
		<path class="st5" d="M25.8,21.9c0,0.5-0.1,1-0.4,1.4c-0.5,0.7-1.3,0.7-1.8,0c-0.6-0.7-0.6-2,0-2.8c0.5-0.6,1.3-0.6,1.8,0
			C25.7,20.8,25.8,21.3,25.8,21.9z M24.2,20.9c0,0.1,0,0.2,0,0.3c0.1,0.2,0.2,0.3,0.4,0.3c0.2,0,0.3-0.1,0.4-0.3
			c0.1-0.2,0.1-0.3,0-0.5c-0.1-0.2-0.2-0.3-0.4-0.3c-0.2,0-0.3,0.2-0.4,0.4C24.2,20.8,24.2,20.8,24.2,20.9z"/>
		<path class="st5" d="M30.4,33.5c0,0.3,0,0.6-0.1,0.9c0,0.2-0.1,0.5-0.3,0.7c-0.1,0.2-0.3,0.2-0.5,0c-0.1-0.1-0.2-0.3-0.3-0.5
			c-0.2-0.8-0.2-1.6,0-2.4c0.1-0.2,0.2-0.5,0.5-0.5c0.3,0,0.4,0.3,0.4,0.5C30.4,32.6,30.4,33,30.4,33.5z"/>
		<path class="st5" d="M36.1,33.4c0-0.4,0-0.8,0.2-1.2c0-0.1,0.1-0.3,0.2-0.4c0.2-0.2,0.4-0.2,0.6,0c0.1,0.1,0.2,0.3,0.2,0.4
			c0.2,0.8,0.2,1.6,0,2.4c0,0.1-0.1,0.3-0.2,0.4c-0.2,0.3-0.4,0.3-0.6,0c-0.2-0.3-0.3-0.7-0.3-1.1C36.1,33.7,36.1,33.6,36.1,33.4z"
			/>
		<path class="st6" d="M41.4,20.9c0-0.3,0.2-0.6,0.4-0.6c0.2,0,0.4,0.3,0.4,0.6c0,0,0,0,0,0c0,0.3-0.2,0.5-0.4,0.5
			C41.6,21.5,41.4,21.2,41.4,20.9z"/>
		<path class="st6" d="M24.2,20.9c0-0.1,0-0.2,0-0.2c0-0.2,0.2-0.4,0.4-0.4c0.2,0,0.3,0.2,0.4,0.3c0.1,0.2,0.1,0.3,0,0.5
			c-0.1,0.2-0.2,0.3-0.4,0.3c-0.2,0-0.3-0.1-0.4-0.3C24.2,21.1,24.2,21,24.2,20.9z"/>
		<path class="st7" d="M48.3,33.7C48.3,33.7,48.3,33.7,48.3,33.7c0-0.2,0-0.4,0-0.6c0-0.1,0-0.2-0.1-0.2c0-1.3-0.2-2.5-0.4-3.7
			c-0.2-1.3-0.5-2.7-0.7-4c-0.4-2.1-1-4.1-2-6c-0.4-0.7-0.9-1.4-1.3-2.1c-0.1,0-0.1-0.1-0.2-0.2c-0.7-0.8-1.4-1.5-2.3-2.1
			c-1.1-0.7-2.2-1.1-3.5-1.1c-0.1,0-0.1,0-0.2,0c0.1,0,0.1,0,0.2,0c-0.1-0.1-0.3,0-0.4,0c-2.9,0-5.7,0-8.6,0c-0.4,0-0.7,0.1-1.1,0.1
			c-1.5,0.3-2.7,1-3.9,2c-0.9,0.8-1.6,1.7-2.2,2.7c-1.1,1.8-1.8,3.8-2.1,5.9c-0.2,1.2-0.4,2.4-0.6,3.6c-0.3,1.7-0.5,3.3-0.6,5
			c0,0.1,0,0.1,0,0.2l0,0c-0.1,0.3,0,0.5,0,0.8c0,0.3,0,0.6,0,0.9c0,0.3,0,0.5,0,0.8l0,0l0,0c0,0.3,0.1,0.6,0.1,1
			c0.1,0.2,0.1,0.3,0.1,0.5c0,0.2,0.1,0.3,0.1,0.5c0.3,1.3,0.9,2.5,1.8,3.4c0.2,0.2,0.4,0.3,0.6,0.5c0.1,0,0.2,0.1,0.3,0.2l0,0
			c0.4,0.2,0.8,0.4,1.2,0.6c0.9,0.4,1.9,0.5,2.9,0.6c0.4-0.9,0.6-1.8,0.7-2.7c0.3-1.9,0.5-3.9,0.7-5.8c0.2-1.8,0.4-3.6,0.7-5.4
			c0.1-0.5,0.2-1,0.5-1.4c0.3-0.5,0.6-0.5,1.1-0.2c0.6,0.5,1.3,0.9,2,1.2c0.6,0.3,1.3,0.5,1.9,0.6c0,0,0.1,0,0.1,0
			c0.7,0.1,1.4-0.1,2-0.4c0.8-0.3,1.5-0.8,2.2-1.3c0.1-0.1,0.2-0.1,0.3-0.2c0.4-0.2,0.6-0.2,0.9,0.1c0.3,0.4,0.5,0.8,0.6,1.3
			c0.2,1,0.3,2.1,0.4,3.1c0.3,2.4,0.5,4.9,0.9,7.3c0.2,1.1,0.3,2.3,0.7,3.4c0,0.1,0.1,0.3,0.2,0.4c0.9-0.1,1.8-0.3,2.7-0.6
			c1.6-0.6,2.8-1.7,3.5-3.2c0.3-0.8,0.5-1.6,0.7-2.4c0-0.3,0.1-0.7,0.1-1c0,0,0,0,0.1,0l0,0c0-0.2,0-0.4,0-0.6c0,0,0,0,0.1,0
			C48.3,34.5,48.3,34.1,48.3,33.7z M22.9,37.4L22.9,37.4L22.9,37.4L22.9,37.4z M24.6,37c0.1,0,0.1,0,0.2,0c0,0.1,0,0.2-0.1,0.2
			c0.1,0,0.1-0.1,0.1-0.2C24.7,37,24.6,37,24.6,37z M24.4,36.8c0-0.1,0.1-0.1,0.1-0.2C24.4,36.6,24.4,36.7,24.4,36.8L24.4,36.8z
			 M25.4,23.2c-0.5,0.7-1.3,0.7-1.8,0c-0.6-0.7-0.6-2,0-2.8c0.5-0.6,1.3-0.6,1.8,0c0.3,0.4,0.5,0.9,0.5,1.4
			C25.8,22.4,25.7,22.8,25.4,23.2z M41.9,35.3c0-0.3,0-0.7,0-1c0-0.3,0-0.7,0-1c0,0.3,0,0.7,0,1C41.9,34.7,41.9,35,41.9,35.3z
			 M42.2,36.7L42.2,36.7c0,0.1,0,0.1,0,0.2C42.2,36.8,42.2,36.7,42.2,36.7z M37.3,19.3c-0.1,0-0.1,0-0.2,0.1
			C37.2,19.3,37.2,19.3,37.3,19.3c0.1,0,0.2,0,0.2,0.1C37.5,19.3,37.4,19.3,37.3,19.3z M33.1,18.2L33.1,18.2c0,0.1,0,0.2,0,0.2
			C33.1,18.3,33.1,18.3,33.1,18.2z M33,19.1c0-0.1,0-0.1,0-0.2C33.1,19,33,19.1,33,19.1c0,0,0.1,0,0.1,0C33.1,19.1,33,19.1,33,19.1z
			 M33.1,18.2C33.1,18.2,33.1,18.1,33.1,18.2c0-0.3,0-0.5,0-0.8C33.1,17.7,33.1,17.9,33.1,18.2C33.1,18.1,33.1,18.2,33.1,18.2
			L33.1,18.2z M40.6,23.2c-0.3-0.4-0.4-0.9-0.4-1.4c0-0.5,0.1-0.9,0.4-1.3c0.5-0.7,1.4-0.7,1.9,0c0.6,0.7,0.6,2,0,2.7
			C42,23.9,41.1,23.9,40.6,23.2z"/>
		<g>
			<path class="st8" d="M39.6,54.2C39.6,54.2,39.6,54.2,39.6,54.2c0.2,0,0.3-0.1,0.4-0.2c0,0,0.1,0,0.1,0c0.2,0,0.3-0.1,0.4-0.2
				c0.4-0.2,0.7-0.4,1-0.7c2-1.6,2.9-4.1,1.6-6.7c-0.4-0.8-0.8-1.6-1.2-2.4c-0.2-0.4-0.4-0.8-0.5-1.3c-0.1-0.1-0.1-0.3-0.2-0.4
				c-0.4-1.1-0.6-2.2-0.7-3.4c-0.4-2.4-0.6-4.9-0.9-7.3c-0.1-1-0.3-2.1-0.4-3.1c-0.1-0.5-0.3-0.9-0.6-1.3c-0.3-0.3-0.5-0.4-0.9-0.1
				c-0.1,0.1-0.2,0.1-0.3,0.2c-0.7,0.5-1.4,0.9-2.2,1.3c-0.6,0.3-1.3,0.5-2,0.4c0,0-0.1,0-0.1,0c0,0.2,0,0.4,0,0.6
				c0-0.2,0-0.4,0-0.6c-0.7-0.1-1.3-0.3-1.9-0.6c-0.7-0.4-1.4-0.8-2-1.2c-0.4-0.3-0.8-0.2-1.1,0.2c-0.3,0.4-0.4,0.9-0.5,1.4
				c-0.3,1.8-0.5,3.6-0.7,5.4c-0.2,2-0.4,3.9-0.7,5.8c-0.1,0.9-0.3,1.9-0.7,2.7c0,0.3-0.2,0.5-0.3,0.7c-0.2,0.4-0.4,0.9-0.7,1.3
				c-0.1,0.2-0.2,0.4-0.3,0.5c-0.3,0.6-0.7,1.2-0.9,1.9c-0.6,1.7-0.3,3.4,0.8,4.8c0.3,0.4,0.7,0.7,1,1.1c0,0,0.1,0,0.1,0.1
				c0,0,0,0,0.1,0c0.1,0,0.2,0.1,0.3,0.2l0,0c0.3,0.2,0.6,0.4,0.9,0.5c0.1,0.1,0.3,0.1,0.4,0.2l0,0c0,0,0,0,0,0.1
				c0.1,0,0.1,0.1,0.2,0.1c0,0,0,0,0,0c0,0,0,0,0,0s0,0,0,0c0.1,0,0.3,0.1,0.4,0.1c0.1,0.1,0.1,0.1,0.2,0.1c0-0.1,0-0.2,0-0.2
				c0,0.1,0,0.2,0,0.2c0,0.2,0.1,0.1,0.2,0.1c0.1,0,0.2,0,0.2,0c0.1,0.1,0.1,0.1,0.2,0.1c0.2,0.2,0.5,0.1,0.6,0.2c0.1,0,0.1,0,0.2,0
				c0,0,0,0,0.1,0c0.3,0.1,0.6,0.1,0.8,0.2c1.1,0.2,2.1,0.3,3.2,0.3c0.3,0,0.6,0,0.9,0c0.2,0,0.4,0,0.6,0c0.8,0,1.6-0.2,2.4-0.4
				c0.3,0,0.6-0.1,0.8-0.2c0.1,0,0.2,0,0.3-0.1c0.2,0,0.3-0.1,0.5-0.1 M39.2,54.4c-0.1,0-0.1,0-0.2,0C39.1,54.4,39.1,54.4,39.2,54.4
				C39.2,54.4,39.3,54.4,39.2,54.4 M38.9,54.1C38.9,54.1,38.9,54.2,38.9,54.1C38.9,54.2,38.9,54.1,38.9,54.1L38.9,54.1z M31.7,54.6
				c0-0.2-0.1-0.3,0-0.5C31.6,54.2,31.6,54.4,31.7,54.6z M29.8,54.5C29.8,54.5,29.8,54.5,29.8,54.5C29.8,54.5,29.8,54.5,29.8,54.5z
				 M32.1,54.2c0,0.1,0,0.1,0,0.2C32.1,54.3,32.1,54.3,32.1,54.2z M32.6,54.4c0-0.1-0.1-0.2-0.2-0.3C32.5,54.2,32.6,54.3,32.6,54.4z
				 M33,52.8C33,52.8,33,52.8,33,52.8L33,52.8C33,52.8,33,52.8,33,52.8z M36.3,32.2c0-0.1,0.1-0.3,0.2-0.4c0.2-0.2,0.4-0.2,0.6,0
				c0.1,0.1,0.2,0.3,0.2,0.4c0.2,0.8,0.2,1.6,0,2.4c0,0.1-0.1,0.3-0.2,0.4c-0.2,0.3-0.4,0.3-0.6,0c-0.2-0.3-0.3-0.7-0.3-1.1
				c0-0.1,0-0.3,0-0.4C36.1,33,36.1,32.6,36.3,32.2z M29.4,32.2c0.1-0.2,0.2-0.5,0.5-0.5c0.3,0,0.4,0.3,0.4,0.5
				c0.1,0.4,0.2,0.8,0.2,1.3c0,0.3,0,0.6-0.1,0.9c0,0.2-0.1,0.5-0.3,0.7c-0.1,0.2-0.3,0.2-0.5,0c-0.1-0.1-0.2-0.3-0.3-0.5
				C29.1,33.8,29.1,33,29.4,32.2z M39,54.3c-0.1,0-0.1,0-0.2,0C38.9,54.3,38.9,54.3,39,54.3c0,0,0.1,0,0.1,0
				C39.1,54.3,39.1,54.3,39,54.3z"/>
		</g>
	</g>
</g>
</svg>
