<?xml version="1.0" encoding="utf-8"?>
<!-- Roman Inozemtsev: https://github.com/mir-one/  -->
<svg version="1.1"
	 id="Слой_1" shape-rendering="geometricPrecision" text-rendering="geometricPrecision" image-rendering="optimizeQuality"
	 xmlns="http://www.w3.org/2000/svg" xmlns:xlink="http://www.w3.org/1999/xlink" x="0px" y="0px" viewBox="0 0 100 100"
	 style="enable-background:new 0 0 100 100;" xml:space="preserve">
<style type="text/css">
	.st0{fill:#EEC718;}
	.st1{fill:#454545;}
</style>
<path class="st0" d="M37,32.8L37,32.8v0.3l-8.2,15.2H18.7H8.4L0.1,33.1L0,33l0.1-0.1l8.2-15.4h10.3H29L37,32.8z M99.9,66.3
	L99.9,66.3V66l-8.2-15.2H81.5H71.2L63,66.1l-0.1,0.1l0.1,0.1l8.2,15.4h10.3h10.3L99.9,66.3z M68.5,82.2L68.5,82.2v-0.3l-8.2-15.2
	H50.1H39.9l-8.2,15.4l-0.1,0.1l0.1,0.1l8.2,15.4h10.3h10.3L68.5,82.2z M37,66.3L37,66.3V66l-8.2-15.2H18.7H8.4l-8.3,15L0,66l0.1,0.1
	l8.2,15.4h10.3H29L37,66.3z M99.9,32.8L100,33l-0.1,0.1l-8.2,15.2H81.5H71.2L63,33l-0.1-0.1l0.1-0.1l8.2-15.4h10.3h10.3L99.9,32.8z
	 M68.5,16.9l0.1,0.1l-0.1,0.1l-8.2,15.2H50.1H39.9L31.6,17l-0.1-0.1l0.1-0.1l8.2-15.1h10.3h10.3L68.5,16.9z"/>
<polygon class="st1" points="46.9,39.3 40.7,62.5 59.1,62.7 57.5,57 48.4,56.9 53.3,39.3 "/>
</svg>
