<?xml version="1.0" encoding="utf-8"?>
<!-- Generator: Adobe Illustrator 21.0.0, SVG Export Plug-In . SVG Version: 6.00 Build 0)  -->
<svg version="1.1"
	 id="Слой_1" shape-rendering="geometricPrecision" text-rendering="geometricPrecision" image-rendering="optimizeQuality"
	 xmlns="http://www.w3.org/2000/svg" xmlns:xlink="http://www.w3.org/1999/xlink" x="0px" y="0px" viewBox="0 0 256.7 32.3"
	 style="enable-background:new 0 0 256.7 32.3;" xml:space="preserve">
<style type="text/css">
	.st0{fill:#3F58A7;}
</style>
<g>
	<path class="st0" d="M69.8,18.8c0.1,0.8,0.3,1.3,0.7,1.6s0.9,0.5,1.6,0.5c0.8,0,1.4-0.3,1.8-0.8c0.4-0.6,0.6-1.4,0.7-2.4h-3.8v-1.5
		h3.8c0-1.1-0.3-1.9-0.7-2.4c-0.4-0.6-1-0.8-1.8-0.8c-0.7,0-1.2,0.2-1.6,0.5s-0.6,0.9-0.7,1.7h-1.8c0.1-1.2,0.5-2.1,1.2-2.7
		s1.7-1,2.8-1c0.9,0,1.6,0.2,2.3,0.6s1.2,1,1.5,1.8c0.4,0.8,0.5,1.6,0.5,2.6v0.9c0,1-0.2,1.9-0.5,2.7c-0.3,0.8-0.9,1.4-1.5,1.8
		s-1.4,0.6-2.3,0.6c-1.2,0-2.2-0.3-2.9-1c-0.7-0.6-1.2-1.5-1.3-2.7H69.8z"/>
	<path class="st0" d="M80.8,19.1h-0.9v3.1h-1.8v-7.9h1.8v3.2h0.8l2.2-3.2h2.2l-2.9,3.8l3.1,4.1H83L80.8,19.1z"/>
	<path class="st0" d="M85.6,18.2c0-0.8,0.2-1.5,0.5-2.1c0.3-0.6,0.7-1.1,1.3-1.4c0.6-0.3,1.2-0.5,1.9-0.5c1.1,0,1.9,0.3,2.6,1
		c0.7,0.7,1,1.6,1.1,2.7l0,0.4c0,0.8-0.1,1.5-0.5,2.1c-0.3,0.6-0.7,1.1-1.3,1.4c-0.6,0.3-1.2,0.5-1.9,0.5c-1.1,0-2-0.4-2.7-1.1
		C85.9,20.5,85.6,19.5,85.6,18.2L85.6,18.2z M87.4,18.4c0,0.8,0.2,1.5,0.5,1.9c0.3,0.5,0.8,0.7,1.4,0.7s1.1-0.2,1.4-0.7
		c0.3-0.5,0.5-1.2,0.5-2.1c0-0.8-0.2-1.4-0.5-1.9c-0.3-0.5-0.8-0.7-1.4-0.7c-0.6,0-1,0.2-1.4,0.7C87.5,16.8,87.4,17.5,87.4,18.4z"/>
	<path class="st0" d="M97.7,21c0.4,0,0.8-0.1,1.1-0.4s0.4-0.6,0.5-1h1.7c0,0.5-0.2,1-0.5,1.4c-0.3,0.4-0.7,0.8-1.2,1
		c-0.5,0.2-1,0.4-1.6,0.4c-1.1,0-2-0.4-2.6-1.1c-0.6-0.7-1-1.7-1-3v-0.2c0-1.2,0.3-2.2,1-2.9c0.6-0.7,1.5-1.1,2.6-1.1
		c0.9,0,1.7,0.3,2.3,0.8c0.6,0.5,0.9,1.3,0.9,2.2h-1.7c0-0.5-0.2-0.8-0.5-1.1c-0.3-0.3-0.7-0.4-1.1-0.4c-0.6,0-1,0.2-1.3,0.6
		c-0.3,0.4-0.5,1.1-0.5,1.9v0.3c0,0.9,0.2,1.5,0.5,1.9C96.7,20.8,97.1,21,97.7,21z"/>
	<path class="st0" d="M107.2,14.3h1.8v7.9h-1.8V17l-3.1,5.3h-1.8v-7.9h1.8v5.3L107.2,14.3z"/>
	<path class="st0" d="M114.2,21c0.4,0,0.8-0.1,1.1-0.4s0.4-0.6,0.5-1h1.7c0,0.5-0.2,1-0.5,1.4c-0.3,0.4-0.7,0.8-1.2,1
		c-0.5,0.2-1,0.4-1.6,0.4c-1.1,0-2-0.4-2.6-1.1c-0.6-0.7-1-1.7-1-3v-0.2c0-1.2,0.3-2.2,1-2.9c0.6-0.7,1.5-1.1,2.6-1.1
		c0.9,0,1.7,0.3,2.3,0.8c0.6,0.5,0.9,1.3,0.9,2.2h-1.7c0-0.5-0.2-0.8-0.5-1.1c-0.3-0.3-0.7-0.4-1.1-0.4c-0.6,0-1,0.2-1.3,0.6
		c-0.3,0.4-0.5,1.1-0.5,1.9v0.3c0,0.9,0.2,1.5,0.5,1.9C113.1,20.8,113.6,21,114.2,21z"/>
	<path class="st0" d="M125,15.7h-2.6v6.5h-1.8v-6.5h-2.5v-1.4h6.9V15.7z"/>
	<path class="st0" d="M129.2,22.4c-1.1,0-2-0.4-2.7-1.1c-0.7-0.7-1.1-1.7-1.1-2.8v-0.2c0-0.8,0.2-1.5,0.5-2.1
		c0.3-0.6,0.7-1.1,1.3-1.5s1.2-0.5,1.8-0.5c1.1,0,1.9,0.3,2.5,1c0.6,0.7,0.9,1.7,0.9,2.9v0.7h-5.2c0.1,0.7,0.3,1.2,0.7,1.6
		s0.9,0.6,1.4,0.6c0.8,0,1.5-0.3,2-1l1,0.9c-0.3,0.5-0.7,0.8-1.3,1.1C130.5,22.3,129.9,22.4,129.2,22.4z M129,15.6
		c-0.5,0-0.9,0.2-1.2,0.5c-0.3,0.3-0.5,0.8-0.6,1.4h3.4v-0.1c0-0.6-0.2-1-0.5-1.4C129.9,15.8,129.5,15.6,129,15.6z"/>
	<path class="st0" d="M138.5,20.1l2.3-5.7h2.2v7.9h-1.8V17l-2.2,5.2h-1.2l-2.2-5.3v5.3h-1.8v-7.9h2.2L138.5,20.1z"/>
	<path class="st0" d="M149.8,22.3c-0.1-0.2-0.1-0.4-0.2-0.7c-0.6,0.6-1.3,0.9-2.1,0.9c-0.8,0-1.4-0.2-1.9-0.7
		c-0.5-0.5-0.8-1-0.8-1.7c0-0.8,0.3-1.5,0.9-1.9c0.6-0.5,1.5-0.7,2.7-0.7h1.1v-0.5c0-0.4-0.1-0.7-0.3-1c-0.2-0.2-0.6-0.4-1-0.4
		c-0.4,0-0.7,0.1-1,0.3c-0.3,0.2-0.4,0.5-0.4,0.8H145c0-0.4,0.1-0.8,0.4-1.2c0.3-0.4,0.7-0.7,1.2-0.9c0.5-0.2,1-0.3,1.7-0.3
		c0.9,0,1.7,0.2,2.2,0.7c0.6,0.5,0.8,1.1,0.8,2v3.6c0,0.7,0.1,1.3,0.3,1.7v0.1H149.8z M147.8,21c0.4,0,0.7-0.1,1-0.3
		c0.3-0.2,0.5-0.4,0.7-0.7v-1.5h-1c-0.7,0-1.2,0.1-1.5,0.3c-0.3,0.2-0.5,0.6-0.5,1c0,0.3,0.1,0.6,0.3,0.8
		C147.1,20.9,147.4,21,147.8,21z"/>
	<path class="st0" d="M158.9,20.8h4.8v1.5h-6.7V11.6h1.9V20.8z"/>
	<path class="st0" d="M165,12.3c0-0.3,0.1-0.5,0.3-0.7c0.2-0.2,0.4-0.3,0.7-0.3s0.6,0.1,0.7,0.3c0.2,0.2,0.3,0.4,0.3,0.7
		c0,0.3-0.1,0.5-0.3,0.7s-0.4,0.3-0.7,0.3s-0.6-0.1-0.7-0.3C165.1,12.8,165,12.5,165,12.3z M166.9,22.3h-1.8v-7.9h1.8V22.3z"/>
	<path class="st0" d="M175.8,18.4c0,1.2-0.3,2.2-0.8,2.9c-0.5,0.7-1.3,1.1-2.3,1.1c-0.9,0-1.7-0.3-2.2-1l-0.1,0.9h-1.6V11h1.8v4.1
		c0.5-0.6,1.2-0.9,2.1-0.9c1,0,1.7,0.4,2.3,1.1c0.6,0.7,0.8,1.7,0.8,3V18.4z M174,18.2c0-0.9-0.2-1.5-0.5-1.9
		c-0.3-0.4-0.7-0.6-1.3-0.6c-0.8,0-1.3,0.3-1.6,1v3.3c0.3,0.7,0.9,1,1.6,1c0.6,0,1-0.2,1.3-0.6s0.5-1,0.5-1.9V18.2z"/>
	<path class="st0" d="M181.4,16c-0.2,0-0.5-0.1-0.7-0.1c-0.8,0-1.4,0.3-1.6,0.9v5.4h-1.8v-7.9h1.7l0,0.9c0.4-0.7,1-1,1.8-1
		c0.3,0,0.5,0,0.6,0.1L181.4,16z"/>
	<path class="st0" d="M185.9,22.4c-1.1,0-2-0.4-2.7-1.1c-0.7-0.7-1.1-1.7-1.1-2.8v-0.2c0-0.8,0.2-1.5,0.5-2.1
		c0.3-0.6,0.7-1.1,1.3-1.5c0.6-0.3,1.2-0.5,1.8-0.5c1.1,0,1.9,0.3,2.5,1c0.6,0.7,0.9,1.7,0.9,2.9v0.7h-5.2c0.1,0.7,0.3,1.2,0.7,1.6
		c0.4,0.4,0.9,0.6,1.4,0.6c0.8,0,1.5-0.3,2-1l1,0.9c-0.3,0.5-0.7,0.8-1.3,1.1C187.2,22.3,186.6,22.4,185.9,22.4z M185.7,15.6
		c-0.5,0-0.9,0.2-1.2,0.5c-0.3,0.3-0.5,0.8-0.6,1.4h3.4v-0.1c0-0.6-0.2-1-0.5-1.4C186.6,15.8,186.2,15.6,185.7,15.6z"/>
</g>
</svg>
