<?xml version="1.0" encoding="utf-8"?>
<!-- Roman Inozemtsev: https://github.com/mir-one/  -->
<svg version="1.1"
	 id="Слой_1" shape-rendering="geometricPrecision" text-rendering="geometricPrecision" image-rendering="optimizeQuality"
	 xmlns="http://www.w3.org/2000/svg" xmlns:xlink="http://www.w3.org/1999/xlink" x="0px" y="0px" viewBox="0 0 24 24"
	 style="enable-background:new 0 0 24 24;" xml:space="preserve">
<style type="text/css">
	.st0{fill:#3F58A7;}
	.st1{fill:#FFFFFF;}
</style>
<circle class="st0" cx="12" cy="12" r="12"/>
<circle class="st1" cx="12" cy="12" r="11"/>
<ellipse transform="matrix(0.7071 -0.7071 0.7071 0.7071 -4.9847 11.9998)" class="st1" cx="12" cy="12" rx="10.4" ry="10.4"/>
<g>
	<path class="st0" d="M15.5,9.8c0.6,0,1.1,0,1.7,0c0,2.5,0,5,0,7.5c-0.6,0-1.1,0-1.7,0C15.5,14.8,15.5,12.4,15.5,9.8z"/>
	<path class="st0" d="M15.5,7.4c-0.1-0.2-0.2-0.4-0.4-0.7c0.7,0.1,1.4,0.1,2.1,0.2c-0.3,0.7-0.6,1.3-0.9,1.9
		c-0.2-0.3-0.3-0.5-0.4-0.7c-1.5,0.8-3,1.7-4.5,2.5C10,11.4,8.5,12.3,7,13.1c-0.1-0.2-0.3-0.4-0.4-0.7C9.6,10.7,12.5,9,15.5,7.4z"/>
	<path class="st0" d="M14.2,17.4c-0.6,0-1.1,0-1.7,0c0-2,0-3.9,0-5.9c0.5,0,1.1,0,1.7,0C14.2,13.4,14.2,15.3,14.2,17.4z"/>
	<path class="st0" d="M11.3,13c0,0.1,0,0.3,0,0.4c0,1.3,0,2.6,0,4c-0.6,0-1.2,0-1.8,0c0-1.4,0-2.9,0-4.4C10.1,13,10.6,13,11.3,13z"
		/>
	<path class="st0" d="M8.3,14.4c0,1,0,1.9,0,2.9c-0.6,0-1.1,0-1.7,0c0-1,0-1.9,0-2.9C7.1,14.4,7.7,14.4,8.3,14.4z"/>
</g>
</svg>
