<?xml version="1.0" encoding="utf-8"?>
<!-- Roman Inozemtsev: https://github.com/mir-one/  -->
<svg version="1.1"
	 id="Слой_1" shape-rendering="geometricPrecision" text-rendering="geometricPrecision" image-rendering="optimizeQuality"
	 xmlns="http://www.w3.org/2000/svg" xmlns:xlink="http://www.w3.org/1999/xlink" x="0px" y="0px" viewBox="0 0 24 24"
	 style="enable-background:new 0 0 24 24;" xml:space="preserve">
<style type="text/css">
	.st0{fill:#3F58A7;}
	.st1{fill:#FFFFFF;}
</style>
<circle class="st0" cx="12" cy="12" r="12"/>
<circle class="st1" cx="12" cy="12" r="11"/>
<ellipse transform="matrix(0.7071 -0.7071 0.7071 0.7071 -4.9705 11.9998)" class="st1" cx="12" cy="12" rx="10.4" ry="10.4"/>
<g>
	<path class="st0" d="M16.6,12c0,1.4,0,2.9,0,4.3c0,0.7-0.3,1-1,1c-2.4,0-4.8,0-7.2,0c-0.8,0-1-0.3-1-1c0-2.9,0-5.7,0-8.6
		c0-0.8,0.2-1,1-1c2.4,0,4.9,0,7.3,0c0.8,0,1,0.2,1,1C16.6,9.1,16.6,10.6,16.6,12L16.6,12z M12.6,8.4c-1.3,0-2.3,1-2.3,2.2
		s1,2.2,2.2,2.3c1.3,0,2.3-1,2.3-2.3C14.9,9.4,13.9,8.5,12.6,8.4z M8.7,12c0-1.3,0-2.7,0-4c0-0.2-0.1-0.3-0.2-0.5
		C8.4,7.7,8.2,7.8,8.2,8c0,2.7,0,5.3,0,8c0,0.2,0.2,0.3,0.3,0.5c0.1-0.2,0.2-0.3,0.2-0.5C8.7,14.7,8.7,13.4,8.7,12z"/>
	<path class="st0" d="M8.8,17.8c0.5,0,1,0,1.5,0c0,0.5-0.3,0.8-0.7,0.8C9.1,18.6,8.8,18.3,8.8,17.8z"/>
	<path class="st0" d="M13.7,17.8c0.5,0,1,0,1.5,0c0,0.5-0.3,0.7-0.7,0.8C14,18.6,13.8,18.3,13.7,17.8z"/>
	<path class="st0" d="M10.8,10.7c0-1,0.8-1.8,1.8-1.8s1.8,0.8,1.8,1.8s-0.8,1.8-1.8,1.8S10.8,11.7,10.8,10.7z M13.3,9.7
		c-0.6-0.4-1.2-0.3-1.6,0.2c-0.4,0.5-0.3,1.2,0.1,1.6c0.4,0.4,1.1,0.5,1.6,0.1s0.6-0.9,0.2-1.5c-0.2,0.1-0.3,0.3-0.5,0.4
		c-0.1,0.1-0.2,0-0.4,0c0-0.1,0-0.3,0-0.4C13,10,13.1,9.9,13.3,9.7z"/>
</g>
</svg>
