<?xml version="1.0" encoding="utf-8"?>
<!-- Generator: Adobe Illustrator 21.0.0, SVG Export Plug-In . SVG Version: 6.00 Build 0)  -->
<svg version="1.1"
	 id="Слой_1" shape-rendering="geometricPrecision" text-rendering="geometricPrecision" image-rendering="optimizeQuality"
	 xmlns="http://www.w3.org/2000/svg" xmlns:xlink="http://www.w3.org/1999/xlink" x="0px" y="0px" viewBox="0 0 236 126.6"
	 style="enable-background:new 0 0 236 126.6;" xml:space="preserve">
<style type="text/css">
	.st0{fill:#FFFFFF;}
</style>
<g>
	<path class="st0" d="M108.9,24.2l0.1,0.1l-0.1,0.1l-6.4,11.9h-7.9h-8l-6.4-11.9l-0.1-0.1l0.1-0.1l6.4-11.9h8h8L108.9,24.2z
		 M157.9,50.3l0.1-0.1l-0.1-0.1l-6.4-11.9h-7.9h-8L129.2,50l-0.1,0.1l0.1,0.1l6.4,11.9h8h8L157.9,50.3z M133.4,62.8l0.1-0.1
		l-0.1-0.1l-6.4-12h-7.9h-8l-6.4,11.9l-0.1,0.1l0.1,0.1l6.4,11.9h8h8L133.4,62.8z M108.9,50.3L108.9,50.3V50l-6.4-11.9h-7.9h-8
		L80.2,50l-0.1,0.1l0.1,0.1l6.4,11.9h8h8L108.9,50.3z M157.9,24.3l0.1,0.1l-0.1,0.1l-6.4,11.9h-7.9h-8l-6.4-11.9l-0.1-0.1l0.1-0.1
		l6.4-11.9h8h8L157.9,24.3z M133.4,11.9l0.1,0.1l-0.1,0.1l-6.4,12h-7.9h-8l-6.4-11.9l-0.1-0.1l0.1-0.1l6.4-12h8h8L133.4,11.9z"/>
	<polygon class="st0" points="116.6,29.2 111.8,47.4 126.1,47.5 124.9,43.1 117.7,42.9 121.6,29.2 	"/>
</g>
<g>
	<polygon class="st0" points="76.9,121.6 76.9,126.4 76.9,126.9 76.4,126.9 51.4,126.9 50.9,126.9 50.9,126.4 50.9,86.4 50.9,85.9 
		51.4,85.9 57.2,85.9 57.7,85.9 57.7,86.4 57.7,121.1 76.4,121.1 76.9,121.1 	"/>
	<polygon class="st0" points="89.1,126.9 83.5,126.9 83,126.9 83,126.4 83,96.4 83,95.9 83.5,95.9 89.1,95.9 89.6,95.9 89.6,96.4 
		89.6,126.4 89.6,126.9 	"/>
	<path class="st0" d="M86.3,91.5c-0.6,0-1.1-0.1-1.6-0.3c-0.5-0.2-0.9-0.5-1.3-0.8c-0.8-0.7-1.2-1.7-1.2-2.9c0-1.2,0.4-2.2,1.2-2.9
		c0.4-0.4,0.8-0.6,1.3-0.8c0.5-0.2,1-0.3,1.6-0.3c0.6,0,1.1,0.1,1.6,0.3c0.5,0.2,0.9,0.5,1.3,0.8c0.4,0.4,0.7,0.8,0.9,1.3
		s0.3,1,0.3,1.6c0,1.2-0.4,2.2-1.2,2.9c-0.4,0.4-0.8,0.6-1.3,0.8C87.4,91.4,86.8,91.5,86.3,91.5L86.3,91.5z"/>
	<path class="st0" d="M148.2,95.3c0.2,0,0.5,0,0.8,0s0.6,0,0.9,0.1c0.3,0.1,0.6,0.1,0.9,0.1s0.6,0.1,0.9,0.1c0.3,0,0.5,0.1,0.9,0.1
		c0.4,0.1,0.6,0.1,0.8,0.1s0.5,0.1,0.7,0.1s0.4,0.1,0.5,0.1l0.4,0.1l-0.1,0.4l-1,4.7l-0.1,0.6l-0.6-0.2c-0.2-0.1-0.5-0.1-0.8-0.2
		c-0.4-0.1-0.8-0.2-1.3-0.3c-0.5-0.1-1-0.2-1.7-0.2c-0.6,0-1.4-0.1-2.1-0.1c-1,0-2,0.1-3,0.3c-0.5,0.1-1,0.2-1.3,0.3l0,0l-0.3,0.1
		v24.8v0.5h-0.5h-5.6h-0.5v-0.5V97.6v-0.4l0.4-0.1c1.3-0.5,3-0.9,5-1.3c1-0.2,2-0.4,3.2-0.5C145.8,95.3,146.9,95.3,148.2,95.3
		L148.2,95.3z"/>
	<path class="st0" d="M127.1,104.9c-0.6-2-1.6-3.7-2.8-5.1c-0.6-0.7-1.3-1.4-2.1-1.9c-0.8-0.6-1.6-1-2.5-1.4s-1.9-0.7-2.9-0.9
		c-1-0.2-2.1-0.3-3.3-0.3c-0.9,0-1.8,0.1-2.6,0.2c-0.8,0.1-1.6,0.3-2.3,0.5c-0.9,0.3-1.7,0.6-2.4,0.9V81.6V81l-0.6,0.1L99.9,82
		l-0.4,0.1v0.4v43v0.4l0.4,0.1c0.6,0.2,1.4,0.4,2.2,0.5c0.8,0.2,1.7,0.3,2.8,0.5c1,0.2,2.1,0.3,3.3,0.4c1.2,0.1,2.4,0.1,3.7,0.1
		c1.2,0,2.4-0.1,3.5-0.3c1.1-0.2,2.2-0.5,3.2-0.9s1.9-0.8,2.8-1.4c0.9-0.5,1.6-1.1,2.3-1.9c0.7-0.7,1.3-1.5,1.9-2.3
		c0.5-0.9,1-1.8,1.4-2.8s0.7-2.1,0.9-3.2c0.2-1.1,0.3-2.3,0.3-3.5s-0.1-2.3-0.2-3.4C127.6,106.9,127.4,105.9,127.1,104.9z
		 M120.5,115.9c-0.4,1.3-1.1,2.4-1.9,3.3c-1.7,1.8-4,2.7-6.8,2.7c-0.8,0-1.5,0-2.1,0s-1.2-0.1-1.7-0.1c-0.5-0.1-0.9-0.1-1.3-0.2
		c-0.2,0-0.4-0.1-0.6-0.1l0,0V103c0.3-0.2,0.6-0.4,1-0.6c0.5-0.3,1-0.5,1.6-0.7c0.6-0.3,1.2-0.4,1.9-0.5c0.6-0.1,1.4-0.2,2.1-0.2
		c0.8,0,1.5,0.1,2.1,0.2s1.2,0.3,1.8,0.6c0.5,0.3,1,0.6,1.4,0.9c0.4,0.4,0.8,0.8,1.1,1.2s0.6,1,0.9,1.5s0.5,1.1,0.6,1.8
		c0.2,0.7,0.3,1.3,0.4,2s0.1,1.4,0.1,2.2C121.1,113.1,120.9,114.6,120.5,115.9z"/>
	<path class="st0" d="M183.7,99.1c-1.2-1.3-2.6-2.3-4.3-3c-1.7-0.6-3.6-1-5.8-1c-0.9,0-1.9,0.1-2.8,0.3c-0.9,0.2-1.8,0.4-2.7,0.8
		c-0.9,0.3-1.7,0.8-2.5,1.3s-1.5,1.1-2.2,1.8s-1.3,1.5-1.9,2.3c-0.5,0.9-1,1.8-1.4,2.8s-0.7,2.1-0.9,3.3c-0.2,1.2-0.3,2.4-0.3,3.8
		c0,2.3,0.3,4.4,1,6.4c0.3,1,0.7,1.9,1.2,2.8s1.1,1.7,1.7,2.4c0.7,0.7,1.4,1.4,2.3,1.9c0.8,0.6,1.8,1,2.8,1.5c1,0.4,2.1,0.7,3.4,0.9
		c1.2,0.2,2.5,0.3,3.9,0.3c1.1,0,2.1,0,3.1-0.1s1.9-0.3,2.8-0.4c0.9-0.2,1.6-0.4,2.2-0.6c0.6-0.2,1.1-0.4,1.5-0.6l0.3-0.2l-0.1-0.4
		l-0.8-4.5l-0.1-0.7l-0.6,0.3c-0.3,0.1-0.7,0.3-1.2,0.4c-0.5,0.2-1.1,0.3-1.7,0.5c-0.6,0.1-1.4,0.3-2.2,0.4s-1.7,0.1-2.6,0.1
		c-3.3,0-5.8-0.8-7.3-2.3c-0.8-0.8-1.4-1.7-1.8-2.8c-0.4-1-0.6-2.1-0.8-3.4h20.8h0.5l0.1-0.4c0-0.2,0-0.3,0-0.5s0-0.4,0-0.6V111
		c0-2.6-0.3-4.9-0.9-6.9C185.7,102,184.9,100.4,183.7,99.1z M180.2,108h-14.3c0-0.3,0.1-0.6,0.2-0.9c0.1-0.5,0.3-1,0.5-1.5
		s0.4-0.9,0.6-1.3c0.3-0.4,0.5-0.8,0.9-1.2c0.3-0.4,0.7-0.7,1.1-1c0.4-0.3,0.8-0.5,1.3-0.8s0.9-0.4,1.5-0.5c0.5-0.1,1.1-0.2,1.7-0.2
		c1.1,0,2,0.2,2.8,0.5c0.8,0.4,1.5,0.9,2.1,1.6s1.1,1.6,1.4,2.5C180.1,106.1,180.3,107,180.2,108L180.2,108z"/>
	<path class="st0" d="M158.9,111.5C158.9,111.4,158.9,111.4,158.9,111.5C158.9,111.4,158.9,111.4,158.9,111.5L158.9,111.5z"/>
</g>
</svg>
