<?xml version="1.0" encoding="utf-8"?>
<!-- Roman Inozemtsev: https://github.com/mir-one/  -->
<svg version="1.1" id="Слой_1" xmlns="http://www.w3.org/2000/svg" xmlns:xlink="http://www.w3.org/1999/xlink" x="0px" y="0px"
	 viewBox="0 0 67 67" style="enable-background:new 0 0 67 67;" xml:space="preserve">
<style type="text/css">
	.st0{fill:#B6B734;}
	.st1{fill:none;}
	.st2{fill:#7B7C32;}
	.st3{fill:#FFFFFF;}
</style>
<g>
	<path class="st0" d="M54.1,12.9c-11.3-11.3-29.6-11.3-40.9,0c-11.3,11.3-11.3,29.6,0,40.9c5.4,5.4,12.4,8.2,19.5,8.4
		c7.7,0.2,15.5-2.5,21.4-8.4c5.3-5.3,8.1-12.2,8.4-19.1C62.8,26.9,60.1,18.9,54.1,12.9z"/>
	<path class="st1" d="M64.5,33.4c0-17-13.8-30.8-30.8-30.8c-17,0-30.8,13.8-30.8,30.8C2.8,50,16,63.5,32.5,64.1l-11-11l7,0l0.6-38.7
		l6.8-0.9l27.6,27.6c0.4-1.5,0.7-3,0.8-4.6C64.4,35.5,64.5,34.4,64.5,33.4z"/>
	<path class="st0" d="M2.8,33.4c0-17,13.8-30.8,30.8-30.8c17,0,30.8,13.8,30.8,30.8c0,1.1-0.1,2.1-0.2,3.1c-0.2,1.6-0.5,3.1-0.8,4.6
		l2,2c0.4-1.4,0.8-2.9,1-4.4c0.3-1.7,0.5-3.5,0.5-5.4C67,14.9,52.1,0,33.6,0S0.3,14.9,0.3,33.4s14.9,33.4,33.4,33.4
		c0.5,0,0.9,0,1.4,0l-2.5-2.5C16,63.5,2.8,50,2.8,33.4z"/>
	<path class="st2" d="M29.1,14.4l-0.6,38.7l-7,0l11,11c0.4,0,0.8,0,1.2,0c0.3,0,0.7,0,1-0.1c13.9-0.4,25.5-10.1,28.8-23L35.9,13.5
		L29.1,14.4z"/>
	<path class="st2" d="M65.5,43.1l-2-2c-3.4,13-14.9,22.6-28.8,23c-0.3,0-0.7,0.1-1,0.1c-0.4,0-0.8,0-1.2,0l2.5,2.5
		c0.7,0,1.4-0.1,2-0.1C50.6,65.2,61.6,55.7,65.5,43.1z"/>
	<path d="M35.4,53.1c-4.7,0-9.3,0-14,0c-0.8,0-1-0.2-0.9-0.9c0,0,0-0.1,0-0.1c0-1.3,0-1.3,1.3-1.4c1.9-0.1,3.2-0.7,3.7-2.4
		c0.1-0.2,0.1-0.5,0.1-0.7c0-3.6,0-7.1,0-10.7c0-0.7-0.2-0.8-0.8-0.8c-1.5,0-3,0-4.6,0c-0.5,0-0.6-0.2-0.6-0.7c0-1.7,0-1.7,1.7-1.7
		c1.2,0,2.4,0,3.7,0c0.5,0,0.7-0.1,0.7-0.6c0-1.7,0-3.4,0-5.1c0-0.5-0.2-0.7-0.7-0.6c-1.5,0-3,0-4.6,0c-0.5,0-0.6-0.1-0.6-0.6
		c0-2.1-0.1-2.1,2-2.1c1.1,0,2.2,0,3.2,0c0.4,0,0.6-0.1,0.6-0.6c0-1.8,0.1-3.6,0-5.4c-0.1-1.5-1-2.5-2.6-2.9c-0.7-0.1-1.3-0.2-2-0.1
		c-0.4,0-0.5-0.1-0.5-0.5c-0.1-1.8-0.1-1.8,1.7-1.8c4.5,0,9.1,0,13.6,0c0.7,0,0.8,0.2,0.8,0.8c0,1.5,0,1.4-1.5,1.5
		c-2.2,0.2-3.8,0.7-3.8,3.8c0,1.5,0,2.9,0,4.4c0,0.7,0.2,0.8,0.8,0.8c1.3,0,2.6,0,3.9,0c0.5,0,0.6,0.1,0.6,0.7c0,2,0,2-2,2
		c-0.9,0-1.8,0-2.7,0c-0.4,0-0.6,0.1-0.6,0.5c0,1.7,0,3.5,0,5.2c0,0.4,0.1,0.6,0.6,0.6c1.4,0,2.9,0,4.3,0c0.5,0,0.6,0.1,0.6,0.6
		c0,1.7,0.1,1.7-1.7,1.7c-1.1,0-2.1,0-3.2,0c-0.5,0-0.6,0.2-0.6,0.7c0,4.3,0,8.6,0,12.9c0,0.5,0.1,0.6,0.6,0.6c3.7,0,7.4,0,11.1,0
		c1.5,0,3.1-1.4,3.7-3.1c0.5-1.5,0.6-3.1,0.8-4.7c0.1-1.3,0.1-1.3,1.4-1.3c1.6,0,1.6,0,1.6,1.6c0,2.6-0.3,5.1-0.2,7.7
		c0,0.3-0.1,0.6-0.2,1c-0.1,0.5,0.2,1.3-0.1,1.6c-0.4,0.4-1.2,0.1-1.8,0.1C44,53.1,39.7,53.1,35.4,53.1z"/>
	<path class="st3" d="M33.6,2.5c-17,0-30.8,13.8-30.8,30.8c0,17,13.8,30.8,30.8,30.8c0.3,0,0.7,0,1-0.1
		c15.5-0.5,28.1-12.4,29.7-27.6c0.1-1,0.2-2.1,0.2-3.1C64.5,16.3,50.7,2.5,33.6,2.5z M54.1,53.8c-5.9,5.9-13.7,8.7-21.4,8.4
		c-7.1-0.2-14.1-3-19.5-8.4c-11.3-11.3-11.3-29.6,0-40.9c11.3-11.3,29.6-11.3,40.9,0c6,6,8.8,13.9,8.4,21.8
		C62.2,41.6,59.4,48.5,54.1,53.8z"/>
</g>
</svg>
