<?xml version="1.0" encoding="utf-8"?>
<!-- Roman Inozemtsev: https://github.com/mir-one/  -->
<svg version="1.1"
	 id="Слой_1" shape-rendering="geometricPrecision" text-rendering="geometricPrecision" image-rendering="optimizeQuality"
	 xmlns="http://www.w3.org/2000/svg" xmlns:xlink="http://www.w3.org/1999/xlink" x="0px" y="0px" viewBox="0 0 256.7 32.2"
	 style="enable-background:new 0 0 256.7 32.2;" xml:space="preserve">
<style type="text/css">
	.st0{fill:#2BB673;}
</style>
<g>
	<path class="st0" d="M29.1,12.8h-4.5v2.3h2c0.7,0,1.3,0.1,1.9,0.4c0.5,0.2,0.9,0.6,1.2,1c0.3,0.4,0.4,1,0.4,1.6
		c0,0.9-0.3,1.6-0.9,2.2c-0.6,0.5-1.5,0.8-2.5,0.8H23v-9.7h6.1V12.8z M24.7,16.5v3.3h2c0.6,0,1-0.2,1.3-0.5c0.3-0.3,0.5-0.7,0.5-1.2
		c0-0.5-0.2-0.9-0.5-1.2c-0.3-0.3-0.7-0.4-1.3-0.4H24.7z"/>
	<path class="st0" d="M37.5,14v7.2h-1.6v-5.9h-2l-0.1,2.5c-0.1,1.2-0.3,2.1-0.7,2.6c-0.4,0.5-1,0.8-1.7,0.8h-0.5l0-1.4l0.3,0
		c0.4,0,0.6-0.3,0.8-0.6c0.2-0.4,0.3-1.1,0.3-2.1l0.1-3.1H37.5z"/>
	<path class="st0" d="M39,17.5c0-0.7,0.1-1.3,0.4-1.9c0.3-0.6,0.7-1,1.2-1.3c0.5-0.3,1.1-0.5,1.7-0.5c1,0,1.8,0.3,2.4,0.9
		c0.6,0.6,0.9,1.5,1,2.5l0,0.4c0,0.7-0.1,1.3-0.4,1.9c-0.3,0.6-0.7,1-1.2,1.3c-0.5,0.3-1.1,0.5-1.8,0.5c-1,0-1.8-0.3-2.4-1
		S39,18.7,39,17.5L39,17.5z M40.6,17.6c0,0.7,0.2,1.3,0.5,1.7c0.3,0.4,0.7,0.6,1.3,0.6c0.5,0,1-0.2,1.3-0.6s0.5-1,0.5-1.9
		c0-0.7-0.2-1.3-0.5-1.7c-0.3-0.4-0.7-0.6-1.3-0.6c-0.5,0-0.9,0.2-1.3,0.6C40.7,16.2,40.6,16.8,40.6,17.6z"/>
	<path class="st0" d="M49.6,18.3h-0.8v2.8h-1.6V14h1.6v2.9h0.7l2-2.9h2l-2.6,3.4l2.8,3.8h-2.1L49.6,18.3z"/>
	<path class="st0" d="M60.3,21.1h-1.6v-2.4c-0.4,0.1-0.9,0.1-1.3,0.1c-1,0-1.7-0.2-2.3-0.7c-0.5-0.5-0.8-1.1-0.8-2v-2.2H56v2.2
		c0,0.5,0.1,0.9,0.3,1.1c0.2,0.2,0.6,0.3,1.1,0.3c0.4,0,0.9-0.1,1.3-0.2V14h1.6V21.1z"/>
	<path class="st0" d="M65.2,21.3c-1,0-1.9-0.3-2.5-1c-0.6-0.6-1-1.5-1-2.6v-0.2c0-0.7,0.1-1.4,0.4-1.9s0.7-1,1.2-1.3
		c0.5-0.3,1.1-0.5,1.7-0.5c1,0,1.7,0.3,2.3,0.9c0.5,0.6,0.8,1.5,0.8,2.7v0.7h-4.7c0,0.6,0.2,1.1,0.6,1.4c0.3,0.3,0.8,0.5,1.3,0.5
		c0.7,0,1.3-0.3,1.8-0.9l0.9,0.8c-0.3,0.4-0.7,0.8-1.2,1S65.8,21.3,65.2,21.3z M65,15.1c-0.4,0-0.8,0.2-1.1,0.5
		c-0.3,0.3-0.4,0.7-0.5,1.3h3.1v-0.1c0-0.5-0.2-0.9-0.4-1.2C65.8,15.3,65.5,15.1,65,15.1z"/>
	<path class="st0" d="M73.8,14h1.6v7.2h-1.6v-4.8L71,21.1h-1.6V14H71v4.8L73.8,14z M74.6,11.2c0,0.6-0.2,1-0.6,1.4
		c-0.4,0.3-0.9,0.5-1.6,0.5c-0.7,0-1.2-0.2-1.6-0.5s-0.6-0.8-0.6-1.4h1.2c0,0.3,0.1,0.5,0.2,0.7c0.2,0.2,0.4,0.2,0.7,0.2
		s0.5-0.1,0.7-0.2s0.2-0.4,0.2-0.7H74.6z"/>
	<path class="st0" d="M83.3,21.1h-1.6v-2.9h-2.8v2.9h-1.6V14h1.6v3h2.8v-3h1.6V21.1z"/>
	<path class="st0" d="M90.9,15.1c-0.4,0-0.7,0.1-1,0.3c-0.3,0.2-0.4,0.5-0.4,0.9h-1.5c0-0.4,0.1-0.9,0.4-1.2
		c0.3-0.4,0.6-0.7,1.1-0.9c0.4-0.2,0.9-0.3,1.4-0.3c1,0,1.8,0.3,2.4,1c0.6,0.7,0.9,1.6,0.9,2.7v0.2c0,0.7-0.1,1.3-0.4,1.9
		c-0.3,0.6-0.6,1-1.1,1.3c-0.5,0.3-1.1,0.5-1.7,0.5c-0.5,0-1-0.1-1.5-0.3c-0.4-0.2-0.8-0.5-1-1c-0.2-0.4-0.4-0.9-0.4-1.4h1.5
		c0,0.4,0.1,0.8,0.4,1s0.6,0.4,1,0.4c0.5,0,0.8-0.2,1.1-0.5c0.3-0.3,0.4-0.8,0.5-1.4h-2.3v-1.1h2.3c-0.1-0.6-0.2-1-0.5-1.4
		S91.4,15.1,90.9,15.1z"/>
	<path class="st0" d="M98.1,18.3h-0.8v2.8h-1.6V14h1.6v2.9H98l2-2.9h2l-2.6,3.4l2.8,3.8h-2.1L98.1,18.3z"/>
	<path class="st0" d="M102.4,17.5c0-0.7,0.1-1.3,0.4-1.9c0.3-0.6,0.7-1,1.2-1.3c0.5-0.3,1.1-0.5,1.7-0.5c1,0,1.8,0.3,2.4,0.9
		c0.6,0.6,0.9,1.5,1,2.5l0,0.4c0,0.7-0.1,1.3-0.4,1.9c-0.3,0.6-0.7,1-1.2,1.3c-0.5,0.3-1.1,0.5-1.8,0.5c-1,0-1.8-0.3-2.4-1
		S102.4,18.7,102.4,17.5L102.4,17.5z M104,17.6c0,0.7,0.2,1.3,0.5,1.7c0.3,0.4,0.7,0.6,1.3,0.6c0.5,0,1-0.2,1.3-0.6s0.5-1,0.5-1.9
		c0-0.7-0.2-1.3-0.5-1.7c-0.3-0.4-0.7-0.6-1.3-0.6c-0.5,0-0.9,0.2-1.3,0.6C104.2,16.2,104,16.8,104,17.6z"/>
	<path class="st0" d="M113.4,20c0.4,0,0.7-0.1,1-0.4c0.3-0.2,0.4-0.5,0.4-0.9h1.5c0,0.4-0.2,0.9-0.4,1.3c-0.3,0.4-0.6,0.7-1.1,0.9
		c-0.4,0.2-0.9,0.3-1.4,0.3c-1,0-1.8-0.3-2.4-1c-0.6-0.7-0.9-1.6-0.9-2.7v-0.2c0-1.1,0.3-2,0.9-2.6c0.6-0.7,1.4-1,2.4-1
		c0.9,0,1.6,0.2,2.1,0.7c0.5,0.5,0.8,1.2,0.8,2h-1.5c0-0.4-0.2-0.8-0.4-1c-0.3-0.3-0.6-0.4-1-0.4c-0.5,0-0.9,0.2-1.2,0.6
		s-0.4,1-0.4,1.7v0.3c0,0.8,0.1,1.4,0.4,1.7C112.5,19.8,112.9,20,113.4,20z"/>
	<path class="st0" d="M122.1,14h1.6v7.2h-1.6v-4.8l-2.8,4.8h-1.6V14h1.6v4.8L122.1,14z"/>
	<path class="st0" d="M128.4,20c0.4,0,0.7-0.1,1-0.4c0.3-0.2,0.4-0.5,0.4-0.9h1.5c0,0.4-0.2,0.9-0.4,1.3c-0.3,0.4-0.6,0.7-1.1,0.9
		c-0.4,0.2-0.9,0.3-1.4,0.3c-1,0-1.8-0.3-2.4-1c-0.6-0.7-0.9-1.6-0.9-2.7v-0.2c0-1.1,0.3-2,0.9-2.6c0.6-0.7,1.4-1,2.4-1
		c0.9,0,1.6,0.2,2.1,0.7c0.5,0.5,0.8,1.2,0.8,2h-1.5c0-0.4-0.2-0.8-0.4-1c-0.3-0.3-0.6-0.4-1-0.4c-0.5,0-0.9,0.2-1.2,0.6
		s-0.4,1-0.4,1.7v0.3c0,0.8,0.1,1.4,0.4,1.7C127.4,19.8,127.9,20,128.4,20z"/>
	<path class="st0" d="M138.2,15.2h-2.3v5.9h-1.6v-5.9H132V14h6.3V15.2z"/>
	<path class="st0" d="M142,21.3c-1,0-1.9-0.3-2.5-1c-0.6-0.6-1-1.5-1-2.6v-0.2c0-0.7,0.1-1.4,0.4-1.9c0.3-0.6,0.7-1,1.2-1.3
		c0.5-0.3,1.1-0.5,1.7-0.5c1,0,1.7,0.3,2.3,0.9c0.5,0.6,0.8,1.5,0.8,2.7v0.7h-4.7c0,0.6,0.2,1.1,0.6,1.4s0.8,0.5,1.3,0.5
		c0.7,0,1.3-0.3,1.8-0.9l0.9,0.8c-0.3,0.4-0.7,0.8-1.2,1C143.2,21.2,142.6,21.3,142,21.3z M141.8,15.1c-0.4,0-0.8,0.2-1.1,0.5
		c-0.3,0.3-0.4,0.7-0.5,1.3h3.1v-0.1c0-0.5-0.2-0.9-0.4-1.2C142.6,15.3,142.3,15.1,141.8,15.1z"/>
	<path class="st0" d="M150.4,19.2l2.1-5.2h2v7.2H153v-4.8l-2,4.8h-1.1l-2-4.8v4.8h-1.6V14h2L150.4,19.2z"/>
	<path class="st0" d="M160.7,21.1c-0.1-0.1-0.1-0.4-0.2-0.7c-0.5,0.5-1.1,0.8-1.9,0.8c-0.7,0-1.3-0.2-1.8-0.6
		c-0.5-0.4-0.7-0.9-0.7-1.5c0-0.8,0.3-1.4,0.9-1.8c0.6-0.4,1.4-0.6,2.4-0.6h1v-0.5c0-0.4-0.1-0.7-0.3-0.9c-0.2-0.2-0.5-0.3-1-0.3
		c-0.4,0-0.7,0.1-0.9,0.3c-0.2,0.2-0.4,0.4-0.4,0.7h-1.6c0-0.4,0.1-0.8,0.4-1.1c0.3-0.3,0.6-0.6,1.1-0.8c0.4-0.2,1-0.3,1.5-0.3
		c0.8,0,1.5,0.2,2,0.6s0.8,1,0.8,1.8v3.2c0,0.6,0.1,1.2,0.3,1.5v0.1H160.7z M158.9,20c0.3,0,0.6-0.1,0.9-0.2
		c0.3-0.2,0.5-0.4,0.6-0.6v-1.4h-0.9c-0.6,0-1,0.1-1.3,0.3c-0.3,0.2-0.5,0.5-0.5,0.9c0,0.3,0.1,0.6,0.3,0.7S158.6,20,158.9,20z"/>
	<path class="st0" d="M170.2,17H169v4.1h-1.7v-9.7h1.7v4.1h0.9l2.8-4.1h2.1l-3.3,4.6l3.6,5h-2L170.2,17z"/>
	<path class="st0" d="M175.5,17.5c0-0.7,0.1-1.3,0.4-1.9s0.7-1,1.2-1.3c0.5-0.3,1.1-0.5,1.7-0.5c1,0,1.8,0.3,2.4,0.9
		c0.6,0.6,0.9,1.5,1,2.5l0,0.4c0,0.7-0.1,1.3-0.4,1.9s-0.7,1-1.2,1.3c-0.5,0.3-1.1,0.5-1.8,0.5c-1,0-1.8-0.3-2.4-1
		S175.5,18.7,175.5,17.5L175.5,17.5z M177.1,17.6c0,0.7,0.2,1.3,0.5,1.7s0.7,0.6,1.3,0.6s1-0.2,1.3-0.6c0.3-0.4,0.5-1,0.5-1.9
		c0-0.7-0.2-1.3-0.5-1.7c-0.3-0.4-0.7-0.6-1.3-0.6c-0.5,0-0.9,0.2-1.3,0.6C177.2,16.2,177.1,16.8,177.1,17.6z"/>
	<path class="st0" d="M189.5,14v7.2h-1.6v-5.9h-2l-0.1,2.5c-0.1,1.2-0.3,2.1-0.7,2.6s-1,0.8-1.7,0.8h-0.5l0-1.4l0.3,0
		c0.4,0,0.6-0.3,0.8-0.6s0.3-1.1,0.3-2.1l0.1-3.1H189.5z"/>
	<path class="st0" d="M195.7,14h1.6v7.2h-1.6v-4.8l-2.8,4.8h-1.6V14h1.6v4.8L195.7,14z"/>
	<path class="st0" d="M198.7,17.5c0-0.7,0.1-1.3,0.4-1.9s0.7-1,1.2-1.3c0.5-0.3,1.1-0.5,1.7-0.5c1,0,1.8,0.3,2.4,0.9
		c0.6,0.6,0.9,1.5,1,2.5l0,0.4c0,0.7-0.1,1.3-0.4,1.9s-0.7,1-1.2,1.3c-0.5,0.3-1.1,0.5-1.8,0.5c-1,0-1.8-0.3-2.4-1
		S198.7,18.7,198.7,17.5L198.7,17.5z M200.4,17.6c0,0.7,0.2,1.3,0.5,1.7s0.7,0.6,1.3,0.6s1-0.2,1.3-0.6c0.3-0.4,0.5-1,0.5-1.9
		c0-0.7-0.2-1.3-0.5-1.7c-0.3-0.4-0.7-0.6-1.3-0.6c-0.5,0-0.9,0.2-1.3,0.6C200.5,16.2,200.4,16.8,200.4,17.6z"/>
	<path class="st0" d="M212.9,21.1h-1.6v-2.9h-2.8v2.9h-1.6V14h1.6v3h2.8v-3h1.6V21.1z"/>
	<path class="st0" d="M214.3,17.5c0-0.7,0.1-1.3,0.4-1.9s0.7-1,1.2-1.3c0.5-0.3,1.1-0.5,1.7-0.5c1,0,1.8,0.3,2.4,0.9
		c0.6,0.6,0.9,1.5,1,2.5l0,0.4c0,0.7-0.1,1.3-0.4,1.9s-0.7,1-1.2,1.3c-0.5,0.3-1.1,0.5-1.8,0.5c-1,0-1.8-0.3-2.4-1
		S214.3,18.7,214.3,17.5L214.3,17.5z M215.9,17.6c0,0.7,0.2,1.3,0.5,1.7s0.7,0.6,1.3,0.6s1-0.2,1.3-0.6c0.3-0.4,0.5-1,0.5-1.9
		c0-0.7-0.2-1.3-0.5-1.7c-0.3-0.4-0.7-0.6-1.3-0.6c-0.5,0-0.9,0.2-1.3,0.6C216.1,16.2,215.9,16.8,215.9,17.6z"/>
	<path class="st0" d="M222.5,21.1V14h2.9c1,0,1.7,0.2,2.2,0.5c0.5,0.3,0.8,0.8,0.8,1.5c0,0.3-0.1,0.6-0.3,0.9s-0.5,0.5-0.9,0.6
		c0.5,0.1,0.8,0.3,1.1,0.6c0.3,0.3,0.4,0.6,0.4,1c0,0.7-0.2,1.2-0.7,1.5c-0.5,0.4-1.2,0.5-2.1,0.5H222.5z M224.1,16.9h1.3
		c0.9,0,1.4-0.3,1.4-0.8c0-0.6-0.4-0.9-1.3-0.9h-1.4V16.9z M224.1,18.1v1.8h1.8c0.8,0,1.2-0.3,1.2-0.9c0-0.6-0.4-0.9-1.3-0.9H224.1z
		"/>
	<path class="st0" d="M229.8,17.5c0-0.7,0.1-1.3,0.4-1.9s0.7-1,1.2-1.3c0.5-0.3,1.1-0.5,1.7-0.5c1,0,1.8,0.3,2.4,0.9
		c0.6,0.6,0.9,1.5,1,2.5l0,0.4c0,0.7-0.1,1.3-0.4,1.9s-0.7,1-1.2,1.3c-0.5,0.3-1.1,0.5-1.8,0.5c-1,0-1.8-0.3-2.4-1
		S229.8,18.7,229.8,17.5L229.8,17.5z M231.4,17.6c0,0.7,0.2,1.3,0.5,1.7s0.7,0.6,1.3,0.6s1-0.2,1.3-0.6c0.3-0.4,0.5-1,0.5-1.9
		c0-0.7-0.2-1.3-0.5-1.7c-0.3-0.4-0.7-0.6-1.3-0.6c-0.5,0-0.9,0.2-1.3,0.6C231.6,16.2,231.4,16.8,231.4,17.6z"/>
</g>
</svg>
