<?xml version="1.0" encoding="utf-8"?>
<!-- Roman Inozemtsev: https://github.com/mir-one/  -->
<svg version="1.1"
	 id="Слой_1" shape-rendering="geometricPrecision" text-rendering="geometricPrecision" image-rendering="optimizeQuality"
	 xmlns="http://www.w3.org/2000/svg" xmlns:xlink="http://www.w3.org/1999/xlink" x="0px" y="0px" viewBox="0 0 24 24"
	 style="enable-background:new 0 0 24 24;" xml:space="preserve">
<style type="text/css">
	.st0{fill:#332C6C;}
</style>
<g id="Layer_x0020_1">
	<g id="_1110126368">
		<g id="_874318544">
			<path class="st0" d="M12,24c6.6,0,12-5.4,12-12S18.6,0,12,0S0,5.4,0,12S5.4,24,12,24z M12,1.9c5.6,0,10.1,4.5,10.1,10.1
				S17.6,22.1,12,22.1S1.9,17.6,1.9,12S6.4,1.9,12,1.9z"/>
			<circle class="st0" cx="12" cy="6.4" r="3"/>
			<path class="st0" d="M13.7,19.4c1.4-0.7,5.1-9.3,0-9.3h-3.4c-5.1,0-1.4,8.6,0,9.3C11.4,19.7,12.5,19.7,13.7,19.4z M16.9,4.8
				c1.4,0,2.6,1.2,2.6,2.6S18.3,10,16.9,10c-1,0-1.9-0.6-2.3-1.4c0.6-0.5,1-1.3,1-2.2c0-0.4-0.1-0.7-0.2-1.1
				C15.7,5,16.3,4.8,16.9,4.8z"/>
			<path class="st0" d="M18.4,18.8c1.2-0.6,4.4-8.2,0-8.2h-2.3c1.8,1.6,0.3,5.9-1,7.9c0.1,0.1,0.2,0.2,0.3,0.3
				C16.4,19,17.3,19,18.4,18.8z"/>
			<g>
				<path class="st0" d="M7.1,4.8C5.7,4.8,4.5,6,4.5,7.4S5.7,10,7.1,10c1,0,1.9-0.6,2.3-1.4c-0.6-0.5-1-1.3-1-2.2
					c0-0.4,0.1-0.7,0.2-1.1C8.3,5,7.7,4.8,7.1,4.8z M5.6,18.8c-1.2-0.6-4.4-8.2,0-8.2h2.3c-1.8,1.6-0.3,5.9,1,7.9
					c-0.1,0.1-0.2,0.2-0.3,0.3C7.6,19,6.7,19,5.6,18.8z"/>
			</g>
		</g>
	</g>
</g>
</svg>
