<?xml version="1.0" encoding="utf-8"?>
<!-- Roman Inozemtsev: https://github.com/mir-one/  -->
<svg version="1.1"
	 id="Слой_1" shape-rendering="geometricPrecision" text-rendering="geometricPrecision" image-rendering="optimizeQuality"
	 xmlns="http://www.w3.org/2000/svg" xmlns:xlink="http://www.w3.org/1999/xlink" x="0px" y="0px" viewBox="0 0 292 42.3"
	 style="enable-background:new 0 0 292 42.3;" xml:space="preserve">
<style type="text/css">
	.st0{fill:#2BB673;}
</style>
<g>
	<path class="st0" d="M11.9,24.1l-4.3,4.6v11.8H1v-38h6.6v17.8l3.6-4.5L22.4,2.5h8L16.2,19.3l14.9,21.1h-7.8L11.9,24.1z"/>
	<path class="st0" d="M64.1,22.5c0,3.7-0.6,7-1.9,9.8c-1.3,2.8-3.1,5-5.5,6.5s-5.1,2.3-8.3,2.3c-3.1,0-5.8-0.8-8.2-2.3
		s-4.3-3.6-5.6-6.4c-1.3-2.8-2-6-2-9.6v-2.1c0-3.7,0.7-7,2-9.8s3.2-5,5.6-6.5C42.6,2.8,45.3,2,48.4,2c3.1,0,5.8,0.7,8.2,2.2
		s4.2,3.6,5.5,6.4s2,6,2,9.7C64.1,20.3,64.1,22.5,64.1,22.5z M57.5,20.5c0-4.2-0.8-7.4-2.4-9.7s-3.8-3.4-6.8-3.4
		c-2.9,0-5.1,1.1-6.7,3.4c-1.6,2.2-2.4,5.4-2.5,9.5v2.2c0,4.2,0.8,7.4,2.4,9.7c1.6,2.3,3.9,3.4,6.8,3.4c2.9,0,5.2-1.1,6.7-3.3
		c1.6-2.2,2.4-5.5,2.4-9.8L57.5,20.5L57.5,20.5z"/>
	<path class="st0" d="M77.3,35.2h17.2v5.3H70.7v-38h6.6C77.3,2.5,77.3,35.2,77.3,35.2z"/>
	<path class="st0" d="M106.6,40.5H100v-38h6.6V40.5z"/>
	<path class="st0" d="M145,22.5c0,3.7-0.6,7-1.9,9.8c-1.3,2.8-3.1,5-5.5,6.5s-5.1,2.3-8.3,2.3c-3.1,0-5.8-0.8-8.2-2.3
		c-2.4-1.5-4.3-3.6-5.6-6.4c-1.3-2.8-2-6-2-9.6v-2.1c0-3.7,0.7-7,2-9.8s3.2-5,5.6-6.5s5.1-2.3,8.2-2.3c3.1,0,5.8,0.7,8.2,2.2
		s4.2,3.6,5.5,6.4s2,6,2,9.7V22.5z M138.4,20.5c0-4.2-0.8-7.4-2.4-9.7s-3.8-3.4-6.8-3.4c-2.9,0-5.1,1.1-6.7,3.4
		c-1.6,2.2-2.4,5.4-2.5,9.5v2.2c0,4.2,0.8,7.4,2.4,9.7s3.9,3.4,6.8,3.4s5.2-1.1,6.7-3.3c1.6-2.2,2.4-5.5,2.4-9.8v-2H138.4z"/>
	<path class="st0" d="M181.6,40.5H175l-16.9-26.9v26.9h-6.6v-38h6.6l17,27v-27h6.5V40.5z"/>
	<path class="st0" d="M219.7,22.5c0,3.7-0.6,7-1.9,9.8c-1.3,2.8-3.1,5-5.5,6.5s-5.1,2.3-8.3,2.3c-3.1,0-5.8-0.8-8.2-2.3
		s-4.3-3.6-5.6-6.4c-1.3-2.8-2-6-2-9.6v-2.1c0-3.7,0.7-7,2-9.8s3.2-5,5.6-6.5c2.4-1.5,5.1-2.3,8.2-2.3s5.8,0.7,8.2,2.2
		s4.2,3.6,5.5,6.4s2,6,2,9.7V22.5z M213.1,20.5c0-4.2-0.8-7.4-2.4-9.7s-3.8-3.4-6.8-3.4c-2.8,0-5.1,1.1-6.7,3.4
		c-1.6,2.2-2.4,5.4-2.5,9.5v2.2c0,4.2,0.8,7.4,2.4,9.7c1.6,2.3,3.9,3.4,6.8,3.4c2.9,0,5.2-1.1,6.7-3.3c1.6-2.2,2.4-5.5,2.4-9.8v-2
		H213.1z"/>
	<path class="st0" d="M239.1,32.2l9.6-29.7h7.2l-13.7,38h-6.4l-13.6-38h7.2L239.1,32.2z"/>
	<path class="st0" d="M290.2,22.5c0,3.7-0.6,7-1.9,9.8s-3.1,5-5.5,6.5s-5.1,2.3-8.3,2.3c-3.1,0-5.8-0.8-8.2-2.3
		c-2.4-1.5-4.3-3.6-5.6-6.4c-1.3-2.8-2-6-2-9.6v-2.1c0-3.7,0.7-7,2-9.8s3.2-5,5.6-6.5s5.1-2.3,8.2-2.3s5.8,0.7,8.2,2.2
		c2.4,1.5,4.2,3.6,5.5,6.4s2,6,2,9.7L290.2,22.5L290.2,22.5z M283.6,20.5c0-4.2-0.8-7.4-2.4-9.7s-3.8-3.4-6.8-3.4
		c-2.8,0-5.1,1.1-6.7,3.4c-1.6,2.2-2.4,5.4-2.5,9.5v2.2c0,4.2,0.8,7.4,2.4,9.7s3.9,3.4,6.8,3.4s5.2-1.1,6.7-3.3
		c1.6-2.2,2.4-5.5,2.4-9.8v-2H283.6z"/>
</g>
</svg>
