<?xml version="1.0" encoding="utf-8"?>
<!-- Roman Inozemtsev: https://github.com/mir-one/  -->
<svg version="1.1" id="Слой_1" xmlns="http://www.w3.org/2000/svg" xmlns:xlink="http://www.w3.org/1999/xlink" x="0px" y="0px"
	 viewBox="0 0 67 67" style="enable-background:new 0 0 67 67;" xml:space="preserve">
<style type="text/css">
	.st0{fill:#29B473;}
	.st1{fill:#006838;}
	.st2{fill:#FFFFFF;}
</style>
<path class="st0" d="M26.2,16.5h6.3l10,10.3l1.7-1.5l20.6,20.4c1.5-3.8,2.3-7.9,2.3-12.2C67,15,52,0,33.5,0S0,15,0,33.5
	S15,67,33.5,67c3,0,6-0.4,8.8-1.2L26.2,49.7V16.5z"/>
<path class="st1" d="M64.7,45.7L44.1,25.3l-1.7,1.5l-10-10.3h-6.3v33.2l16.1,16.1C52.5,63.1,60.9,55.5,64.7,45.7z"/>
<polygon class="st2" points="37.2,35.5 44.1,25.3 37.8,25.3 37.8,25.4 32.5,32.4 32.5,16.5 21.5,16.5 21.5,22.9 26.2,22.9 
	26.2,49.7 32.5,49.7 32.5,40.6 37.8,49.7 45.5,49.7 "/>
<path class="st2" d="M33.5,2.8c-17,0-30.7,13.7-30.7,30.7s13.7,30.7,30.7,30.7s30.7-13.7,30.7-30.7S50.5,2.8,33.5,2.8z M33.5,57.5
	c-13.2,0-24-10.7-24-24s10.7-24,24-24s24,10.7,24,24S46.7,57.5,33.5,57.5z"/>
<g>
	<rect x="40" y="33.9" class="st2" width="10.3" height="3.4"/>
	<rect x="43.6" y="30.4" class="st2" width="3.4" height="10.3"/>
</g>
</svg>
