<?xml version="1.0" encoding="utf-8"?>
<!-- Roman Inozemtsev: https://github.com/mir-one/  -->
<svg version="1.1" id="Слой_1" xmlns="http://www.w3.org/2000/svg" xmlns:xlink="http://www.w3.org/1999/xlink" x="0px" y="0px"
	 viewBox="0 0 67 67" style="enable-background:new 0 0 67 67;" xml:space="preserve">
<style type="text/css">
	.st0{fill:#FFFFFF;}
	.st1{fill:#69174A;}
	.st2{fill:#C1D9C8;}
	.st3{fill:#176937;}
</style>
<path class="st0" d="M33.5,2.6C16.4,2.6,2.6,16.4,2.6,33.5c0,17.1,13.9,30.9,30.9,30.9c0.3,0,0.7,0,1-0.1
	c15.6-0.5,28.2-12.5,29.8-27.7c0.1-1,0.2-2.1,0.2-3.2C64.4,16.4,50.6,2.6,33.5,2.6z M54,54c-5.9,5.9-13.7,8.7-21.4,8.5
	c-7.1-0.2-14.2-3-19.6-8.5C1.7,42.7,1.7,24.3,13,13C24.3,1.7,42.7,1.7,54,13c6,6,8.8,14,8.4,21.8C62.1,41.8,59.3,48.7,54,54z"/>
<path class="st1" d="M33.5,0C15,0,0,15,0,33.5S15,67,33.5,67c1.2,0,2.3-0.1,3.4-0.2C52,65.3,64.1,53.7,66.5,38.9
	c0.3-1.8,0.5-3.5,0.5-5.4C67,15,52,0,33.5,0z M34.5,64.4c-0.3,0-0.7,0.1-1,0.1c-17.1,0-30.9-13.9-30.9-30.9
	c0-17.1,13.9-30.9,30.9-30.9c17.1,0,30.9,13.9,30.9,30.9c0,1.1-0.1,2.1-0.2,3.2C62.7,51.9,50.1,63.9,34.5,64.4z"/>
<path class="st1" d="M54,13C42.7,1.7,24.3,1.7,13,13C1.7,24.3,1.7,42.7,13,54c5.4,5.4,12.5,8.2,19.6,8.5c7.7,0.2,15.5-2.6,21.4-8.5
	c5.3-5.3,8.1-12.2,8.4-19.2C62.8,27,60,19,54,13z"/>
<path class="st2" d="M27.3,15.5c0.5,0,1,0,1.5,0c0.1,0,0.2,0,0.2-0.2c0-0.1-0.1-0.2-0.1-0.3c-0.1-0.1-0.2-0.3-0.1-0.4
	c0.1-0.1,0.3-0.2,0.6-0.1c0.3,0.1,0.6,0.4,0.6,0.7c0.1,0.4,0.4,0.5,0.7,0.6c1,0.1,1.9,0.4,2.9,0.7c0.4,0.1,0.8,0.3,1.1,0.6
	c0.2,0.2,0.4,0.4,0.5,0.7c0.1,0.2,0,0.4-0.2,0.4c-0.4,0-0.8-0.1-1.2-0.2c-0.5-0.2-1.1-0.3-1.7-0.4c-0.6-0.1-1.2-0.1-1.7-0.1
	c-0.1,0-0.2,0-0.2,0.2c-0.1,1-0.2,1.9-0.4,2.9c-0.3,1.5-0.7,2.9-1.2,4.3c-0.3,0.7-0.6,1.4-0.9,2.1c-0.3,0.7-0.6,1.4-0.9,2.1
	c-0.3,0.8-0.7,1.7-1,2.5c-0.2,0.6-0.5,1.3-0.7,1.9c-0.3,0.7-0.5,1.5-0.7,2.3c-0.2,0.8-0.4,1.6-0.5,2.4c0,0.4-0.1,0.7-0.1,1.1
	c0,0.5,0.1,0.9,0.4,1.3c0.3,0.4,0.7,0.6,1.1,0.6c0.9,0.1,1.8-0.3,2.6-0.6c0.5-0.2,1.1-0.5,1.6-0.9c0.5-0.3,1-0.7,1.4-1
	c0.8-0.5,1.5-1.1,2.2-1.7c0.6-0.5,1.1-1,1.6-1.6c0.5-0.6,1-1.1,1.5-1.7c0.6-0.7,1.1-1.3,1.6-2c0.4-0.5,0.8-1,1.1-1.6
	c0.2-0.3,0.4-0.6,0.6-0.9c0.3-0.4,0.6-0.9,0.9-1.3c0.5-0.8,1-1.7,1.5-2.5c0.7-1.1,1.3-2.2,2-3.2c0.4-0.6,0.8-1.2,1.2-1.8
	c0.5-0.8,1.1-1.5,1.6-2.2c0.6-0.8,1.2-1.5,2-2.1c0.8-0.6,1.7-1,2.6-1.3c0.8-0.2,1.5-0.2,2.3,0.1c0.2,0.1,0.3,0.2,0.4,0.3
	c0.1,0.1,0.1,0.1,0.1,0.2c0,0.1-0.1,0.1-0.2,0.1c-0.2,0-0.4,0-0.6,0c-0.6,0.1-1,0.4-1.5,0.7c-0.5,0.4-1,0.9-1.4,1.3
	c-0.4,0.5-0.9,1-1.3,1.5c-0.4,0.5-0.9,1.1-1.3,1.6c-0.5,0.6-1,1.3-1.5,1.9c-0.3,0.4-0.6,0.8-0.9,1.2c-0.5,0.7-1,1.4-1.6,2.1
	c-0.3,0.4-0.6,0.8-0.9,1.2c-0.3,0.5-0.7,0.9-1,1.4c-0.3,0.4-0.6,0.8-0.9,1.2c-0.4,0.5-0.8,1-1.2,1.5c-0.4,0.5-0.8,0.9-1.2,1.4
	c-0.3,0.4-0.7,0.8-1,1.1c-0.8,0.9-1.5,1.7-2.3,2.5c-0.6,0.6-1.1,1.1-1.7,1.7c-0.7,0.7-1.5,1.3-2.2,1.9c-0.4,0.3-0.9,0.6-1.4,0.9
	c-0.7,0.4-1.4,0.8-2.2,1.1c-0.5,0.2-1,0.3-1.5,0.4c-0.7,0.1-1.3,0.2-2,0.2c-0.7,0-1.4-0.1-2.1-0.5c-0.5-0.3-0.9-0.8-1.1-1.4
	C21,39.6,21,39,21.1,38.3c0.1-0.7,0.3-1.3,0.5-2c0.3-0.8,0.5-1.7,0.9-2.5c0.4-0.9,0.7-1.8,1.1-2.7c0.2-0.6,0.5-1.2,0.7-1.7
	c0.2-0.5,0.4-0.9,0.6-1.4c0.2-0.5,0.4-0.9,0.6-1.4c0.3-0.6,0.5-1.2,0.8-1.8c0.4-1,0.8-2.1,1.2-3.1c0.2-0.5,0.4-0.9,0.5-1.3
	c0.2-0.6,0.5-1.3,0.6-1.9c0.1-0.3,0.2-0.6,0.2-0.9c0-0.1,0-0.2-0.2-0.2c-0.7,0-1.4,0-2,0.1c-0.9,0.1-1.9,0.2-2.8,0.4
	c-0.9,0.2-1.8,0.5-2.7,0.8c-0.7,0.3-1.4,0.6-1.9,1.1c-0.6,0.6-1.1,1.2-1.2,2.1c-0.2,1,0.5,2,1.3,2.4c0.4,0.2,0.8,0.4,1.2,0.7
	c0,0,0,0,0,0c0.1,0.1,0.2,0.2,0.2,0.3c0,0.1-0.2,0.1-0.3,0.1c-0.8-0.2-1.4-0.6-2-1.1c-0.6-0.5-1-1-1.2-1.7C17.1,22,17,21.5,17,21
	c0-0.7,0.2-1.3,0.5-1.9c0.4-0.7,1-1.2,1.6-1.7c0.8-0.5,1.6-0.9,2.4-1.2c0.9-0.3,1.7-0.4,2.6-0.5c0.5-0.1,1-0.1,1.5-0.2
	C26.3,15.5,26.8,15.5,27.3,15.5z"/>
<path class="st3" d="M51,51c-0.2,0.6-0.7,0.9-1.3,0.9c-0.6,0-1.2,0-1.8,0c-0.7,0-1.2-0.5-1.2-1.2c0-0.5,0-1.1,0-1.6
	c0-0.7,0.5-1.2,1.2-1.2c0.9,0,1.9,0,2.8,0c0.2,0,0.2-0.1,0.2-0.2c0-0.3,0-0.6,0-0.9c0-0.1,0-0.2-0.2-0.2c-1.2,0-2.4,0-3.5,0
	c-0.2,0-0.2,0-0.2-0.2c0-0.3,0-0.6,0-0.9c0-0.1,0-0.1,0.1-0.1c1.3,0,2.6,0,3.9,0c0.5,0,1,0.5,1.1,1c0,0.1,0,0.2,0,0.3
	c0,1.7,0,3.3,0,5c0,0.2,0,0.2-0.2,0.2c-0.3,0-0.6,0-0.9,0c-0.1,0-0.2,0-0.1-0.2C51,51.5,51,51.3,51,51z M49.4,49.1
	C49.4,49.1,49.4,49.1,49.4,49.1c-0.5,0-0.9,0-1.4,0c-0.1,0-0.1,0-0.1,0.1c0,0.4,0,0.9,0,1.3c0,0.1,0,0.2,0.2,0.2c0.9,0,1.9,0,2.8,0
	c0.1,0,0.2,0,0.2-0.1c0-0.4,0-0.9,0-1.3c0-0.2-0.1-0.2-0.2-0.2C50.3,49.1,49.9,49.1,49.4,49.1z"/>
<path class="st3" d="M36.6,51.1c-0.1,0.3-0.3,0.5-0.6,0.7c-0.2,0.1-0.4,0.2-0.6,0.2c-0.6,0-1.2,0-1.8,0c-0.7,0-1.2-0.5-1.2-1.2
	c0-0.5,0-1,0-1.6c0-0.7,0.5-1.2,1.3-1.2c0.9,0,1.9,0,2.8,0c0.2,0,0.2,0,0.2-0.2c0-0.3,0-0.6,0-0.9c0-0.2,0-0.2-0.2-0.2
	c-1.2,0-2.3,0-3.5,0c-0.2,0-0.2-0.1-0.2-0.2c0-0.3,0-0.5,0-0.8c0-0.1,0-0.2,0.1-0.2c1.3,0,2.5,0,3.8,0c0.7,0,1.2,0.5,1.2,1.2
	c0,1.7,0,3.4,0,5.2c0,0.1,0,0.2-0.1,0.2c-0.3,0-0.6,0-0.9,0c-0.1,0-0.2,0-0.1-0.2C36.6,51.6,36.6,51.3,36.6,51.1z M35.1,49.1
	C35.1,49.1,35.1,49.1,35.1,49.1c-0.5,0-0.9,0-1.4,0c-0.1,0-0.2,0-0.2,0.1c0,0.4,0,0.9,0,1.3c0,0.1,0,0.2,0.2,0.2c0.9,0,1.8,0,2.8,0
	c0.1,0,0.2-0.1,0.2-0.2c0-0.4,0-0.9,0-1.3c0-0.1-0.1-0.2-0.2-0.2C36,49.1,35.5,49.1,35.1,49.1z"/>
<path class="st3" d="M21.3,47.4c-0.1,0-0.1,0.1-0.1,0.1c-0.9,1.2-1.8,2.4-2.9,3.5c-0.6,0.6-1.3,1.3-2.2,1.6
	c-0.4,0.2-0.9,0.2-1.3,0.1c-0.5-0.1-0.8-0.5-0.7-1c0.1-0.6,0.3-1.2,0.6-1.8c0.5-1.3,1.1-2.6,1.6-3.9c0,0,0-0.1,0-0.1
	c0.2-0.5,0.2-0.5-0.4-0.5c-0.8,0.1-1.5,0.2-2.2,0.6c-0.2,0.1-0.4,0.3-0.5,0.5c-0.2,0.4-0.1,0.7,0.3,0.9c0.1,0.1,0.3,0.1,0.4,0.2
	c0,0,0.1,0,0.1,0.1c0,0.1-0.1,0-0.1,0c-0.3,0-0.9-0.5-0.9-0.9c-0.2-0.8,0.1-1.2,0.8-1.6c0.5-0.3,1.1-0.4,1.7-0.4c0.3,0,0.6,0,0.9,0
	c0.1,0,0.2,0,0.1-0.1c0-0.1-0.1-0.1,0-0.2c0.1,0,0.1,0,0.2,0c0,0,0.1,0.1,0.1,0.1c0.1,0.3,0.3,0.3,0.5,0.3c0.3,0.1,0.5,0.1,0.8,0.2
	c0,0,0.1,0,0.1,0c0.1,0.1,0.3,0.2,0.3,0.3c-0.1,0.1-0.3,0-0.4,0c-0.3-0.1-0.6-0.1-0.9-0.2c-0.1,0-0.2,0-0.2,0.1
	c-0.1,1-0.4,1.8-0.7,2.7c-0.4,1-0.8,2-1.1,3.1c0,0.2-0.1,0.5,0,0.7c0.1,0.3,0.2,0.5,0.6,0.4c0.5-0.1,0.8-0.3,1.2-0.5
	c1.2-0.8,2.1-1.8,2.9-3c0.6-0.9,1.1-1.8,1.7-2.7c0.1-0.2,0.1-0.4,0.1-0.6c0-0.2,0-0.3,0.2-0.2c0.2,0,0.4,0,0.5-0.2
	c0.4-0.4,0.9-0.7,1.5-0.7c0.1,0,0.2,0,0.4,0.1c0,0,0.1,0,0,0.1c0,0,0,0.1-0.1,0.1c-0.4,0-0.7,0.3-0.9,0.5c-0.3,0.3-0.4,0.7-0.4,1.1
	c0,1.8,0,3.6,0,5.4c0,0.1,0,0.2-0.2,0.2c-0.3,0-0.6,0-0.8,0c-0.1,0-0.2,0-0.2-0.2c0-1.4,0-2.7,0-4.1C21.3,47.6,21.3,47.5,21.3,47.4z
	"/>
<path class="st3" d="M25.8,46.3c0.1-0.1,0.2-0.3,0.3-0.4c0.2-0.3,0.5-0.4,0.9-0.5c0.7,0,1.5,0,2.2,0c0.7,0,1.2,0.5,1.2,1.2
	c0,1.7,0,3.4,0,5.2c0,0.1,0,0.2-0.2,0.2c-0.3,0-0.5,0-0.8,0c-0.2,0-0.3,0-0.3-0.3c0-1.6,0-3.1,0-4.7c0-0.3,0-0.3-0.3-0.3
	c-0.9,0-1.9,0-2.8,0c-0.2,0-0.2,0-0.2,0.2c0,1.6,0,3.2,0,4.9c0,0.2,0,0.3-0.3,0.2c-0.3,0-0.5,0-0.8,0c-0.1,0-0.2,0-0.2-0.2
	c0-0.7,0-1.3,0-2c0-1.4,0-2.8,0-4.2c0-0.2,0-0.2,0.2-0.2c0.3,0,0.6,0,0.9,0c0.1,0,0.2,0,0.2,0.2C25.8,45.8,25.8,46.1,25.8,46.3z"/>
<path class="st3" d="M42.3,49.9c0.2-0.4,0.3-0.7,0.4-1c0.5-1.1,0.9-2.2,1.4-3.3c0-0.1,0.1-0.2,0.2-0.2c0.4,0,0.7,0,1.1,0
	c0,0.2-0.1,0.4-0.2,0.5c-1,2.4-2.1,4.8-3.1,7.2c-0.2,0.4-0.4,0.9-0.5,1.3c0,0.1-0.1,0.1-0.2,0.1c-0.4,0-0.7,0-1.1,0
	c0.2-0.4,0.3-0.8,0.5-1.2c0.3-0.6,0.5-1.2,0.8-1.8c0.1-0.2,0-0.3,0-0.4c-0.8-1.8-1.6-3.7-2.4-5.5c0,0,0-0.1,0-0.1c0.4,0,0.8,0,1.2,0
	c0.1,0,0.1,0.1,0.1,0.1c0.6,1.4,1.2,2.8,1.8,4.1C42.2,49.8,42.2,49.8,42.3,49.9z"/>
<path class="st3" d="M21.9,42.9c0.2,0,0.5-0.1,0.6,0c0.1,0.1,0,0.4,0,0.6c0,0.2,0,0.3,0,0.5c0,0.1,0,0.1-0.1,0.1c-0.4,0-0.7,0-1.1,0
	c-0.1,0-0.1,0-0.1-0.1c0-0.3,0-0.7,0-1c0-0.1,0-0.1,0.1-0.1C21.5,42.9,21.7,42.9,21.9,42.9z"/>
</svg>
