<?xml version="1.0" encoding="utf-8"?>
<!-- Roman Inozemtsev: https://github.com/mir-one/  -->
<svg version="1.1" id="Слой_1" xmlns="http://www.w3.org/2000/svg" xmlns:xlink="http://www.w3.org/1999/xlink" x="0px" y="0px"
	 viewBox="0 0 67 67" style="enable-background:new 0 0 67 67;" xml:space="preserve">
<style type="text/css">
	.st0{fill:#1F5E2F;}
	.st1{fill:#EC9E21;stroke:#1D3B1B;stroke-width:3;stroke-miterlimit:10;}
	.st2{fill:#1D3B1B;}
	.st3{fill:#0F9046;}
	.st4{fill:none;}
	.st5{fill:none;stroke:#1D3B1B;stroke-width:2;stroke-miterlimit:10;}
	.st6{fill:#FFFFFF;}
</style>
<g>
	<circle class="st0" cx="33.6" cy="33.4" r="33.4"/>
	<path class="st1" d="M56.8,33.4c0,2.3-0.4,4.6-1,6.8c-2.9,9.5-11.8,16.5-22.2,16.5s-19.4-6.9-22.2-16.5c-0.6-2.1-1-4.4-1-6.8
		c0-1.8,0.2-3.5,0.6-5.2c2.4-10.3,11.6-18,22.7-18c11.2,0,20.6,8,22.8,18.5l0,0C56.7,30.3,56.8,31.8,56.8,33.4z"/>
	<polygon class="st2" points="17.8,25.9 22.3,24.3 12,12.4 31.6,25.8 28.4,27.1 41.1,37.6 39.3,40 	"/>
	<polygon class="st3" points="19,18.6 28.6,25.5 25.5,26.7 40.1,38.7 21.1,26.3 24.9,25 	"/>
	<path class="st2" d="M35.6,14h-5c-0.1,0-0.2-0.1-0.2-0.2l0,0c0-0.8,0.7-1.5,1.5-1.5h2.3c0.8,0,1.5,0.7,1.5,1.5l0,0
		C35.8,13.9,35.7,14,35.6,14z"/>
	<path class="st2" d="M35.5,14.3h-4.8v-0.8c0-0.7,0.6-1.3,1.3-1.3h2.2c0.7,0,1.3,0.6,1.3,1.3V14.3z"/>
	<path class="st2" d="M37.9,27.4l-1.9-3.5c0.2-3.1-1.1-6.1-0.4-9.2c-1.5,0-3.1,0-4.6,0c0.6,3.2-0.7,6.3-0.4,9.4l-1.8,3.4
		c0,0,0,0,0,0l0,0V46c0,1,0.8,1.9,1.9,1.9H36c1,0,1.9-0.8,1.9-1.9L37.9,27.4L37.9,27.4C37.9,27.4,37.9,27.4,37.9,27.4z"/>
	<path class="st0" d="M30.5,47.4c-0.8,0-1.4-0.6-1.4-1.4V27.9h0l0-0.4l1.8-3.3l0-0.1c-0.1-1.4,0.1-2.7,0.3-4.2
		c0.2-1.5,0.4-3.2,0.2-4.8h3.6c-0.2,1.6,0,3.2,0.2,4.8c0.2,1.3,0.4,2.7,0.3,4l0.2,0.5l1.7,3.2l0,0.4h0V46c0,0.8-0.6,1.4-1.4,1.4
		L30.5,47.4L30.5,47.4z"/>
	<path class="st3" d="M30.5,46.8c-0.4,0-0.8-0.3-0.8-0.8V28.6h0.1l-0.1-0.9l1.8-3.4l0-0.3c-0.1-1.3,0.1-2.6,0.3-4
		c0.2-1.4,0.4-2.7,0.3-4.2h2.1c-0.1,1.4,0.1,2.8,0.3,4.2c0.2,1.3,0.4,2.6,0.3,3.8l0.5,1.2l1.5,2.7l-0.1,0.9h0.1V46
		c0,0.4-0.3,0.8-0.8,0.8L30.5,46.8L30.5,46.8z"/>
	<path class="st2" d="M35.6,14.7h-5.1c-0.1,0-0.3-0.1-0.3-0.3l0,0c0-0.1,0.1-0.3,0.3-0.3h5.1c0.1,0,0.3,0.1,0.3,0.3l0,0
		C35.9,14.5,35.8,14.7,35.6,14.7z"/>
	<path class="st2" d="M56.3,28.7L56.3,28.7c-0.4-0.3-0.8-0.5-1.3-0.5h-8.3v0.2c-0.3-0.1-0.6-0.2-0.9-0.2h-3.1
		c-0.6,0-1.1,0.2-1.5,0.7l0,0c-0.4-0.4-0.9-0.7-1.5-0.7h-3.1c-0.6,0-1.1,0.2-1.5,0.7l0,0c-0.4-0.4-0.9-0.7-1.5-0.7H16.1v0.2
		c-0.3-0.1-0.6-0.2-0.9-0.2h-4.3c-0.4,1.7-0.6,3.4-0.6,5.2c0,2.3,0.4,4.6,1,6.8h3.9c0.3,0,0.6-0.1,0.9-0.2v0.2h19.7V40
		c0.3,0.1,0.6,0.2,0.9,0.2h3.1c0.6,0,1.1-0.2,1.5-0.7c0.4,0.5,0.9,0.7,1.5,0.7h3.1c0.3,0,0.6-0.1,0.9-0.2v0.2h9.1
		c0.6-2.1,1-4.4,1-6.8C56.8,31.8,56.7,30.3,56.3,28.7z M40.6,34.3h-1.8v-0.3h1.8V34.3z"/>
	<polygon class="st2" points="34.3,42.2 36.8,41.3 34.1,39.1 40.6,37.8 46.2,42.5 44.6,43.2 54.3,52.3 	"/>
	<polygon class="st3" points="40.2,39.4 37.4,39.9 39.7,41.8 38.2,42.4 47.2,47.2 41.8,42.8 43.4,42.1 	"/>
	<g>
		<path class="st3" d="M15.5,34.2c0.2,0,0.4,0.1,0.5,0.3c0.1,0.2,0.2,0.4,0.2,0.6c0,0.6,0,1.5,0,2.6c0,0.2-0.1,0.4-0.2,0.6
			c-0.2,0.2-0.3,0.3-0.5,0.3c-0.5,0-1.3,0-2.3,0h-0.6c-0.5,0-0.9-0.4-0.9-0.9v-0.8c0-0.4,0-1,0-1.8c0-0.4,0-1,0-1.7
			c0-0.2,0-0.4,0-0.7s0-0.6,0-1v-0.8c0-0.5,0.4-0.9,0.9-0.9h0.6c0.5,0,1.3,0,2.3,0c0.2,0,0.4,0.1,0.5,0.2c0.1,0.2,0.2,0.4,0.2,0.6
			c0,0.6,0,1.5,0,2.6c0,0.2-0.1,0.4-0.2,0.6C15.9,34.1,15.7,34.2,15.5,34.2z M13.2,33.3c0.3,0,0.8,0,1.5,0c0-0.1,0-0.2,0-0.3
			c0-0.3,0-0.8,0-1.5c-0.3,0-0.8,0-1.5,0C13.2,32,13.2,32.6,13.2,33.3z M13.2,36.8c0.3,0,0.8,0,1.5,0c0-0.1,0-0.2,0-0.3
			c0-0.3,0-0.8,0-1.5c-0.3,0-0.8,0-1.5,0C13.2,35.5,13.2,36,13.2,36.8z"/>
		<path class="st3" d="M19.2,31.6v1.8h2.3v1.7h-2.3v1.8h3v0.7c0,0.6-0.5,1-1,1h-2h-0.7c-0.4,0-0.8-0.3-0.8-0.8v-0.2
			c0-0.3,0-0.5,0-0.7c0-0.9,0-1.5,0-1.8c0-0.9,0-1.5,0-1.7c0-0.9,0-1.5,0-1.8v-1c0-0.4,0.3-0.8,0.8-0.8h0.7h2c0.6,0,1,0.5,1,1v0.7
			L19.2,31.6L19.2,31.6z"/>
		<path class="st3" d="M25.3,31.6v1.8h2.3v1.7h-2.3v1.8h3v1c0,0.4-0.3,0.7-0.7,0.7h-2.3h-0.9c-0.3,0-0.6-0.3-0.6-0.6v-0.4
			c0-0.3,0-0.5,0-0.7c0-0.9,0-1.5,0-1.8c0-0.9,0-1.5,0-1.7c0-0.9,0-1.5,0-1.8v-1.2c0-0.3,0.3-0.6,0.6-0.6h0.9h2.3
			c0.4,0,0.7,0.3,0.7,0.7v1L25.3,31.6L25.3,31.6z"/>
		<path class="st3" d="M33.6,34.2c0.2,0,0.4,0.1,0.5,0.3c0.1,0.2,0.2,0.4,0.2,0.6c0,0.8,0,1.9,0,3.5c-0.3,0-0.8,0-1.5,0
			c0-0.8,0-1.9,0-3.5c-0.3,0-0.8,0-1.5,0c0,0.8,0,1.9,0,3.5c-0.3,0-0.8,0-1.5,0c0-0.8,0-1.9,0-3.5c0-0.4,0-1,0-1.7
			c0-0.4,0-0.9,0-1.5s0-1.3,0-2c0.3,0,0.8,0,1.5,0c0.5,0,1.3,0,2.3,0c0.2,0,0.4,0.1,0.5,0.2c0.1,0.2,0.2,0.4,0.2,0.6
			c0,0.6,0,1.5,0,2.6c0,0.2-0.1,0.4-0.2,0.6C34,34.1,33.8,34.2,33.6,34.2z M32.8,33.3c0-0.1,0-0.2,0-0.3c0-0.3,0-0.8,0-1.5
			c-0.3,0-0.8,0-1.5,0c0,0.4,0,1,0,1.8C31.6,33.3,32.2,33.3,32.8,33.3z"/>
		<path class="st3" d="M38.8,32.4c0-0.2,0-0.5,0-0.9c-0.3,0-0.8,0-1.5,0c0,1.2,0,2.9,0,5.3c0.3,0,0.8,0,1.5,0c0-0.2,0-0.5,0-0.9
			c0.3,0,0.8,0,1.5,0c0,0.4,0,1,0,1.7c0,0.2-0.1,0.4-0.2,0.6c-0.2,0.2-0.3,0.3-0.5,0.3c-0.7,0-1.7,0-3,0c-0.2,0-0.4-0.1-0.5-0.3
			c-0.2-0.2-0.2-0.4-0.2-0.6c0-0.6,0-1.5,0-2.6c0-0.5,0-1.1,0-1.8s0-1.6,0-2.6c0-0.2,0.1-0.4,0.2-0.6c0.1-0.2,0.3-0.2,0.5-0.2
			c0.7,0,1.7,0,3,0c0.2,0,0.4,0.1,0.5,0.2c0.1,0.2,0.2,0.4,0.2,0.6c0,0.4,0,1,0,1.8C40,32.4,39.5,32.4,38.8,32.4z"/>
		<path class="st3" d="M46.4,30.7c0,1.6,0,3.9,0,7c0,0.2-0.1,0.4-0.2,0.6c-0.2,0.2-0.3,0.3-0.5,0.3c-0.7,0-1.7,0-3,0
			c-0.2,0-0.4-0.1-0.5-0.3c-0.2-0.2-0.2-0.4-0.2-0.6c0-0.6,0-1.5,0-2.6c0-0.5,0-1.1,0-1.8s0-1.6,0-2.6c0-0.2,0.1-0.4,0.2-0.6
			c0.1-0.2,0.3-0.2,0.5-0.2c0.7,0,1.7,0,3,0c0.2,0,0.4,0.1,0.5,0.2C46.3,30.3,46.4,30.5,46.4,30.7z M43.4,36.8c0.3,0,0.8,0,1.5,0
			c0-0.1,0-0.2,0-0.3c0-1.1,0-2.7,0-4.9c-0.3,0-0.8,0-1.5,0c0,0.6,0,1.5,0,2.6C43.4,34.8,43.4,35.7,43.4,36.8z"/>
		<path class="st3" d="M47.9,29.8c0.2,0,0.8,0,1.5,0c0,1.1,0,3.3,0,6.5c0,0.4,0,1.1,0,2.2c-0.2,0-0.7,0-1.5,0c0-0.7,0-1.8,0-3.3
			C47.9,33.9,47.9,32,47.9,29.8z"/>
		<path class="st3" d="M55.4,30.7c0,1.8,0,4.4,0,7.9c-0.3,0-0.8,0-1.5,0c0-1.6,0-3.9,0-7c-0.3,0-0.8,0-1.5,0c0,1.6,0,3.9,0,7
			c-0.3,0-0.8,0-1.5,0c0-1,0-2.2,0-3.6c0-1.5,0-3.2,0-5.1c0.3,0,0.8,0,1.5,0c0.5,0,1.3,0,2.3,0c0.2,0,0.4,0.1,0.5,0.2
			C55.4,30.3,55.4,30.5,55.4,30.7z"/>
	</g>
	<path id="SVGID_x5F_1_x5F_" class="st4" d="M33.6,7.3C48,7.3,59.7,19,59.7,33.4S48,59.6,33.6,59.6S7.4,47.9,7.4,33.4
		S19.1,7.3,33.6,7.3z"/>
	<g>
		<g>
			<polyline class="st5" points="41.4,17.7 45.1,21.4 53.4,21.4 			"/>
			<g>
				<circle class="st2" cx="41.4" cy="17.7" r="0.7"/>
			</g>
		</g>
	</g>
	<g>
		<g>
			<polyline class="st5" points="55,24.6 44.7,24.6 42.4,22.2 			"/>
			<g>
				<circle class="st2" cx="42.4" cy="22.2" r="0.7"/>
			</g>
		</g>
	</g>
	<g>
		<g>
			<polyline class="st5" points="35.6,21.7 38.3,21.7 43.6,27 49.9,27 			"/>
			<g>
				<circle class="st2" cx="49.8" cy="27" r="0.7"/>
			</g>
		</g>
	</g>
	<g>
		<g>
			<line class="st5" x1="43" y1="14.6" x2="46.4" y2="18"/>
			<g>
				<circle class="st2" cx="43" cy="14.6" r="0.5"/>
			</g>
			<g>
				<circle class="st2" cx="46.4" cy="17.9" r="0.5"/>
			</g>
		</g>
	</g>
	<g>
		<g>
			<polyline class="st5" points="15,47.4 22.5,47.4 26.2,51 			"/>
			<g>
				<circle class="st2" cx="26.2" cy="51" r="0.7"/>
			</g>
		</g>
	</g>
	<g>
		<g>
			<polyline class="st5" points="12.9,44.1 22.8,44.1 25.2,46.5 			"/>
			<g>
				<circle class="st2" cx="25.2" cy="46.5" r="0.7"/>
			</g>
		</g>
	</g>
	<g>
		<g>
			<polyline class="st5" points="29.3,46.9 24,41.7 17.7,41.7 			"/>
			<g>
				<circle class="st2" cx="17.7" cy="41.7" r="0.7"/>
			</g>
		</g>
	</g>
	<g>
		<g>
			<line class="st5" x1="31.3" y1="52.1" x2="38.9" y2="52.1"/>
			<g>
				<circle class="st2" cx="31.3" cy="52.1" r="0.5"/>
			</g>
			<g>
				<circle class="st2" cx="38.9" cy="52.1" r="0.5"/>
			</g>
		</g>
	</g>
</g>
<path class="st6" d="M33.6,2.5C16.5,2.5,2.7,16.4,2.7,33.4c0,17.1,13.8,30.9,30.9,30.9c0.3,0,0.7,0,1-0.1
	c15.5-0.5,28.2-12.4,29.7-27.7c0.1-1,0.2-2.1,0.2-3.2C64.5,16.4,50.6,2.5,33.6,2.5z M54.1,53.9c-5.9,5.9-13.7,8.7-21.4,8.4
	c-7.1-0.2-14.1-3-19.6-8.4c-11.3-11.3-11.3-29.7,0-41c11.3-11.3,29.7-11.3,41,0c6,6,8.8,14,8.4,21.8C62.2,41.7,59.4,48.6,54.1,53.9z
	"/>
</svg>
