<?xml version="1.0" encoding="utf-8"?>
<!-- Roman Inozemtsev: https://github.com/mir-one/  -->
<svg version="1.1" id="Layer_1" xmlns="http://www.w3.org/2000/svg" xmlns:xlink="http://www.w3.org/1999/xlink" x="0px" y="0px"
	 viewBox="0 0 67 67" style="enable-background:new 0 0 67 67;" xml:space="preserve">
<style type="text/css">
	.st0{fill:#FFFFFF;}
	.st1{fill:#4A88A6;}
	.st2{fill:#E4EFF4;}
</style>
<path class="st0" d="M33.5,2.6C16.4,2.6,2.6,16.4,2.6,33.5c0,17.1,13.8,30.9,30.9,30.9c0.3,0,0.7,0,1-0.1
	C50,63.9,62.7,51.9,64.2,36.7c0.1-1,0.2-2.1,0.2-3.2C64.4,16.4,50.6,2.6,33.5,2.6z M54,54c-5.9,5.9-13.7,8.7-21.4,8.4
	c-7.1-0.2-14.1-3-19.6-8.4C1.7,42.7,1.7,24.3,13,13C24.3,1.7,42.7,1.7,54,13c6,6,8.8,14,8.4,21.8C62.1,41.8,59.3,48.7,54,54z"/>
<path class="st1" d="M33.5,0C15,0,0,15,0,33.5C0,52,15,67,33.5,67c1.2,0,2.3-0.1,3.4-0.2C52,65.3,64.1,53.7,66.5,38.9
	c0.3-1.8,0.5-3.5,0.5-5.4C67,15,52,0,33.5,0z M64.2,36.7C62.7,51.9,50,63.9,34.5,64.4c-0.3,0-0.7,0.1-1,0.1
	c-17.1,0-30.9-13.8-30.9-30.9c0-17.1,13.8-30.9,30.9-30.9s30.9,13.8,30.9,30.9C64.4,34.6,64.3,35.6,64.2,36.7z"/>
<path class="st1" d="M13,13C1.7,24.3,1.7,42.7,13,54c5.4,5.4,12.5,8.2,19.6,8.4c7.7,0.2,15.5-2.6,21.4-8.4
	c5.3-5.3,8.1-12.2,8.4-19.2C62.8,27,60,19,54,13C42.7,1.7,24.3,1.7,13,13z"/>
<g>
	<path class="st2" d="M43,49.2c0-1.2,0-2.4,0-3.6c0-0.5,0.1-0.9,0.7-0.9c0.6,0,0.8,0.3,0.8,0.9c0,2.1,0,4.2,0,6.2
		c0,0.4,0.1,0.9-0.5,1c-0.5,0.1-0.9-0.1-1.2-0.6c-0.7-1.2-1.3-2.5-2.1-3.7c0,1.2,0,2.3,0,3.5c0,0.6-0.2,0.9-0.8,1
		c-0.6,0-0.8-0.3-0.8-0.9c0-2.1,0-4.2,0-6.2c0-0.4-0.1-0.8,0.4-0.9c0.5-0.1,1,0,1.3,0.6c0.5,1.1,1.1,2.1,1.6,3.2
		C42.6,48.9,42.7,49.1,43,49.2z"/>
	<path class="st2" d="M32.7,51.4c0-1.9,0-3.8,0-5.7c0-0.7,0.2-1,1-1c0.7,0.1,1.4,0,2.2,0c0.8,0,1.5,0.3,2.1,0.9
		c0.3,0.6,0.4,1.2,0.3,1.8c0,1.3-0.8,2.2-2.1,2.3c-0.6,0.1-1.4-0.3-1.8,0.2c-0.3,0.5-0.1,1.2-0.1,1.9c0,0.5,0,0.9-0.7,1
		c-0.6,0-0.9-0.1-0.8-0.8C32.8,51.9,32.7,51.7,32.7,51.4z M34.3,47.4c0.2,0.5-0.5,1.5,0.8,1.4c1.2-0.1,1.6-0.4,1.6-1.4
		c0-0.9-0.5-1.3-1.6-1.3C33.9,46,34.4,46.9,34.3,47.4z"/>
	<path class="st2" d="M35,14.3c0.9,1.5,1.7,3.1,2.6,4.6c1.5,2.6,2.7,5.4,3.9,8.2c0.4,1.7,1,3.4,1.3,5.2c0.7,3.9-0.9,8-3.9,9.9
		c-2.7,1.6-5.5,1.6-8.3,0.5c-4-2-5.2-6.2-4.6-10.4c0.2-1.9,0.8-3.7,1.4-5.5c1.8-4.6,4.3-8.9,7-13.2C34.5,13.7,34.7,14,35,14.3z
		 M32.8,41c3.7,0.8,6.9-1.2,7.8-4.9c0.5-2.2,0.2-4.3-0.3-6.5c0-0.1,0-0.3,0-0.4c-1.3-4.6-3.2-9-5.5-13.2c-0.4-0.8-0.6-0.2-0.8,0.2
		c-2.2,3.9-4,7.9-5.2,12.2c-0.8,2.7-1.4,5.4-0.5,8.2C29,38.9,30.4,40.5,32.8,41z"/>
	<path class="st2" d="M27.8,47.1c0.3,1.2,0.6,2.3,0.9,3.5c0.1,0,0.1,0,0.2,0c0.5-1.6,1-3.3,1.4-4.9c0.2-0.7,0.5-1,1.2-0.7
		c0.4,0.2,0.5,0.4,0.4,0.8c-0.7,2.2-1.4,4.4-2.1,6.6c-0.2,0.5-0.5,0.8-1,0.8c-0.6,0-0.9-0.3-1.1-0.9c-0.2-0.7-0.3-1.5-0.5-2.4
		c-0.2,0.9-0.4,1.5-0.5,2.1c-0.1,1-0.7,1.3-1.6,1.1c-0.3-0.2-0.5-0.4-0.6-0.8c-0.6-2.1-1.3-4.2-2-6.3c-0.2-0.5-0.1-0.9,0.5-1.1
		c0.6-0.2,0.8,0.2,1,0.7c0.5,1.7,1,3.4,1.6,5.3c0.3-1.2,0.5-2.1,0.8-3.1C26.6,46.8,26.8,46.7,27.8,47.1z"/>
	<path class="st2" d="M34.5,38.6c2.2-0.8,3.6-2.4,4.4-4.5c0.2-0.5,0.4-1,0.6-1.6c1.8,4.1-1.6,8-6.4,7.5c-0.4-0.2-0.8-0.4-1.4-0.6
		C32.6,39,33.6,39,34.5,38.6z"/>
</g>
</svg>
