<?xml version="1.0" encoding="utf-8"?>
<!-- Roman Inozemtsev: https://github.com/mir-one/  -->
<svg version="1.1"
	 id="Слой_1" shape-rendering="geometricPrecision" image-rendering="optimizeQuality" text-rendering="geometricPrecision"
	 xmlns="http://www.w3.org/2000/svg" xmlns:xlink="http://www.w3.org/1999/xlink" x="0px" y="0px" viewBox="0 0 97.8 94"
	 style="enable-background:new 0 0 97.8 94;" xml:space="preserve">
<style type="text/css">
	.st0{fill:#EEC718;}
	.st1{fill:#392316;}
</style>
<path class="st0" d="M36.2,30.5l0.1,0.1l-0.1,0.1l-8,14.9h-9.9H8.2l-8-14.9L0,30.7l0.1-0.1l8-15h10.1h10.1L36.2,30.5z M97.7,63.2
	L97.7,63.2v-0.3l-8-14.9h-9.9H69.6l-8,15l-0.1,0.1l0.1,0.1l8,15h10.1h10.1L97.7,63.2z M67,78.8L67,78.8v-0.3l-8-14.9H49H39l-8,15
	l-0.1,0.1l0.1,0.1l8,15H49h10.1L67,78.8z M36.2,63.2l0.1-0.1l-0.1-0.1l-8-14.9h-9.9H8.2l-8,14.7L0,62.9l0.1,0.1l8,15h10.1h10.1
	L36.2,63.2z M97.7,30.5l0.1,0.1l-0.1,0.1l-8,14.9h-9.9H69.6l-8-15l-0.1-0.1l0.1-0.1l8-15h10.1h10.1L97.7,30.5z M66.9,47l0.1,0.1
	l-0.1,0.1l-8,14.9H49H38.9l-8-15L30.7,47l0.1-0.1l8-15H49H59L66.9,47z M67,14.9l0.1,0.1L67,15.2l-8,14.9H49H39l-8-15l-0.1-0.1
	l0.1-0.1L39,0H49h10.1L67,14.9z"/>
<path class="st1" d="M53.8,19.6c0.2,1,0.5,2,0.7,3c0.5,2.2,1,4.4,1.6,6.9c0.4,0.2,1.3,0.6,1.7,0.8c2.8-1.2,5.3-2.2,7.8-3.3
	c0.4-0.2,0.7-0.6,1-0.7c0.7-0.1,1.5-0.3,2.1,0c0.3,0.2,0.6,1.4,0.3,1.7c-0.3,0.5-1.2,0.9-1.8,0.8c-3-0.6-5.1,1-7.3,2.6
	c-0.2,0.2-0.2,0.9-0.2,1.3c0.1,0.4,0.4,0.8,0.5,1.2c1,2.8,0.6,4.4-2.1,6.6c0.9,0.2,1.4,0.6,1.9,0.5c1-0.1,1.9-0.5,2.8-0.7
	c2.1-0.3,2.8-1.8,3.2-3.5c0.5-1.9,2.9-3.9,5.1-3.7c-0.2,0.3-0.2,0.7-0.4,0.7c-2.2,0.8-2.9,2.7-3.5,4.6c-0.7,2.3-2.2,3.5-4.5,4
	c-0.9,0.2-1.8,0.6-2.7,1.3c2.8,0.1,5.6,0.2,8.4,0.4c1.8,0.1,3.5,0.3,5.3,0.7c3,0.7,4.7,2.9,4.5,5.6c-0.2,2.4-2.4,4.5-5.3,4.7
	c-1.3,0.1-2.1,0.5-2.9,1.6c-1.3,1.8-3.2,2.1-5.3,1.4c-3.5-1.1-6.2-3.3-8.4-6.2c-0.4-0.6-0.8-1.2-1.6-2.3c-0.3,1-0.6,1.6-0.7,2.1
	c0,0.3,0.2,0.7,0.5,0.9c3.2,2.9,3.5,6.5,2.3,10.3c-0.9,2.9-0.5,5.3,2.1,7.2c0.2,0.2,0.3,0.5,0.5,0.7c-0.2,0.2-0.3,0.3-0.3,0.3
	c-2.9-0.8-4.4-3.3-4-6.2c0.3-2.1,0.6-4.3,0.5-6.4c0-1.1-0.9-2.1-1.4-3.2c-0.2,0.1-0.5,0.1-0.7,0.2c0.1,0.7,0.1,1.4,0.4,2
	c0.9,1.7,0.7,3.2-0.2,4.8c-1.1,2.1-2,4.3-3.1,6.4c-0.9,1.8-1.9,3.5-0.4,5.5c-1.7-0.1-2.5-1.2-2.2-2.9c0.1-0.7,0.5-1.5,0.8-2.2
	c1.2-3,2.3-5.9,3.5-8.9c0.1-0.2,0-0.5,0-1.1c-0.6,0.7-1,1.2-1.3,1.6c-2.6,3.4-6.1,5.6-10,7.1c-2.2,0.8-2.8,0.6-3.5-1.7
	c-1.3-4.2-1.9-8.5-0.6-12.8c0.1-0.4,0.1-0.8-0.2-1.4c-0.3,0.4-0.7,0.8-0.9,1.2c-1.5,2.8-3,5.6-4.4,8.4c-0.9,1.7-3.5,2.8-6.4,2.1
	c1.3-0.5,2.2-0.8,2.9-1.2c0.7-0.4,1.4-0.9,1.8-1.6c1.5-2.9,3-5.9,4.3-8.9c0.6-1.2,1.3-1.9,2.6-2.2c0.9-0.2,1.6-0.7,2.4-1.3
	c-1.6-0.6-3-0.7-4.2,0.7c-1.5,1.6-3,3.2-4.6,4.7c-0.5,0.5-1.4,1-2,1c-1.6-0.1-3.3-0.4-4.9-0.7c0-0.2,0-0.5,0-0.7
	c1.1,0,2.3,0.1,3.4,0c0.9-0.2,1.9-0.6,2.7-1.1c0.6-0.4,1.1-1,1.5-1.6c2.4-3.5,5.5-5.6,9.9-5c0.3,0,0.8,0,1-0.2
	c0.4-0.3,0.6-0.8,0.8-1.3c-0.4-0.2-0.8-0.5-1.2-0.4c-3.2,0.3-6.2-0.1-9.1-1.4c-1-0.5-2.1-1-2.9-1.8c-0.8-0.8-1.8-2.1-1.5-2.9
	c0.7-2.6-0.5-4.4-1.3-6.6c-0.8-2.2,0.1-4.5,1.8-5.7c1.9-1.3,4.5-1.3,6.5,0.3c2,1.7,3.8,3.7,5.6,5.6c1.4,1.5,2.6,3,4.2,4.4
	c-0.5-1.5-1.1-3-1.5-4.5c-0.2-0.8-0.1-1.7,0.1-2.6c0.1-0.6,0.7-1.2,0.9-1.8c0.7-1.9,1.2-3.9,1.9-6.1c0.2,0.5,0.9,1.1,0.8,1.7
	c-0.2,1.6-0.6,3.2-1.2,4.6c-0.9,2.1-0.4,6.4,1.2,7.7c0.2,0.2,0.6,0.3,0.8,0.1c0.2-0.2,0.5-0.5,0.5-0.8c0.3-2.9,1.4-4.2,4.5-4.8
	c1.3-0.2,1.6-0.9,1.5-2c-0.4-2.4-0.4-5-2.9-6.6c-0.3-0.2-0.3-1-0.4-1.5C51.8,19.6,52.8,19.6,53.8,19.6z"/>
</svg>
