<?xml version="1.0" encoding="utf-8"?>
<!-- Roman Inozemtsev: https://github.com/mir-one/  -->
<svg version="1.1"
	 id="Слой_1" shape-rendering="geometricPrecision" image-rendering="optimizeQuality" text-rendering="geometricPrecision"
	 xmlns="http://www.w3.org/2000/svg" xmlns:xlink="http://www.w3.org/1999/xlink" x="0px" y="0px" viewBox="0 0 256.7 32.2"
	 style="enable-background:new 0 0 256.7 32.2;" xml:space="preserve">
<style type="text/css">
	.st0{fill:#EEC718;}
	.st1{fill:#392316;}
</style>
<path class="st0" d="M85.2,12.8L85.2,12.8L85.2,12.8l-1.8,3.5h-2.3h-2.3l-1.8-3.4h0l0,0l1.8-3.4h2.3h2.3L85.2,12.8z M99.3,20.3
	L99.3,20.3L99.3,20.3l-1.8-3.5h-2.3h-2.3L91,20.3l0,0l0,0l1.8,3.4h2.3h2.3L99.3,20.3z M92.3,23.9L92.3,23.9L92.3,23.9l-1.8-3.5h-2.3
	h-2.3L84,23.8l0,0l0,0l1.8,3.4h2.3h2.3L92.3,23.9z M85.2,20.3L85.2,20.3L85.2,20.3l-1.8-3.5h-2.3h-2.3l-1.8,3.4l0,0l0,0l1.8,3.4h2.3
	h2.3L85.2,20.3z M99.3,12.8L99.3,12.8L99.3,12.8l-1.8,3.5h-2.3h-2.3L91,12.8l0,0l0,0l1.8-3.4h2.3h2.3L99.3,12.8z M92.2,16.6
	L92.2,16.6L92.2,16.6l-1.8,3.5h-2.3h-2.3L84,16.6l0,0l0,0l1.8-3.4h2.3h2.3L92.2,16.6z M92.3,9.2L92.3,9.2L92.3,9.2l-1.8,3.5h-2.3
	h-2.3L84,9.3l0,0l0,0l1.8-3.4h2.3h2.3L92.3,9.2z"/>
<path class="st1" d="M89.2,10.3c0,0.2,0.1,0.5,0.2,0.7c0.1,0.5,0.2,1,0.4,1.6c0.1,0,0.3,0.1,0.4,0.2c0.6-0.3,1.2-0.5,1.8-0.8
	c0.1,0,0.2-0.1,0.2-0.2c0.2,0,0.3-0.1,0.5,0c0.1,0,0.1,0.3,0.1,0.4c-0.1,0.1-0.3,0.2-0.4,0.2c-0.7-0.1-1.2,0.2-1.7,0.6
	c0,0,0,0.2,0,0.3c0,0.1,0.1,0.2,0.1,0.3c0.2,0.6,0.1,1-0.5,1.5c0.2,0,0.3,0.1,0.4,0.1c0.2,0,0.4-0.1,0.6-0.2
	c0.5-0.1,0.6-0.4,0.7-0.8c0.1-0.4,0.7-0.9,1.2-0.8c0,0.1,0,0.2-0.1,0.2c-0.5,0.2-0.7,0.6-0.8,1.1c-0.2,0.5-0.5,0.8-1,0.9
	c-0.2,0-0.4,0.1-0.6,0.3c0.6,0,1.3,0,1.9,0.1c0.4,0,0.8,0.1,1.2,0.2c0.7,0.2,1.1,0.7,1,1.3c0,0.6-0.6,1-1.2,1.1
	c-0.3,0-0.5,0.1-0.7,0.4c-0.3,0.4-0.7,0.5-1.2,0.3c-0.8-0.3-1.4-0.8-1.9-1.4c-0.1-0.1-0.2-0.3-0.4-0.5c-0.1,0.2-0.1,0.4-0.2,0.5
	c0,0.1,0,0.2,0.1,0.2c0.7,0.7,0.8,1.5,0.5,2.4c-0.2,0.7-0.1,1.2,0.5,1.7c0,0,0.1,0.1,0.1,0.2c0,0-0.1,0.1-0.1,0.1
	c-0.7-0.2-1-0.8-0.9-1.4c0.1-0.5,0.1-1,0.1-1.5c0-0.3-0.2-0.5-0.3-0.7c0,0-0.1,0-0.2,0c0,0.2,0,0.3,0.1,0.5c0.2,0.4,0.2,0.7,0,1.1
	c-0.3,0.5-0.5,1-0.7,1.5c-0.2,0.4-0.4,0.8-0.1,1.3c-0.4,0-0.6-0.3-0.5-0.7c0-0.2,0.1-0.3,0.2-0.5c0.3-0.7,0.5-1.4,0.8-2
	c0,0,0-0.1,0-0.3c-0.1,0.2-0.2,0.3-0.3,0.4c-0.6,0.8-1.4,1.3-2.3,1.6c-0.5,0.2-0.6,0.1-0.8-0.4c-0.3-1-0.4-2-0.1-2.9
	c0-0.1,0-0.2,0-0.3c-0.1,0.1-0.2,0.2-0.2,0.3c-0.3,0.6-0.7,1.3-1,1.9c-0.2,0.4-0.8,0.6-1.5,0.5c0.3-0.1,0.5-0.2,0.7-0.3
	c0.2-0.1,0.3-0.2,0.4-0.4c0.3-0.7,0.7-1.4,1-2c0.1-0.3,0.3-0.4,0.6-0.5c0.2,0,0.4-0.2,0.6-0.3c-0.4-0.1-0.7-0.2-1,0.2
	c-0.3,0.4-0.7,0.7-1.1,1.1c-0.1,0.1-0.3,0.2-0.5,0.2c-0.4,0-0.8-0.1-1.1-0.2c0,0,0-0.1,0-0.2c0.3,0,0.5,0,0.8,0
	c0.2,0,0.4-0.1,0.6-0.3c0.1-0.1,0.3-0.2,0.3-0.4c0.6-0.8,1.3-1.3,2.3-1.1c0.1,0,0.2,0,0.2,0c0.1-0.1,0.1-0.2,0.2-0.3
	c-0.1,0-0.2-0.1-0.3-0.1c-0.7,0.1-1.4,0-2.1-0.3c-0.2-0.1-0.5-0.2-0.7-0.4c-0.2-0.2-0.4-0.5-0.3-0.7c0.2-0.6-0.1-1-0.3-1.5
	c-0.2-0.5,0-1,0.4-1.3c0.4-0.3,1-0.3,1.5,0.1c0.5,0.4,0.9,0.8,1.3,1.3c0.3,0.3,0.6,0.7,1,1c-0.1-0.3-0.3-0.7-0.3-1
	c0-0.2,0-0.4,0-0.6c0-0.1,0.2-0.3,0.2-0.4c0.2-0.4,0.3-0.9,0.4-1.4c0,0.1,0.2,0.3,0.2,0.4c0,0.4-0.1,0.7-0.3,1.1
	c-0.2,0.5-0.1,1.5,0.3,1.8c0,0,0.1,0.1,0.2,0c0,0,0.1-0.1,0.1-0.2c0.1-0.7,0.3-1,1-1.1c0.3,0,0.4-0.2,0.3-0.5
	c-0.1-0.6-0.1-1.1-0.7-1.5c-0.1,0-0.1-0.2-0.1-0.3C88.8,10.3,89,10.3,89.2,10.3z"/>
<g>
	<path d="M106.1,20.8v-8.5h2.4c0.9,0,1.6,0.2,2.1,0.6s0.7,1,0.7,1.7c0,0.4-0.1,0.8-0.3,1.1s-0.5,0.5-0.8,0.7
		c0.5,0.1,0.8,0.3,1.1,0.7s0.3,0.8,0.3,1.3c0,0.8-0.2,1.4-0.7,1.9s-1.2,0.6-2,0.6H106.1z M107.8,15.9h0.9c0.4,0,0.6-0.1,0.8-0.3
		s0.3-0.5,0.3-0.8c0-0.4-0.1-0.7-0.3-0.9s-0.5-0.3-0.9-0.3h-0.8V15.9z M107.8,17v2.5h1.2c0.4,0,0.6-0.1,0.8-0.3s0.3-0.5,0.3-0.9
		c0-0.4-0.1-0.7-0.3-0.9S109.4,17,109,17H109H107.8z"/>
	<path d="M115.1,20.9c-0.8,0-1.5-0.3-1.9-0.9s-0.7-1.3-0.7-2.2v-0.2c0-1,0.2-1.7,0.7-2.3s1.1-0.9,1.9-0.9c0.7,0,1.3,0.3,1.7,0.8
		s0.6,1.2,0.6,2.1v0.9h-3.2c0,0.5,0.1,0.8,0.3,1.1s0.5,0.4,0.9,0.4c0.3,0,0.6,0,0.8-0.1s0.5-0.2,0.7-0.4l0.4,1
		c-0.2,0.2-0.5,0.4-0.9,0.5S115.6,20.9,115.1,20.9z M115,15.6c-0.3,0-0.5,0.1-0.6,0.4c-0.1,0.2-0.2,0.6-0.3,1h1.6v-0.1
		c0-0.4-0.1-0.7-0.2-0.9C115.4,15.7,115.3,15.6,115,15.6z"/>
	<path d="M120.6,20.9c-0.8,0-1.5-0.3-1.9-0.9s-0.7-1.3-0.7-2.2v-0.2c0-1,0.2-1.7,0.7-2.3s1.1-0.9,1.9-0.9c0.7,0,1.3,0.3,1.7,0.8
		s0.6,1.2,0.6,2.1v0.9h-3.2c0,0.5,0.1,0.8,0.3,1.1s0.5,0.4,0.9,0.4c0.3,0,0.6,0,0.8-0.1s0.5-0.2,0.7-0.4l0.4,1
		c-0.2,0.2-0.5,0.4-0.9,0.5S121,20.9,120.6,20.9z M120.5,15.6c-0.3,0-0.5,0.1-0.6,0.4c-0.1,0.2-0.2,0.6-0.3,1h1.6v-0.1
		c0-0.4-0.1-0.7-0.2-0.9C120.9,15.7,120.8,15.6,120.5,15.6z"/>
	<path d="M126,19.6c0.2,0,0.4-0.1,0.5-0.3s0.2-0.4,0.2-0.7h1.5l0,0c0,0.7-0.2,1.2-0.6,1.6s-1,0.6-1.6,0.6c-0.8,0-1.5-0.3-1.9-0.9
		s-0.7-1.4-0.7-2.3v-0.2c0-0.9,0.2-1.7,0.7-2.3s1.1-0.9,1.9-0.9c0.7,0,1.2,0.2,1.6,0.7s0.6,1,0.6,1.8l0,0h-1.5
		c0-0.4-0.1-0.6-0.2-0.8c-0.1-0.2-0.3-0.3-0.5-0.3c-0.3,0-0.6,0.2-0.7,0.5c-0.1,0.3-0.2,0.8-0.2,1.4v0.2c0,0.6,0.1,1.1,0.2,1.4
		S125.6,19.6,126,19.6z"/>
	<path d="M130.7,15.2c0.2-0.3,0.4-0.5,0.6-0.7s0.5-0.2,0.8-0.2c0.6,0,1,0.2,1.3,0.7s0.5,1.1,0.5,2.1v3.7h-1.7V17
		c0-0.5-0.1-0.9-0.2-1.1c-0.1-0.2-0.3-0.3-0.5-0.3c-0.2,0-0.4,0-0.5,0.1s-0.3,0.2-0.4,0.3v4.7H129v-9.1h1.6V15.2z"/>
	<path d="M138.1,20.8c-0.1-0.1-0.1-0.3-0.2-0.5s-0.1-0.3-0.1-0.5c-0.1,0.3-0.3,0.6-0.6,0.8s-0.5,0.3-0.8,0.3c-0.6,0-1-0.2-1.3-0.5
		s-0.5-0.8-0.5-1.4c0-0.6,0.2-1.1,0.6-1.4s1-0.5,1.8-0.5h0.7v-0.5c0-0.3-0.1-0.6-0.2-0.7s-0.3-0.3-0.5-0.3c-0.2,0-0.4,0.1-0.5,0.2
		s-0.2,0.3-0.2,0.6l-1.6,0l0,0c0-0.5,0.2-1,0.6-1.4s1-0.6,1.7-0.6c0.7,0,1.2,0.2,1.6,0.6s0.6,0.9,0.6,1.6v2.6c0,0.3,0,0.6,0.1,0.8
		s0.1,0.5,0.2,0.8H138.1z M136.9,19.7c0.2,0,0.4-0.1,0.6-0.2s0.3-0.3,0.4-0.5v-1h-0.7c-0.3,0-0.5,0.1-0.6,0.3s-0.2,0.4-0.2,0.7
		c0,0.2,0.1,0.4,0.2,0.5S136.7,19.7,136.9,19.7z"/>
	<path d="M142.3,12.9h-1.7v-1.3h1.7V12.9z M142.3,20.8h-1.7v-6.3h1.7V20.8z"/>
	<path d="M145,14.4l0.1,0.9c0.2-0.3,0.4-0.6,0.7-0.7s0.5-0.3,0.9-0.3c0.5,0,1,0.2,1.3,0.6s0.5,1.1,0.5,2v3.8h-1.7v-3.8
		c0-0.5-0.1-0.8-0.2-1c-0.1-0.2-0.3-0.3-0.5-0.3c-0.2,0-0.3,0-0.5,0.1s-0.3,0.2-0.4,0.4v4.7h-1.7v-6.3H145z"/>
	<path d="M158,17.7L158,17.7l0.9-5.4h1.7l-1.7,8.5h-1.5l-1.2-5.3h0l-1.2,5.3h-1.5l-1.7-8.5h1.7l0.9,5.4l0,0l1.2-5.4h1.3L158,17.7z"
		/>
	<path d="M164.2,20.8c-0.1-0.1-0.1-0.3-0.2-0.5s-0.1-0.3-0.1-0.5c-0.1,0.3-0.3,0.6-0.6,0.8s-0.5,0.3-0.8,0.3c-0.6,0-1-0.2-1.3-0.5
		s-0.5-0.8-0.5-1.4c0-0.6,0.2-1.1,0.6-1.4s1-0.5,1.8-0.5h0.7v-0.5c0-0.3-0.1-0.6-0.2-0.7s-0.3-0.3-0.5-0.3c-0.2,0-0.4,0.1-0.5,0.2
		s-0.2,0.3-0.2,0.6l-1.6,0l0,0c0-0.5,0.2-1,0.6-1.4s1-0.6,1.7-0.6c0.7,0,1.2,0.2,1.6,0.6s0.6,0.9,0.6,1.6v2.6c0,0.3,0,0.6,0.1,0.8
		s0.1,0.5,0.2,0.8H164.2z M163,19.7c0.2,0,0.4-0.1,0.6-0.2s0.3-0.3,0.4-0.5v-1h-0.7c-0.3,0-0.5,0.1-0.6,0.3s-0.2,0.4-0.2,0.7
		c0,0.2,0.1,0.4,0.2,0.5S162.8,19.7,163,19.7z"/>
	<path d="M168.4,20.8h-1.7v-9.1h1.7V20.8z"/>
	<path d="M171.3,20.8h-1.7v-9.1h1.7V20.8z"/>
	<path d="M174.9,20.9c-0.8,0-1.5-0.3-1.9-0.9s-0.7-1.3-0.7-2.2v-0.2c0-1,0.2-1.7,0.7-2.3s1.1-0.9,1.9-0.9c0.7,0,1.3,0.3,1.7,0.8
		s0.6,1.2,0.6,2.1v0.9h-3.2c0,0.5,0.1,0.8,0.3,1.1s0.5,0.4,0.9,0.4c0.3,0,0.6,0,0.8-0.1s0.5-0.2,0.7-0.4l0.4,1
		c-0.2,0.2-0.5,0.4-0.9,0.5S175.3,20.9,174.9,20.9z M174.8,15.6c-0.3,0-0.5,0.1-0.6,0.4c-0.1,0.2-0.2,0.6-0.3,1h1.6v-0.1
		c0-0.4-0.1-0.7-0.2-0.9C175.2,15.7,175,15.6,174.8,15.6z"/>
	<path d="M179.9,12.9v1.6h0.9v1.2h-0.9v3.2c0,0.3,0,0.5,0.1,0.6s0.2,0.2,0.3,0.2c0.1,0,0.1,0,0.2,0s0.1,0,0.2,0l0.1,1.2
		c-0.2,0.1-0.3,0.1-0.4,0.1s-0.3,0-0.5,0c-0.5,0-1-0.2-1.2-0.5s-0.4-0.8-0.4-1.6v-3.2h-0.8v-1.2h0.8v-1.6H179.9z"/>
</g>
</svg>
