<?xml version="1.0" encoding="utf-8"?>
<!-- Roman Inozemtsev: https://github.com/mir-one/  -->
<svg version="1.1"
	 id="Слой_1" shape-rendering="geometricPrecision" image-rendering="optimizeQuality" text-rendering="geometricPrecision"
	 xmlns="http://www.w3.org/2000/svg" xmlns:xlink="http://www.w3.org/1999/xlink" x="0px" y="0px" viewBox="0 0 236 152.5"
	 style="enable-background:new 0 0 236 152.5;" xml:space="preserve">
<style type="text/css">
	.st0{fill:#FCBD16;}
	.st1{fill:#FABC17;}
	.st2{fill:#FFE1A4;}
	.st3{fill:#3F2817;}
	.st4{fill:#FCBD1B;}
	.st5{fill:#F8BB1A;}
	.st6{fill:#FCC02A;}
	.st7{fill:#F1B721;}
	.st8{fill:#FFFFFF;}
</style>
<path class="st0" d="M183.4,27.2c0,3.8-0.1,7.6,0,11.4c0,1.5-0.4,2.4-1.8,3.2c-6.9,3.9-13.7,7.8-20.5,11.8c-1.1,0.6-1.9,0.6-2.9,0
	c-6.9-4-13.8-8-20.7-12c-1.1-0.7-1.6-1.4-1.6-2.7c0.1-7.9,0.1-15.8,0-23.7c0-1.3,0.4-2.1,1.6-2.7c7-4,14-8,20.9-12.1
	c0.9-0.5,1.5-0.5,2.4,0c7,4.1,14.1,8.2,21.2,12.2c1.2,0.7,1.3,1.5,1.3,2.6C183.4,19.2,183.4,23.2,183.4,27.2z"/>
<path class="st1" d="M59.4,69.8c0,4.3,0.1,8.7,0.1,13c0,1-0.4,1.6-1.2,2.1c-7.1,4-14.1,8.1-21.1,12.2c-1,0.6-1.7,0.4-2.7-0.1
	c-7-4.1-13.9-8.1-20.9-12.1c-1.1-0.6-1.4-1.4-1.4-2.5c0-8,0-15.9,0-23.9c0-1.2,0.4-1.9,1.5-2.5c6.9-3.9,13.8-7.9,20.7-12
	c1.3-0.7,2.2-0.6,3.4,0.1c6.7,3.9,13.5,7.8,20.2,11.7c1.1,0.6,1.8,1.4,1.7,2.7c-2.7,3.5-5.2,7.4-10.9,5.8c3.8,2.6,5.9,2.3,8.6-0.5
	c0.6-0.6,1.3-1.2,2-1.7c0.1,0.8,0.1,1.7,0.2,2.5c-2.2,4-2.5,9.3-8.2,10.7c0,0,0,0.3,0,0.5c3.5,0.4,5.9-0.8,6.8-3.9
	C58.3,71,59,70.4,59.4,69.8z"/>
<path class="st1" d="M86.5,38.7c0-7.5,0.1-15,0-22.6c0-1.8,0.4-2.9,2.1-3.8c6.6-3.7,13.2-7.5,19.8-11.4c1.4-0.8,2.5-0.8,3.9,0
	c6.6,3.9,13.3,7.8,20,11.5c1.2,0.7,1.7,1.5,1.7,2.9c-0.1,7.9-0.1,15.8,0,23.6c0,1.3-0.3,2.1-1.5,2.8c-6.9,3.9-13.8,7.9-20.7,11.9
	c-1.2,0.7-2,0.6-3.1-0.1c-3.8-2.3-7.7-4.4-11.5-6.6c0.1-2.6,2.4-3.5,4.3-5.3c-1.5-0.1-2.4-0.1-3.2,0.6c-1.1,1.1-2.2,2.2-3.4,3.3
	c-1.9-0.9-3.4-2.6-5.6-2.8c-1.5-2.1-0.5-3.4,1.5-4.2c2-0.9,3.8-2.3,6.2-1.2c0.7,0.3,1.4-0.2,1.7-0.8c0.4-0.7,0.4-1.4-0.1-2
	c-0.5-0.6-1.3-1-1.9-0.6c-2.6,1.9-6,1.9-8.5,4.1C87.8,38.5,87.4,39.4,86.5,38.7z"/>
<path class="st0" d="M112,70.5c0-3.8,0.1-7.6,0-11.4c-0.1-1.7,0.6-2.5,2-3.3c6.6-3.7,13.2-7.5,19.8-11.4c1.4-0.8,2.4-0.9,3.8,0
	c6.5,3.9,13.1,7.7,19.8,11.4c1.5,0.8,2.1,1.7,2.1,3.5c-0.1,7.5-0.1,15.1,0,22.6c0,1.5-0.5,2.2-1.8,2.7c-8,3.4-15.9,6.9-23.8,10.4
	c-1.3,0.6-2.4,0.6-3.7-0.2c-5.4-3.2-10.8-6.4-16.3-9.4c-1.4-0.8-1.8-1.6-1.8-3.1C112,78.3,112,74.4,112,70.5z"/>
<path class="st2" d="M61.1,99.7c3.3,2.2,6.4,3.5,9.7,4.9c12.8,5.5,26,4.9,39.1,1.4c10.5-2.8,20.5-7.1,30.5-11.5
	c12.3-5.4,24.4-11.2,37.5-14.5c12.5-3.2,24.9-3.6,37.2,1.2c6.8,2.6,12.7,6.6,18.2,11.2c0.5,0.4,0.9,0.9,0.9,1.5
	c0,3.6-0.1,7.2-0.1,10.9c0,0.2-0.4,0.3-0.5,0.5c-1.3-0.3-2.1-1.3-3.1-2c-11.2-8.2-23.7-12.5-37.6-12.3c-8.6,0.1-17,1.8-25.3,4.1
	c-14.6,4-28.7,9.5-43.3,13.5c-13.3,3.7-26.8,5.2-40.6,2.6c-11.6-2.2-21.5-7.9-30.7-15c0-0.8,0-1.5,0-2.5"/>
<path class="st3" d="M94.9,45.8c1.1-1.1,2.3-2.2,3.4-3.3c0.8-0.8,1.6-0.8,3.2-0.6c-1.8,1.8-4.2,2.8-4.3,5.3c-0.3,0.7-0.7,1.4-1,2.1
	c-1.3,3.1-5,2.3-7.4,4.3c5.8,0,11.3,0.2,16.6,1.1c0.4,0.3,0.9,0.5,1.3,0.8c0.1,0.6,0.3,1.1,1.1,0.8c0,0,0,0,0,0c0,0.2-0.1,0.5,0,0.7
	c2.1,5,0.3,8.2-5.1,9c-0.7,0.1-1.4,0-2,0.6c-4,3.7-6.1,3.8-10.6,0.8c-2.3-1.5-4.3-3.4-5.8-5.8c-0.3-0.4-0.4-1.4-1.3-0.9
	c-0.7,0.3-0.7,1-0.5,1.6c0.2,0.5,0.4,1,0.8,1.4c3.3,3,3.4,6.7,2.2,10.7c-0.3,0.9-0.2,1.9-0.5,2.9c-0.4,1.4,0.1,2.3,1,3.3
	c0.8,0.9,2.3,1.4,1.8,3.4c-2-2.1-5.2-3-4.6-6.4c0.4-2.3,0.3-4.6,0.8-6.8c0.4-2.1-0.6-3.2-2.6-4.1c3.2,4.3,0.2,7.6-1.4,11.1
	c-0.4,0.9-0.7,1.8-1.2,2.6c-1.4,2.3-2.1,4.6-0.5,7.2c0.2,0.4,0.2,0.9-0.6,1.1c-1.8-2.5-2.9-4.7-1-8c1.7-2.8,2.5-6.1,3.7-9.2
	c-3,3.3-6.4,5.9-10.3,7.8c-4.7,2.2-5.3,1.9-6.6-3.2c-1-4.3-1-8.6,0.3-13.4c-0.7,0.6-0.9,0.7-1,0.9c-0.4,0.7-0.8,1.4-1.1,2.1
	c-0.8,1.4-1.5,2.8-2.3,4.2c-0.4,0.7-1,1.3-1.3,2c-0.9,3.1-3.3,4.4-6.8,3.9c0-0.2,0-0.5,0-0.5c5.7-1.3,6-6.7,8.2-10.6
	c1.1-1.2,1.2-3,2.5-4c1.4-0.3,2.9-0.3,4.2-2c-1.7,0.1-3.3-0.7-4.3,1C60.8,60.1,60,61,59.3,62c-0.7,0.6-1.4,1.1-2,1.7
	c-2.6,2.8-4.8,3.1-8.6,0.5c5.7,1.6,8.2-2.3,10.9-5.8c1.1-0.9,1.8-2.5,3.6-2.3c1.7-0.1,3.3,0,5-0.2c0.9-0.1,1.9-0.4,1.7-1.6
	c-0.2-1-1.1-0.4-1.8-0.4c-0.7,0-1.4,0.1-2.1,0.2c-1.3-0.2-2.5-0.3-3.8-0.5c-2-0.6-4.1-1.2-5.8-2.4c-1.9-1.3-3.2-3.1-2.6-5.4
	c0.4-1.7,0.1-2.7-0.7-4.1c-1.7-2.7-1.3-5.7,0.8-7.5c2.1-1.9,5.1-1.9,7.8,0c2.4,1.8,4.3,4.2,6.3,6.4c1.1,1.3,2.2,2.5,3.6,4.1
	c0.2-1.7-0.6-2.6-0.8-3.6c-0.3-1.2-1-2.3-0.3-3.8c1.4-2.7,3.8-5.2,2.2-9.1c2.4,1.7,2.9,4.3,1.2,6.7c-2.4,3.2-0.8,5.8,0.6,8.5
	c0.2,0.4,0.5,0.8,1,0.7c0.5-0.1,0.7-0.5,0.6-1c-0.3-3,1.8-4.4,4-4.8c2.9-0.5,2.8-2.2,2.3-4.2c-0.5-1.9-0.6-4.1-2.7-5.2
	c-0.7-0.4-1-1.2-0.6-2.1c0.4-0.8,1.1-1.2,1.9-1c0.9,0.2,1.4,0.8,1.4,1.7c-0.1,1.9,0.9,3.4,1.6,4.9c0.1,0.9,0.5,1.9,0.3,2.8
	c-0.3,1.9,0.6,2.9,2.3,3.3c0.9,0.7,1.3-0.2,1.7-0.6c2.4-2.2,5.9-2.2,8.5-4.1c0.6-0.4,1.4,0,1.9,0.6c0.5,0.6,0.5,1.3,0.1,2
	c-0.4,0.7-1.1,1.1-1.7,0.8c-2.4-1-4.2,0.4-6.2,1.2c-2,0.9-3,2.1-1.5,4.2c0.2,0.9,0.4,1.8,0.6,2.7C89.7,47,89.3,48.2,88,49
	c-0.4,0.2-0.7,0.5-0.5,1.1c0.1,0.4,0.5,0.6,0.8,0.5c2-0.7,4.4-0.2,5.9-2.2C94.5,47.5,95.8,46.9,94.9,45.8z"/>
<path class="st1" d="M83.8,32.6c-0.7-1.6-1.7-3.1-1.6-4.9c0-0.9-0.5-1.5-1.4-1.7c-0.9-0.2-1.5,0.2-1.9,1c-0.4,0.9-0.2,1.7,0.6,2.1
	c2.1,1.1,2.2,3.3,2.7,5.2c0.5,1.9,0.7,3.6-2.3,4.2c-2.2,0.4-4.3,1.8-4,4.8c0.1,0.5-0.1,0.9-0.6,1c-0.5,0.1-0.8-0.3-1-0.7
	c-1.4-2.7-3-5.3-0.6-8.5c1.8-2.4,1.2-5-1.2-6.7c1.6,3.9-0.8,6.4-2.2,9.1c-0.7,1.5,0,2.6,0.3,3.8c0.2,1,1,1.9,0.8,3.6
	c-1.4-1.6-2.5-2.9-3.6-4.1c-2-2.3-3.9-4.6-6.3-6.4c-2.6-2-5.7-2-7.8,0c-2,1.9-2.4,4.8-0.8,7.5c0.8,1.4,1.1,2.5,0.7,4.1
	c-0.6,2.3,0.8,4.1,2.6,5.4c1.8,1.2,3.8,1.8,5.8,2.4c-1.2,1.3-2.3,1.1-3.8,0.3C51.8,50,45,46.1,38.2,42.3c-1.2-0.7-1.7-1.5-1.7-2.9
	c0.1-7.8,0.1-15.6,0-23.4c0-1.4,0.4-2.2,1.7-3c6.9-3.9,13.7-7.8,20.4-11.8c1.3-0.8,2.1-0.6,3.3,0.1C68.6,5.2,75.3,9,82,12.8
	c1.4,0.8,2,1.7,2,3.3C83.8,21.6,83.8,27.1,83.8,32.6z"/>
<path class="st0" d="M161.7,69.3c0-3.8,0.1-7.6,0-11.4c0-1.4,0.4-2.2,1.7-2.9c6.9-3.9,13.7-7.8,20.5-11.8c1.1-0.7,2-0.6,3.1,0
	c6.8,4,13.6,7.9,20.5,11.8c1.2,0.7,1.6,1.4,1.6,2.7c-0.1,5.8-0.1,11.7,0,17.5c0,1.3-0.2,2-1.8,1.6c-13.7-3.2-26.9-0.4-39.9,4.1
	c-0.3,0.1-0.7,0.2-1,0.4c-4.7,1.7-4.7,1.7-4.7-3.4C161.7,75,161.7,72.2,161.7,69.3z"/>
<path class="st4" d="M52.9,96.1c9.2,7.1,19,12.8,30.7,15c13.8,2.6,27.3,1.1,40.6-2.6c14.6-4,28.7-9.5,43.3-13.5
	c8.3-2.3,16.7-3.9,25.3-4.1c13.9-0.2,26.4,4.2,37.6,12.3c1,0.7,1.8,1.7,3.1,2c1.4,3.2,0.2,6.6,0.7,9.7c-0.9,0.6-1.3,0-1.6-0.3
	c-16.9-12.7-35.9-15.8-56.4-12.4c-14.2,2.4-27.9,6.5-41.9,9.6c-10.2,2.2-20.5,4-31,4c-18.4,0-34.7-6.1-49.3-17
	C52.9,98,52.5,97.2,52.9,96.1z"/>
<path class="st5" d="M61.7,65.6c0.4-0.7,0.7-1.4,1.1-2.1c0.1-0.2,0.4-0.3,1-0.9c-1.3,4.8-1.4,9.1-0.3,13.4c1.2,5.1,1.9,5.4,6.6,3.2
	c3.9-1.9,7.3-4.5,10.3-7.8c-1.2,3.1-2,6.4-3.7,9.2c-1.9,3.2-0.8,5.5,1,8c0.7-0.2,0.8-0.7,0.6-1.1c-1.6-2.5-0.8-4.8,0.5-7.2
	c0.5-0.8,0.9-1.7,1.2-2.6c1.5-3.5,4.6-6.8,1.4-11.1c2,1,3,2.1,2.6,4.1c-0.5,2.2-0.4,4.6-0.8,6.8C82.7,81,86,81.8,87.9,84
	c0.4-2-1.1-2.6-1.8-3.4c-0.9-1-1.4-2-1-3.3c0.3-0.9,0.2-2,0.5-2.9c1.2-4,1-7.6-2.2-10.7c-0.4-0.3-0.6-0.9-0.8-1.4
	c-0.3-0.6-0.2-1.3,0.5-1.6c0.9-0.4,1,0.5,1.3,0.9c1.5,2.3,3.5,4.2,5.8,5.8c4.5,3,6.6,2.9,10.6-0.8c0.6-0.6,1.3-0.5,2-0.6
	c5.4-0.8,7.2-4,5.1-9c-0.1-0.2,0-0.5,0-0.7c1.3,0,1.5,0.8,1.5,1.9c0,8.1,0,16.3,0,24.4c0,1.1-0.5,1.8-1.4,2.3
	c-7.1,4-14.1,8.1-21.1,12.2c-0.9,0.5-1.6,0.5-2.4,0c-7-4.1-13.9-8.1-20.9-12.1c-1.3-0.8-1.5-1.7-1.5-3
	C61.8,76.5,62.2,71.1,61.7,65.6z"/>
<path class="st6" d="M56.9,95.4c0,0-0.2-0.2-0.2-0.2c-0.7-0.7-1.4-1.3-2.1-2c-1.2-1.3,0.2-2,0.8-2.9c0.7-1.1,1.3-0.4,1.8,0.3
	c5.5,6.7,13.1,9.4,21.4,10.4c10.4,1.3,20.4-0.7,30.4-3.4c1.2-0.3,2.4-1.1,4.3-0.7c-4.8,2.6-9.4,4.3-14.3,5.6
	c-12.5,3.3-24.7,3.3-36.3-3.2"/>
<path class="st6" d="M58.3,97.1"/>
<path class="st7" d="M105.4,54.7c-5.4-1-10.8-1.1-16.6-1.1c2.4-2,6.1-1.2,7.4-4.3C99.2,51.1,102.3,52.9,105.4,54.7z"/>
<path class="st7" d="M66,54.2c0.7-0.1,1.4-0.2,2.1-0.2c0.6,0,1.6-0.6,1.8,0.4c0.2,1.1-0.8,1.5-1.7,1.6c-1.6,0.2-3.3,0.1-5,0.2
	C64.2,55.5,65.1,54.8,66,54.2z"/>
<path class="st5" d="M107.7,56.3c-0.8,0.3-1-0.2-1.1-0.8C107.1,55.6,107.6,55.7,107.7,56.3z"/>
<path class="st7" d="M89.8,45.6c1.5,0.9,2.9,1.8,4.4,2.7c-1.5,2-3.9,1.5-5.9,2.2c-0.3,0.1-0.7-0.1-0.8-0.5c-0.2-0.5,0.2-0.8,0.5-1.1
	C89.3,48.2,89.7,47,89.8,45.6z"/>
<path class="st7" d="M62.1,60.5c0-0.4-0.1-0.7-0.1-1.1c1-1.7,2.5-0.9,4.3-1C65,60.2,63.5,60.3,62.1,60.5z"/>
<g>
	<path class="st8" d="M13.1,147.1H6.8l-1.4,5.5H0.3l7.1-25.2h5.1l7.1,25.2h-5.1L13.1,147.1z M7.8,143.2h4.3l-2.1-8H9.9L7.8,143.2z"
		/>
	<path class="st8" d="M26.6,143.4v9.1h-4.9v-25.2h8.4c2.5,0,4.5,0.7,6,2.2c1.5,1.5,2.2,3.4,2.2,5.8c0,2.4-0.7,4.4-2.2,5.8
		c-1.5,1.5-3.5,2.2-6,2.2H26.6z M26.6,139.6h3.5c1.1,0,1.9-0.4,2.5-1.2c0.6-0.8,0.9-1.8,0.9-3c0-1.2-0.3-2.3-0.9-3.1
		c-0.6-0.8-1.4-1.2-2.5-1.2h-3.5V139.6z"/>
	<path class="st8" d="M46.6,152.5h-4.9v-25.2h4.9V152.5z"/>
	<path class="st8" d="M61.9,146c0-1-0.3-1.8-0.8-2.4c-0.5-0.6-1.4-1.2-2.8-1.7c-2.6-0.9-4.5-1.9-5.8-3.1s-2-2.8-2-4.8
		c0-2.1,0.7-3.7,2.2-5c1.5-1.3,3.4-1.9,5.7-1.9c2.4,0,4.4,0.7,5.9,2.1c1.5,1.4,2.2,3.2,2.2,5.6l0,0.1h-4.7c0-1.3-0.3-2.3-0.9-3
		c-0.6-0.7-1.4-1-2.5-1c-0.9,0-1.7,0.3-2.2,0.9c-0.5,0.6-0.8,1.4-0.8,2.3c0,0.9,0.3,1.6,0.9,2.1c0.6,0.6,1.6,1.2,3,1.8
		c2.4,0.8,4.3,1.8,5.5,3.1c1.3,1.2,1.9,2.9,1.9,5c0,2.2-0.7,3.9-2.2,5.1c-1.5,1.2-3.4,1.9-5.8,1.9c-2.4,0-4.4-0.7-6.1-2
		c-1.7-1.3-2.5-3.4-2.5-6.1l0-0.1h4.8c0,1.6,0.3,2.7,1,3.4c0.6,0.7,1.6,1,2.8,1c1.1,0,1.8-0.3,2.4-0.9
		C61.6,147.7,61.9,146.9,61.9,146z"/>
	<path class="st8" d="M82.7,143.4v9.1h-4.9v-25.2h8.4c2.5,0,4.5,0.7,6,2.2c1.5,1.5,2.2,3.4,2.2,5.8c0,2.4-0.7,4.4-2.2,5.8
		c-1.5,1.5-3.5,2.2-6,2.2H82.7z M82.7,139.6h3.5c1.1,0,1.9-0.4,2.5-1.2c0.6-0.8,0.9-1.8,0.9-3c0-1.2-0.3-2.3-0.9-3.1
		c-0.6-0.8-1.4-1.2-2.5-1.2h-3.5V139.6z"/>
	<path class="st8" d="M102.4,148.7h9.4v3.8H97.6v-25.2h4.9V148.7z"/>
	<path class="st8" d="M126.3,147.1H120l-1.4,5.5h-5.1l7.2-25.2h5.1l7.2,25.2h-5.1L126.3,147.1z M121,143.2h4.3l-2.1-8h-0.1
		L121,143.2z"/>
	<path class="st8" d="M147.8,131.1h-5.9v21.4H137v-21.4h-5.8v-3.8h16.6V131.1z"/>
	<path class="st8" d="M163,142h-8v10.5h-4.9v-25.2h14.4v3.8H155v7h8V142z"/>
	<path class="st8" d="M185.3,143.5c0,3-0.8,5.3-2.5,6.9c-1.7,1.7-3.9,2.5-6.7,2.5c-2.8,0-5-0.8-6.7-2.5c-1.7-1.7-2.5-4-2.5-6.9v-7
		c0-3,0.8-5.3,2.5-7c1.7-1.7,3.9-2.5,6.7-2.5s5,0.8,6.7,2.5c1.7,1.7,2.5,4,2.5,7V143.5z M180.4,136.4c0-1.8-0.4-3.2-1.1-4.2
		c-0.7-0.9-1.8-1.4-3.2-1.4c-1.4,0-2.5,0.5-3.2,1.4c-0.7,0.9-1.1,2.3-1.1,4.2v7.1c0,1.9,0.4,3.3,1.1,4.2c0.7,0.9,1.8,1.4,3.2,1.4
		c1.4,0,2.5-0.5,3.2-1.4c0.7-0.9,1.1-2.3,1.1-4.2V136.4z"/>
	<path class="st8" d="M193.5,142.4v10.1h-4.9v-25.2h7.5c2.5,0,4.5,0.7,5.9,2c1.4,1.3,2.2,3.1,2.2,5.5c0,1.3-0.3,2.4-0.9,3.4
		c-0.6,1-1.5,1.7-2.6,2.3c1.3,0.4,2.3,1.2,2.8,2.2s0.9,2.3,0.9,3.8v1.8c0,0.7,0.1,1.4,0.2,2.2c0.2,0.8,0.5,1.3,0.9,1.7v0.4h-5.1
		c-0.4-0.4-0.7-1-0.8-1.8c-0.1-0.8-0.2-1.7-0.2-2.5v-1.8c0-1.3-0.3-2.3-0.8-3c-0.5-0.7-1.3-1.1-2.3-1.1H193.5z M193.5,138.6h2.6
		c1.1,0,1.8-0.3,2.4-0.9c0.5-0.6,0.8-1.5,0.8-2.7c0-1.2-0.3-2.1-0.8-2.8c-0.5-0.7-1.3-1-2.4-1h-2.7V138.6z"/>
	<path class="st8" d="M219.2,146h0.1l4.7-18.7h6.4v25.2h-4.8v-15.9l-0.1,0l-4.6,15.9h-3.3l-4.5-15.8l-0.1,0v15.8h-4.9v-25.2h6.4
		L219.2,146z"/>
</g>
</svg>
