<?xml version="1.0" encoding="utf-8"?>
<!-- Roman Inozemtsev: https://github.com/mir-one/  -->
<svg version="1.1"
	 id="Слой_1" shape-rendering="geometricPrecision" image-rendering="optimizeQuality" text-rendering="geometricPrecision"
	 xmlns="http://www.w3.org/2000/svg" xmlns:xlink="http://www.w3.org/1999/xlink" x="0px" y="0px" viewBox="0 0 194.5 22.8"
	 style="enable-background:new 0 0 194.5 22.8;" xml:space="preserve">
<style type="text/css">
	.st0{fill:#FCC02A;}
	.st1{fill:#111111;}
</style>
<path class="st0" d="M66.6,10.2"/>
<g>
	<path class="st1" d="M11,17.6H5.6l-1.2,4.6H0.1L6.2,1h4.3l6,21.3h-4.3L11,17.6z M6.5,14.4h3.6L8.3,7.6H8.3L6.5,14.4z"/>
	<path class="st1" d="M22.3,14.5v7.7h-4.1V1h7.1c2.1,0,3.8,0.6,5.1,1.9c1.2,1.3,1.9,2.9,1.9,4.9c0,2-0.6,3.7-1.9,4.9
		c-1.2,1.2-2.9,1.9-5.1,1.9H22.3z M22.3,11.3h3c0.9,0,1.6-0.3,2.1-1c0.5-0.7,0.7-1.5,0.7-2.5c0-1-0.2-1.9-0.7-2.6
		c-0.5-0.7-1.2-1-2.1-1h-3V11.3z"/>
	<path class="st1" d="M39.2,22.2h-4.1V1h4.1V22.2z"/>
	<path class="st1" d="M52.2,16.7c0-0.8-0.2-1.5-0.7-2c-0.4-0.5-1.2-1-2.3-1.4c-2.2-0.8-3.8-1.6-4.9-2.6c-1.1-1-1.7-2.3-1.7-4.1
		c0-1.7,0.6-3.2,1.9-4.3s2.9-1.6,4.8-1.6c2.1,0,3.7,0.6,5,1.8s1.9,2.7,1.8,4.7l0,0.1h-4c0-1.1-0.2-1.9-0.7-2.5
		c-0.5-0.6-1.2-0.9-2.1-0.9c-0.8,0-1.4,0.3-1.8,0.8c-0.4,0.5-0.7,1.2-0.7,2c0,0.7,0.2,1.3,0.7,1.8c0.5,0.5,1.4,1,2.6,1.5
		c2.1,0.7,3.6,1.5,4.7,2.6c1.1,1,1.6,2.4,1.6,4.2c0,1.8-0.6,3.3-1.9,4.3c-1.2,1-2.9,1.6-4.9,1.6c-2,0-3.7-0.6-5.2-1.7
		c-1.4-1.1-2.1-2.8-2.1-5.1l0-0.1h4c0,1.3,0.3,2.3,0.8,2.9c0.5,0.6,1.3,0.9,2.4,0.9c0.9,0,1.6-0.2,2-0.7
		C51.9,18.2,52.2,17.5,52.2,16.7z"/>
	<path class="st1" d="M69.7,14.5v7.7h-4.1V1h7.1c2.1,0,3.8,0.6,5.1,1.9c1.2,1.3,1.9,2.9,1.9,4.9c0,2-0.6,3.7-1.9,4.9
		c-1.2,1.2-2.9,1.9-5.1,1.9H69.7z M69.7,11.3h3c0.9,0,1.6-0.3,2.1-1c0.5-0.7,0.7-1.5,0.7-2.5c0-1-0.2-1.9-0.7-2.6
		c-0.5-0.7-1.2-1-2.1-1h-3V11.3z"/>
	<path class="st1" d="M86.4,19h7.9v3.2H82.3V1h4.1V19z"/>
	<path class="st1" d="M106.5,17.6h-5.3l-1.2,4.6h-4.3l6-21.3h4.3l6,21.3h-4.3L106.5,17.6z M102.1,14.4h3.6l-1.8-6.8h-0.1L102.1,14.4
		z"/>
	<path class="st1" d="M124.7,4.2h-5v18.1h-4.1V4.2h-4.9V1h14V4.2z"/>
	<path class="st1" d="M137.6,13.3h-6.8v8.9h-4.1V1h12.2v3.2h-8v5.9h6.8V13.3z"/>
	<path class="st1" d="M156.4,14.6c0,2.5-0.7,4.5-2.1,5.9c-1.4,1.4-3.3,2.1-5.6,2.1c-2.3,0-4.2-0.7-5.6-2.1c-1.4-1.4-2.1-3.4-2.1-5.9
		V8.6c0-2.5,0.7-4.5,2.1-5.9c1.4-1.4,3.3-2.1,5.6-2.1c2.3,0,4.2,0.7,5.7,2.1s2.1,3.4,2.1,5.9V14.6z M152.3,8.6
		c0-1.6-0.3-2.7-0.9-3.5c-0.6-0.8-1.5-1.2-2.7-1.2c-1.2,0-2.1,0.4-2.7,1.2c-0.6,0.8-0.9,2-0.9,3.5v6c0,1.6,0.3,2.8,0.9,3.6
		c0.6,0.8,1.5,1.2,2.7,1.2c1.2,0,2.1-0.4,2.7-1.2c0.6-0.8,0.9-2,0.9-3.6V8.6z"/>
	<path class="st1" d="M163.4,13.7v8.5h-4.1V1h6.4c2.1,0,3.8,0.6,5,1.7c1.2,1.1,1.8,2.6,1.8,4.6c0,1.1-0.3,2.1-0.8,2.9
		c-0.5,0.8-1.3,1.5-2.2,1.9c1.1,0.4,1.9,1,2.4,1.8c0.5,0.9,0.7,1.9,0.7,3.2v1.6c0,0.6,0.1,1.2,0.2,1.9c0.1,0.7,0.4,1.1,0.7,1.4v0.3
		h-4.3c-0.3-0.3-0.6-0.8-0.7-1.5c-0.1-0.7-0.1-1.4-0.1-2.1v-1.5c0-1.1-0.2-1.9-0.7-2.5c-0.4-0.6-1.1-0.9-1.9-0.9H163.4z M163.4,10.5
		h2.2c0.9,0,1.6-0.3,2-0.8c0.5-0.5,0.7-1.3,0.7-2.3c0-1-0.2-1.8-0.7-2.4c-0.5-0.6-1.1-0.9-2-0.9h-2.3V10.5z"/>
	<path class="st1" d="M185,16.7L185,16.7L189.1,1h5.4v21.3h-4.1V8.8l-0.1,0l-3.8,13.4h-2.8l-3.8-13.3l-0.1,0v13.3h-4.1V1h5.4
		L185,16.7z"/>
</g>
</svg>
