<?xml version="1.0" encoding="utf-8"?>
<!-- Roman Inozemtsev: https://github.com/mir-one/  -->
<svg version="1.1"
	 id="Слой_1" shape-rendering="geometricPrecision" image-rendering="optimizeQuality" text-rendering="geometricPrecision"
	 xmlns="http://www.w3.org/2000/svg" xmlns:xlink="http://www.w3.org/1999/xlink" x="0px" y="0px" viewBox="0 0 78.4 78.6"
	 style="enable-background:new 0 0 78.4 78.6;" xml:space="preserve">
<style type="text/css">
	.st0{fill:#F9BC15;}
	.st1{fill:#FFFFFF;}
</style>
<circle class="st0" cx="39.3" cy="39.3" r="39.3"/>
<circle class="st1" cx="39.3" cy="39.3" r="36.3"/>
<circle class="st1" cx="39.3" cy="39.3" r="36.3"/>
<ellipse transform="matrix(0.7071 -0.7071 0.7071 0.7071 -16.2857 39.2965)" class="st0" cx="39.3" cy="39.3" rx="33" ry="33"/>
<path class="st1" d="M41.3,20.1H37v21.3h4.3V20.1z M51.6,24.7l-3,3c3.4,2.7,5.5,6.9,5.5,11.5c0,8.2-6.7,14.9-14.9,14.9
	s-14.9-6.7-14.9-14.9c0-4.7,2.1-8.8,5.5-11.5l-3-3c-4.1,3.5-6.7,8.7-6.7,14.5c0,10.6,8.6,19.2,19.2,19.2s19.2-8.6,19.2-19.2
	C58.4,33.4,55.7,28.3,51.6,24.7z"/>
</svg>
