<?xml version="1.0" encoding="utf-8"?>
<!-- Roman Inozemtsev: https://github.com/mir-one/  -->
<svg version="1.1" id="Слой_1" xmlns="http://www.w3.org/2000/svg" xmlns:xlink="http://www.w3.org/1999/xlink" x="0px" y="0px"
	 viewBox="0 0 64.8 64.5" style="enable-background:new 0 0 64.8 64.5;" xml:space="preserve">
<style type="text/css">
	.st0{fill:#3E58A6;}
	.st1{fill:none;}
	.st2{fill:#2B388F;}
	.st3{fill:#EEC718;}
	.st4{fill:#FFFFFF;}
	.st5{fill:#58595B;}
	.st6{fill:#392316;}
</style>
<path class="st0" d="M52.3,12.5c-10.9-10.9-28.6-10.9-39.5,0C1.9,23.4,1.9,41.1,12.8,52c5.2,5.2,12,7.9,18.8,8.1
	c7.4,0.2,15-2.5,20.6-8.1c5.1-5.1,7.8-11.7,8.1-18.5C60.8,25.9,58.1,18.3,52.3,12.5z"/>
<path class="st1" d="M32.6,2.5C16.1,2.5,2.8,15.8,2.8,32.2C2.8,48.6,16,61.8,32.3,62L15.5,45.2V32.6v-1L23.9,19l6.1,6.1l6.8-12.5
	l6.4,6.4h6.5l12.7,12.7C62,15.5,48.8,2.5,32.6,2.5z"/>
<path class="st0" d="M2.8,32.2c0-16.4,13.3-29.8,29.8-29.8c16.2,0,29.4,13,29.8,29.2l2.4,2.4c0-0.6,0.1-1.2,0.1-1.8
	C64.8,14.4,50.4,0,32.6,0S0.3,14.4,0.3,32.2c0,17.8,14.4,32.2,32.2,32.2c0.7,0,1.4,0,2.1-0.1L32.3,62C16,61.8,2.8,48.6,2.8,32.2z"/>
<path class="st2" d="M43.2,19l-6.4-6.4l-6.8,12.5L23.9,19l-8.4,12.7v1v12.6L32.3,62c0.1,0,0.2,0,0.3,0c0.3,0,0.6,0,1,0
	c15-0.5,27.2-12,28.7-26.7c0.1-1,0.2-2,0.2-3c0-0.2,0-0.4,0-0.6L49.7,19H43.2z"/>
<path class="st2" d="M64.3,37.4c0.2-1.1,0.3-2.3,0.4-3.4l-2.4-2.4c0,0.2,0,0.4,0,0.6c0,1-0.1,2-0.2,3C60.7,50,48.5,61.5,33.5,62
	c-0.3,0-0.6,0-1,0c-0.1,0-0.2,0-0.3,0l2.4,2.4c0.4,0,0.8-0.1,1.2-0.1C50.4,62.8,62,51.7,64.3,37.4z"/>
<path class="st3" d="M27.2,25.3L27.2,25.3v0.1l-3.4,6.2h-4.2h-4.2l-3.4-6.2l-0.1-0.1l0.1-0.1l3.4-6.3h4.2h4.2L27.2,25.3z M53,39
	L53,39v-0.1l-3.4-6.2h-4.2h-4.2l-3.4,6.3L37.8,39l0.1,0.1l3.4,6.3h4.2h4.2L53,39z M40.1,45.5L40.1,45.5v-0.1l-3.4-6.2h-4.2h-4.2
	L25,45.5L25,45.5l0.1,0.1l3.4,6.3h4.2h4.2L40.1,45.5z M27.2,39L27.2,39v-0.1l-3.4-6.2h-4.2h-4.2l-3.4,6.2l-0.1,0.1l0.1,0.1l3.4,6.3
	h4.2h4.2L27.2,39z M53,25.3L53,25.3v0.1l-3.4,6.2h-4.2h-4.2l-3.4-6.3l-0.1-0.1l0.1-0.1l3.4-6.3h4.2h4.2L53,25.3z M40.1,18.8
	L40.1,18.8v0.1l-3.4,6.2h-4.2h-4.2L25,18.8L25,18.8l0.1-0.1l3.4-6.2h4.2h4.2L40.1,18.8z M40,32.2L40,32.2v0.1l-3.4,6.2h-4.2h-4.2
	l-3.4-6.3l-0.1-0.1l0.1-0.1l3.4-6.2h4.2h4.2L40,32.2z"/>
<path class="st4" d="M32.6,2.5C16.1,2.5,2.8,15.8,2.8,32.2C2.8,48.7,16.1,62,32.6,62c0.3,0,0.6,0,1,0c15-0.5,27.2-12,28.7-26.7
	c0.1-1,0.2-2,0.2-3C62.3,15.8,49,2.5,32.6,2.5z M52.3,52c-5.7,5.7-13.2,8.4-20.6,8.1C24.8,59.9,18,57.2,12.8,52
	c-10.9-10.9-10.9-28.6,0-39.5c10.9-10.9,28.6-10.9,39.5,0c5.8,5.8,8.5,13.5,8.1,21C60.1,40.2,57.4,46.9,52.3,52z"/>
<path class="st5" d="M35.4,18.3c0.1,0.5,0.2,1,0.4,1.5c0.3,1.1,0.5,2.3,0.8,3.6c0.2,0.1,0.7,0.3,0.9,0.4c1.5-0.6,2.7-1.2,4-1.7
	c0.2-0.1,0.3-0.3,0.5-0.3c0.4-0.1,0.8-0.1,1.1,0c0.2,0.1,0.3,0.7,0.2,0.9c-0.2,0.2-0.6,0.4-0.9,0.4c-1.5-0.3-2.7,0.5-3.8,1.4
	c-0.1,0.1-0.1,0.4-0.1,0.7c0,0.2,0.2,0.4,0.3,0.6c0.5,1.4,0.3,2.3-1.1,3.4c0.4,0.1,0.7,0.3,1,0.3c0.5-0.1,1-0.3,1.5-0.3
	c1.1-0.1,1.4-0.9,1.6-1.8c0.2-1,1.5-2,2.6-1.9c-0.1,0.1-0.1,0.3-0.2,0.4c-1.1,0.4-1.5,1.4-1.8,2.4c-0.4,1.2-1.1,1.8-2.3,2.1
	c-0.5,0.1-0.9,0.3-1.4,0.7c1.5,0.1,2.9,0.1,4.4,0.2c0.9,0.1,1.8,0.1,2.7,0.3c1.5,0.3,2.4,1.5,2.3,2.9c-0.1,1.3-1.2,2.3-2.7,2.5
	c-0.7,0-1.1,0.3-1.5,0.9c-0.7,0.9-1.7,1.1-2.7,0.7c-1.8-0.6-3.2-1.7-4.3-3.2c-0.2-0.3-0.4-0.6-0.8-1.2c-0.2,0.5-0.3,0.8-0.4,1.1
	c0,0.2,0.1,0.4,0.2,0.5c1.6,1.5,1.8,3.3,1.2,5.3c-0.5,1.5-0.3,2.8,1.1,3.7c0.1,0.1,0.2,0.2,0.2,0.4c-0.1,0.1-0.1,0.2-0.2,0.2
	c-1.5-0.4-2.3-1.7-2.1-3.2c0.2-1.1,0.3-2.2,0.3-3.3c0-0.6-0.5-1.1-0.7-1.6c-0.1,0-0.3,0.1-0.4,0.1c0.1,0.3,0,0.7,0.2,1
	c0.5,0.9,0.4,1.6-0.1,2.5c-0.6,1.1-1.1,2.2-1.6,3.3c-0.5,0.9-1,1.8-0.2,2.8c-0.9-0.1-1.3-0.6-1.2-1.5c0.1-0.4,0.3-0.8,0.4-1.1
	c0.6-1.5,1.2-3.1,1.8-4.6c0-0.1,0-0.2,0-0.6c-0.3,0.4-0.5,0.6-0.7,0.9c-1.4,1.8-3.1,2.9-5.2,3.7c-1.2,0.4-1.5,0.3-1.8-0.9
	c-0.7-2.2-1-4.4-0.3-6.6c0.1-0.2,0.1-0.4-0.1-0.7c-0.2,0.2-0.3,0.4-0.5,0.6c-0.8,1.4-1.5,2.9-2.3,4.3c-0.5,0.9-1.8,1.4-3.3,1.1
	c0.7-0.3,1.1-0.4,1.5-0.6c0.4-0.2,0.7-0.5,0.9-0.8c0.8-1.5,1.5-3.1,2.2-4.6c0.3-0.6,0.7-1,1.4-1.2c0.4-0.1,0.9-0.4,1.2-0.7
	c-0.8-0.3-1.5-0.3-2.2,0.4c-0.8,0.8-1.5,1.7-2.4,2.5c-0.3,0.3-0.7,0.5-1.1,0.5c-0.9,0-1.7-0.2-2.6-0.3c0-0.1,0-0.2,0-0.4
	c0.6,0,1.2,0.1,1.7,0c0.5-0.1,1-0.3,1.4-0.6c0.3-0.2,0.6-0.5,0.8-0.8c1.2-1.8,2.8-2.9,5.1-2.6c0.2,0,0.4,0,0.5-0.1
	c0.2-0.2,0.3-0.4,0.4-0.7C29.4,31.2,29.2,31,29,31c-1.6,0.2-3.2,0-4.7-0.7c-0.5-0.2-1.1-0.5-1.5-1c-0.4-0.4-0.9-1.1-0.8-1.5
	c0.4-1.3-0.3-2.3-0.7-3.4c-0.4-1.1,0-2.3,0.9-3c1-0.7,2.3-0.7,3.4,0.2c1,0.9,2,1.9,2.9,2.9c0.7,0.8,1.3,1.6,2.2,2.3
	c-0.3-0.8-0.6-1.6-0.8-2.4c-0.1-0.4,0-0.9,0.1-1.3c0.1-0.3,0.3-0.6,0.5-0.9c0.3-1,0.6-2,1-3.1c0.1,0.2,0.5,0.6,0.4,0.9
	c-0.1,0.8-0.3,1.7-0.6,2.4c-0.5,1.1-0.2,3.3,0.6,4c0.1,0.1,0.3,0.1,0.4,0.1c0.1-0.1,0.2-0.3,0.3-0.4c0.2-1.5,0.7-2.2,2.3-2.5
	c0.7-0.1,0.8-0.5,0.8-1c-0.2-1.3-0.2-2.6-1.5-3.4c-0.2-0.1-0.2-0.5-0.2-0.8C34.4,18.3,34.9,18.3,35.4,18.3z"/>
<path class="st6" d="M34.8,17.7c0.1,0.5,0.2,1,0.4,1.5c0.3,1.1,0.5,2.3,0.8,3.6c0.2,0.1,0.7,0.3,0.9,0.4c1.5-0.6,2.7-1.2,4-1.7
	c0.2-0.1,0.3-0.3,0.5-0.3c0.4-0.1,0.8-0.1,1.1,0c0.2,0.1,0.3,0.7,0.2,0.9c-0.2,0.2-0.6,0.4-0.9,0.4c-1.5-0.3-2.7,0.5-3.8,1.4
	c-0.1,0.1-0.1,0.4-0.1,0.7c0,0.2,0.2,0.4,0.3,0.6c0.5,1.4,0.3,2.3-1.1,3.4c0.4,0.1,0.7,0.3,1,0.3c0.5-0.1,1-0.3,1.5-0.3
	c1.1-0.1,1.4-0.9,1.6-1.8c0.2-1,1.5-2,2.6-1.9c-0.1,0.1-0.1,0.3-0.2,0.4c-1.1,0.4-1.5,1.4-1.8,2.4c-0.4,1.2-1.1,1.8-2.3,2.1
	c-0.5,0.1-0.9,0.3-1.4,0.7c1.5,0.1,2.9,0.1,4.4,0.2c0.9,0.1,1.8,0.1,2.7,0.3c1.5,0.3,2.4,1.5,2.3,2.9c-0.1,1.3-1.2,2.3-2.7,2.5
	c-0.7,0-1.1,0.3-1.5,0.9c-0.7,0.9-1.7,1.1-2.7,0.7c-1.8-0.6-3.2-1.7-4.3-3.2c-0.2-0.3-0.4-0.6-0.8-1.2c-0.2,0.5-0.3,0.8-0.4,1.1
	c0,0.2,0.1,0.4,0.2,0.5c1.6,1.5,1.8,3.3,1.2,5.3C36,41.8,36.2,43,37.6,44c0.1,0.1,0.2,0.2,0.2,0.4c-0.1,0.1-0.1,0.2-0.2,0.2
	c-1.5-0.4-2.3-1.7-2.1-3.2c0.2-1.1,0.3-2.2,0.3-3.3c0-0.6-0.5-1.1-0.7-1.6c-0.1,0-0.3,0.1-0.4,0.1c0.1,0.3,0,0.7,0.2,1
	c0.5,0.9,0.4,1.6-0.1,2.5c-0.6,1.1-1.1,2.2-1.6,3.3c-0.5,0.9-1,1.8-0.2,2.8c-0.9-0.1-1.3-0.6-1.2-1.5c0.1-0.4,0.3-0.8,0.4-1.1
	c0.6-1.5,1.2-3.1,1.8-4.6c0-0.1,0-0.2,0-0.6c-0.3,0.4-0.5,0.6-0.7,0.9c-1.4,1.8-3.1,2.9-5.2,3.7c-1.2,0.4-1.5,0.3-1.8-0.9
	c-0.7-2.2-1-4.4-0.3-6.6c0.1-0.2,0.1-0.4-0.1-0.7c-0.2,0.2-0.3,0.4-0.5,0.6c-0.8,1.4-1.5,2.9-2.3,4.3c-0.5,0.9-1.8,1.4-3.3,1.1
	c0.7-0.3,1.1-0.4,1.5-0.6c0.4-0.2,0.7-0.5,0.9-0.8c0.8-1.5,1.5-3.1,2.2-4.6c0.3-0.6,0.7-1,1.4-1.2c0.4-0.1,0.9-0.4,1.2-0.7
	c-0.8-0.3-1.5-0.3-2.2,0.4c-0.8,0.8-1.5,1.7-2.4,2.5c-0.3,0.3-0.7,0.5-1.1,0.5c-0.9,0-1.7-0.2-2.6-0.3c0-0.1,0-0.2,0-0.4
	c0.6,0,1.2,0.1,1.7,0c0.5-0.1,1-0.3,1.4-0.6c0.3-0.2,0.6-0.5,0.8-0.8c1.2-1.8,2.8-2.9,5.1-2.6c0.2,0,0.4,0,0.5-0.1
	c0.2-0.2,0.3-0.4,0.4-0.7c-0.2-0.1-0.4-0.3-0.6-0.2c-1.6,0.2-3.2,0-4.7-0.7c-0.5-0.2-1.1-0.5-1.5-1c-0.4-0.4-0.9-1.1-0.8-1.5
	c0.4-1.3-0.3-2.3-0.7-3.4c-0.4-1.1,0-2.3,0.9-3c1-0.7,2.3-0.7,3.4,0.2c1,0.9,2,1.9,2.9,2.9c0.7,0.8,1.3,1.6,2.2,2.3
	c-0.3-0.8-0.6-1.6-0.8-2.4c-0.1-0.4,0-0.9,0.1-1.3c0.1-0.3,0.3-0.6,0.5-0.9c0.3-1,0.6-2,1-3.1c0.1,0.2,0.5,0.6,0.4,0.9
	c-0.1,0.8-0.3,1.7-0.6,2.4c-0.5,1.1-0.2,3.3,0.6,4c0.1,0.1,0.3,0.1,0.4,0.1c0.1-0.1,0.2-0.3,0.3-0.4c0.2-1.5,0.7-2.2,2.3-2.5
	c0.7-0.1,0.8-0.5,0.8-1c-0.2-1.3-0.2-2.6-1.5-3.4c-0.2-0.1-0.2-0.5-0.2-0.8C33.8,17.7,34.3,17.7,34.8,17.7z"/>
</svg>
