<?xml version="1.0" encoding="utf-8"?>
<!-- Roman Inozemtsev: https://github.com/mir-one/  -->
<svg version="1.1" id="Слой_1" xmlns="http://www.w3.org/2000/svg" xmlns:xlink="http://www.w3.org/1999/xlink" x="0px" y="0px"
	 viewBox="0 0 64.8 64.5" style="enable-background:new 0 0 64.8 64.5;" xml:space="preserve">
<style type="text/css">
	.st0{fill:#3E58A6;}
	.st1{fill:none;}
	.st2{fill:#2B388F;}
	.st3{fill:#EEC718;}
	.st4{fill:#FFFFFF;}
</style>
<path class="st0" d="M52.2,12.2c-11-11-28.7-11-39.7,0c-11,11-11,28.7,0,39.7c5.3,5.3,12.1,8,18.9,8.2c7.5,0.2,15-2.5,20.7-8.2
	c5.2-5.2,7.8-11.8,8.2-18.6C60.7,25.8,58.1,18,52.2,12.2z"/>
<path class="st1" d="M32.4,2.1C15.9,2.1,2.5,15.5,2.5,32.1c0,16.4,13.2,29.8,29.6,29.9L15.2,45.1V32.5v-1l8.5-12.7l6.2,6.1l6.8-12.6
	l6.4,6.4h6.5l12.7,12.7C62,15.2,48.7,2.1,32.4,2.1z"/>
<path class="st0" d="M2.5,32.1c0-16.5,13.4-29.9,29.9-29.9c16.3,0,29.6,13.1,29.9,29.3l2.4,2.4c0-0.6,0.1-1.2,0.1-1.8
	c0-17.9-14.5-32.4-32.4-32.4S0,14.2,0,32.1C0,50,14.5,64.5,32.4,64.5c0.7,0,1.4,0,2.1-0.1L32.1,62C15.7,61.8,2.5,48.5,2.5,32.1z"/>
<path class="st2" d="M43.1,18.7l-6.4-6.4l-6.8,12.6l-6.2-6.1l-8.5,12.7v1v12.7L32.1,62c0.1,0,0.2,0,0.3,0c0.3,0,0.6,0,1,0
	c15.1-0.5,27.3-12.1,28.8-26.8c0.1-1,0.2-2,0.2-3.1c0-0.2,0-0.4,0-0.6L49.6,18.7H43.1z"/>
<path class="st2" d="M64.3,37.3c0.2-1.1,0.3-2.3,0.4-3.4l-2.4-2.4c0,0.2,0,0.4,0,0.6c0,1-0.1,2-0.2,3.1
	c-1.5,14.8-13.8,26.3-28.8,26.8c-0.3,0-0.6,0-1,0c-0.1,0-0.2,0-0.3,0l2.4,2.4c0.4,0,0.8-0.1,1.2-0.1C50.3,62.8,62,51.6,64.3,37.3z"
	/>
<path class="st3" d="M27,25.1L27,25.1v0.1l-3.4,6.3h-4.2h-4.2l-3.4-6.3l-0.1-0.1l0.1-0.1l3.4-6.3h4.2h4.2L27,25.1z M52.9,38.9
	L52.9,38.9v-0.1l-3.4-6.3h-4.2h-4.2l-3.4,6.3l-0.1,0.1l0.1,0.1l3.4,6.3h4.2h4.2L52.9,38.9z M40,45.4L40,45.4v-0.1l-3.4-6.3h-4.2
	h-4.2l-3.4,6.3l-0.1,0.1l0.1,0.1l3.4,6.3h4.2h4.2L40,45.4z M27,38.9L27,38.9v-0.1l-3.4-6.3h-4.2h-4.2l-3.4,6.2l-0.1,0.1l0.1,0.1
	l3.4,6.3h4.2h4.2L27,38.9z M52.9,25.1L52.9,25.1v0.1l-3.4,6.3h-4.2h-4.2l-3.4-6.3l-0.1-0.1l0.1-0.1l3.4-6.3h4.2h4.2L52.9,25.1z
	 M40,18.5L40,18.5v0.1l-3.4,6.3h-4.2h-4.2l-3.4-6.3l-0.1-0.1l0.1-0.1l3.4-6.2h4.2h4.2L40,18.5z"/>
<polygon class="st3" points="31.1,27.8 28.6,37.3 36.1,37.4 35.5,35.1 31.7,35 33.7,27.8 "/>
<path class="st4" d="M32.4,2.1C15.9,2.1,2.5,15.5,2.5,32.1C2.5,48.6,15.9,62,32.4,62c0.3,0,0.6,0,1,0c15.1-0.5,27.3-12.1,28.8-26.8
	c0.1-1,0.2-2,0.2-3.1C62.3,15.5,48.9,2.1,32.4,2.1z M52.2,51.9c-5.7,5.7-13.3,8.4-20.7,8.2c-6.9-0.2-13.7-2.9-18.9-8.2
	c-11-11-11-28.7,0-39.7c11-11,28.7-11,39.7,0c5.8,5.8,8.5,13.5,8.2,21.1C60.1,40.1,57.4,46.8,52.2,51.9z"/>
</svg>
