<?xml version="1.0" encoding="utf-8"?>
<!-- Roman Inozemtsev: https://github.com/mir-one/  -->
<svg version="1.1"
	 id="Слой_1" image-rendering="optimizeQuality" shape-rendering="geometricPrecision" text-rendering="geometricPrecision"
	 xmlns="http://www.w3.org/2000/svg" xmlns:xlink="http://www.w3.org/1999/xlink" x="0px" y="0px" viewBox="0 0 94 94"
	 style="enable-background:new 0 0 94 94;" xml:space="preserve">
<style type="text/css">
	.st0{fill:#21324D;}
	.st1{fill:#FFFFFF;}
</style>
<circle class="st0" cx="47" cy="47" r="47"/>
<path class="st1" d="M84.2,45.5c-1.6,0.1-3.3,0-4.9,0c-0.5,0-0.7,0.1-0.7,0.7c0,4.8-0.9,9.4-3,13.8c-4.8,9.7-12.4,15.9-23.1,17.9
	c-11,2-20.7-1.2-28.6-9.1c-5.2-5.2-8.2-11.6-8.9-18.9c-0.9-9.8,2-18.2,9.3-25.3c5.3-5.5,11.8-8.7,19.3-9.6c0.6-0.1,1.2-0.1,1.8-0.2
	c0.3,0,0.5,0.1,0.4,0.4c-0.1,0.2,0.2,0.7-0.4,0.7c-5.6,0.3-10.7,1.9-15.3,5.1C21.6,26.8,17,34.9,16.5,45.2c-0.3,7.9,2.2,14.9,7.2,21
	c1.8,2.2,3.8,4.1,6.1,5.6c3.1,2,6.4,3.5,10,4.4c1.2,0.3,2.4,0.6,3.6,0.7c9.4,0.9,17.8-1.7,24.7-8.3c5-4.8,8.1-10.7,9.1-17.6
	c0.2-1.6,0.3-3.3,0.3-5c0-0.3,0-0.5-0.4-0.5h-4.9c-0.4,0-0.6,0.2-0.8,0.5c-1.7,3.5-3.7,6.8-6.3,9.8c-1.4,1.6-2.9,3-4.7,4.1
	c-1,0.5-1.9,0.9-3,1c-0.7,0.1-1.1-0.1-1.6-0.5c-0.9-0.7-1.6-1.6-2.3-2.5C52,56,50.8,54,49.3,52.2c-0.7-0.8-1.4-1.7-2.3-2.3
	c-1.5-1-3-1.1-4.4,0.4c-1.3,1.3-2.1,2.8-2.9,4.4c-0.8,1.5-1.5,3.1-2.5,4.5c-0.4,0.5-0.7,1-1.2,1.4c-0.7,0.6-1.2,0.7-1.9,0.1
	c-1-0.7-1.7-1.6-2.4-2.5c-2.8-3.6-5-7.6-7.1-11.6c-0.3-0.4-0.5-0.9-0.8-1.4c-0.1-0.3-0.2-0.4,0.2-0.4h2.6c0.3,0,0.4,0.3,0.5,0.5
	c1,2.3,2.1,4.7,3.3,6.9c0.7,1.3,1.4,2.6,2.4,3.8c0.4,0.5,0.8,0.9,1.3,1.2c0.6,0.3,1.2,0.3,1.8-0.1c0.5-0.4,0.9-1,1.3-1.6
	c1-1.7,1.8-3.5,2.7-5.3c0.4-0.8,0.8-1.7,1.4-2.5c0.4-0.8,1-1.6,1.6-2.2c1.2-1.2,2.1-1.3,3.5-0.3c0.9,0.6,1.6,1.4,2.3,2.2
	c1.7,1.9,3,4,4.7,5.8c0.9,1,1.9,1.9,3,2.6c0.5,0.3,1,0.4,1.5,0.4c1.1-0.2,2-0.7,2.8-1.5c1.3-1.2,2.2-2.6,3.1-4.1
	c0.4-0.7,0.8-1.3,1-2c-0.3,0.5-0.6,1-0.9,1.5c-1.1,1.7-2.3,3.4-3.9,4.7c-1.5,1.1-2.6,1.1-4.1,0c-0.2-0.1-0.3-0.3-0.5-0.4
	c-1-0.9-1.9-2-2.7-3c-1.4-1.8-2.7-3.7-4.3-5.4c-0.8-0.7-1.5-1.5-2.5-1.9c-0.9-0.4-1.8-0.4-2.6,0.1c-1,0.6-1.7,1.5-2.3,2.5
	c-0.8,1.4-1.5,2.8-2.3,4.2c-0.1,0-0.1,0.1-0.1,0.1v0.1c0,0,0,0.1-0.1,0.1c-0.8,1.6-1.6,3.1-2.6,4.5c-0.1,0.1-0.3,0.3-0.4,0.4
	c-0.4,0.3-0.7,0.3-1.1,0c-0.6-0.5-1-1-1.4-1.6c-0.5-0.8-1-1.5-1.4-2.4c-0.6-0.8-1-1.8-1.4-2.7c-0.9-1.8-1.7-3.7-2.4-5.5
	c-0.2-0.3-0.3-0.4-0.7-0.4H25c0,0-0.1,0-0.2,0h-3.3c0.3,0.6,0.5,1.1,0.8,1.6c0.6,1.3,1.3,2.7,2,4c1.9,3.7,3.9,7.2,6.4,10.5
	c0.7,1,1.6,1.9,2.6,2.7c0.1,0,0.1,0,0.2,0.1c0.9,0.5,1.8,0.4,2.6,0c1.4-0.9,2.3-2.3,3.1-3.7c1.1-1.8,1.9-3.7,3.1-5.5
	c0.5-0.7,0.9-1.3,1.5-1.8s1-0.5,1.7-0.1c0.9,0.6,1.5,1.4,2.2,2.2c1.2,1.6,2.3,3.2,3.4,4.8c0.8,1.1,1.6,2.2,2.5,3.2
	c1.4,1.4,2.9,1.8,4.8,1.3c2.4-0.6,4.4-2,6.1-3.7c3.2-3.1,5.7-6.9,7.8-10.8c0.2-0.5,0.4-0.7,0.9-0.6h1.3c0.3,0,0.4,0.1,0.4,0.5
	c-0.2,2.4-0.5,4.7-1.3,6.9C70.1,65,63.3,71.6,53,74c-9.6,2.2-18.2-0.2-25.4-6.8c-6.3-5.8-9.3-13.3-8.9-21.9
	c0.6-12.8,10.1-23.7,22.8-26.1c2.1-0.4,4.2-0.5,6.3-0.5c0.2,0,0.2-0.2,0.2-0.4c0-2,0-3.9-0.2-5.8c0-0.2,0-0.3-0.1-0.4
	c-1.6,0-3.1,0.1-4.7,0.2c-4.4,0.4-8.6,1.7-12.5,3.7c-1.1,0.5-2.2,1.2-3.3,1.9c-3.5,2.5-6.6,5.4-9,8.9c-3.9,5.6-5.9,11.8-6.2,18.6
	c-0.5,13.4,7,26,19,32c5.4,2.7,11.1,4,17.1,3.6c13.1-0.9,22.9-7.3,29.1-18.9c2.3-4.3,3.4-9,3.6-13.9c0-0.3,0.1-0.4,0.4-0.4
	c1.2,0,1.2,0,1.1,1.1c0,1.8-0.3,3.6-0.7,5.4c-0.4,1.4-0.7,2.8-1.2,4.1c-0.9,2.4-1.9,4.8-3.3,7c-1.4,2.4-3.2,4.6-5.2,6.6
	c-1.7,1.7-3.6,3.2-5.6,4.6c-4.1,2.9-8.7,4.7-13.6,5.5c-8.2,1.4-16.1,0.2-23.5-3.8c-3.4-1.8-6.4-4.1-9-6.9C16,67,13,61.8,10.7,56.2
	c-1.5-5.5-1.6-11.1-0.5-16.8C11,35.1,12.7,31,15,27.3c1-1.6,2.1-3.1,3.3-4.5c-0.2,0.2-0.4,0.4-0.6,0.6c-0.1,0.1-0.1,0.1-0.1,0.2
	l-0.1,0.1c-0.1,0.1-0.2,0.2-0.3,0.3L17,24.2c-0.1,0.1-0.2,0.2-0.3,0.3l-0.1,0.1c0,0.1-0.1,0.3-0.3,0.4c0,0.1-0.1,0.2-0.2,0.3
	L16,25.4c0,0.1-0.1,0.1-0.1,0.2l-0.1,0.1l-0.1,0.1c-0.1,0.3-0.3,0.5-0.5,0.7c0,0.1-0.1,0.1-0.1,0.2c-1.5,2.3-2.7,4.7-3.7,7.2
	c-0.1,0.1-0.1,0.3-0.2,0.5c-0.1,0-0.1,0.1-0.1,0.1c0,0.1,0,0.2-0.1,0.3c-0.1,0.6-0.3,1.1-0.5,1.7c0,0.1,0,0.1,0,0.2
	c0,0.1,0,0.1-0.1,0.2c-0.3,1.5-0.7,3.1-0.9,4.7C8.4,49,9.4,56.2,12.7,62.9c5.6,11.3,14.6,18.4,27,20.8c12.4,2.4,23.4-0.9,32.8-9.4
	c6.6-6,10.5-13.6,11.8-22.4c0.3-1.9,0.4-3.9,0.4-5.9C84.7,45.6,84.6,45.5,84.2,45.5z"/>
<path class="st1" d="M47,3.6C23,3.6,3.6,23,3.6,47S23,90.4,47,90.4c0.5,0,0.9-0.1,1.4-0.1C70.2,89.6,88,72.9,90.2,51.4
	c0.1-1.5,0.2-2.9,0.2-4.4C90.4,23,71,3.6,47,3.6z M75.8,75.8C67.5,84.1,56.5,88,45.7,87.6c-10-0.3-19.9-4.2-27.5-11.9
	C2.3,59.8,2.3,34,18.2,18.1s41.7-15.9,57.6,0c8.4,8.4,12.3,19.6,11.8,30.7C87.2,58.7,83.3,68.3,75.8,75.8z"/>
</svg>
