<?xml version="1.0" encoding="utf-8"?>
<!-- Roman Inozemtsev: https://github.com/mir-one/  -->
<svg version="1.1"
	 id="Слой_1" image-rendering="optimizeQuality" shape-rendering="geometricPrecision" text-rendering="geometricPrecision"
	 xmlns="http://www.w3.org/2000/svg" xmlns:xlink="http://www.w3.org/1999/xlink" x="0px" y="0px" viewBox="0 0 256.7 32.2"
	 style="enable-background:new 0 0 256.7 32.2;" xml:space="preserve">
<style type="text/css">
	.st0{fill:#2A406C;}
	.st1{fill:#FFFFFF;}
	.st2{fill:#21324D;}
</style>
<g>
	<path class="st0" d="M122.4,19.7c-0.7,0.2-1.3,0.6-2.1,0.6c-0.8,0-1-0.2-1-1c-1.2,0.5-2.3,0.9-3.6,1c-0.5,0-1,0.2-1.3-0.4
		c-0.3-0.5,0-1,0.3-1.4c0.7-0.9,1.4-1.8,2.3-2.7c-0.4,0-0.6,0-0.8,0c-0.3-0.1-0.4,0.1-0.5,0.3c-0.2,0.6-0.5,1.1-1,1.4
		c-0.1,0.1-0.3,0.3-0.5,0.1c0.5-0.4,1-0.8,1.1-1.5c0.1-0.3,0.1-0.5-0.3-0.7c-0.4-0.1-0.6-0.4-0.8-0.8c-0.2-0.5,0.1-1,0.5-1.1
		c0.5-0.1,0.9,0.1,1.1,0.6c0,0.2,0.1,0.4,0.1,0.5c0,0.6,0.1,0.7,0.8,0.7c0.6,0,1.2-0.2,1.8-0.5c0.1-0.1,0.3-0.3,0.5-0.1
		c0.1,0.2-0.2,0.2-0.3,0.3c-1.1,1.1-2.1,2.3-2.9,3.7c-0.4,0.7-0.2,0.9,0.6,0.9c1.1-0.1,2.1-0.5,3.1-0.9c0.2-0.1,0.3-0.2,0.4-0.4
		c1-1.2,1.9-2.4,3-3.4c0.2-0.2,0.5-0.4,0.8-0.3c0.5,0.1,0.5,0.3,0.2,0.7c-0.9,1-1.8,2-2.7,3.1c-0.2,0.2-0.4,0.5-0.5,0.7
		c-0.1,0.1-0.2,0.2-0.1,0.3c0.1,0.1,0.2,0.1,0.4,0.1c1-0.1,2-0.6,2.7-1.3c1-1.1,1.9-2.3,2.9-3.3c0.3-0.2,0.5-0.5,0.9-0.3
		c0.4,0.1,0.5,0.3,0.2,0.7c-1,1.1-2,2.2-2.9,3.3c-0.3,0.3-0.5,0.6-0.8,0.9c0,0.1-0.1,0.1-0.1,0.2c0.1,0.1,0.2,0,0.2,0
		c1.4-0.6,2.9-1.2,4.4-1.5c0.2,0,0.3-0.3,0.4-0.4c1.1-1.2,2.1-2.4,3.2-3.6c0.2-0.2,0.5-0.4,0.7-0.6c0.3-0.2,0.5-0.2,0.8-0.1
		c0.3,0.1,0.3,0.3,0.1,0.6c-0.3,0.4-0.7,0.8-1,1.1c0,0-0.1,0.1,0,0.1c0,0,0.1,0,0.1-0.1c0.8-0.3,1.5-0.6,2.4-0.6
		c0.9,0,1.2,0.4,0.8,1.3c-0.2,0.4-0.5,0.8-0.8,1.1c-0.5,0.6-1,1.2-1.5,1.8c-0.2,0.2-0.2,0.4-0.1,0.7c0.1,0.2,0.4,0.2,0.6,0.2
		c1.1,0,2.1-0.4,3.1-0.9c0.7-0.3,1.1-0.7,1.6-1.2c1.1-1.3,2.2-2.6,3.4-3.9c0.2-0.2,0.4-0.4,0.5-0.7c-0.5,0-1,0-1.6,0
		c0.4-0.9,0.5-1,1.4-0.9c0.7,0.1,1.1-0.1,1.6-0.6c0.8-1,1.7-2.1,2.7-3c0.2-0.2,0.4-0.4,0.8-0.3c0.5,0.2,0.6,0.3,0.2,0.8
		c-0.8,0.9-1.6,1.8-2.4,2.8c-0.1,0.1-0.2,0.3-0.4,0.5c0.7,0,1.4,0.1,2.1,0.1c-0.1,0.4-0.3,0.7-0.8,0.6c-1.4-0.3-2.3,0.3-3.2,1.4
		c-1,1.4-2.3,2.7-3.4,4c-0.3,0.3-0.7,0.7-0.4,1.1c0.2,0.4,0.7,0.2,1.1,0.1c1-0.1,1.9-0.5,2.8-0.9c0.2-0.1,0.2-0.2,0.3-0.4
		c0.5-2.2,3.1-3.7,4.6-3.7c0.2,0,0.4,0,0.6,0c0.7,0.1,1,0.4,1,1.1c0,0.4-0.1,0.7-0.2,1.1c-0.2,0.6,0,0.9,0.6,1.1
		c0.4,0.1,0.8,0,1.2-0.2c0.1-0.1,0.2-0.3,0.4-0.1c-0.4,0.7-1.6,0.9-2.4,0.4c-0.3-0.2-0.5-0.1-0.7,0.2c-0.7,1-1.5,1.8-2.8,2.1
		c-1.2,0.2-2-0.2-2.3-1.3c-1,0.5-2.1,0.9-3.2,1.1c-0.3,0.1-0.7,0.1-1,0.1c-1,0.1-1.3-0.3-1.3-1.3c-0.3,0-0.5,0.2-0.7,0.3
		c-1.2,0.6-2.4,0.9-3.7,1c-0.4,0-0.9,0.1-1.2-0.4c-0.3-0.5,0-0.9,0.2-1.2c0.6-0.9,1.4-1.6,2-2.4c0.2-0.2,0.6-0.5,0.4-0.8
		c-0.2-0.3-0.6-0.1-0.9,0c-1.2,0.4-2.1,1.2-2.9,2c-1.9,1.7-3.4,3.7-5.1,5.5c-1,1.1-2,2.2-3,3.4c-0.1,0.1-0.2,0.2-0.4,0.4
		c-0.3,0.2-0.6,0.2-0.8,0c-0.3-0.2-0.1-0.5,0.1-0.7c1.1-1.2,2.2-2.4,3.2-3.7c0.9-1.1,1.9-2.1,2.8-3.2c0.1-0.1,0.2-0.2,0.2-0.4
		c-0.6,0.1-1.2,0.4-1.7,0.6c-2.1,0.7-3.9,1.7-5.2,3.5c-1,1.4-2.2,2.6-3.4,3.8c-0.6,0.6-1.4,1-2.3,0.9c-0.7,0-1.1-0.5-0.8-1.2
		c0.3-0.7,0.8-1.2,1.3-1.6c1.1-1,2.5-1.8,3.8-2.6C120.9,21.5,121.8,20.8,122.4,19.7c0.1,0,0.2,0,0.2-0.1
		C122.5,19.6,122.4,19.6,122.4,19.7z M148.8,15.4c-0.6,0-0.6-0.1-1,0.1c-1.4,0.6-2.4,1.6-2.9,3.1c-0.1,0.3-0.3,0.7,0.1,1
		c0.3,0.3,0.7,0.3,1.1,0.2c1.1-0.3,1.9-1.1,2.4-2.1c0.1-0.1,0.1-0.2,0-0.4C148.2,16.7,148.2,16,148.8,15.4z M120.5,22.1
		c0,0-0.1-0.1-0.1-0.1c-1.2,0.8-2.3,1.5-3.5,2.3c-0.7,0.5-1.3,1-1.7,1.7c-0.1,0.2-0.3,0.5,0,0.8c0.2,0.2,0.5,0.2,0.8,0.1
		c0.4-0.1,0.7-0.4,1-0.6C118.2,24.9,119.3,23.5,120.5,22.1z"/>
	<path class="st0" d="M175.9,19.9c1.2-0.5,2.4-1,3.6-1.3c0.2-0.1,0.3-0.2,0.5-0.4c0.4-0.5,0.9-0.8,1.5-0.6c0.2,0.1,0.4-0.1,0.5-0.2
		c1.5-1,2.9-2.1,4.4-3.1c0.1-0.1,0.2-0.4,0.4-0.1c0.2,0.2-0.1,0.3-0.2,0.4c-0.5,0.5-0.5,1.2-0.5,1.8c-0.1,2.7-2.9,4.6-5.4,3.7
		c-0.8-0.3-1-0.6-1.1-1.4c-1.1,0.3-2.1,0.8-3.2,1.2c-1,0.4-1.9,1-2.6,1.9c-1.3,1.6-2.7,3.1-4.1,4.6c-0.6,0.7-1.5,1.1-2.5,1.1
		c-0.8,0-1.1-0.5-0.8-1.2c0.4-0.8,1-1.4,1.7-1.9c1.1-0.9,2.2-1.6,3.4-2.3c1.1-0.6,1.9-1.4,2.6-2.4c0,0,0.1-0.1,0-0.1
		c-0.1,0-0.1,0-0.1,0c-0.7,0.3-1.3,0.7-2.1,0.6c-0.5,0-0.9,0-1-0.7c0-0.3-0.2-0.1-0.4,0c-0.9,0.3-1.7,0.7-2.6,0.8
		c-1,0.1-1.5-0.3-1.6-1.3c-0.7,0.6-1.5,1.1-2.4,1.3c-1.1,0.1-1.7-0.4-1.6-1.5c0-0.4-0.1-0.5-0.5-0.5c-0.5,0-1-0.2-1.3-0.5
		c-0.2-0.2-0.3-0.2-0.5,0c-1,0.9-2,1.8-3.3,2.3c-0.4,0.2-0.8,0.2-1.2,0.2c-0.7,0-0.9-0.2-1-1c-0.4,0.2-0.7,0.4-1,0.5
		c-0.6,0.3-1.3,0.5-2,0.4c-0.6-0.1-0.9-0.5-0.6-1.1c0.1-0.2,0.1-0.3,0.2-0.4c1-1.3,2.1-2.5,3.2-3.7c0.2-0.2,0.5-0.4,0.8-0.3
		c0.5,0.2,0.5,0.3,0.2,0.7c-0.9,1-1.8,2-2.7,3.1c-0.2,0.2-0.4,0.5-0.5,0.7c-0.1,0.1-0.2,0.2-0.1,0.3c0.1,0.1,0.2,0.1,0.4,0.1
		c1.1-0.2,2.1-0.6,2.8-1.4c1-1.1,1.8-2.2,2.9-3.2c0.3-0.2,0.5-0.4,0.9-0.3c0.4,0.2,0.5,0.3,0.2,0.7c-0.9,1-1.8,2-2.7,3.1
		c-0.1,0.1-0.2,0.2-0.3,0.4c-0.1,0.2-0.5,0.4-0.3,0.7c0.2,0.3,0.6,0.1,0.8,0c1.3-0.4,2.4-1.2,3.3-2.2c0.2-0.2,0.1-0.3,0.1-0.5
		c-0.2-1,0.2-1.8,1-2.1c0.5-0.1,0.7,0,0.6,0.5c-0.1,0.5-0.3,0.9-0.6,1.2c-0.4,0.4-0.2,0.8,0.2,1.1c0.5,0.5,1.2,0.3,1.6-0.2
		c0.8-1.3,1.9-2.2,3.4-2.6c0.3-0.1,0.5-0.1,0.8-0.1c1.2,0,1.5,0.5,1.2,1.6c-0.4,0.3-0.3-0.1-0.3-0.2c0-0.7-0.4-0.9-1-0.8
		c-1.3,0.3-3,2.1-3.2,3.4c-0.1,0.5,0.1,0.8,0.7,0.8c0.4,0,0.8-0.2,1.2-0.4c1.1-0.7,1.9-1.7,2.7-2.6c0.5-0.5,1-1,1.4-1.5
		c0.2-0.2,0.4-0.3,0.7-0.2c0.5,0.1,0.6,0.4,0.2,0.8c-0.7,0.8-1.5,1.7-2.2,2.5c-0.3,0.3-0.5,0.6-0.7,1c-0.2,0.5,0,0.8,0.5,0.8
		c0.5,0,1-0.2,1.5-0.3c0.8-0.2,1.4-0.6,1.9-1.3c0.8-1.1,1.7-2.2,2.8-3.1c0.1-0.1,0.3-0.2,0.4-0.3c0.3-0.2,0.6,0,0.9,0.2
		c0.2,0.2-0.1,0.4-0.2,0.5c-0.9,1.1-1.8,2.1-2.8,3.2c-0.1,0.2-0.2,0.3-0.4,0.5c-0.1,0.1-0.2,0.2-0.1,0.4c0.1,0.1,0.2,0.1,0.3,0.1
		c1-0.1,1.9-0.5,2.6-1.2c0.8-0.8,1.5-1.8,2.3-2.6c0.3-0.3,0.6-0.6,1-0.9c0.2-0.2,0.4-0.2,0.7-0.2c0.5,0.1,0.6,0.3,0.2,0.7
		c-1.1,1.3-2.2,2.5-3.3,3.8c-0.1,0.1-0.2,0.3-0.3,0.4c0,0-0.1,0.1-0.1,0.1C175.8,20,175.9,19.9,175.9,19.9z M172.4,22.1
		C172.4,22.1,172.4,22.1,172.4,22.1c-1.8,1.1-3.6,2-5,3.5c-0.1,0.1-0.2,0.3-0.3,0.5c-0.1,0.2-0.2,0.5,0,0.7c0.2,0.2,0.4,0.2,0.7,0.1
		c0.4-0.1,0.8-0.3,1-0.6C170,24.9,171.2,23.5,172.4,22.1z M185,15.8c-1,0.7-1.9,1.3-2.8,2c-0.1,0-0.2,0.1-0.2,0.2
		c0,0.6-0.4,0.7-0.8,1c-0.2,0.1-0.5,0.1-0.4,0.4c0.1,0.3,0.3,0.3,0.6,0.4c0.2,0,0.4,0,0.5-0.1C183.8,19.2,184.9,17.8,185,15.8z"/>
	<path class="st0" d="M115.2,9.7c1.1,0.2,2-0.9,1.8-1.9c-0.1-0.4-0.6-0.7-1.2-0.6c-1.1,0.2-2,0.6-2.9,1.2c-2.9,1.7-5.3,3.9-6.9,6.9
		c-0.5,1-0.8,2-0.8,3.1c0,0.6,0.3,1,0.9,1.2c0.9,0.2,1.7,0,2.6-0.2c0.7-0.2,1.4-0.5,2.1-0.8c0.1,0.1,0.1,0.2,0,0.2
		c-1.6,1-3.3,1.6-5.2,1.5c-1.1-0.1-1.6-0.8-1.7-1.9c0-1.4,0.5-2.7,1.2-3.9c2.1-3.5,5-6.1,8.8-7.7c0.8-0.3,1.7-0.5,2.6-0.3
		c1.2,0.1,1.8,1.2,1.3,2.3c-0.4,0.9-1.7,1.6-2.6,1.3c-0.5-0.1-0.7-0.5-0.5-0.9c0.2-0.5,0.8-0.8,1.1-0.6c0.3,0.2,0.3,0.4,0,0.6
		C115.6,9.5,115.3,9.4,115.2,9.7z"/>
	<path class="st1" d="M122.4,19.7c0-0.1,0.1-0.1,0.2-0.1C122.5,19.7,122.5,19.7,122.4,19.7C122.4,19.8,122.4,19.7,122.4,19.7z"/>
	<path class="st1" d="M124.1,19.9c-0.1,0.1-0.1,0.1-0.2,0c0-0.1,0.1-0.1,0.1-0.2C124,19.8,124,19.8,124.1,19.9z"/>
	<path class="st1" d="M132.9,15.4c0,0-0.1,0.1-0.1,0.1C132.7,15.4,132.8,15.4,132.9,15.4C132.8,15.3,132.8,15.4,132.9,15.4z"/>
	<path class="st1" d="M174.3,19.7c0-0.1,0.1-0.1,0.1,0C174.4,19.7,174.4,19.7,174.3,19.7C174.3,19.7,174.3,19.7,174.3,19.7z"/>
	<path class="st1" d="M175.9,19.9c-0.1,0-0.1,0.1-0.2,0c0,0,0.1-0.1,0.1-0.1C175.9,19.8,175.9,19.9,175.9,19.9z"/>
</g>
<g>
	<path class="st2" d="M84.2,6.1c-6.1,0-11,4.9-11,11s4.9,11,11,11c0.4,0,0.8,0,1.1-0.1c4.9-0.5,8.9-4.3,9.7-9.2
		c0.1-0.6,0.2-1.2,0.2-1.8C95.2,11,90.3,6.1,84.2,6.1z M84.5,27.1c-0.1,0-0.2,0-0.3,0c-5.6,0-10.1-4.5-10.1-10.1
		c0-5.6,4.5-10.1,10.1-10.1c5.6,0,10.1,4.5,10.1,10.1c0,0.3,0,0.7-0.1,1C93.8,23.1,89.6,27,84.5,27.1z"/>
	<path class="st2" d="M90.9,10.3c-3.7-3.7-9.7-3.7-13.4,0c-3.7,3.7-3.7,9.7,0,13.4c1.8,1.8,4.1,2.7,6.4,2.8c2.5,0.1,5.1-0.8,7-2.8
		c1.7-1.7,2.7-4,2.8-6.3C93.8,14.9,92.9,12.3,90.9,10.3z"/>
	<g>
		<path class="st2" d="M83.5,26.5c-0.4,0-0.8-0.1-1.3-0.2c-1.9-0.4-3.6-1.3-4.9-2.7c-1.4-1.4-2.2-3.1-2.6-5c-0.2-1.1-0.2-2.2,0-3.3
			c0.1-0.7,0.3-1.4,0.6-2.1c0.1-0.1,0.1-0.3,0.2-0.4c0,0,0,0,0,0c0,0,0,0,0,0c0,0,0,0,0,0c0.3-0.7,0.7-1.3,1.2-1.9
			c1.4-1.7,3.2-2.8,5.3-3.3c0.3-0.1,0.5-0.1,0.8-0.1c0.2,0,0.4,0,0.6-0.1c0.1,0,0.2,0,0.3,0c0,0,0.1,0,0.1,0c0.2,0,0.4,0,0.6,0
			c0.1,0,0.1,0,0.2,0c0.1,0,0.2,0,0.3,0c0,0,0.1,0,0.1,0c0.1,0,0.1,0,0.2,0c0,0,0,0,0.1,0c0.2,0.1,0.4,0.1,0.6,0.1c0,0,0,0,0.1,0
			c0,0,0,0,0.1,0c0,0,0,0,0.1,0c0,0,0.1,0,0.1,0c0,0,0,0,0,0c0.1,0,0.1,0,0.2,0c0,0,0,0,0,0c0,0,0,0,0.1,0c0,0,0,0,0,0
			c0,0,0,0,0.1,0c0,0,0,0,0,0c0,0,0,0,0,0c0,0,0,0,0.1,0c0,0,0,0,0,0c0,0,0,0,0.1,0c0,0,0,0,0,0c0,0,0,0,0,0c0,0,0,0,0.1,0
			c0,0,0,0,0,0c0,0,0,0,0,0c0,0,0,0,0,0c0,0,0,0,0,0c0,0,0,0,0.1,0c0,0,0,0,0,0c0.9,0.3,1.8,0.7,2.5,1.3c2,1.5,3.3,3.5,3.8,6
			c0.1,0.3,0.1,0.5,0.1,0.8c0.1,0.5,0.1,0.9,0.1,1.4c-0.1,1.7-0.5,3.4-1.5,4.8c-1.1,1.8-2.7,3.1-4.7,3.8c-0.7,0.3-1.5,0.5-2.2,0.5
			c-0.2,0-0.3,0-0.5,0c-0.1,0-0.3,0-0.4,0c-0.2,0-0.4,0-0.5,0C83.7,26.5,83.6,26.5,83.5,26.5z M78.1,10.7
			C78.1,10.7,78.1,10.7,78.1,10.7L78.1,10.7C78,10.7,78,10.7,78.1,10.7C78,10.7,78,10.7,78.1,10.7C78,10.7,78,10.7,78.1,10.7
			C78,10.7,78,10.7,78.1,10.7C78,10.7,78,10.8,78,10.8l0,0c0,0,0,0,0,0c0,0,0,0,0,0c0,0,0,0,0,0c0,0,0,0,0,0c0,0,0,0,0,0
			c0,0.1-0.1,0.1-0.1,0.1c0,0,0,0,0,0c0,0,0,0.1-0.1,0.1c0,0,0,0,0,0c-0.1,0.1-0.2,0.2-0.2,0.3c0,0,0,0,0,0l0,0l0,0c0,0,0,0,0,0
			c0,0,0,0.1-0.1,0.1c0,0,0,0,0,0l0,0c0,0,0,0,0,0c0,0,0,0.1-0.1,0.1c0,0,0,0,0,0l0,0c-0.1,0-0.1,0-0.1,0.1c0,0,0,0.1-0.1,0.1
			c0,0,0,0,0,0c0,0,0,0,0,0.1c0,0,0,0,0,0c0,0,0,0,0,0c-0.1,0-0.1,0.1-0.1,0.2c0,0,0,0,0,0c0,0-0.1,0-0.1,0.1
			c-0.3,0.5-0.5,0.9-0.8,1.4c0,0.1-0.1,0.1,0,0.2c0,0,0,0.1,0,0.1c0,0,0,0,0,0c0,0,0,0.1,0,0.1c-0.1,0-0.2,0.3-0.2,0.4c0,0,0,0,0,0
			c0,0,0,0,0,0c0,0,0,0,0,0.1l0,0c-0.1,0-0.1,0.1-0.1,0.1c0,0.2-0.1,0.4-0.2,0.6c-0.1,0.5-0.1,1-0.2,1.5c0,0.4,0,0.8,0,1.3
			c0,0.3,0.1,0.6,0.1,0.8c0.1,0.3,0.1,0.6,0.2,0.8c0.1,0.3,0.2,0.5,0.3,0.7c0.1,0.2,0.1,0.3,0.2,0.5c0.2,0.3,0.3,0.6,0.5,0.9
			c0.1,0.2,0.3,0.4,0.4,0.6c0.2,0.2,0.4,0.4,0.6,0.6c0.3,0.3,0.6,0.6,0.9,0.9c0.3,0.2,0.5,0.4,0.8,0.6c0.3,0.2,0.5,0.3,0.8,0.5
			c0.4,0.2,0.7,0.3,1.1,0.5c0.4,0.1,0.7,0.2,1.1,0.3c0.3,0.1,0.6,0.1,0.9,0.1c0.2,0,0.4,0.1,0.7,0c0,0,0.1,0,0.1,0c0,0,0.1,0,0.2,0
			c0.4,0,0.8-0.1,1.2-0.1c0.3,0,0.6-0.1,0.9-0.2c0.3-0.1,0.5-0.1,0.8-0.2c0.2-0.1,0.4-0.2,0.6-0.2c0.3-0.1,0.6-0.3,0.9-0.4
			c0.4-0.2,0.7-0.4,1.1-0.7c0.2-0.2,0.5-0.4,0.7-0.6c0.4-0.4,0.8-0.8,1.1-1.3c0.2-0.3,0.4-0.6,0.6-0.9c0.2-0.4,0.4-0.8,0.6-1.2
			c0.2-0.4,0.3-0.8,0.4-1.3c0.1-0.3,0.1-0.6,0.2-1c0-0.3,0.1-0.6,0-0.8c-0.1-0.5-0.3-0.7-0.8-0.8c-0.3-0.1-0.6,0-0.9,0
			c-0.1,0-0.3,0.1-0.4,0.1c-0.4-0.1-0.8-0.1-1.1,0c-0.2,0.1-0.4,0.2-0.6,0.3c-0.2,0.2-0.3,0.4-0.5,0.7c-0.3,0.4-0.5,0.8-0.9,1.2
			c-0.3,0.3-0.6,0.6-0.9,0.9c-0.2,0.2-0.5,0.2-0.8,0.2c-0.1,0-0.3-0.1-0.4-0.2c-0.2-0.2-0.4-0.5-0.5-0.7c-0.1-0.2-0.3-0.4-0.4-0.6
			c-0.2-0.2-0.3-0.4-0.5-0.6c-0.1-0.1-0.2-0.2-0.3-0.2c-0.2-0.1-0.4-0.1-0.5-0.2c-0.2,0-0.4,0-0.5-0.1c-0.1,0-0.2,0-0.3,0.1
			c-0.1,0-0.1,0-0.2,0c0.1-0.2,0.2-0.4,0.4-0.5c0.3-0.3,0.5-0.3,0.8-0.1c0.2,0.1,0.4,0.3,0.5,0.5c0.4,0.4,0.7,0.9,1.1,1.3
			c0.2,0.2,0.4,0.4,0.7,0.6c0.1,0.1,0.2,0.1,0.3,0.1c0.3,0,0.5-0.2,0.7-0.3c0.3-0.3,0.5-0.6,0.7-0.9c0.1-0.1,0.2-0.3,0.2-0.5
			c-0.1,0.1-0.1,0.2-0.2,0.3c-0.3,0.4-0.5,0.8-0.9,1.1c-0.3,0.3-0.6,0.3-1,0c0,0-0.1-0.1-0.1-0.1c-0.2-0.2-0.4-0.4-0.6-0.7
			c-0.3-0.4-0.6-0.9-1-1.3c-0.2-0.2-0.3-0.3-0.6-0.5c-0.2-0.1-0.4-0.1-0.6,0c-0.2,0.1-0.4,0.3-0.5,0.6c-0.2,0.3-0.4,0.6-0.5,1
			c0,0,0,0,0,0c0,0,0,0,0,0c0,0,0,0,0,0l0,0c-0.1,0-0.1,0-0.1,0.1c-0.1,0.2-0.2,0.3-0.4,0.4c-0.1,0.1-0.3,0.2-0.5,0.1
			c-0.1,0-0.2-0.1-0.3-0.2c-0.1-0.1-0.1-0.2-0.3-0.2c-0.1-0.2-0.2-0.4-0.3-0.6c-0.2-0.4-0.4-0.8-0.6-1.3c0-0.1-0.1-0.1-0.2-0.1
			c-0.2,0-0.3,0-0.5,0c0,0,0,0,0,0c0,0,0,0,0,0c-0.1,0-0.2,0-0.2,0c0-0.1-0.1-0.1-0.2-0.1c0,0-0.1,0-0.1,0c-0.2-0.2-0.3-0.4-0.3-0.6
			c0-0.4,0.1-0.7,0.3-1c0.2-0.5,0.5-0.9,0.8-1.4c0.4-0.5,0.9-0.9,1.4-1.3c0.6-0.4,1.2-0.7,1.9-0.9c0.3-0.1,0.6-0.1,0.9-0.2
			c0.2,0,0.3-0.1,0.5-0.1c0.1-0.1,0.3-0.1,0.4-0.3c0.1,0,0,0,0.1-0.1c0,0,0.1,0,0.1-0.1c0.1-0.1,0.1-0.2,0.1-0.3
			c0-0.1,0.1-0.2,0-0.3c0-0.1,0-0.2-0.1-0.3c0-0.1-0.1-0.3-0.2-0.4c0,0,0-0.1,0-0.1c-0.1-0.1-0.1-0.1-0.2-0.2
			c-0.2-0.1-0.5-0.1-0.7-0.2c-0.1,0-0.2,0-0.3,0c-0.2,0-0.5,0.1-0.7,0.1c-0.3,0-0.6,0.1-0.8,0.2c0,0-0.1,0-0.1,0
			c0.6-0.2,1.2-0.3,1.8-0.4c0.3,0,0.5,0,0.8,0c0,0,0,0,0,0c-0.1,0-0.3,0-0.4,0c-0.1,0-0.2,0-0.4,0.1c-0.1,0-0.1,0-0.2,0c0,0,0,0,0,0
			c-0.5,0.1-1.1,0.2-1.6,0.3c0,0,0,0,0,0c0,0-0.1,0-0.1,0c0,0,0,0,0,0c0,0,0,0,0,0c0,0,0,0,0,0c0,0,0,0,0,0c0,0,0,0-0.1,0
			c0,0,0,0,0,0c0,0-0.1,0-0.1,0l0,0c0,0,0,0-0.1,0c0,0,0,0,0,0c0,0,0,0-0.1,0l0,0c0,0-0.1,0-0.1,0l0,0c0,0,0,0-0.1,0l0,0
			c0,0,0,0-0.1,0c0,0,0,0,0,0c0,0,0,0,0,0c0,0,0,0,0,0c0,0,0,0,0,0c0,0,0,0,0,0c0,0-0.1,0-0.1,0c0,0,0,0,0,0c0,0,0,0,0,0
			c0,0,0,0,0,0c0,0,0,0,0,0c0,0,0,0,0,0c0,0,0,0-0.1,0l0,0c0,0,0,0,0,0c0,0,0,0,0,0c0,0,0,0,0,0c0,0,0,0,0,0c0,0,0,0,0,0
			c0,0,0,0,0,0c0,0,0,0,0,0c0,0,0,0,0,0c0,0,0,0,0,0c0,0,0,0,0,0c0,0,0,0,0,0l0,0c0,0,0,0-0.1,0l0,0c0,0,0,0,0,0c0,0,0,0,0,0
			c0,0,0,0,0,0c0,0,0,0-0.1,0c0,0,0,0,0,0c0,0,0,0,0,0c0,0,0,0,0,0c0,0,0,0,0,0c0,0,0,0,0,0c0,0,0,0,0,0c0,0,0,0,0,0c0,0,0,0,0,0
			c0,0,0,0,0,0l0,0c0,0,0,0,0,0c0,0,0,0,0,0c0,0,0,0,0,0c0,0,0,0,0,0c0,0,0,0,0,0l0,0c0,0,0,0,0,0c0,0,0,0,0,0c0,0,0,0,0,0
			c0,0,0,0,0,0c0,0,0,0,0,0c0,0,0,0-0.1,0c0,0,0,0,0,0c0,0,0,0-0.1,0c-0.3,0.2-0.6,0.4-0.8,0.6c0,0,0,0,0,0
			C78.2,10.5,78.2,10.6,78.1,10.7C78.1,10.6,78.1,10.6,78.1,10.7L78.1,10.7C78.1,10.6,78.1,10.6,78.1,10.7L78.1,10.7z M88.4,17.3
			C88.4,17.3,88.4,17.3,88.4,17.3c0.1-0.2,0.2-0.4,0.3-0.6c0-0.1,0.1-0.2,0.1-0.4C88.6,16.7,88.5,17,88.4,17.3
			C88.3,17.3,88.4,17.3,88.4,17.3z M88.3,17.4C88.3,17.4,88.3,17.4,88.3,17.4C88.3,17.4,88.3,17.4,88.3,17.4
			C88.3,17.4,88.3,17.4,88.3,17.4C88.3,17.4,88.3,17.4,88.3,17.4z"/>
		<path class="st0" d="M75.5,12.8C75.5,12.8,75.5,12.8,75.5,12.8C75.5,12.8,75.5,12.8,75.5,12.8z"/>
		<path class="st0" d="M75.4,12.8C75.4,12.9,75.4,12.9,75.4,12.8C75.4,12.9,75.4,12.8,75.4,12.8z"/>
		<path class="st1" d="M84.4,10.3C84.4,10.4,84.4,10.4,84.4,10.3c-0.5,0.1-1,0.1-1.5,0.2c-3,0.6-5.2,3.1-5.3,6.1
			c-0.1,2,0.6,3.7,2.1,5.1c1.7,1.6,3.7,2.1,5.9,1.6c2.4-0.6,4-2.1,4.8-4.4c0.2-0.5,0.3-1.1,0.3-1.6c0-0.1,0-0.1-0.1-0.1
			c-0.1,0-0.2,0-0.3,0c-0.1,0-0.2,0-0.2,0.1c-0.5,0.9-1.1,1.8-1.8,2.5c-0.4,0.4-0.9,0.7-1.4,0.9c-0.4,0.1-0.8,0-1.1-0.3
			c-0.2-0.2-0.4-0.5-0.6-0.7c-0.3-0.4-0.5-0.8-0.8-1.1c-0.2-0.2-0.3-0.4-0.5-0.5c-0.2-0.1-0.3-0.1-0.4,0c-0.1,0.1-0.2,0.3-0.3,0.4
			c-0.3,0.4-0.5,0.9-0.7,1.3c-0.2,0.3-0.4,0.6-0.7,0.9c-0.2,0.1-0.4,0.1-0.6,0c0,0,0,0-0.1,0l0,0c-0.2-0.2-0.4-0.4-0.6-0.6
			c-0.6-0.8-1.1-1.6-1.5-2.4c-0.2-0.3-0.3-0.6-0.5-0.9c-0.1-0.1-0.1-0.2-0.2-0.4c0.2,0,0.4,0,0.5,0c0.1,0,0.2,0,0.2,0c0,0,0,0,0.1,0
			c0.2,0,0.3,0,0.5,0c0.1,0,0.1,0,0.2,0.1c0.2,0.4,0.3,0.9,0.6,1.3c0.1,0.2,0.2,0.4,0.3,0.6c0.1,0.2,0.2,0.4,0.3,0.6
			c0.1,0.1,0.2,0.3,0.3,0.4c0.1,0.1,0.2,0.1,0.3,0c0,0,0.1-0.1,0.1-0.1c0.2-0.3,0.4-0.7,0.6-1.1c0,0,0,0,0,0c0,0,0,0,0,0
			c0,0,0,0,0,0c0,0,0,0,0,0c0.2-0.3,0.4-0.7,0.5-1c0.1-0.2,0.3-0.4,0.5-0.6c0.2-0.1,0.4-0.1,0.6,0c0.2,0.1,0.4,0.3,0.6,0.5
			c0.4,0.4,0.7,0.8,1,1.3c0.2,0.2,0.4,0.5,0.6,0.7c0,0,0.1,0.1,0.1,0.1c0.3,0.3,0.6,0.3,1,0c0.4-0.3,0.6-0.7,0.9-1.1
			c0.1-0.1,0.1-0.2,0.2-0.3c-0.1,0.2-0.1,0.3-0.2,0.5c-0.2,0.3-0.4,0.7-0.7,0.9c-0.2,0.2-0.4,0.3-0.7,0.3c-0.1,0-0.2,0-0.3-0.1
			c-0.3-0.2-0.5-0.4-0.7-0.6c-0.4-0.4-0.7-0.9-1.1-1.3c-0.2-0.2-0.3-0.4-0.5-0.5c-0.3-0.2-0.5-0.2-0.8,0.1c-0.1,0.1-0.3,0.3-0.4,0.5
			c-0.1,0.2-0.2,0.4-0.3,0.6c-0.2,0.4-0.4,0.8-0.6,1.2c-0.1,0.1-0.2,0.3-0.3,0.4c-0.1,0.1-0.3,0.1-0.4,0c-0.1-0.1-0.2-0.2-0.3-0.3
			c-0.2-0.3-0.4-0.6-0.6-0.9c-0.3-0.5-0.5-1.1-0.8-1.6c0-0.1,0-0.1-0.1-0.1c-0.2,0-0.4,0-0.6,0c-0.1,0-0.1,0,0,0.1
			c0.1,0.1,0.1,0.2,0.2,0.3c0.5,0.9,1,1.9,1.6,2.7c0.2,0.2,0.3,0.4,0.6,0.6c0.2,0.1,0.3,0.1,0.4,0c0.1-0.1,0.2-0.2,0.3-0.3
			c0.2-0.3,0.4-0.7,0.6-1.1c0.2-0.4,0.4-0.7,0.7-1c0.3-0.3,0.7-0.3,1-0.1c0.2,0.2,0.4,0.3,0.5,0.5c0.3,0.4,0.6,0.9,1,1.3
			c0.2,0.2,0.3,0.4,0.5,0.6c0.1,0.1,0.2,0.1,0.4,0.1c0.2,0,0.5-0.1,0.7-0.2c0.4-0.2,0.8-0.6,1.1-1c0.6-0.7,1.1-1.5,1.5-2.3
			c0-0.1,0.1-0.1,0.2-0.1c0.4,0,0.8,0,1.2,0c0.1,0,0.1,0.1,0.1,0.1c0,0.4,0,0.8-0.1,1.2c-0.2,1.6-0.9,3-2.1,4.1
			c-1.6,1.5-3.6,2.1-5.8,1.9c-0.3,0-0.6-0.1-0.8-0.2c-0.8-0.2-1.6-0.6-2.3-1c-0.5-0.4-1-0.8-1.4-1.3c-1.2-1.4-1.8-3.1-1.7-4.9
			c0.1-2.4,1.2-4.3,3.2-5.6c1.1-0.7,2.3-1.1,3.6-1.2c0.1,0,0.1-0.1,0.1-0.2c0-0.1,0-0.1-0.1-0.1c-0.1,0-0.3,0-0.4,0
			c-1.8,0.2-3.3,0.9-4.5,2.2c-1.6,1.7-2.3,3.6-2,5.9c0.2,1.7,0.9,3.2,2.1,4.4c1.9,1.9,4.1,2.6,6.7,2.1c2.5-0.5,4.3-1.9,5.4-4.2
			c0.5-1,0.7-2.1,0.7-3.2c0-0.1,0-0.2,0.2-0.2c0.4,0,0.8,0,1.2,0c0.1,0,0.1,0,0.1,0.1c0,0.5,0,0.9-0.1,1.4c-0.3,2.1-1.2,3.8-2.8,5.2
			c-2.2,2-4.8,2.8-7.7,2.2c-2.9-0.5-5-2.2-6.3-4.9c-0.8-1.6-1-3.3-0.8-5c0.1-0.4,0.1-0.7,0.2-1.1c0,0,0,0,0,0c0,0,0,0,0-0.1
			c0,0,0,0,0,0c0.1-0.1,0.1-0.3,0.1-0.4c0,0,0,0,0-0.1c0,0,0,0,0,0c0,0,0-0.1,0-0.1c0.2-0.6,0.5-1.1,0.9-1.7c0,0,0,0,0,0
			c0,0,0.1-0.1,0.1-0.2c0,0,0,0,0,0c0,0,0,0,0,0c0,0,0,0,0-0.1c0,0,0,0,0,0c0,0,0-0.1,0.1-0.1c0,0,0.1-0.1,0.1-0.1c0,0,0,0,0,0
			c0,0,0,0,0,0c0,0,0-0.1,0.1-0.1c0,0,0,0,0,0c0,0,0,0,0,0c0,0,0,0,0,0c0,0,0-0.1,0.1-0.1c0,0,0,0,0,0l0,0c0,0,0,0,0,0c0,0,0,0,0,0
			c0.1-0.1,0.2-0.2,0.2-0.3c0,0,0,0,0,0c0,0,0.1,0,0.1-0.1c0,0,0,0,0,0c0.1,0,0.1-0.1,0.1-0.1c0,0,0,0,0,0c0,0,0,0,0,0c0,0,0,0,0,0
			c0,0,0,0,0,0c0,0,0,0,0,0c0,0,0,0,0,0c0,0,0,0,0,0c0,0,0,0,0,0c0,0,0,0,0,0c0,0,0,0,0,0c0,0,0,0,0,0c0,0,0,0,0,0c0,0,0,0,0,0
			c0,0,0,0,0,0c0,0,0,0,0,0l0,0c0,0,0,0,0,0c0.1,0,0.1-0.1,0.2-0.2c0,0,0,0,0,0c0.3-0.2,0.5-0.5,0.8-0.6c0,0,0,0,0.1,0c0,0,0,0,0,0
			c0,0,0,0,0.1,0c0,0,0,0,0,0c0,0,0,0,0,0c0,0,0,0,0,0c0,0,0,0,0,0c0,0,0,0,0,0c0,0,0,0,0,0c0,0,0,0,0,0c0,0,0,0,0,0c0,0,0,0,0,0
			c0,0,0,0,0,0c0,0,0,0,0,0c0,0,0,0,0,0c0,0,0,0,0,0c0,0,0,0,0,0c0,0,0,0,0,0c0,0,0,0,0,0c0,0,0,0,0,0c0,0,0,0,0,0c0,0,0,0,0,0
			c0,0,0,0,0,0c0,0,0,0,0,0s0,0,0,0c0,0,0,0,0.1,0c0,0,0,0,0,0c0,0,0,0,0,0c0,0,0,0,0,0c0,0,0,0,0,0c0,0,0,0,0.1,0c0,0,0,0,0,0
			c0,0,0,0,0,0c0,0,0,0,0,0c0,0,0,0,0,0c0,0,0,0,0,0c0,0,0,0,0,0c0,0,0,0,0,0c0,0,0,0,0,0c0,0,0,0,0,0c0,0,0,0,0,0c0,0,0,0,0,0
			c0,0,0,0,0,0c0,0,0,0,0,0c0,0,0,0,0.1,0c0,0,0,0,0,0c0,0,0,0,0,0c0,0,0,0,0,0c0,0,0,0,0,0c0,0,0,0,0,0c0,0,0.1,0,0.1,0
			c0,0,0,0,0,0c0,0,0,0,0,0c0,0,0,0,0,0c0,0,0,0,0,0c0,0,0,0,0,0c0,0,0,0,0.1,0c0,0,0,0,0,0c0,0,0,0,0.1,0c0,0,0,0,0,0
			c0,0,0.1,0,0.1,0c0,0,0,0,0,0c0,0,0,0,0.1,0c0,0,0,0,0,0c0,0,0,0,0.1,0c0,0,0,0,0,0c0,0,0.1,0,0.1,0c0,0,0,0,0,0c0,0,0,0,0.1,0
			c0,0,0,0,0,0c0,0,0,0,0,0c0,0,0,0,0,0c0,0,0,0,0,0c0,0,0.1,0,0.1,0c0,0,0,0,0,0c0.5-0.2,1.1-0.3,1.6-0.3c0,0,0,0,0,0
			c0.1,0,0.1,0,0.2,0c0,0,0,0,0,0c-0.6,0.1-1.2,0.2-1.8,0.4c0,0-0.1,0-0.1,0c-1.1,0.4-2.2,1-3.1,1.8c-0.6,0.5-1.1,1.1-1.5,1.8
			c-0.5,0.9-0.9,1.8-1.1,2.8c-0.3,1.3-0.2,2.6,0.1,3.9c0.4,1.4,1.1,2.6,2,3.6c0.6,0.6,1.3,1.2,2.1,1.6c1.7,0.9,3.6,1.2,5.5,0.9
			c1.1-0.2,2.2-0.6,3.2-1.3c0.5-0.3,0.9-0.7,1.3-1.1c0.5-0.5,0.9-1,1.2-1.5c0.3-0.5,0.6-1.1,0.8-1.6c0.1-0.3,0.2-0.6,0.3-1
			c0.1-0.4,0.2-0.8,0.2-1.3c0-0.3,0-0.3-0.2-0.3c-0.1,0-0.1,0-0.1,0.1c0,1.1-0.3,2.2-0.8,3.2c-1.5,2.7-3.7,4.2-6.8,4.4
			c-1.4,0.1-2.7-0.2-4-0.8c-2.8-1.4-4.5-4.3-4.4-7.5c0.1-1.6,0.5-3,1.5-4.4c0.6-0.8,1.3-1.5,2.1-2.1c0.2-0.2,0.5-0.3,0.8-0.5
			c0.9-0.5,1.9-0.8,2.9-0.9c0.4,0,0.7,0,1.1-0.1c0,0,0,0.1,0,0.1C84.4,9.4,84.4,9.9,84.4,10.3z"/>
		<path class="st2" d="M75.7,14.7c-0.1,0.4-0.2,0.7-0.2,1.1c-0.2,1.7,0,3.4,0.8,5c1.3,2.6,3.4,4.3,6.3,4.9c2.9,0.6,5.5-0.2,7.7-2.2
			c1.5-1.4,2.4-3.2,2.8-5.2c0.1-0.5,0.1-0.9,0.1-1.4c0-0.1,0-0.1-0.1-0.1c-0.4,0-0.8,0-1.2,0c-0.1,0-0.2,0-0.2,0.2
			c0,1.1-0.2,2.2-0.7,3.2c-1.1,2.3-2.9,3.7-5.4,4.2c-2.6,0.5-4.8-0.3-6.7-2.1c-1.2-1.2-1.9-2.7-2.1-4.4c-0.2-2.3,0.5-4.3,2-5.9
			c1.2-1.3,2.7-2,4.5-2.2c0.1,0,0.3,0,0.4,0c0.1,0,0.1,0,0.1,0.1c0,0.1,0.1,0.2-0.1,0.2c-1.3,0.1-2.5,0.5-3.6,1.2
			c-2,1.4-3.1,3.2-3.2,5.6c-0.1,1.8,0.5,3.5,1.7,4.9c0.4,0.5,0.9,0.9,1.4,1.3c0.7,0.5,1.5,0.8,2.3,1c0.3,0.1,0.6,0.1,0.8,0.2
			c2.2,0.2,4.2-0.4,5.8-1.9c1.2-1.1,1.9-2.5,2.1-4.1c0.1-0.4,0.1-0.8,0.1-1.2c0-0.1,0-0.1-0.1-0.1c-0.4,0-0.8,0-1.2,0
			c-0.1,0-0.1,0-0.2,0.1c-0.4,0.8-0.9,1.6-1.5,2.3c-0.3,0.4-0.7,0.7-1.1,1c-0.2,0.1-0.4,0.2-0.7,0.2c-0.1,0-0.3,0-0.4-0.1
			c-0.2-0.2-0.4-0.4-0.5-0.6c-0.3-0.4-0.6-0.9-1-1.3c-0.2-0.2-0.3-0.4-0.5-0.5c-0.3-0.2-0.7-0.3-1,0.1c-0.3,0.3-0.5,0.7-0.7,1
			c-0.2,0.4-0.4,0.7-0.6,1.1c-0.1,0.1-0.2,0.2-0.3,0.3c-0.2,0.1-0.3,0.1-0.4,0c-0.2-0.2-0.4-0.4-0.6-0.6c-0.6-0.9-1.1-1.8-1.6-2.7
			c-0.1-0.1-0.1-0.2-0.2-0.3c0-0.1,0-0.1,0-0.1c0.2,0,0.4,0,0.6,0c0.1,0,0.1,0.1,0.1,0.1c0.2,0.5,0.5,1.1,0.8,1.6
			c0.2,0.3,0.3,0.6,0.6,0.9c0.1,0.1,0.2,0.2,0.3,0.3c0.1,0.1,0.3,0.1,0.4,0c0.1-0.1,0.2-0.2,0.3-0.4c0.2-0.4,0.4-0.8,0.6-1.2
			c0.1-0.2,0.2-0.4,0.3-0.6c0.1,0,0.1,0,0.2,0c0.1-0.1,0.2-0.1,0.3-0.1c0.2,0,0.4,0,0.5,0.1c0.2,0.1,0.4,0.1,0.5,0.2
			c0.1,0,0.2,0.2,0.3,0.2c0.2,0.2,0.4,0.4,0.5,0.6c0.2,0.2,0.3,0.4,0.4,0.6c0.1,0.3,0.3,0.5,0.5,0.7c0.1,0.1,0.2,0.1,0.4,0.2
			c0.3,0,0.5,0,0.8-0.2c0.3-0.2,0.6-0.5,0.9-0.9c0.3-0.4,0.6-0.8,0.9-1.2c0.2-0.2,0.3-0.5,0.5-0.7c0.2-0.2,0.4-0.3,0.6-0.3
			c0.4-0.1,0.7-0.1,1.1,0c0.1,0,0.3,0,0.4-0.1c0.3,0,0.6-0.1,0.9,0c0.4,0.1,0.7,0.3,0.8,0.8c0.1,0.3,0,0.6,0,0.8
			c0,0.3-0.1,0.6-0.2,1c-0.1,0.4-0.2,0.8-0.4,1.3c-0.2,0.4-0.4,0.8-0.6,1.2c-0.2,0.3-0.4,0.6-0.6,0.9c-0.3,0.5-0.7,0.9-1.1,1.3
			c-0.2,0.2-0.5,0.4-0.7,0.6c-0.3,0.3-0.7,0.5-1.1,0.7c-0.3,0.2-0.6,0.3-0.9,0.4c-0.2,0.1-0.4,0.2-0.6,0.2c-0.3,0.1-0.5,0.2-0.8,0.2
			c-0.3,0.1-0.6,0.1-0.9,0.2c-0.4,0-0.8,0.1-1.2,0.1c-0.1,0-0.1,0-0.2,0c0,0-0.1,0-0.1,0c-0.2,0-0.4,0-0.7,0c-0.3,0-0.6-0.1-0.9-0.1
			c-0.4-0.1-0.7-0.2-1.1-0.3c-0.4-0.1-0.7-0.3-1.1-0.5c-0.3-0.1-0.5-0.3-0.8-0.5c-0.3-0.2-0.5-0.4-0.8-0.6c-0.3-0.3-0.7-0.6-0.9-0.9
			c-0.2-0.2-0.4-0.4-0.6-0.6c-0.2-0.2-0.3-0.4-0.4-0.6c-0.2-0.3-0.3-0.6-0.5-0.9c-0.1-0.1-0.1-0.3-0.2-0.5c-0.1-0.2-0.2-0.5-0.3-0.7
			c-0.1-0.3-0.1-0.5-0.2-0.8c-0.1-0.3-0.1-0.5-0.1-0.8c-0.1-0.4-0.1-0.8,0-1.3c0-0.5,0.1-1,0.2-1.5C75.5,15.2,75.5,15,75.7,14.7
			C75.6,14.7,75.6,14.7,75.7,14.7z"/>
		<path class="st2" d="M78.8,16.2c-0.2,0-0.3,0-0.5,0c0.1,0.1,0.1,0.3,0.2,0.4c0.2,0.3,0.3,0.6,0.5,0.9c0.4,0.8,0.9,1.7,1.5,2.4
			c0.2,0.2,0.4,0.4,0.6,0.6c-0.1,0-0.1,0-0.2,0c-0.1-0.1-0.3-0.2-0.4-0.3c-0.4-0.4-0.7-0.8-1-1.3c-0.2-0.3-0.4-0.7-0.6-1
			c-0.1-0.1-0.2-0.2-0.3-0.3c-0.2-0.1-0.3-0.1-0.4,0.1c0,0.1-0.1,0.3,0,0.4c0.1,0.4,0.1,0.8,0.3,1.2c0.2,0.4,0.4,0.8,0.6,1.1
			c0.2,0.3,0.5,0.6,0.8,0.9c0.3,0.3,0.5,0.5,0.8,0.7c0.3,0.2,0.7,0.4,1.1,0.6c0.5,0.2,1.1,0.4,1.7,0.4c0.4,0.1,0.9,0.1,1.3,0
			c0.1,0,0.3,0,0.4,0c0.2,0,0.3-0.1,0.5-0.1c0.3,0,0.5-0.2,0.8-0.2c0.3-0.1,0.5-0.3,0.8-0.4c0.2-0.1,0.3-0.2,0.4-0.3
			c0.6-0.4,1-0.9,1.4-1.5c0.2-0.3,0.4-0.7,0.5-1.1c0-0.1,0-0.2-0.1-0.2c-0.1-0.1-0.1,0-0.2,0c-0.2,0.1-0.4,0.3-0.6,0.5
			c-0.2,0.2-0.4,0.4-0.6,0.5c-0.3,0.2-0.6,0.4-1,0.6c-0.2,0.1-0.5,0.1-0.7,0.1c-0.3,0-0.6-0.2-0.9-0.4c-0.3-0.2-0.5-0.5-0.7-0.7
			c-0.2-0.3-0.4-0.6-0.7-0.9c-0.4-0.3-0.8-0.3-1.1,0.1C83,19.1,83,19.2,83,19.2c-0.2,0.2-0.3,0.5-0.5,0.7c-0.1,0.1-0.2,0.2-0.3,0.4
			c-0.1,0.1-0.3,0.2-0.4,0.3c0,0-0.1,0-0.1,0c0.3-0.2,0.5-0.5,0.7-0.9c0.2-0.4,0.5-0.9,0.7-1.3c0.1-0.2,0.2-0.3,0.3-0.4
			c0.1-0.1,0.2-0.1,0.4,0c0.2,0.1,0.4,0.3,0.5,0.5c0.3,0.4,0.5,0.7,0.8,1.1c0.2,0.3,0.4,0.5,0.6,0.7c0.3,0.3,0.7,0.4,1.1,0.3
			c0.6-0.2,1-0.5,1.4-0.9c0.8-0.7,1.3-1.6,1.8-2.5c0.1-0.1,0.1-0.1,0.2-0.1c0.1,0,0.2,0,0.3,0c0.1,0,0.1,0,0.1,0.1
			c0,0.5-0.1,1.1-0.3,1.6c-0.8,2.3-2.4,3.9-4.8,4.4c-2.2,0.5-4.2,0-5.9-1.6c-1.5-1.4-2.2-3.1-2.1-5.1c0.1-3,2.4-5.5,5.3-6.1
			c0.5-0.1,1-0.1,1.5-0.1c-0.1,0.2-0.2,0.2-0.4,0.3c-0.2,0.1-0.3,0.1-0.5,0.1c-0.3,0.1-0.6,0.1-0.9,0.2c-0.7,0.2-1.3,0.5-1.9,0.9
			c-0.5,0.4-1,0.8-1.4,1.3c-0.3,0.4-0.6,0.9-0.8,1.4c-0.1,0.3-0.3,0.7-0.3,1c0,0.2,0.1,0.5,0.3,0.6c0,0,0.1,0,0.1,0
			C78.7,16.1,78.7,16.1,78.8,16.2z"/>
		<path class="st2" d="M84.4,8.9c-0.4,0-0.7,0-1.1,0.1c-1,0.1-2,0.4-2.9,0.9c-0.3,0.1-0.5,0.3-0.8,0.5c-0.8,0.6-1.5,1.2-2.1,2.1
			c-0.9,1.3-1.4,2.8-1.5,4.4c-0.1,3.1,1.6,6.1,4.4,7.5c1.3,0.6,2.6,0.9,4,0.8c3.1-0.2,5.3-1.7,6.8-4.4c0.5-1,0.8-2.1,0.8-3.2
			c0-0.1,0-0.1,0.1-0.1c0.3,0,0.3,0,0.2,0.3c0,0.4-0.1,0.9-0.2,1.3c-0.1,0.3-0.2,0.6-0.3,1c-0.2,0.6-0.5,1.1-0.8,1.6
			c-0.3,0.6-0.8,1.1-1.2,1.5c-0.4,0.4-0.8,0.8-1.3,1.1c-1,0.7-2,1.1-3.2,1.3c-1.9,0.3-3.8,0-5.5-0.9c-0.8-0.4-1.5-1-2.1-1.6
			c-1-1-1.7-2.3-2-3.6c-0.4-1.3-0.4-2.6-0.1-3.9c0.2-1,0.6-1.9,1.1-2.8c0.4-0.7,0.9-1.3,1.5-1.8c0.9-0.8,1.9-1.4,3.1-1.8
			c0,0,0.1,0,0.1,0c0,0.1,0.1,0.1,0.1,0c0.3-0.1,0.6-0.1,0.8-0.2c0.2,0,0.5-0.1,0.7-0.1c0.1,0,0.2,0,0.3,0c0.2,0,0.5,0.1,0.7,0.2
			C84.3,8.7,84.3,8.8,84.4,8.9z"/>
		<path class="st2" d="M82.2,18c-0.2,0.4-0.4,0.7-0.6,1.1c0,0-0.1,0.1-0.1,0.1c-0.1,0.1-0.2,0.1-0.3,0c-0.1-0.1-0.2-0.2-0.3-0.4
			c-0.1-0.2-0.2-0.4-0.3-0.6c0.1,0,0.2,0.1,0.3,0.2c0.1,0.1,0.2,0.2,0.3,0.2c0.2,0,0.3,0,0.5-0.1c0.2-0.1,0.3-0.3,0.4-0.4
			C82.1,18.1,82.1,18,82.2,18z"/>
		<path class="st0" d="M76.8,12.2c-0.3,0.5-0.6,1.1-0.9,1.7c-0.1-0.1,0-0.2,0-0.2C76.1,13.2,76.4,12.7,76.8,12.2
			C76.7,12.2,76.7,12.2,76.8,12.2z"/>
		<path class="st2" d="M88.3,17.3c0.1-0.3,0.3-0.6,0.4-0.9c0,0.1-0.1,0.2-0.1,0.4C88.6,16.9,88.5,17.1,88.3,17.3
			C88.4,17.3,88.4,17.3,88.3,17.3C88.4,17.3,88.4,17.3,88.3,17.3z"/>
		<path class="st0" d="M75.8,14.2c0,0.1-0.1,0.3-0.1,0.4c0,0,0,0,0,0C75.6,14.4,75.8,14.2,75.8,14.2z"/>
		<path class="st0" d="M76.9,12c0,0.1-0.1,0.1-0.1,0.2C76.8,12.1,76.8,12,76.9,12z"/>
		<path class="st0" d="M77.1,11.7c0,0,0,0.1-0.1,0.1C77,11.8,77,11.7,77.1,11.7z"/>
		<path class="st0" d="M79,16.2C79,16.2,79,16.2,79,16.2C79,16.2,79,16.2,79,16.2C79,16.2,79,16.2,79,16.2z"/>
		<path class="st0" d="M78.3,10.4C78.3,10.4,78.3,10.4,78.3,10.4C78.3,10.4,78.3,10.4,78.3,10.4z"/>
		<path class="st0" d="M75.7,14.6C75.7,14.6,75.7,14.6,75.7,14.6C75.7,14.6,75.7,14.6,75.7,14.6z"/>
		<path class="st0" d="M78,10.7C78,10.7,78,10.7,78,10.7C78,10.7,78,10.7,78,10.7z"/>
		<path class="st0" d="M78,10.7C78,10.7,78,10.7,78,10.7C78,10.7,78,10.7,78,10.7z"/>
		<path class="st0" d="M78,10.7C78,10.8,78,10.8,78,10.7C78,10.8,78,10.7,78,10.7z"/>
		<path class="st0" d="M78,10.8C78,10.8,78,10.8,78,10.8C77.9,10.8,78,10.8,78,10.8z"/>
		<path class="st0" d="M77.9,10.8C77.9,10.8,77.9,10.8,77.9,10.8C77.9,10.8,77.9,10.8,77.9,10.8z"/>
		<path class="st0" d="M77.9,10.8C77.9,10.9,77.9,10.9,77.9,10.8C77.9,10.9,77.9,10.8,77.9,10.8z"/>
		<path class="st0" d="M77.7,11C77.7,11,77.7,11,77.7,11C77.7,11,77.7,11,77.7,11z"/>
		<path class="st0" d="M77.6,11.1C77.6,11.1,77.6,11.1,77.6,11.1C77.6,11.1,77.6,11.1,77.6,11.1z"/>
		<path class="st0" d="M77.4,11.4C77.4,11.4,77.3,11.4,77.4,11.4C77.3,11.4,77.4,11.4,77.4,11.4z"/>
		<path class="st0" d="M77.3,11.4C77.3,11.5,77.3,11.5,77.3,11.4C77.3,11.5,77.3,11.5,77.3,11.4z"/>
		<path class="st0" d="M77.2,11.6C77.2,11.6,77.2,11.6,77.2,11.6C77.2,11.6,77.2,11.6,77.2,11.6z"/>
		<path class="st0" d="M77.2,11.6C77.2,11.6,77.2,11.6,77.2,11.6C77.2,11.6,77.2,11.6,77.2,11.6z"/>
		<path class="st0" d="M77.1,11.7C77.1,11.7,77.1,11.7,77.1,11.7C77.1,11.7,77.1,11.7,77.1,11.7z"/>
		<path class="st0" d="M77,11.9C77,11.9,77,11.9,77,11.9C77,11.9,77,11.9,77,11.9z"/>
		<path class="st0" d="M76.9,12C76.9,12,76.9,12,76.9,12C76.9,12,76.9,12,76.9,12z"/>
		<path class="st0" d="M75.9,14C75.9,14.1,75.8,14.1,75.9,14C75.8,14.1,75.9,14.1,75.9,14z"/>
		<path class="st1" d="M88.3,17.3C88.4,17.3,88.4,17.3,88.3,17.3C88.4,17.3,88.3,17.3,88.3,17.3z"/>
		<path class="st1" d="M88.3,17.4C88.3,17.4,88.3,17.4,88.3,17.4C88.3,17.4,88.3,17.4,88.3,17.4C88.3,17.4,88.3,17.4,88.3,17.4
			C88.3,17.4,88.3,17.4,88.3,17.4z"/>
		<path class="st0" d="M82.2,17.9C82.2,17.9,82.2,18,82.2,17.9C82.2,18,82.2,17.9,82.2,17.9z"/>
		<path class="st0" d="M82.2,18C82.2,18,82.2,18,82.2,18C82.2,18,82.2,18,82.2,18z"/>
		<path class="st0" d="M78.1,10.6C78.1,10.6,78.1,10.6,78.1,10.6C78.1,10.6,78.1,10.6,78.1,10.6z"/>
		<path class="st0" d="M78.1,10.6C78.1,10.6,78.1,10.7,78.1,10.6C78.1,10.6,78.1,10.6,78.1,10.6z"/>
		<path class="st0" d="M78.1,10.7C78.1,10.7,78.1,10.7,78.1,10.7C78.1,10.7,78.1,10.7,78.1,10.7z"/>
		<path class="st2" d="M81.6,20.6c0,0,0.1,0,0.1,0c0.1-0.1,0.3-0.2,0.4-0.3c0.1-0.1,0.2-0.2,0.3-0.4c0.2-0.2,0.3-0.5,0.5-0.7
			c0.1-0.1,0.1-0.1,0.1-0.2c0.3-0.4,0.7-0.5,1.1-0.1c0.3,0.3,0.5,0.6,0.7,0.9c0.2,0.3,0.4,0.5,0.7,0.7c0.3,0.2,0.6,0.4,0.9,0.4
			c0.2,0,0.5,0,0.7-0.1c0.3-0.1,0.7-0.3,1-0.6c0.2-0.2,0.4-0.4,0.6-0.5c0.2-0.2,0.3-0.3,0.6-0.5c0.1,0,0.1-0.1,0.2,0
			c0.1,0.1,0.1,0.1,0.1,0.2c-0.1,0.4-0.3,0.8-0.5,1.1c-0.4,0.6-0.9,1-1.4,1.5c-0.1,0.1-0.3,0.2-0.4,0.3c-0.3,0.1-0.5,0.3-0.8,0.4
			c-0.3,0.1-0.5,0.2-0.8,0.2c-0.2,0-0.3,0.1-0.5,0.1c-0.1,0-0.3,0-0.4,0c-0.4,0.1-0.9,0.1-1.3,0c-0.6-0.1-1.2-0.2-1.7-0.4
			c-0.4-0.2-0.8-0.4-1.1-0.6c-0.3-0.2-0.6-0.4-0.8-0.7c-0.3-0.3-0.5-0.6-0.8-0.9c-0.3-0.3-0.4-0.7-0.6-1.1c-0.2-0.4-0.3-0.8-0.3-1.2
			c0-0.1,0-0.3,0-0.4c0.1-0.2,0.2-0.3,0.4-0.1c0.1,0.1,0.2,0.2,0.3,0.3c0.2,0.3,0.4,0.7,0.6,1c0.3,0.5,0.6,0.9,1,1.3
			c0.1,0.1,0.3,0.2,0.4,0.3c0.1,0,0.1,0,0.2,0c0,0,0,0,0,0c0,0,0,0,0.1,0C81.2,20.7,81.4,20.7,81.6,20.6z"/>
		<path class="st0" d="M81,20.6C81,20.6,81,20.6,81,20.6C81,20.6,81,20.6,81,20.6z"/>
	</g>
	<path class="st1" d="M84.2,6.9c-5.6,0-10.1,4.5-10.1,10.1c0,5.6,4.5,10.1,10.1,10.1c0.1,0,0.2,0,0.3,0c5.1-0.2,9.2-4.1,9.8-9.1
		c0-0.3,0.1-0.7,0.1-1C94.3,11.4,89.8,6.9,84.2,6.9z M90.9,23.7c-1.9,1.9-4.5,2.8-7,2.8c-2.3-0.1-4.6-1-6.4-2.8
		c-3.7-3.7-3.7-9.7,0-13.4c3.7-3.7,9.7-3.7,13.4,0c2,2,2.9,4.6,2.8,7.2C93.6,19.7,92.7,22,90.9,23.7z"/>
</g>
</svg>
