<?xml version="1.0" encoding="utf-8"?>
<!-- Roman Inozemtsev: https://github.com/mir-one/  -->
<svg version="1.1"
	 id="Слой_1" shape-rendering="geometricPrecision" image-rendering="optimizeQuality" text-rendering="geometricPrecision"
	 xmlns="http://www.w3.org/2000/svg" xmlns:xlink="http://www.w3.org/1999/xlink" x="0px" y="0px" viewBox="0 0 256.7 32.2"
	 style="enable-background:new 0 0 256.7 32.2;" xml:space="preserve">
<style type="text/css">
	.st0{fill:#EEC718;}
	.st1{fill:#392316;}
</style>
<path class="st0" d="M79.2,13.8L79.2,13.8L79.2,13.8l-1.8,3.5h-2.3h-2.3l-1.8-3.4h0l0,0l1.8-3.4h2.3h2.3L79.2,13.8z M93.3,21.3
	L93.3,21.3L93.3,21.3l-1.8-3.5h-2.3h-2.3L85,21.3l0,0l0,0l1.8,3.4h2.3h2.3L93.3,21.3z M86.3,24.9L86.3,24.9L86.3,24.9l-1.8-3.5h-2.3
	h-2.3L78,24.8l0,0l0,0l1.8,3.4h2.3h2.3L86.3,24.9z M79.2,21.3L79.2,21.3L79.2,21.3l-1.8-3.5h-2.3h-2.3l-1.8,3.4l0,0l0,0l1.8,3.4h2.3
	h2.3L79.2,21.3z M93.3,13.8L93.3,13.8L93.3,13.8l-1.8,3.5h-2.3h-2.3L85,13.8l0,0l0,0l1.8-3.4h2.3h2.3L93.3,13.8z M86.2,17.6
	L86.2,17.6L86.2,17.6l-1.8,3.5h-2.3h-2.3L78,17.6l0,0l0,0l1.8-3.4h2.3h2.3L86.2,17.6z M86.3,10.2L86.3,10.2L86.3,10.2l-1.8,3.5h-2.3
	h-2.3L78,10.3l0,0l0,0l1.8-3.4h2.3h2.3L86.3,10.2z"/>
<path class="st1" d="M83.2,11.3c0,0.2,0.1,0.5,0.2,0.7c0.1,0.5,0.2,1,0.4,1.6c0.1,0,0.3,0.1,0.4,0.2c0.6-0.3,1.2-0.5,1.8-0.8
	c0.1,0,0.2-0.1,0.2-0.2c0.2,0,0.3-0.1,0.5,0c0.1,0,0.1,0.3,0.1,0.4c-0.1,0.1-0.3,0.2-0.4,0.2c-0.7-0.1-1.2,0.2-1.7,0.6
	c0,0,0,0.2,0,0.3c0,0.1,0.1,0.2,0.1,0.3c0.2,0.6,0.1,1-0.5,1.5c0.2,0,0.3,0.1,0.4,0.1c0.2,0,0.4-0.1,0.6-0.2
	c0.5-0.1,0.6-0.4,0.7-0.8c0.1-0.4,0.7-0.9,1.2-0.8c0,0.1,0,0.2-0.1,0.2c-0.5,0.2-0.7,0.6-0.8,1.1c-0.2,0.5-0.5,0.8-1,0.9
	c-0.2,0-0.4,0.1-0.6,0.3c0.6,0,1.3,0,1.9,0.1c0.4,0,0.8,0.1,1.2,0.2c0.7,0.2,1.1,0.7,1,1.3c0,0.6-0.6,1-1.2,1.1
	c-0.3,0-0.5,0.1-0.7,0.4c-0.3,0.4-0.7,0.5-1.2,0.3c-0.8-0.3-1.4-0.8-1.9-1.4c-0.1-0.1-0.2-0.3-0.4-0.5c-0.1,0.2-0.1,0.4-0.2,0.5
	c0,0.1,0,0.2,0.1,0.2c0.7,0.7,0.8,1.5,0.5,2.4c-0.2,0.7-0.1,1.2,0.5,1.7c0,0,0.1,0.1,0.1,0.2c0,0-0.1,0.1-0.1,0.1
	c-0.7-0.2-1-0.8-0.9-1.4c0.1-0.5,0.1-1,0.1-1.5c0-0.3-0.2-0.5-0.3-0.7c0,0-0.1,0-0.2,0c0,0.2,0,0.3,0.1,0.5c0.2,0.4,0.2,0.7,0,1.1
	c-0.3,0.5-0.5,1-0.7,1.5c-0.2,0.4-0.4,0.8-0.1,1.3c-0.4,0-0.6-0.3-0.5-0.7c0-0.2,0.1-0.3,0.2-0.5c0.3-0.7,0.5-1.4,0.8-2
	c0,0,0-0.1,0-0.3c-0.1,0.2-0.2,0.3-0.3,0.4c-0.6,0.8-1.4,1.3-2.3,1.6c-0.5,0.2-0.6,0.1-0.8-0.4c-0.3-1-0.4-2-0.1-2.9
	c0-0.1,0-0.2,0-0.3c-0.1,0.1-0.2,0.2-0.2,0.3c-0.3,0.6-0.7,1.3-1,1.9c-0.2,0.4-0.8,0.6-1.5,0.5c0.3-0.1,0.5-0.2,0.7-0.3
	c0.2-0.1,0.3-0.2,0.4-0.4c0.3-0.7,0.7-1.4,1-2c0.1-0.3,0.3-0.4,0.6-0.5c0.2,0,0.4-0.2,0.6-0.3c-0.4-0.1-0.7-0.2-1,0.2
	c-0.3,0.4-0.7,0.7-1.1,1.1c-0.1,0.1-0.3,0.2-0.5,0.2c-0.4,0-0.8-0.1-1.1-0.2c0,0,0-0.1,0-0.2c0.3,0,0.5,0,0.8,0
	c0.2,0,0.4-0.1,0.6-0.3c0.1-0.1,0.3-0.2,0.3-0.4c0.6-0.8,1.3-1.3,2.3-1.1c0.1,0,0.2,0,0.2,0c0.1-0.1,0.1-0.2,0.2-0.3
	c-0.1,0-0.2-0.1-0.3-0.1c-0.7,0.1-1.4,0-2.1-0.3c-0.2-0.1-0.5-0.2-0.7-0.4c-0.2-0.2-0.4-0.5-0.3-0.7c0.2-0.6-0.1-1-0.3-1.5
	c-0.2-0.5,0-1,0.4-1.3c0.4-0.3,1-0.3,1.5,0.1c0.5,0.4,0.9,0.8,1.3,1.3c0.3,0.3,0.6,0.7,1,1c-0.1-0.3-0.3-0.7-0.3-1
	c0-0.2,0-0.4,0-0.6c0-0.1,0.2-0.3,0.2-0.4c0.2-0.4,0.3-0.9,0.4-1.4c0,0.1,0.2,0.3,0.2,0.4c0,0.4-0.1,0.7-0.3,1.1
	c-0.2,0.5-0.1,1.5,0.3,1.8c0,0,0.1,0.1,0.2,0c0,0,0.1-0.1,0.1-0.2c0.1-0.7,0.3-1,1-1.1c0.3,0,0.4-0.2,0.3-0.5
	c-0.1-0.6-0.1-1.1-0.7-1.5c-0.1,0-0.1-0.2-0.1-0.3C82.8,11.3,83,11.3,83.2,11.3z"/>
<g>
	<path d="M100.1,21.8v-8.5h2.4c0.9,0,1.6,0.2,2.1,0.6s0.7,1,0.7,1.7c0,0.4-0.1,0.8-0.3,1.1s-0.5,0.5-0.8,0.7
		c0.5,0.1,0.8,0.3,1.1,0.7s0.3,0.8,0.3,1.3c0,0.8-0.2,1.4-0.7,1.9s-1.2,0.6-2,0.6H100.1z M101.8,16.9h0.9c0.4,0,0.6-0.1,0.8-0.3
		s0.3-0.5,0.3-0.8c0-0.4-0.1-0.7-0.3-0.9s-0.5-0.3-0.9-0.3h-0.8V16.9z M101.8,18v2.5h1.2c0.4,0,0.6-0.1,0.8-0.3s0.3-0.5,0.3-0.9
		c0-0.4-0.1-0.7-0.3-0.9S103.4,18,103,18H103H101.8z"/>
	<path d="M109.1,21.9c-0.8,0-1.5-0.3-1.9-0.9s-0.7-1.3-0.7-2.2v-0.2c0-1,0.2-1.7,0.7-2.3c0.4-0.6,1.1-0.9,1.9-0.9
		c0.7,0,1.3,0.3,1.7,0.8c0.4,0.5,0.6,1.2,0.6,2.1v0.9h-3.2c0,0.5,0.1,0.8,0.3,1.1s0.5,0.4,0.9,0.4c0.3,0,0.6,0,0.8-0.1
		s0.5-0.2,0.7-0.4l0.4,1c-0.2,0.2-0.5,0.4-0.9,0.5S109.6,21.9,109.1,21.9z M109,16.6c-0.3,0-0.5,0.1-0.6,0.4s-0.2,0.6-0.3,1h1.6
		v-0.1c0-0.4-0.1-0.7-0.2-0.9S109.3,16.6,109,16.6z"/>
	<path d="M114.6,21.9c-0.8,0-1.5-0.3-1.9-0.9s-0.7-1.3-0.7-2.2v-0.2c0-1,0.2-1.7,0.7-2.3c0.4-0.6,1.1-0.9,1.9-0.9
		c0.7,0,1.3,0.3,1.7,0.8c0.4,0.5,0.6,1.2,0.6,2.1v0.9h-3.2c0,0.5,0.1,0.8,0.3,1.1s0.5,0.4,0.9,0.4c0.3,0,0.6,0,0.8-0.1
		s0.5-0.2,0.7-0.4l0.4,1c-0.2,0.2-0.5,0.4-0.9,0.5S115,21.9,114.6,21.9z M114.5,16.6c-0.3,0-0.5,0.1-0.6,0.4s-0.2,0.6-0.3,1h1.6
		v-0.1c0-0.4-0.1-0.7-0.2-0.9S114.8,16.6,114.5,16.6z"/>
	<path d="M120,20.6c0.2,0,0.4-0.1,0.5-0.3s0.2-0.4,0.2-0.7h1.5l0,0c0,0.7-0.2,1.2-0.6,1.6s-1,0.6-1.6,0.6c-0.8,0-1.5-0.3-1.9-0.9
		s-0.7-1.4-0.7-2.3v-0.2c0-0.9,0.2-1.7,0.7-2.3c0.4-0.6,1.1-0.9,1.9-0.9c0.7,0,1.2,0.2,1.6,0.7c0.4,0.4,0.6,1,0.6,1.8l0,0h-1.5
		c0-0.4-0.1-0.6-0.2-0.8s-0.3-0.3-0.5-0.3c-0.3,0-0.6,0.2-0.7,0.5s-0.2,0.8-0.2,1.4v0.2c0,0.6,0.1,1.1,0.2,1.4S119.6,20.6,120,20.6z
		"/>
	<path d="M124.7,16.2c0.2-0.3,0.4-0.5,0.6-0.7s0.5-0.2,0.8-0.2c0.6,0,1,0.2,1.3,0.7c0.3,0.4,0.5,1.1,0.5,2.1v3.7h-1.7V18
		c0-0.5-0.1-0.9-0.2-1.1s-0.3-0.3-0.5-0.3c-0.2,0-0.4,0-0.5,0.1s-0.3,0.2-0.4,0.3v4.7H123v-9.1h1.6V16.2z"/>
	<path d="M132.1,21.8c-0.1-0.1-0.1-0.3-0.2-0.5s-0.1-0.3-0.1-0.5c-0.1,0.3-0.3,0.6-0.6,0.8s-0.5,0.3-0.8,0.3c-0.6,0-1-0.2-1.3-0.5
		s-0.5-0.8-0.5-1.4c0-0.6,0.2-1.1,0.6-1.4s1-0.5,1.8-0.5h0.7v-0.5c0-0.3-0.1-0.6-0.2-0.7s-0.3-0.3-0.5-0.3c-0.2,0-0.4,0.1-0.5,0.2
		s-0.2,0.3-0.2,0.6l-1.6,0l0,0c0-0.5,0.2-1,0.6-1.4c0.4-0.4,1-0.6,1.7-0.6c0.7,0,1.2,0.2,1.6,0.6c0.4,0.4,0.6,0.9,0.6,1.6v2.6
		c0,0.3,0,0.6,0.1,0.8s0.1,0.5,0.2,0.8H132.1z M130.9,20.7c0.2,0,0.4-0.1,0.6-0.2s0.3-0.3,0.4-0.5v-1h-0.7c-0.3,0-0.5,0.1-0.6,0.3
		s-0.2,0.4-0.2,0.7c0,0.2,0.1,0.4,0.2,0.5S130.7,20.7,130.9,20.7z"/>
	<path d="M136.3,13.9h-1.7v-1.3h1.7V13.9z M136.3,21.8h-1.7v-6.3h1.7V21.8z"/>
	<path d="M139,15.4l0.1,0.9c0.2-0.3,0.4-0.6,0.7-0.7s0.5-0.3,0.9-0.3c0.5,0,1,0.2,1.3,0.6c0.3,0.4,0.5,1.1,0.5,2v3.8h-1.7v-3.8
		c0-0.5-0.1-0.8-0.2-1s-0.3-0.3-0.5-0.3c-0.2,0-0.3,0-0.5,0.1s-0.3,0.2-0.4,0.4v4.7h-1.7v-6.3H139z"/>
	<path d="M152,18.7L152,18.7l0.9-5.4h1.7l-1.7,8.5h-1.5l-1.2-5.3h0l-1.2,5.3h-1.5l-1.7-8.5h1.7l0.9,5.4l0,0l1.2-5.4h1.3L152,18.7z"
		/>
	<path d="M158.2,21.8c-0.1-0.1-0.1-0.3-0.2-0.5s-0.1-0.3-0.1-0.5c-0.1,0.3-0.3,0.6-0.6,0.8s-0.5,0.3-0.8,0.3c-0.6,0-1-0.2-1.3-0.5
		s-0.5-0.8-0.5-1.4c0-0.6,0.2-1.1,0.6-1.4s1-0.5,1.8-0.5h0.7v-0.5c0-0.3-0.1-0.6-0.2-0.7s-0.3-0.3-0.5-0.3c-0.2,0-0.4,0.1-0.5,0.2
		s-0.2,0.3-0.2,0.6l-1.6,0l0,0c0-0.5,0.2-1,0.6-1.4c0.4-0.4,1-0.6,1.7-0.6c0.7,0,1.2,0.2,1.6,0.6c0.4,0.4,0.6,0.9,0.6,1.6v2.6
		c0,0.3,0,0.6,0.1,0.8s0.1,0.5,0.2,0.8H158.2z M157,20.7c0.2,0,0.4-0.1,0.6-0.2s0.3-0.3,0.4-0.5v-1h-0.7c-0.3,0-0.5,0.1-0.6,0.3
		s-0.2,0.4-0.2,0.7c0,0.2,0.1,0.4,0.2,0.5S156.8,20.7,157,20.7z"/>
	<path d="M162.4,21.8h-1.7v-9.1h1.7V21.8z"/>
	<path d="M165.3,21.8h-1.7v-9.1h1.7V21.8z"/>
	<path d="M168.9,21.9c-0.8,0-1.5-0.3-1.9-0.9s-0.7-1.3-0.7-2.2v-0.2c0-1,0.2-1.7,0.7-2.3c0.4-0.6,1.1-0.9,1.9-0.9
		c0.7,0,1.3,0.3,1.7,0.8c0.4,0.5,0.6,1.2,0.6,2.1v0.9h-3.2c0,0.5,0.1,0.8,0.3,1.1s0.5,0.4,0.9,0.4c0.3,0,0.6,0,0.8-0.1
		s0.5-0.2,0.7-0.4l0.4,1c-0.2,0.2-0.5,0.4-0.9,0.5S169.3,21.9,168.9,21.9z M168.8,16.6c-0.3,0-0.5,0.1-0.6,0.4s-0.2,0.6-0.3,1h1.6
		v-0.1c0-0.4-0.1-0.7-0.2-0.9S169,16.6,168.8,16.6z"/>
	<path d="M173.9,13.9v1.6h0.9v1.2h-0.9v3.2c0,0.3,0,0.5,0.1,0.6s0.2,0.2,0.3,0.2c0.1,0,0.1,0,0.2,0s0.1,0,0.2,0l0.1,1.2
		c-0.2,0.1-0.3,0.1-0.4,0.1s-0.3,0-0.5,0c-0.5,0-1-0.2-1.2-0.5s-0.4-0.8-0.4-1.6v-3.2h-0.8v-1.2h0.8v-1.6H173.9z"/>
</g>
</svg>
