<?xml version="1.0" encoding="utf-8"?>
<!-- Roman Inozemtsev: https://github.com/mir-one/  -->
<svg version="1.1"
	 id="Слой_1" image-rendering="optimizeQuality" shape-rendering="geometricPrecision" text-rendering="geometricPrecision"
	 xmlns="http://www.w3.org/2000/svg" xmlns:xlink="http://www.w3.org/1999/xlink" x="0px" y="0px" viewBox="0 0 92 22.8"
	 style="enable-background:new 0 0 92 22.8;" xml:space="preserve">
<style type="text/css">
	.st0{fill:#2A406C;}
	.st1{fill:#FFFFFF;}
</style>
<g>
	<path class="st0" d="M21.2,14.3c-0.7,0.3-1.5,0.7-2.3,0.7c-0.8,0-1.1-0.2-1.1-1.1c-1.3,0.6-2.5,1-3.9,1.1c-0.5,0-1.1,0.2-1.5-0.4
		c-0.3-0.6,0-1.1,0.4-1.5c0.7-1,1.5-1.9,2.5-2.9c-0.4,0-0.7,0-0.9,0c-0.3-0.1-0.4,0.1-0.5,0.3c-0.2,0.6-0.6,1.1-1.1,1.5
		c-0.1,0.1-0.3,0.3-0.6,0.1c0.5-0.5,1.1-0.9,1.2-1.7c0.1-0.4,0.1-0.6-0.3-0.7c-0.4-0.1-0.7-0.4-0.8-0.8c-0.2-0.5,0.1-1,0.6-1.2
		c0.5-0.1,1,0.1,1.2,0.7C14,8.5,14,8.7,14,8.9c0,0.7,0.2,0.8,0.8,0.8c0.7,0,1.3-0.2,1.9-0.5c0.2-0.1,0.4-0.3,0.5-0.1
		c0.1,0.2-0.2,0.3-0.3,0.4c-1.2,1.2-2.3,2.5-3.1,4c-0.4,0.8-0.2,1,0.6,1c1.2-0.1,2.3-0.5,3.4-1c0.2-0.1,0.3-0.3,0.4-0.4
		c1.1-1.3,2.1-2.6,3.3-3.7c0.3-0.2,0.5-0.4,0.9-0.3c0.5,0.2,0.6,0.4,0.2,0.8c-1,1.1-1.9,2.2-2.9,3.3c-0.2,0.2-0.4,0.5-0.6,0.8
		c-0.1,0.1-0.2,0.2-0.1,0.4c0.1,0.1,0.2,0.1,0.4,0.1c1.1-0.1,2.1-0.6,2.9-1.4c1.1-1.1,2-2.5,3.2-3.5c0.3-0.3,0.6-0.5,1-0.3
		c0.4,0.2,0.6,0.3,0.2,0.7c-1.1,1.2-2.1,2.4-3.2,3.6c-0.3,0.3-0.5,0.6-0.8,1c0,0.1-0.1,0.1-0.1,0.2c0.1,0.1,0.2,0,0.3,0
		c1.6-0.6,3.1-1.3,4.8-1.6c0.2-0.1,0.3-0.3,0.5-0.4c1.2-1.3,2.3-2.6,3.5-3.9C32,8.2,32.3,8,32.5,7.8c0.3-0.3,0.6-0.2,0.9-0.1
		c0.3,0.1,0.4,0.3,0.1,0.6c-0.4,0.4-0.7,0.8-1.1,1.2c0,0.1-0.1,0.1,0,0.2c0,0,0.1,0,0.1-0.1C33.4,9.3,34.2,9,35.1,9
		c1,0,1.3,0.5,0.9,1.4c-0.2,0.5-0.6,0.8-0.9,1.2c-0.6,0.6-1.1,1.3-1.7,1.9c-0.2,0.2-0.3,0.5-0.1,0.7c0.1,0.3,0.4,0.2,0.6,0.2
		c1.2,0,2.3-0.5,3.4-0.9c0.7-0.3,1.2-0.7,1.7-1.3c1.2-1.5,2.4-2.8,3.7-4.3c0.2-0.2,0.4-0.4,0.5-0.7c-0.6,0-1.1,0-1.7,0
		c0.4-1,0.6-1.1,1.5-1c0.7,0.1,1.2-0.1,1.7-0.6c0.9-1.1,1.8-2.3,2.9-3.2c0.2-0.2,0.5-0.4,0.9-0.3c0.6,0.2,0.7,0.4,0.3,0.8
		c-0.9,1-1.7,2-2.6,3C46,6,45.9,6.2,45.7,6.4c0.8,0,1.5,0.1,2.2,0.1c-0.1,0.5-0.4,0.7-0.9,0.6c-1.5-0.3-2.5,0.3-3.5,1.5
		c-1.1,1.5-2.5,2.9-3.7,4.3c-0.3,0.3-0.7,0.8-0.4,1.2c0.2,0.4,0.8,0.2,1.2,0.1c1.1-0.1,2.1-0.5,3.1-1c0.2-0.1,0.3-0.2,0.3-0.4
		c0.5-2.3,3.3-4,5-4c0.2,0,0.4,0,0.6,0c0.8,0.1,1.1,0.4,1,1.2c0,0.4-0.1,0.8-0.2,1.2c-0.2,0.6,0,1,0.6,1.2c0.5,0.1,0.9,0,1.3-0.2
		c0.1-0.1,0.3-0.3,0.5-0.2c-0.5,0.8-1.8,1-2.7,0.4c-0.4-0.3-0.5-0.1-0.7,0.2c-0.8,1.1-1.7,2-3,2.2c-1.3,0.2-2.2-0.2-2.5-1.4
		c-1.1,0.6-2.3,1-3.5,1.2c-0.4,0.1-0.7,0.1-1.1,0.1c-1.1,0.1-1.5-0.3-1.4-1.4c-0.3,0-0.5,0.2-0.8,0.3c-1.3,0.6-2.6,1-4,1.1
		c-0.5,0-1,0.1-1.3-0.4c-0.3-0.5-0.1-0.9,0.2-1.4c0.6-1,1.5-1.7,2.2-2.6c0.2-0.2,0.7-0.5,0.4-0.8c-0.2-0.3-0.6-0.1-1,0
		c-1.3,0.4-2.2,1.3-3.2,2.1c-2,1.8-3.7,4-5.6,6c-1.1,1.2-2.2,2.4-3.3,3.6c-0.1,0.1-0.3,0.3-0.4,0.4c-0.3,0.3-0.6,0.2-0.9,0
		c-0.3-0.3-0.1-0.5,0.1-0.7c1.2-1.3,2.3-2.7,3.5-4c1-1.2,2.1-2.3,3.1-3.5c0.1-0.1,0.2-0.2,0.2-0.4c-0.7,0.1-1.2,0.4-1.9,0.6
		c-2.3,0.7-4.2,1.9-5.7,3.8c-1.1,1.5-2.3,2.9-3.7,4.1c-0.7,0.6-1.5,1-2.4,1c-0.8,0-1.2-0.6-0.9-1.3c0.3-0.7,0.9-1.3,1.4-1.8
		c1.2-1.1,2.7-1.9,4.1-2.8C19.6,16.3,20.5,15.5,21.2,14.3c0.1,0,0.2,0,0.2-0.1C21.3,14.2,21.2,14.2,21.2,14.3z M49.9,9.6
		c-0.7,0-0.7-0.1-1.1,0.1c-1.5,0.7-2.6,1.8-3.1,3.3c-0.1,0.4-0.3,0.8,0.1,1.1c0.3,0.4,0.8,0.3,1.2,0.2c1.2-0.3,2-1.2,2.6-2.2
		c0.1-0.1,0.1-0.3,0-0.4C49.2,11,49.2,10.3,49.9,9.6z M19.2,16.9c0,0-0.1-0.1-0.1-0.1c-1.2,0.8-2.5,1.7-3.7,2.5
		c-0.7,0.5-1.4,1.1-1.8,1.8c-0.2,0.3-0.3,0.6,0,0.8c0.2,0.3,0.6,0.2,0.8,0.1c0.4-0.1,0.8-0.4,1-0.7C16.6,19.9,17.9,18.4,19.2,16.9z"
		/>
	<path class="st0" d="M79.3,14.5c1.3-0.5,2.6-1.1,4-1.5c0.2-0.1,0.4-0.2,0.5-0.4c0.4-0.5,1-0.9,1.7-0.7c0.3,0.1,0.4-0.1,0.6-0.2
		c1.6-1.1,3.2-2.2,4.7-3.3c0.1-0.1,0.3-0.4,0.5-0.2c0.2,0.2-0.1,0.4-0.2,0.5c-0.5,0.6-0.5,1.3-0.5,2c-0.1,2.9-3.1,5-5.9,4
		c-0.8-0.3-1.1-0.6-1.2-1.5c-1.2,0.3-2.3,0.9-3.4,1.3c-1.1,0.4-2,1.1-2.8,2c-1.4,1.7-2.9,3.3-4.4,5c-0.7,0.8-1.6,1.2-2.7,1.2
		c-0.8,0-1.2-0.6-0.9-1.3c0.4-0.9,1.1-1.5,1.8-2.1c1.2-0.9,2.4-1.7,3.7-2.5c1.1-0.7,2.1-1.5,2.8-2.6c0,0,0.1-0.1,0-0.1
		c-0.1,0-0.1,0-0.1,0.1c-0.7,0.3-1.4,0.7-2.3,0.7c-0.5,0-1,0-1.1-0.7c0-0.3-0.3-0.1-0.4,0c-0.9,0.3-1.8,0.7-2.8,0.8
		c-1,0.1-1.7-0.4-1.7-1.4c-0.8,0.7-1.6,1.2-2.6,1.4c-1.2,0.1-1.9-0.4-1.8-1.6c0-0.5-0.1-0.6-0.5-0.6c-0.5,0-1-0.2-1.4-0.6
		c-0.2-0.2-0.3-0.2-0.6,0c-1.1,1-2.2,1.9-3.6,2.5c-0.4,0.2-0.9,0.3-1.4,0.2c-0.8,0-1-0.2-1-1.1c-0.4,0.2-0.7,0.4-1.1,0.6
		c-0.7,0.3-1.4,0.6-2.2,0.5c-0.7-0.1-0.9-0.5-0.7-1.2c0.1-0.2,0.1-0.3,0.3-0.5c1.1-1.4,2.2-2.8,3.5-4c0.3-0.3,0.5-0.4,0.9-0.3
		c0.5,0.2,0.6,0.4,0.2,0.8c-1,1.1-1.9,2.2-2.9,3.3c-0.2,0.2-0.4,0.5-0.6,0.8c-0.1,0.1-0.2,0.2-0.1,0.4c0.1,0.1,0.2,0.1,0.4,0.1
		c1.2-0.2,2.2-0.7,3-1.6c1-1.1,2-2.4,3.1-3.4c0.3-0.3,0.6-0.5,1-0.3c0.4,0.2,0.6,0.4,0.2,0.7c-1,1.1-1.9,2.2-2.9,3.3
		c-0.1,0.1-0.2,0.3-0.3,0.4c-0.1,0.2-0.5,0.5-0.4,0.7c0.2,0.3,0.6,0.1,0.9,0c1.4-0.4,2.6-1.3,3.6-2.4c0.2-0.2,0.1-0.3,0.1-0.5
		c-0.3-1.1,0.2-2,1.1-2.2c0.5-0.1,0.7,0,0.6,0.6c-0.1,0.5-0.3,1-0.6,1.4c-0.4,0.5-0.2,0.9,0.2,1.2c0.6,0.5,1.3,0.4,1.7-0.2
		c0.9-1.4,2.1-2.4,3.7-2.9C69.2,9,69.5,9,69.7,9c1.3,0,1.7,0.6,1.3,1.8c-0.4,0.3-0.3-0.1-0.3-0.3c0-0.7-0.4-1-1.1-0.8
		c-1.4,0.3-3.3,2.3-3.5,3.7c-0.1,0.6,0.1,0.8,0.7,0.8c0.5,0,0.9-0.2,1.3-0.4c1.2-0.8,2-1.8,2.9-2.9c0.5-0.5,1-1.1,1.6-1.6
		C73,9.1,73.2,8.9,73.5,9c0.6,0.1,0.7,0.4,0.3,0.8c-0.8,0.9-1.6,1.8-2.4,2.7c-0.3,0.3-0.6,0.7-0.7,1.1c-0.2,0.5,0,0.9,0.6,0.9
		c0.5,0,1.1-0.2,1.6-0.3c0.9-0.2,1.5-0.7,2.1-1.4c0.9-1.2,1.9-2.4,3-3.4c0.1-0.1,0.3-0.2,0.4-0.3c0.4-0.2,0.7,0,0.9,0.2
		c0.2,0.3-0.1,0.4-0.2,0.6c-1,1.2-2,2.3-3,3.5c-0.1,0.2-0.3,0.3-0.4,0.5c-0.1,0.1-0.2,0.2-0.1,0.4c0.1,0.1,0.2,0.1,0.4,0.1
		c1.1-0.1,2-0.6,2.8-1.3c0.9-0.9,1.7-1.9,2.5-2.8c0.3-0.4,0.7-0.7,1-1C82.5,9,82.7,8.9,83,9c0.5,0.2,0.6,0.4,0.2,0.8
		c-1.2,1.4-2.4,2.7-3.6,4.1c-0.1,0.1-0.2,0.3-0.4,0.5c0,0-0.1,0.1-0.1,0.1C79.2,14.6,79.2,14.6,79.3,14.5z M75.5,16.9
		c0,0-0.1-0.1-0.1-0.1c-1.8,1.3-3.8,2.3-5.3,4c-0.1,0.1-0.2,0.3-0.3,0.5c-0.1,0.2-0.2,0.5,0,0.7c0.2,0.2,0.5,0.2,0.7,0.1
		c0.4-0.1,0.8-0.4,1.1-0.7C72.9,20,74.2,18.4,75.5,16.9z M89.2,10c-1.1,0.7-2.1,1.4-3.1,2.1c-0.1,0.1-0.2,0.2-0.2,0.2
		c0,0.6-0.4,0.8-0.9,1c-0.2,0.1-0.5,0.1-0.4,0.5c0.1,0.3,0.3,0.4,0.6,0.4c0.2,0,0.4,0,0.6-0.1C87.8,13.8,89,12.2,89.2,10z"/>
	<path class="st0" d="M13.5,3.5c1.2,0.2,2.2-1,1.9-2C15.2,1,14.7,0.7,14,0.8c-1.2,0.2-2.2,0.7-3.2,1.3C7.8,4,5.1,6.4,3.3,9.6
		c-0.6,1-0.9,2.1-0.9,3.3c0,0.7,0.3,1.1,1,1.3c1,0.3,1.9,0.1,2.8-0.2c0.8-0.2,1.5-0.5,2.3-0.9c0.1,0.1,0.1,0.2,0,0.2
		c-1.7,1-3.6,1.7-5.6,1.6c-1.2-0.1-1.8-0.8-1.8-2c0-1.5,0.5-2.9,1.3-4.2C4.6,5,7.8,2.1,11.9,0.4C12.8,0,13.7-0.1,14.7,0
		c1.3,0.2,1.9,1.3,1.4,2.4c-0.5,1-1.8,1.7-2.8,1.4c-0.5-0.2-0.7-0.5-0.5-0.9C13,2.5,13.6,2.1,14,2.3c0.3,0.2,0.3,0.4,0,0.7
		C13.9,3.2,13.6,3.2,13.5,3.5z"/>
	<path class="st1" d="M21.2,14.3c0-0.1,0.1-0.1,0.2-0.1C21.4,14.3,21.3,14.3,21.2,14.3C21.2,14.4,21.2,14.3,21.2,14.3z"/>
	<path class="st1" d="M23.1,14.5c-0.1,0.1-0.2,0.1-0.3,0c0-0.1,0.1-0.1,0.1-0.2C23,14.4,23,14.4,23.1,14.5z"/>
	<path class="st1" d="M32.6,9.6c0,0-0.1,0.1-0.1,0.1C32.4,9.6,32.5,9.6,32.6,9.6C32.5,9.6,32.6,9.6,32.6,9.6z"/>
	<path class="st1" d="M77.5,14.3c0-0.1,0.1-0.1,0.1-0.1C77.7,14.2,77.6,14.3,77.5,14.3C77.6,14.3,77.6,14.3,77.5,14.3z"/>
	<path class="st1" d="M79.3,14.5c-0.1,0-0.1,0.1-0.2,0c0,0,0.1-0.1,0.1-0.1C79.3,14.4,79.3,14.5,79.3,14.5z"/>
</g>
</svg>
