<?xml version="1.0" encoding="utf-8"?>
<!-- Roman Inozemtsev: https://github.com/mir-one/  -->
<svg version="1.1"
	 id="Слой_1" image-rendering="optimizeQuality" shape-rendering="geometricPrecision" text-rendering="geometricPrecision"
	 xmlns="http://www.w3.org/2000/svg" xmlns:xlink="http://www.w3.org/1999/xlink" x="0px" y="0px" viewBox="0 0 236 152.5"
	 style="enable-background:new 0 0 236 152.5;" xml:space="preserve">
<style type="text/css">
	.st0{fill:#FFFFFF;}
</style>
<g>
	<path class="st0" d="M52.7,129.5c-2,0.7-3.8,1.8-6,1.7s-2.8-0.6-2.9-2.9c-3.3,1.4-6.6,2.6-10.2,2.8c-1.4,0.1-3,0.4-3.8-1.1
		s0-2.8,0.9-4c1.9-2.6,4-5.1,6.4-7.6c-1,0-1.7,0.1-2.4,0c-0.8-0.2-1.1,0.2-1.3,0.9c-0.5,1.7-1.5,3-2.9,4c-0.4,0.3-0.7,0.8-1.5,0.4
		c1.4-1.2,2.8-2.4,3.2-4.3c0.2-0.9,0.2-1.5-0.8-1.9s-1.8-1.1-2.1-2.2c-0.4-1.4,0.2-2.7,1.4-3c1.4-0.4,2.6,0.3,3,1.8
		c0.1,0.5,0.2,1,0.2,1.6c0.1,1.8,0.4,2.1,2.2,2c1.7-0.1,3.4-0.6,5-1.3c0.4-0.2,0.9-0.9,1.3-0.3c0.3,0.5-0.5,0.7-0.8,1
		c-3.3,3-6,6.5-8.1,10.4c-1.1,2-0.6,2.7,1.7,2.6c3.2-0.2,6-1.3,8.9-2.5c0.5-0.2,0.8-0.7,1.1-1.1c2.8-3.3,5.5-6.7,8.6-9.7
		c0.7-0.6,1.4-1.1,2.4-0.8c1.3,0.4,1.5,0.9,0.6,2c-2.5,2.9-5,5.8-7.5,8.7c-0.5,0.6-1.1,1.3-1.5,2c-0.2,0.3-0.5,0.6-0.3,1
		c0.2,0.3,0.6,0.3,1,0.2c3-0.4,5.6-1.6,7.6-3.7c2.9-3,5.3-6.4,8.4-9.2c0.7-0.7,1.5-1.3,2.7-0.9c1,0.4,1.5,0.9,0.6,1.9
		c-2.8,3.1-5.6,6.3-8.3,9.5c-0.7,0.8-1.4,1.7-2.1,2.5c-0.1,0.2-0.2,0.3-0.3,0.5c0.3,0.2,0.5,0,0.7-0.1c4.1-1.6,8.1-3.4,12.5-4.3
		c0.6-0.1,0.9-0.7,1.2-1.1c3-3.4,6.1-6.9,9.1-10.3c0.6-0.7,1.3-1.2,2-1.8c0.7-0.7,1.5-0.5,2.3-0.2c0.8,0.4,1,0.9,0.4,1.6
		c-0.9,1.1-1.9,2.1-2.8,3.2c-0.1,0.1-0.3,0.2-0.1,0.4c0,0,0.2-0.1,0.3-0.2c2.1-0.9,4.3-1.7,6.7-1.6c2.5,0,3.3,1.3,2.3,3.6
		c-0.6,1.2-1.5,2.2-2.3,3.2c-1.5,1.7-2.9,3.3-4.3,5c-0.4,0.5-0.7,1.3-0.4,1.9c0.3,0.7,1.1,0.5,1.7,0.5c3.2-0.1,6-1.2,8.9-2.4
		c1.9-0.8,3.2-1.9,4.5-3.4c3.1-3.8,6.4-7.4,9.5-11.2c0.5-0.5,1-1,1.4-1.8c-1.5,0-3,0-4.5,0c1.1-2.5,1.5-2.9,3.9-2.5
		c1.9,0.3,3.2-0.2,4.4-1.7c2.4-2.9,4.7-5.9,7.5-8.5c0.6-0.6,1.2-1.1,2.2-0.8c1.5,0.4,1.7,0.9,0.7,2.2c-2.3,2.6-4.6,5.2-6.8,7.9
		c-0.3,0.4-0.7,0.8-1.2,1.4c2.1,0.1,3.9,0.2,5.9,0.4c-0.4,1.3-1,1.9-2.3,1.7c-3.9-0.7-6.6,0.8-9,4c-2.9,4-6.4,7.5-9.6,11.3
		c-0.8,0.9-1.9,2-1.1,3.2c0.6,1,2.1,0.5,3.1,0.4c2.8-0.4,5.5-1.4,8.1-2.6c0.5-0.2,0.7-0.5,0.8-1c1.3-6.1,8.7-10.4,13.1-10.6
		c0.5,0,1.1,0,1.6,0.1c2,0.2,2.8,1.1,2.7,3.1c0,1.1-0.3,2.1-0.6,3.1c-0.5,1.6,0,2.6,1.6,3.1c1.2,0.4,2.4,0.1,3.5-0.4
		c0.4-0.2,0.7-0.7,1.2-0.4c-1.2,2-4.6,2.7-6.9,1.1c-1-0.7-1.3-0.4-1.9,0.4c-2,2.8-4.3,5.1-7.9,5.8c-3.4,0.6-5.7-0.6-6.6-3.6
		c-2.9,1.4-5.9,2.7-9.2,3.2c-0.9,0.1-1.9,0.3-2.8,0.4c-2.8,0.3-3.8-0.8-3.6-3.8c-0.8,0-1.4,0.5-2,0.8c-3.3,1.7-6.8,2.7-10.6,2.9
		c-1.3,0.1-2.6,0.2-3.3-1.2c-0.7-1.3-0.1-2.5,0.6-3.5c1.6-2.5,3.9-4.6,5.8-6.9c0.5-0.6,1.7-1.3,1.1-2.2c-0.5-0.7-1.7-0.2-2.5,0.1
		c-3.3,1.1-5.8,3.3-8.3,5.5c-5.3,4.7-9.7,10.4-14.5,15.6c-2.9,3.1-5.7,6.3-8.5,9.5c-0.3,0.4-0.7,0.7-1,1c-0.8,0.7-1.6,0.5-2.3-0.1
		c-0.8-0.7-0.2-1.3,0.3-1.9c3.1-3.5,6.1-6.9,9.2-10.4c2.7-3,5.4-6.1,8-9.1c0.2-0.3,0.6-0.5,0.5-1c-1.7,0.3-3.3,1.1-4.9,1.6
		c-5.9,1.9-11,4.9-14.8,10c-2.9,3.9-6.1,7.5-9.7,10.8c-1.8,1.7-3.9,2.7-6.4,2.6c-2.1-0.1-3-1.4-2.2-3.4c0.8-1.9,2.3-3.3,3.7-4.6
		c3.2-2.9,7-5.1,10.7-7.2c3-1.7,5.5-3.9,7.4-6.7c0.1-0.1,0.2-0.3,0.3-0.4C52.9,129.1,52.8,129.3,52.7,129.5z M127.5,117.3
		c-1.8-0.1-1.8-0.1-2.8,0.3c-3.9,1.8-6.7,4.7-8.2,8.7c-0.4,1-0.7,2.1,0.1,3c0.9,0.9,2,0.7,3.1,0.4c3.2-0.9,5.3-3.1,6.9-5.9
		c0.2-0.4,0.1-0.7,0-1C125.8,120.9,125.8,119.1,127.5,117.3z M47.4,136.4c-0.1-0.1-0.2-0.2-0.3-0.3c-3.3,2.2-6.6,4.3-9.8,6.6
		c-1.8,1.3-3.6,2.8-4.8,4.8c-0.4,0.7-0.7,1.5-0.1,2.2c0.6,0.7,1.5,0.5,2.2,0.3c1-0.4,2-1,2.7-1.8C40.7,144.2,44,140.3,47.4,136.4z"
		/>
	<path class="st0" d="M204.5,130.1c3.4-1.4,6.8-2.8,10.3-3.8c0.6-0.2,0.9-0.5,1.3-1c1.1-1.4,2.5-2.3,4.4-1.8
		c0.7,0.2,1.1-0.2,1.5-0.5c4.1-2.9,8.2-5.8,12.4-8.7c0.3-0.2,0.7-1,1.3-0.4s-0.2,0.9-0.5,1.3c-1.3,1.5-1.3,3.4-1.4,5.2
		c-0.3,7.6-8.1,12.9-15.3,10.5c-2.2-0.7-2.9-1.7-3.2-3.9c-3.1,0.8-6,2.2-8.9,3.4c-3,1.1-5.3,2.9-7.4,5.3c-3.7,4.4-7.6,8.7-11.5,12.9
		c-1.8,2-4.1,3.2-7,3.2c-2.2-0.1-3.1-1.5-2.2-3.5c1-2.2,2.8-3.9,4.7-5.4c3-2.5,6.4-4.5,9.7-6.4c3-1.7,5.4-3.9,7.4-6.7
		c0-0.1,0.1-0.3,0.1-0.3c-0.1-0.1-0.3,0-0.3,0.1c-1.9,0.8-3.8,1.9-6,1.8c-1.3-0.1-2.7-0.1-2.9-1.9c-0.1-0.9-0.7-0.2-1.1-0.1
		c-2.4,0.8-4.8,1.9-7.4,2.1c-2.7,0.3-4.4-1-4.6-3.7c-2.1,1.7-4.1,3.2-6.9,3.6c-3,0.4-4.9-1.1-4.7-4.1c0.1-1.2-0.2-1.5-1.4-1.4
		c-1.4,0.1-2.7-0.5-3.7-1.5c-0.6-0.6-0.9-0.5-1.4,0c-2.8,2.7-5.8,5.1-9.4,6.4c-1.2,0.4-2.3,0.7-3.5,0.6c-2-0.1-2.6-0.6-2.7-2.8
		c-1,0.5-1.9,1-2.9,1.5c-1.8,0.9-3.7,1.5-5.8,1.2c-1.8-0.2-2.4-1.3-1.8-3c0.2-0.4,0.4-0.9,0.7-1.2c2.8-3.7,5.8-7.2,9.1-10.5
		c0.7-0.7,1.4-1.1,2.4-0.8c1.3,0.5,1.5,1,0.5,2c-2.5,2.9-5,5.8-7.6,8.7c-0.5,0.6-1.1,1.3-1.5,2c-0.2,0.3-0.5,0.6-0.3,1
		c0.2,0.3,0.6,0.3,1,0.2c3.1-0.4,5.8-1.8,8-4.1c2.7-3,5.2-6.2,8.2-9c0.7-0.7,1.5-1.2,2.5-0.8c1.1,0.4,1.4,0.9,0.5,1.9
		c-2.6,2.9-5.1,5.8-7.6,8.7c-0.3,0.4-0.6,0.7-0.9,1.1c-0.4,0.6-1.3,1.3-0.9,1.8c0.5,0.8,1.6,0.3,2.3,0.1c3.8-1.1,6.8-3.5,9.4-6.3
		c0.4-0.5,0.3-0.9,0.1-1.4c-0.7-2.8,0.5-5.2,2.9-5.8c1.4-0.4,1.9,0.1,1.7,1.5c-0.2,1.3-0.8,2.5-1.6,3.5c-1,1.3-0.5,2.3,0.4,3.1
		c1.4,1.3,3.4,1,4.5-0.6c2.3-3.6,5.4-6.2,9.6-7.5c0.7-0.2,1.4-0.3,2.2-0.3c3.3,0,4.4,1.4,3.5,4.6c-1.1,0.7-0.7-0.2-0.8-0.7
		c-0.1-1.9-1-2.6-2.8-2.2c-3.6,0.8-8.5,6-9,9.6c-0.2,1.5,0.4,2.2,1.9,2.2c1.2,0,2.4-0.4,3.4-1.1c3-2,5.4-4.7,7.6-7.5
		c1.4-1.4,2.7-2.8,4.1-4.2c0.5-0.5,1.2-0.9,2-0.7c1.5,0.4,1.7,1,0.7,2.1c-2.1,2.4-4.2,4.7-6.2,7.1c-0.8,0.9-1.5,1.8-1.9,2.9
		c-0.5,1.4,0,2.3,1.5,2.3c1.4,0,2.8-0.5,4.1-0.9c2.3-0.6,4-1.8,5.5-3.8c2.3-3.2,4.9-6.1,7.8-8.9c0.3-0.3,0.7-0.6,1.1-0.8
		c0.9-0.4,1.8-0.1,2.4,0.6c0.6,0.7-0.3,1.1-0.6,1.5c-2.6,3-5.2,6-7.9,9.1c-0.4,0.4-0.7,0.9-1,1.4c-0.2,0.3-0.5,0.6-0.3,1
		s0.6,0.3,1,0.2c2.8-0.3,5.3-1.5,7.3-3.4c2.3-2.4,4.4-5,6.6-7.4c0.8-0.9,1.8-1.8,2.7-2.6c0.5-0.5,1.2-0.6,1.9-0.4
		c1.4,0.4,1.6,1,0.6,2.1c-3.2,3.6-6.3,7.2-9.5,10.8c-0.3,0.4-0.6,0.8-1,1.2c-0.1,0.1-0.3,0.2-0.3,0.3
		C204.1,130.3,204.3,130.2,204.5,130.1z M194.6,136.4c-0.1-0.1-0.2-0.2-0.3-0.3c-4.7,3.3-10,5.9-13.9,10.3c-0.3,0.4-0.6,0.8-0.9,1.3
		c-0.3,0.6-0.5,1.3,0,1.9c0.5,0.6,1.3,0.5,1.9,0.4c1.1-0.3,2.1-1,2.9-1.8C187.8,144.3,191.2,140.3,194.6,136.4z M230.2,118.3
		c-2.8,2-5.4,3.8-8,5.6c-0.2,0.1-0.4,0.4-0.4,0.6c0.1,1.6-1.1,2.1-2.2,2.7c-0.5,0.3-1.3,0.4-1.1,1.3c0.2,0.7,0.9,1,1.6,1
		c0.5,0,1.1,0,1.6-0.2C226.7,128.1,229.9,124.1,230.2,118.3z"/>
	<path class="st0" d="M32.5,101.3c3,0.5,5.8-2.5,5-5.3c-0.4-1.3-1.8-1.9-3.5-1.7c-3,0.4-5.7,1.8-8.3,3.3c-8.1,5-15,11.2-19.7,19.6
		c-1.5,2.7-2.4,5.6-2.3,8.7c0,1.8,0.8,2.8,2.6,3.3c2.5,0.7,4.9,0.1,7.3-0.5c2.1-0.5,4-1.4,5.9-2.3c0.2,0.3,0.2,0.5,0,0.6
		c-4.5,2.7-9.4,4.6-14.7,4.1c-3-0.2-4.7-2.2-4.7-5.3c-0.1-4,1.3-7.7,3.4-11c6.1-9.8,14.3-17.3,25.1-21.7c2.4-1,4.9-1.3,7.4-1
		c3.3,0.4,5,3.4,3.7,6.4c-1.2,2.7-4.7,4.5-7.3,3.8c-1.3-0.4-1.9-1.3-1.4-2.5c0.5-1.3,2.2-2.2,3.2-1.7c0.9,0.5,0.7,1.2,0.1,1.8
		C33.5,100.5,32.8,100.4,32.5,101.3z"/>
	<path class="st0" d="M52.7,129.5c0.1-0.2,0.3-0.4,0.5-0.2c-0.1,0.1-0.2,0.3-0.3,0.4C52.8,129.7,52.7,129.6,52.7,129.5z"/>
	<path class="st0" d="M57.6,130c-0.2,0.1-0.4,0.3-0.7,0.1c0.1-0.2,0.2-0.3,0.3-0.5C57.3,129.8,57.4,129.9,57.6,130z"/>
	<path class="st0" d="M82.4,117.3c-0.1,0.1-0.3,0.2-0.3,0.2c-0.3-0.2,0-0.3,0.1-0.4C82.3,117.1,82.4,117.2,82.4,117.3z"/>
	<path class="st0" d="M199.9,129.5c0.1-0.2,0.2-0.2,0.3-0.1c0,0-0.1,0.2-0.1,0.3C200,129.6,200,129.5,199.9,129.5z"/>
	<path class="st0" d="M204.5,130.1c-0.2,0.1-0.4,0.2-0.5,0c0,0,0.2-0.2,0.3-0.3C204.4,129.9,204.4,130,204.5,130.1z"/>
</g>
<g>
	<path class="st0" d="M155.2,42.7c-1.6,0.1-3.3,0-4.9,0c-0.5,0-0.7,0.1-0.7,0.7c0,4.8-0.9,9.4-3,13.8c-4.8,9.7-12.4,15.9-23.1,17.9
		c-11,2-20.7-1.2-28.6-9.1c-5.2-5.2-8.2-11.6-8.9-18.9c-0.9-9.8,2-18.2,9.3-25.3c5.3-5.5,11.8-8.7,19.3-9.6c0.6-0.1,1.2-0.1,1.8-0.2
		c0.3,0,0.5,0.1,0.4,0.4c-0.1,0.2,0.2,0.7-0.4,0.7c-5.6,0.3-10.7,1.9-15.3,5.1C92.6,24,88,32.1,87.5,42.4c-0.3,7.9,2.2,14.9,7.2,21
		c1.8,2.2,3.8,4.1,6.1,5.6c3.1,2,6.4,3.5,10,4.4c1.2,0.3,2.4,0.6,3.6,0.7c9.4,0.9,17.8-1.7,24.7-8.3c5-4.8,8.1-10.7,9.1-17.6
		c0.2-1.6,0.3-3.3,0.3-5c0-0.3,0-0.5-0.4-0.5h-4.9c-0.4,0-0.6,0.2-0.8,0.5c-1.7,3.5-3.7,6.8-6.3,9.8c-1.4,1.6-2.9,3-4.7,4.1
		c-1,0.5-1.9,0.9-3,1c-0.7,0.1-1.1-0.1-1.6-0.5c-0.9-0.7-1.6-1.6-2.3-2.5c-1.5-1.9-2.7-3.9-4.2-5.7c-0.7-0.8-1.4-1.7-2.3-2.3
		c-1.5-1-3-1.1-4.4,0.4c-1.3,1.3-2.1,2.8-2.9,4.4c-0.8,1.5-1.5,3.1-2.5,4.5c-0.4,0.5-0.7,1-1.2,1.4c-0.7,0.6-1.2,0.7-1.9,0.1
		c-1-0.7-1.7-1.6-2.4-2.5c-2.8-3.6-5-7.6-7.1-11.6c-0.3-0.4-0.5-0.9-0.8-1.4C94.7,42.1,94.6,42,95,42h2.6c0.3,0,0.4,0.3,0.5,0.5
		c1,2.3,2.1,4.7,3.3,6.9c0.7,1.3,1.4,2.6,2.4,3.8c0.4,0.5,0.8,0.9,1.3,1.2c0.6,0.3,1.2,0.3,1.8-0.1c0.5-0.4,0.9-1,1.3-1.6
		c1-1.7,1.8-3.5,2.7-5.3c0.4-0.8,0.8-1.7,1.4-2.5c0.4-0.8,1-1.6,1.6-2.2c1.2-1.2,2.1-1.3,3.5-0.3c0.9,0.6,1.6,1.4,2.3,2.2
		c1.7,1.9,3,4,4.7,5.8c0.9,1,1.9,1.9,3,2.6c0.5,0.3,1,0.4,1.5,0.4c1.1-0.2,2-0.7,2.8-1.5c1.3-1.2,2.2-2.6,3.1-4.1
		c0.4-0.7,0.8-1.3,1-2c-0.3,0.5-0.6,1-0.9,1.5c-1.1,1.7-2.3,3.4-3.9,4.7c-1.5,1.1-2.6,1.1-4.1,0c-0.2-0.1-0.3-0.3-0.5-0.4
		c-1-0.9-1.9-2-2.7-3c-1.4-1.8-2.7-3.7-4.3-5.4c-0.8-0.7-1.5-1.5-2.5-1.9c-0.9-0.4-1.8-0.4-2.6,0.1c-1,0.6-1.7,1.5-2.3,2.5
		c-0.8,1.4-1.5,2.8-2.3,4.2c-0.1,0-0.1,0.1-0.1,0.1v0.1c0,0,0,0.1-0.1,0.1c-0.8,1.6-1.6,3.1-2.6,4.5c-0.1,0.1-0.3,0.3-0.4,0.4
		c-0.4,0.3-0.7,0.3-1.1,0c-0.6-0.5-1-1-1.4-1.6c-0.5-0.8-1-1.5-1.4-2.4c-0.6-0.8-1-1.8-1.4-2.7c-0.9-1.8-1.7-3.7-2.4-5.5
		c-0.2-0.3-0.3-0.4-0.7-0.4H96c0,0-0.1,0-0.2,0h-3.3c0.3,0.6,0.5,1.1,0.8,1.6c0.6,1.3,1.3,2.7,2,4c1.9,3.7,3.9,7.2,6.4,10.5
		c0.7,1,1.6,1.9,2.6,2.7c0.1,0,0.1,0,0.2,0.1c0.9,0.5,1.8,0.4,2.6,0c1.4-0.9,2.3-2.3,3.1-3.7c1.1-1.8,1.9-3.7,3.1-5.5
		c0.5-0.7,0.9-1.3,1.5-1.8s1-0.5,1.7-0.1c0.9,0.6,1.5,1.4,2.2,2.2c1.2,1.6,2.3,3.2,3.4,4.8c0.8,1.1,1.6,2.2,2.5,3.2
		c1.4,1.4,2.9,1.8,4.8,1.3c2.4-0.6,4.4-2,6.1-3.7c3.2-3.1,5.7-6.9,7.8-10.8c0.2-0.5,0.4-0.7,0.9-0.6h1.3c0.3,0,0.4,0.1,0.4,0.5
		c-0.2,2.4-0.5,4.7-1.3,6.9c-3.5,9.9-10.3,16.5-20.6,18.9c-9.6,2.2-18.2-0.2-25.4-6.8c-6.3-5.8-9.3-13.3-8.9-21.9
		c0.6-12.8,10.1-23.7,22.8-26.1c2.1-0.4,4.2-0.5,6.3-0.5c0.2,0,0.2-0.2,0.2-0.4c0-2,0-3.9-0.2-5.8c0-0.2,0-0.3-0.1-0.4
		c-1.6,0-3.1,0.1-4.7,0.2c-4.4,0.4-8.6,1.7-12.5,3.7c-1.1,0.5-2.2,1.2-3.3,1.9c-3.5,2.5-6.6,5.4-9,8.9c-3.9,5.6-5.9,11.8-6.2,18.6
		c-0.5,13.4,7,26,19,32c5.4,2.7,11.1,4,17.1,3.6c13.1-0.9,22.9-7.3,29.1-18.9c2.3-4.3,3.4-9,3.6-13.9c0-0.3,0.1-0.4,0.4-0.4
		c1.2,0,1.2,0,1.1,1.1c0,1.8-0.3,3.6-0.7,5.4c-0.4,1.4-0.7,2.8-1.2,4.1c-0.9,2.4-1.9,4.8-3.3,7c-1.4,2.4-3.2,4.6-5.2,6.6
		c-1.7,1.7-3.6,3.2-5.6,4.6c-4.1,2.9-8.7,4.7-13.6,5.5c-8.2,1.4-16.1,0.2-23.5-3.8c-3.4-1.8-6.4-4.1-9-6.9C87,64.2,84,59,81.7,53.4
		c-1.5-5.5-1.6-11.1-0.5-16.8c0.8-4.3,2.5-8.4,4.8-12.1c1-1.6,2.1-3.1,3.3-4.5c-0.2,0.2-0.4,0.4-0.6,0.6c-0.1,0.1-0.1,0.1-0.1,0.2
		l-0.1,0.1c-0.1,0.1-0.2,0.2-0.3,0.3L88,21.4c-0.1,0.1-0.2,0.2-0.3,0.3l-0.1,0.1c0,0.1-0.1,0.3-0.3,0.4c0,0.1-0.1,0.2-0.2,0.3
		L87,22.6c0,0.1-0.1,0.1-0.1,0.2l-0.1,0.1L86.7,23c-0.1,0.3-0.3,0.5-0.5,0.7c0,0.1-0.1,0.1-0.1,0.2c-1.5,2.3-2.7,4.7-3.7,7.2
		c-0.1,0.1-0.1,0.3-0.2,0.5c-0.1,0-0.1,0.1-0.1,0.1c0,0.1,0,0.2-0.1,0.3c-0.1,0.6-0.3,1.1-0.5,1.7c0,0.1,0,0.1,0,0.2
		c0,0.1,0,0.1-0.1,0.2c-0.3,1.5-0.7,3.1-0.9,4.7c-1.1,7.4-0.1,14.6,3.2,21.3c5.6,11.3,14.6,18.4,27,20.8c12.4,2.4,23.4-0.9,32.8-9.4
		c6.6-6,10.5-13.6,11.8-22.4c0.3-1.9,0.4-3.9,0.4-5.9C155.7,42.8,155.6,42.7,155.2,42.7z"/>
	<path class="st0" d="M118,0.8c-24,0-43.4,19.4-43.4,43.4S94,87.6,118,87.6c0.5,0,0.9-0.1,1.4-0.1c21.8-0.7,39.6-17.4,41.8-38.9
		c0.1-1.5,0.2-2.9,0.2-4.4C161.4,20.2,142,0.8,118,0.8z M146.8,73c-8.3,8.3-19.3,12.2-30.1,11.8c-10-0.3-19.9-4.2-27.5-11.9
		c-15.9-15.9-15.9-41.7,0-57.6s41.7-15.9,57.6,0c8.4,8.4,12.3,19.6,11.8,30.7C158.2,55.9,154.3,65.5,146.8,73z"/>
</g>
</svg>
