<?xml version="1.0" encoding="utf-8"?>
<!-- Roman Inozemtsev: https://github.com/mir-one/  -->
<svg version="1.1"
	 id="Слой_1" image-rendering="optimizeQuality" shape-rendering="geometricPrecision" text-rendering="geometricPrecision"
	 xmlns="http://www.w3.org/2000/svg" xmlns:xlink="http://www.w3.org/1999/xlink" x="0px" y="0px" viewBox="0 0 234 155.1"
	 style="enable-background:new 0 0 234 155.1;" xml:space="preserve">
<style type="text/css">
	.st0{fill:#2A406C;}
	.st1{fill:#FFFFFF;}
	.st2{fill:#21324D;}
</style>
<g>
	<path class="st0" d="M52.3,132.2c-1.9,0.7-3.8,1.8-5.9,1.7c-2.2-0.1-2.8-0.6-2.9-2.9c-3.3,1.4-6.6,2.6-10.1,2.8
		c-1.4,0.1-2.9,0.4-3.8-1.1c-0.8-1.5,0-2.8,0.9-4c1.9-2.6,4-5,6.4-7.6c-1,0-1.7,0.1-2.4,0c-0.8-0.2-1.1,0.2-1.3,0.9
		c-0.5,1.7-1.5,3-2.9,4c-0.4,0.3-0.7,0.8-1.5,0.3c1.4-1.2,2.8-2.4,3.2-4.3c0.2-0.9,0.2-1.5-0.8-1.9c-1-0.4-1.8-1.1-2.1-2.2
		c-0.4-1.4,0.2-2.7,1.4-3c1.4-0.4,2.6,0.3,3,1.7c0.1,0.5,0.2,1,0.2,1.5c0.1,1.8,0.4,2.1,2.2,2c1.7-0.1,3.4-0.6,4.9-1.3
		c0.4-0.2,0.9-0.9,1.3-0.3c0.3,0.5-0.5,0.7-0.8,1c-3.2,3-5.9,6.4-8,10.3c-1.1,2-0.6,2.6,1.7,2.5c3.1-0.1,6-1.3,8.8-2.5
		c0.5-0.2,0.7-0.7,1.1-1.1c2.7-3.3,5.4-6.6,8.5-9.6c0.7-0.6,1.4-1.1,2.4-0.8c1.3,0.4,1.5,0.9,0.6,2c-2.5,2.9-5,5.7-7.5,8.6
		c-0.5,0.6-1,1.3-1.5,2c-0.2,0.3-0.5,0.6-0.3,1c0.2,0.3,0.6,0.3,1,0.2c2.9-0.4,5.5-1.6,7.6-3.7c2.8-3,5.2-6.4,8.3-9.2
		c0.7-0.7,1.5-1.3,2.6-0.9c1,0.4,1.5,0.9,0.6,1.9c-2.8,3.1-5.5,6.2-8.3,9.4c-0.7,0.8-1.4,1.7-2.1,2.5c-0.1,0.2-0.2,0.3-0.3,0.5
		c0.3,0.2,0.5,0,0.7-0.1c4.1-1.6,8.1-3.4,12.4-4.3c0.6-0.1,0.9-0.7,1.2-1.1c3-3.4,6-6.8,9-10.2c0.6-0.7,1.3-1.2,1.9-1.8
		c0.7-0.7,1.5-0.5,2.3-0.2c0.8,0.4,1,0.9,0.4,1.6c-0.9,1-1.9,2.1-2.8,3.2c-0.1,0.1-0.3,0.2-0.1,0.4c0,0,0.2-0.1,0.3-0.2
		c2.1-0.9,4.3-1.7,6.6-1.6c2.5,0,3.3,1.3,2.2,3.6c-0.5,1.2-1.4,2.2-2.3,3.1c-1.4,1.6-2.9,3.3-4.3,5c-0.4,0.5-0.7,1.2-0.4,1.9
		c0.3,0.7,1.1,0.5,1.7,0.5c3.1-0.1,6-1.2,8.8-2.4c1.9-0.7,3.2-1.8,4.5-3.4c3.1-3.8,6.3-7.4,9.5-11.1c0.5-0.5,1-1,1.3-1.8
		c-1.5,0-2.9,0-4.4,0c1-2.5,1.4-2.9,3.9-2.5c1.9,0.3,3.1-0.2,4.4-1.7c2.4-2.9,4.7-5.9,7.5-8.4c0.6-0.5,1.2-1.1,2.2-0.8
		c1.5,0.4,1.7,0.9,0.7,2.1c-2.2,2.6-4.5,5.2-6.8,7.8c-0.3,0.4-0.7,0.8-1.1,1.4c2,0.1,3.9,0.2,5.8,0.4c-0.4,1.2-1,1.9-2.2,1.7
		c-3.9-0.7-6.6,0.8-8.9,4c-2.9,3.9-6.4,7.5-9.5,11.2c-0.7,0.9-1.9,2-1.1,3.1c0.6,1,2.1,0.5,3.1,0.4c2.8-0.4,5.4-1.4,8-2.6
		c0.5-0.2,0.7-0.5,0.8-1c1.3-6.1,8.7-10.3,12.9-10.5c0.5,0,1,0,1.6,0.1c2,0.2,2.8,1.1,2.7,3.1c0,1.1-0.3,2.1-0.6,3
		c-0.5,1.6,0,2.5,1.6,3c1.2,0.4,2.4,0.1,3.5-0.4c0.4-0.2,0.7-0.7,1.2-0.4c-1.2,2-4.6,2.7-6.9,1.1c-1-0.7-1.3-0.4-1.9,0.4
		c-2,2.8-4.3,5.1-7.8,5.8c-3.3,0.6-5.7-0.6-6.5-3.5c-2.9,1.4-5.9,2.6-9.1,3.2c-0.9,0.1-1.9,0.3-2.8,0.4c-2.8,0.3-3.8-0.7-3.5-3.7
		c-0.8,0-1.3,0.5-2,0.8c-3.3,1.6-6.8,2.7-10.5,2.8c-1.2,0.1-2.6,0.2-3.3-1.1c-0.7-1.3-0.1-2.4,0.5-3.5c1.6-2.5,3.8-4.5,5.8-6.8
		c0.5-0.6,1.7-1.3,1.1-2.2c-0.5-0.7-1.7-0.2-2.5,0.1c-3.3,1-5.8,3.3-8.3,5.5c-5.3,4.7-9.6,10.3-14.4,15.4c-2.9,3.1-5.6,6.3-8.5,9.4
		c-0.3,0.3-0.7,0.7-1,1c-0.8,0.7-1.6,0.5-2.3-0.1c-0.8-0.7-0.2-1.3,0.3-1.9c3-3.4,6.1-6.9,9.1-10.3c2.7-3,5.3-6,8-9
		c0.2-0.3,0.6-0.5,0.5-1c-1.7,0.3-3.2,1.1-4.8,1.6c-5.8,1.9-10.9,4.8-14.7,9.9c-2.8,3.8-6.1,7.4-9.6,10.7c-1.8,1.6-3.8,2.7-6.3,2.6
		c-2.1-0.1-3-1.4-2.2-3.4c0.8-1.9,2.2-3.3,3.7-4.6c3.2-2.9,6.9-5,10.6-7.2c2.9-1.7,5.4-3.8,7.4-6.6c0.1-0.1,0.2-0.3,0.3-0.4
		C52.6,131.8,52.4,132,52.3,132.2z M126.6,120.1c-1.8-0.1-1.8-0.1-2.7,0.3c-3.8,1.8-6.6,4.6-8.2,8.6c-0.4,1-0.7,2.1,0.1,3
		c0.9,0.9,2,0.7,3.1,0.4c3.2-0.9,5.2-3.1,6.8-5.8c0.2-0.4,0.1-0.7,0-1C124.8,123.7,124.8,121.8,126.6,120.1z M47.1,139
		c-0.1-0.1-0.2-0.2-0.3-0.3c-3.2,2.2-6.5,4.3-9.7,6.5c-1.8,1.3-3.5,2.8-4.7,4.7c-0.4,0.7-0.7,1.5-0.1,2.2c0.6,0.7,1.5,0.5,2.2,0.2
		c1-0.4,2-1,2.7-1.8C40.5,146.8,43.8,142.9,47.1,139z"/>
	<path class="st0" d="M202.9,132.8c3.4-1.4,6.7-2.8,10.2-3.8c0.6-0.2,0.9-0.5,1.3-1c1.1-1.4,2.5-2.2,4.3-1.8
		c0.7,0.2,1.1-0.2,1.5-0.5c4.1-2.9,8.2-5.8,12.3-8.6c0.3-0.2,0.7-1,1.2-0.4c0.6,0.6-0.2,0.9-0.5,1.2c-1.3,1.5-1.3,3.3-1.4,5.2
		c-0.3,7.5-8.1,12.8-15.2,10.4c-2.1-0.7-2.9-1.6-3.1-3.9c-3.1,0.8-5.9,2.2-8.9,3.3c-2.9,1.1-5.3,2.8-7.3,5.3
		c-3.7,4.4-7.5,8.6-11.4,12.8c-1.8,2-4.1,3.2-6.9,3.1c-2.2-0.1-3.1-1.5-2.2-3.5c1-2.2,2.8-3.8,4.7-5.4c3-2.4,6.3-4.4,9.6-6.3
		c3-1.7,5.4-3.9,7.3-6.6c0-0.1,0.1-0.3,0.1-0.3c-0.1-0.1-0.3,0-0.3,0.1c-1.9,0.7-3.8,1.8-5.9,1.8c-1.3-0.1-2.6-0.1-2.9-1.9
		c-0.1-0.9-0.7-0.2-1-0.1c-2.4,0.8-4.7,1.9-7.3,2.1c-2.7,0.2-4.3-1-4.5-3.6c-2,1.7-4.1,3.2-6.8,3.6c-3,0.4-4.8-1.1-4.6-4.1
		c0.1-1.2-0.2-1.5-1.3-1.4c-1.4,0.1-2.7-0.5-3.7-1.5c-0.6-0.6-0.8-0.5-1.4,0c-2.8,2.6-5.7,5-9.4,6.4c-1.1,0.4-2.3,0.7-3.5,0.6
		c-2-0.1-2.5-0.6-2.7-2.8c-1,0.5-1.9,1-2.9,1.5c-1.8,0.9-3.7,1.5-5.7,1.2c-1.8-0.2-2.4-1.3-1.7-3c0.2-0.4,0.4-0.9,0.6-1.2
		c2.8-3.7,5.8-7.1,9-10.4c0.7-0.7,1.4-1.1,2.4-0.7c1.3,0.4,1.4,0.9,0.5,2c-2.5,2.9-5,5.7-7.5,8.6c-0.5,0.6-1,1.3-1.5,2
		c-0.2,0.3-0.5,0.6-0.3,1c0.2,0.3,0.6,0.2,1,0.2c3.1-0.4,5.8-1.7,7.9-4c2.7-3,5.2-6.2,8.1-8.9c0.7-0.7,1.4-1.2,2.5-0.8
		c1.1,0.4,1.4,0.9,0.5,1.9c-2.5,2.8-5,5.7-7.5,8.6c-0.3,0.4-0.6,0.7-0.9,1.1c-0.4,0.6-1.3,1.2-0.9,1.8c0.5,0.8,1.6,0.3,2.3,0.1
		c3.7-1.1,6.7-3.4,9.4-6.3c0.4-0.5,0.3-0.9,0.1-1.4c-0.7-2.7,0.5-5.1,2.8-5.8c1.3-0.4,1.9,0.1,1.7,1.5c-0.2,1.3-0.8,2.5-1.6,3.5
		c-1,1.3-0.5,2.2,0.4,3.1c1.4,1.3,3.4,1,4.4-0.6c2.3-3.6,5.4-6.2,9.5-7.4c0.7-0.2,1.4-0.3,2.2-0.3c3.2,0,4.3,1.4,3.5,4.6
		c-1.1,0.7-0.7-0.2-0.8-0.7c-0.1-1.9-1-2.5-2.8-2.2c-3.6,0.8-8.4,5.9-8.9,9.5c-0.2,1.5,0.4,2.2,1.9,2.2c1.2,0,2.3-0.4,3.4-1.1
		c3-2,5.3-4.7,7.5-7.4c1.3-1.4,2.7-2.8,4.1-4.1c0.5-0.5,1.2-0.9,2-0.7c1.5,0.4,1.7,1,0.7,2.1c-2.1,2.4-4.1,4.7-6.2,7
		c-0.8,0.9-1.5,1.8-1.9,2.9c-0.5,1.4,0,2.3,1.5,2.3c1.4,0,2.8-0.5,4.1-0.8c2.2-0.6,4-1.7,5.4-3.7c2.3-3.1,4.9-6.1,7.8-8.8
		c0.3-0.3,0.7-0.6,1.1-0.8c0.9-0.4,1.8-0.1,2.4,0.6c0.6,0.7-0.3,1.1-0.6,1.5c-2.6,3-5.2,6-7.8,9c-0.4,0.4-0.7,0.9-1,1.4
		c-0.2,0.3-0.5,0.6-0.3,1c0.2,0.3,0.6,0.3,1,0.2c2.8-0.3,5.3-1.5,7.2-3.4c2.3-2.3,4.3-4.9,6.5-7.4c0.8-0.9,1.8-1.7,2.7-2.6
		c0.5-0.5,1.2-0.6,1.9-0.4c1.4,0.4,1.6,0.9,0.6,2c-3.1,3.6-6.3,7.1-9.4,10.7c-0.3,0.4-0.6,0.8-0.9,1.2c-0.1,0.1-0.3,0.2-0.3,0.3
		C202.5,133,202.7,132.8,202.9,132.8z M193,139c-0.1-0.1-0.2-0.2-0.3-0.3c-4.7,3.3-9.9,5.8-13.8,10.2c-0.3,0.4-0.6,0.8-0.9,1.3
		c-0.3,0.6-0.5,1.3,0,1.9c0.5,0.6,1.3,0.5,1.9,0.4c1.1-0.3,2.1-0.9,2.9-1.8C186.3,146.9,189.6,142.9,193,139z M228.4,121.1
		c-2.8,1.9-5.4,3.7-8,5.6c-0.2,0.1-0.4,0.4-0.4,0.6c0.1,1.6-1.1,2.1-2.2,2.7c-0.5,0.3-1.3,0.4-1.1,1.2c0.2,0.7,0.9,1,1.6,1
		c0.5,0,1,0,1.5-0.2C224.9,130.8,228.1,126.8,228.4,121.1z"/>
	<path class="st0" d="M32.3,104.2c3,0.5,5.7-2.5,4.9-5.3c-0.4-1.3-1.7-1.9-3.5-1.7c-3,0.4-5.7,1.8-8.2,3.3
		c-8,4.9-14.9,11.1-19.5,19.4c-1.5,2.7-2.4,5.5-2.3,8.7c0,1.8,0.8,2.8,2.5,3.3c2.5,0.7,4.9,0.1,7.2-0.5c2-0.5,4-1.4,5.8-2.3
		c0.2,0.3,0.2,0.5,0,0.6c-4.5,2.7-9.3,4.5-14.6,4.1c-3-0.2-4.6-2.2-4.7-5.2c-0.1-4,1.3-7.6,3.3-10.9c6-9.7,14.2-17.1,24.9-21.5
		c2.3-1,4.8-1.3,7.4-1c3.2,0.4,4.9,3.4,3.6,6.3c-1.2,2.7-4.7,4.5-7.2,3.7c-1.3-0.4-1.8-1.3-1.4-2.5c0.5-1.3,2.1-2.2,3.1-1.6
		c0.9,0.5,0.7,1.1,0.1,1.8C33.3,103.4,32.6,103.4,32.3,104.2z"/>
	<path class="st1" d="M52.3,132.2c0.1-0.2,0.3-0.4,0.5-0.2c-0.1,0.1-0.2,0.3-0.3,0.4C52.4,132.4,52.4,132.3,52.3,132.2z"/>
	<path class="st1" d="M57.2,132.7c-0.2,0.1-0.4,0.3-0.7,0.1c0.1-0.2,0.2-0.3,0.3-0.5C56.9,132.5,57,132.6,57.2,132.7z"/>
	<path class="st1" d="M81.8,120.1c-0.1,0.1-0.2,0.2-0.3,0.2c-0.3-0.2,0-0.3,0.1-0.4C81.7,119.9,81.8,120,81.8,120.1z"/>
	<path class="st1" d="M198.3,132.2c0.1-0.2,0.2-0.2,0.3-0.1c0,0-0.1,0.2-0.1,0.3C198.4,132.3,198.4,132.2,198.3,132.2z"/>
	<path class="st1" d="M202.9,132.8c-0.2,0.1-0.4,0.2-0.5,0c0,0,0.2-0.2,0.3-0.3C202.7,132.6,202.8,132.7,202.9,132.8z"/>
</g>
<circle class="st2" cx="117" cy="47" r="47"/>
<path class="st1" d="M154.2,45.5c-1.6,0.1-3.3,0-4.9,0c-0.5,0-0.7,0.1-0.7,0.7c0,4.8-0.9,9.4-3,13.8c-4.8,9.7-12.4,15.9-23.1,17.9
	c-11,2-20.7-1.2-28.6-9.1c-5.2-5.2-8.2-11.6-8.9-18.9c-0.9-9.8,2-18.2,9.3-25.3c5.3-5.5,11.8-8.7,19.3-9.6c0.6-0.1,1.2-0.1,1.8-0.2
	c0.3,0,0.5,0.1,0.4,0.4c-0.1,0.2,0.2,0.7-0.4,0.7c-5.6,0.3-10.7,1.9-15.3,5.1C91.6,26.8,87,34.9,86.5,45.2c-0.3,7.9,2.2,14.9,7.2,21
	c1.8,2.2,3.8,4.1,6.1,5.6c3.1,2,6.4,3.5,10,4.4c1.2,0.3,2.4,0.6,3.6,0.7c9.4,0.9,17.8-1.7,24.7-8.3c5-4.8,8.1-10.7,9.1-17.6
	c0.2-1.6,0.3-3.3,0.3-5c0-0.3,0-0.5-0.4-0.5h-4.9c-0.4,0-0.6,0.2-0.8,0.5c-1.7,3.5-3.7,6.8-6.3,9.8c-1.4,1.6-2.9,3-4.7,4.1
	c-1,0.5-1.9,0.9-3,1c-0.7,0.1-1.1-0.1-1.6-0.5c-0.9-0.7-1.6-1.6-2.3-2.5c-1.5-1.9-2.7-3.9-4.2-5.7c-0.7-0.8-1.4-1.7-2.3-2.3
	c-1.5-1-3-1.1-4.4,0.4c-1.3,1.3-2.1,2.8-2.9,4.4c-0.8,1.5-1.5,3.1-2.5,4.5c-0.4,0.5-0.7,1-1.2,1.4c-0.7,0.6-1.2,0.7-1.9,0.1
	c-1-0.7-1.7-1.6-2.4-2.5c-2.8-3.6-5-7.6-7.1-11.6c-0.3-0.4-0.5-0.9-0.8-1.4c-0.1-0.3-0.2-0.4,0.2-0.4h2.6c0.3,0,0.4,0.3,0.5,0.5
	c1,2.3,2.1,4.7,3.3,6.9c0.7,1.3,1.4,2.6,2.4,3.8c0.4,0.5,0.8,0.9,1.3,1.2c0.6,0.3,1.2,0.3,1.8-0.1c0.5-0.4,0.9-1,1.3-1.6
	c1-1.7,1.8-3.5,2.7-5.3c0.4-0.8,0.8-1.7,1.4-2.5c0.4-0.8,1-1.6,1.6-2.2c1.2-1.2,2.1-1.3,3.5-0.3c0.9,0.6,1.6,1.4,2.3,2.2
	c1.7,1.9,3,4,4.7,5.8c0.9,1,1.9,1.9,3,2.6c0.5,0.3,1,0.4,1.5,0.4c1.1-0.2,2-0.7,2.8-1.5c1.3-1.2,2.2-2.6,3.1-4.1
	c0.4-0.7,0.8-1.3,1-2c-0.3,0.5-0.6,1-0.9,1.5c-1.1,1.7-2.3,3.4-3.9,4.7c-1.5,1.1-2.6,1.1-4.1,0c-0.2-0.1-0.3-0.3-0.5-0.4
	c-1-0.9-1.9-2-2.7-3c-1.4-1.8-2.7-3.7-4.3-5.4c-0.8-0.7-1.5-1.5-2.5-1.9c-0.9-0.4-1.8-0.4-2.6,0.1c-1,0.6-1.7,1.5-2.3,2.5
	c-0.8,1.4-1.5,2.8-2.3,4.2c-0.1,0-0.1,0.1-0.1,0.1v0.1c0,0,0,0.1-0.1,0.1c-0.8,1.6-1.6,3.1-2.6,4.5c-0.1,0.1-0.3,0.3-0.4,0.4
	c-0.4,0.3-0.7,0.3-1.1,0c-0.6-0.5-1-1-1.4-1.6c-0.5-0.8-1-1.5-1.4-2.4c-0.6-0.8-1-1.8-1.4-2.7c-0.9-1.8-1.7-3.7-2.4-5.5
	c-0.2-0.3-0.3-0.4-0.7-0.4H95c0,0-0.1,0-0.2,0h-3.3c0.3,0.6,0.5,1.1,0.8,1.6c0.6,1.3,1.3,2.7,2,4c1.9,3.7,3.9,7.2,6.4,10.5
	c0.7,1,1.6,1.9,2.6,2.7c0.1,0,0.1,0,0.2,0.1c0.9,0.5,1.8,0.4,2.6,0c1.4-0.9,2.3-2.3,3.1-3.7c1.1-1.8,1.9-3.7,3.1-5.5
	c0.5-0.7,0.9-1.3,1.5-1.8s1-0.5,1.7-0.1c0.9,0.6,1.5,1.4,2.2,2.2c1.2,1.6,2.3,3.2,3.4,4.8c0.8,1.1,1.6,2.2,2.5,3.2
	c1.4,1.4,2.9,1.8,4.8,1.3c2.4-0.6,4.4-2,6.1-3.7c3.2-3.1,5.7-6.9,7.8-10.8c0.2-0.5,0.4-0.7,0.9-0.6h1.3c0.3,0,0.4,0.1,0.4,0.5
	c-0.2,2.4-0.5,4.7-1.3,6.9C140.1,65,133.3,71.6,123,74c-9.6,2.2-18.2-0.2-25.4-6.8c-6.3-5.8-9.3-13.3-8.9-21.9
	c0.6-12.8,10.1-23.7,22.8-26.1c2.1-0.4,4.2-0.5,6.3-0.5c0.2,0,0.2-0.2,0.2-0.4c0-2,0-3.9-0.2-5.8c0-0.2,0-0.3-0.1-0.4
	c-1.6,0-3.1,0.1-4.7,0.2c-4.4,0.4-8.6,1.7-12.5,3.7c-1.1,0.5-2.2,1.2-3.3,1.9c-3.5,2.5-6.6,5.4-9,8.9c-3.9,5.6-5.9,11.8-6.2,18.6
	c-0.5,13.4,7,26,19,32c5.4,2.7,11.1,4,17.1,3.6c13.1-0.9,22.9-7.3,29.1-18.9c2.3-4.3,3.4-9,3.6-13.9c0-0.3,0.1-0.4,0.4-0.4
	c1.2,0,1.2,0,1.1,1.1c0,1.8-0.3,3.6-0.7,5.4c-0.4,1.4-0.7,2.8-1.2,4.1c-0.9,2.4-1.9,4.8-3.3,7c-1.4,2.4-3.2,4.6-5.2,6.6
	c-1.7,1.7-3.6,3.2-5.6,4.6c-4.1,2.9-8.7,4.7-13.6,5.5c-8.2,1.4-16.1,0.2-23.5-3.8c-3.4-1.8-6.4-4.1-9-6.9C86,67,83,61.8,80.7,56.2
	c-1.5-5.5-1.6-11.1-0.5-16.8C81,35.1,82.7,31,85,27.3c1-1.6,2.1-3.1,3.3-4.5c-0.2,0.2-0.4,0.4-0.6,0.6c-0.1,0.1-0.1,0.1-0.1,0.2
	l-0.1,0.1c-0.1,0.1-0.2,0.2-0.3,0.3L87,24.2c-0.1,0.1-0.2,0.2-0.3,0.3l-0.1,0.1c0,0.1-0.1,0.3-0.3,0.4c0,0.1-0.1,0.2-0.2,0.3
	L86,25.4c0,0.1-0.1,0.1-0.1,0.2l-0.1,0.1l-0.1,0.1c-0.1,0.3-0.3,0.5-0.5,0.7c0,0.1-0.1,0.1-0.1,0.2c-1.5,2.3-2.7,4.7-3.7,7.2
	c-0.1,0.1-0.1,0.3-0.2,0.5c-0.1,0-0.1,0.1-0.1,0.1c0,0.1,0,0.2-0.1,0.3c-0.1,0.6-0.3,1.1-0.5,1.7c0,0.1,0,0.1,0,0.2
	c0,0.1,0,0.1-0.1,0.2c-0.3,1.5-0.7,3.1-0.9,4.7c-1.1,7.4-0.1,14.6,3.2,21.3c5.6,11.3,14.6,18.4,27,20.8c12.4,2.4,23.4-0.9,32.8-9.4
	c6.6-6,10.5-13.6,11.8-22.4c0.3-1.9,0.4-3.9,0.4-5.9C154.7,45.6,154.6,45.5,154.2,45.5z"/>
<path class="st1" d="M117,3.6C93,3.6,73.6,23,73.6,47S93,90.4,117,90.4c0.5,0,0.9-0.1,1.4-0.1c21.8-0.7,39.6-17.4,41.8-38.9
	c0.1-1.5,0.2-2.9,0.2-4.4C160.4,23,141,3.6,117,3.6z M145.8,75.8c-8.3,8.3-19.3,12.2-30.1,11.8c-10-0.3-19.9-4.2-27.5-11.9
	c-15.9-15.9-15.9-41.7,0-57.6s41.7-15.9,57.6,0c8.4,8.4,12.3,19.6,11.8,30.7C157.2,58.7,153.3,68.3,145.8,75.8z"/>
</svg>
