<?xml version="1.0" encoding="utf-8"?>
<!-- Roman Inozemtsev: https://github.com/mir-one/  -->
<svg version="1.1" id="Слой_1" xmlns="http://www.w3.org/2000/svg" xmlns:xlink="http://www.w3.org/1999/xlink" x="0px" y="0px"
	 viewBox="0 0 17.9 17.9" style="enable-background:new 0 0 17.9 17.9;" xml:space="preserve">
<style type="text/css">
	.st0{fill:#4598C5;}
</style>
<g id="Layer_x0020_1">
	<path id="Layer_x0020_1_0" class="st0" d="M9,0c2.4,0,4.7,1,6.3,2.6c1.6,1.7,2.6,3.9,2.6,6.4c0,2.4-1,4.7-2.6,6.3
		c-1.7,1.6-3.9,2.6-6.3,2.6c-2.5,0-4.8-1-6.4-2.6C1,13.7,0,11.5,0,9c0-2.5,1-4.8,2.6-6.4C4.3,1,6.5,0,9,0z M6.3,8.6h1L7.1,9.2H6.3
		V8.6z M10.6,8.6h1v0.6h-0.8L10.6,8.6z M6.3,7.6h1.5L7.6,8.1H6.3V7.6z M10.1,7.6h1.5v0.6h-1.2L10.1,7.6z M6.3,6.6h2L8.1,7.1H6.3V6.6
		z M9.7,6.6h1.9v0.6H9.9L9.7,6.6z M6.3,5.5h5.3v0.6H6.3V5.5z M13.2,3.8v7.6H12V5H6v6.3H4.8V3.8C7.6,3.8,10.4,3.8,13.2,3.8z
		 M7.9,16.4V13H6.1l3-6.2l2.9,6.2h-1.8v3.4c1.7-0.2,3.1-1,4.3-2.1C15.6,13,16.5,11,16.5,9c0-2.1-0.9-4-2.2-5.3C13,2.3,11,1.4,9,1.4
		c-2.1,0-4,0.9-5.3,2.2S1.4,6.9,1.4,9c0,2,0.9,4,2.2,5.3C4.8,15.4,6.3,16.2,7.9,16.4z"/>
</g>
</svg>
