<?xml version="1.0" encoding="utf-8"?>
<!-- Roman Inozemtsev: https://github.com/mir-one/  -->
<svg version="1.1"
	 id="Слой_1" shape-rendering="geometricPrecision" image-rendering="optimizeQuality" text-rendering="geometricPrecision"
	 xmlns="http://www.w3.org/2000/svg" xmlns:xlink="http://www.w3.org/1999/xlink" x="0px" y="0px" viewBox="0 0 194.5 22.8"
	 style="enable-background:new 0 0 194.5 22.8;" xml:space="preserve">
<style type="text/css">
	.st0{fill:#111111;}
</style>
<g id="Canvas-2">
	<g id="path34">
		<path id="path0_fill-2" class="st0" d="M83.1,13.9H94v-5H83.1V5.5h12V0.2H76.9v22.6h18.4v-5.3H83.1V13.9z M109.4,17.8h-4.9v-4.2
			h4.8c2.1,0,3.1,0.8,3.1,2C112.4,17.1,111.3,17.8,109.4,17.8z M104.6,5.3h4.1c1.9,0,2.9,0.7,2.9,1.9c0,1.4-1.1,2-3,2h-4L104.6,5.3z
			 M114.2,11c2.1-0.7,3.5-2.8,3.5-5c0.1-1.4-0.5-2.7-1.4-3.7c-1.3-1.3-3.3-2-6.2-2H98.5v22.5h11.7c5.4,0,8.6-2.4,8.6-6.2
			C118.7,13.5,117,11.9,114.2,11L114.2,11z M185.6,9.9l8.6-9.7h-7.4L179,9.4V0.2h-6.3v22.6h6.3v-5.9l2.3-2.6l5.7,8.4h7.5L185.6,9.9z
			 M64,11.1h-4.1V5.6H64c2.1,0,3.4,0.9,3.4,2.7S66.2,11.1,64,11.1L64,11.1z M73.7,8c0.1-2-0.6-3.9-2-5.4c-1.5-1.5-3.9-2.4-7.4-2.4
			H53.6v22.6h6.3v-6.9h2.8l4.6,6.9h7.3l-5.4-7.9C71.9,13.8,73.8,11.1,73.7,8L73.7,8z M129.8,13.9l2.6-6.4l2.5,6.4H129.8z M129.4,0
			l-9.6,22.8h6.6l1.6-4h8.7l1.6,4h6.7L135.5,0L129.4,0z M162.5,12.2l-9.3-12h-5.9v22.6h6.2V10.4l9.7,12.4h5.5V0.2h-6.2L162.5,12.2z
			 M41.5,17.8h-4.8v-4.2h4.8c2.1,0,3.1,0.8,3.1,2C44.5,17.1,43.4,17.8,41.5,17.8L41.5,17.8z M36.6,5.3h4.1c1.9,0,2.8,0.7,2.8,1.9
			c0,1.4-1.1,2-3,2h-3.9L36.6,5.3z M46.2,11c2.1-0.7,3.5-2.8,3.5-5c0.1-1.4-0.5-2.7-1.5-3.7c-1.3-1.3-3.3-2-6.2-2H30.5v22.5h11.7
			c5.4,0,8.6-2.4,8.6-6.2C50.8,13.5,49,11.9,46.2,11L46.2,11z M6.2,0.2H0v22.6h17.2v-5.5h-11L6.2,0.2z M20.1,22.8h6.3V0.2h-6.3V22.8
			z"/>
	</g>
</g>
</svg>
