<?xml version="1.0" encoding="utf-8"?>
<!-- Roman Inozemtsev: https://github.com/mir-one/  -->
<svg version="1.1" id="Layer_1" xmlns="http://www.w3.org/2000/svg" xmlns:xlink="http://www.w3.org/1999/xlink" x="0px" y="0px"
	 viewBox="0 0 67 67" style="enable-background:new 0 0 67 67;" xml:space="preserve">
<style type="text/css">
	.st0{fill:#4D4D4D;}
	.st1{fill:#8B8B8B;}
	.st2{fill:#FFFFFF;}
	.st3{fill:#58595B;}
</style>
<g>
	<path class="st0" d="M65.6,43.2l-2.1-2.1C60.7,52.1,52,60.8,40.9,63.5l2.1,2.1C53.8,62.4,62.3,54,65.6,43.2z"/>
	<g>
		<path class="st1" d="M33.5,64.4c-17.1,0-30.9-13.9-30.9-30.9S16.4,2.6,33.5,2.6c17.1,0,30.9,13.9,30.9,30.9c0,2.6-0.4,5.1-1,7.6
			l2.1,2.1c0.9-3.1,1.4-6.3,1.4-9.7C67,15,52,0,33.5,0S0,15,0,33.5S15,67,33.5,67c3.3,0,6.5-0.5,9.5-1.4l-2.1-2.1
			C38.5,64.1,36,64.4,33.5,64.4z"/>
		<path class="st1" d="M33.4,53.4L18.6,33.9l14.2-13.3l0.6-9.6l28.5,28.5c1.9-9.3-0.7-19.3-7.9-26.5C42.7,1.7,24.3,1.7,13,13
			C1.7,24.3,1.7,42.7,13,54c7.1,7.1,17.1,9.8,26.3,7.9l-6-6L33.4,53.4z"/>
		<path class="st2" d="M33.5,2.6C16.4,2.6,2.6,16.4,2.6,33.5s13.9,30.9,30.9,30.9c2.5,0,5-0.3,7.4-0.9C52,60.8,60.7,52.1,63.5,41.1
			c0.6-2.4,1-4.9,1-7.6C64.4,16.4,50.6,2.6,33.5,2.6z M54,54c-4.2,4.2-9.3,6.8-14.7,7.9C30.1,63.8,20.1,61.2,13,54
			C1.7,42.7,1.7,24.3,13,13C24.3,1.7,42.7,1.7,54,13c7.2,7.2,9.8,17.2,7.9,26.5C60.8,44.8,58.2,49.9,54,54z"/>
		<path class="st0" d="M61.9,39.5L33.4,11l-0.6,9.6L18.6,33.9l14.9,19.5l-0.1,2.5l6,6c5.4-1.1,10.6-3.7,14.7-7.9
			C58.2,49.9,60.8,44.8,61.9,39.5z"/>
		<g>
			<polygon class="st3" points="48.5,34.3 33.8,11.5 19,34.3 33.8,42.5 48.5,34.3 48.4,34.3 			"/>
			<polygon class="st3" points="19,37 33.8,56.4 48.5,37 33.8,45.1 			"/>
		</g>
		<g>
			<polygon class="st2" points="48.1,33.8 33.3,11.1 18.6,33.9 33.3,42.1 48.1,33.9 48,33.9 			"/>
			<polygon class="st2" points="18.6,36.6 33.3,55.9 48.1,36.5 33.3,44.7 			"/>
		</g>
	</g>
</g>
</svg>
