<?xml version="1.0" encoding="utf-8"?>
<!-- Roman Inozemtsev: https://github.com/mir-one/  -->
<svg version="1.1"
	 id="Слой_1" image-rendering="optimizeQuality" shape-rendering="geometricPrecision" text-rendering="geometricPrecision"
	 xmlns="http://www.w3.org/2000/svg" xmlns:xlink="http://www.w3.org/1999/xlink" x="0px" y="0px" viewBox="0 0 210.9 42.3"
	 style="enable-background:new 0 0 210.9 42.3;" xml:space="preserve">
<style type="text/css">
	.st0{fill:#4598C5;}
</style>
<g>
	<path class="st0" d="M0,35.5V7.4h8.7c2.5,0,4.6,0.6,6.7,1.7c1.9,1.1,3.5,2.7,4.5,4.8c1.1,2,1.7,4.4,1.7,7v1.2c0,2.6-0.6,5-1.6,7
		c-1,2-2.6,3.6-4.5,4.8c-1.9,1.1-4.2,1.7-6.7,1.7H0V35.5z M5.8,12v18.8h2.8c2.3,0,4-0.8,5.2-2.3s1.8-3.6,1.8-6.3v-1.5
		c0-2.8-0.6-5-1.8-6.6c-1.1-1.5-2.9-2.3-5.2-2.3H5.8V12z"/>
	<path class="st0" d="M41.2,29.7H31l-1.9,5.8h-6.2L33.4,7.3h5.4l10.5,28.2h-6.2L41.2,29.7z M32.6,25h7l-3.5-10.5L32.6,25z"/>
	<path class="st0" d="M58.9,20.1l5.9-12.7H71l-9.3,18v10.2h-5.9V25.4l-9.2-18H53L58.9,20.1z"/>
	<path class="st0" d="M95.1,26.2c-0.2,3.1-1.4,5.4-3.4,7.1c-2,1.7-4.6,2.6-7.9,2.6c-3.6,0-6.5-1.2-8.5-3.6s-3.1-5.8-3.1-10v-1.8
		c0-2.7,0.5-5.1,1.5-7.1c0.9-2,2.3-3.6,4.1-4.8s3.8-1.7,6.2-1.7c3.3,0,5.9,0.9,7.8,2.6c2,1.7,3.2,4.2,3.4,7.4h-5.8
		c-0.1-1.8-0.7-3.2-1.5-4c-0.9-0.8-2.2-1.2-4-1.2c-1.9,0-3.4,0.7-4.3,2s-1.5,3.5-1.5,6.5v2.2c0,3.1,0.5,5.3,1.4,6.7
		c0.9,1.4,2.4,2.2,4.4,2.2c1.8,0,3.2-0.5,4-1.2c0.9-0.8,1.4-2,1.5-3.8h5.7V26.2z"/>
	<path class="st0" d="M122.1,22.1c0,2.7-0.5,5.2-1.5,7.2s-2.4,3.7-4.2,4.9c-1.8,1.1-4,1.7-6.2,1.7c-2.4,0-4.4-0.6-6.2-1.7
		s-3.3-2.7-4.3-4.8c-1-2-1.5-4.5-1.5-7.1V21c0-2.7,0.5-5.2,1.5-7.4c1-2.2,2.4-3.7,4.2-4.9s4-1.7,6.2-1.7c2.4,0,4.4,0.6,6.2,1.7
		c1.8,1.1,3.3,2.7,4.2,4.9c1,2.2,1.5,4.5,1.5,7.4v1.1H122.1z M116.3,20.7c0-2.9-0.6-5.2-1.6-6.7c-1-1.6-2.6-2.3-4.5-2.3
		c-1.9,0-3.4,0.8-4.5,2.3c-1,1.5-1.6,3.7-1.6,6.7v1.4c0,2.8,0.6,5.1,1.6,6.7c1,1.6,2.6,2.4,4.5,2.4c1.9,0,3.4-0.8,4.5-2.3
		c1-1.5,1.6-3.7,1.6-6.7V20.7z"/>
	<path class="st0" d="M143.3,24h-11.2v11.5h-5.8V7.4h18.3v4.8h-12.6v7.2h11.1V24H143.3z"/>
	<path class="st0" d="M164.9,24h-11.1v11.5h-5.8V7.4h18.3v4.8h-12.6v7.2h11.1L164.9,24L164.9,24z"/>
	<path class="st0" d="M186.7,23.2h-11.1v7.6h13.1v4.6h-18.9V7.4h18.8v4.8h-13v6.7h11.1L186.7,23.2L186.7,23.2z"/>
	<path class="st0" d="M209,23.2h-11.2v7.6h13.1v4.6H192V7.4h18.8v4.8h-13v6.7h11.1v4.4H209z"/>
</g>
</svg>
