<?xml version="1.0" encoding="utf-8"?>
<!-- Roman Inozemtsev: https://github.com/mir-one/  -->
<svg version="1.1" id="Слой_1" xmlns="http://www.w3.org/2000/svg" xmlns:xlink="http://www.w3.org/1999/xlink" x="0px" y="0px"
	 viewBox="0 0 67 67" style="enable-background:new 0 0 67 67;" xml:space="preserve">
<style type="text/css">
	.st0{fill:#FFFFFF;}
	.st1{fill:#C34396;}
	.st2{fill:#90278E;}
	.st3{fill:none;}
	.st4{fill:#58595B;}
</style>
<g>
	<ellipse transform="matrix(0.7071 -0.7071 0.7071 0.7071 -13.8761 33.5)" class="st0" cx="33.5" cy="33.5" rx="33.5" ry="33.5"/>
	<path class="st1" d="M40.4,13l22.1,22.1c0.5-8.1-2.2-16.3-8.4-22.5c-11.3-11.3-29.7-11.3-41,0c-11.3,11.3-11.3,29.7,0,41
		c11.3,11.3,29.7,11.3,41,0c0.4-0.4,0.8-0.9,1.2-1.3L28.2,25.2L40.4,13z"/>
	<path class="st2" d="M40.4,13L28.2,25.2l27.1,27.1c4.4-5,6.8-11,7.2-17.2L40.4,13z"/>
	<path class="st3" d="M55.6,11.6c-12.1-12.1-31.7-12.1-43.8,0c-12.1,12.1-12.1,31.7,0,43.8c12.1,12.1,31.7,12.1,43.8,0
		c0.5-0.5,0.9-1,1.3-1.5L28.2,25.2L40.4,13L64.5,37C65.5,28,62.5,18.5,55.6,11.6z"/>
	<path class="st1" d="M55.6,55.4c-12.1,12.1-31.7,12.1-43.8,0c-12.1-12.1-12.1-31.7,0-43.8c12.1-12.1,31.7-12.1,43.8,0
		c7,6.9,9.9,16.4,8.9,25.4l2,2c0.3-1.8,0.5-3.7,0.5-5.6C67,15,52,0,33.5,0C15,0,0,15,0,33.5S15,67,33.5,67c10,0,19-4.4,25.1-11.4
		l-1.7-1.7C56.5,54.4,56.1,54.9,55.6,55.4z"/>
	<path class="st2" d="M64.5,37c-0.7,6.1-3.2,12-7.5,16.9l1.7,1.7c4-4.6,6.8-10.3,7.9-16.6L64.5,37z"/>
	<path class="st4" d="M33.9,14.3c3.2-2.4,6.1-2.4,8.1,0.2c1.7,2.1,1.9,5.1,0.6,7.5c-1.9,3.3-5.3,4.8-8.1,7.2
		c-0.4,0.3-0.7,0.3-1.2-0.1c-2.6-2.2-5.7-3.7-7.6-6.5c-1.6-2.4-1.8-4.9-0.3-7.4c1.6-2.8,4.8-3.5,7.5-1.7
		C33.2,13.7,33.5,14,33.9,14.3z"/>
	<path class="st0" d="M7.3,33.9c0,14.5,11.8,26.3,26.3,26.3s26.3-11.8,26.3-26.3H7.3z M34.4,56c-4.2,0.6-7.8-2.7-7.8-6.7
		c0-1.5,0.5-2.9,1.3-4.2c0.8-1.3,1.8-2.3,2.8-3.5c0.8-1,1-1.2,1.8-2.2c0.4-0.5,1-0.7,1.5-0.1c1.3,1.6,2,2.3,3.2,3.8
		c1,1.2,1.9,2.4,2.5,3.9C41.2,51.1,38.7,55.4,34.4,56z"/>
	<path class="st0" d="M33.2,13.7c3.2-2.4,6.1-2.4,8.1,0.2c1.7,2.1,1.9,5.1,0.6,7.5c-1.9,3.3-5.3,4.8-8.1,7.2
		c-0.4,0.3-0.7,0.3-1.2-0.1C30,26.3,26.9,24.8,25,22c-1.6-2.4-1.8-4.9-0.3-7.4c1.6-2.8,4.8-3.5,7.5-1.7
		C32.5,13.1,32.8,13.4,33.2,13.7z"/>
</g>
</svg>
