<?xml version="1.0" encoding="utf-8"?>
<!-- Roman Inozemtsev: https://github.com/mir-one/  -->
<svg version="1.1" id="Слой_1" xmlns="http://www.w3.org/2000/svg" xmlns:xlink="http://www.w3.org/1999/xlink" x="0px" y="0px"
	 viewBox="0 0 67 67" style="enable-background:new 0 0 67 67;" xml:space="preserve">
<style type="text/css">
	.st0{fill:none;}
	.st1{fill:#4AB76E;}
	.st2{fill:#2D7C59;}
	.st3{fill:#2D64A2;}
	.st4{fill:#FFFFFF;}
	.st5{fill:#58595B;}
	.st6{fill:#929497;}
</style>
<g>
	<path class="st0" d="M33.5,2.6C16.4,2.6,2.6,16.4,2.6,33.5c0,17.1,13.9,30.9,30.9,30.9c0.3,0,0.7,0,1-0.1c0.7,0,1.4-0.1,2.2-0.2
		L25,52.6L20.4,26l26.3-8.7l17.7,17.7c0-0.5,0-1.1,0-1.6C64.4,16.4,50.6,2.6,33.5,2.6z"/>
	<g>
		<path class="st1" d="M54,13C42.7,1.7,24.3,1.7,13,13C1.7,24.3,1.7,42.7,13,54c5.4,5.4,12.5,8.2,19.6,8.5
			c7.7,0.2,15.5-2.6,21.4-8.5c5.3-5.3,8.1-12.2,8.4-19.2C62.8,27,60,19,54,13z"/>
		<path class="st1" d="M34.5,64.4c-0.3,0-0.7,0.1-1,0.1c-17.1,0-30.9-13.9-30.9-30.9c0-17.1,13.9-30.9,30.9-30.9
			c17.1,0,30.9,13.9,30.9,30.9c0,0.5,0,1.1,0,1.6l2.3,2.3c0.2-1.3,0.3-2.6,0.3-3.9C67,15,52,0,33.5,0S0,15,0,33.5S15,67,33.5,67
			c1.2,0,2.3-0.1,3.4-0.2c0.7-0.1,1.4-0.2,2-0.3l-2.3-2.3C35.9,64.3,35.2,64.4,34.5,64.4z"/>
	</g>
	<g>
		<path class="st2" d="M20.4,26L25,52.6l11.6,11.6c14.6-1.5,26.2-13,27.6-27.6c0.1-0.5,0.1-1,0.1-1.6L46.7,17.4L20.4,26z"/>
		<path class="st2" d="M66.5,38.9c0.1-0.5,0.1-1,0.2-1.5l-2.3-2.3c0,0.5-0.1,1-0.1,1.6c-1.5,14.6-13.1,26.1-27.6,27.6l2.3,2.3
			C53.1,64.2,64.2,53,66.5,38.9z"/>
	</g>
	<path class="st3" d="M19.4,27.6c0.8,1,1.4,2.1,1.9,3.3C20.7,29.8,20,28.7,19.4,27.6z"/>
	<path class="st4" d="M33.5,2.6C16.4,2.6,2.6,16.4,2.6,33.5c0,17.1,13.9,30.9,30.9,30.9c0.3,0,0.7,0,1-0.1
		c15.6-0.5,28.2-12.5,29.8-27.7c0.1-1,0.2-2.1,0.2-3.2C64.4,16.4,50.6,2.6,33.5,2.6z M54,54c-5.9,5.9-13.7,8.7-21.4,8.5
		c-7.1-0.2-14.2-3-19.6-8.5C1.7,42.7,1.7,24.3,13,13C24.3,1.7,42.7,1.7,54,13c6,6,8.8,14,8.4,21.8C62.1,41.8,59.3,48.7,54,54z"/>
	<g>
		<path class="st5" d="M40.9,53.9c-3,0-5.9,0-8.9,0c-0.3,0-0.6,0-0.9-0.1c0.8-1.6,1.9-3.1,2.6-4.8c0.4-0.5,0.4-0.4,0.5-0.7
			c1.1-1.9,2.2-3.7,3.3-5.6c0.7-1.2,0.7-1.2-0.4-1.9c-0.5-0.3-0.8-0.6-0.7-1.2c0.1-0.5,0.4-0.8,1-1c1-0.3,2-0.6,3-0.8
			c0.4-0.1,0.6-0.1,0.9-0.2c1.4-0.4,2.9-0.8,4.3-1.1c0.8-0.2,1.3,0.1,1.5,0.9c0.4,1.7,0.9,3.4,1.4,5.2c0.2,1,0.5,2,0.7,3
			c0.1,0.5,0.2,0.9-0.3,1.2c-0.4,0.4-0.9,0.3-1.4,0c-0.2-0.1-0.4-0.2-0.6-0.4c-0.4-0.3-0.6-0.2-0.8,0.2c-0.7,1.3-1.5,2.6-2.2,3.9
			c-0.5,0.8-0.9,1.6-1.5,2.3C42.1,53.4,41.4,53.9,40.9,53.9z"/>
		<path class="st5" d="M34.1,17.2c0.7-0.7,1.4-1.3,2-2c0.4-0.4,0.8-0.8,1.4-0.6c0.6,0.2,0.7,0.8,0.7,1.4c-0.1,0.9,0.2,1.2,1.1,1.1
			c1.8-0.1,3.5-0.1,5.3-0.1c1.6,0,2.8,0.6,3.5,2c1.4,2.5,2.8,4.9,4.2,7.4c-1.8,0-3.6,0.1-5.5,0.1c-2.5,0-4.9,0-7.4-0.1
			c-1.3,0-1.3,0-1.3,1.2c0,0.5-0.1,1-0.6,1.2c-0.5,0.2-1,0-1.4-0.4c-0.7-0.7-1.5-1.4-2.2-2.1c-1.1-1.3-2.4-2.4-3.6-3.7
			c-0.7-0.8-0.7-1.2,0-1.9C31.6,19.7,32.8,18.4,34.1,17.2z"/>
		<path class="st5" d="M19,42.4c-1-0.3-1.9-0.6-2.9-0.8c-0.5-0.1-0.9-0.3-1-0.9c-0.1-0.6,0.3-0.9,0.7-1.1c1.1-0.6,1.1-0.7,0.5-1.8
			c-1-1.7-1.9-3.3-2.9-5c-0.5-0.8-0.6-1.7-0.1-2.5c1.6-2.8,3.2-5.5,4.8-8.3c0.9,1.6,1.9,3.2,2.8,4.7c0.4,0.8,0.4,0.7,0.4,0.8
			c1.1,1.9,2.2,3.8,3.2,5.7c0.5,0.9,0.9,1,1.6,0.4c0.4-0.3,0.9-0.5,1.4-0.1c0.5,0.4,0.5,0.9,0.3,1.5c-0.3,1-0.6,1.9-0.7,2.9
			c-0.5,1.6-0.9,3.2-1.4,4.8c-0.3,1.1-0.7,1.3-1.7,1C22.4,43.2,20.7,42.8,19,42.4z"/>
		<path class="st5" d="M46.9,26.6c1.8,0,3.6-0.1,5.5-0.1c0.6,1,1.2,2,1.8,3c0.6,1.2,0.6,2.4,0,3.5c-1.9,3.2-3.8,6.5-5.6,9.7
			c-0.5-1.7-1-3.4-1.4-5.2c-0.2-0.8-0.7-1.1-1.5-0.9c-1.4,0.4-2.9,0.7-4.3,1.1c-0.3,0.1-0.3,0.1-0.9,0.2
			C42.5,34.2,44.7,30.4,46.9,26.6z"/>
		<path class="st5" d="M20.9,26.6c-0.9-1.6-1.9-3.2-2.8-4.7c0.7-1.3,1.2-2.6,2.2-3.6c0.7-0.7,1.5-1.1,2.4-1.1c3.8,0,7.5,0,11.3,0
			c-1.2,1.3-2.4,2.5-3.7,3.8c-0.7,0.8-0.7,1.1,0,1.9c1.2,1.3,2.5,2.4,3.6,3.7c-0.2,0-0.4,0-0.6,0C29.2,26.6,25.1,26.6,20.9,26.6z"/>
		<path class="st5" d="M19,42.4c1.7,0.4,3.4,0.9,5.1,1.3c1,0.3,1.4,0,1.7-1c0.5-1.6,0.9-3.2,1.4-4.8c2.2,3.8,4.4,7.5,6.5,11.3
			c-0.7,1.7-1.8,3.1-2.6,4.8c-1.2,0-2.4,0.1-3.5,0c-1.3-0.1-2.3-0.7-2.9-1.8C22.8,48.9,20.9,45.6,19,42.4z"/>
	</g>
	<g>
		<path class="st4" d="M40.3,53.3c-3,0-5.9,0-8.9,0c-0.3,0-0.6,0-0.9-0.1c0.8-1.6,1.9-3.1,2.6-4.8c0.4-0.5,0.4-0.4,0.5-0.7
			c1.1-1.9,2.2-3.7,3.3-5.6c0.7-1.2,0.7-1.2-0.4-1.9c-0.5-0.3-0.8-0.6-0.7-1.2c0.1-0.5,0.4-0.8,1-1c1-0.3,2-0.6,3-0.8
			c0.4-0.1,0.6-0.1,0.9-0.2c1.4-0.4,2.9-0.8,4.3-1.1c0.8-0.2,1.3,0.1,1.5,0.9c0.4,1.7,0.9,3.4,1.4,5.2c0.2,1,0.5,2,0.7,3
			c0.1,0.5,0.2,0.9-0.3,1.2c-0.4,0.4-0.9,0.3-1.4,0c-0.2-0.1-0.4-0.2-0.6-0.4c-0.4-0.3-0.6-0.2-0.8,0.2c-0.7,1.3-1.5,2.6-2.2,3.9
			c-0.5,0.8-0.9,1.6-1.5,2.3C41.6,52.8,40.8,53.3,40.3,53.3z"/>
		<path class="st4" d="M33.5,16.6c0.7-0.7,1.4-1.3,2-2c0.4-0.4,0.8-0.8,1.4-0.6c0.6,0.2,0.7,0.8,0.7,1.4c-0.1,0.9,0.2,1.2,1.1,1.1
			c1.8-0.1,3.5-0.1,5.3-0.1c1.6,0,2.8,0.6,3.5,2c1.4,2.5,2.8,4.9,4.2,7.4C50,26,48.2,26,46.4,26c-2.5,0-4.9,0-7.4-0.1
			c-1.3,0-1.3,0-1.3,1.2c0,0.5-0.1,1-0.6,1.2c-0.5,0.2-1,0-1.4-0.4c-0.7-0.7-1.5-1.4-2.2-2.1c-1.1-1.3-2.4-2.4-3.6-3.7
			c-0.7-0.8-0.7-1.2,0-1.9C31.1,19.1,32.3,17.9,33.5,16.6z"/>
		<path class="st4" d="M18.5,41.8c-1-0.3-1.9-0.6-2.9-0.8c-0.5-0.1-0.9-0.3-1-0.9c-0.1-0.6,0.3-0.9,0.7-1.1c1.1-0.6,1.1-0.7,0.5-1.8
			c-1-1.7-1.9-3.3-2.9-5c-0.5-0.8-0.6-1.7-0.1-2.5c1.6-2.8,3.2-5.5,4.8-8.3c0.9,1.6,1.9,3.2,2.8,4.7c0.4,0.8,0.4,0.7,0.4,0.8
			c1.1,1.9,2.2,3.8,3.2,5.7c0.5,0.9,0.9,1,1.6,0.4c0.4-0.3,0.9-0.5,1.4-0.1c0.5,0.4,0.5,0.9,0.3,1.5c-0.3,1-0.6,1.9-0.7,2.9
			c-0.5,1.6-0.9,3.2-1.4,4.8c-0.3,1.1-0.7,1.3-1.7,1C21.9,42.7,20.2,42.2,18.5,41.8z"/>
	</g>
	<g>
		<path class="st6" d="M46.4,26c1.8,0,3.6-0.1,5.5-0.1c0.6,1,1.2,2,1.8,3c0.6,1.2,0.6,2.4,0,3.5c-1.9,3.2-3.8,6.5-5.6,9.7
			c-0.5-1.7-1-3.4-1.4-5.2c-0.2-0.8-0.7-1.1-1.5-0.9c-1.4,0.4-2.9,0.7-4.3,1.1c-0.3,0.1-0.3,0.1-0.9,0.2C42,33.6,44.2,29.8,46.4,26z
			"/>
		<path class="st6" d="M20.4,26c-0.9-1.6-1.9-3.2-2.8-4.7c0.7-1.3,1.2-2.6,2.2-3.6c0.7-0.7,1.5-1.1,2.4-1.1c3.8,0,7.5,0,11.3,0
			c-1.2,1.3-2.4,2.5-3.7,3.8c-0.7,0.8-0.7,1.1,0,1.9c1.2,1.3,2.5,2.4,3.6,3.7c-0.2,0-0.4,0-0.6,0C28.7,26,24.5,26,20.4,26z"/>
		<path class="st6" d="M18.5,41.8c1.7,0.4,3.4,0.9,5.1,1.3c1,0.3,1.4,0,1.7-1c0.5-1.6,0.9-3.2,1.4-4.8c2.2,3.8,4.4,7.5,6.5,11.3
			c-0.7,1.7-1.8,3.1-2.6,4.8c-1.2,0-2.4,0.1-3.5,0c-1.3-0.1-2.3-0.7-2.9-1.8C22.2,48.3,20.4,45,18.5,41.8z"/>
	</g>
</g>
</svg>
