<?xml version="1.0" encoding="utf-8"?>
<!-- Roman Inozemtsev: https://github.com/mir-one/  -->
<svg version="1.1" id="Слой_1" xmlns="http://www.w3.org/2000/svg" xmlns:xlink="http://www.w3.org/1999/xlink" x="0px" y="0px"
	 viewBox="0 0 67 67" style="enable-background:new 0 0 67 67;" xml:space="preserve">
<style type="text/css">
	.st0{fill:#009BD8;}
	.st1{fill:#922A1E;}
	.st2{fill:#742D28;}
	.st3{fill:#54514F;}
	.st4{fill:#E5E4E5;}
	.st5{fill:#EEF0F1;}
	.st6{fill:#D3D2D1;}
</style>
<circle class="st0" cx="33.5" cy="33.5" r="33.5"/>
<g>
	<path class="st1" d="M42.5,38.3c-0.7,0.5-1.2,0.5-1.7-0.4c-2.4-4.4-4.9-8.7-7.4-13c-0.4-0.6-0.7-1.3-1.3-1.7
		c-0.3-1-1.1-1.7-1.6-2.6c-1.4-2.1-3.2-4-4.3-6.2c2.6-1.4,6.4-1.7,8.1-1.6c0.8,0.1,1.3,0.2,1.8,0.9c4.3,6.4,7.4,13.5,11,20.4
		c0.3,0.6,0.1,1-0.4,1.4c-0.4,0.3-0.8,0.6-1.2,0.9C44.4,36.8,43.4,37.5,42.5,38.3z"/>
	<path class="st1" d="M21.4,41.9c-1.9-1-1.9-1-1.1-3c1.3-3.6,2.6-7.1,4-10.7c0.5-1.3,0.8-2.5,0.3-3.8c2.5,0.2,5,0.5,7.4,0.7
		c0.2,1.5,0.1,3-0.5,4.4c-1.9,4.2-3.7,8.4-5.4,12.5c-0.3,0.7-0.6,1.3-1.5,1C23.6,42.4,22.5,42,21.4,41.9z"/>
	<path class="st2" d="M31.9,25.1c-2.5-0.2-5-0.5-7.4-0.7c-0.9-2.4-1.4-4-2.3-6.4c-0.3-0.7-0.1-1.2,0.6-1.7c0.7-0.6,2.1-1.4,3.3-2
		c1.2,2.3,2.9,4.1,4.3,6.2c0.6,0.8,1.3,1.6,1.6,2.6C32,23.8,32,24.5,31.9,25.1z"/>
	<path class="st3" d="M23.6,45c0.8,0.8,0.9,1.8,0.5,2.9c0,0.1-0.1,0.2-0.1,0.3c0.2,0,0.3,0,0.5,0c1.5,0.7,2.3,2.6,4.3,2.6
		c0.4,0,0.7,0.4,0.8,0.8c-1.2,0.3-2.3,0.7-3.5-0.1c-2.7-1.9-5.5-3.6-8.3-5.4c0.6-1.4,1.8-2.1,3.1-2.7c0.5,0.6,1.2,1,1.9,1.3
		C23,44.8,23.2,45,23.6,45z"/>
	<path class="st3" d="M47.3,39.2c0.9-0.4,1.7-0.2,2.4,0.3c0.1,0.1,0.2,0.3,0.3,0.4c0-0.2,0-0.3,0.1-0.5c0.1-0.1,0.1-0.1,0.2-0.2
		c1.3-1.1,3-1.5,4.5-2.3c0.5-0.3,1-0.3,1.5,0.2c-3.4,2.8-7.1,5.3-10.7,7.9c-0.7-0.9-0.8-2.1-1.3-3.1c-0.3-0.4,0.1-0.7,0.4-1
		C45.6,40.4,46.6,39.9,47.3,39.2z"/>
	<path class="st4" d="M17.7,46c2.8,1.8,5.6,3.6,8.3,5.4c1.2,0.8,2.4,0.4,3.5,0.1c0.5,0.4,0.6,0.9-0.1,1.1c-1.1,0.4-2.3,0.7-3.6-0.1
		c-2.7-1.8-5.5-3.5-8.2-5.2C16.6,46.7,16.7,46.3,17.7,46z"/>
	<path class="st4" d="M45.7,45c3.6-2.6,7.2-5.1,10.7-7.9c0.9,0.2,1,0.6,0.3,1.2c-3.3,2.5-6.5,4.9-9.8,7.3
		C46.1,46.1,45.7,45.8,45.7,45z"/>
	<path class="st5" d="M47.3,39.2c-0.8,0.7-1.7,1.2-2.6,1.7c-0.5-0.7-0.9-1.3-1.4-2c1-0.4,1.5-1.6,2.6-1.8
		C46.4,37.8,46.9,38.5,47.3,39.2z"/>
	<path class="st6" d="M22.7,44.6c-0.7-0.3-1.4-0.7-1.9-1.3c0.2-0.5,0.4-0.9,0.5-1.4c1.2,0.1,2.3,0.5,3.3,1.1
		c-0.1,0.1-0.2,0.2-0.3,0.3C23.6,43.6,22.8,43.6,22.7,44.6z"/>
	<path class="st6" d="M45.9,37.1c-1.2,0.2-1.6,1.4-2.6,1.8c-0.2-0.2-0.5-0.4-0.7-0.6c0.9-0.8,1.8-1.5,2.9-2.1
		C45.6,36.5,45.8,36.8,45.9,37.1z"/>
	<path class="st4" d="M22.7,44.6c0-1,0.9-1,1.5-1.3c-0.2,0.6-0.4,1.1-0.6,1.7C23.2,45,23,44.8,22.7,44.6z"/>
	<path class="st6" d="M50.3,39.3c-0.1,0.1-0.1,0.1-0.2,0.2c-0.1-0.1-0.2-0.1-0.3-0.2c-0.1-0.2-0.1-0.4,0.1-0.5
		C50.3,38.7,50.3,39.1,50.3,39.3z"/>
	<path class="st5" d="M24.5,48.1c-0.2,0-0.3,0-0.5,0c0-0.1,0.1-0.2,0.1-0.3c0.2,0,0.6-0.1,0.6,0C24.9,48,24.6,48,24.5,48.1z"/>
	<path class="st4" d="M49.8,39.3c0.1,0.1,0.2,0.1,0.3,0.2c0,0.2,0,0.3-0.1,0.5c-0.1-0.1-0.2-0.3-0.3-0.4
		C49.8,39.4,49.8,39.3,49.8,39.3z"/>
</g>
</svg>
