<?xml version="1.0" encoding="utf-8"?>
<!-- Roman Inozemtsev: https://github.com/mir-one/  -->
<svg version="1.1" id="Слой_1" xmlns="http://www.w3.org/2000/svg" xmlns:xlink="http://www.w3.org/1999/xlink" x="0px" y="0px"
	 viewBox="0 0 67 67" style="enable-background:new 0 0 67 67;" xml:space="preserve">
<style type="text/css">
	.st0{fill:#1B75BB;}
	.st1{fill:#4096C5;}
	.st2{fill:#58595B;}
	.st3{fill:#FFFFFF;}
</style>
<g>
	<path class="st0" d="M62.3,38.1L46.2,22c0,0,0,0,0,0c2.2,2.8,3.5,6.3,3.5,10.2c0,4.6-2,8.8-5,11.8c-1.2,1.1-1.2,1.1-3.7,3.1
		c-1.7,1.2-1.7,1.2-2.4,1.9c-0.8,0.7-1.8,1.9-1.8,2.9c0,3.5,0.3,7.1,0.5,10.6l0.2,0.2C47.9,61.5,60.3,52.8,62.3,38.1z"/>
	<path class="st1" d="M33.5,64.6c-17,0-30.8-13.8-30.8-30.9c0-17.1,13.8-30.9,30.8-30.9c17,0,30.8,13.8,30.8,30.9c0,2-0.2,4-0.6,5.8
		l2.2,2.2c0.7-2.6,1.1-5.4,1.1-8.3C67,15,52,0,33.5,0C15,0,0,15,0,33.5S15,67,33.5,67c2.6,0,5.1-0.3,7.5-0.9l-2-2
		C37.2,64.4,35.4,64.6,33.5,64.6z"/>
	<path class="st0" d="M65.9,41.8l-2.2-2.2C61.3,52,51.5,61.8,39,64.1l2,2C53.2,63.3,62.9,53.9,65.9,41.8z"/>
	<path class="st2" d="M47.1,22.3C47.1,22.3,47.1,22.3,47.1,22.3c-3-3.7-7.5-6.1-12.6-6.1c-2.1,0-4,0.4-5.8,1.1c0.7,1.4,1,3,0.3,5
		c-3.3,9.3-1.7,16.8,1.4,25.7c1.5,4.3,2.6,9.1,2.6,13.7c0.6,0,1.3,1.9,1.9,1.9c1.4-0.1,2.6-0.8,3.4-1c-0.3-3.5-0.5-7-0.5-10.5
		c0-1,0.9-2.2,1.8-2.9c0.7-0.7,0.7-0.7,2.4-1.9c2.5-2,2.5-2,3.7-3.1c3.1-3,5-7.2,5-11.8C50.7,28.6,49.4,25.1,47.1,22.3z"/>
	<path class="st1" d="M62.4,30.8C61,16.3,49.2,4.6,33.4,4.6C17.6,4.6,4.8,17.5,4.5,33.3C4.2,47.8,16.1,61.6,29.7,62.4
		c0.2-2.3,0.5-4.6,0.8-6.9c0.1-0.5,0.1-0.9,0.2-1.4c0.3-2.6-0.7-4.5-2.7-6.1c-0.5-0.4-1-0.8-1.5-1.2l-0.2-0.3c-1.5-1-2.8-2.1-4-3.3
		c-3-3-4.8-6.7-4.8-11.2c0-4.1,1.6-7.9,4.1-10.8c3-3.4,7.3-5.4,12.1-5.4c5.1,0,9.6,2.3,12.6,6.1l16.1,16.1
		C62.6,35.8,62.6,33.4,62.4,30.8z"/>
	<path class="st3" d="M33.5,2.8c-17,0-30.8,13.8-30.8,30.9c0,17.1,13.8,30.9,30.8,30.9c1.9,0,3.7-0.2,5.5-0.5
		c12.5-2.3,22.4-12,24.8-24.5c0.4-1.9,0.6-3.8,0.6-5.8C64.3,16.6,50.5,2.8,33.5,2.8z M37.5,62.6c-0.1,0-0.1,0-0.2,0
		c0-0.1,0-0.1,0-0.2c-0.3-3.5-0.5-7.1-0.5-10.6c0-1,0.9-2.2,1.8-2.9c0.7-0.7,0.7-0.7,2.4-1.9c2.5-2,2.5-2,3.7-3.1
		c3.1-3,5-7.2,5-11.8c0-3.9-1.3-7.4-3.5-10.2c0,0,0,0,0,0c-3-3.7-7.5-6.1-12.6-6.1c-4.8,0-9.1,2.1-12.1,5.4
		c-2.5,2.9-4.1,6.6-4.1,10.8c0,4.5,1.8,8.2,4.8,11.2c1.2,1.2,2.5,2.3,4,3.3l0.2,0.3c0.5,0.4,1,0.8,1.5,1.2c2,1.6,3,3.5,2.7,6.1
		c-0.1,0.5-0.1,0.9-0.2,1.4c-0.3,2.3-0.5,4.6-0.8,6.9C16.1,61.6,4.2,47.8,4.5,33.3c0.3-15.8,13-28.7,28.9-28.7
		c15.7,0,27.6,11.7,29,26.2c0.2,2.6,0.2,5-0.1,7.3C60.3,52.8,47.9,61.5,37.5,62.6z"/>
</g>
</svg>
