<?xml version="1.0" encoding="utf-8"?>
<!-- Generator: Adobe Illustrator 21.0.0, SVG Export Plug-In . SVG Version: 6.00 Build 0)  -->
<svg version="1.1"
	 id="Слой_1" image-rendering="optimizeQuality" shape-rendering="geometricPrecision" text-rendering="geometricPrecision"
	 xmlns="http://www.w3.org/2000/svg" xmlns:xlink="http://www.w3.org/1999/xlink" x="0px" y="0px" viewBox="0 0 103.3 90.6"
	 style="enable-background:new 0 0 103.3 90.6;" xml:space="preserve">
<style type="text/css">
	.st0{fill:none;stroke:#4598C5;stroke-width:2;stroke-linecap:round;stroke-linejoin:round;}
</style>
<g>
	<line class="st0" x1="7.4" y1="2.5" x2="32.8" y2="2.5"/>
	<line class="st0" x1="1.6" y1="13.6" x2="27.2" y2="13.3"/>
	<line class="st0" x1="46.6" y1="13.7" x2="74.6" y2="13.7"/>
	<line class="st0" x1="1.6" y1="13.6" x2="7.4" y2="2.5"/>
	<line class="st0" x1="32.8" y1="2.5" x2="27.2" y2="13.3"/>
	<line class="st0" x1="46.6" y1="13.7" x2="52.6" y2="2.5"/>
	<line class="st0" x1="38.7" y1="12.9" x2="32.8" y2="23.9"/>
	<line class="st0" x1="32.8" y1="2.5" x2="38.7" y2="12.9"/>
	<line class="st0" x1="46.6" y1="13.7" x2="52.6" y2="24.2"/>
	<line class="st0" x1="1.6" y1="13.6" x2="44" y2="88.8"/>
	<line class="st0" x1="56.3" y1="88.8" x2="44" y2="88.8"/>
	<line class="st0" x1="19.6" y1="23.8" x2="56.3" y2="88.8"/>
	<line class="st0" x1="56.3" y1="65.8" x2="27.2" y2="13.3"/>
	<line class="st0" x1="19.6" y1="23.8" x2="33.1" y2="23.8"/>
	<line class="st0" x1="52.6" y1="2.5" x2="96.6" y2="2.5"/>
	<line class="st0" x1="56.3" y1="65.8" x2="96.6" y2="2.5"/>
	<line class="st0" x1="102" y1="13.7" x2="96.6" y2="2.5"/>
	<line class="st0" x1="56.3" y1="88.8" x2="102" y2="13.7"/>
	<line class="st0" x1="74.6" y1="13.7" x2="50.6" y2="55.6"/>
	<line class="st0" x1="52.6" y1="24.2" x2="68.6" y2="24.2"/>
</g>
</svg>
