<?xml version="1.0" encoding="utf-8"?>
<!-- Generator: Adobe Illustrator 21.0.0, SVG Export Plug-In . SVG Version: 6.00 Build 0)  -->
<svg version="1.1"
	 id="Слой_1" image-rendering="optimizeQuality" shape-rendering="geometricPrecision" text-rendering="geometricPrecision"
	 xmlns="http://www.w3.org/2000/svg" xmlns:xlink="http://www.w3.org/1999/xlink" x="0px" y="0px" viewBox="0 0 256.7 32.3"
	 style="enable-background:new 0 0 256.7 32.3;" xml:space="preserve">
<style type="text/css">
	.st0{fill:#4598C5;}
</style>
<g>
	<path class="st0" d="M64.2,18.5v4.1H62V11.2h3.8c1.1,0,2,0.3,2.7,1c0.7,0.7,1,1.5,1,2.6c0,1.1-0.3,2-1,2.6c-0.7,0.7-1.6,1-2.7,1
		H64.2z M64.2,16.7h1.6c0.5,0,0.9-0.2,1.1-0.5c0.3-0.4,0.4-0.8,0.4-1.4c0-0.6-0.1-1-0.4-1.4c-0.3-0.4-0.6-0.5-1.1-0.5h-1.6V16.7z"/>
	<path class="st0" d="M74.7,16l-0.8,0c-0.2,0-0.4,0.1-0.6,0.2c-0.2,0.1-0.3,0.3-0.4,0.5v5.8h-2.2v-8.5h2.1l0.1,1.2
		c0.2-0.4,0.4-0.8,0.6-1c0.3-0.2,0.5-0.4,0.9-0.4c0.1,0,0.2,0,0.3,0c0.1,0,0.2,0,0.3,0.1L74.7,16z"/>
	<path class="st0" d="M75.3,18.3c0-1.3,0.3-2.3,0.9-3.1c0.6-0.8,1.5-1.2,2.6-1.2c1.1,0,1.9,0.4,2.6,1.2c0.6,0.8,0.9,1.8,0.9,3.1v0.2
		c0,1.3-0.3,2.3-0.9,3.1c-0.6,0.8-1.5,1.2-2.6,1.2c-1.1,0-2-0.4-2.6-1.2c-0.6-0.8-0.9-1.8-0.9-3.1V18.3z M77.5,18.5
		c0,0.8,0.1,1.4,0.3,1.9c0.2,0.5,0.5,0.7,1,0.7c0.4,0,0.8-0.2,1-0.7c0.2-0.5,0.3-1.1,0.3-1.9v-0.2c0-0.8-0.1-1.4-0.3-1.9
		c-0.2-0.5-0.5-0.7-1-0.7c-0.5,0-0.8,0.2-1,0.7c-0.2,0.5-0.3,1.1-0.3,1.9V18.5z"/>
	<path class="st0" d="M85.5,14.1l0.1,1.1c0.2-0.4,0.5-0.7,0.9-0.9c0.3-0.2,0.7-0.3,1.2-0.3c0.4,0,0.8,0.1,1.1,0.3
		c0.3,0.2,0.6,0.6,0.7,1.1c0.2-0.4,0.5-0.8,0.9-1c0.4-0.2,0.8-0.4,1.2-0.4c0.7,0,1.3,0.3,1.7,0.9c0.4,0.6,0.6,1.5,0.6,2.7v5h-2.2v-5
		c0-0.7-0.1-1.2-0.2-1.5c-0.2-0.3-0.4-0.4-0.7-0.4c-0.2,0-0.4,0.1-0.6,0.2c-0.2,0.1-0.3,0.3-0.4,0.6c0,0.1,0,0.2,0,0.3s0,0.2,0,0.3
		v5.5h-2.2v-5c0-0.7-0.1-1.2-0.2-1.5c-0.2-0.3-0.4-0.4-0.7-0.4c-0.2,0-0.4,0.1-0.6,0.2c-0.2,0.1-0.3,0.3-0.4,0.4v6.3h-2.2v-8.5H85.5
		z"/>
	<path class="st0" d="M98.6,22.7c-1.1,0-2-0.4-2.6-1.2c-0.6-0.8-0.9-1.8-0.9-3v-0.3c0-1.3,0.3-2.3,0.9-3.1c0.6-0.8,1.4-1.2,2.5-1.2
		c1,0,1.8,0.3,2.3,1c0.5,0.7,0.8,1.6,0.8,2.8V19h-4.3c0,0.6,0.2,1.1,0.4,1.5c0.2,0.4,0.6,0.6,1.1,0.6c0.4,0,0.8-0.1,1.1-0.2
		c0.3-0.1,0.6-0.3,0.9-0.5l0.6,1.4c-0.3,0.3-0.7,0.5-1.2,0.7C99.8,22.6,99.2,22.7,98.6,22.7z M98.5,15.7c-0.4,0-0.6,0.2-0.8,0.5
		c-0.2,0.3-0.3,0.8-0.3,1.3h2.1v-0.2c0-0.5-0.1-0.9-0.2-1.2C99.1,15.8,98.8,15.7,98.5,15.7z"/>
	<path class="st0" d="M105.3,12v2.1h1.1v1.6h-1.1V20c0,0.4,0.1,0.6,0.2,0.8c0.1,0.2,0.2,0.2,0.4,0.2c0.1,0,0.2,0,0.3,0
		c0.1,0,0.2,0,0.3-0.1l0.2,1.6c-0.2,0.1-0.4,0.1-0.6,0.2c-0.2,0-0.4,0.1-0.6,0.1c-0.7,0-1.3-0.2-1.7-0.7s-0.6-1.1-0.6-2.1v-4.3h-1
		v-1.6h1V12H105.3z"/>
	<path class="st0" d="M109.8,15.1c0.2-0.4,0.5-0.7,0.8-0.9c0.3-0.2,0.7-0.3,1-0.3c0.8,0,1.4,0.3,1.8,0.9s0.7,1.5,0.7,2.7v5h-2.2v-5
		c0-0.7-0.1-1.2-0.2-1.5c-0.2-0.3-0.4-0.4-0.7-0.4c-0.3,0-0.5,0.1-0.7,0.2c-0.2,0.1-0.4,0.2-0.5,0.4v6.3h-2.2V10.4h2.2V15.1z"/>
	<path class="st0" d="M118.8,22.7c-1.1,0-2-0.4-2.6-1.2c-0.6-0.8-0.9-1.8-0.9-3v-0.3c0-1.3,0.3-2.3,0.9-3.1c0.6-0.8,1.4-1.2,2.5-1.2
		c1,0,1.8,0.3,2.3,1c0.5,0.7,0.8,1.6,0.8,2.8V19h-4.3c0,0.6,0.2,1.1,0.4,1.5c0.2,0.4,0.6,0.6,1.1,0.6c0.4,0,0.8-0.1,1.1-0.2
		c0.3-0.1,0.6-0.3,0.9-0.5l0.6,1.4c-0.3,0.3-0.7,0.5-1.2,0.7C119.9,22.6,119.4,22.7,118.8,22.7z M118.7,15.7c-0.4,0-0.6,0.2-0.8,0.5
		c-0.2,0.3-0.3,0.8-0.3,1.3h2.1v-0.2c0-0.5-0.1-0.9-0.2-1.2C119.2,15.8,119,15.7,118.7,15.7z"/>
	<path class="st0" d="M127.3,21.4c-0.2,0.4-0.5,0.8-0.8,1c-0.3,0.2-0.7,0.4-1.2,0.4c-0.8,0-1.4-0.3-1.8-0.9
		c-0.4-0.6-0.7-1.6-0.7-2.8v-4.9h2.2V19c0,0.8,0.1,1.3,0.2,1.6s0.4,0.4,0.7,0.4c0.3,0,0.5,0,0.7-0.1c0.2-0.1,0.4-0.2,0.5-0.4v-6.3
		h2.2v8.5h-1.8L127.3,21.4z"/>
	<path class="st0" d="M134.5,20.4c0-0.3-0.1-0.5-0.3-0.6c-0.2-0.2-0.6-0.4-1.1-0.6c-0.9-0.3-1.5-0.7-1.9-1.1
		c-0.4-0.4-0.6-0.9-0.6-1.5c0-0.7,0.3-1.3,0.8-1.8s1.3-0.7,2.2-0.7c0.9,0,1.7,0.3,2.3,0.8c0.6,0.5,0.8,1.1,0.8,1.9l0,0h-2.1
		c0-0.4-0.1-0.6-0.2-0.9c-0.2-0.2-0.4-0.3-0.7-0.3c-0.3,0-0.5,0.1-0.6,0.3c-0.2,0.2-0.3,0.4-0.3,0.6c0,0.3,0.1,0.5,0.3,0.6
		c0.2,0.2,0.5,0.4,1.1,0.6c0.9,0.3,1.6,0.7,2,1.1s0.7,1,0.7,1.6c0,0.7-0.3,1.3-0.9,1.8c-0.6,0.5-1.3,0.7-2.3,0.7
		c-1,0-1.8-0.3-2.3-0.8s-0.8-1.2-0.8-1.9l0,0h2c0,0.5,0.1,0.8,0.3,1c0.2,0.2,0.5,0.3,0.9,0.3c0.3,0,0.6-0.1,0.7-0.2
		C134.4,20.8,134.5,20.6,134.5,20.4z"/>
	<path class="st0" d="M143.7,18.5v4.1h-2.2V11.2h3.8c1.1,0,2,0.3,2.7,1c0.7,0.7,1,1.5,1,2.6c0,1.1-0.3,2-1,2.6s-1.6,1-2.7,1H143.7z
		 M143.7,16.7h1.6c0.5,0,0.9-0.2,1.1-0.5c0.3-0.4,0.4-0.8,0.4-1.4c0-0.6-0.1-1-0.4-1.4c-0.3-0.4-0.6-0.5-1.1-0.5h-1.6V16.7z"/>
	<path class="st0" d="M152.5,22.6h-2.2V10.4h2.2V22.6z"/>
	<path class="st0" d="M158.3,22.6c-0.1-0.2-0.2-0.4-0.2-0.6s-0.1-0.4-0.1-0.7c-0.2,0.4-0.4,0.8-0.7,1s-0.7,0.4-1.1,0.4
		c-0.8,0-1.4-0.2-1.8-0.7c-0.4-0.5-0.6-1.1-0.6-1.9c0-0.8,0.3-1.5,0.8-1.9c0.5-0.5,1.4-0.7,2.4-0.7h1v-0.7c0-0.4-0.1-0.7-0.2-1
		c-0.2-0.2-0.4-0.3-0.7-0.3c-0.3,0-0.5,0.1-0.6,0.3c-0.1,0.2-0.2,0.4-0.2,0.8l-2.1,0l0,0c0-0.7,0.2-1.3,0.8-1.9
		c0.6-0.5,1.3-0.8,2.3-0.8c0.9,0,1.6,0.3,2.2,0.8c0.6,0.5,0.8,1.2,0.8,2.2v3.5c0,0.4,0,0.8,0.1,1.1c0.1,0.4,0.1,0.7,0.3,1.1H158.3z
		 M156.7,21.1c0.3,0,0.6-0.1,0.8-0.3s0.4-0.4,0.5-0.7v-1.3h-1c-0.4,0-0.6,0.1-0.8,0.4c-0.2,0.2-0.3,0.5-0.3,0.9
		c0,0.3,0.1,0.5,0.2,0.7C156.3,21,156.5,21.1,156.7,21.1z"/>
	<path class="st0" d="M164.2,12v2.1h1.1v1.6h-1.1V20c0,0.4,0.1,0.6,0.2,0.8c0.1,0.2,0.2,0.2,0.4,0.2c0.1,0,0.2,0,0.3,0
		c0.1,0,0.2,0,0.3-0.1l0.2,1.6c-0.2,0.1-0.4,0.1-0.6,0.2s-0.4,0.1-0.6,0.1c-0.7,0-1.3-0.2-1.7-0.7S162,21,162,20v-4.3h-1v-1.6h1V12
		H164.2z"/>
	<path class="st0" d="M167.1,22.6v-6.9H166v-1.6h1.1v-1c0-0.9,0.2-1.7,0.7-2.2c0.5-0.5,1.2-0.8,2.1-0.8c0.2,0,0.3,0,0.5,0
		c0.2,0,0.4,0.1,0.6,0.1l-0.2,1.7c-0.1,0-0.2,0-0.3-0.1s-0.2,0-0.4,0c-0.3,0-0.5,0.1-0.7,0.3s-0.2,0.5-0.2,0.9v1h1.4v1.6h-1.4v6.9
		H167.1z"/>
	<path class="st0" d="M171.3,18.3c0-1.3,0.3-2.3,0.9-3.1c0.6-0.8,1.5-1.2,2.6-1.2c1.1,0,1.9,0.4,2.6,1.2c0.6,0.8,0.9,1.8,0.9,3.1
		v0.2c0,1.3-0.3,2.3-0.9,3.1c-0.6,0.8-1.5,1.2-2.6,1.2c-1.1,0-2-0.4-2.6-1.2c-0.6-0.8-0.9-1.8-0.9-3.1V18.3z M173.5,18.5
		c0,0.8,0.1,1.4,0.3,1.9c0.2,0.5,0.5,0.7,1,0.7c0.4,0,0.8-0.2,1-0.7c0.2-0.5,0.3-1.1,0.3-1.9v-0.2c0-0.8-0.1-1.4-0.3-1.9
		c-0.2-0.5-0.5-0.7-1-0.7s-0.8,0.2-1,0.7c-0.2,0.5-0.3,1.1-0.3,1.9V18.5z"/>
	<path class="st0" d="M183.4,16l-0.8,0c-0.2,0-0.4,0.1-0.6,0.2c-0.2,0.1-0.3,0.3-0.4,0.5v5.8h-2.2v-8.5h2.1l0.1,1.2
		c0.2-0.4,0.4-0.8,0.6-1c0.3-0.2,0.5-0.4,0.9-0.4c0.1,0,0.2,0,0.3,0c0.1,0,0.2,0,0.3,0.1L183.4,16z"/>
	<path class="st0" d="M186.4,14.1l0.1,1.1c0.2-0.4,0.5-0.7,0.9-0.9c0.3-0.2,0.7-0.3,1.2-0.3c0.4,0,0.8,0.1,1.1,0.3
		c0.3,0.2,0.6,0.6,0.7,1.1c0.2-0.4,0.5-0.8,0.9-1c0.4-0.2,0.8-0.4,1.2-0.4c0.7,0,1.3,0.3,1.7,0.9s0.6,1.5,0.6,2.7v5h-2.2v-5
		c0-0.7-0.1-1.2-0.2-1.5c-0.2-0.3-0.4-0.4-0.7-0.4c-0.2,0-0.4,0.1-0.6,0.2c-0.2,0.1-0.3,0.3-0.4,0.6c0,0.1,0,0.2,0,0.3s0,0.2,0,0.3
		v5.5h-2.2v-5c0-0.7-0.1-1.2-0.2-1.5c-0.2-0.3-0.4-0.4-0.7-0.4c-0.2,0-0.4,0.1-0.6,0.2c-0.2,0.1-0.3,0.3-0.4,0.4v6.3h-2.2v-8.5
		H186.4z"/>
</g>
</svg>
