<?xml version="1.0" encoding="utf-8"?>
<!-- Generator: Adobe Illustrator 21.0.0, SVG Export Plug-In . SVG Version: 6.00 Build 0)  -->
<svg version="1.1"
	 id="Слой_1" image-rendering="optimizeQuality" shape-rendering="geometricPrecision" text-rendering="geometricPrecision"
	 xmlns="http://www.w3.org/2000/svg" xmlns:xlink="http://www.w3.org/1999/xlink" x="0px" y="0px" viewBox="0 0 256.7 32.2"
	 style="enable-background:new 0 0 256.7 32.2;" xml:space="preserve">
<style type="text/css">
	.st0{fill:#4598C5;}
</style>
<g>
	<path class="st0" d="M101.3,19L101.3,19c0,1.3-0.3,2.2-0.9,2.8s-1.6,0.9-2.7,0.9c-1.2,0-2.2-0.4-2.9-1.1c-0.7-0.7-1.1-1.7-1.1-3.1
		v-3.4c0-1.3,0.3-2.3,1-3.1c0.7-0.7,1.6-1.1,2.8-1.1c1.2,0,2.2,0.3,2.9,0.9s1,1.5,1,2.7l0,0h-2.1c0-0.7-0.1-1.2-0.4-1.5
		s-0.7-0.4-1.3-0.4c-0.5,0-1,0.2-1.2,0.6S96,14.2,96,15v3.4c0,0.8,0.1,1.4,0.4,1.8s0.7,0.6,1.3,0.6c0.5,0,0.9-0.1,1.2-0.4
		c0.2-0.3,0.4-0.8,0.4-1.5h2V19z"/>
	<path class="st0" d="M102.3,18.2c0-1.3,0.3-2.3,0.9-3.1s1.5-1.2,2.5-1.2c1.1,0,1.9,0.4,2.6,1.2s0.9,1.8,0.9,3.1v0.2
		c0,1.3-0.3,2.3-0.9,3.1c-0.6,0.8-1.5,1.2-2.5,1.2c-1.1,0-2-0.4-2.6-1.2c-0.6-0.8-0.9-1.8-0.9-3.1V18.2z M104.5,18.4
		c0,0.8,0.1,1.4,0.3,1.9s0.5,0.7,1,0.7c0.4,0,0.8-0.2,1-0.7s0.3-1.1,0.3-1.9v-0.2c0-0.8-0.1-1.4-0.3-1.9c-0.2-0.5-0.5-0.7-1-0.7
		s-0.8,0.2-1,0.7c-0.2,0.5-0.3,1.1-0.3,1.9V18.4z"/>
	<path class="st0" d="M110.9,22.5v-6.8h-1v-1.6h1v-0.9c0-0.9,0.2-1.7,0.7-2.2s1.2-0.8,2.1-0.8c0.2,0,0.3,0,0.5,0s0.4,0.1,0.6,0.1
		l-0.2,1.6c-0.1,0-0.2,0-0.3-0.1c-0.1,0-0.2,0-0.3,0c-0.3,0-0.5,0.1-0.7,0.3s-0.2,0.5-0.2,0.9v0.9h1.4v1.6h-1.4v6.8h-2.2V22.5z"/>
	<path class="st0" d="M115.9,22.5v-6.8h-1v-1.6h1v-0.9c0-0.9,0.2-1.7,0.7-2.2s1.2-0.8,2.1-0.8c0.2,0,0.3,0,0.5,0s0.4,0.1,0.6,0.1
		l-0.2,1.6c-0.1,0-0.2,0-0.3-0.1c-0.1,0-0.2,0-0.3,0c-0.3,0-0.5,0.1-0.7,0.3s-0.2,0.5-0.2,0.9v0.9h1.4v1.6H118v6.8h-2.1V22.5z"/>
	<path class="st0" d="M123.3,22.7c-1.1,0-2-0.4-2.6-1.2c-0.6-0.8-0.9-1.8-0.9-3v-0.3c0-1.3,0.3-2.3,0.9-3.1s1.4-1.2,2.5-1.2
		c1,0,1.7,0.3,2.3,1c0.5,0.7,0.8,1.6,0.8,2.8v1.2H122c0,0.6,0.2,1.1,0.4,1.5c0.2,0.4,0.6,0.6,1.1,0.6c0.4,0,0.8-0.1,1.1-0.2
		c0.3-0.1,0.6-0.3,0.9-0.5l0.6,1.4c-0.3,0.3-0.7,0.5-1.2,0.7C124.5,22.6,123.9,22.7,123.3,22.7z M123.2,15.6c-0.4,0-0.6,0.2-0.8,0.5
		c-0.2,0.3-0.3,0.8-0.3,1.3h2.1v-0.2c0-0.5-0.1-0.9-0.2-1.2C123.9,15.7,123.5,15.6,123.2,15.6z"/>
	<path class="st0" d="M130.6,22.7c-1.1,0-2-0.4-2.6-1.2c-0.6-0.8-0.9-1.8-0.9-3v-0.3c0-1.3,0.3-2.3,0.9-3.1c0.6-0.8,1.4-1.2,2.5-1.2
		c1,0,1.7,0.3,2.3,1c0.5,0.7,0.8,1.6,0.8,2.8v1.2h-4.2c0,0.6,0.2,1.1,0.4,1.5s0.6,0.6,1.1,0.6c0.4,0,0.8-0.1,1.1-0.2
		s0.6-0.3,0.9-0.5l0.6,1.4c-0.3,0.3-0.7,0.5-1.2,0.7C131.8,22.6,131.2,22.7,130.6,22.7z M130.5,15.6c-0.4,0-0.6,0.2-0.8,0.5
		c-0.2,0.3-0.3,0.8-0.3,1.3h2.1v-0.2c0-0.5-0.1-0.9-0.2-1.2C131.2,15.7,130.8,15.6,130.5,15.6z"/>
	<path class="st0" d="M142.5,18.3L142.5,18.3l1.2-7.2h2.2l-2.2,11.3h-2l-1.7-7l0,0l-1.6,7h-2l-2.2-11.3h2.2l1.2,7.2l0,0l1.6-7.2h1.7
		L142.5,18.3z"/>
	<path class="st0" d="M150.8,22.5c-0.1-0.2-0.2-0.4-0.2-0.6c-0.1-0.2-0.1-0.4-0.1-0.7c-0.2,0.4-0.4,0.8-0.7,1s-0.7,0.4-1.1,0.4
		c-0.8,0-1.4-0.2-1.8-0.7c-0.4-0.4-0.6-1.1-0.6-1.8c0-0.8,0.3-1.5,0.8-1.9s1.4-0.7,2.4-0.7h1v-0.7c0-0.4-0.1-0.7-0.2-1
		c-0.1-0.3-0.4-0.3-0.7-0.3s-0.5,0.1-0.6,0.3s-0.2,0.4-0.2,0.8h-2.1l0,0c0-0.7,0.2-1.3,0.8-1.9s1.3-0.8,2.3-0.8
		c0.9,0,1.6,0.3,2.2,0.8c0.5,0.5,0.8,1.2,0.8,2.2v3.5c0,0.4,0,0.8,0.1,1.1c0.1,0.4,0.1,0.7,0.3,1.1L150.8,22.5L150.8,22.5z
		 M149.2,21c0.3,0,0.5-0.1,0.8-0.3c0.2-0.2,0.4-0.4,0.5-0.6v-1.3h-1c-0.4,0-0.6,0.1-0.8,0.4s-0.3,0.5-0.3,0.9c0,0.3,0.1,0.5,0.2,0.7
		S149,21,149.2,21z"/>
	<path class="st0" d="M156.4,22.5h-2.2V10.4h2.2V22.5z"/>
	<path class="st0" d="M160.2,22.5H158V10.4h2.2V22.5z"/>
	<path class="st0" d="M165,22.7c-1.1,0-2-0.4-2.6-1.2c-0.6-0.8-0.9-1.8-0.9-3v-0.3c0-1.3,0.3-2.3,0.9-3.1c0.6-0.8,1.4-1.2,2.5-1.2
		c1,0,1.7,0.3,2.3,1c0.5,0.7,0.8,1.6,0.8,2.8v1.2h-4.2c0,0.6,0.2,1.1,0.4,1.5s0.6,0.6,1.1,0.6c0.4,0,0.8-0.1,1.1-0.2
		s0.6-0.3,0.9-0.5l0.6,1.4c-0.3,0.3-0.7,0.5-1.2,0.7C166.1,22.6,165.6,22.7,165,22.7z M164.9,15.6c-0.4,0-0.6,0.2-0.8,0.5
		s-0.3,0.8-0.3,1.3h2.1v-0.2c0-0.5-0.1-0.9-0.2-1.2C165.6,15.7,165.2,15.6,164.9,15.6z"/>
	<path class="st0" d="M171.6,12v2.1h1.1v1.6h-1.1V20c0,0.4,0.1,0.6,0.2,0.8c0.1,0.2,0.2,0.2,0.4,0.2c0.1,0,0.2,0,0.3,0
		s0.2,0,0.2-0.1l0.2,1.6c-0.2,0.1-0.4,0.1-0.6,0.2s-0.4,0.1-0.6,0.1c-0.7,0-1.3-0.2-1.6-0.7c-0.4-0.4-0.6-1.1-0.6-2.1v-4.3h-1v-1.6
		h1V12H171.6z"/>
</g>
</svg>
