<?xml version="1.0" encoding="utf-8"?>
<!-- Generator: Adobe Illustrator 21.0.0, SVG Export Plug-In . SVG Version: 6.00 Build 0)  -->
<svg version="1.1"
	 id="Слой_1" image-rendering="optimizeQuality" shape-rendering="geometricPrecision" text-rendering="geometricPrecision"
	 xmlns="http://www.w3.org/2000/svg" xmlns:xlink="http://www.w3.org/1999/xlink" x="0px" y="0px" viewBox="0 0 105.3 72.3"
	 style="enable-background:new 0 0 105.3 72.3;" xml:space="preserve">
<style type="text/css">
	.st0{fill:#4598C5;}
	.st1{fill:none;stroke:#4598C5;stroke-width:2;stroke-linecap:round;stroke-linejoin:round;}
</style>
<g>
	<path class="st0" d="M3.1,65.9v5.8H0v-16h5.4c1.6-0.1,2.8,0.4,3.8,1.4c0.9,0.9,1.4,2.2,1.4,3.7s-0.5,2.8-1.4,3.7
		c-0.9,0.9-2.2,1.4-3.8,1.4C5.4,65.9,3.1,65.9,3.1,65.9z M3.1,63.4h2.3c0.7,0,1.2-0.2,1.6-0.7s0.5-1.1,0.5-1.9S7.3,59.4,7,58.9
		c-0.4-0.6-0.9-0.8-1.6-0.8H3.1V63.4z"/>
	<path class="st0" d="M17.9,62.5h-1.1c-0.3,0-0.6,0.1-0.9,0.3c-0.2,0.2-0.4,0.4-0.5,0.8v8.2h-3.1v-12h2.9l0.1,1.7
		c0.2-0.6,0.5-1.1,0.9-1.4s0.8-0.5,1.2-0.5c0.1,0,0.3,0,0.4,0s0.2,0.1,0.4,0.1L17.9,62.5z"/>
	<path class="st0" d="M18.8,65.6c0-1.8,0.4-3.3,1.3-4.4s2.1-1.7,3.6-1.7s2.7,0.6,3.6,1.7s1.3,2.6,1.3,4.4v0.3c0,1.8-0.4,3.2-1.3,4.4
		c-0.9,1.1-2.1,1.7-3.6,1.7c-1.6,0-2.8-0.6-3.6-1.7c-0.9-1.1-1.3-2.6-1.3-4.4V65.6z M21.9,65.9c0,1.1,0.1,2,0.4,2.6
		c0.3,0.7,0.7,1,1.4,1c0.6,0,1.1-0.3,1.4-1s0.4-1.5,0.4-2.6v-0.3c0-1.1-0.1-2-0.4-2.6c-0.3-0.7-0.7-1-1.4-1c-0.6,0-1.1,0.3-1.4,1
		s-0.4,1.5-0.4,2.6V65.9z"/>
	<path class="st0" d="M33.2,59.8l0.1,1.5c0.3-0.6,0.7-1,1.2-1.3s1-0.5,1.7-0.5c0.6,0,1.2,0.2,1.6,0.5c0.5,0.3,0.8,0.8,1,1.5
		c0.3-0.6,0.7-1.1,1.2-1.5c0.5-0.3,1.1-0.5,1.7-0.5c1,0,1.8,0.4,2.4,1.3c0.6,0.8,0.9,2.1,0.9,3.8v7h-3v-7c0-1-0.1-1.7-0.3-2.1
		s-0.5-0.6-1-0.6c-0.3,0-0.6,0.1-0.9,0.3c-0.2,0.2-0.5,0.4-0.6,0.8c0,0.2,0,0.3,0,0.5c0,0.1,0,0.3,0,0.4v7.8h-3.1v-7
		c0-1-0.1-1.7-0.3-2.1s-0.5-0.6-1-0.6c-0.3,0-0.6,0.1-0.8,0.2c-0.2,0.2-0.4,0.4-0.6,0.6v8.8h-3.1V59.8H33.2z"/>
	<path class="st0" d="M51.7,71.9c-1.6,0-2.8-0.5-3.7-1.6s-1.3-2.5-1.3-4.2v-0.5c0-1.8,0.4-3.3,1.3-4.4c0.8-1.1,2-1.7,3.5-1.7
		c1.4,0,2.5,0.5,3.2,1.4c0.7,1,1.1,2.3,1.1,3.9v1.7h-6c0.1,0.9,0.3,1.6,0.6,2.1s0.9,0.8,1.6,0.8c0.6,0,1.1-0.1,1.5-0.2
		s0.9-0.4,1.3-0.7l0.8,1.9c-0.4,0.4-1,0.7-1.7,1C53.3,71.8,52.5,71.9,51.7,71.9z M51.5,62c-0.5,0-0.9,0.2-1.2,0.7s-0.4,1.1-0.5,1.9
		h3v-0.3c0-0.7-0.1-1.3-0.3-1.7C52.3,62.2,52,62,51.5,62z"/>
	<path class="st0" d="M61.1,56.8v3h1.6V62h-1.6v6.1c0,0.5,0.1,0.9,0.2,1.1c0.1,0.2,0.3,0.3,0.6,0.3c0.1,0,0.3,0,0.4,0
		c0.1,0,0.2,0,0.4-0.1l0.2,2.3c-0.3,0.1-0.6,0.2-0.8,0.2c-0.3,0-0.6,0.1-0.9,0.1c-1,0-1.8-0.3-2.3-0.9s-0.8-1.6-0.8-2.9v-6.1h-1.4
		v-2.2H58v-3L61.1,56.8L61.1,56.8z"/>
	<path class="st0" d="M67.5,61.2c0.3-0.5,0.7-0.9,1.1-1.2c0.4-0.3,0.9-0.4,1.5-0.4c1.1,0,1.9,0.4,2.5,1.3c0.6,0.8,0.9,2.1,0.9,3.9v7
		h-3.1v-7c0-1-0.1-1.7-0.3-2.1c-0.2-0.4-0.6-0.6-1-0.6s-0.7,0.1-0.9,0.2c-0.3,0.1-0.5,0.3-0.7,0.6v8.9h-3.1V54.5h3.1V61.2z"/>
	<path class="st0" d="M80.1,71.9c-1.6,0-2.8-0.5-3.7-1.6c-0.9-1.1-1.3-2.5-1.3-4.2v-0.5c0-1.8,0.4-3.3,1.3-4.4
		c0.8-1.1,2-1.7,3.5-1.7c1.4,0,2.5,0.5,3.2,1.4c0.7,1,1.1,2.3,1.1,3.9v1.7h-6c0.1,0.9,0.3,1.6,0.6,2.1c0.3,0.5,0.9,0.8,1.6,0.8
		c0.6,0,1.1-0.1,1.5-0.2s0.9-0.4,1.3-0.7l0.8,1.9c-0.4,0.4-1,0.7-1.7,1C81.7,71.8,81,71.9,80.1,71.9z M79.9,62
		c-0.5,0-0.9,0.2-1.2,0.7c-0.3,0.5-0.4,1.1-0.5,1.9h3v-0.3c0-0.7-0.1-1.3-0.3-1.7C80.8,62.2,80.4,62,79.9,62z"/>
	<path class="st0" d="M92.1,70c-0.3,0.6-0.7,1.1-1.2,1.4s-1,0.5-1.6,0.5c-1.1,0-1.9-0.4-2.5-1.3s-0.9-2.2-0.9-4v-6.9H89v6.9
		c0,1.1,0.1,1.8,0.3,2.2c0.2,0.4,0.5,0.6,1,0.6c0.4,0,0.7-0.1,0.9-0.2c0.3-0.1,0.5-0.3,0.7-0.6v-8.9H95v11.9h-2.5L92.1,70z"/>
	<path class="st0" d="M102.3,68.6c0-0.4-0.1-0.7-0.4-0.9c-0.3-0.2-0.8-0.6-1.6-0.9c-1.2-0.5-2.1-1-2.7-1.5c-0.6-0.6-0.9-1.3-0.9-2.2
		c0-1,0.4-1.8,1.2-2.5c0.8-0.7,1.8-1,3.1-1c1.3,0,2.4,0.4,3.2,1.1c0.8,0.7,1.2,1.6,1.1,2.7v0.1h-3c0-0.5-0.1-0.9-0.3-1.2
		c-0.2-0.3-0.6-0.5-1-0.5s-0.7,0.1-0.9,0.4c-0.2,0.2-0.4,0.5-0.4,0.9s0.1,0.6,0.4,0.9c0.2,0.2,0.8,0.5,1.6,0.9
		c1.3,0.4,2.2,0.9,2.8,1.5s0.9,1.3,0.9,2.3s-0.4,1.8-1.2,2.5c-0.8,0.6-1.9,1-3.2,1c-1.4,0-2.5-0.4-3.3-1.2s-1.2-1.7-1.2-2.7v-0.1
		h2.8c0,0.6,0.2,1.1,0.5,1.4s0.7,0.4,1.2,0.4c0.4,0,0.8-0.1,1-0.3C102.2,69.2,102.3,69,102.3,68.6z"/>
</g>
<g>
	<line class="st1" x1="26.2" y1="1.8" x2="41.2" y2="1.8"/>
	<line class="st1" x1="22.8" y1="8.3" x2="37.9" y2="8.1"/>
	<line class="st1" x1="49.3" y1="8.4" x2="65.6" y2="8.4"/>
	<line class="st1" x1="22.8" y1="8.3" x2="26.2" y2="1.8"/>
	<line class="st1" x1="41.2" y1="1.8" x2="37.9" y2="8.1"/>
	<line class="st1" x1="49.3" y1="8.4" x2="52.7" y2="1.8"/>
	<line class="st1" x1="44.6" y1="7.9" x2="41.2" y2="14.3"/>
	<line class="st1" x1="41.2" y1="1.8" x2="44.6" y2="7.9"/>
	<line class="st1" x1="49.3" y1="8.4" x2="52.7" y2="14.5"/>
	<line class="st1" x1="22.8" y1="8.3" x2="47.7" y2="52.4"/>
	<line class="st1" x1="54.9" y1="52.4" x2="47.7" y2="52.4"/>
	<line class="st1" x1="33.4" y1="14.3" x2="54.9" y2="52.4"/>
	<line class="st1" x1="54.9" y1="39" x2="37.9" y2="8.1"/>
	<line class="st1" x1="33.4" y1="14.3" x2="41.3" y2="14.3"/>
	<line class="st1" x1="52.7" y1="1.8" x2="78.5" y2="1.8"/>
	<line class="st1" x1="54.9" y1="39" x2="78.5" y2="1.8"/>
	<line class="st1" x1="81.8" y1="8.4" x2="78.5" y2="1.8"/>
	<line class="st1" x1="54.9" y1="52.4" x2="81.8" y2="8.4"/>
	<line class="st1" x1="65.6" y1="8.4" x2="51.6" y2="33"/>
	<line class="st1" x1="52.7" y1="14.5" x2="62.1" y2="14.5"/>
</g>
</svg>
