<?xml version="1.0" encoding="utf-8"?>
<!-- Generator: Adobe Illustrator 21.0.0, SVG Export Plug-In . SVG Version: 6.00 Build 0)  -->
<svg version="1.1"
	 id="Слой_1" image-rendering="optimizeQuality" shape-rendering="geometricPrecision" text-rendering="geometricPrecision"
	 xmlns="http://www.w3.org/2000/svg" xmlns:xlink="http://www.w3.org/1999/xlink" x="0px" y="0px" viewBox="0 0 105.3 64.6"
	 style="enable-background:new 0 0 105.3 64.6;" xml:space="preserve">
<style type="text/css">
	.st0{fill:url(#SVGID_1_);}
	.st1{fill:#4598C5;}
</style>
<linearGradient id="SVGID_1_" gradientUnits="userSpaceOnUse" x1="1.907349e-06" y1="51.924" x2="105.3" y2="51.924" gradientTransform="matrix(1 0 0 -1 0 73.89)">
	<stop  offset="0" style="stop-color:#90278E"/>
	<stop  offset="0.2075" style="stop-color:#BD148D"/>
	<stop  offset="0.404" style="stop-color:#EB008B"/>
	<stop  offset="0.4376" style="stop-color:#DB0C92"/>
	<stop  offset="0.503" style="stop-color:#B12BA3"/>
	<stop  offset="0.594" style="stop-color:#6E5CC0"/>
	<stop  offset="0.7061" style="stop-color:#12A0E6"/>
	<stop  offset="0.7268" style="stop-color:#00ADEE"/>
</linearGradient>
<path class="st0" d="M105.3,14.1C100.6,30,81,39.8,60.2,34.8c-6.3-1.5-12-4.2-17.9-6.6c-4.4-1.8-8.3-4.1-12.7-5.8
	c-10.4-3.9-16-6-29.6,3.1c2-6.4,4.1-12,11.4-15.4c8.8-4.2,17.5-1.9,25.8,1.3c6.4,2.5,11,5.1,18.5,8.2c15.5,7.4,31.9,9.6,45.4-1.8
	C102.1,16.7,103.3,15.9,105.3,14.1z"/>
<g>
	<path class="st1" d="M6.5,61.7V49.4h3.8c1.1,0,2,0.2,2.9,0.7c0.8,0.5,1.5,1.2,2,2.1c0.5,0.9,0.7,1.9,0.7,3.1v0.5
		c0,1.1-0.2,2.2-0.7,3.1s-1.1,1.6-2,2.1c-0.8,0.5-1.8,0.7-2.9,0.7H6.5L6.5,61.7z M9,51.5v8.2h1.2c1,0,1.7-0.3,2.3-1
		c0.5-0.6,0.8-1.6,0.8-2.8v-0.6c0-1.2-0.2-2.2-0.8-2.9c-0.5-0.6-1.3-1-2.3-1L9,51.5L9,51.5z"/>
	<path class="st1" d="M24.5,59.2H20l-0.8,2.5h-2.7l4.6-12.3h2.4l4.6,12.3h-2.7L24.5,59.2z M20.8,57.2h3.1l-1.5-4.6L20.8,57.2z"/>
	<path class="st1" d="M32.2,55l2.6-5.5h2.7l-4.1,7.9v4.5h-2.6v-4.5l-4-7.9h2.8L32.2,55z"/>
	<path class="st1" d="M48.1,57.7C48,59,47.5,60,46.6,60.8c-0.9,0.7-2,1.1-3.5,1.1c-1.6,0-2.8-0.5-3.7-1.6c-0.9-1-1.3-2.5-1.3-4.4
		v-0.8c0-1.2,0.2-2.2,0.6-3.1c0.4-0.9,1-1.6,1.8-2.1s1.7-0.7,2.7-0.7c1.4,0,2.6,0.4,3.4,1.1c0.9,0.7,1.4,1.8,1.5,3.2h-2.5
		c0-0.8-0.3-1.4-0.6-1.7c-0.4-0.3-0.9-0.5-1.7-0.5s-1.5,0.3-1.9,0.9s-0.6,1.5-0.6,2.8v1c0,1.3,0.2,2.3,0.6,2.9
		c0.4,0.6,1,0.9,1.9,0.9c0.8,0,1.4-0.2,1.7-0.5c0.4-0.3,0.6-0.9,0.6-1.7L48.1,57.7L48.1,57.7z"/>
	<path class="st1" d="M59.9,55.9c0,1.2-0.2,2.3-0.6,3.2s-1,1.6-1.8,2.1s-1.7,0.7-2.7,0.7s-1.9-0.2-2.7-0.7s-1.4-1.2-1.9-2.1
		c-0.4-0.9-0.6-2-0.6-3.1v-0.6c0-1.2,0.2-2.3,0.6-3.2c0.4-0.9,1-1.6,1.8-2.1s1.7-0.7,2.7-0.7s1.9,0.2,2.7,0.7s1.4,1.2,1.8,2.1
		c0.4,0.9,0.6,2,0.6,3.2L59.9,55.9L59.9,55.9z M57.4,55.3c0-1.3-0.2-2.3-0.7-2.9c-0.4-0.7-1.1-1-2-1s-1.5,0.3-2,1
		C52.3,53,52,54,52,55.3v0.6c0,1.2,0.2,2.2,0.7,2.9c0.4,0.7,1.1,1,2,1s1.5-0.3,2-1c0.4-0.6,0.7-1.6,0.7-2.9V55.3z"/>
	<path class="st1" d="M69.2,56.7h-4.9v5.1h-2.5V49.4h8v2.1h-5.5v3.2h4.9V56.7L69.2,56.7z"/>
	<path class="st1" d="M78.6,56.7h-4.9v5.1h-2.5V49.4h8v2.1h-5.5v3.2h4.9V56.7L78.6,56.7z"/>
	<path class="st1" d="M88.2,56.4h-4.9v3.3H89v2h-8.3V49.4H89v2.1h-5.7v2.9h4.9L88.2,56.4L88.2,56.4z"/>
	<path class="st1" d="M97.9,56.4H93v3.3h5.7v2h-8.3V49.4h8.2v2.1H93v2.9h4.9V56.4L97.9,56.4z"/>
</g>
</svg>
