<?xml version="1.0" encoding="utf-8"?>
<!-- Generator: Adobe Illustrator 21.0.0, SVG Export Plug-In . SVG Version: 6.00 Build 0)  -->
<svg version="1.1"
	 id="Слой_1" image-rendering="optimizeQuality" shape-rendering="geometricPrecision" text-rendering="geometricPrecision"
	 xmlns="http://www.w3.org/2000/svg" xmlns:xlink="http://www.w3.org/1999/xlink" x="0px" y="0px" viewBox="0 0 210.9 42.3"
	 style="enable-background:new 0 0 210.9 42.3;" xml:space="preserve">
<style type="text/css">
	.st0{fill:#4598C5;}
</style>
<g>
	<path class="st0" d="M6.2,26.5v11.6H0V5.9h10.8c3.2,0,5.8,0.9,7.7,2.8c1.9,1.9,2.8,4.4,2.8,7.4c0,3.1-0.9,5.6-2.8,7.4
		c-1.9,1.9-4.4,2.8-7.7,2.8H6.2z M6.2,21.6h4.5c1.4,0,2.5-0.5,3.2-1.5c0.7-1,1.1-2.3,1.1-3.8c0-1.6-0.4-2.9-1.1-3.9
		c-0.7-1-1.8-1.5-3.2-1.5H6.2V21.6z"/>
	<path class="st0" d="M36,19.6l-2.1-0.1c-0.7,0-1.3,0.2-1.7,0.6c-0.5,0.4-0.8,0.9-1.1,1.5v16.5h-6.2V14.2h5.8l0.2,3.4
		c0.5-1.2,1-2.1,1.8-2.8c0.7-0.7,1.5-1,2.5-1c0.3,0,0.5,0,0.8,0.1c0.2,0.1,0.5,0.1,0.7,0.2L36,19.6z"/>
	<path class="st0" d="M37.7,25.9c0-3.6,0.9-6.5,2.6-8.8c1.7-2.3,4.1-3.4,7.2-3.4c3.1,0,5.5,1.1,7.2,3.4c1.7,2.3,2.6,5.2,2.6,8.8v0.5
		c0,3.6-0.9,6.5-2.6,8.8c-1.7,2.2-4.1,3.4-7.2,3.4c-3.1,0-5.5-1.1-7.3-3.4c-1.7-2.2-2.6-5.2-2.6-8.8V25.9z M43.9,26.4
		c0,2.2,0.3,4,0.8,5.3c0.6,1.3,1.5,2,2.8,2c1.3,0,2.2-0.7,2.7-2c0.6-1.3,0.8-3.1,0.8-5.3v-0.5c0-2.2-0.3-4-0.8-5.3
		c-0.6-1.3-1.5-2-2.8-2c-1.3,0-2.2,0.7-2.8,2c-0.6,1.3-0.8,3.1-0.8,5.3V26.4z"/>
	<path class="st0" d="M66.5,14.2l0.2,3.1c0.6-1.1,1.5-2,2.4-2.6c1-0.6,2.1-0.9,3.4-0.9c1.3,0,2.3,0.3,3.2,1c0.9,0.7,1.6,1.7,2.1,3
		c0.6-1.3,1.4-2.2,2.4-2.9c1-0.7,2.2-1,3.5-1c2,0,3.6,0.8,4.7,2.5c1.2,1.7,1.7,4.2,1.7,7.7v14.1h-6.2V24c0-2-0.2-3.4-0.6-4.2
		c-0.4-0.8-1.1-1.1-2-1.1c-0.6,0-1.2,0.2-1.7,0.6c-0.5,0.4-0.9,0.9-1.2,1.6c0,0.4,0,0.7,0.1,0.9c0,0.3,0,0.5,0,0.8v15.6h-6.2V24
		c0-2-0.2-3.4-0.6-4.2c-0.4-0.8-1.1-1.2-2-1.2c-0.6,0-1.1,0.2-1.6,0.5c-0.5,0.3-0.9,0.7-1.2,1.3v17.7h-6.2V14.2H66.5z"/>
	<path class="st0" d="M103.7,38.6c-3.2,0-5.6-1.1-7.3-3.3c-1.7-2.2-2.6-5-2.6-8.4V26c0-3.6,0.8-6.5,2.5-8.8c1.7-2.3,4-3.4,7.1-3.4
		c2.8,0,5,1,6.5,2.9c1.5,1.9,2.3,4.6,2.3,7.9v3.4H100c0.1,1.8,0.5,3.2,1.2,4.2c0.7,1,1.8,1.6,3.2,1.6c1.2,0,2.3-0.1,3.1-0.4
		c0.8-0.3,1.7-0.7,2.7-1.4l1.6,3.9c-0.9,0.8-2,1.4-3.5,2C106.9,38.3,105.3,38.6,103.7,38.6z M103.3,18.6c-1,0-1.8,0.5-2.3,1.4
		c-0.5,0.9-0.8,2.2-1,3.8h5.9v-0.6c0-1.5-0.2-2.6-0.6-3.4C104.9,19,104.2,18.6,103.3,18.6z"/>
	<path class="st0" d="M122.5,8.3v5.9h3.2v4.4h-3.2v12.2c0,1,0.1,1.7,0.4,2.2c0.3,0.4,0.7,0.6,1.2,0.6c0.3,0,0.5,0,0.7-0.1
		c0.2,0,0.4-0.1,0.7-0.2l0.5,4.6c-0.6,0.2-1.2,0.4-1.7,0.5c-0.5,0.1-1.1,0.1-1.8,0.1c-2,0-3.6-0.6-4.7-1.9s-1.6-3.2-1.6-5.9V18.6
		h-2.9v-4.4h2.9V8.3H122.5z"/>
	<path class="st0" d="M135.3,17.1c0.6-1.1,1.4-1.9,2.3-2.5c0.9-0.6,1.9-0.9,2.9-0.9c2.1,0,3.8,0.8,5.1,2.5c1.2,1.7,1.9,4.3,1.9,7.8
		v14.1h-6.2V24c0-2-0.2-3.4-0.7-4.1c-0.4-0.8-1.1-1.2-2-1.2c-0.7,0-1.4,0.1-1.9,0.4c-0.5,0.3-1,0.7-1.4,1.2v17.8h-6.2V3.6h6.2V17.1z
		"/>
	<path class="st0" d="M160.7,38.6c-3.2,0-5.6-1.1-7.3-3.3c-1.7-2.2-2.6-5-2.6-8.4V26c0-3.6,0.8-6.5,2.5-8.8c1.7-2.3,4-3.4,7.1-3.4
		c2.8,0,5,1,6.5,2.9c1.5,1.9,2.3,4.6,2.3,7.9v3.4h-12.1c0.1,1.8,0.5,3.2,1.2,4.2c0.7,1,1.8,1.6,3.2,1.6c1.2,0,2.3-0.1,3.1-0.4
		c0.8-0.3,1.7-0.7,2.7-1.4l1.6,3.9c-0.9,0.8-2,1.4-3.5,2C163.9,38.3,162.3,38.6,160.7,38.6z M160.3,18.6c-1,0-1.8,0.5-2.3,1.4
		c-0.5,0.9-0.8,2.2-1,3.8h5.9v-0.6c0-1.5-0.2-2.6-0.6-3.4C161.9,19,161.2,18.6,160.3,18.6z"/>
	<path class="st0" d="M184.6,34.7c-0.6,1.2-1.4,2.2-2.4,2.9c-0.9,0.7-2.1,1-3.3,1c-2.2,0-3.8-0.9-5.1-2.6c-1.2-1.7-1.8-4.4-1.8-8
		V14.2h6.2V28c0,2.1,0.2,3.6,0.6,4.4c0.4,0.8,1.1,1.2,2,1.2c0.7,0,1.4-0.1,1.9-0.4c0.5-0.3,1-0.7,1.4-1.2V14.2h6.2v23.9h-5.1
		L184.6,34.7z"/>
	<path class="st0" d="M205.1,31.9c0-0.7-0.3-1.3-0.8-1.8c-0.5-0.5-1.6-1.1-3.2-1.8c-2.4-0.9-4.3-1.9-5.5-3.1
		c-1.2-1.1-1.8-2.6-1.8-4.4c0-1.9,0.8-3.6,2.3-5c1.6-1.4,3.6-2.1,6.2-2.1c2.7,0,4.8,0.7,6.4,2.1c1.6,1.4,2.4,3.2,2.3,5.4l0,0.1h-6
		c0-1-0.2-1.8-0.7-2.4c-0.4-0.6-1.1-0.9-2-0.9c-0.7,0-1.3,0.2-1.8,0.7c-0.5,0.5-0.7,1-0.7,1.7c0,0.7,0.2,1.3,0.7,1.7
		c0.5,0.4,1.5,1,3.2,1.8c2.5,0.9,4.4,1.9,5.6,3.1c1.2,1.2,1.8,2.7,1.8,4.6c0,2-0.8,3.7-2.4,5c-1.6,1.3-3.8,1.9-6.4,1.9
		c-2.8,0-5-0.8-6.6-2.4s-2.4-3.4-2.3-5.4l0.1-0.1h5.7c0,1.3,0.3,2.2,0.9,2.8c0.6,0.6,1.4,0.9,2.4,0.9c0.9,0,1.6-0.2,2-0.7
		C204.9,33.2,205.1,32.6,205.1,31.9z"/>
</g>
</svg>
