<?xml version="1.0" encoding="utf-8"?>
<!-- Generator: Adobe Illustrator 21.0.0, SVG Export Plug-In . SVG Version: 6.00 Build 0)  -->
<svg version="1.1" id="Слой_1" xmlns="http://www.w3.org/2000/svg" xmlns:xlink="http://www.w3.org/1999/xlink" x="0px" y="0px"
	 viewBox="0 0 64.8 64.5" style="enable-background:new 0 0 64.8 64.5;" xml:space="preserve">
<style type="text/css">
	.st0{fill:#7F3F97;}
	.st1{fill:none;}
	.st2{fill:#652D90;}
	.st3{fill:#58595B;}
	.st4{fill:#FFFFFF;}
	.st5{fill:#FFFFFF;stroke:#FFFFFF;stroke-width:0.5;stroke-miterlimit:10;}
</style>
<path class="st0" d="M52,12.5c-10.9-10.9-28.6-10.9-39.5,0C1.6,23.4,1.6,41.1,12.5,52c5.2,5.2,12,7.9,18.9,8.1
	c7.4,0.2,15-2.5,20.6-8.1c5.1-5.1,7.8-11.8,8.1-18.5C60.5,26,57.8,18.3,52,12.5z"/>
<path class="st1" d="M32.3,2.5C15.8,2.5,2.5,15.8,2.5,32.2S15.8,62,32.3,62c0.2,0,0.4,0,0.6,0L16.1,45.3l1.6-12.4l5.9,5.5V26.3
	l5.9,6.6v-5.1l5.6,6V19.2l5.8,7.1v-8.9l5.8,6.4L46.7,16L62,31.3C61.5,15.3,48.4,2.5,32.3,2.5z"/>
<path class="st0" d="M32.3,62C15.8,62,2.5,48.7,2.5,32.2S15.8,2.5,32.3,2.5c16.1,0,29.3,12.8,29.8,28.9l2.4,2.4c0-0.5,0.1-1,0.1-1.5
	C64.5,14.4,50.1,0,32.3,0S0,14.4,0,32.2s14.4,32.3,32.3,32.3c1,0,2-0.1,3-0.1L32.9,62C32.7,62,32.5,62,32.3,62z"/>
<path class="st2" d="M46.7,23.7l-5.8-6.4v8.9l-5.8-7.1v14.6l-5.6-6v5.1l-5.9-6.6v12.1l-5.9-5.5l-1.6,12.4L32.9,62c0.1,0,0.2,0,0.3,0
	c15-0.5,27.2-12,28.7-26.7c0.1-1,0.2-2,0.2-3c0-0.3,0-0.6,0-0.9L46.7,16L46.7,23.7z"/>
<path class="st2" d="M64,37.4c0.2-1.2,0.3-2.4,0.4-3.7L62,31.3c0,0.3,0,0.6,0,0.9c0,1-0.1,2-0.2,3C60.4,50,48.2,61.5,33.2,62
	c-0.1,0-0.2,0-0.3,0l2.3,2.3c0.1,0,0.2,0,0.3,0C50.1,62.9,61.7,51.7,64,37.4z"/>
<g>
	<rect x="16.8" y="35.1" class="st3" width="3.3" height="10.5"/>
	<rect x="22.7" y="29.9" class="st3" width="3.3" height="12.8"/>
	<rect x="28.6" y="30.3" class="st3" width="3.3" height="16.5"/>
	<rect x="34.2" y="22.7" class="st3" width="3.3" height="18.9"/>
	<rect x="40" y="21.3" class="st3" width="3.3" height="15.2"/>
	<rect x="45.7" y="19" class="st3" width="3.3" height="17"/>
</g>
<path class="st4" d="M32.3,2.5C15.8,2.5,2.5,15.8,2.5,32.2C2.5,48.7,15.8,62,32.3,62c0.3,0,0.6,0,1,0c15-0.5,27.2-12,28.7-26.7
	c0.1-1,0.2-2,0.2-3C62,15.8,48.7,2.5,32.3,2.5z M52,52c-5.7,5.7-13.2,8.4-20.6,8.1c-6.8-0.2-13.6-2.9-18.9-8.1
	c-10.9-10.9-10.9-28.6,0-39.5C23.4,1.6,41.1,1.6,52,12.5c5.8,5.8,8.5,13.5,8.1,21C59.8,40.2,57.1,46.9,52,52z"/>
<g>
	<line class="st5" x1="17.8" y1="32.9" x2="17.8" y2="47.1"/>
	<line class="st5" x1="23.7" y1="26.3" x2="23.7" y2="45.5"/>
	<line class="st5" x1="35.2" y1="19.2" x2="35.2" y2="44.3"/>
	<line class="st5" x1="40.9" y1="17.3" x2="40.9" y2="39.7"/>
	<line class="st5" x1="46.7" y1="16" x2="46.7" y2="38.4"/>
	<line class="st5" x1="29.6" y1="27.8" x2="29.6" y2="48.6"/>
</g>
<g>
	<rect x="16.1" y="34.8" class="st4" width="3.3" height="10.5"/>
	<rect x="22" y="29.5" class="st4" width="3.3" height="12.8"/>
	<rect x="28" y="29.9" class="st4" width="3.3" height="16.5"/>
	<rect x="33.6" y="22.3" class="st4" width="3.3" height="18.9"/>
	<rect x="39.3" y="21" class="st4" width="3.3" height="15.2"/>
	<rect x="45.1" y="18.7" class="st4" width="3.3" height="17"/>
</g>
</svg>
