<?xml version="1.0" encoding="utf-8"?>
<!-- Generator: Adobe Illustrator 21.0.0, SVG Export Plug-In . SVG Version: 6.00 Build 0)  -->
<svg version="1.1" id="Слой_1" xmlns="http://www.w3.org/2000/svg" xmlns:xlink="http://www.w3.org/1999/xlink" x="0px" y="0px"
	 viewBox="0 0 67 67" style="enable-background:new 0 0 67 67;" xml:space="preserve">
<style type="text/css">
	.st0{fill:#EA5D41;}
	.st1{fill:#41EA5D;}
</style>
<circle class="st0" cx="33.5" cy="33.8" r="33.5"/>
<g>
	<path id="AMU" class="st1" d="M36.8,52.9l-0.2,0.2L36.3,53L36,52.9L35.6,53h-0.4L35,53.2l-0.4,0.1l-0.5-0.1l-0.2-0.4l-0.2-0.2
		c0,0-0.3-0.1-0.3-0.2c0-0.1-0.3-0.3-0.3-0.3L32.7,52l-0.1-0.4l-0.3-0.3l-0.2-0.1l-0.3-0.1l-0.1-0.3l-0.3-0.1l-0.2-0.2l-0.6-0.1
		h-0.3l-0.4,0.2l-0.4-0.1l-0.3,0.1h-0.4L28.3,51L28,51.3l-0.2-0.4l-0.1-0.2h-0.2l-0.1-0.3l-0.1-0.2l0.2-0.1V50h-0.1l-0.2-0.2H27
		v-0.4l-0.1-0.2l-0.1-0.3l-0.2-0.1L26.4,49l-0.2-0.1v-0.3l-0.1-0.1h-0.2l-0.2,0.2l-0.1,0.2l-0.3-0.1l-0.1-0.2l0.2-0.2l0-0.1
		l-0.2,0.1l-0.3-0.1l-0.2-0.2v-0.2l0.3-0.3l0.3-0.2h0.3l0.1-0.1l0.2,0.2h0.2l0.1-0.1h0.3l0.1,0.2h0.2l0.1-0.2l0.4,0.1v-0.2h0.3
		l0.2,0.1l0.3,0.3l0.2-0.1l0.3-0.1l0.2-0.2l0.2,0.1l0.2-0.1h0.2l0.2,0.2l0.5-0.6l0.3,0.1v-0.2l0.4-0.1l0.3-0.1l0.3-0.2v-0.3l0.5-0.3
		l0.5-0.4l0.1,0.1l0.2-0.1l0.2-0.2h0.2l0.2-0.2l0.3-0.1l0.3,0.2l-0.3,0.2v0.2l-0.2,0.3v0.5h-0.1l-0.1,0.2l0.2,0.3V47l-0.2,0.1
		l-0.1,0.2l0.2,0.2l0.4,0.1l0.1-0.1l0.2-0.1l0.4,0.6l0.2-0.2h0.2l0.3-0.4l0.3-0.1l0.1-0.1l-0.1-0.3l0.1-0.2l0.3-0.1l0.2-0.2l0.2-0.3
		h0.3l0.3,0.3l0.1,0.4l0.3,0.2l-0.1,0.4l-0.5,0.2h-0.3l-0.1,0.2l0.3,0.3v0.2l-0.3,0.3V49l-0.3,0.2v0.2l-0.2,0.2l0.2,0.3l-0.1,0.3
		l0.1,0.6l0.2,0.2h0.2l0.2,0.3l0.1-0.1h0.3l0.1,0.2l0.3,0.2v0.2h0.1l0.2,0.1v0.4l-0.5,0l0.1,0.2l-0.1,0.2V53L36.8,52.9z"/>
	<path id="YEV" class="st1" d="M40.1,51.6l-0.4,0.2l-0.1,0.3l-0.2,0.4l-0.3,0.3l0.1,0.4l-0.3,0.3l-0.3,0.2l-0.3,0.1l-0.1,0.3h-0.3
		l-0.3-0.2l-0.2-0.1v-0.3l-0.2-0.2L37.1,53v-0.3l0.1-0.2l-0.1-0.2l0.1-0.1h0.2l0.2-0.2l0.1-0.1v-0.3h0.2h0.3l0.3-0.2l0.2,0.1
		l0.3,0.3l0.2-0.3l0.4-0.1l0.2-0.3h0.3l0.3-0.1v0.2l0.1,0.1v0.2L40.1,51.6L40.1,51.6z"/>
	<polygon id="PRI" class="st1" points="43.8,50.6 43.9,51.1 44.1,51.5 44.2,52 44.2,52.5 44.2,53.1 44.2,53.4 44.2,54 44.2,54.7 
		44.1,55.2 44.2,55.8 44.1,56.5 44.1,56.8 43.8,57.3 43.6,57.7 43.4,58.1 43.2,58.1 42.9,58.3 42.5,58.4 42.3,58.4 42.3,58.2 
		42.2,58 42.1,58.3 42.1,58.6 42,58.4 41.8,58.3 41.8,58.4 41.7,58.8 41.8,59 41.7,59.3 41.6,59.4 41.6,59.6 41.6,59.8 41.3,59.8 
		41.2,59.7 41.3,59.3 41.5,59 41.5,58.7 41.3,58.3 41,58 40.8,57.9 40.7,57.5 40.4,57.2 40.2,57.2 40.2,56.9 40.3,56.7 40.5,56.5 
		40.5,56.2 40.7,56 40.9,55.9 41.2,56 41.4,55.8 41.5,55.5 41.3,55.1 41.4,54.8 41.3,54.5 41.2,54.2 41,53.9 41.1,53.6 40.9,53.4 
		41.2,53.3 41.2,53.2 41.1,53 41.1,52.8 41.3,52.4 41.6,52.5 41.6,52.5 41.8,52.5 41.9,52.4 42.2,52.5 42.2,52.4 42.5,52.3 42.7,52 
		42.7,51.6 42.6,51.6 42.6,51.3 43,51.2 43.1,51 43.1,50.7 43,50.4 42.9,50.4 42.8,50.6 42.5,50.6 42.5,50.4 42.2,50.3 42.1,50.1 
		42.4,49.9 42.5,49.5 42.7,49.5 42.9,49.6 43.1,49.8 43.3,49.8 43.4,50 43.3,50.1 43.6,50.3 43.8,50.1 	"/>
	<path id="MAG" class="st1" d="M41.3,25.3l0.2,0.2V26l0.1,0.4V27l-0.1,0.3L41.4,27l-0.3-0.2v0.4L40.9,27l-0.1-0.1l-0.1-0.3l-0.4-0.4
		l0.1,0.3l-0.1,0.4h-0.4v0.2l-0.1,0.5l-0.2,0.2v0.6l0.3,0.2V29l0.3,0.4v0.4l0.1,0.6l0.2,0.2v0.3l0.2,0.2h0.2l0.2-0.2l0.1-0.1h0.2
		v0.3l-0.2,0.1v0.4l-0.4,0.1l0.1,0.5v0.2l-0.3,0.1v0.3l-0.1,0.3c0,0-0.3,0.1-0.3,0c0.1-0.1-0.1-0.1-0.1-0.1v-0.2l0.1-0.2l0.2-0.1
		l-0.3,0l-0.3,0.1h-0.3v0.1l-0.4,0.2l-0.2,0.3l-0.2,0.1l-0.2,0.2l-0.1,0.2l0.1,0.3l0.2,0.2l-0.3,0.1l-0.3-0.1l0.1,0.3L38,34.7
		l-0.2,0.2l-0.1-0.2l-0.3-0.3h-0.2l-0.1,0.1l-0.2-0.1h-0.3l-0.2,0.3h-0.2l-0.1-0.3v-0.3l0.3-0.2l-0.3-0.3v-0.2l-0.2-0.1l-0.3-0.2
		L35.4,33h-0.6l-0.3,0.4h-0.2v-0.3l-0.2-0.2v-0.2l-0.2-0.2l-0.4-0.2l-0.1-0.2l-0.2-0.3v-0.2l-0.1-0.1l0.1-0.3l0.1-0.1L33.1,31v-0.3
		l0.4-0.2v-0.1h0.3v-0.3L33.6,30l-0.1-0.2l0.2-0.2h0.2v-0.2l0.2-0.1v-0.2l0.2-0.1l0.1,0.2h0.2l0.1-0.2l-0.1-0.2l0.2-0.3l0.1-0.2h0.2
		v-0.2L35,27.8l-0.2-0.1l-0.2-0.2v-0.6l-0.2-0.1l-0.2-0.2v-0.3h0.2L34.1,26l-0.2-0.1v-0.2l0.3-0.1v-0.3l0.1-0.1h0.3v-0.3H35l0.1-0.1
		L35,24.5l0.1-0.2L34.9,24l0.3-0.1l0.2,0.2l0.2,0.3h0.2l0.3-0.1l0.1-0.2l0.3,0.1h0.4l0.3-0.4l0.5,0.1l0.5-0.6h0.4v0.2l0.1,0.1
		l-0.1,0.2L39,24v0.2l0.4-0.1l0.1,0.3l0.2,0.1v0.2l0.2,0.2l0.2-0.1h0.3V25h0.2l0.1,0.1l-0.1,0.3h0.1l0.1-0.2l0.1,0.1v0H41.3z"/>
	<g id="SAK">
		<path class="st1" d="M40.3,41.8h-0.1l-0.1-0.1v-0.2l0.3,0.1l0.2,0.1l0.1,0.2l0.2,0.2l0.3,0.1l0.1,0.2l0.4,0.2h0.2l0.2,0.2l0.1,0.3
			l0.2,0.2l0.4,0.4l0.2,0.1l0.3,0.1l0.3,0.3l0.4,0.2l0.3,0.2l0.4,0.2L45,45l0.2,0.2l0.4,0.1l-0.1,0.2l-0.1,0.1l-0.3,0.1h-0.2L45,46
			l-0.1,0.2v0.1l0.2,0.3c0,0,0.2,0.2,0.2,0.3v0.4l0.2,0.2l0.3,0.3l0.2,0.1h0.3l0.2,0.2h0.2l0.1,0.2h0.3l0.2-0.2l0.3,0.2l0.2,0.2
			c0,0,0.1,0.2,0,0.2s-0.4-0.2-0.4-0.2l-0.1,0.1H47l-0.1,0.3l0.1,0.3l0.2,0.2l0.2,0.3l-0.2,0.2L47,49.7l-0.2-0.2l-0.4-0.4v-0.2
			l-0.3-0.3l-0.2-0.2l-0.2-0.2l-0.2-0.4l-0.4-0.3l-0.3-0.2h-0.2l-0.2-0.5l-0.5-0.7l-0.4-0.4l-0.3-0.3L42.9,45l-0.2-0.3l-0.5-0.2
			l-0.4-0.2h-0.2l-0.3-0.4v-0.2L41,43.4l-0.2-0.3L40.4,43l0.1-0.3v-0.2l0.3,0.1l0.1-0.3l-0.2-0.2V42l-0.2-0.2L40.3,41.8z"/>
		<polygon class="st1" points="51.1,48.5 51.1,48.8 51.1,49 51.2,49.1 51.2,48.9 51.3,48.7 51.3,48.5 		"/>
		<polygon class="st1" points="51.9,48.7 51.9,48.8 52.1,48.9 52.1,48.7 		"/>
		<polygon class="st1" points="51.4,47.6 51.6,47.7 51.6,47.5 51.5,47.1 51.7,46.9 51.7,46.6 51.4,46.6 51.4,46.9 51.5,47 
			51.4,47.2 		"/>
		<polygon class="st1" points="51.8,45.9 51.7,46 51.8,46.2 51.9,46.1 		"/>
		<polygon class="st1" points="52,45.2 52,44.8 51.9,44.6 52,44.4 52.2,44.2 52.2,44.5 52.2,44.7 52.2,45 52.1,45.2 		"/>
		<polygon class="st1" points="52.1,42.3 52.1,42.6 52.1,42.8 52.3,42.8 52.2,42.6 52.2,42.5 52.2,42.3 		"/>
	</g>
	<g id="KAM">
		<path class="st1" d="M45,33.2c0,0,0.1,0.3,0.2,0.4l0.4,0.3l0.4,0.2l0.6,0.2l0.3,0.1l0.3,0.2l0.2,0.2l0.6,0.3l0.5,0.2l0.5,0.2
			l0.3,0.3h0.3l0.2,0.2l0.3,0.1h0.4l0.2,0.2V36l-0.1-0.4L50.5,35l-0.1-0.5l-0.3-0.3l-0.4-0.4l-0.3-0.1l-0.1-0.5l0.1-0.3v-0.3h0.3
			v-0.2l-0.5-0.1l-0.1-0.1l-0.3-0.1l-0.3-0.5L48.4,31l0.1-0.3l0.3-0.2l0.2-0.1l-0.1-0.3l-0.3-0.2L48.1,30l-0.2-0.2l-0.3-0.1
			l-0.3-0.5l-0.1-0.4l0.3-0.1l0.1-0.3l-0.3-0.3h-0.2l-0.2,0.2l-0.3,0L46.2,28l-0.1-0.3l-0.4-0.4l-0.1,0.2l-0.1,0.1v0.1l0.1,0.3h-0.4
			L45,27.8l-0.4-0.2v-0.3l-0.1-0.4l-0.3-0.3L44,26.4l-0.2-0.2l-0.2-0.4l0.2-0.2v-0.3H44l0.3-0.3L44,24.9v-0.3l-0.2-0.4H44l0.2,0.2
			l0.3,0.1v-0.2l-0.3-0.4v-0.2l0.1-0.4l-0.2-0.2l0.3-0.4l0.2-0.4l0.4-0.1l0.3,0.1l0.3-0.2l-0.2-0.2l-0.3-0.4L45,20.9v-0.4l-0.3-0.2
			l-0.1-0.5l-0.2-0.5l-0.1-0.4l-0.1-0.4L44,18.7h-0.3l-0.2-0.2l-0.2,0.1L43.2,19l-0.1,0.4l-0.2,0.3c0,0,0.1,0.1,0.1,0.2
			s-0.1,0.5-0.1,0.5l-0.1,0.3l-0.2,0.1l-0.2-0.2l-0.2,0.1L42,20.9h-0.3l-0.2,0.3L41.3,21l-0.1-0.2l-0.1-0.1L41,20.4l-0.2-0.1
			l-0.3,0.2l-0.2,0.2l-0.2-0.1l-0.4,0.1l0.1,0.2l-0.1,0.2h-0.2l-0.4,0.1v0.3l-0.2,0.1l0.2,0.2h-0.2L38.6,22l0.1,0.1l-0.2,0.2
			l-0.2,0.1l-0.2,0.3V23l0.1,0.1h0.4v0.2l0.1,0.1l-0.1,0.2l0.4,0.2V24l0.4-0.1l0.1,0.3l0.2,0.1v0.2l0.2,0.2l0.2-0.1h0.3v0.2h0.2
			l0.1,0.1l-0.1,0.3h0.1l0.1-0.2l0.1,0.1v0.2h0.3l0.1-0.2h0.1v-0.2h-0.3l-0.2-0.2l-0.3-0.3l0-0.1l0.1-0.2v-0.3l0.3-0.2l0.2-0.2
			l0.1,0.1l-0.2,0.2V24l0.3,0.2l0.2,0.3l0.2,0.2l0.2,0.1h0.1l0.2,0.4l0.2,0.2v0.3v0.2l-0.1,0.4v0.3l0.2,0.1l0.2,0.5l0.1,0.4l0.1,0.5
			l0.1,0.5l0.3,0.4l0.2,0.5l0.1,0.5l0.1,0.4l-0.1-0.1l-0.1,0.1l0.1,0.2l-0.1,0.2l-0.1,0.1V31l0.3,0.1l0.3,0.4v0.3l0.2,0.2v0.3
			l0.3,0.3L45,33.2z"/>
		<polygon class="st1" points="44.7,25.8 44.7,26.1 44.7,26.4 44.8,26.5 44.9,26.6 44.9,26.8 45.1,26.9 45.1,26.7 45,26.5 
			45.1,26.2 45.1,25.9 44.8,25.8 		"/>
		<polygon class="st1" points="49.7,27.2 49.5,27.2 49.6,27.4 49.9,27.4 50.2,27.4 50.4,27.2 50.1,27.2 49.9,27.3 		"/>
		<polygon class="st1" points="50.5,36.6 50.5,36.8 50.3,36.9 50.5,37.1 50.6,37.3 50.5,37.5 50.5,37.8 50.7,37.9 50.8,37.8 
			50.8,37.5 50.9,37.4 50.8,37.1 50.7,36.9 50.7,36.7 		"/>
		<polygon class="st1" points="51.1,38.6 51.1,38.8 51.2,38.8 51.3,38.7 		"/>
		<polygon class="st1" points="50.7,26.5 50.6,26.6 50.7,26.7 50.8,26.6 50.9,26.5 		"/>
	</g>
	<g id="CHU">
		<path class="st1" d="M44.2,18.6v-0.5l-0.1-0.5l-0.3-0.4l0.1-0.1l-0.3-0.2l0.1-0.1H44l0.2-0.4l0.3-0.1V16l-0.2-0.2l-0.1-0.3
			L44,15.7l-0.2-0.1h-0.2l-0.2,0.2h-0.3v0h-0.3v-0.2h-0.3h-0.2h-0.2L42,15.7l-0.2,0.2h-0.3L41.3,16v0.3l-0.2,0.1L41,16.3l0.2-0.3
			h-0.1l-0.3,0.1l0.1-0.2l0.3-0.1h0.2l0.2-0.4l-0.1-0.3l-0.1-0.4l-0.1-0.4l-0.2-0.2L41,14.2v-0.3h-0.2L40.5,14l-0.2-0.2v-0.2H40
			l0.1-0.1l0.1-0.1L40,13.3v-0.1l0.1,0.1l0.2,0.1h0.3l0.2-0.1l0.2,0.1l0.2-0.2v-0.4l-0.1-0.2l0.3-0.4h0.3l0.2,0.1l0.3-0.1l0.2-0.4
			l0.3-0.3H43l0.1-0.4L42.8,11v-0.1h0.3v-0.2v-0.2l-0.2,0.2h-0.2l-0.2-0.3l-0.3-0.3v0.2l-0.3-0.1l-0.1,0.1h-0.3l0.3-0.2V9.8
			c0,0,0.1-0.3,0-0.2c-0.1,0.1-0.3,0.1-0.3,0.1l0.2-0.4l-0.1-0.1L41.4,9c0,0,0.1-0.3,0-0.3c-0.1,0.1-0.3,0.2-0.3,0.2l-0.3,0.4h-0.1
			l-0.4,0.1l-0.2,0.2L40,9.8v0.3h-0.2v0.1l0.2,0.1l-0.3,0.2l-0.1,0.3l0.3,0.1h0.4l0.4-0.1V11l-0.4,0.2l-0.2,0.1l-0.3-0.2l-0.3,0.1
			L39.3,11l-0.2,0.1l-0.4,0.2l-0.3,0.3l-0.5,0.1l-0.3,0.4l-0.4,0.1l-0.3,0.3l-0.3,0.3L36.3,13l-0.4,0.2l-0.2,0.2l-0.5,0.5l-0.4,0.4
			l-0.1,0.4l-0.3,0.4l-0.1,0.3l0.1,0.3h-0.2L34,15.8v0.3l-0.3,0.1l-0.1,0.3v0.2h0.3l0.1,0.2l0.4-0.1l0.5,0.2h0.2l0,0.3L35,17.5
			l-0.3,0.1l-0.3,0.1l-0.2,0.1h-0.3l-0.2-0.2l0.2-0.2l-0.3-0.3l-0.2,0.2l-0.2,0.3l0.2,0.3l-0.1,0.2l0.1,0.1l-0.1,0.4l-0.2,0.2v0.3
			l-0.2,0.2h-0.2l-0.1,0.3v0.5l0.1,0.2l0.4,0.1h0.3l0.1,0.2l0.3,0.1l0.2,0.4l-0.5,0.2l-0.1,0.4V22l-0.2,0.1v0.3L33,22.7l0.1,0.3
			l0.2,0.1v0.3h0.3l0.3,0.1l0.3-0.1h0.2l0.2,0.2l0.2,0.3H35l0.3-0.1l0.2,0.2l0.2,0.3h0.2l0.3-0.1l0.1-0.2l0.3,0.1H37l0.3-0.4
			l0.5,0.1l0.2-0.2l0.3-0.4l-0.2-0.3v-0.3l0.1-0.3l0.2-0.1l0.1-0.1L38.4,22l0.1-0.1l0.2-0.1h0.2l0.1-0.3l0.2-0.1v-0.3l0.4-0.1h0.2
			l0.1-0.2l-0.1-0.2l0.4-0.1l0.2,0.1l0.2-0.2l0.3-0.2l0.2,0.1l0.1,0.3l0.1,0.2l0.1,0.2l0.2,0.2l0.2-0.3h0.3l0.2-0.2l0.2-0.1l0.2,0.2
			l0.2-0.1l0.1-0.3l0.1-0.5L43,19.7l0.2-0.3l0.1-0.4l0.1-0.4l0.2-0.1l0.2,0.2h0.3L44.2,18.6z"/>
		<polygon class="st1" points="33.8,11.2 33.7,11.1 33.6,11.2 33.4,11.3 33.2,11.5 33.2,11.8 33.2,11.9 33.2,12.2 33.3,12.4 
			33.5,12.7 33.7,12.8 33.9,12.6 34,12.4 33.9,12.3 34.1,12 34,11.7 34,11.3 		"/>
	</g>
	<g id="KHA">
		<polygon class="st1" points="36.7,43.2 36.6,43.3 36.6,43.5 36.6,43.7 36.8,43.6 36.9,43.7 37.1,43.6 37.1,43.3 37,43.1 		"/>
		<path class="st1" d="M32.3,45.5l-0.2-0.4v-0.3l-0.2-0.2l0.2-0.2l0.1-0.4l-0.4-0.2h-0.4v-0.2h0.2l-0.1-0.2l0.1-0.5h-0.3L31,42.6
			l0.2-0.1v-0.4l-0.1,0v-0.2l0.1-0.2L31,41.5l0.1-0.2L31,41.2v-0.3l0.3-0.2l0.2-0.1h0.2l0.2-0.2l0.3-0.1V40l-0.1-0.2l0.1-0.2
			l0.3-0.1L33,39v-0.5l0.3-0.1v-0.1L33,38l-0.1-0.2l-0.4-0.4l-0.2-0.1V37l0.1-0.3l-0.3-0.2l0.3-0.4v-0.3v-0.4l-0.1-0.1L32.2,35h-0.1
			v-0.3l0.3-0.1l0.2,0.1l0.3,0.2l0.3-0.1l0.2-0.1l0.2-0.2l0.2-0.3H34l0.1-0.1l0.1,0.1h0.1V34v-0.4h0.2l0.3-0.4h0.6l0.5,0.3l0.2,0.1
			v0.2l0.2,0.3h-0.2v0.3l0.2,0.2h0.2l0.2-0.3H37l0.2,0.1l0.1-0.1h0.2l0.3,0.3l0.1,0.2h-0.2L37.5,35l0.1,0.2l0.1,0.1l-0.3,0.2h-0.3
			l-0.3,0.3L36.6,36l-0.2,0.4l-0.3,0.3l-0.3,0.5v0.5l0.2,0.5l-0.2,0.2l-0.1,0.5l0.1,0.3l0.2,0.2l-0.2,0.3v0.4v0.5L35.7,41v0.5
			l0.1,0.2v0.4v0.4L35.7,43v0.3l-0.2,0.4v0.4l-0.1,0.3l0.1,0.3h0.2l0.2-0.2h0.2l0.2-0.2l0.2-0.2l0.1,0.1l0.2,0.1v0.2l0.1,0.3
			l0.2,0.2l0.2-0.2v-0.2l-0.2-0.1v-0.2l0.2-0.2v0.2l0.2,0.1h0.1l0.1,0.1v0.3V45l0.3-0.1v-0.1l0.2-0.2l0.1-0.1l0.2,0.1v-0.2l-0.1-0.1
			L38.3,44l-0.2-0.3l0.3-0.1l0.2-0.2l0.3-0.1h0.4h0.3l0.1,0.1c0,0,0.3-0.1,0.4-0.1s0.3-0.1,0.3-0.1l0.2,0.2l-0.1,0.1l-0.1,0.1
			l-0.1,0.2h0.3h0.3L41,44l0.2,0.2h0.3l0.1,0.1l0.1,0.3v0.6l0.2,0.6l0.3,0.4l0.4,0.4l0.1,0.1l0.1,0.3l0.3,0.3l0.2,0.4l0.1,0.2
			l0.3,0.4l0.2,0.2v0.6l-0.1,0.5l0.2,0.5l-0.4,0.2l-0.3-0.2l0.1-0.2l-0.1-0.2h-0.2l-0.2-0.2l-0.2-0.2h-0.2l-0.1,0.4l-0.3,0.4
			l0.1,0.2h0.3l0.1,0.2h0.2l0.1-0.2H43l0.1,0.3v0.3L43,51.1l-0.4,0.2l-0.1,0.2l0.2,0.1V52l-0.2,0.3h-0.3v0.1h-0.3l-0.1,0.1h-0.2
			l-0.1-0.1l-0.2-0.1l-0.2,0.5v0.3l0.2,0.2l0,0H41L40.9,53l-0.3-0.3l0.2-0.2v-0.3L40.6,52l-0.2-0.2l-0.1-0.2v-0.2v-0.1v-0.2L40,51.2
			h-0.3l-0.2,0.3l-0.4,0.1l-0.2,0.3l-0.3-0.3l-0.2-0.1l-0.2,0.1l-0.1,0h-0.3h-0.2v0.3c0,0-0.1,0.2-0.1,0.1l-0.1,0.3h-0.2v-0.4
			L37,51.8h-0.1v-0.2l-0.3-0.3l-0.1-0.2h-0.3h-0.1l-0.2-0.3h-0.2l-0.2-0.2L35.4,50l0.1-0.3l-0.2-0.3l0.2-0.2V49l0.3-0.2v-0.4
			l0.3-0.3v-0.2l-0.3-0.3l0.1-0.2h0.3l0.5-0.2l0.1-0.4l-0.3-0.2l-0.1-0.4l-0.3-0.3h-0.3l-0.2,0.3l-0.2,0.2l-0.3,0.1L35,46.7l0.1,0.3
			L35,47.1l0.1,0.3L35,47.6l-0.1,0.2h-0.2L34.5,48L34,47.3l-0.2,0.1l-0.1,0.1l-0.4-0.1l-0.2-0.1l0.1-0.2l0.2-0.1v-0.2l-0.2-0.3
			l0.1-0.2h0.1v-0.5l0.2-0.3v-0.2l0.1-0.3l-0.3-0.2l-0.3,0.1l-0.2,0.2h-0.2l-0.2,0.2l-0.2,0.1L32.3,45.5z"/>
	</g>
	<g id="SA">
		<polygon class="st1" points="22.1,20.5 22.1,20.3 22.3,20.4 22.4,20.3 22.5,20.2 22.7,20 22.9,20.1 22.9,20.1 23.1,20 23.3,19.8 
			23.5,19.7 23.8,19.8 23.6,20.2 23.6,20.3 23.5,20.5 23.3,20.6 23,20.7 22.8,20.7 22.6,20.9 22.3,20.8 22.2,20.5 		"/>
		<polygon class="st1" points="21.6,20.7 21.2,20.7 21.1,20.9 20.8,21 20.7,20.9 20.3,21 20.3,21.2 20.4,21.3 20.6,21.5 20.7,21.6 
			20.5,21.7 20.3,21.5 20.2,21.6 20.1,21.5 19.7,21.5 19.6,21.5 19.5,21.6 19.6,21.7 19.4,21.9 19.4,22.1 19.6,22.3 19.5,22.5 
			19.7,22.5 19.9,22.6 19.8,22.9 20.1,23 20.4,23 20.5,23.1 20.8,23.1 21,23 21,22.8 20.9,22.7 21,22.6 21.1,22.7 21.3,22.3 
			21.6,22 21.7,22.1 21.9,21.9 22,21.7 21.7,21.6 21.6,21.8 21.4,21.7 21.1,21.5 20.9,21.3 21,21.2 21.1,21 21.2,21.4 21.3,21.5 
			21.6,21.6 21.8,21.5 21.9,21.5 22,21.4 22,21.1 21.7,21.1 21.8,20.9 21.8,20.7 		"/>
		<polygon class="st1" points="21.8,23.1 21.7,23.2 21.8,23.5 22,23.6 22.1,23.4 22.1,23.2 22,23.1 		"/>
		<polygon class="st1" points="22.4,23.3 22.2,23.5 22.3,23.7 22.5,23.8 22.4,24.1 22.5,24.1 22.6,23.9 22.9,23.8 23.2,23.7 
			23.5,23.5 23.3,23.1 23.1,23.1 22.7,23 22.6,23.2 		"/>
		<polygon class="st1" points="19.4,22.8 19.3,22.6 19.1,22.6 19.2,22.8 19.3,23.1 19.5,23.1 19.5,22.9 		"/>
		<polygon class="st1" points="12.7,28 12.4,28.2 12.4,28.4 12.7,28.4 12.7,28.5 12.9,28.5 13.1,28.3 13.1,27.9 12.8,27.9 		"/>
		<polygon class="st1" points="21.4,18.5 21.3,18.7 21.4,18.8 21.5,18.7 		"/>
		<polygon class="st1" points="20.7,24.4 20.4,24.3 20.3,24.4 20.5,24.5 20.7,24.6 20.8,24.5 		"/>
		<path class="st1" d="M32.5,20.1l-0.3,0.2v0.2l0.1,0.1h-0.2l-0.3,0.2L31.4,21L31,20.6l-0.2-0.2h-0.4l-0.5,0.1l-0.3,0.3l-0.3,0.3
			l-0.4,0.5V22l-0.3,0.4l-0.3,0.3H28l-0.3-0.1l-0.4,0.2c0,0,0.1,0.4,0,0.3L27,22.8L26.8,23h-0.1c0,0-0.2-0.1-0.1-0.2
			s0.2-0.3,0.2-0.3l-0.3-0.2l-0.4,0.5l-0.3,0.1l-0.2,0.4l-0.1,0.2l0.1,0.5v0.3l-0.3,0.2l0.1-0.6l-0.3-0.1L24.9,24l-0.3,0.1l0.1-0.4
			c0,0,0.3-0.1,0.3-0.2s0.1-0.1,0.1-0.1l-0.4,0.2l-0.6,0.2L24,24.1l-0.4,0.2h-0.3l-0.2,0.2l0.3,0.2v0.2l-0.3,0.3v0.3l0.2,0.1
			l0.1-0.3l0.1,0.1v0.3l0.3,0.1L24,26l0.1,0.1l-0.2,0.2h-0.3l-0.2,0.2l-0.1,0.1l0.3,0.2V27l-0.3-0.1H23L22.6,27l-0.2,0.4l0.1,0.4
			h-0.3l-0.3,0.1l-0.2-0.2h-0.4V28l0.2,0.2v0.1l0.1,0.2l0.1,0.5v0.3l-0.3-0.2l-0.1,0.1L21,29.1L20.8,29l-0.3-0.3h-0.3v-0.2
			c0,0-0.1-0.2-0.1-0.1s-0.2,0.1-0.2,0.1l-0.3-0.2l0.1-0.1l0.2-0.1v-0.3l-0.1-0.1l-0.3,0.2v-0.3l-0.2-0.2h-0.2l0.1-0.4l-0.4-0.1
			L18.7,27l-0.3-0.3c0,0,0,0.1-0.1,0.1c-0.1,0-0.1,0.3-0.1,0.3l-0.1,0.2L18,27.2h-0.1l-0.1,0.1l-0.2-0.2l-0.2-0.2L17.2,27l-0.1,0
			v0.2L17,27.5l0.2,0.3v0.3c0,0,0.1,0.3,0,0.3c-0.1,0-0.4,0.1-0.4,0.1l-0.3,0.3l-0.3,0.1L16,28.6v0.2v0.1h-0.5l-0.2-0.2l0.1-0.1
			l-0.1-0.3l-0.4,0.1l-0.6,0.1l-0.4,0.2L13.6,29l-0.1,0.1l0.2,0.2h-0.2L13.3,29v-0.3l-0.2,0L12.9,29l-0.1,0.2l-0.3-0.1L12.2,29v0.3
			l0.1,0.1v0.1l-0.1,0.1l0.1,0.2l0.1,0.2l0.1,0.1l0.1,0.2l0.1,0.2l0.3,0.1v0.2l0.4,0.3l0.2,0.2v0.4l0.2,0.4h0.3v0.3H14l-0.1,0.2
			l-0.3,0.3l-0.2,0.2v0.5l-0.2,0.1l-0.1,0.2l0.2,0.2v0.2l-0.1,0.2l-0.3-0.1l-0.2,0.1L12.4,35l-0.3,0.1v0.1l0.1,0.2l0.1,0.3l0.3,0.2
			v0.5l0.3,0.5v0.2l0.1,0.4l0.1,0.6l-0.2,0.1l-0.1,0.2l-0.4-0.1l0.1,0.2l0.1-0.1l0.3,0.1v0.2l0.1,0.1l-0.1,0.1v0.4l0.3,0.1l0.1,0.4
			l0.3,0.3l-0.1,0.3l-0.2,0.3l0.1,0.2v0.2l-0.1,0.1v0.3l0.2,0.1h0.2l0.1-0.1h0.1l0.1,0.2l0.3-0.1l0.2,0.1l0.2-0.2h0.2v0.2l0.2,0.2
			v0.2l-0.2,0.1v0.3h0.2l0.2-0.1l0.2,0.2l0.2,0.3l0.1,0.3l0.1,0.1l-0.1,0v0.2l0.2,0.1h0.2l0.2,0.2v0.3l-0.1,0.1v0.2l0.2,0.2l0.1,0.2
			V45l0.2,0.1l0.3,0.1v0.4L17,46v0.4v0.4v0.7l0.4,0.4h0.3l0.1-0.2l0.1-0.3h0.2l0.5-0.2V47l0.2-0.1l0.2,0.2v0.3l0.2,0.2v-0.3l0.4-0.3
			v-0.7l0.3-0.3l0.1-0.3l-0.1-0.3l0.2-0.2l0.1-0.3l0.2-0.2h0.3H21l0.3,0.2h0.3v0.3l0.1,0.1v0.2H22l0.2-0.2v-0.2h0.2l0.2,0.2l0.2,0.2
			v0.2H23l0.1,0.4l0.2,0.2l0.2,0.2l-0.1,0.2l0.2,0.2l0.1,0.3l0.4,0.1l0.2,0.3l0.2,0.1V48l0.2,0.1l0.3-0.3l0.3-0.2h0.3l0.1-0.3
			l0.2,0.2h0.2l0.1-0.1h0.3l0.1,0.2h0.2l0.1-0.2l0.4,0.1v-0.2h0.3l0.2,0.1l0.3,0.3l0.2-0.1l0.3-0.1l0.2-0.2l0.2,0.1l0.2-0.1h0.2
			l0.2,0.2v-0.2l0.5-0.4l0.3,0.1v-0.2l0.4-0.1l0.3-0.1l0.3-0.2v-0.3l0.5-0.3l0.5-0.4l-0.3-0.3v-0.3l-0.2-0.2l0.2-0.2l0.1-0.4
			l-0.4-0.2h-0.4v-0.2h0.2l-0.1-0.2l0.1-0.5h-0.3L31,42.6l0.2-0.1v-0.4l-0.1,0v-0.2l0.1-0.2L31,41.5l0.1-0.2L31,41.2v-0.3l0.3-0.2
			l0.2-0.1h0.2l0.2-0.2l0.3-0.1V40l-0.1-0.2l0.1-0.2l0.3-0.1L33,39v-0.5l0.3-0.1v-0.1L33,38l-0.1-0.2l-0.4-0.4l-0.2-0.1V37l0.1-0.3
			l-0.3-0.1l0.3-0.4v-0.3v-0.4l-0.1-0.1l-0.1-0.3L32.1,35v-0.3l0.3-0.1l0.2,0.1l0.3,0.2l0.3-0.1l0.2-0.1l0.2-0.2l0.2-0.3H34l0.1-0.1
			l0.1,0.1h0.1V34v-0.4v-0.3l-0.2-0.4v-0.2l-0.2-0.2l-0.4-0.2l-0.1-0.2l-0.2-0.3v-0.2l-0.1-0.1l0.1-0.3l0.1-0.1L33.1,31v-0.3
			l0.4-0.2v-0.1h0.3v-0.3L33.6,30l-0.1-0.2l0.2-0.2h0.2v-0.2l0.2-0.1v-0.2l0.2-0.1l0.1,0.2h0.2l0.1-0.2l-0.1-0.2l0.2-0.3l0.1-0.2
			h0.2v-0.2L35,27.8l-0.2-0.1l-0.2-0.2v-0.3v-0.3l-0.2-0.1l-0.2-0.2v-0.3h0.2L34.1,26l-0.2-0.1v-0.2l0.3-0.1v-0.3l0.1-0.1h0.3v-0.3
			H35l0.1-0.1L35,24.5l0.1-0.2L34.9,24h-0.2l-0.2-0.3l-0.2-0.2h-0.2l-0.3,0.1l-0.3-0.1h-0.3v-0.3L33,23.1l-0.1-0.3l0.2-0.3v-0.3
			l0.2-0.1v-0.3l0.1-0.4l0.3-0.2l-0.2-0.4l-0.3-0.1l-0.1-0.2h-0.3l-0.4-0.1L32.5,20.1z"/>
	</g>
</g>
</svg>
