<?xml version="1.0" encoding="utf-8"?>
<!-- Generator: Adobe Illustrator 21.0.0, SVG Export Plug-In . SVG Version: 6.00 Build 0)  -->
<svg version="1.1" id="Слой_1" xmlns="http://www.w3.org/2000/svg" xmlns:xlink="http://www.w3.org/1999/xlink" x="0px" y="0px"
	 viewBox="0 0 66.8 66.8" style="enable-background:new 0 0 66.8 66.8;" xml:space="preserve">
<style type="text/css">
	.st0{fill:none;}
	.st1{fill:#82BC67;}
	.st2{fill:#6C9955;}
	.st3{fill:#58595B;}
	.st4{fill:#FFFFFF;}
</style>
<path class="st0" d="M64.3,33.4c0-17-13.8-30.9-30.9-30.9c-17,0-30.9,13.8-30.9,30.9c0,17,13.8,30.9,30.9,30.9c0.3,0,0.7,0,1-0.1
	c0.9,0,1.9-0.1,2.8-0.2L19.5,46.3l19.3-5l-9.2-14.8l7.9-15.3l26.4,26.4c0-0.4,0.1-0.7,0.2-1.1C64.2,35.5,64.3,34.5,64.3,33.4z"/>
<path class="st1" d="M62.2,35.9c0-0.4,0.1-0.8,0.1-1.2c0.3-7.8-2.5-15.8-8.4-21.8C42.6,1.6,24.3,1.6,13,12.9S1.7,42.5,13,53.8
	c5.4,5.4,12.4,8.2,19.5,8.4c0.9,0,1.9,0,2.8-0.1l1.9,1.9C51,62.3,62,51.4,63.9,37.6L62.2,35.9z"/>
<path class="st0" d="M64.3,33.4c0-17.1-13.9-30.9-30.9-30.9C16.3,2.5,2.5,16.4,2.5,33.4c0,17.1,13.9,30.9,30.9,30.9
	c0.3,0,0.7-0.1,1-0.1c0.9,0,1.9-0.1,2.8-0.2c1.7-0.2,3.4-0.6,5-1.1L22.4,43.1l17.3-2.5L29.4,27.8L36,16l26.7,26.7
	c0.5-1.6,0.9-3.3,1.2-5.1c0.1-0.4,0.2-0.7,0.2-1.1C64.2,35.5,64.3,34.5,64.3,33.4z"/>
<path class="st1" d="M37.2,64c-0.9,0.1-1.9,0.2-2.8,0.2c-0.3,0-0.7,0.1-1,0.1c-17,0-30.9-13.8-30.9-30.9c0-17,13.8-30.9,30.9-30.9
	c17,0,30.9,13.8,30.9,30.9c0,1.1-0.1,2.1-0.2,3.1c0,0.4-0.1,0.7-0.2,1.1l2.2,2.2c0.1-0.3,0.2-0.7,0.2-1c0.3-1.8,0.5-3.5,0.5-5.4
	C66.8,15,51.8,0,33.4,0C15,0,0,15,0,33.4c0,18.4,15,33.4,33.4,33.4c1.2,0,2.3-0.1,3.4-0.2c0.9-0.1,1.8-0.2,2.6-0.4l0.1,0.1
	c1.6-0.3,3.2-0.7,4.8-1.3l-2.1-2.1C40.6,63.4,38.9,63.8,37.2,64z"/>
<path class="st1" d="M64.8,44.7c0.6-1.6,1-3.2,1.3-4.9l-2.2-2.2c-0.2,1.7-0.6,3.4-1.2,5.1L64.8,44.7z"/>
<path class="st2" d="M29.4,27.8l10.3,12.9l-17.3,2.5l19.9,19.9C52,60,59.7,52.4,62.7,42.7L36,16L29.4,27.8z"/>
<path class="st2" d="M64.8,44.7l-2-2C59.7,52.4,52,60,42.2,62.9l2.1,2.1C53.8,61.7,61.4,54.2,64.8,44.7z"/>
<g id="dollarSign.eps_1_">
	<path class="st3" d="M30.9,16.5c2,0,3.9,0,5.9,0c-0.2,1.3-0.2,2.7-0.4,4c2.3,0.2,4.6,0.9,6.6,2c-0.8,2.2-1.8,4.4-2.6,6.6
		c-1.7-1.5-3.9-2.2-6.2-2.2c-0.5,0-1.2,0.2-1.6,0.5c-0.3,0.2-0.5,0.5-0.6,0.9c-0.1,0.3,0,0.6,0.2,0.8c0.2,0.3,0.5,0.5,0.8,0.5
		C33.6,30,34.3,30,35,30c1.6,0.2,3.2,0.5,4.8,1.1c1.2,0.5,2.3,1.2,3.1,2.1s1.2,2.1,1.4,3.2c0.2,1.4,0.2,2.8-0.3,4.1
		c-0.3,1.1-0.9,2.1-1.6,2.9c-1.5,1.8-3.7,2.8-6,3.1c0.1,1.5,0.2,2.9,0.2,4.3c-1.9,0-3.8,0-5.6,0c0.1-1.4,0.2-2.9,0.2-4.2
		c-1.5-0.1-3-0.4-4.4-0.9c-1.4-0.5-2.6-1.2-3.9-2c0.9-2.3,1.8-4.6,2.7-6.9c1,0.8,2.1,1.6,3.2,2.2c1.2,0.6,2.7,1.1,4.1,1.1
		c0.7,0,1.4,0,2-0.2c0.4-0.2,0.8-0.4,0.9-0.8c0.2-0.4,0.2-0.9-0.1-1.3c-0.2-0.2-0.5-0.5-0.8-0.5c-0.4-0.2-0.8-0.2-1.2-0.3
		c-1.5-0.2-3.1-0.5-4.6-0.9c-1.2-0.4-2.3-0.9-3.3-1.8c-0.6-0.5-1.1-1.2-1.5-1.9c-0.5-1.1-0.7-2.2-0.7-3.5c0-1.3,0.2-2.6,0.9-3.8
		c0.5-1,1.5-1.9,2.4-2.5c1.2-0.8,2.5-1.3,3.9-1.8C31,19.4,30.9,18,30.9,16.5z"/>
</g>
<g id="dollarSign.eps">
	<path class="st4" d="M30.3,16c2,0,3.9,0,5.9,0c-0.2,1.3-0.2,2.7-0.4,4c2.3,0.2,4.6,0.9,6.6,2c-0.8,2.2-1.8,4.4-2.6,6.6
		c-1.7-1.5-3.9-2.2-6.2-2.2c-0.5,0-1.2,0.2-1.6,0.5c-0.3,0.2-0.5,0.5-0.6,0.9c-0.1,0.3,0,0.6,0.2,0.8c0.2,0.3,0.5,0.5,0.8,0.5
		c0.6,0.2,1.4,0.2,2.1,0.3c1.6,0.2,3.2,0.5,4.8,1.1c1.2,0.5,2.3,1.2,3.1,2.1c0.8,0.9,1.2,2.1,1.4,3.2c0.2,1.4,0.2,2.8-0.3,4.1
		c-0.3,1.1-0.9,2.1-1.6,2.9c-1.5,1.8-3.7,2.8-6,3.1c0.1,1.5,0.2,2.9,0.2,4.3c-1.9,0-3.8,0-5.6,0c0.1-1.4,0.2-2.9,0.2-4.2
		c-1.5-0.1-3-0.4-4.4-0.9c-1.4-0.5-2.6-1.2-3.9-2c0.9-2.3,1.8-4.6,2.7-6.9c1,0.8,2.1,1.6,3.2,2.2c1.2,0.6,2.7,1.1,4.1,1.1
		c0.7,0,1.4,0,2-0.2c0.4-0.2,0.8-0.4,0.9-0.8s0.2-0.9-0.1-1.3c-0.2-0.2-0.5-0.5-0.8-0.5c-0.4-0.2-0.8-0.2-1.2-0.3
		c-1.5-0.2-3.1-0.5-4.6-0.9c-1.2-0.4-2.3-0.9-3.3-1.8c-0.6-0.5-1.1-1.2-1.5-1.9c-0.5-1.1-0.7-2.2-0.7-3.5c0-1.3,0.2-2.6,0.9-3.8
		c0.5-1,1.5-1.9,2.4-2.5c1.2-0.8,2.5-1.3,3.9-1.8C30.5,18.8,30.4,17.4,30.3,16z"/>
</g>
<path class="st4" d="M33.4,2.5c-17,0-30.9,13.8-30.9,30.9c0,17,13.8,30.9,30.9,30.9c0.3,0,0.7,0,1-0.1c15.5-0.5,28.2-12.4,29.7-27.7
	c0.1-1,0.2-2.1,0.2-3.1C64.3,16.4,50.4,2.5,33.4,2.5z M53.9,53.9c-5.9,5.9-13.7,8.7-21.4,8.4c-7.1-0.2-14.1-3-19.5-8.4
	C1.7,42.6,1.7,24.3,13,13s29.6-11.3,40.9,0c6,6,8.8,13.9,8.4,21.8C61.9,41.7,59.2,48.5,53.9,53.9z"/>
</svg>
