<?xml version="1.0" encoding="utf-8"?>
<!-- Generator: Adobe Illustrator 21.0.0, SVG Export Plug-In . SVG Version: 6.00 Build 0)  -->
<svg version="1.1" id="Слой_1" xmlns="http://www.w3.org/2000/svg" xmlns:xlink="http://www.w3.org/1999/xlink" x="0px" y="0px"
	 viewBox="0 0 66.8 66.8" style="enable-background:new 0 0 66.8 66.8;" xml:space="preserve">
<style type="text/css">
	.st0{fill:#82BC67;}
	.st1{fill:none;}
	.st2{fill:#699251;}
	.st3{fill:#FFFFFF;}
	.st4{fill:#58595B;}
</style>
<g>
	<path class="st0" d="M53.9,12.9c-11.3-11.3-29.6-11.3-40.9,0c-11.3,11.3-11.3,29.6,0,40.9c5.4,5.4,12.4,8.2,19.5,8.4
		c7.7,0.2,15.5-2.5,21.4-8.4c5.3-5.3,8.1-12.2,8.4-19.1C62.6,26.9,59.8,18.9,53.9,12.9z"/>
	<path class="st1" d="M64.3,33.4c0-17-13.8-30.9-30.9-30.9c-17,0-30.9,13.8-30.9,30.9c0,17,13.8,30.9,30.9,30.9c0.3,0,0.7,0,1-0.1
		c0.9,0,1.9-0.1,2.8-0.2L19.5,46.3l19.3-5l-9.2-14.8l7.9-15.3l26.4,26.4c0-0.4,0.1-0.7,0.2-1.1C64.2,35.5,64.3,34.5,64.3,33.4z"/>
	<path class="st0" d="M34.4,64.2c-0.3,0-0.7,0.1-1,0.1c-17,0-30.9-13.8-30.9-30.9c0-17,13.8-30.9,30.9-30.9
		c17,0,30.9,13.8,30.9,30.9c0,1.1-0.1,2.1-0.2,3.1c0,0.4-0.1,0.7-0.2,1.1l2.2,2.2c0.1-0.3,0.2-0.7,0.2-1c0.3-1.8,0.5-3.5,0.5-5.4
		C66.8,15,51.8,0,33.4,0S0,15,0,33.4s15,33.4,33.4,33.4c1.2,0,2.3-0.1,3.4-0.2c0.9-0.1,1.8-0.2,2.6-0.4L37.2,64
		C36.3,64.1,35.3,64.2,34.4,64.2z"/>
	<path class="st2" d="M29.6,26.5l9.2,14.8l-19.3,5L37.2,64C51,62.3,62,51.4,63.9,37.6L37.5,11.2L29.6,26.5z"/>
	<path class="st2" d="M66.1,39.8l-2.2-2.2C62,51.4,51,62.3,37.2,64l2.3,2.3C52.9,63.8,63.5,53.2,66.1,39.8z"/>
	<path class="st3" d="M33.4,2.5c-17,0-30.9,13.8-30.9,30.9c0,17,13.8,30.9,30.9,30.9c0.3,0,0.7,0,1-0.1
		c15.5-0.5,28.2-12.4,29.7-27.7c0.1-1,0.2-2.1,0.2-3.1C64.3,16.4,50.4,2.5,33.4,2.5z M53.9,53.9c-5.9,5.9-13.7,8.7-21.4,8.4
		c-7.1-0.2-14.1-3-19.5-8.4c-11.3-11.3-11.3-29.6,0-40.9c11.3-11.3,29.6-11.3,40.9,0c6,6,8.8,13.9,8.4,21.8
		C61.9,41.7,59.2,48.5,53.9,53.9z"/>
	<g id="dollarSign.eps_1_">
		<path class="st4" d="M30.5,11.9c2.6,0,5.1,0,7.7,0c-0.2,1.7-0.3,3.5-0.5,5.2c3,0.2,5.9,1.2,8.5,2.6c-1.1,2.9-2.3,5.7-3.4,8.6
			c-2.2-1.9-5.1-2.9-8-2.9c-0.7,0-1.5,0.2-2.1,0.6c-0.4,0.3-0.7,0.7-0.8,1.2c-0.1,0.4,0,0.8,0.2,1.1c0.2,0.4,0.7,0.6,1.1,0.7
			c0.8,0.3,1.8,0.3,2.7,0.4c2.1,0.3,4.2,0.6,6.2,1.4c1.5,0.6,3,1.5,4,2.7c1,1.2,1.6,2.7,1.8,4.2c0.3,1.8,0.2,3.6-0.4,5.3
			c-0.4,1.4-1.2,2.7-2.1,3.7c-2,2.3-4.8,3.6-7.8,4c0.1,1.9,0.2,3.7,0.3,5.6c-2.4,0-4.9,0-7.3,0c0.1-1.8,0.2-3.7,0.3-5.5
			c-2-0.1-3.9-0.5-5.7-1.2c-1.8-0.7-3.4-1.6-5-2.6c1.2-3,2.3-5.9,3.5-8.9c1.3,1.1,2.7,2.1,4.2,2.9c1.6,0.8,3.5,1.4,5.3,1.4
			c0.9,0,1.8,0,2.6-0.3c0.5-0.2,1-0.5,1.2-1c0.2-0.5,0.2-1.2-0.1-1.7c-0.3-0.3-0.6-0.6-1-0.7c-0.5-0.2-1-0.3-1.6-0.4
			c-2-0.3-4-0.6-5.9-1.2c-1.5-0.5-3-1.2-4.3-2.3c-0.8-0.7-1.4-1.5-1.9-2.4c-0.7-1.4-0.9-2.9-0.9-4.5c0-1.7,0.3-3.4,1.2-4.9
			c0.7-1.3,1.9-2.4,3.1-3.3c1.5-1,3.2-1.7,5-2.3C30.7,15.6,30.6,13.8,30.5,11.9z"/>
	</g>
	<g id="dollarSign.eps">
		<path class="st3" d="M29.8,11.2c2.6,0,5.1,0,7.7,0c-0.2,1.7-0.3,3.5-0.5,5.2c3,0.2,5.9,1.2,8.5,2.6c-1.1,2.9-2.3,5.7-3.4,8.6
			c-2.2-1.9-5.1-2.9-8-2.9c-0.7,0-1.5,0.2-2.1,0.6c-0.4,0.3-0.7,0.7-0.8,1.2c-0.1,0.4,0,0.8,0.2,1.1c0.2,0.4,0.7,0.6,1.1,0.7
			c0.8,0.3,1.8,0.3,2.7,0.4c2.1,0.3,4.2,0.6,6.2,1.4c1.5,0.6,3,1.5,4,2.7c1,1.2,1.6,2.7,1.8,4.2c0.3,1.8,0.2,3.6-0.4,5.3
			c-0.4,1.4-1.2,2.7-2.1,3.7c-2,2.3-4.8,3.6-7.8,4c0.1,1.9,0.2,3.7,0.3,5.6c-2.4,0-4.9,0-7.3,0c0.1-1.8,0.2-3.7,0.3-5.5
			c-2-0.1-3.9-0.5-5.7-1.2c-1.8-0.7-3.4-1.6-5-2.6c1.2-3,2.3-5.9,3.5-8.9c1.3,1.1,2.7,2.1,4.2,2.9c1.6,0.8,3.5,1.4,5.3,1.4
			c0.9,0,1.8,0,2.6-0.3c0.5-0.2,1-0.5,1.2-1c0.2-0.5,0.2-1.2-0.1-1.7c-0.3-0.3-0.6-0.6-1-0.7c-0.5-0.2-1-0.3-1.6-0.4
			c-2-0.3-4-0.6-5.9-1.2c-1.5-0.5-3-1.2-4.3-2.3c-0.8-0.7-1.4-1.5-1.9-2.4c-0.7-1.4-0.9-2.9-0.9-4.5c0-1.7,0.3-3.4,1.2-4.9
			c0.7-1.3,1.9-2.4,3.1-3.3c1.5-1,3.2-1.7,5-2.3C30,14.8,29.9,13,29.8,11.2z"/>
	</g>
</g>
</svg>
