<?xml version="1.0" encoding="utf-8"?>
<!-- Generator: Adobe Illustrator 21.0.0, SVG Export Plug-In . SVG Version: 6.00 Build 0)  -->
<svg version="1.1" id="Слой_1" xmlns="http://www.w3.org/2000/svg" xmlns:xlink="http://www.w3.org/1999/xlink" x="0px" y="0px"
	 viewBox="0 0 67 67" style="enable-background:new 0 0 67 67;" xml:space="preserve">
<style type="text/css">
	.st0{fill:#FD9205;}
	.st1{fill:#FEFDFC;}
	.st2{fill:#FE9400;}
	.st3{fill:#FEFDFB;}
	.st4{fill:#FA9200;}
	.st5{fill:#FB8E00;}
</style>
<g>
	<circle class="st0" cx="33.5" cy="33.8" r="33.3"/>
	<path class="st0" d="M38.7,66.1c-3.6,0-7.1,0-10.8,0c-13.9-2.5-24-12.3-26.7-26c0-4.1,0-8.4,0-12.5C4.2,11.9,18,0.6,33.8,0.8
		C49.6,0.9,63,12.6,65.6,28.4c0,3.6,0,7.1,0,10.8C63.3,53.2,52.9,63.6,38.7,66.1z"/>
	<path class="st1" d="M33.1,3.7c16.8-0.1,30.3,13.4,30.3,30c0,16.6-13.4,29.9-29.8,30c-16.8,0.1-30.3-13.4-30.3-30
		C3.3,17.2,16.6,3.7,33.1,3.7z"/>
	<path class="st2" d="M33.5,9.8c13.3,0.1,23.8,10.9,23.7,24.2c-0.1,13.3-11,23.8-24.3,23.6C19.8,57.5,9.5,46.8,9.5,33.8
		C9.5,20.4,20.1,9.7,33.5,9.8z"/>
	<path class="st3" d="M25.9,24.4c-3.9-0.8-4.7-3.5-3.9-7c3.4-1.2,6.8-1.3,10.3,0c0,4.8,0,9.5,0,15.7c3.1-4.6,5.1-9.1,10.6-6.3
		c0.2,4-6.8,6-4,11.3c2,3.7,3.8,7.6,5.8,11.3c-8.6,3.2-7.9-5.1-11.5-8.7c-2.1,3.4,2.1,11.2-6.5,9.4c-1.3-0.4-1-1.7-1-2.6
		C25.8,39.9,25.2,32.2,25.9,24.4z"/>
	<path class="st4" d="M25.9,24.4c0.2,8.6,0.4,17.2,0.6,25.8c-0.4-0.3-1.1-0.6-1.1-0.9C25.1,41,24.2,32.7,25.9,24.4z"/>
	<path class="st5" d="M32.3,17.5c-3.4,0-6.8,0-10.3,0C25.4,15.4,28.8,15.3,32.3,17.5z"/>
</g>
</svg>
