<?xml version="1.0" encoding="utf-8"?>
<!-- Generator: Adobe Illustrator 21.0.0, SVG Export Plug-In . SVG Version: 6.00 Build 0)  -->
<svg version="1.1" id="Слой_1" xmlns="http://www.w3.org/2000/svg" xmlns:xlink="http://www.w3.org/1999/xlink" x="0px" y="0px"
	 viewBox="0 0 67 67" style="enable-background:new 0 0 67 67;" xml:space="preserve">
<style type="text/css">
	.st0{fill:#3E58A6;}
	.st1{fill:none;}
	.st2{fill:#2B388F;}
	.st3{fill:#EEC718;}
	.st4{fill:#FFFFFF;}
</style>
<path class="st0" d="M54,13C42.7,1.7,24.3,1.7,13,13C1.7,24.3,1.7,42.7,13,54c5.4,5.4,12.5,8.2,19.6,8.5c7.7,0.2,15.5-2.6,21.4-8.5
	c5.3-5.3,8.1-12.2,8.4-19.2C62.8,27,60,19,54,13z"/>
<path class="st1" d="M33.5,2.6C16.4,2.6,2.6,16.4,2.6,33.5c0,17,13.7,30.8,30.6,30.9L15.8,47V33.9v-1l8.8-13.1l6.4,6.3l7-13l6.6,6.7
	h6.7l13.2,13.2C64.1,16.1,50.4,2.6,33.5,2.6z"/>
<path class="st0" d="M2.6,33.5c0-17.1,13.9-30.9,30.9-30.9c16.9,0,30.6,13.5,30.9,30.3l2.5,2.5c0-0.6,0.1-1.2,0.1-1.8
	C67,15,52,0,33.5,0S0,15,0,33.5C0,52,15,67,33.5,67c0.7,0,1.5,0,2.2-0.1l-2.5-2.5C16.2,64.3,2.6,50.5,2.6,33.5z"/>
<path class="st2" d="M44.5,19.7L37.9,13l-7,13l-6.4-6.3l-8.8,13.1v1V47l17.4,17.4c0.1,0,0.2,0,0.3,0c0.3,0,0.7,0,1-0.1
	c15.6-0.5,28.2-12.5,29.8-27.7c0.1-1,0.2-2.1,0.2-3.2c0-0.2,0-0.4,0-0.6L51.3,19.7H44.5z"/>
<path class="st2" d="M66.5,38.9c0.2-1.2,0.3-2.3,0.4-3.5l-2.5-2.5c0,0.2,0,0.4,0,0.6c0,1.1-0.1,2.1-0.2,3.2
	c-1.5,15.3-14.2,27.2-29.8,27.7c-0.3,0-0.7,0.1-1,0.1c-0.1,0-0.2,0-0.3,0l2.5,2.5c0.4,0,0.8-0.1,1.3-0.1
	C52,65.3,64.1,53.7,66.5,38.9z"/>
<path class="st3" d="M28,26.3L28,26.3v0.1l-3.5,6.5h-4.3h-4.4l-3.5-6.5l-0.1-0.1l0.1-0.1l3.5-6.5h4.4h4.4L28,26.3z M54.7,40.5
	L54.7,40.5v-0.1l-3.5-6.5h-4.3h-4.4L39,40.5l-0.1,0.1l0.1,0.1l3.5,6.5h4.4h4.4L54.7,40.5z M41.4,47.3L41.4,47.3v-0.1l-3.5-6.5h-4.3
	h-4.4l-3.5,6.5l-0.1,0.1l0.1,0.1l3.5,6.5h4.4h4.4L41.4,47.3z M28,40.5L28,40.5v-0.1l-3.5-6.5h-4.3h-4.4l-3.5,6.4l-0.1,0.1l0.1,0.1
	l3.5,6.5h4.4h4.4L28,40.5z M54.7,26.3L54.7,26.3v0.1l-3.5,6.5h-4.3h-4.4L39,26.4l-0.1-0.1l0.1-0.1l3.5-6.5h4.4h4.4L54.7,26.3z
	 M41.4,19.5L41.4,19.5v0.1l-3.5,6.5h-4.3h-4.4l-3.5-6.5l-0.1-0.1l0.1-0.1l3.5-6.4h4.4h4.4L41.4,19.5z"/>
<polygon class="st4" points="32.1,29 29.5,38.9 37.4,39 36.7,36.6 32.8,36.5 34.9,29 "/>
<path class="st4" d="M33.5,2.6C16.4,2.6,2.6,16.4,2.6,33.5c0,17.1,13.9,30.9,30.9,30.9c0.3,0,0.7,0,1-0.1
	c15.6-0.5,28.2-12.5,29.8-27.7c0.1-1,0.2-2.1,0.2-3.2C64.4,16.4,50.6,2.6,33.5,2.6z M54,54c-5.9,5.9-13.7,8.7-21.4,8.5
	c-7.1-0.2-14.2-3-19.6-8.5C1.7,42.7,1.7,24.3,13,13C24.3,1.7,42.7,1.7,54,13c6,6,8.8,14,8.4,21.8C62.1,41.8,59.3,48.7,54,54z"/>
</svg>
