<?xml version="1.0" encoding="utf-8"?>
<!-- Generator: Adobe Illustrator 21.0.0, SVG Export Plug-In . SVG Version: 6.00 Build 0)  -->
<svg version="1.1" id="Слой_1" xmlns="http://www.w3.org/2000/svg" xmlns:xlink="http://www.w3.org/1999/xlink" x="0px" y="0px"
	 viewBox="0 0 64.8 64.5" style="enable-background:new 0 0 64.8 64.5;" xml:space="preserve">
<style type="text/css">
	.st0{fill:#D0D2D3;}
	.st1{fill:none;}
	.st2{fill:#CCCCCC;}
	.st3{fill:#999999;}
	.st4{fill:#58595B;}
	.st5{fill:none;stroke:#29B473;stroke-width:0.5;stroke-miterlimit:10;}
	.st6{fill:none;stroke:#EC1C24;stroke-width:0.5;stroke-miterlimit:10;}
	.st7{fill:#FFFFFF;}
	.st8{fill:#29B473;}
	.st9{fill:#EC1C24;}
</style>
<path class="st0" d="M52.2,12.5c-10.9-10.9-28.6-10.9-39.5,0C1.8,23.4,1.8,41.1,12.7,52c5.2,5.2,12,7.9,18.9,8.1
	c7.4,0.2,15-2.5,20.6-8.1c5.1-5.1,7.8-11.8,8.1-18.5C60.7,26,58,18.3,52.2,12.5z"/>
<path class="st1" d="M32.5,2.5C16,2.5,2.7,15.8,2.7,32.2S16,62,32.5,62c0.2,0,0.4,0,0.6,0L16.3,45.3L18,32.9l5.9,5.5V26.3l5.9,6.6
	v-5.1l5.6,6V19.2l5.8,7.1v-8.9l5.8,6.4L46.9,16l15.3,15.3C61.7,15.3,48.6,2.5,32.5,2.5z"/>
<path class="st2" d="M32.5,62C16,62,2.7,48.7,2.7,32.2S16,2.5,32.5,2.5c16.1,0,29.3,12.8,29.8,28.9l2.4,2.4c0-0.5,0.1-1,0.1-1.5
	C64.7,14.4,50.3,0,32.5,0S0.2,14.4,0.2,32.2s14.4,32.3,32.3,32.3c1,0,2-0.1,3-0.1L33.1,62C32.9,62,32.7,62,32.5,62z"/>
<path class="st3" d="M47,23.7l-5.8-6.4v8.9l-5.8-7.1v14.6l-5.6-6v5.1l-5.9-6.6v12.1L18,32.9l-1.6,12.4L33.1,62c0.1,0,0.2,0,0.3,0
	c15-0.5,27.2-12,28.7-26.7c0.1-1,0.2-2,0.2-3c0-0.3,0-0.6,0-0.9L46.9,16L47,23.7z"/>
<path class="st3" d="M64.3,37.4c0.2-1.2,0.3-2.4,0.4-3.7l-2.4-2.4c0,0.3,0,0.6,0,0.9c0,1-0.1,2-0.2,3C60.6,50,48.4,61.5,33.4,62
	c-0.1,0-0.2,0-0.3,0l2.3,2.3c0.1,0,0.2,0,0.3,0C50.3,62.9,61.9,51.7,64.3,37.4z"/>
<g>
	<rect x="17" y="35.1" class="st4" width="3.3" height="10.5"/>
	<rect x="22.9" y="29.9" class="st4" width="3.3" height="12.8"/>
	<rect x="28.8" y="30.3" class="st4" width="3.3" height="16.5"/>
	<rect x="34.4" y="22.7" class="st4" width="3.3" height="18.9"/>
	<rect x="40.2" y="21.3" class="st4" width="3.3" height="15.2"/>
	<rect x="45.9" y="19" class="st4" width="3.3" height="17"/>
</g>
<line class="st5" x1="18" y1="32.9" x2="18" y2="47.1"/>
<line class="st5" x1="23.9" y1="26.3" x2="23.9" y2="45.5"/>
<line class="st5" x1="35.4" y1="19.2" x2="35.4" y2="44.3"/>
<line class="st5" x1="41.1" y1="17.3" x2="41.1" y2="39.7"/>
<line class="st5" x1="46.9" y1="16" x2="46.9" y2="38.4"/>
<line class="st6" x1="29.8" y1="27.8" x2="29.8" y2="48.6"/>
<path class="st7" d="M32.5,2.5C16,2.5,2.7,15.8,2.7,32.2C2.7,48.7,16,62,32.5,62c0.3,0,0.6,0,1,0c15-0.5,27.2-12,28.7-26.7
	c0.1-1,0.2-2,0.2-3C62.2,15.8,48.9,2.5,32.5,2.5z M52.2,52c-5.7,5.7-13.2,8.4-20.6,8.1c-6.8-0.2-13.6-2.9-18.9-8.1
	c-10.9-10.9-10.9-28.6,0-39.5c10.9-10.9,28.6-10.9,39.5,0c5.8,5.8,8.5,13.5,8.1,21C60,40.2,57.3,46.9,52.2,52z"/>
<g>
	<rect x="16.3" y="34.8" class="st8" width="3.3" height="10.5"/>
	<rect x="22.3" y="29.5" class="st8" width="3.3" height="12.8"/>
	<rect x="28.2" y="29.9" class="st9" width="3.3" height="16.5"/>
	<rect x="33.8" y="22.3" class="st8" width="3.3" height="18.9"/>
	<rect x="39.5" y="21" class="st8" width="3.3" height="15.2"/>
	<rect x="45.3" y="18.7" class="st8" width="3.3" height="17"/>
</g>
</svg>
