<?xml version="1.0" encoding="utf-8"?>
<!-- Roman Inozemtsev: https://github.com/mir-one/  -->
<svg version="1.1"
	 id="Слой_1" image-rendering="optimizeQuality" shape-rendering="geometricPrecision" text-rendering="geometricPrecision"
	 xmlns="http://www.w3.org/2000/svg" xmlns:xlink="http://www.w3.org/1999/xlink" x="0px" y="0px" viewBox="0 0 94.3 94"
	 style="enable-background:new 0 0 94.3 94;" xml:space="preserve">
<style type="text/css">
	.st0{fill:#FFFFFF;}
	.st1{fill:#39B44A;}
	.st2{fill:#F9EE5D;}
</style>
<circle class="st0" cx="47.1" cy="46.9" r="46.9"/>
<g>
	<path class="st1" d="M0.4,47.6c0-0.6,0-1,0-1.5c0-0.4,0-0.7,0-1.1v-0.1c0.1-2.7,0.4-5.2,1-7.7c0.8-4.1,2.2-7.8,4.1-11.6
		c2.4-4.8,5.6-9,9.4-12.6c4.1-3.8,8.7-6.9,13.7-9.1c4.5-2,9.1-3.2,14-3.6c2.2-0.3,4.5-0.3,6.6-0.3c2.7,0.1,5.2,0.4,7.7,1
		c4.5,1,8.7,2.4,12.6,4.6c5.9,3.2,10.9,7.4,15.1,12.7c3.1,4.1,5.5,8.4,7.1,13.3c1,2.9,1.7,5.9,2.1,8.8c0.3,1.5,0.4,3.1,0.4,4.8
		c0,0.4,0,0.7,0,1.1c0,0.6,0,1,0,1.5c0,0.4,0,0.7,0,1.1c0,1.1-0.1,2.1-0.3,3.2c-0.3,2.8-0.8,5.6-1.7,8.3
		c-2.4,8.1-6.7,15.1-12.9,20.9c-4.9,4.8-10.6,8.1-17.2,10.4c-2.8,1-5.6,1.5-8.5,2c-1.5,0.3-3.1,0.4-4.8,0.4c-0.4,0-0.7,0-1.1,0
		c-0.6,0-1,0-1.5,0c-0.4,0-0.7,0-1.1,0c-2.1-0.1-4.1-0.3-6-0.7c-4.6-0.8-9.1-2.2-13.3-4.3c-5.2-2.7-9.7-6-13.6-10.4
		c-4.3-4.9-7.7-10.4-9.8-16.5c-1-2.8-1.5-5.6-2-8.5C0.1,52,0,50.4,0,48.8C0.4,48.3,0.4,48,0.4,47.6z M90.6,46.9
		c0-23.8-19.2-43-42.7-43.3C23.8,3.4,4.5,22.7,4.2,46.4C3.9,70.5,23.3,89.9,46.9,90.1C71.2,90.4,90.6,70.9,90.6,46.9z"/>
	<path class="st2" d="M0.4,45L0.4,45c0,0.4,0,0.8,0,1.3C0.4,45.7,0.4,45.2,0.4,45z"/>
	<path class="st2" d="M0.4,48.8C0.4,48.8,0.4,48.9,0.4,48.8c0-0.3,0-0.7,0-1.1C0.4,48,0.4,48.3,0.4,48.8z"/>
	<path class="st1" d="M47.5,87.3C25.4,87.3,7.4,69.6,7,47.6C6.6,25.1,24.7,6.9,46.7,6.4C69.2,6,87.4,24.1,87.8,46.1
		C88.3,68.9,69.9,87.3,47.5,87.3z M51.1,14.3c0,0.1,0.1,0.1,0.1,0.3c1.7,4.2,2.7,8.7,3.1,13.2c0.1,2.9,0,5.7-0.4,8.5
		c-0.7,4.2-2.2,8.1-4.5,11.6c-1.7,2.8-3.1,5.7-4.1,8.8c-1.3,4.1-1.8,8.1-2,12.3c0,2,0,3.9,0.3,5.7c0.1,1.5,0.4,2.9,0.7,4.5
		c0,0.1,0.1,0.3,0.3,0.3c0.6,0,1.1,0.1,1.5,0.1c3.2,0.1,6.2-0.3,9.1-1.5c3.8-1.5,7-3.9,9.5-7c2.9-3.4,4.9-7.1,6.3-11.3
		c1.8-5.6,2.4-11.3,1.8-17.1c-0.3-3.1-1-6.2-2-9.1c-1.7-4.9-4.3-9.4-8.1-13c-2.2-2.1-4.8-3.9-7.6-5C54.1,15,52.7,14.6,51.1,14.3z
		 M39.6,78.3C39.6,78.2,39.6,78.2,39.6,78.3c-0.6-3.2-0.7-6.4-0.7-9.7c0-2.8,0.4-5.5,0.8-8.3c1-5.3,2.9-10.1,5.7-14.7
		c2.4-3.8,3.6-7.8,4.2-12.2c0.3-2.8,0.1-5.6-0.3-8.4c-0.6-3.6-1.7-7.3-3.2-10.6c-0.1-0.4-0.1-0.4-0.6-0.3c-2.1,0.1-4.2,0.7-6.2,1.5
		c-3.8,1.5-6.9,3.9-9.5,7c-2.9,3.4-4.9,7.1-6.3,11.3c-1.5,4.8-2.2,9.7-2,14.7c0.1,2.8,0.6,5.6,1.3,8.4c1.1,4.2,2.8,8.1,5.3,11.8
		c2.4,3.4,5.2,6.2,8.8,8.1C37.8,77.5,38.7,77.9,39.6,78.3z"/>
	<path class="st2" d="M51.1,14.3c1.5,0.3,2.9,0.7,4.3,1.3c2.8,1.3,5.3,2.9,7.6,5c3.8,3.6,6.3,8.1,8.1,13c1,2.9,1.7,5.9,2,9.1
		c0.6,5.9,0,11.5-1.8,17.1c-1.4,4.2-3.5,8-6.3,11.3c-2.7,3.1-5.7,5.5-9.5,7c-2.9,1.1-6,1.7-9.1,1.5c-0.6,0-1.1-0.1-1.5-0.1
		c-0.1,0-0.3-0.1-0.3-0.3c-0.3-1.5-0.6-2.9-0.7-4.5c-0.3-2-0.3-3.9-0.3-5.7c0-4.2,0.7-8.3,2-12.3c1-3.1,2.4-6,4.1-8.8
		c2.2-3.6,3.8-7.4,4.5-11.6c0.6-2.8,0.7-5.7,0.4-8.5c-0.3-4.6-1.4-9-3.1-13.2C51.3,14.4,51.1,14.4,51.1,14.3z"/>
	<path class="st2" d="M39.6,78.3c-0.8-0.4-1.7-0.7-2.5-1.3c-3.6-2-6.4-4.8-8.8-8.1c-2.5-3.5-4.2-7.6-5.3-11.8
		c-0.7-2.8-1.1-5.6-1.3-8.4c-0.3-5,0.4-9.9,2-14.7c1.4-4.2,3.5-8,6.3-11.3c2.7-3.1,5.7-5.5,9.5-7c2-0.8,4.1-1.3,6.2-1.5
		c0.4,0,0.4,0,0.6,0.3c1.5,3.4,2.7,7,3.2,10.6c0.4,2.8,0.6,5.6,0.3,8.4c-0.4,4.3-1.8,8.4-4.2,12.2c-2.8,4.5-4.8,9.4-5.7,14.7
		c-0.6,2.7-0.8,5.5-0.8,8.3C38.8,71.9,39.1,74.9,39.6,78.3C39.6,78.2,39.6,78.2,39.6,78.3z"/>
</g>
</svg>
