<?xml version="1.0" encoding="utf-8"?>
<!-- Roman Inozemtsev: https://github.com/mir-one/  -->
<svg version="1.1"
	 id="Слой_1" shape-rendering="geometricPrecision" image-rendering="optimizeQuality" text-rendering="geometricPrecision"
	 xmlns="http://www.w3.org/2000/svg" xmlns:xlink="http://www.w3.org/1999/xlink" x="0px" y="0px" viewBox="0 0 256.7 32.3"
	 style="enable-background:new 0 0 256.7 32.3;" xml:space="preserve">
<style type="text/css">
	.st0{fill:#EEC718;}
	.st1{fill:#392316;}
</style>
<path class="st0" d="M84.7,13.4L84.7,13.4L84.7,13.4l-1.8,3.5h-2.3h-2.3l-1.8-3.4h0l0,0l1.8-3.4h2.3h2.3L84.7,13.4z M98.8,20.9
	L98.8,20.9L98.8,20.9L97,17.4h-2.3h-2.3l-1.8,3.4l0,0l0,0l1.8,3.4h2.3H97L98.8,20.9z M91.8,24.5L91.8,24.5L91.8,24.5L89.9,21h-2.3
	h-2.3l-1.8,3.4l0,0l0,0l1.8,3.4h2.3h2.3L91.8,24.5z M84.7,20.9L84.7,20.9L84.7,20.9l-1.8-3.5h-2.3h-2.3l-1.8,3.4l0,0l0,0l1.8,3.4
	h2.3h2.3L84.7,20.9z M98.8,13.4L98.8,13.4L98.8,13.4L97,16.9h-2.3h-2.3l-1.8-3.4l0,0l0,0l1.8-3.4h2.3H97L98.8,13.4z M91.7,17.2
	L91.7,17.2L91.7,17.2l-1.8,3.5h-2.3h-2.3l-1.8-3.4l0,0l0,0l1.8-3.4h2.3h2.3L91.7,17.2z M91.8,9.8L91.8,9.8L91.8,9.8l-1.8,3.5h-2.3
	h-2.3l-1.8-3.4l0,0l0,0l1.8-3.4h2.3h2.3L91.8,9.8z"/>
<path class="st1" d="M88.7,10.9c0,0.2,0.1,0.5,0.2,0.7c0.1,0.5,0.2,1,0.4,1.6c0.1,0,0.3,0.1,0.4,0.2c0.6-0.3,1.2-0.5,1.8-0.8
	c0.1,0,0.2-0.1,0.2-0.2c0.2,0,0.3-0.1,0.5,0c0.1,0,0.1,0.3,0.1,0.4c-0.1,0.1-0.3,0.2-0.4,0.2c-0.7-0.1-1.2,0.2-1.7,0.6
	c0,0,0,0.2,0,0.3c0,0.1,0.1,0.2,0.1,0.3c0.2,0.6,0.1,1-0.5,1.5c0.2,0,0.3,0.1,0.4,0.1c0.2,0,0.4-0.1,0.6-0.2
	c0.5-0.1,0.6-0.4,0.7-0.8c0.1-0.4,0.7-0.9,1.2-0.8c0,0.1,0,0.2-0.1,0.2c-0.5,0.2-0.7,0.6-0.8,1.1c-0.2,0.5-0.5,0.8-1,0.9
	c-0.2,0-0.4,0.1-0.6,0.3c0.6,0,1.3,0,1.9,0.1c0.4,0,0.8,0.1,1.2,0.2c0.7,0.2,1.1,0.7,1,1.3c0,0.6-0.6,1-1.2,1.1
	c-0.3,0-0.5,0.1-0.7,0.4c-0.3,0.4-0.7,0.5-1.2,0.3c-0.8-0.3-1.4-0.8-1.9-1.4c-0.1-0.1-0.2-0.3-0.4-0.5c-0.1,0.2-0.1,0.4-0.2,0.5
	c0,0.1,0,0.2,0.1,0.2c0.7,0.7,0.8,1.5,0.5,2.4c-0.2,0.7-0.1,1.2,0.5,1.7c0,0,0.1,0.1,0.1,0.2c0,0-0.1,0.1-0.1,0.1
	c-0.7-0.2-1-0.8-0.9-1.4c0.1-0.5,0.1-1,0.1-1.5c0-0.3-0.2-0.5-0.3-0.7c0,0-0.1,0-0.2,0c0,0.2,0,0.3,0.1,0.5c0.2,0.4,0.2,0.7,0,1.1
	c-0.3,0.5-0.5,1-0.7,1.5c-0.2,0.4-0.4,0.8-0.1,1.3c-0.4,0-0.6-0.3-0.5-0.7c0-0.2,0.1-0.3,0.2-0.5c0.3-0.7,0.5-1.4,0.8-2
	c0,0,0-0.1,0-0.3c-0.1,0.2-0.2,0.3-0.3,0.4c-0.6,0.8-1.4,1.3-2.3,1.6c-0.5,0.2-0.6,0.1-0.8-0.4c-0.3-1-0.4-2-0.1-2.9
	c0-0.1,0-0.2,0-0.3c-0.1,0.1-0.2,0.2-0.2,0.3c-0.3,0.6-0.7,1.3-1,1.9c-0.2,0.4-0.8,0.6-1.5,0.5c0.3-0.1,0.5-0.2,0.7-0.3
	c0.2-0.1,0.3-0.2,0.4-0.4c0.3-0.7,0.7-1.4,1-2c0.1-0.3,0.3-0.4,0.6-0.5c0.2,0,0.4-0.2,0.6-0.3c-0.4-0.1-0.7-0.2-1,0.2
	c-0.3,0.4-0.7,0.7-1.1,1.1C83.2,18.8,83,19,82.9,19c-0.4,0-0.8-0.1-1.1-0.2c0,0,0-0.1,0-0.2c0.3,0,0.5,0,0.8,0
	c0.2,0,0.4-0.1,0.6-0.3c0.1-0.1,0.3-0.2,0.3-0.4c0.6-0.8,1.3-1.3,2.3-1.1c0.1,0,0.2,0,0.2,0c0.1-0.1,0.1-0.2,0.2-0.3
	c-0.1,0-0.2-0.1-0.3-0.1c-0.7,0.1-1.4,0-2.1-0.3c-0.2-0.1-0.5-0.2-0.7-0.4c-0.2-0.2-0.4-0.5-0.3-0.7c0.2-0.6-0.1-1-0.3-1.5
	c-0.2-0.5,0-1,0.4-1.3c0.4-0.3,1-0.3,1.5,0.1c0.5,0.4,0.9,0.8,1.3,1.3c0.3,0.3,0.6,0.7,1,1c-0.1-0.3-0.3-0.7-0.3-1
	c0-0.2,0-0.4,0-0.6c0-0.1,0.2-0.3,0.2-0.4c0.2-0.4,0.3-0.9,0.4-1.4c0,0.1,0.2,0.3,0.2,0.4c0,0.4-0.1,0.7-0.3,1.1
	c-0.2,0.5-0.1,1.5,0.3,1.8c0,0,0.1,0.1,0.2,0c0,0,0.1-0.1,0.1-0.2c0.1-0.7,0.3-1,1-1.1c0.3,0,0.4-0.2,0.3-0.5
	c-0.1-0.6-0.1-1.1-0.7-1.5c-0.1,0-0.1-0.2-0.1-0.3C88.3,10.9,88.5,10.9,88.7,10.9z"/>
<g>
	<path d="M105.6,21.4v-8.5h2.4c0.9,0,1.6,0.2,2.1,0.6s0.7,1,0.7,1.7c0,0.4-0.1,0.8-0.3,1.1c-0.2,0.3-0.5,0.5-0.8,0.7
		c0.5,0.1,0.8,0.3,1.1,0.7s0.3,0.8,0.3,1.3c0,0.8-0.2,1.4-0.7,1.9s-1.2,0.6-2,0.6H105.6z M107.2,16.4h0.9c0.4,0,0.6-0.1,0.8-0.3
		c0.2-0.2,0.3-0.5,0.3-0.8c0-0.4-0.1-0.7-0.3-0.9s-0.5-0.3-0.9-0.3h-0.8V16.4z M107.2,17.6v2.5h1.2c0.4,0,0.6-0.1,0.8-0.3
		s0.3-0.5,0.3-0.9c0-0.4-0.1-0.7-0.3-0.9s-0.4-0.3-0.8-0.4h-0.1H107.2z"/>
	<path d="M114.6,21.5c-0.8,0-1.5-0.3-1.9-0.9s-0.7-1.3-0.7-2.2v-0.2c0-1,0.2-1.7,0.7-2.3c0.4-0.6,1.1-0.9,1.9-0.9
		c0.7,0,1.3,0.3,1.7,0.8c0.4,0.5,0.6,1.2,0.6,2.1v0.9h-3.2c0,0.5,0.1,0.8,0.3,1.1s0.5,0.4,0.9,0.4c0.3,0,0.6,0,0.8-0.1
		s0.5-0.2,0.7-0.4l0.4,1c-0.2,0.2-0.5,0.4-0.9,0.5S115,21.5,114.6,21.5z M114.5,16.2c-0.3,0-0.5,0.1-0.6,0.4s-0.2,0.6-0.3,1h1.6
		v-0.1c0-0.4-0.1-0.7-0.2-0.9S114.7,16.2,114.5,16.2z"/>
	<path d="M120.1,21.5c-0.8,0-1.5-0.3-1.9-0.9s-0.7-1.3-0.7-2.2v-0.2c0-1,0.2-1.7,0.7-2.3c0.4-0.6,1.1-0.9,1.9-0.9
		c0.7,0,1.3,0.3,1.7,0.8c0.4,0.5,0.6,1.2,0.6,2.1v0.9h-3.2c0,0.5,0.1,0.8,0.3,1.1s0.5,0.4,0.9,0.4c0.3,0,0.6,0,0.8-0.1
		s0.5-0.2,0.7-0.4l0.4,1c-0.2,0.2-0.5,0.4-0.9,0.5S120.5,21.5,120.1,21.5z M120,16.2c-0.3,0-0.5,0.1-0.6,0.4s-0.2,0.6-0.3,1h1.6
		v-0.1c0-0.4-0.1-0.7-0.2-0.9S120.2,16.2,120,16.2z"/>
	<path d="M125.5,20.2c0.2,0,0.4-0.1,0.5-0.3s0.2-0.4,0.2-0.7h1.5l0,0c0,0.7-0.2,1.2-0.6,1.6s-1,0.6-1.6,0.6c-0.8,0-1.5-0.3-1.9-0.9
		s-0.7-1.4-0.7-2.3v-0.2c0-0.9,0.2-1.7,0.7-2.3c0.4-0.6,1.1-0.9,1.9-0.9c0.7,0,1.2,0.2,1.6,0.7c0.4,0.4,0.6,1,0.6,1.8l0,0h-1.5
		c0-0.4-0.1-0.6-0.2-0.8s-0.3-0.3-0.5-0.3c-0.3,0-0.6,0.2-0.7,0.5s-0.2,0.8-0.2,1.4v0.2c0,0.6,0.1,1.1,0.2,1.4
		S125.1,20.2,125.5,20.2z"/>
	<path d="M130.2,15.8c0.2-0.3,0.4-0.5,0.6-0.7s0.5-0.2,0.8-0.2c0.6,0,1,0.2,1.3,0.7c0.3,0.4,0.5,1.1,0.5,2.1v3.7h-1.7v-3.7
		c0-0.5-0.1-0.9-0.2-1.1s-0.3-0.3-0.5-0.3c-0.2,0-0.4,0-0.5,0.1s-0.3,0.2-0.4,0.3v4.7h-1.6v-9.1h1.6V15.8z"/>
	<path d="M137.6,21.4c-0.1-0.1-0.1-0.3-0.2-0.5s-0.1-0.3-0.1-0.5c-0.1,0.3-0.3,0.6-0.6,0.8s-0.5,0.3-0.8,0.3c-0.6,0-1-0.2-1.3-0.5
		s-0.5-0.8-0.5-1.4c0-0.6,0.2-1.1,0.6-1.4s1-0.5,1.8-0.5h0.7v-0.5c0-0.3-0.1-0.6-0.2-0.7s-0.3-0.3-0.5-0.3c-0.2,0-0.4,0.1-0.5,0.2
		s-0.2,0.3-0.2,0.6l-1.6,0l0,0c0-0.5,0.2-1,0.6-1.4s1-0.6,1.7-0.6c0.7,0,1.2,0.2,1.6,0.6s0.6,0.9,0.6,1.6v2.6c0,0.3,0,0.6,0.1,0.8
		s0.1,0.5,0.2,0.8H137.6z M136.4,20.3c0.2,0,0.4-0.1,0.6-0.2s0.3-0.3,0.4-0.5v-1h-0.7c-0.3,0-0.5,0.1-0.6,0.3s-0.2,0.4-0.2,0.7
		c0,0.2,0.1,0.4,0.2,0.5S136.2,20.3,136.4,20.3z"/>
	<path d="M141.8,13.5h-1.7v-1.3h1.7V13.5z M141.8,21.4h-1.7V15h1.7V21.4z"/>
	<path d="M144.5,15l0.1,0.9c0.2-0.3,0.4-0.6,0.7-0.7s0.5-0.3,0.9-0.3c0.5,0,1,0.2,1.3,0.6s0.5,1.1,0.5,2v3.8h-1.7v-3.8
		c0-0.5-0.1-0.8-0.2-1s-0.3-0.3-0.5-0.3c-0.2,0-0.3,0-0.5,0.1s-0.3,0.2-0.4,0.4v4.7h-1.7V15H144.5z"/>
	<path d="M157.4,18.2L157.4,18.2l0.9-5.4h1.7l-1.7,8.5h-1.5l-1.2-5.3h0l-1.2,5.3h-1.5l-1.7-8.5h1.7l0.9,5.4l0,0l1.2-5.4h1.3
		L157.4,18.2z"/>
	<path d="M163.7,21.4c-0.1-0.1-0.1-0.3-0.2-0.5s-0.1-0.3-0.1-0.5c-0.1,0.3-0.3,0.6-0.6,0.8s-0.5,0.3-0.8,0.3c-0.6,0-1-0.2-1.3-0.5
		s-0.5-0.8-0.5-1.4c0-0.6,0.2-1.1,0.6-1.4s1-0.5,1.8-0.5h0.7v-0.5c0-0.3-0.1-0.6-0.2-0.7s-0.3-0.3-0.5-0.3c-0.2,0-0.4,0.1-0.5,0.2
		s-0.2,0.3-0.2,0.6l-1.6,0l0,0c0-0.5,0.2-1,0.6-1.4s1-0.6,1.7-0.6c0.7,0,1.2,0.2,1.6,0.6s0.6,0.9,0.6,1.6v2.6c0,0.3,0,0.6,0.1,0.8
		s0.1,0.5,0.2,0.8H163.7z M162.5,20.3c0.2,0,0.4-0.1,0.6-0.2s0.3-0.3,0.4-0.5v-1h-0.7c-0.3,0-0.5,0.1-0.6,0.3s-0.2,0.4-0.2,0.7
		c0,0.2,0.1,0.4,0.2,0.5S162.3,20.3,162.5,20.3z"/>
	<path d="M167.9,21.4h-1.7v-9.1h1.7V21.4z"/>
	<path d="M170.8,21.4h-1.7v-9.1h1.7V21.4z"/>
	<path d="M174.4,21.5c-0.8,0-1.5-0.3-1.9-0.9s-0.7-1.3-0.7-2.2v-0.2c0-1,0.2-1.7,0.7-2.3c0.4-0.6,1.1-0.9,1.9-0.9
		c0.7,0,1.3,0.3,1.7,0.8c0.4,0.5,0.6,1.2,0.6,2.1v0.9h-3.2c0,0.5,0.1,0.8,0.3,1.1s0.5,0.4,0.9,0.4c0.3,0,0.6,0,0.8-0.1
		s0.5-0.2,0.7-0.4l0.4,1c-0.2,0.2-0.5,0.4-0.9,0.5S174.8,21.5,174.4,21.5z M174.3,16.2c-0.3,0-0.5,0.1-0.6,0.4s-0.2,0.6-0.3,1h1.6
		v-0.1c0-0.4-0.1-0.7-0.2-0.9S174.5,16.2,174.3,16.2z"/>
	<path d="M179.4,13.5V15h0.9v1.2h-0.9v3.2c0,0.3,0,0.5,0.1,0.6s0.2,0.2,0.3,0.2c0.1,0,0.1,0,0.2,0s0.1,0,0.2,0l0.1,1.2
		c-0.2,0.1-0.3,0.1-0.4,0.1s-0.3,0-0.5,0c-0.5,0-1-0.2-1.2-0.5s-0.4-0.8-0.4-1.6v-3.2H177V15h0.8v-1.6H179.4z"/>
</g>
</svg>
