<?xml version="1.0" encoding="utf-8"?>
<!-- Roman Inozemtsev: https://github.com/mir-one/  -->
<svg version="1.1"
	 id="Слой_1" image-rendering="optimizeQuality" shape-rendering="geometricPrecision" text-rendering="geometricPrecision"
	 xmlns="http://www.w3.org/2000/svg" xmlns:xlink="http://www.w3.org/1999/xlink" x="0px" y="0px" viewBox="0 0 24 24"
	 style="enable-background:new 0 0 24 24;" xml:space="preserve">
<style type="text/css">
	.st0{fill:#3BB54A;}
	.st1{fill:#FFFFFF;}
	.st2{fill:none;}
</style>
<circle class="st0" cx="12" cy="12" r="12"/>
<circle class="st1" cx="12" cy="12" r="11.1"/>
<ellipse transform="matrix(0.7071 -0.7071 0.7071 0.7071 -4.9706 12)" class="st1" cx="12" cy="12" rx="10.4" ry="10.4"/>
<path class="st0" d="M9.8,15.3c-0.6,0-1.1,0.5-1.1,1.1s0.5,1.1,1.1,1.1s1.1-0.5,1.1-1.1S10.4,15.3,9.8,15.3z M6.5,6.5v1.1h1.1l2,4.2
	l-0.7,1.3c-0.1,0.2-0.1,0.3-0.1,0.5c0,0.6,0.5,1.1,1.1,1.1h6.6v-1.1H10c-0.1,0-0.1-0.1-0.1-0.1l0-0.1l0.5-0.9h4.1
	c0.4,0,0.8-0.2,1-0.6l2-3.6c0-0.1,0.1-0.2,0.1-0.3c0-0.3-0.2-0.6-0.6-0.6H8.8L8.3,6.5C8.3,6.5,6.5,6.5,6.5,6.5z M15.3,15.3
	c-0.6,0-1.1,0.5-1.1,1.1s0.5,1.1,1.1,1.1s1.1-0.5,1.1-1.1S15.9,15.3,15.3,15.3z"/>
<path class="st2" d="M5.4,5.4h13.2v13.2H5.4V5.4z"/>
</svg>
