<?xml version="1.0" encoding="utf-8"?>
<!-- Roman Inozemtsev: https://github.com/mir-one/  -->
<svg version="1.1"
	 id="Слой_1" image-rendering="optimizeQuality" shape-rendering="geometricPrecision" text-rendering="geometricPrecision"
	 xmlns="http://www.w3.org/2000/svg" xmlns:xlink="http://www.w3.org/1999/xlink" x="0px" y="0px" viewBox="0 0 179.8 22.8"
	 style="enable-background:new 0 0 179.8 22.8;" xml:space="preserve">
<style type="text/css">
	.st0{fill:#39B44A;}
</style>
<g>
	<path class="st0" d="M17,21.8c-0.9,0.5-2.9,0.9-5.6,0.9C3.9,22.8,0,18.1,0,11.9C0,4.4,5.3,0.3,11.9,0.3c2.6,0,4.5,0.5,5.4,1l-1,3.9
		c-1-0.4-2.4-0.8-4.1-0.8c-3.9,0-7,2.4-7,7.2c0,4.4,2.6,7.1,7,7.1c1.5,0,3.1-0.3,4.1-0.7L17,21.8z"/>
	<path class="st0" d="M39.2,11.3c0,7.2-4.3,11.5-10.7,11.5c-6.5,0-10.3-4.9-10.3-11.1c0-6.5,4.2-11.4,10.6-11.4
		C35.5,0.3,39.2,5.3,39.2,11.3z M23.4,11.6c0,4.3,2,7.3,5.3,7.3c3.3,0,5.2-3.2,5.2-7.4c0-3.9-1.9-7.3-5.3-7.3
		C25.4,4.2,23.4,7.4,23.4,11.6z"/>
	<path class="st0" d="M42.4,0.6h13.3v4h-8.4v5h7.8v4h-7.8v8.8h-5V0.6z"/>
	<path class="st0" d="M59.3,0.6h13.3v4h-8.4v5h7.8v4h-7.8v8.8h-5V0.6z"/>
	<path class="st0" d="M89.3,13.2h-8v5.2h9v4H76.3V0.6h13.5v4h-8.5v4.5h8V13.2z"/>
	<path class="st0" d="M106.5,13.2h-8v5.2h9v4H93.5V0.6H107v4h-8.5v4.5h8V13.2z"/>
	<path class="st0" d="M126.8,21.8c-0.9,0.5-2.9,0.9-5.6,0.9c-7.5,0-11.4-4.7-11.4-10.9c0-7.4,5.3-11.6,11.9-11.6
		c2.6,0,4.5,0.5,5.4,1l-1,3.9c-1-0.4-2.4-0.8-4.1-0.8c-3.9,0-7,2.4-7,7.2c0,4.4,2.6,7.1,7,7.1c1.5,0,3.1-0.3,4.1-0.7L126.8,21.8z"/>
	<path class="st0" d="M148.9,11.3c0,7.2-4.3,11.5-10.7,11.5c-6.5,0-10.3-4.9-10.3-11.1c0-6.5,4.2-11.4,10.6-11.4
		C145.3,0.3,148.9,5.3,148.9,11.3z M133.2,11.6c0,4.3,2,7.3,5.3,7.3c3.3,0,5.2-3.2,5.2-7.4c0-3.9-1.9-7.3-5.3-7.3
		C135.1,4.2,133.2,7.4,133.2,11.6z"/>
	<path class="st0" d="M157.1,0.6v21.8h-5V0.6H157.1z"/>
	<path class="st0" d="M161.3,22.4V0.6h5.8l4.5,8c1.3,2.3,2.6,5,3.6,7.5h0.1c-0.3-2.9-0.4-5.8-0.4-9.1V0.6h4.5v21.8h-5.2l-4.7-8.4
		c-1.3-2.3-2.7-5.1-3.8-7.7l-0.1,0c0.1,2.9,0.2,6,0.2,9.5v6.6H161.3z"/>
</g>
</svg>
