<?xml version="1.0" encoding="utf-8"?>
<!-- Roman Inozemtsev: https://github.com/mir-one/  -->
<svg version="1.1"
	 id="Слой_1" image-rendering="optimizeQuality" shape-rendering="geometricPrecision" text-rendering="geometricPrecision"
	 xmlns="http://www.w3.org/2000/svg" xmlns:xlink="http://www.w3.org/1999/xlink" x="0px" y="0px" viewBox="0 0 237.3 155.1"
	 style="enable-background:new 0 0 237.3 155.1;" xml:space="preserve">
<style type="text/css">
	.st0{fill:#39B44A;}
	.st1{fill:#FFFFFF;}
	.st2{fill:#F9EE5D;}
</style>
<g>
	<path class="st0" d="M22.4,153.2c-1.2,0.6-3.9,1.2-7.4,1.2c-9.9,0-15-6.2-15-14.4c0-9.8,7-15.2,15.7-15.2c3.4,0,5.9,0.7,7.1,1.3
		l-1.3,5.2c-1.3-0.6-3.2-1.1-5.5-1.1c-5.2,0-9.2,3.1-9.2,9.5c0,5.7,3.4,9.4,9.2,9.4c2,0,4.1-0.4,5.4-0.9L22.4,153.2z"/>
	<path class="st0" d="M51.6,139.4c0,9.4-5.7,15.1-14.1,15.1c-8.5,0-13.5-6.4-13.5-14.6c0-8.6,5.5-15,14-15
		C46.8,124.9,51.6,131.5,51.6,139.4z M30.8,139.8c0,5.6,2.6,9.6,7,9.6s6.9-4.2,6.9-9.8c0-5.2-2.5-9.6-6.9-9.6S30.8,134.2,30.8,139.8
		z"/>
	<path class="st0" d="M55.7,125.3h17.5v5.3h-11v6.6h10.3v5.3H62.3V154h-6.5L55.7,125.3L55.7,125.3z"/>
	<path class="st0" d="M78.1,125.3h17.5v5.3h-11v6.6h10.3v5.3H84.6V154h-6.5V125.3z"/>
	<path class="st0" d="M117.5,141.9H107v6.8h11.8v5.3h-18.3v-28.7h17.7v5.3H107v6h10.6L117.5,141.9L117.5,141.9z"/>
	<path class="st0" d="M140.2,141.9h-10.6v6.8h11.8v5.3h-18.3v-28.7h17.7v5.3h-11.2v6h10.6V141.9z"/>
	<path class="st0" d="M166.8,153.2c-1.2,0.6-3.9,1.2-7.4,1.2c-9.9,0-15-6.2-15-14.4c0-9.8,7-15.2,15.7-15.2c3.4,0,5.9,0.7,7.1,1.3
		l-1.3,5.2c-1.3-0.6-3.2-1.1-5.5-1.1c-5.2,0-9.2,3.1-9.2,9.5c0,5.7,3.4,9.4,9.2,9.4c2,0,4.1-0.4,5.4-0.9L166.8,153.2z"/>
	<path class="st0" d="M196,139.4c0,9.4-5.7,15.1-14.1,15.1c-8.5,0-13.5-6.4-13.5-14.6c0-8.6,5.5-15,14-15
		C191.2,124.9,196,131.5,196,139.4z M175.3,139.8c0,5.6,2.6,9.6,7,9.6s6.9-4.2,6.9-9.8c0-5.2-2.5-9.6-6.9-9.6
		C177.8,130,175.3,134.2,175.3,139.8z"/>
	<path class="st0" d="M206.7,125.3V154h-6.5v-28.7H206.7z"/>
	<path class="st0" d="M212.2,154v-28.7h7.6l6,10.5c1.7,3,3.4,6.6,4.7,9.8h0.1c-0.4-3.8-0.6-7.7-0.6-12v-8.4h6V154h-6.8l-6.1-11.1
		c-1.7-3.1-3.6-6.8-5-10.1H218c0.2,3.8,0.3,7.8,0.3,12.5v8.6h-6.1V154z"/>
</g>
<path class="st1" d="M126,35.3c0.2,3.4,0,6.6-0.5,9.8c-0.8,4.8-2.6,9.3-5.1,13.3c-1.9,3.2-3.5,6.6-4.7,10.1
	c-1.4,4.7-2.1,9.3-2.2,14.1c0,2.2,0,4.5,0.3,6.6c0.2,1.8,0.5,3.4,0.8,5.1c0,0.2,0.2,0.3,0.3,0.3c0.6,0,1.3,0.2,1.8,0.2
	c3.7,0.2,7.1-0.3,10.4-1.8c4.3-1.8,8-4.5,10.9-8c3.4-3.9,5.6-8.2,7.2-13c2.1-6.4,2.7-13,2.1-19.6c-0.3-3.5-1.1-7.1-2.2-10.4
	c-1.9-5.6-5-10.8-9.3-14.9c-2.6-2.4-5.5-4.5-8.7-5.8c-1.4-0.6-3.1-1.1-4.8-1.4c0,0.2,0.2,0.2,0.2,0.3C124.3,25,125.5,30.1,126,35.3z
	"/>
<path class="st1" d="M90,69c1.3,4.8,3.2,9.3,6.1,13.5c2.7,3.9,5.9,7.1,10.1,9.3c0.8,0.5,1.8,1,2.9,1.4c-0.6-3.7-0.8-7.4-0.8-11.1
	c0-3.2,0.5-6.3,1-9.5c1.1-6.1,3.4-11.6,6.6-16.9c2.7-4.3,4.2-9,4.8-14c0.3-3.2,0.2-6.4-0.3-9.6c-0.6-4.2-1.9-8.4-3.7-12.2
	c-0.2-0.5-0.2-0.5-0.6-0.3c-2.4,0.2-4.8,0.8-7.1,1.8c-4.3,1.8-7.9,4.5-10.9,8c-3.4,3.9-5.6,8.2-7.2,13c-1.9,5.6-2.7,11.2-2.4,17
	C88.7,62.6,89.2,65.8,90,69z"/>
<path class="st0" d="M118.1,103.6c25.7,0,46.8-21,46.3-47.2c-0.5-25.2-21.4-45.9-47.2-45.5C92,11.4,71.3,32.3,71.7,58.1
	C72.1,83.3,92.7,103.6,118.1,103.6z M127.1,21.3c3.2,1.3,6.1,3.4,8.7,5.8c4.3,4.2,7.4,9.3,9.3,14.9c1.1,3.4,1.9,6.9,2.2,10.4
	c0.6,6.6,0,13.2-2.1,19.6c-1.6,4.8-3.9,9.2-7.2,13c-2.9,3.5-6.6,6.3-10.9,8c-3.4,1.4-6.7,1.9-10.4,1.8c-0.5,0-1.1-0.2-1.8-0.2
	c-0.2,0-0.3-0.2-0.3-0.3c-0.3-1.8-0.6-3.4-0.8-5.1c-0.3-2.1-0.3-4.3-0.3-6.6c0.2-4.8,0.8-9.5,2.2-14.1c1.1-3.5,2.7-6.9,4.7-10.1
	c2.6-4,4.3-8.5,5.1-13.3c0.5-3.2,0.6-6.4,0.5-9.8c-0.5-5.1-1.6-10.3-3.5-15.1c0-0.2-0.2-0.2-0.2-0.3C124,20.2,125.6,20.7,127.1,21.3
	z M90.8,42.5c1.6-4.8,3.9-9.2,7.2-13c3.1-3.5,6.6-6.3,10.9-8c2.2-1,4.7-1.6,7.1-1.8c0.5-0.2,0.5-0.2,0.6,0.3c1.8,3.9,3.1,8,3.7,12.2
	c0.5,3.2,0.6,6.4,0.3,9.6c-0.6,5-2.1,9.6-4.8,14c-3.2,5.3-5.5,10.8-6.6,16.9c-0.5,3.2-1,6.3-1,9.5c0,3.7,0.2,7.4,0.8,11.1
	c0-0.1,0-0.1,0-0.1s0,0,0,0.1c-1.1-0.5-2.1-1-2.9-1.4c-4.2-2.2-7.4-5.5-10.1-9.3c-2.9-4.2-4.8-8.7-6.1-13.5
	c-0.8-3.2-1.3-6.4-1.4-9.6C88.2,53.6,89,48,90.8,42.5z"/>
<path class="st0" d="M117.9,2.3c-29.9,0-54,24.3-54,54.1s24.2,54.1,54.1,54.1c1.7,0,3.5-0.1,5.1-0.3l0.1,0.1
	c25.2-2.4,45.4-22.2,48.4-47.2c0.3-2.2,0.4-4.4,0.4-6.7C172,26.5,147.8,2.3,117.9,2.3z"/>
<g>
	<path class="st2" d="M122.3,19.9c1.8,0.3,3.4,0.8,5,1.4c3.2,1.4,6.1,3.4,8.7,5.8c4.3,4.2,7.2,9.3,9.3,14.9
		c1.1,3.4,1.9,6.7,2.2,10.4c0.6,6.7,0,13.2-2.1,19.6c-1.6,4.8-4,9.2-7.2,13c-3.1,3.5-6.6,6.3-10.9,8c-3.4,1.3-6.9,1.9-10.4,1.8
		c-0.6,0-1.3-0.2-1.8-0.2c-0.2,0-0.3-0.2-0.3-0.3c-0.3-1.8-0.6-3.4-0.8-5.1c-0.3-2.2-0.3-4.5-0.3-6.6c0-4.8,0.8-9.5,2.2-14.1
		c1.1-3.5,2.7-6.9,4.7-10.1c2.6-4.2,4.3-8.5,5.1-13.3c0.6-3.2,0.8-6.6,0.5-9.8c-0.3-5.3-1.6-10.3-3.5-15.1
		C122.4,20,122.3,20,122.3,19.9z"/>
	<path class="st2" d="M109.1,93.3c-1-0.5-1.9-0.8-2.9-1.4c-4.2-2.2-7.4-5.5-10.1-9.3c-2.9-4-4.8-8.7-6.1-13.5
		c-0.8-3.2-1.3-6.4-1.4-9.6c-0.4-5.9,0.4-11.5,2.2-17c1.6-4.8,4-9.2,7.2-13c3.1-3.5,6.6-6.3,10.9-8c2.2-1,4.7-1.4,7.1-1.8
		c0.5,0,0.5,0,0.6,0.3c1.8,3.9,3.1,8,3.7,12.2c0.5,3.2,0.6,6.4,0.3,9.6c-0.5,5-2.1,9.6-4.8,14c-3.2,5.1-5.5,10.8-6.6,16.9
		c-0.6,3.1-1,6.3-1,9.5C108.1,85.9,108.4,89.4,109.1,93.3C109.1,93.1,109.1,93.1,109.1,93.3z"/>
</g>
<path class="st1" d="M117.4,106c27.8,0.3,50.1-22,50.1-49.5c0-27.3-22-49.3-49-49.6c-27.6-0.3-49.8,21.8-50.1,49
	C68.1,83.5,90.3,105.8,117.4,106z M117.1,10.1c25.9-0.5,46.8,20.2,47.2,45.5c0.5,26.2-20.6,47.2-46.3,47.2
	c-25.4,0-45.9-20.2-46.4-45.5C71.2,31.5,91.9,10.6,117.1,10.1z"/>
</svg>
