<?xml version="1.0" encoding="utf-8"?>
<!-- Roman Inozemtsev: https://github.com/mir-one/  -->
<svg version="1.1" id="Слой_1" xmlns="http://www.w3.org/2000/svg" xmlns:xlink="http://www.w3.org/1999/xlink" x="0px" y="0px"
	 viewBox="0 0 64.8 64.5" style="enable-background:new 0 0 64.8 64.5;" xml:space="preserve">
<style type="text/css">
	.st0{fill:#21324D;}
	.st1{fill:#2A406C;}
	.st2{fill:#FFFFFF;}
</style>
<g>
	<path class="st0" d="M32.4,0C14.6,0,0.1,14.5,0.1,32.4s14.5,32.4,32.4,32.4c1.1,0,2.2-0.1,3.3-0.2c14.6-1.5,26.3-12.7,28.6-27
		c0.3-1.7,0.5-3.4,0.5-5.2C64.8,14.5,50.3,0,32.4,0z M33.4,62.2c-0.3,0-0.6,0-1,0c-16.5,0-29.9-13.4-29.9-29.9
		c0-16.5,13.4-29.9,29.9-29.9c16.5,0,29.9,13.4,29.9,29.9c0,1-0.1,2-0.2,3C60.7,50.2,48.4,61.7,33.4,62.2z"/>
	<path class="st0" d="M52.3,12.5c-10.9-10.9-28.7-10.9-39.6,0c-10.9,10.9-10.9,28.7,0,39.6c5.2,5.2,12.1,8,18.9,8.2
		c7.5,0.2,15-2.5,20.7-8.2c5.1-5.1,7.8-11.8,8.2-18.5C60.8,26.1,58.1,18.3,52.3,12.5z"/>
	<g>
		<path class="st0" d="M30.2,60.3c-1.2,0-2.5-0.2-3.7-0.5C20.9,58.6,16,56,12,51.9c-4-4.1-6.6-9-7.6-14.7c-0.6-3.2-0.6-6.5-0.1-9.7
			c0.4-2.1,0.9-4.2,1.8-6.2c0.2-0.4,0.3-0.8,0.5-1.2c0,0,0,0,0,0c0,0,0-0.1,0-0.1c0,0,0,0,0-0.1c0.9-2,2.1-3.9,3.5-5.6
			c4.1-5,9.4-8.3,15.7-9.8c0.8-0.2,1.6-0.3,2.4-0.4c0.5,0,1.1-0.1,1.6-0.2c0.3,0,0.6,0,1,0c0.1,0,0.2,0,0.3,0c0.6,0.1,1.1,0.1,1.7,0
			c0.2,0,0.4,0,0.6,0c0.3,0,0.6,0.1,1,0.1c0.1,0,0.2,0,0.3,0C34.8,4,35,4.1,35.2,4c0.1,0,0.1,0,0.2,0c0.6,0.1,1.2,0.2,1.8,0.3
			c0.1,0,0.1,0,0.2,0c0.1,0.1,0.1,0.1,0.2,0c0.1,0,0.1,0,0.2,0c0.1,0.1,0.2,0,0.3,0.1c0,0,0.1,0,0.1,0c0.2,0.1,0.3,0.1,0.5,0.1
			c0,0,0.1,0,0.1,0C38.9,4.7,39,4.7,39,4.7c0,0,0.1,0,0.1,0c0.1,0.1,0.1,0.1,0.2,0.1c0,0,0.1,0,0.1,0c0,0.1,0.1,0.1,0.1,0
			c0.1,0,0.1,0,0.2,0c0,0.1,0.1,0.1,0.1,0c0.1,0,0.1,0,0.2,0c0,0,0,0,0.1,0c0,0,0.1,0,0.1,0c0,0.1,0.1,0.1,0.2,0.1c0,0,0.1,0,0.1,0
			c0,0.1,0.1,0.1,0.1,0c0,0,0.1,0,0.1,0c0,0.1,0.1,0.1,0.1,0c0.1,0,0.1,0,0.2,0.1c0,0,0.1,0,0.1,0c2.7,0.9,5.2,2.2,7.5,3.8
			c6,4.4,9.8,10.3,11.3,17.6c0.2,0.8,0.2,1.6,0.3,2.3c0.2,1.3,0.2,2.7,0.2,4c-0.2,5.1-1.6,9.9-4.4,14.2c-3.4,5.3-8,9-13.9,11.3
			c-2.1,0.8-4.3,1.4-6.6,1.6c-0.5,0-0.9,0.1-1.4,0.1c-0.4,0-0.8-0.1-1.2,0c-0.5,0.1-1,0.1-1.6,0C31,60.2,30.6,60.3,30.2,60.3z
			 M14.3,13.6C14.3,13.6,14.3,13.6,14.3,13.6L14.3,13.6c-0.1,0.1-0.1,0.1-0.1,0.1c0,0,0,0,0,0c0,0,0,0-0.1,0.1c0,0,0,0,0,0
			c0,0,0,0-0.1,0.1l0,0c0,0,0,0-0.1,0.1c0,0-0.1,0.1-0.1,0.1c0,0,0,0-0.1,0.1c0,0,0,0,0,0c0,0,0,0-0.1,0.1c-0.1,0.2-0.2,0.3-0.4,0.4
			c0,0,0,0.1-0.1,0.1c0,0.1-0.1,0.2-0.2,0.2c0,0-0.1,0.1-0.1,0.1c-0.2,0.2-0.5,0.5-0.7,0.8c0,0,0,0.1,0,0.1l0,0l0,0
			c0,0,0,0.1-0.1,0.1c-0.1,0.1-0.1,0.2-0.2,0.2c0,0,0,0-0.1,0.1l0,0c0,0,0,0.1-0.1,0.1c-0.1,0.1-0.1,0.2-0.2,0.2c0,0,0,0-0.1,0.1
			l0,0c-0.2,0-0.2,0.1-0.2,0.3c-0.1,0.1-0.1,0.2-0.2,0.2c0,0,0,0.1-0.1,0.1c0,0.1-0.1,0.1-0.1,0.2c0,0,0,0-0.1,0.1
			c0,0,0,0.1-0.1,0.1c-0.3,0-0.3,0.2-0.3,0.5c0,0-0.1,0.1-0.1,0.1c-0.1,0-0.2,0-0.3,0.1c-0.9,1.3-1.6,2.7-2.3,4.2
			c-0.1,0.2-0.3,0.4,0,0.6c0,0.1-0.1,0.3-0.1,0.4c0,0,0,0.1,0,0.1c0,0.1,0,0.2-0.1,0.2c-0.2,0.1-0.5,0.8-0.5,1.1
			c0,0,0.1,0.1,0.1,0.1c0,0,0,0.1,0,0.1c-0.1,0-0.1,0.1-0.1,0.2l0,0C7,25.4,7,25.5,7,25.6c-0.1,0.6-0.4,1.3-0.5,1.9
			C6.2,29,6.1,30.4,6,31.8c-0.1,1.2,0,2.5,0.1,3.7c0.1,0.8,0.2,1.6,0.4,2.4c0.2,0.8,0.4,1.6,0.6,2.4c0.2,0.7,0.5,1.5,0.8,2.2
			c0.2,0.5,0.4,0.9,0.6,1.4c0.5,0.9,0.9,1.8,1.5,2.7c0.4,0.6,0.8,1.3,1.3,1.9c0.5,0.7,1.1,1.3,1.6,1.9c0.8,1,1.8,1.8,2.8,2.6
			c0.7,0.6,1.5,1.2,2.4,1.7c0.8,0.5,1.6,1,2.4,1.3c1,0.5,2.1,1,3.2,1.4c1.1,0.4,2.1,0.7,3.3,0.9c0.9,0.2,1.8,0.3,2.8,0.4
			c0.7,0.1,1.3,0.2,1.9,0.1c0.1,0,0.2,0,0.3,0.1c0.1,0.1,0.3,0.1,0.5,0.1c1.2,0.1,2.4-0.2,3.6-0.3c0.9-0.1,1.8-0.3,2.7-0.5
			c0.8-0.2,1.6-0.4,2.4-0.7c0.6-0.2,1.3-0.5,1.9-0.7c0.9-0.4,1.7-0.8,2.5-1.2c1.1-0.6,2.2-1.3,3.2-2.1c0.7-0.6,1.4-1.1,2.1-1.8
			c1.2-1.1,2.3-2.4,3.3-3.7c0.6-0.9,1.2-1.7,1.7-2.6c0.6-1.1,1.2-2.2,1.6-3.4c0.5-1.2,0.9-2.4,1.2-3.7c0.2-0.9,0.4-1.9,0.5-2.8
			c0.1-0.8,0.2-1.7,0-2.5c-0.3-1.4-1-2-2.3-2.3c-0.8-0.2-1.7-0.1-2.5,0c-0.4,0-0.8,0.2-1.2,0.2c-1.1-0.2-2.2-0.2-3.3,0.1
			c-0.6,0.2-1.2,0.5-1.7,1c-0.6,0.6-1,1.3-1.5,2c-0.8,1.2-1.6,2.3-2.5,3.4c-0.8,0.9-1.6,1.8-2.6,2.5c-0.7,0.5-1.4,0.7-2.2,0.6
			c-0.4-0.1-0.8-0.2-1.1-0.5c-0.6-0.6-1.2-1.3-1.6-2.1c-0.4-0.7-0.8-1.3-1.3-1.9c-0.5-0.7-1-1.3-1.6-1.8c-0.3-0.2-0.6-0.6-1-0.7
			c-0.5-0.2-1.1-0.4-1.6-0.5c-0.5-0.1-1-0.1-1.6-0.2c-0.3,0-0.5,0-0.7,0.2c-0.2,0.1-0.3,0.1-0.5,0.1c0.3-0.5,0.7-1,1.1-1.5
			c0.8-0.8,1.5-0.9,2.4-0.2c0.6,0.4,1.1,0.9,1.6,1.5c1.1,1.3,2.1,2.7,3.2,4c0.6,0.7,1.3,1.3,2.1,1.8c0.3,0.2,0.7,0.3,1,0.2
			c0.8-0.1,1.4-0.5,1.9-1c0.8-0.8,1.5-1.8,2.1-2.8c0.3-0.4,0.5-0.9,0.7-1.4c-0.2,0.3-0.4,0.7-0.7,1c-0.7,1.2-1.5,2.4-2.7,3.2
			c-1,0.8-1.8,0.8-2.8,0c-0.1-0.1-0.2-0.2-0.4-0.3c-0.7-0.6-1.3-1.3-1.8-2c-1-1.2-1.9-2.6-3-3.7c-0.5-0.5-1-1-1.7-1.3
			c-0.6-0.3-1.2-0.2-1.8,0.1c-0.7,0.4-1.2,1-1.6,1.7c-0.6,0.9-1.1,1.9-1.6,2.9c0,0,0,0.1-0.1,0.1c0,0,0,0,0,0.1c0,0,0,0.1,0,0.1l0,0
			c-0.2,0-0.3,0.1-0.4,0.3c-0.3,0.5-0.7,0.9-1.2,1.2c-0.4,0.3-0.9,0.5-1.4,0.4c-0.4-0.1-0.7-0.3-1-0.6c-0.2-0.2-0.4-0.5-0.7-0.6
			c-0.4-0.6-0.7-1.2-1-1.9c-0.6-1.2-1.1-2.5-1.6-3.8C19,30.1,18.9,30,18.7,30c-0.5,0-1,0-1.5,0c0-0.1,0-0.1-0.1-0.1
			c0,0,0,0.1-0.1,0.1c-0.2,0-0.5,0-0.7,0c-0.1-0.3-0.3-0.3-0.4-0.2c-0.1,0-0.3,0-0.4-0.1c-0.6-0.5-0.9-1.1-0.8-1.8c0-1,0.4-2,0.8-3
			c0.6-1.4,1.4-2.8,2.4-4c1.2-1.5,2.5-2.8,4.1-3.8c1.7-1.2,3.6-2,5.6-2.6c0.9-0.3,1.8-0.3,2.7-0.6c0.5-0.1,1-0.2,1.5-0.3
			c0.4-0.2,0.9-0.3,1.2-0.8c0.2,0,0.1-0.1,0.2-0.3c0.1,0,0.2-0.1,0.3-0.2c0.2-0.3,0.4-0.6,0.4-1c0-0.3,0.2-0.6,0.1-0.9
			c-0.1-0.3-0.1-0.6-0.2-0.9c-0.1-0.4-0.2-0.9-0.7-1.1c0-0.1,0-0.2-0.1-0.3c-0.2-0.2-0.4-0.4-0.6-0.5c-0.6-0.3-1.3-0.4-2-0.5
			c-0.3,0-0.6-0.1-0.9-0.1c-0.7,0.1-1.4,0.2-2.1,0.3c-0.8,0.1-1.7,0.2-2.5,0.5c-0.1,0-0.3,0.1-0.3-0.1c1.7-0.6,3.5-1,5.4-1.2
			c0.8,0,1.5-0.1,2.3-0.1c-0.1-0.1-0.1-0.1-0.1-0.1c-0.4,0-0.8,0-1.2,0c-0.3,0-0.7,0-1,0.1c-0.2,0.1-0.4,0-0.6,0c0,0-0.1,0-0.1,0
			c-1.6,0.2-3.2,0.5-4.8,1c0,0-0.1,0-0.1,0c-0.1,0-0.2,0.1-0.3,0.1c0,0-0.1,0-0.1,0.1c0,0-0.1,0-0.1,0c0,0-0.1,0-0.1,0.1
			c0,0-0.1,0-0.1,0c-0.1,0-0.1,0-0.1,0.1c0,0-0.1,0-0.1,0c-0.1,0-0.2,0-0.2,0.1l0,0c-0.1,0-0.1,0-0.2,0.1c0,0,0,0-0.1,0
			c-0.1,0-0.1,0-0.2,0.1l0,0c-0.1,0-0.2,0-0.2,0.1l0,0c-0.1,0-0.1,0-0.2,0.1l0,0c-0.1,0-0.1,0-0.2,0.1c0,0,0,0-0.1,0
			c0,0-0.1,0-0.1,0c0,0-0.1,0-0.1,0c0,0-0.1,0-0.1,0c0,0-0.1,0-0.1,0c-0.1,0-0.2,0-0.2,0.1c0,0,0,0,0,0c0,0-0.1,0-0.1,0
			c0,0,0,0-0.1,0c0,0-0.1,0-0.1,0c0,0-0.1,0-0.1,0c-0.1,0-0.1,0-0.2,0.1l0,0c0,0-0.1,0-0.1,0c0,0-0.1,0-0.1,0c0,0,0,0-0.1,0
			c0,0-0.1,0-0.1,0c0,0,0,0-0.1,0c0,0-0.1,0-0.1,0c0,0,0,0-0.1,0c0,0-0.1,0-0.1,0c0,0,0,0-0.1,0c0,0-0.1,0-0.1,0
			c-0.1,0-0.1,0-0.1,0.1l0,0c-0.1,0-0.1,0-0.2,0.1l0,0c0,0-0.1,0-0.1,0c0,0,0,0-0.1,0c0,0-0.1,0-0.1,0.1c-0.1,0-0.1,0.1-0.2,0.1
			c0,0,0,0,0,0c0,0-0.1,0-0.1,0.1c0,0,0,0-0.1,0c0,0-0.1,0-0.1,0c0,0-0.1,0-0.1,0c0,0,0,0-0.1,0c0,0-0.1,0-0.1,0.1c0,0,0,0-0.1,0
			c0,0-0.1,0-0.1,0.1l0,0c0,0,0,0-0.1,0c0,0-0.1,0-0.1,0c0,0-0.1,0-0.1,0.1c0,0,0,0-0.1,0c0,0-0.1,0-0.1,0.1l0,0
			c-0.1,0-0.1,0-0.1,0.1c0,0-0.1,0-0.1,0.1c0,0,0,0-0.1,0c0,0,0,0-0.1,0c0,0-0.1,0-0.1,0.1c-0.1,0-0.1,0.1-0.2,0.1
			c0,0-0.1,0-0.1,0.1c-0.1,0-0.1,0.1-0.2,0.1c-0.9,0.5-1.7,1.2-2.5,1.9c-0.1,0-0.1,0-0.1,0.1c-0.2,0.2-0.3,0.4-0.5,0.5
			C14.5,13.4,14.4,13.5,14.3,13.6L14.3,13.6C14.4,13.5,14.4,13.5,14.3,13.6L14.3,13.6z M44.7,33.2c0.1,0,0.1-0.1,0.2-0.2
			c0.2-0.5,0.5-1,0.7-1.5c0.1-0.3,0.3-0.6,0.3-1c-0.4,0.9-0.9,1.8-1.3,2.7C44.7,33.3,44.7,33.2,44.7,33.2z M44.6,33.4
			C44.6,33.4,44.6,33.4,44.6,33.4C44.6,33.4,44.6,33.4,44.6,33.4C44.6,33.4,44.6,33.4,44.6,33.4C44.6,33.3,44.6,33.4,44.6,33.4z"/>
		<path class="st1" d="M6.7,19.9C6.6,19.9,6.6,19.9,6.7,19.9C6.6,19.9,6.6,19.9,6.7,19.9z"/>
		<path class="st1" d="M6.6,20C6.6,20.1,6.6,20.1,6.6,20C6.5,20,6.6,20,6.6,20z"/>
		<path class="st2" d="M33.1,12.6c0,0.1,0,0.2-0.2,0.3c-1.5,0-2.9,0.1-4.3,0.3c-8.7,1.6-15.3,9.1-15.7,18
			c-0.3,5.9,1.8,11.1,6.2,15.1c5,4.6,10.9,6.2,17.5,4.7c7.1-1.7,11.8-6.2,14.2-13c0.5-1.5,0.8-3.1,0.9-4.7c0-0.2-0.1-0.3-0.3-0.3
			c-0.3,0-0.6,0-0.9,0c-0.3,0-0.5,0.1-0.7,0.4c-1.5,2.7-3.1,5.3-5.4,7.4c-1.2,1.2-2.5,2.1-4.2,2.6c-1.3,0.3-2.4,0.1-3.3-0.9
			c-0.6-0.7-1.2-1.4-1.7-2.2c-0.8-1.1-1.5-2.2-2.3-3.3c-0.4-0.6-0.9-1.1-1.5-1.5c-0.5-0.3-0.8-0.3-1.2,0.1c-0.4,0.3-0.7,0.8-1,1.2
			c-0.8,1.2-1.4,2.6-2.1,3.8c-0.6,1-1.2,1.9-2.1,2.6c-0.6,0.3-1.2,0.3-1.8,0c0-0.1-0.1-0.1-0.2-0.1l0,0c-0.7-0.5-1.3-1.1-1.8-1.8
			c-1.7-2.3-3.1-4.7-4.4-7.2c-0.5-0.9-0.9-1.8-1.4-2.8c-0.2-0.4-0.3-0.7-0.5-1.1c0.6,0,1.1,0,1.6,0c0.2,0,0.5,0,0.7,0
			c0.1,0,0.1,0,0.2,0c0.5,0,1,0,1.5,0c0.2,0,0.4,0.1,0.5,0.3c0.5,1.3,1,2.5,1.6,3.8c0.3,0.6,0.6,1.3,1,1.9c0.3,0.6,0.6,1.1,1,1.7
			c0.3,0.4,0.6,0.8,0.9,1.1c0.3,0.2,0.5,0.2,0.8,0c0.1-0.1,0.2-0.2,0.3-0.3c0.7-1,1.3-2,1.8-3.1c0,0,0,0,0,0c0,0,0.1,0,0-0.1
			c0,0,0,0,0-0.1c0,0,0-0.1,0.1-0.1c0.5-1,1-1.9,1.6-2.9c0.4-0.7,0.9-1.3,1.6-1.7c0.6-0.3,1.2-0.4,1.8-0.1c0.7,0.3,1.2,0.8,1.7,1.3
			c1.1,1.2,2,2.5,3,3.7c0.6,0.7,1.1,1.4,1.8,2c0.1,0.1,0.2,0.2,0.4,0.3c1,0.7,1.8,0.8,2.8,0c1.1-0.9,1.9-2,2.7-3.2
			c0.2-0.3,0.4-0.7,0.7-1c-0.2,0.5-0.4,0.9-0.7,1.4c-0.6,1-1.3,2-2.1,2.8c-0.5,0.5-1.2,0.9-1.9,1c-0.3,0-0.7-0.1-1-0.2
			c-0.8-0.5-1.5-1.1-2.1-1.8c-1.1-1.3-2.1-2.7-3.2-4c-0.5-0.5-1-1.1-1.6-1.5c-1-0.7-1.6-0.6-2.4,0.2c-0.4,0.4-0.8,0.9-1.1,1.5
			c-0.4,0.5-0.7,1.1-1,1.7c-0.6,1.2-1.2,2.5-1.9,3.6c-0.3,0.4-0.5,0.8-0.9,1.1c-0.4,0.3-0.8,0.3-1.2,0.1c-0.4-0.2-0.6-0.5-0.9-0.8
			c-0.7-0.8-1.2-1.7-1.7-2.6c-0.8-1.5-1.6-3.1-2.3-4.8c-0.1-0.2-0.1-0.3-0.4-0.3c-0.6,0-1.2,0-1.8,0c-0.3,0-0.2,0.1-0.1,0.3
			c0.2,0.3,0.3,0.7,0.5,1c1.5,2.8,3,5.5,4.9,8c0.5,0.6,1,1.3,1.6,1.7c0.5,0.4,0.8,0.4,1.3-0.1c0.3-0.3,0.6-0.6,0.8-1
			c0.7-1,1.2-2.1,1.7-3.1c0.6-1.1,1.1-2.2,2-3c1-1,2-0.9,3-0.3c0.6,0.4,1.1,1,1.6,1.6c1,1.3,1.9,2.6,2.9,3.9
			c0.5,0.6,0.9,1.2,1.6,1.7c0.3,0.3,0.6,0.4,1.1,0.3c0.7-0.1,1.4-0.3,2-0.7c1.3-0.7,2.3-1.7,3.2-2.8c1.8-2.1,3.2-4.3,4.4-6.8
			c0.1-0.2,0.2-0.4,0.5-0.4c1.1,0,2.3,0,3.4,0c0.3,0,0.3,0.1,0.3,0.4c0,1.2,0,2.3-0.2,3.5c-0.7,4.7-2.8,8.8-6.3,12.1
			c-4.8,4.5-10.5,6.3-17,5.7c-0.8-0.1-1.6-0.3-2.5-0.5c-2.5-0.6-4.8-1.7-6.9-3.1c-1.6-1.1-3-2.3-4.2-3.8c-3.5-4.2-5.2-9-4.9-14.5
			c0.3-7.1,3.5-12.6,9.4-16.7c3.1-2.2,6.7-3.3,10.5-3.5c0.4,0,0.2-0.3,0.3-0.5c0.1-0.2-0.1-0.3-0.3-0.3c-0.4,0-0.8,0.1-1.2,0.1
			c-5.2,0.6-9.7,2.8-13.3,6.6c-4.6,4.9-6.7,10.7-6,17.4c0.5,5.1,2.5,9.4,6.1,13c5.5,5.5,12.1,7.7,19.7,6.2
			c7.4-1.4,12.6-5.6,15.9-12.4c1.5-3,2.1-6.2,2.1-9.5c0-0.4,0.1-0.5,0.5-0.5c1.1,0,2.3,0,3.4,0c0.3,0,0.3,0.1,0.3,0.3
			c0,1.4-0.1,2.7-0.3,4.1C57.2,41.8,54.6,47,50,51.2c-6.4,5.9-14.1,8.1-22.6,6.5c-8.5-1.6-14.8-6.5-18.6-14.3
			c-2.3-4.7-2.9-9.6-2.2-14.7c0.2-1.1,0.4-2.2,0.6-3.3c0,0,0,0,0,0c0.1,0,0.1-0.1,0.1-0.2c0,0,0-0.1,0-0.1c0.2-0.4,0.3-0.8,0.4-1.2
			c0.1-0.1,0.1-0.1,0.1-0.2c0,0,0-0.1,0-0.1c0-0.1,0.1-0.3,0.1-0.4c0.7-1.7,1.5-3.4,2.5-5c0,0,0.1-0.1,0.1-0.1
			c0.1-0.1,0.2-0.3,0.3-0.5c0,0,0-0.1,0.1-0.1c0,0,0,0,0.1-0.1c0-0.1,0.1-0.1,0.1-0.2c0,0,0-0.1,0.1-0.1c0.1-0.1,0.1-0.2,0.2-0.2
			c0.1-0.1,0.2-0.2,0.2-0.3c0,0,0,0,0,0c0,0,0,0,0.1-0.1c0.1-0.1,0.1-0.2,0.2-0.2c0,0,0-0.1,0.1-0.1c0,0,0,0,0,0c0,0,0,0,0.1-0.1
			c0.1-0.1,0.1-0.2,0.2-0.2c0,0,0-0.1,0.1-0.1l0,0c0,0,0,0,0,0c0,0,0-0.1,0-0.1c0.2-0.3,0.5-0.5,0.7-0.8c0,0,0.1-0.1,0.1-0.1
			c0.1-0.1,0.2-0.1,0.2-0.2c0,0,0-0.1,0.1-0.1c0.2-0.1,0.3-0.2,0.4-0.4c0,0,0.1,0,0.1-0.1c0,0,0,0,0,0c0,0,0,0,0.1-0.1
			c0,0,0.1-0.1,0.1-0.1c0,0,0.1,0,0.1-0.1c0,0,0,0,0,0c0,0,0.1,0,0.1-0.1c0,0,0,0,0,0c0,0,0.1,0,0.1-0.1c0,0,0,0,0,0
			c0,0,0.1,0,0.1-0.1c0,0,0,0,0,0c0,0,0.1,0,0.1-0.1c0,0,0,0,0,0c0,0,0.1,0,0.1-0.1l0,0c0,0,0.1,0,0.1-0.1c0.2-0.1,0.3-0.3,0.5-0.5
			c0,0,0.1,0,0.1-0.1c0.8-0.7,1.6-1.3,2.5-1.9c0.1,0,0.1-0.1,0.2-0.1c0,0,0.1,0,0.1-0.1c0.1,0,0.1-0.1,0.2-0.1c0,0,0.1,0,0.1-0.1
			c0,0,0,0,0.1,0c0,0,0,0,0.1,0c0,0,0.1,0,0.1-0.1c0.1,0,0.1,0,0.1-0.1c0,0,0,0,0,0c0,0,0.1,0,0.1-0.1c0,0,0,0,0.1,0
			c0,0,0.1,0,0.1-0.1c0,0,0.1,0,0.1,0c0,0,0,0,0.1,0c0,0,0,0,0,0c0,0,0.1,0,0.1-0.1c0,0,0,0,0.1,0c0,0,0.1,0,0.1-0.1c0,0,0,0,0.1,0
			c0,0,0.1,0,0.1,0c0,0,0.1,0,0.1,0c0,0,0,0,0.1,0c0,0,0.1,0,0.1-0.1c0,0,0,0,0,0s0,0,0,0c0.1,0,0.1-0.1,0.2-0.1c0,0,0.1,0,0.1-0.1
			c0,0,0,0,0.1,0c0,0,0.1,0,0.1,0c0,0,0,0,0,0c0.1,0,0.1,0,0.2-0.1c0,0,0,0,0,0c0.1,0,0.1,0,0.1-0.1c0,0,0.1,0,0.1,0c0,0,0,0,0.1,0
			c0,0,0.1,0,0.1,0c0,0,0,0,0.1,0c0,0,0.1,0,0.1,0c0,0,0,0,0.1,0c0,0,0.1,0,0.1,0c0,0,0,0,0.1,0c0,0,0.1,0,0.1,0c0,0,0.1,0,0.1,0
			c0,0,0,0,0,0c0.1,0,0.1,0,0.2-0.1c0,0,0.1,0,0.1,0c0,0,0.1,0,0.1,0c0,0,0,0,0.1,0c0,0,0.1,0,0.1,0c0,0,0,0,0,0
			c0.1,0,0.2,0,0.2-0.1c0,0,0.1,0,0.1,0c0,0,0.1,0,0.1,0c0,0,0.1,0,0.1,0c0,0,0.1,0,0.1,0c0,0,0,0,0.1,0c0.1,0,0.1,0,0.2-0.1
			c0,0,0,0,0,0c0.1,0,0.1,0,0.2-0.1c0,0,0,0,0,0c0.1,0,0.2,0,0.2-0.1c0,0,0,0,0,0c0.1,0,0.1,0,0.2-0.1c0,0,0,0,0.1,0
			c0.1,0,0.1,0,0.2-0.1c0,0,0,0,0,0c0.1,0,0.2,0,0.2-0.1c0,0,0.1,0,0.1,0c0.1,0,0.1,0,0.1-0.1c0,0,0.1,0,0.1,0c0.1,0,0.1,0,0.1-0.1
			c0,0,0.1,0,0.1,0c0.1,0,0.1,0,0.1-0.1c0.1,0,0.2-0.1,0.3-0.1c0,0,0.1,0,0.1,0c1.6-0.5,3.2-0.8,4.8-1c0,0,0.1,0,0.1,0
			c0.2,0,0.4,0,0.6,0c0,0,0,0,0,0.1C28,7,26.2,7.3,24.5,7.9c-0.1,0-0.1,0-0.2,0.1c-3.4,1.1-6.4,2.9-9,5.3c-1.7,1.5-3.2,3.3-4.4,5.2
			c-1.6,2.6-2.7,5.3-3.3,8.3c-0.8,3.9-0.7,7.8,0.4,11.6c1.1,4.1,3.1,7.7,6,10.7c1.8,1.9,3.9,3.5,6.2,4.7c5.1,2.7,10.5,3.6,16.2,2.6
			c3.4-0.6,6.5-1.8,9.4-3.8c1.4-0.9,2.7-2,3.9-3.2c1.4-1.4,2.6-2.9,3.6-4.6c0.9-1.5,1.7-3.2,2.3-4.8c0.3-0.9,0.6-1.9,0.8-2.8
			c0.3-1.2,0.5-2.5,0.5-3.8c0-0.8,0-0.8-0.7-0.8c-0.2,0-0.3,0.1-0.3,0.3c-0.1,3.4-0.9,6.6-2.5,9.6c-4.3,8-11,12.4-20,13
			c-4.1,0.3-8-0.6-11.7-2.5c-8.2-4.1-13.4-12.8-13.1-22c0.2-4.7,1.6-9,4.3-12.8c1.7-2.4,3.8-4.4,6.2-6.1c0.7-0.5,1.5-0.9,2.3-1.3
			c2.7-1.4,5.6-2.3,8.6-2.5c1.1-0.1,2.2-0.1,3.2-0.2c0.1,0.1,0.1,0.2,0.1,0.3C33.1,9.9,33.1,11.2,33.1,12.6z"/>
		<path class="st0" d="M7.2,25.4c-0.2,1.1-0.5,2.2-0.6,3.3c-0.7,5.1,0,10.1,2.2,14.7c3.8,7.8,10.1,12.7,18.6,14.3
			c8.6,1.6,16.2-0.6,22.6-6.5c4.5-4.1,7.2-9.4,8.1-15.4c0.2-1.4,0.3-2.7,0.3-4.1c0-0.3-0.1-0.3-0.3-0.3c-1.1,0-2.3,0-3.4,0
			c-0.4,0-0.5,0.1-0.5,0.5c0,3.3-0.6,6.5-2.1,9.5c-3.3,6.7-8.5,11-15.9,12.4C28.6,55,22,52.8,16.5,47.4c-3.6-3.6-5.6-8-6.1-13
			c-0.6-6.7,1.4-12.5,6-17.4c3.6-3.8,8.1-5.9,13.3-6.6c0.4-0.1,0.8-0.1,1.2-0.1c0.2,0,0.3,0.1,0.3,0.3c0,0.2,0.2,0.5-0.3,0.5
			c-3.8,0.2-7.4,1.3-10.5,3.5c-5.8,4-9,9.6-9.4,16.7c-0.3,5.4,1.5,10.2,4.9,14.5c1.2,1.5,2.6,2.8,4.2,3.8c2.1,1.4,4.4,2.4,6.9,3.1
			c0.8,0.2,1.6,0.4,2.5,0.5c6.5,0.6,12.3-1.2,17-5.7c3.5-3.3,5.5-7.4,6.3-12.1c0.2-1.2,0.2-2.3,0.2-3.5c0-0.2,0-0.4-0.3-0.4
			c-1.1,0-2.3,0-3.4,0c-0.3,0-0.4,0.1-0.5,0.4c-1.2,2.4-2.6,4.7-4.4,6.8c-0.9,1.1-2,2.1-3.2,2.8c-0.6,0.4-1.3,0.6-2,0.7
			c-0.4,0.1-0.8-0.1-1.1-0.3c-0.6-0.5-1.1-1.1-1.6-1.7c-1-1.3-1.8-2.6-2.9-3.9c-0.5-0.6-1-1.2-1.6-1.6c-1-0.7-2-0.8-3,0.3
			c-0.9,0.9-1.4,2-2,3c-0.6,1-1.1,2.1-1.7,3.1c-0.2,0.4-0.5,0.7-0.8,1c-0.5,0.4-0.8,0.4-1.3,0.1c-0.6-0.5-1.2-1.1-1.6-1.7
			c-1.9-2.5-3.4-5.2-4.9-8c-0.2-0.3-0.3-0.7-0.5-1c-0.1-0.2-0.1-0.3,0.1-0.3c0.6,0,1.2,0,1.8,0c0.3,0,0.3,0.2,0.4,0.3
			c0.7,1.6,1.4,3.2,2.3,4.8c0.5,0.9,1,1.8,1.7,2.6c0.3,0.3,0.5,0.6,0.9,0.8c0.4,0.2,0.8,0.2,1.2-0.1c0.4-0.3,0.7-0.7,0.9-1.1
			c0.7-1.2,1.3-2.4,1.9-3.6c0.3-0.6,0.6-1.2,1-1.7c0.2,0,0.3,0,0.5-0.1c0.2-0.1,0.5-0.2,0.7-0.2c0.5,0,1.1,0,1.6,0.2
			c0.5,0.2,1.1,0.4,1.6,0.5c0.4,0.1,0.7,0.4,1,0.7c0.6,0.5,1.1,1.1,1.6,1.8c0.4,0.6,0.9,1.2,1.3,1.9c0.4,0.8,1,1.5,1.6,2.1
			c0.3,0.3,0.7,0.4,1.1,0.5c0.8,0.1,1.6-0.1,2.2-0.6c1-0.7,1.8-1.6,2.6-2.5c0.9-1.1,1.8-2.2,2.5-3.4c0.5-0.7,0.9-1.4,1.5-2
			c0.5-0.5,1.1-0.8,1.7-1c1.1-0.3,2.2-0.3,3.3-0.1c0.4,0.1,0.8-0.1,1.2-0.2c0.9-0.1,1.7-0.2,2.5,0c1.3,0.3,1.9,0.9,2.3,2.3
			c0.2,0.8,0.1,1.6,0,2.5c-0.1,1-0.3,1.9-0.5,2.8c-0.3,1.3-0.7,2.5-1.2,3.7c-0.4,1.2-1,2.3-1.6,3.4c-0.5,0.9-1.1,1.8-1.7,2.6
			c-1,1.4-2.1,2.6-3.3,3.7c-0.7,0.6-1.4,1.2-2.1,1.8c-1,0.8-2.1,1.5-3.2,2.1c-0.8,0.5-1.7,0.9-2.5,1.2c-0.6,0.3-1.3,0.5-1.9,0.7
			c-0.8,0.3-1.6,0.5-2.4,0.7c-0.9,0.2-1.8,0.4-2.7,0.5c-1.2,0.1-2.4,0.4-3.6,0.3c-0.2,0-0.3,0-0.5-0.1c-0.1-0.1-0.2-0.1-0.3-0.1
			c-0.7,0.1-1.3,0-1.9-0.1c-0.9-0.1-1.9-0.2-2.8-0.4c-1.1-0.2-2.2-0.5-3.3-0.9c-1.1-0.4-2.2-0.9-3.2-1.4c-0.8-0.4-1.6-0.9-2.4-1.3
			c-0.8-0.5-1.6-1.1-2.4-1.7c-1-0.8-1.9-1.6-2.8-2.6c-0.5-0.6-1.1-1.2-1.6-1.9c-0.5-0.6-0.9-1.2-1.3-1.9c-0.6-0.8-1-1.8-1.5-2.7
			c-0.2-0.4-0.4-0.9-0.6-1.4c-0.3-0.7-0.5-1.5-0.8-2.2c-0.3-0.8-0.4-1.6-0.6-2.4c-0.2-0.8-0.2-1.6-0.4-2.4c-0.2-1.2-0.3-2.5-0.1-3.7
			c0.1-1.4,0.2-2.9,0.5-4.3c0.1-0.6,0.4-1.3,0.5-1.9C7,25.5,7,25.4,7.2,25.4z"/>
		<path class="st0" d="M16.4,30c-0.5,0-1,0-1.6,0c0.2,0.4,0.4,0.8,0.5,1.1c0.5,0.9,0.9,1.8,1.4,2.8c1.3,2.5,2.7,5,4.4,7.2
			c0.5,0.7,1.1,1.3,1.8,1.8c-0.2,0-0.4,0-0.5-0.1c-0.4-0.3-0.8-0.6-1.1-0.9c-1.1-1.2-2-2.5-2.9-3.9c-0.6-1-1.1-2-1.7-3
			c-0.2-0.3-0.5-0.7-0.8-0.9c-0.5-0.4-1-0.3-1.2,0.3c-0.1,0.4-0.2,0.8-0.1,1.1c0.2,1.2,0.4,2.5,0.9,3.6c0.5,1.2,1.1,2.3,1.8,3.3
			c0.7,0.9,1.4,1.8,2.2,2.6c0.7,0.7,1.6,1.4,2.4,2c1,0.7,2.2,1.3,3.3,1.8c1.6,0.7,3.3,1.1,5,1.3c1.2,0.2,2.5,0.2,3.8,0
			c0.4,0,0.7,0,1.1-0.1c0.5-0.1,0.9-0.4,1.5-0.4c0.8,0,1.5-0.5,2.2-0.7c0.9-0.2,1.5-0.9,2.4-1.2c0.5-0.2,0.9-0.5,1.3-0.8
			c1.6-1.2,3.1-2.6,4.3-4.3c0.7-1,1.3-2.1,1.5-3.3c0-0.3,0-0.5-0.2-0.6c-0.2-0.2-0.4,0-0.5,0.1c-0.7,0.3-1.1,0.9-1.7,1.3
			c-0.6,0.5-1.2,1.1-1.8,1.6c-0.9,0.7-1.8,1.2-2.9,1.6c-0.7,0.3-1.4,0.4-2.2,0.4c-1,0-1.9-0.5-2.6-1.1c-0.7-0.6-1.4-1.4-1.9-2.2
			c-0.7-0.9-1.3-1.9-2.2-2.7c-1.1-1-2.4-0.8-3.3,0.4c-0.2,0.2-0.3,0.4-0.4,0.6c-0.5,0.7-0.9,1.4-1.4,2.1c-0.3,0.4-0.7,0.7-1,1.1
			c-0.3,0.4-0.8,0.7-1.2,1c-0.1,0.1-0.2,0.1-0.3,0c1-0.6,1.5-1.6,2.1-2.6c0.7-1.3,1.3-2.6,2.1-3.8c0.3-0.4,0.6-0.9,1-1.2
			c0.4-0.3,0.7-0.4,1.2-0.1c0.6,0.4,1.1,1,1.5,1.5c0.8,1.1,1.6,2.2,2.3,3.3c0.5,0.8,1.1,1.5,1.7,2.2c0.9,1,2,1.2,3.3,0.9
			c1.6-0.4,3-1.4,4.2-2.6c2.2-2.2,3.9-4.7,5.4-7.4c0.2-0.3,0.3-0.4,0.7-0.4c0.3,0,0.6,0,0.9,0c0.2,0,0.3,0.1,0.3,0.3
			c-0.1,1.6-0.3,3.2-0.9,4.7c-2.4,6.9-7.1,11.4-14.2,13C30,52.5,24,50.8,19.1,46.2c-4.4-4-6.4-9.1-6.2-15.1
			c0.4-8.9,6.9-16.3,15.7-18c1.4-0.3,2.9-0.4,4.3-0.3c-0.2,0.5-0.7,0.6-1.2,0.8c-0.5,0.2-1,0.2-1.5,0.3c-0.9,0.2-1.8,0.3-2.7,0.6
			c-2,0.6-3.9,1.4-5.6,2.6c-1.6,1.1-2.9,2.3-4.1,3.8c-1,1.2-1.8,2.6-2.4,4c-0.4,1-0.7,2-0.8,3c0,0.7,0.2,1.4,0.8,1.8
			c0.1,0.1,0.2,0.1,0.4,0.1C16.1,29.7,16.3,29.7,16.4,30z"/>
		<path class="st0" d="M33,8.3c-1.1,0-2.2,0.1-3.2,0.2c-3,0.3-5.9,1.2-8.6,2.5c-0.8,0.4-1.6,0.8-2.3,1.3c-2.4,1.7-4.5,3.7-6.2,6.1
			c-2.7,3.9-4.1,8.1-4.3,12.8c-0.3,9.2,4.8,17.9,13.1,22c3.7,1.8,7.6,2.8,11.7,2.5c9.1-0.6,15.8-5,20-13c1.6-3,2.4-6.2,2.5-9.6
			c0-0.2,0.1-0.3,0.3-0.3c0.8,0,0.8,0,0.7,0.8c-0.1,1.3-0.2,2.5-0.5,3.8c-0.2,1-0.5,1.9-0.8,2.8c-0.6,1.7-1.4,3.3-2.3,4.8
			c-1,1.7-2.2,3.2-3.6,4.6c-1.2,1.2-2.5,2.2-3.9,3.2c-2.8,1.9-6,3.2-9.4,3.8c-5.7,1-11.1,0.1-16.2-2.6c-2.3-1.2-4.4-2.8-6.2-4.7
			c-2.9-3.1-4.9-6.6-6-10.7c-1-3.8-1.1-7.7-0.4-11.6c0.6-3,1.7-5.7,3.3-8.3c1.2-1.9,2.7-3.7,4.4-5.2c2.6-2.4,5.6-4.2,9-5.3
			c0.1,0,0.1,0,0.2-0.1c0,0.2,0.2,0.2,0.3,0.1c0.8-0.3,1.6-0.4,2.5-0.5c0.7-0.1,1.4-0.2,2.1-0.3c0.3-0.1,0.6,0,0.9,0.1
			c0.7,0.1,1.4,0.2,2,0.5C32.6,7.9,32.9,8,33,8.3z"/>
		<path class="st0" d="M26.4,35.3c-0.5,1.1-1,2.2-1.8,3.1c-0.1,0.1-0.2,0.2-0.3,0.3c-0.2,0.2-0.5,0.2-0.8,0
			c-0.4-0.3-0.7-0.7-0.9-1.1c-0.4-0.5-0.7-1.1-1-1.7c0.4,0,0.5,0.4,0.7,0.6c0.3,0.3,0.6,0.5,1,0.6c0.5,0.1,1,0,1.4-0.4
			c0.4-0.3,0.8-0.7,1.2-1.2C26.2,35.4,26.2,35.3,26.4,35.3z"/>
		<path class="st1" d="M10.5,18.2c-1,1.6-1.8,3.2-2.5,5c-0.3-0.2-0.1-0.5,0-0.6c0.6-1.5,1.4-2.9,2.3-4.2
			C10.2,18.3,10.3,18.2,10.5,18.2z"/>
		<path class="st0" d="M44.6,33.2c0.4-0.9,0.9-1.8,1.3-2.7c0,0.4-0.2,0.7-0.3,1c-0.2,0.5-0.5,1-0.7,1.5c0,0.1-0.1,0.1-0.2,0.2
			C44.7,33.2,44.7,33.2,44.6,33.2z"/>
		<path class="st1" d="M7.7,23.9c-0.1,0.4-0.2,0.8-0.4,1.2c0,0-0.1-0.1-0.1-0.1C7.2,24.7,7.5,24,7.7,23.9z"/>
		<path class="st1" d="M10.9,17.6c-0.1,0.2-0.2,0.3-0.3,0.5C10.5,17.8,10.6,17.6,10.9,17.6z"/>
		<path class="st1" d="M11.5,16.7c0,0.1-0.1,0.2-0.2,0.3C11.3,16.8,11.3,16.7,11.5,16.7z"/>
		<path class="st1" d="M17.2,30c-0.1,0-0.1,0-0.2,0c0,0,0-0.1,0.1-0.1C17.2,29.9,17.2,30,17.2,30z"/>
		<path class="st1" d="M15.1,12.9c0,0.1-0.1,0-0.1,0.1C15,12.9,15,12.9,15.1,12.9z"/>
		<path class="st1" d="M7.3,25.2c0,0.1,0,0.1-0.1,0.2C7.2,25.3,7.2,25.2,7.3,25.2z"/>
		<path class="st1" d="M14.2,13.7C14.2,13.7,14.2,13.7,14.2,13.7C14.2,13.7,14.2,13.7,14.2,13.7z"/>
		<path class="st1" d="M14.2,13.7C14.2,13.8,14.1,13.8,14.2,13.7C14.1,13.8,14.1,13.8,14.2,13.7z"/>
		<path class="st1" d="M14.1,13.8C14.1,13.9,14.1,13.9,14.1,13.8C14,13.9,14.1,13.8,14.1,13.8z"/>
		<path class="st1" d="M14,13.9C14,13.9,14,14,14,13.9C14,13.9,14,13.9,14,13.9z"/>
		<path class="st1" d="M13.9,14C13.8,14.1,13.8,14.1,13.9,14C13.8,14.1,13.8,14.1,13.9,14z"/>
		<path class="st1" d="M13.8,14.1C13.8,14.2,13.8,14.2,13.8,14.1C13.7,14.2,13.8,14.1,13.8,14.1z"/>
		<path class="st1" d="M13.3,14.6C13.3,14.6,13.3,14.6,13.3,14.6C13.3,14.6,13.3,14.6,13.3,14.6z"/>
		<path class="st1" d="M13,14.9C13,14.9,13,15,13,14.9C13,15,13,14.9,13,14.9z"/>
		<path class="st1" d="M12.2,15.7c0,0,0,0.1,0,0.1C12.2,15.8,12.2,15.8,12.2,15.7z"/>
		<path class="st1" d="M12.2,15.9C12.1,15.9,12.1,16,12.2,15.9C12.1,16,12.1,15.9,12.2,15.9z"/>
		<path class="st1" d="M11.9,16.2C11.9,16.2,11.9,16.3,11.9,16.2C11.9,16.3,11.9,16.2,11.9,16.2z"/>
		<path class="st1" d="M11.8,16.3C11.8,16.3,11.8,16.3,11.8,16.3C11.8,16.3,11.8,16.3,11.8,16.3z"/>
		<path class="st1" d="M11.6,16.6C11.6,16.6,11.6,16.6,11.6,16.6C11.6,16.6,11.6,16.6,11.6,16.6z"/>
		<path class="st1" d="M11.1,17.2C11.1,17.2,11.1,17.3,11.1,17.2C11.1,17.3,11.1,17.2,11.1,17.2z"/>
		<path class="st1" d="M11,17.5C11,17.5,10.9,17.5,11,17.5C10.9,17.5,11,17.5,11,17.5z"/>
		<path class="st1" d="M7.8,23.6C7.8,23.6,7.8,23.6,7.8,23.6C7.8,23.6,7.8,23.6,7.8,23.6z"/>
		<path class="st2" d="M44.6,33.2c0,0,0.1,0,0.1,0C44.7,33.2,44.7,33.3,44.6,33.2z"/>
		<path class="st2" d="M44.6,33.4C44.6,33.4,44.6,33.3,44.6,33.4C44.6,33.4,44.6,33.4,44.6,33.4C44.6,33.4,44.6,33.4,44.6,33.4
			C44.6,33.4,44.6,33.4,44.6,33.4z"/>
		<path class="st1" d="M26.5,35C26.5,35.1,26.5,35.1,26.5,35C26.5,35.1,26.5,35.1,26.5,35z"/>
		<path class="st1" d="M26.5,35.2C26.5,35.2,26.5,35.3,26.5,35.2C26.4,35.2,26.5,35.2,26.5,35.2z"/>
		<path class="st1" d="M14.5,13.4C14.5,13.4,14.4,13.5,14.5,13.4C14.4,13.5,14.5,13.4,14.5,13.4z"/>
		<path class="st1" d="M14.4,13.5C14.4,13.5,14.4,13.6,14.4,13.5C14.4,13.5,14.4,13.5,14.4,13.5z"/>
		<path class="st1" d="M14.3,13.6C14.3,13.6,14.3,13.6,14.3,13.6C14.3,13.6,14.3,13.6,14.3,13.6z"/>
		<path class="st0" d="M24.9,43c0.1,0.1,0.2,0.1,0.3,0c0.4-0.3,0.9-0.6,1.2-1c0.3-0.4,0.7-0.7,1-1.1c0.5-0.7,0.9-1.4,1.4-2.1
			c0.2-0.2,0.3-0.4,0.4-0.6c0.9-1.1,2.2-1.4,3.3-0.4c0.9,0.8,1.5,1.8,2.2,2.7c0.6,0.8,1.2,1.6,1.9,2.2c0.7,0.6,1.6,1.1,2.6,1.1
			c0.7,0,1.5-0.1,2.2-0.4c1-0.4,2-0.9,2.9-1.6c0.6-0.5,1.2-1,1.8-1.6c0.5-0.5,1-1,1.7-1.3c0.2-0.1,0.3-0.2,0.5-0.1
			c0.2,0.2,0.2,0.4,0.2,0.6c-0.2,1.2-0.8,2.3-1.5,3.3c-1.2,1.7-2.6,3.1-4.3,4.3c-0.4,0.3-0.8,0.6-1.3,0.8c-0.9,0.3-1.5,0.9-2.4,1.2
			c-0.8,0.2-1.5,0.7-2.2,0.7c-0.5,0-1,0.3-1.5,0.4c-0.4,0.1-0.7,0.1-1.1,0.1c-1.3,0.2-2.5,0.2-3.8,0c-1.7-0.2-3.4-0.6-5-1.3
			c-1.1-0.5-2.3-1-3.3-1.8c-0.8-0.6-1.7-1.2-2.4-2c-0.8-0.8-1.5-1.7-2.2-2.6c-0.8-1-1.3-2.1-1.8-3.3c-0.5-1.2-0.7-2.4-0.9-3.6
			c-0.1-0.4,0-0.8,0.1-1.1c0.2-0.6,0.7-0.7,1.2-0.3c0.3,0.3,0.6,0.6,0.8,0.9c0.6,1,1.2,2,1.7,3c0.8,1.4,1.7,2.7,2.9,3.9
			c0.3,0.4,0.7,0.6,1.1,0.9c0.2,0.1,0.3,0.1,0.5,0.1c0,0,0,0,0,0C23,43,23,43,23.1,43C23.7,43.3,24.3,43.3,24.9,43z"/>
		<path class="st1" d="M23.1,43c-0.1,0-0.1,0-0.2-0.1C23,42.9,23.1,43,23.1,43z"/>
	</g>
	<path class="st2" d="M32.4,2.5C15.9,2.5,2.5,15.9,2.5,32.4c0,16.5,13.4,29.9,29.9,29.9c0.3,0,0.6,0,1,0c15-0.5,27.3-12,28.8-26.8
		c0.1-1,0.2-2,0.2-3C62.3,15.9,48.9,2.5,32.4,2.5z M52.3,52.2c-5.7,5.7-13.2,8.4-20.7,8.2c-6.9-0.2-13.7-2.9-18.9-8.2
		c-10.9-10.9-10.9-28.7,0-39.6c10.9-10.9,28.7-10.9,39.6,0c5.8,5.8,8.5,13.5,8.2,21.1C60.1,40.4,57.4,47,52.3,52.2z"/>
</g>
</svg>
