<?xml version="1.0" encoding="utf-8"?>
<!-- Generator: Adobe Illustrator 21.0.0, SVG Export Plug-In . SVG Version: 6.00 Build 0)  -->
<svg version="1.1"
	 id="Слой_1" shape-rendering="geometricPrecision" image-rendering="optimizeQuality" text-rendering="geometricPrecision"
	 xmlns="http://www.w3.org/2000/svg" xmlns:xlink="http://www.w3.org/1999/xlink" x="0px" y="0px" viewBox="0 0 97.8 100"
	 style="enable-background:new 0 0 97.8 100;" xml:space="preserve">
<style type="text/css">
	.st0{fill:#F9BC15;}
</style>
<g id="Canvas">
	<g id="path38">
		<path id="path0_fill" class="st0" d="M27.5,70.7L0,50.7c0.1,4.7,0.8,9.5,2.2,14l22,15.9L27.5,70.7z M35.3,97.8
			c4.5,1.4,9.3,2.1,14,2.2l22-16l-8.5-6.2L35.3,97.8z M36.6,58.8l-3.2,10l8.1,5.9L20.3,90.2c0.1,0.1,0.2,0.2,0.4,0.3
			c2.8,2.1,5.9,3.8,9.1,5.2l28.9-21L36.6,58.8z M80.5,46.4L91,78.8c2.7-3.9,4.9-8.1,6.4-12.6l-8.4-25.9L80.5,46.4z M54.3,65.4
			l8.5,6.2l8.1-5.9l8.1,25l0.4-0.3c2.8-2,5.4-4.4,7.8-7l-11-34L54.3,65.4z M37.5,40H27l-3.1,9.6L2.6,34.1c0,0.1-0.1,0.3-0.2,0.4
			c-1.1,3.3-1.8,6.8-2.1,10.3l28.8,21L37.5,40z M90.1,19.9c-2.9-3.8-6.2-7.1-10-10H52.9l3.2,10H90.1z M66.1,50.7l8.5-6.1L71.5,35
			h26.3l-0.1-0.5c-1.1-3.3-2.5-6.5-4.3-9.6H57.7L66.1,50.7z M33.9,2.6c-4.5,1.5-8.7,3.7-12.6,6.5l-8.4,26h10.5L33.9,2.6z M55.7,35
			l-3.2-10h-10l8.1-25H50c-3.5,0-7,0.4-10.4,1.1L28.6,35H55.7z"/>
	</g>
</g>
</svg>
