<?xml version="1.0" encoding="utf-8"?>
<!-- Generator: Adobe Illustrator 21.0.0, SVG Export Plug-In . SVG Version: 6.00 Build 0)  -->
<svg version="1.1"
	 id="Слой_1" shape-rendering="geometricPrecision" image-rendering="optimizeQuality" text-rendering="geometricPrecision"
	 xmlns="http://www.w3.org/2000/svg" xmlns:xlink="http://www.w3.org/1999/xlink" x="0px" y="0px" viewBox="0 0 256.7 32.3"
	 style="enable-background:new 0 0 256.7 32.3;" xml:space="preserve">
<style type="text/css">
	.st0{fill:#111111;}
	.st1{fill:#FDC400;}
</style>
<path class="st0" d="M114.1,20.2h2.3v-8.1h-2.3V20.2z M109.2,12.1H107v8.1h6.2v-2h-3.9C109.2,18.3,109.2,12.1,109.2,12.1z M123.5,16
	c0.7-0.3,1.2-0.9,1.2-1.8c0-0.6-0.2-1-0.5-1.3c-0.5-0.5-1.2-0.7-2.2-0.7h-4.2v8.1h4.2c1.9,0,3.1-0.8,3.1-2.2
	C125.1,16.9,124.5,16.3,123.5,16z M120.1,13.9h1.5c0.7,0,1,0.3,1,0.7c0,0.5-0.4,0.7-1.1,0.7h-1.4L120.1,13.9L120.1,13.9z
	 M121.8,18.4h-1.7v-1.5h1.7c0.8,0,1.1,0.3,1.1,0.7C122.9,18.2,122.5,18.4,121.8,18.4z M165.1,16.4l-3.3-4.3h-2.1v8.1h2.2v-4.4
	l3.5,4.4h2v-8.1h-2.2V16.4z M153.2,12.1l-3.4,8.2h2.4l0.6-1.4h3.1l0.6,1.4h2.4l-3.4-8.2H153.2z M153.4,17l0.9-2.3l0.9,2.3H153.4z
	 M133.3,14.9c0-0.8-0.2-1.4-0.7-1.9c-0.5-0.5-1.4-0.9-2.6-0.9h-3.8v8.1h2.2v-2.5h1l1.6,2.5h2.6l-1.9-2.8
	C132.7,17,133.3,16.2,133.3,14.9z M129.9,16h-1.5v-1.9h1.5c0.8,0,1.2,0.3,1.2,1C131.1,15.6,130.6,16,129.9,16z M173.3,15.6l3.1-3.5
	h-2.7l-2.8,3.3v-3.3h-2.2v8.1h2.2v-2.1l0.8-0.9l2,3h2.7L173.3,15.6z M147.8,16c0.7-0.3,1.2-0.9,1.2-1.8c0-0.6-0.2-1-0.5-1.3
	c-0.5-0.5-1.2-0.7-2.2-0.7h-4.2v8.1h4.2c1.9,0,3.1-0.8,3.1-2.2C149.4,16.9,148.8,16.3,147.8,16z M144.4,13.9h1.5c0.7,0,1,0.3,1,0.7
	c0,0.5-0.4,0.7-1.1,0.7h-1.4L144.4,13.9L144.4,13.9z M146.1,18.4h-1.7v-1.5h1.7c0.8,0,1.1,0.3,1.1,0.7
	C147.2,18.2,146.8,18.4,146.1,18.4z M136.7,17h3.9v-1.8h-3.9V14h4.3v-1.9h-6.5v8.1h6.6v-1.9h-4.3V17z"/>
<path class="st1" d="M94.6,19.6l-0.8-2.4l-6.3,4.6l0.6-1.7L81,15l-0.8,2.4l5.1,3.7l-0.8,2.4l2.5,1.8l2-1.5L94.6,19.6z M89.6,15.3
	L92,7.9l0.6,1.7h8.8l-0.8-2.4h-6.3l-0.8-2.4h-3l-2.9,9L89.6,15.3z M89,19.3l2-1.5l-6.3-4.6l1.8,0l2.7-8.3h-2.5l-1.9,5.9l-2.5,0
	l-0.9,2.9l2,1.5L89,19.3z M96.6,14.4l-2.5,0l2.4,7.4L95,20.8L88,25.9l2,1.5l5.1-3.7l2,1.5l2.5-1.8L98.8,21L96.6,14.4z M102.7,13.8
	l-0.9-2.9l-2.5,0l-6.9,0l-0.8,2.4l7.8,0l-1.5,1.1l2.7,8.3l2-1.5l-1.9-5.9L102.7,13.8z"/>
</svg>
