<?xml version="1.0" encoding="utf-8"?>
<!-- Roman Inozemtsev: https://github.com/mir-one/  -->
<svg version="1.1"
	 id="Слой_1" shape-rendering="geometricPrecision" image-rendering="optimizeQuality" text-rendering="geometricPrecision"
	 xmlns="http://www.w3.org/2000/svg" xmlns:xlink="http://www.w3.org/1999/xlink" x="0px" y="0px" viewBox="0 0 256.7 32.2"
	 style="enable-background:new 0 0 256.7 32.2;" xml:space="preserve">
<style type="text/css">
	.st0{fill:#111111;}
	.st1{fill:#FDC400;}
</style>
<path class="st0" d="M114.3,20.7h2.3v-8.1h-2.3V20.7z M109.4,12.6h-2.2v8.1h6.2v-2h-3.9C109.4,18.8,109.4,12.6,109.4,12.6z
	 M123.6,16.5c0.7-0.3,1.2-0.9,1.2-1.8c0-0.6-0.2-1-0.5-1.3c-0.5-0.5-1.2-0.7-2.2-0.7H118v8.1h4.2c1.9,0,3.1-0.8,3.1-2.2
	C125.3,17.4,124.6,16.8,123.6,16.5z M120.2,14.4h1.5c0.7,0,1,0.3,1,0.7c0,0.5-0.4,0.7-1.1,0.7h-1.4L120.2,14.4L120.2,14.4z
	 M121.9,18.9h-1.7v-1.5h1.7c0.8,0,1.1,0.3,1.1,0.7C123,18.6,122.6,18.9,121.9,18.9z M165.2,16.9l-3.3-4.3h-2.1v8.1h2.2v-4.4l3.5,4.4
	h2v-8.1h-2.2V16.9z M153.4,12.6l-3.4,8.2h2.4l0.6-1.4h3.1l0.6,1.4h2.4l-3.4-8.2H153.4z M153.5,17.5l0.9-2.3l0.9,2.3H153.5z
	 M133.5,15.4c0-0.8-0.2-1.4-0.7-1.9c-0.5-0.5-1.4-0.9-2.6-0.9h-3.8v8.1h2.2v-2.5h1l1.6,2.5h2.6l-1.9-2.8
	C132.8,17.5,133.5,16.6,133.5,15.4z M130,16.5h-1.5v-1.9h1.5c0.8,0,1.2,0.3,1.2,1C131.2,16.1,130.8,16.5,130,16.5z M173.5,16.1
	l3.1-3.5h-2.7l-2.8,3.3v-3.3h-2.2v8.1h2.2v-2.1l0.8-0.9l2,3h2.7L173.5,16.1z M147.9,16.5c0.7-0.3,1.2-0.9,1.2-1.8
	c0-0.6-0.2-1-0.5-1.3c-0.5-0.5-1.2-0.7-2.2-0.7h-4.2v8.1h4.2c1.9,0,3.1-0.8,3.1-2.2C149.6,17.4,148.9,16.8,147.9,16.5z M144.5,14.4
	h1.5c0.7,0,1,0.3,1,0.7c0,0.5-0.4,0.7-1.1,0.7h-1.4L144.5,14.4L144.5,14.4z M146.2,18.9h-1.7v-1.5h1.7c0.8,0,1.1,0.3,1.1,0.7
	C147.3,18.6,146.9,18.9,146.2,18.9z M136.8,17.5h3.9v-1.8h-3.9v-1.2h4.3v-1.9h-6.5v8.1h6.6v-1.9h-4.3V17.5z"/>
<path class="st1" d="M94.7,20.1l-0.8-2.4l-6.3,4.6l0.6-1.7l-7.1-5.1l-0.8,2.4l5.1,3.7l-0.8,2.4l2.5,1.8l2-1.5L94.7,20.1z M89.7,15.8
	l2.4-7.4l0.6,1.7h8.8l-0.8-2.4h-6.3l-0.8-2.4h-3l-2.9,9L89.7,15.8z M89.1,19.8l2-1.5l-6.3-4.6l1.8,0l2.7-8.3h-2.5l-1.9,5.9l-2.5,0
	l-0.9,2.9l2,1.5L89.1,19.8z M96.8,14.9l-2.5,0l2.4,7.4l-1.5-1.1l-7.1,5.1l2,1.5l5.1-3.7l2,1.5l2.5-1.8l-0.8-2.4L96.8,14.9z
	 M102.8,14.3l-0.9-2.9l-2.5,0l-6.9,0l-0.8,2.4l7.8,0L98,14.8l2.7,8.3l2-1.5l-1.9-5.9L102.8,14.3z"/>
</svg>
