<?xml version="1.0" encoding="utf-8"?>
<!-- Generator: Adobe Illustrator 21.0.0, SVG Export Plug-In . SVG Version: 6.00 Build 0)  -->
<svg version="1.1"
	 id="Слой_1" shape-rendering="geometricPrecision" image-rendering="optimizeQuality" text-rendering="geometricPrecision"
	 xmlns="http://www.w3.org/2000/svg" xmlns:xlink="http://www.w3.org/1999/xlink" x="0px" y="0px" viewBox="0 0 256.7 32.2"
	 style="enable-background:new 0 0 256.7 32.2;" xml:space="preserve">
<style type="text/css">
	.st0{fill:#111111;}
	.st1{fill:#FDC400;}
</style>
<path class="st0" d="M118.3,21.7h2.3v-8.1h-2.3V21.7z M113.4,13.6h-2.2v8.1h6.2v-2h-3.9C113.4,19.8,113.4,13.6,113.4,13.6z
	 M127.6,17.5c0.7-0.3,1.2-0.9,1.2-1.8c0-0.6-0.2-1-0.5-1.3c-0.5-0.5-1.2-0.7-2.2-0.7H122v8.1h4.2c1.9,0,3.1-0.8,3.1-2.2
	C129.3,18.4,128.6,17.8,127.6,17.5z M124.2,15.4h1.5c0.7,0,1,0.3,1,0.7c0,0.5-0.4,0.7-1.1,0.7h-1.4L124.2,15.4L124.2,15.4z
	 M125.9,19.9h-1.7v-1.5h1.7c0.8,0,1.1,0.3,1.1,0.7C127,19.6,126.6,19.9,125.9,19.9z M169.2,17.9l-3.3-4.3h-2.1v8.1h2.2v-4.4l3.5,4.4
	h2v-8.1h-2.2V17.9z M157.4,13.6l-3.4,8.2h2.4l0.6-1.4h3.1l0.6,1.4h2.4l-3.4-8.2H157.4z M157.5,18.5l0.9-2.3l0.9,2.3H157.5z
	 M137.5,16.4c0-0.8-0.2-1.4-0.7-1.9c-0.5-0.5-1.4-0.9-2.6-0.9h-3.8v8.1h2.2v-2.5h1l1.6,2.5h2.6l-1.9-2.8
	C136.8,18.5,137.5,17.6,137.5,16.4z M134,17.5h-1.5v-1.9h1.5c0.8,0,1.2,0.3,1.2,1C135.2,17.1,134.8,17.5,134,17.5z M177.5,17.1
	l3.1-3.5h-2.7l-2.8,3.3v-3.3h-2.2v8.1h2.2v-2.1l0.8-0.9l2,3h2.7L177.5,17.1z M151.9,17.5c0.7-0.3,1.2-0.9,1.2-1.8
	c0-0.6-0.2-1-0.5-1.3c-0.5-0.5-1.2-0.7-2.2-0.7h-4.2v8.1h4.2c1.9,0,3.1-0.8,3.1-2.2C153.6,18.4,152.9,17.8,151.9,17.5z M148.5,15.4
	h1.5c0.7,0,1,0.3,1,0.7c0,0.5-0.4,0.7-1.1,0.7h-1.4L148.5,15.4L148.5,15.4z M150.2,19.9h-1.7v-1.5h1.7c0.8,0,1.1,0.3,1.1,0.7
	C151.3,19.6,150.9,19.9,150.2,19.9z M140.8,18.5h3.9v-1.8h-3.9v-1.2h4.3v-1.9h-6.5v8.1h6.6v-1.9h-4.3V18.5z"/>
<path class="st1" d="M98.7,21.1l-0.8-2.4l-6.3,4.6l0.6-1.7l-7.1-5.1l-0.8,2.4l5.1,3.7l-0.8,2.4l2.5,1.8l2-1.5L98.7,21.1z M93.7,16.8
	l2.4-7.4l0.6,1.7h8.8l-0.8-2.4h-6.3l-0.8-2.4h-3l-2.9,9L93.7,16.8z M93.1,20.8l2-1.5l-6.3-4.6l1.8,0l2.7-8.3h-2.5l-1.9,5.9l-2.5,0
	l-0.9,2.9l2,1.5L93.1,20.8z M100.8,15.9l-2.5,0l2.4,7.4l-1.5-1.1l-7.1,5.1l2,1.5l5.1-3.7l2,1.5l2.5-1.8l-0.8-2.4L100.8,15.9z
	 M106.8,15.3l-0.9-2.9l-2.5,0l-6.9,0l-0.8,2.4l7.8,0l-1.5,1.1l2.7,8.3l2-1.5l-1.9-5.9L106.8,15.3z"/>
</svg>
