<?xml version="1.0" encoding="utf-8"?>
<!-- Generator: Adobe Illustrator 21.0.0, SVG Export Plug-In . SVG Version: 6.00 Build 0)  -->
<svg version="1.1"
	 id="Слой_1" shape-rendering="geometricPrecision" image-rendering="optimizeQuality" text-rendering="geometricPrecision"
	 xmlns="http://www.w3.org/2000/svg" xmlns:xlink="http://www.w3.org/1999/xlink" x="0px" y="0px" viewBox="0 0 234 118"
	 style="enable-background:new 0 0 234 118;" xml:space="preserve">
<style type="text/css">
	.st0{fill:#F9BC15;}
	.st1{fill:#111111;}
</style>
<g id="Canvas">
	<g id="path38">
		<path id="path0_fill" class="st0" d="M101.1,53.5L80.3,38.4C80.3,42,80.9,45.6,82,49l16.6,12L101.1,53.5z M107,74
			c3.4,1.1,7,1.6,10.6,1.7l16.6-12.1l-6.4-4.7L107,74z M108,44.5l-2.4,7.6l6.1,4.5L95.6,68.2c0.1,0.1,0.2,0.2,0.3,0.2
			c2.1,1.6,4.4,2.9,6.8,3.9l21.8-15.8L108,44.5z M141.1,35.2l7.9,24.4c2.1-2.9,3.7-6.2,4.8-9.6l-6.4-19.6L141.1,35.2z M121.3,49.5
			l6.4,4.7l6.1-4.5l6.1,18.9l0.3-0.2c2.1-1.5,4.1-3.3,5.9-5.3l-8.3-25.7L121.3,49.5z M108.6,30.3h-7.9l-2.3,7.2L82.3,25.8
			c0,0.1-0.1,0.2-0.1,0.3c-0.8,2.5-1.4,5.1-1.6,7.7l21.8,15.8L108.6,30.3z M148.3,15.1c-2.2-2.9-4.7-5.4-7.6-7.5h-20.5l2.4,7.5
			H148.3z M130.2,38.4l6.4-4.6l-2.3-7.2h19.9l-0.1-0.3c-0.8-2.5-1.9-4.9-3.2-7.2h-27L130.2,38.4z M105.9,2.1
			c-3.4,1.2-6.6,2.8-9.5,4.9L90,26.6h7.9L105.9,2.1z M122.4,26.6L120,19h-7.6l6.1-18.9h-0.4c-2.6,0-5.3,0.3-7.9,0.8l-8.3,25.6H122.4
			z"/>
	</g>
</g>
<g id="Canvas-2">
	<g id="path34">
		<path id="path0_fill-2" class="st1" d="M100,107.3h13.1v-6H100v-4.1h14.4v-6.4H92.6V118h22.1v-6.4H100V107.3z M131.7,112h-5.8v-5
			h5.8c2.5,0,3.7,1,3.7,2.4C135.3,111.1,134,112,131.7,112z M125.8,96.9h4.9c2.3,0,3.4,0.9,3.4,2.3c0,1.7-1.3,2.4-3.6,2.4h-4.8
			L125.8,96.9z M137.4,103.8c2.5-0.9,4.2-3.3,4.2-6c0.1-1.7-0.6-3.3-1.7-4.5c-1.6-1.6-4-2.4-7.4-2.4h-14V118h14
			c6.5,0,10.3-2.8,10.3-7.5C142.8,106.8,140.7,104.9,137.4,103.8L137.4,103.8z M223.4,102.5l10.3-11.7h-9l-9.4,11V90.8h-7.5V118h7.5
			v-7l2.8-3.1l6.8,10.1h9.1L223.4,102.5z M77.1,103.9h-5v-6.5H77c2.5,0,4.1,1.1,4.1,3.2C81.1,102.7,79.6,103.9,77.1,103.9
			L77.1,103.9z M88.7,100.2c0.1-2.4-0.7-4.7-2.4-6.5c-1.8-1.8-4.7-2.9-8.9-2.9H64.5V118h7.6v-8.3h3.3l5.5,8.3h8.7l-6.5-9.5
			C86.6,107.2,88.8,103.9,88.7,100.2L88.7,100.2z M156.2,107.3l3.1-7.7l3,7.7H156.2z M155.7,90.6L144.1,118h7.9l1.9-4.8h10.5l2,4.8
			h8.1L163,90.6L155.7,90.6z M195.5,105.2l-11.2-14.4h-7V118h7.5v-14.9l11.6,14.9h6.6V90.8h-7.5L195.5,105.2z M49.9,112h-5.8v-5h5.8
			c2.5,0,3.7,1,3.7,2.4C53.5,111.1,52.2,112,49.9,112L49.9,112z M44.1,96.9H49c2.3,0,3.4,0.9,3.4,2.3c0,1.7-1.3,2.4-3.6,2.4H44
			L44.1,96.9z M55.6,103.8c2.6-0.9,4.2-3.3,4.2-6c0.1-1.7-0.6-3.3-1.8-4.5c-1.6-1.6-4-2.4-7.4-2.4h-14V118h14.1
			c6.5,0,10.3-2.8,10.3-7.5C61.1,106.8,59,104.9,55.6,103.8L55.6,103.8z M7.5,90.8H0V118h20.7v-6.6H7.5L7.5,90.8z M24.1,118h7.6
			V90.8h-7.6V118z"/>
	</g>
</g>
</svg>
