<?xml version="1.0" encoding="utf-8"?>
<!-- Generator: Adobe Illustrator 21.0.0, SVG Export Plug-In . SVG Version: 6.00 Build 0)  -->
<svg version="1.1"
	 id="Слой_1" shape-rendering="geometricPrecision" image-rendering="optimizeQuality" text-rendering="geometricPrecision"
	 xmlns="http://www.w3.org/2000/svg" xmlns:xlink="http://www.w3.org/1999/xlink" x="0px" y="0px" viewBox="0 0 236 118.9"
	 style="enable-background:new 0 0 236 118.9;" xml:space="preserve">
<style type="text/css">
	.st0{fill:#F9BC15;}
	.st1{fill:#FFFFFF;}
</style>
<g id="Canvas">
	<g id="path38">
		<path id="path0_fill" class="st0" d="M102.2,53.9l-21-15.2c0.1,3.6,0.6,7.2,1.7,10.7l16.8,12.1L102.2,53.9z M108.1,74.5
			c3.5,1.1,7.1,1.6,10.7,1.7L135.5,64l-6.5-4.7L108.1,74.5z M109.1,44.8l-2.4,7.6l6.2,4.5L96.7,68.7c0.1,0.1,0.2,0.2,0.3,0.2
			c2.2,1.6,4.5,2.9,6.9,4l22-16L109.1,44.8z M142.5,35.4l8,24.6c2.1-3,3.7-6.2,4.9-9.6L149,30.7L142.5,35.4z M122.6,49.9l6.5,4.7
			l6.2-4.5l6.2,19.1l0.3-0.2c2.2-1.6,4.1-3.3,5.9-5.3l-8.4-25.9L122.6,49.9z M109.8,30.5h-8l-2.4,7.3L83.2,25.9
			c0,0.1-0.1,0.2-0.1,0.3c-0.8,2.5-1.4,5.2-1.6,7.8l22,16L109.8,30.5z M149.8,15.2c-2.2-2.9-4.8-5.4-7.6-7.6h-20.7l2.4,7.6H149.8z
			 M131.5,38.6L138,34l-2.4-7.3h20l-0.1-0.4c-0.8-2.5-1.9-5-3.3-7.3h-27.2L131.5,38.6z M107,2c-3.4,1.2-6.7,2.8-9.6,4.9L91,26.7h8
			L107,2z M123.6,26.7l-2.4-7.6h-7.7L119.7,0h-0.4c-2.7,0-5.3,0.3-7.9,0.8L103,26.7H123.6z"/>
	</g>
</g>
<g id="Canvas-2">
	<g id="path34">
		<path id="path0_fill-2" class="st1" d="M101.1,108.2h13.2v-6.1h-13.2v-4.2h14.6v-6.4H93.6v27.4h22.3v-6.4h-14.8V108.2z M133,112.9
			h-5.9v-5.1h5.8c2.5,0,3.7,1,3.7,2.4C136.7,112,135.3,112.9,133,112.9z M127.1,97.7h4.9c2.3,0,3.5,0.9,3.5,2.4
			c0,1.7-1.3,2.4-3.6,2.4H127L127.1,97.7z M138.8,104.6c2.6-0.9,4.3-3.3,4.2-6.1c0.1-1.7-0.6-3.3-1.8-4.5c-1.6-1.6-4.1-2.4-7.5-2.4
			h-14.1v27.3h14.2c6.6,0,10.4-2.9,10.4-7.6C144.3,107.6,142.2,105.7,138.8,104.6L138.8,104.6z M225.5,103.3l10.4-11.8h-9l-9.5,11.1
			V91.5h-7.6v27.4h7.6v-7.1l2.8-3.1l6.9,10.2h9.2L225.5,103.3z M77.9,104.7h-5v-6.6h5c2.5,0,4.1,1.1,4.1,3.3
			C82.1,103.5,80.5,104.7,77.9,104.7L77.9,104.7z M89.7,101c0.1-2.4-0.8-4.8-2.4-6.5c-1.8-1.9-4.8-2.9-9-2.9h-13v27.4h7.6v-8.3h3.3
			l5.5,8.3h8.8l-6.6-9.6C87.5,108.1,89.8,104.7,89.7,101L89.7,101z M157.8,108.2l3.1-7.8l3.1,7.8H157.8z M157.3,91.3l-11.7,27.6h8
			l2-4.9h10.6l2,4.9h8.2l-11.7-27.7L157.3,91.3z M197.4,106.1l-11.3-14.6H179v27.5h7.5v-15l11.7,15h6.7V91.5h-7.5L197.4,106.1z
			 M50.5,112.9h-5.9v-5.1h5.8c2.5,0,3.7,1,3.7,2.4C54.2,112,52.9,112.9,50.5,112.9L50.5,112.9z M44.7,97.7h4.9
			c2.3,0,3.5,0.9,3.5,2.4c0,1.7-1.3,2.4-3.6,2.4h-4.8L44.7,97.7z M56.3,104.6c2.6-0.9,4.3-3.3,4.2-6.1c0.1-1.7-0.6-3.3-1.8-4.5
			c-1.6-1.6-4-2.4-7.5-2.4H37.2v27.3h14.2c6.6,0,10.4-2.9,10.4-7.6C61.8,107.6,59.7,105.7,56.3,104.6L56.3,104.6z M7.8,91.5H0.2
			v27.4h20.9v-6.7H7.8L7.8,91.5z M24.6,118.9h7.6V91.5h-7.6V118.9z"/>
	</g>
</g>
</svg>
