<?xml version="1.0" encoding="utf-8"?>
<!-- Generator: Adobe Illustrator 21.0.0, SVG Export Plug-In . SVG Version: 6.00 Build 0)  -->
<svg version="1.1"
	 id="Слой_1" shape-rendering="geometricPrecision" image-rendering="optimizeQuality" text-rendering="geometricPrecision"
	 xmlns="http://www.w3.org/2000/svg" xmlns:xlink="http://www.w3.org/1999/xlink" x="0px" y="0px" viewBox="0 0 234 155.1"
	 style="enable-background:new 0 0 234 155.1;" xml:space="preserve">
<style type="text/css">
	.st0{fill:#F9BC15;}
	.st1{fill:#111111;}
</style>
<g id="Canvas">
	<g id="path38">
		<path id="path0_fill" class="st0" d="M92.5,81.1L60.9,58.1c0,5.5,0.9,10.9,2.6,16.1l25.2,18.2L92.5,81.1z M101.4,112.2
			c5.2,1.7,10.6,2.4,16.1,2.6l25.2-18.4l-9.7-7.1L101.4,112.2z M103,67.4l-3.6,11.5l9.3,6.8l-24.4,17.6c0.2,0.2,0.3,0.3,0.5,0.3
			c3.2,2.4,6.7,4.4,10.3,5.9l33.1-24L103,67.4z M153.2,53.3l12,37c3.2-4.4,5.6-9.4,7.3-14.6L162.8,46L153.2,53.3z M123.1,75l9.7,7.1
			l9.3-6.8l9.3,28.7l0.5-0.3c3.2-2.3,6.2-5,9-8l-12.6-39L123.1,75z M103.9,45.9h-12l-3.5,10.9L63.9,39c0,0.2-0.2,0.3-0.2,0.5
			c-1.2,3.8-2.1,7.7-2.4,11.7l33.1,24L103.9,45.9z M164.1,22.8c-3.3-4.4-7.1-8.2-11.5-11.4h-31.1l3.6,11.4H164.1z M136.7,58.1l9.7-7
			l-3.5-10.9h30.2l-0.2-0.5c-1.2-3.8-2.9-7.4-4.9-10.9h-41L136.7,58.1z M99.8,3c-5.2,1.8-10,4.3-14.4,7.4l-9.7,29.8h12L99.8,3z
			 M124.8,40.2l-3.6-11.5h-11.5L118.9,0h-0.6c-3.9,0-8,0.5-12,1.2L93.7,40.1h31.1V40.2z"/>
	</g>
</g>
<g id="Canvas-2">
	<g id="path34">
		<path id="path0_fill-2" class="st1" d="M100,144.4h13.1v-6H100v-4.1h14.4v-6.4H92.6v27.2h22.1v-6.4H100V144.4z M131.7,149.1h-5.8
			v-5h5.8c2.5,0,3.7,1,3.7,2.4C135.3,148.2,134,149.1,131.7,149.1z M125.8,134h4.9c2.3,0,3.4,0.9,3.4,2.3c0,1.7-1.3,2.4-3.6,2.4
			h-4.8L125.8,134z M137.4,140.9c2.5-0.9,4.2-3.3,4.2-6c0.1-1.7-0.6-3.3-1.7-4.5c-1.6-1.6-4-2.4-7.4-2.4h-14v27.1h14
			c6.5,0,10.3-2.8,10.3-7.5C142.8,143.9,140.7,142,137.4,140.9L137.4,140.9z M223.4,139.6l10.3-11.7h-9l-9.4,11v-11h-7.5v27.2h7.5
			v-7l2.8-3.1l6.8,10.1h9.1L223.4,139.6z M77.1,141h-5v-6.5H77c2.5,0,4.1,1.1,4.1,3.2C81.1,139.8,79.6,141,77.1,141L77.1,141z
			 M88.7,137.3c0.1-2.4-0.7-4.7-2.4-6.5c-1.8-1.8-4.7-2.9-8.9-2.9H64.5v27.2h7.6v-8.3h3.3l5.5,8.3h8.7l-6.5-9.5
			C86.6,144.3,88.8,141,88.7,137.3L88.7,137.3z M156.2,144.4l3.1-7.7l3,7.7H156.2z M155.7,127.7l-11.6,27.4h7.9l1.9-4.8h10.5l2,4.8
			h8.1L163,127.7H155.7z M195.5,142.3l-11.2-14.4h-7v27.2h7.5v-14.9l11.6,14.9h6.6v-27.2h-7.5L195.5,142.3z M49.9,149.1h-5.8v-5h5.8
			c2.5,0,3.7,1,3.7,2.4C53.5,148.2,52.2,149.1,49.9,149.1L49.9,149.1z M44.1,134H49c2.3,0,3.4,0.9,3.4,2.3c0,1.7-1.3,2.4-3.6,2.4H44
			L44.1,134z M55.6,140.9c2.6-0.9,4.2-3.3,4.2-6c0.1-1.7-0.6-3.3-1.8-4.5c-1.6-1.6-4-2.4-7.4-2.4h-14v27.1h14.1
			c6.5,0,10.3-2.8,10.3-7.5C61.1,143.9,59,142,55.6,140.9L55.6,140.9z M7.5,127.9H0v27.2h20.7v-6.6H7.5V127.9z M24.1,155.1h7.6
			v-27.2h-7.6V155.1z"/>
	</g>
</g>
</svg>
