<?xml version="1.0" encoding="utf-8"?>
<!-- Generator: Adobe Illustrator 21.0.0, SVG Export Plug-In . SVG Version: 6.00 Build 0)  -->
<svg version="1.1"
	 id="Слой_1" shape-rendering="geometricPrecision" text-rendering="geometricPrecision" image-rendering="optimizeQuality"
	 xmlns="http://www.w3.org/2000/svg" xmlns:xlink="http://www.w3.org/1999/xlink" x="0px" y="0px" viewBox="0 0 123 42.3"
	 style="enable-background:new 0 0 123 42.3;" xml:space="preserve">
<style type="text/css">
	.st0{fill:#454545;}
</style>
<polygon class="st0" points="25.4,36 25.4,40.1 25.4,40.5 25,40.5 3.9,40.5 3.5,40.5 3.5,40.1 3.5,6.4 3.5,6 3.9,6 8.8,6 9.3,6 
	9.3,6.4 9.3,35.6 25,35.6 25.4,35.6 "/>
<polygon class="st0" points="35.7,40.5 31,40.5 30.5,40.5 30.5,40.1 30.5,14.8 30.5,14.4 31,14.4 35.7,14.4 36.1,14.4 36.1,14.8 
	36.1,40.1 36.1,40.5 "/>
<path class="st0" d="M33.3,10.7c-0.5,0-0.9-0.1-1.3-0.2c-0.4-0.2-0.8-0.4-1.1-0.7c-0.7-0.6-1-1.4-1-2.5s0.3-1.9,1-2.5
	c0.3-0.3,0.7-0.5,1.1-0.7c0.4-0.2,0.9-0.2,1.3-0.2s0.9,0.1,1.3,0.2c0.4,0.2,0.8,0.4,1.1,0.7c0.4,0.3,0.6,0.7,0.8,1.1
	s0.2,0.9,0.2,1.4c0,1-0.3,1.9-1,2.5c-0.3,0.3-0.7,0.5-1.1,0.7C34.2,10.6,33.8,10.7,33.3,10.7L33.3,10.7z"/>
<path class="st0" d="M85.4,13.8c0.2,0,0.4,0,0.7,0c0.2,0,0.5,0,0.8,0.1c0.3,0,0.5,0.1,0.8,0.1s0.5,0.1,0.8,0.1
	c0.2,0,0.5,0.1,0.7,0.1c0.3,0.1,0.5,0.1,0.7,0.1s0.4,0.1,0.6,0.1s0.3,0.1,0.4,0.1l0.4,0.1L91.2,15l-0.9,4l-0.1,0.5l-0.5-0.2
	c-0.2-0.1-0.4-0.1-0.7-0.2s-0.6-0.2-1.1-0.2c-0.4-0.1-0.9-0.1-1.4-0.2c-0.5,0-1.1-0.1-1.8-0.1c-0.8,0-1.7,0.1-2.5,0.3
	c-0.5,0.1-0.8,0.2-1.1,0.2l0,0l-0.3,0.1v20.9v0.4h-0.4h-4.7h-0.4v-0.4V15.9v-0.3l0.3-0.1c1.1-0.4,2.5-0.8,4.2-1.1
	c0.8-0.2,1.7-0.3,2.7-0.4C83.4,13.9,84.4,13.8,85.4,13.8L85.4,13.8z"/>
<path class="st0" d="M67.6,22c-0.5-1.7-1.3-3.1-2.4-4.3c-0.5-0.6-1.1-1.1-1.8-1.6c-0.6-0.5-1.4-0.9-2.1-1.2
	c-0.8-0.3-1.6-0.6-2.5-0.8S57,13.9,56,13.9c-0.8,0-1.5,0.1-2.2,0.2c-0.7,0.1-1.3,0.2-1.9,0.5c-0.8,0.3-1.5,0.5-2,0.8v-13V1.9L49.5,2
	l-4.7,0.8l-0.4,0.1v0.4v36.2v0.3l0.3,0.1c0.5,0.1,1.2,0.3,1.9,0.4c0.7,0.1,1.5,0.3,2.3,0.4c0.9,0.1,1.8,0.3,2.8,0.3
	c1,0.1,2,0.1,3.1,0.1c1,0,2-0.1,2.9-0.2c0.9-0.2,1.8-0.4,2.7-0.7c0.8-0.3,1.6-0.7,2.3-1.2s1.4-1,2-1.6s1.1-1.2,1.6-2
	c0.5-0.7,0.8-1.5,1.2-2.4c0.3-0.8,0.6-1.7,0.7-2.7c0.2-0.9,0.2-1.9,0.2-3c0-1-0.1-1.9-0.2-2.9C68.1,23.7,67.9,22.8,67.6,22z
	 M62.1,31.2c-0.4,1.1-0.9,2-1.6,2.8c-1.4,1.5-3.3,2.3-5.7,2.3c-0.6,0-1.2,0-1.7,0s-1-0.1-1.4-0.1c-0.4-0.1-0.8-0.1-1.1-0.2
	c-0.2,0-0.3-0.1-0.5-0.1l0,0V20.4c0.2-0.2,0.5-0.3,0.8-0.5c0.4-0.2,0.9-0.4,1.4-0.6s1-0.4,1.6-0.5c0.5-0.1,1.1-0.2,1.8-0.2
	c0.6,0,1.2,0.1,1.8,0.2c0.5,0.1,1,0.3,1.5,0.5c0.4,0.2,0.8,0.5,1.2,0.8s0.7,0.6,1,1s0.5,0.8,0.7,1.3s0.4,1,0.5,1.5
	c0.1,0.6,0.2,1.1,0.3,1.7s0.1,1.2,0.1,1.8C62.6,28.9,62.5,30.2,62.1,31.2z"/>
<path class="st0" d="M115.3,17.1c-1-1.1-2.2-1.9-3.6-2.5c-1.4-0.5-3-0.8-4.8-0.8c-0.8,0-1.6,0.1-2.3,0.2c-0.8,0.2-1.5,0.4-2.3,0.6
	c-0.8,0.3-1.5,0.6-2.1,1.1c-0.7,0.4-1.3,0.9-1.9,1.5s-1.1,1.2-1.6,1.9c-0.5,0.7-0.9,1.5-1.2,2.4c-0.4,0.9-0.6,1.8-0.8,2.8
	c-0.2,1-0.3,2-0.3,3.2c0,1.9,0.3,3.7,0.8,5.4c0.3,0.8,0.6,1.6,1,2.3s0.9,1.4,1.5,2s1.2,1.2,1.9,1.6c0.7,0.5,1.5,0.9,2.4,1.2
	c0.9,0.4,1.8,0.6,2.8,0.8s2.1,0.3,3.3,0.3c0.9,0,1.8,0,2.6-0.1c0.8-0.1,1.6-0.2,2.4-0.4c0.7-0.2,1.3-0.3,1.9-0.5
	c0.5-0.2,0.9-0.3,1.2-0.5l0.3-0.1l-0.1-0.3l-0.6-3.8l-0.1-0.6l-0.5,0.2c-0.3,0.1-0.6,0.2-1,0.4c-0.4,0.1-0.9,0.3-1.5,0.4
	c-0.5,0.1-1.2,0.2-1.8,0.3c-0.7,0.1-1.4,0.1-2.2,0.1c-2.8,0-4.8-0.6-6.1-1.9c-0.6-0.6-1.2-1.4-1.5-2.4c-0.3-0.8-0.5-1.8-0.7-2.9
	h17.5h0.4l0.1-0.4c0-0.1,0-0.3,0-0.4c0-0.2,0-0.3,0-0.5V27c0-2.2-0.2-4.1-0.7-5.8C117,19.6,116.3,18.2,115.3,17.1z M112.4,24.6
	h-12.1c0-0.3,0.1-0.5,0.2-0.8c0.1-0.4,0.2-0.8,0.4-1.2c0.2-0.4,0.3-0.8,0.5-1.1c0.2-0.4,0.5-0.7,0.7-1c0.3-0.3,0.6-0.6,0.9-0.8
	c0.3-0.2,0.7-0.5,1.1-0.6c0.4-0.2,0.8-0.3,1.2-0.4c0.4-0.1,0.9-0.1,1.4-0.1c0.9,0,1.7,0.2,2.4,0.5c0.7,0.3,1.3,0.8,1.8,1.4
	s0.9,1.3,1.1,2.1C112.3,23,112.4,23.8,112.4,24.6L112.4,24.6z"/>
<path class="st0" d="M94.4,27.5L94.4,27.5C94.4,27.4,94.4,27.4,94.4,27.5L94.4,27.5z"/>
</svg>
