<?xml version="1.0" encoding="utf-8"?>
<!-- Generator: Adobe Illustrator 21.0.0, SVG Export Plug-In . SVG Version: 6.00 Build 0)  -->
<svg version="1.1" id="Слой_1" xmlns="http://www.w3.org/2000/svg" xmlns:xlink="http://www.w3.org/1999/xlink" x="0px" y="0px"
	 viewBox="0 0 67 67" style="enable-background:new 0 0 67 67;" xml:space="preserve">
<style type="text/css">
	.st0{fill:#3E58A6;}
	.st1{fill:none;}
	.st2{fill:#2B388F;}
	.st3{fill:#FFFFFF;}
	.st4{fill:#424242;}
	.st5{fill:#F9BC15;}
</style>
<path class="st0" d="M54.1,13c-11.3-11.3-29.7-11.3-41,0s-11.3,29.7,0,41c5.4,5.4,12.5,8.2,19.6,8.5c7.7,0.2,15.5-2.6,21.4-8.5
	c5.3-5.3,8.1-12.2,8.4-19.2C62.9,27,60.1,19,54.1,13z"/>
<path class="st1" d="M33.6,2.6C16.5,2.6,2.7,16.4,2.7,33.5c0,17,13.7,30.8,30.6,30.9L15.9,47V33.9v-1l8.8-13.1l6.4,6.3l7-13l6.6,6.7
	h6.7L64.6,33C64.2,16.1,50.5,2.6,33.6,2.6z"/>
<path class="st0" d="M2.7,33.5c0-17.1,13.9-30.9,30.9-30.9c16.9,0,30.6,13.5,30.9,30.3l2.5,2.5c0-0.6,0.1-1.2,0.1-1.8
	C67.1,15,52.1,0,33.6,0S0.1,15,0.1,33.5S15.1,67,33.6,67c0.7,0,1.5,0,2.2-0.1l-2.5-2.5C16.3,64.3,2.7,50.5,2.7,33.5z"/>
<path class="st2" d="M38.6,16.6l-4.8-4.2l-5.4,2.7l-1.7-1.6l-8.9,13.8l5.1,4.8l-10.5-0.7l8.8,9l-8-0.5l10.5,11.3l-2.6-0.3l12.1,13.5
	c0.1,0,0.2,0,0.3,0c0.3,0,0.7,0,1-0.1c15.6-0.5,28.2-12.5,29.8-27.7c0.1-1,0.2-2.1,0.2-3.2c0-0.2,0-0.4,0-0.6L46.4,16.6H38.6z"/>
<path class="st2" d="M66.6,38.9c0.2-1.2,0.3-2.3,0.4-3.5l-2.5-2.5c0,0.2,0,0.4,0,0.6c0,1.1-0.1,2.1-0.2,3.2
	C62.8,52,50.1,63.9,34.5,64.4c-0.3,0-0.7,0.1-1,0.1c-0.1,0-0.2,0-0.3,0l2.5,2.5c0.4,0,0.8-0.1,1.3-0.1
	C52.1,65.3,64.2,53.7,66.6,38.9z"/>
<path class="st3" d="M33.6,2.6C16.5,2.6,2.7,16.4,2.7,33.5s13.9,30.9,30.9,30.9c0.3,0,0.7,0,1-0.1c15.6-0.5,28.2-12.5,29.8-27.7
	c0.1-1,0.2-2.1,0.2-3.2C64.5,16.4,50.7,2.6,33.6,2.6z M54.1,54c-5.9,5.9-13.7,8.7-21.4,8.5c-7.1-0.2-14.2-3-19.6-8.5
	c-11.3-11.3-11.3-29.7,0-41s29.7-11.3,41,0c6,6,8.8,14,8.4,21.8C62.2,41.8,59.4,48.7,54.1,54z"/>
<g id="Canvas_3_">
	<g id="path38_3_">
		<path id="path0_fill_3_" class="st4" d="M24.8,43.4l-11.7-8.5c0,2,0.4,4,1,6l9.4,6.8L24.8,43.4z M28.1,54.9c1.9,0.6,3.9,0.9,6,0.9
			l9.4-6.8l-3.6-2.6L28.1,54.9z M28.6,38.3l-1.4,4.3l3.5,2.5l-9.1,6.6c0.1,0,0.1,0.1,0.2,0.1c1.2,0.9,2.5,1.6,3.9,2.2L38,45.1
			L28.6,38.3z M47.3,33.1l4.5,13.8c1.2-1.7,2.1-3.5,2.7-5.4l-3.6-11L47.3,33.1z M36.2,41.1l3.6,2.6l3.5-2.5l3.5,10.6l0.2-0.1
			c1.2-0.9,2.3-1.9,3.3-3l-4.7-14.5L36.2,41.1z M29,30.3h-4.5l-1.3,4.1l-9.1-6.6c0,0.1,0,0.1-0.1,0.2c-0.5,1.4-0.8,2.9-0.9,4.4
			l12.3,8.9L29,30.3z M51.4,21.8c-1.2-1.6-2.7-3-4.3-4.2H35.6l1.4,4.2H51.4z M41.2,34.9l3.6-2.6l-1.3-4.1h11.2L54.6,28
			c-0.5-1.4-1.1-2.8-1.8-4.1H37.6L41.2,34.9z M27.5,14.4c-1.9,0.7-3.7,1.6-5.4,2.7l-3.6,11H23L27.5,14.4z M36.8,28.2l-1.4-4.3h-4.3
			l3.4-10.6h-0.2c-1.5,0-3,0.2-4.4,0.5l-4.7,14.4H36.8z"/>
	</g>
</g>
<g id="Canvas_2_">
	<g id="path38_2_">
		<path id="path0_fill_2_" class="st5" d="M24,42.5L12.3,34c0,2,0.4,4,1,6l9.4,6.8L24,42.5z M27.3,54c1.9,0.6,3.9,0.9,6,0.9l9.4-6.8
			L39,45.5L27.3,54z M27.9,37.4l-1.4,4.3l3.5,2.5L21,50.8c0.1,0,0.1,0.1,0.2,0.1c1.2,0.9,2.5,1.6,3.9,2.2l12.3-8.9L27.9,37.4z
			 M46.6,32.2L51,45.9c1.2-1.7,2.1-3.5,2.7-5.4l-3.6-11L46.6,32.2z M35.4,40.3l3.6,2.6l3.5-2.5L46,51l0.2-0.1c1.2-0.9,2.3-1.9,3.3-3
			l-4.7-14.5L35.4,40.3z M28.3,29.4h-4.5l-1.3,4.1l-9.1-6.6c0,0.1,0,0.1-0.1,0.2c-0.5,1.4-0.8,2.9-0.9,4.4l12.3,8.9L28.3,29.4z
			 M50.6,20.9c-1.2-1.6-2.7-3-4.3-4.2H34.8l1.4,4.2H50.6z M40.4,34l3.6-2.6l-1.3-4.1h11.2l-0.1-0.2c-0.5-1.4-1.1-2.8-1.8-4.1H36.9
			L40.4,34z M26.7,13.5c-1.9,0.7-3.7,1.6-5.4,2.7l-3.6,11h4.5L26.7,13.5z M36,27.3l-1.4-4.3h-4.3l3.4-10.6h-0.2
			c-1.5,0-3,0.2-4.4,0.5l-4.7,14.4H36z"/>
	</g>
</g>
</svg>
