<?xml version="1.0" encoding="UTF-8" standalone="no"?>
<!-- Roman Inozemtsev: https://github.com/mir-one/  -->

<svg version="1.1" id="Слой_1" shape-rendering="geometricPrecision" text-rendering="geometricPrecision" image-rendering="optimizeQuality" x="0px" y="0px" viewBox="0 0 249.99999 29.999999" xml:space="preserve" sodipodi:docname="modal-header.svg" width="250" height="30" inkscape:version="1.1.1 (3bf5ae0d25, 2021-09-20)" xmlns:inkscape="http://www.inkscape.org/namespaces/inkscape" xmlns:sodipodi="http://sodipodi.sourceforge.net/DTD/sodipodi-0.dtd" xmlns="http://www.w3.org/2000/svg" xmlns:svg="http://www.w3.org/2000/svg"><defs id="defs63"><rect x="20.148529" y="-26.154341" width="203.22893" height="58.895702" id="rect7702" /></defs><sodipodi:namedview id="namedview61" pagecolor="#505050" bordercolor="#ffffff" borderopacity="1" inkscape:pageshadow="0" inkscape:pageopacity="0" inkscape:pagecheckerboard="1" showgrid="false" inkscape:zoom="5.1616671" inkscape:cx="106.65159" inkscape:cy="15.595737" inkscape:window-width="1920" inkscape:window-height="991" inkscape:window-x="-9" inkscape:window-y="-9" inkscape:window-maximized="1" inkscape:current-layer="g58" />
<style type="text/css" id="style2">
	.st0{fill:#2BB673;}
</style>
<g id="g58" transform="translate(9.301671,-0.61261058)">
	
	
	
	
	
	
	
	
	
	
	
	
	
	
	
	
	
	
	
	
	
	
	
	
	
	
	
<path id="rect16068" style="fill:#1a1a1a;fill-rule:evenodd;stroke-width:18.0833;stroke-linecap:round;stroke-linejoin:round;paint-order:markers stroke fill;stop-color:#000000" d="M -9.301671,0.61261058 H 240.69833 V 30.612611 H -9.301671 Z" /><g aria-label="Родовая Финансовая Система" transform="translate(0,34)" id="text7700" style="font-size:13.3333px;line-height:1.25;font-family:Roboto;-inkscape-font-specification:Roboto;white-space:pre;shape-inside:url(#rect7702);fill:#ffffff"><path d="m 22.498692,-18.198588 v 3.710928 h -1.249997 v -9.479142 h 3.496085 q 1.555986,0 2.43489,0.794268 0.885414,0.794269 0.885414,2.10286 0,1.380205 -0.865883,2.128901 -0.859373,0.742185 -2.467442,0.742185 z m 0,-1.022133 h 2.246088 q 1.002602,0 1.536455,-0.468748 0.533852,-0.47526 0.533852,-1.367185 0,-0.846352 -0.533852,-1.354163 -0.533853,-0.507811 -1.464841,-0.527342 h -2.317702 z" id="path16245" /><path d="m 29.067686,-18.07489 q 0,-1.035154 0.403645,-1.861975 0.410155,-0.82682 1.13281,-1.276038 0.729164,-0.449218 1.660152,-0.449218 1.438798,0 2.324213,0.996092 0.891924,0.996091 0.891924,2.649732 v 0.08464 q 0,1.028643 -0.397134,1.848953 -0.390624,0.8138 -1.126299,1.269528 -0.729165,0.455728 -1.679684,0.455728 -1.432288,0 -2.324212,-0.996091 -0.885415,-0.996091 -0.885415,-2.636712 z m 1.210935,0.143229 q 0,1.171872 0.540363,1.881505 0.546873,0.709634 1.458329,0.709634 0.917967,0 1.45833,-0.716144 0.540363,-0.722655 0.540363,-2.018224 0,-1.158851 -0.553384,-1.874995 -0.546873,-0.722655 -1.458329,-0.722655 -0.891925,0 -1.438799,0.709634 -0.546873,0.709633 -0.546873,2.031245 z" id="path16247" /><path d="m 36.463501,-15.47073 0.416666,-0.514322 q 0.703123,-0.911456 0.800779,-2.734368 l 0.110677,-2.812493 h 4.537749 v 6.061183 h 0.904945 v 3.053378 h -1.204424 v -2.070308 h -4.915352 v 2.070308 h -1.204424 l 0.0065,-3.053378 z m 1.425778,0 h 3.235669 v -4.947904 h -2.167964 l -0.07161,1.679683 q -0.110677,2.102859 -0.996091,3.268221 z" id="path16249" /><path d="m 44.24994,-18.07489 q 0,-1.035154 0.403645,-1.861975 0.410155,-0.82682 1.132809,-1.276038 0.729165,-0.449218 1.660153,-0.449218 1.438798,0 2.324212,0.996092 0.891925,0.996091 0.891925,2.649732 v 0.08464 q 0,1.028643 -0.397134,1.848953 -0.390624,0.8138 -1.126299,1.269528 -0.729165,0.455728 -1.679684,0.455728 -1.432288,0 -2.324213,-0.996091 -0.885414,-0.996091 -0.885414,-2.636712 z m 1.210934,0.143229 q 0,1.171872 0.540364,1.881505 0.546873,0.709634 1.458329,0.709634 0.917967,0 1.45833,-0.716144 0.540363,-0.722655 0.540363,-2.018224 0,-1.158851 -0.553384,-1.874995 -0.546873,-0.722655 -1.458329,-0.722655 -0.891925,0 -1.438799,0.709634 -0.546874,0.709633 -0.546874,2.031245 z" id="path16251" /><path d="m 52.283773,-14.48766 v -7.044253 h 2.747389 q 1.406247,0 2.154943,0.494791 0.755206,0.48828 0.755206,1.438798 0,0.48828 -0.292968,0.885415 -0.292968,0.390624 -0.865883,0.598956 0.638019,0.14974 1.022133,0.585936 0.390624,0.436197 0.390624,1.041664 0,0.97005 -0.716144,1.484372 -0.709634,0.514321 -2.011714,0.514321 z m 1.204424,-3.09244 v 2.122391 h 1.992183 q 0.755206,0 1.126299,-0.279948 0.377603,-0.279947 0.377603,-0.787758 0,-1.054685 -1.549475,-1.054685 z m 0,-0.963539 h 1.555986 q 1.692704,0 1.692704,-0.989581 0,-0.989581 -1.601558,-1.022133 h -1.647132 z" id="path16253" /><path d="m 64.139214,-14.48766 q -0.104166,-0.208332 -0.16927,-0.742185 -0.839842,0.872393 -2.005203,0.872393 -1.041664,0 -1.712236,-0.585936 -0.66406,-0.592446 -0.66406,-1.497392 0,-1.100257 0.833331,-1.705725 0.839841,-0.611977 2.356765,-0.611977 h 1.171872 v -0.553384 q 0,-0.631509 -0.377604,-1.002602 -0.377603,-0.377603 -1.113278,-0.377603 -0.64453,0 -1.080726,0.32552 -0.436197,0.32552 -0.436197,0.787758 h -1.210935 q 0,-0.527342 0.371093,-1.015622 0.377603,-0.494791 1.015623,-0.781248 0.644529,-0.286458 1.412756,-0.286458 1.217445,0 1.907548,0.611978 0.690102,0.605467 0.716144,1.673173 v 3.242179 q 0,0.97005 0.247395,1.542965 v 0.104166 z m -1.998693,-0.917966 q 0.566405,0 1.074216,-0.292968 0.507812,-0.292968 0.735676,-0.761717 v -1.445309 h -0.944008 q -2.213536,0 -2.213536,1.29557 0,0.566405 0.377603,0.885414 0.377603,0.31901 0.970049,0.31901 z" id="path16255" /><path d="m 72.42695,-21.531913 v 7.044253 h -1.210934 v -2.740878 h -1.816402 l -1.660152,2.740878 h -1.30208 l 1.770829,-2.923169 q -0.677082,-0.247396 -1.041664,-0.761717 -0.358072,-0.520832 -0.358072,-1.210935 0,-0.963539 0.722654,-1.549475 0.722655,-0.592446 1.933589,-0.598957 z m -4.407541,2.161453 q 0,0.514322 0.351562,0.833331 0.351562,0.3125 0.930987,0.31901 h 1.914058 v -2.337234 H 69.48425 q -0.670572,0 -1.067706,0.332031 -0.397135,0.32552 -0.397135,0.852862 z" id="path16257" /><path d="m 82.531094,-23.016284 h 0.201823 q 1.074216,0.0065 1.95963,0.501301 0.885415,0.49479 1.373695,1.367184 0.49479,0.865883 0.49479,1.940099 0,1.080727 -0.49479,1.959631 -0.494791,0.878904 -1.367184,1.373694 -0.872394,0.48828 -1.9401,0.501301 h -0.227864 v 1.276038 H 81.32016 v -1.276038 h -0.182291 q -1.087237,0 -1.979162,-0.494791 -0.885414,-0.49479 -1.380205,-1.367184 -0.48828,-0.872393 -0.48828,-1.95963 0,-1.087237 0.48828,-1.959631 0.494791,-0.872393 1.380205,-1.367184 0.891925,-0.49479 1.979162,-0.49479 h 0.182291 v -1.341142 h 1.210934 z m -1.393225,0.98307 q -1.223956,0 -1.9401,0.755207 -0.709633,0.748696 -0.709633,2.083328 0,1.341142 0.709633,2.089838 0.709634,0.742186 1.95312,0.742186 h 0.169271 v -5.670559 z m 1.393225,0 v 5.670559 h 0.182291 q 1.243487,0 1.9401,-0.761717 0.703123,-0.768227 0.703123,-2.083328 0,-1.30208 -0.703123,-2.063797 -0.696613,-0.761717 -1.966141,-0.761717 z" id="path16259" /><path d="m 92.505029,-21.531913 h 1.204424 v 7.044253 h -1.204424 v -5.136705 l -3.248689,5.136705 h -1.204425 v -7.044253 h 1.204425 v 5.143216 z" id="path16261" /><path d="m 101.39823,-14.48766 h -1.20442 v -3.007805 h -3.23567 v 3.007805 h -1.210935 v -7.044253 h 1.210935 v 3.053378 h 3.23567 v -3.053378 h 1.20442 z" id="path16263" /><path d="m 107.68077,-14.48766 q -0.10417,-0.208332 -0.16927,-0.742185 -0.83984,0.872393 -2.00521,0.872393 -1.04166,0 -1.71223,-0.585936 -0.66406,-0.592446 -0.66406,-1.497392 0,-1.100257 0.83333,-1.705725 0.83984,-0.611977 2.35676,-0.611977 h 1.17188 v -0.553384 q 0,-0.631509 -0.37761,-1.002602 -0.3776,-0.377603 -1.11328,-0.377603 -0.64453,0 -1.08072,0.32552 -0.4362,0.32552 -0.4362,0.787758 h -1.21093 q 0,-0.527342 0.37109,-1.015622 0.3776,-0.494791 1.01562,-0.781248 0.64453,-0.286458 1.41276,-0.286458 1.21744,0 1.90755,0.611978 0.6901,0.605467 0.71614,1.673173 v 3.242179 q 0,0.97005 0.2474,1.542965 v 0.104166 z m -1.9987,-0.917966 q 0.56641,0 1.07422,-0.292968 0.50781,-0.292968 0.73568,-0.761717 v -1.445309 h -0.94401 q -2.21354,0 -2.21354,1.29557 0,0.566405 0.37761,0.885414 0.3776,0.31901 0.97004,0.31901 z" id="path16265" /><path d="m 116.3396,-14.48766 h -1.20442 v -3.007805 h -3.23567 v 3.007805 h -1.21094 v -7.044253 h 1.21094 v 3.053378 h 3.23567 v -3.053378 h 1.20442 z" id="path16267" /><path d="m 121.0987,-15.340522 q 0.64453,0 1.1263,-0.390624 0.48177,-0.390624 0.53385,-0.97656 h 1.13932 q -0.0325,0.605467 -0.41666,1.152341 -0.38411,0.546873 -1.02864,0.872393 -0.63802,0.32552 -1.35417,0.32552 -1.4388,0 -2.29166,-0.957029 -0.84635,-0.963539 -0.84635,-2.630201 v -0.201823 q 0,-1.028643 0.3776,-1.829422 0.37761,-0.800779 1.08073,-1.243487 0.70963,-0.442707 1.67317,-0.442707 1.18489,0 1.96614,0.709634 0.78776,0.709634 0.83984,1.842443 h -1.13932 q -0.0521,-0.683592 -0.52083,-1.119789 -0.46224,-0.442707 -1.14583,-0.442707 -0.91796,0 -1.42578,0.664061 -0.5013,0.65755 -0.5013,1.907547 v 0.227864 q 0,1.217445 0.5013,1.874995 0.5013,0.657551 1.43229,0.657551 z" id="path16269" /><path d="m 124.93333,-18.07489 q 0,-1.035154 0.40364,-1.861975 0.41016,-0.82682 1.13281,-1.276038 0.72917,-0.449218 1.66015,-0.449218 1.4388,0 2.32422,0.996092 0.89192,0.996091 0.89192,2.649732 v 0.08464 q 0,1.028643 -0.39713,1.848953 -0.39063,0.8138 -1.1263,1.269528 -0.72917,0.455728 -1.67968,0.455728 -1.43229,0 -2.32422,-0.996091 -0.88541,-0.996091 -0.88541,-2.636712 z m 1.21093,0.143229 q 0,1.171872 0.54037,1.881505 0.54687,0.709634 1.45833,0.709634 0.91796,0 1.45832,-0.716144 0.54037,-0.722655 0.54037,-2.018224 0,-1.158851 -0.55339,-1.874995 -0.54687,-0.722655 -1.45833,-0.722655 -0.89192,0 -1.43879,0.709634 -0.54688,0.709633 -0.54688,2.031245 z" id="path16271" /><path d="m 132.96716,-14.48766 v -7.044253 h 2.74739 q 1.40625,0 2.15494,0.494791 0.75521,0.48828 0.75521,1.438798 0,0.48828 -0.29297,0.885415 -0.29297,0.390624 -0.86588,0.598956 0.63802,0.14974 1.02213,0.585936 0.39063,0.436197 0.39063,1.041664 0,0.97005 -0.71615,1.484372 -0.70963,0.514321 -2.01171,0.514321 z m 1.20443,-3.09244 v 2.122391 h 1.99218 q 0.75521,0 1.1263,-0.279948 0.3776,-0.279947 0.3776,-0.787758 0,-1.054685 -1.54947,-1.054685 z m 0,-0.963539 h 1.55598 q 1.69271,0 1.69271,-0.989581 0,-0.989581 -1.60156,-1.022133 h -1.64713 z" id="path16273" /><path d="m 144.82261,-14.48766 q -0.10417,-0.208332 -0.16927,-0.742185 -0.83985,0.872393 -2.00521,0.872393 -1.04166,0 -1.71223,-0.585936 -0.66406,-0.592446 -0.66406,-1.497392 0,-1.100257 0.83333,-1.705725 0.83984,-0.611977 2.35676,-0.611977 h 1.17187 v -0.553384 q 0,-0.631509 -0.3776,-1.002602 -0.3776,-0.377603 -1.11328,-0.377603 -0.64453,0 -1.08072,0.32552 -0.4362,0.32552 -0.4362,0.787758 h -1.21094 q 0,-0.527342 0.3711,-1.015622 0.3776,-0.494791 1.01562,-0.781248 0.64453,-0.286458 1.41276,-0.286458 1.21744,0 1.90754,0.611978 0.69011,0.605467 0.71615,1.673173 v 3.242179 q 0,0.97005 0.24739,1.542965 v 0.104166 z m -1.9987,-0.917966 q 0.56641,0 1.07422,-0.292968 0.50781,-0.292968 0.73567,-0.761717 v -1.445309 h -0.944 q -2.21354,0 -2.21354,1.29557 0,0.566405 0.3776,0.885414 0.37761,0.31901 0.97005,0.31901 z" id="path16275" /><path d="m 153.11035,-21.531913 v 7.044253 h -1.21094 v -2.740878 h -1.8164 l -1.66015,2.740878 h -1.30208 l 1.77083,-2.923169 q -0.67709,-0.247396 -1.04167,-0.761717 -0.35807,-0.520832 -0.35807,-1.210935 0,-0.963539 0.72265,-1.549475 0.72266,-0.592446 1.93359,-0.598957 z m -4.40755,2.161453 q 0,0.514322 0.35157,0.833331 0.35156,0.3125 0.93098,0.31901 h 1.91406 v -2.337234 h -1.73177 q -0.67057,0 -1.0677,0.332031 -0.39714,0.32552 -0.39714,0.852862 z" id="path16277" /><path d="m 165.50614,-17.495465 q -0.17578,1.503903 -1.11328,2.324213 -0.93099,0.8138 -2.48046,0.8138 -1.67969,0 -2.69531,-1.204424 -1.00911,-1.204424 -1.00911,-3.222648 v -0.911456 q 0,-1.321611 0.46875,-2.324213 0.47526,-1.002601 1.34114,-1.536454 0.86588,-0.540363 2.0052,-0.540363 1.51042,0 2.42187,0.846352 0.91146,0.839841 1.0612,2.330723 h -1.25651 q -0.16276,-1.13281 -0.70963,-1.640621 -0.54037,-0.507811 -1.51693,-0.507811 -1.19791,0 -1.8815,0.885414 -0.67708,0.885415 -0.67708,2.519525 v 0.917967 q 0,1.542964 0.64453,2.45442 0.64453,0.911456 1.80338,0.911456 1.04166,0 1.59505,-0.468748 0.55989,-0.47526 0.74218,-1.647132 z" id="path16279" /><path d="m 171.58035,-21.531913 h 1.20443 v 7.044253 h -1.20443 v -5.136705 l -3.24869,5.136705 h -1.20442 v -7.044253 h 1.20442 v 5.143216 z" id="path16281" /><path d="m 177.54387,-15.340522 q 0.64453,0 1.1263,-0.390624 0.48177,-0.390624 0.53385,-0.97656 h 1.13932 q -0.0326,0.605467 -0.41666,1.152341 -0.38412,0.546873 -1.02865,0.872393 -0.63802,0.32552 -1.35416,0.32552 -1.4388,0 -2.29166,-0.957029 -0.84635,-0.963539 -0.84635,-2.630201 v -0.201823 q 0,-1.028643 0.3776,-1.829422 0.3776,-0.800779 1.08073,-1.243487 0.70963,-0.442707 1.67317,-0.442707 1.18489,0 1.96614,0.709634 0.78776,0.709634 0.83984,1.842443 h -1.13932 q -0.0521,-0.683592 -0.52083,-1.119789 -0.46224,-0.442707 -1.14583,-0.442707 -0.91797,0 -1.42578,0.664061 -0.5013,0.65755 -0.5013,1.907547 v 0.227864 q 0,1.217445 0.5013,1.874995 0.5013,0.657551 1.43229,0.657551 z" id="path16283" /><path d="m 186.93187,-20.555353 h -2.36327 v 6.067693 h -1.20442 v -6.067693 h -2.31771 v -0.97656 h 5.8854 z" id="path16285" /><path d="m 190.50607,-14.357452 q -1.43228,0 -2.33072,-0.937497 -0.89844,-0.944008 -0.89844,-2.519525 v -0.221354 q 0,-1.048174 0.39714,-1.868485 0.40364,-0.82682 1.11979,-1.289059 0.72265,-0.468749 1.56249,-0.468749 1.3737,0 2.13542,0.904946 0.76171,0.904946 0.76171,2.591139 v 0.501301 h -4.77212 q 0.026,1.041664 0.60547,1.686194 0.58593,0.638019 1.48437,0.638019 0.63802,0 1.08072,-0.260416 0.44271,-0.260416 0.77474,-0.690103 l 0.73568,0.572916 q -0.88542,1.360673 -2.65625,1.360673 z m -0.14974,-6.315088 q -0.72916,0 -1.22395,0.533853 -0.49479,0.527342 -0.61198,1.484371 h 3.52864 v -0.09114 q -0.0521,-0.917967 -0.49479,-1.419268 -0.44271,-0.507811 -1.19792,-0.507811 z" id="path16287" /><path d="m 198.70268,-16.082708 2.39583,-5.449205 h 1.5039 v 7.044253 h -1.20442 v -5.123685 l -2.27864,5.123685 h -0.83334 l -2.32421,-5.234361 v 5.234361 h -1.20442 v -7.044253 h 1.56249 z" id="path16289" /><path d="m 208.88495,-14.48766 q -0.10417,-0.208332 -0.16927,-0.742185 -0.83985,0.872393 -2.00521,0.872393 -1.04166,0 -1.71223,-0.585936 -0.66406,-0.592446 -0.66406,-1.497392 0,-1.100257 0.83333,-1.705725 0.83984,-0.611977 2.35676,-0.611977 h 1.17187 v -0.553384 q 0,-0.631509 -0.3776,-1.002602 -0.3776,-0.377603 -1.11328,-0.377603 -0.64453,0 -1.08072,0.32552 -0.4362,0.32552 -0.4362,0.787758 h -1.21094 q 0,-0.527342 0.3711,-1.015622 0.3776,-0.494791 1.01562,-0.781248 0.64453,-0.286458 1.41276,-0.286458 1.21744,0 1.90754,0.611978 0.69011,0.605467 0.71615,1.673173 v 3.242179 q 0,0.97005 0.24739,1.542965 v 0.104166 z m -1.9987,-0.917966 q 0.56641,0 1.07422,-0.292968 0.50781,-0.292968 0.73567,-0.761717 v -1.445309 h -0.944 q -2.21354,0 -2.21354,1.29557 0,0.566405 0.3776,0.885414 0.37761,0.31901 0.97005,0.31901 z" id="path16291" /></g></g>
</svg>
