<?xml version="1.0" encoding="UTF-8" standalone="no"?>
<!-- Roman Inozemtsev: https://github.com/mir-one/  -->

<svg version="1.1" id="Слой_1" shape-rendering="geometricPrecision" text-rendering="geometricPrecision" image-rendering="optimizeQuality" x="0px" y="0px" viewBox="0 0 24 24" style="enable-background:new 0 0 24 24;" xml:space="preserve" sodipodi:docname="tabs-iconset-portfolio.svg" inkscape:version="1.1.1 (3bf5ae0d25, 2021-09-20)" xmlns:inkscape="http://www.inkscape.org/namespaces/inkscape" xmlns:sodipodi="http://sodipodi.sourceforge.net/DTD/sodipodi-0.dtd" xmlns="http://www.w3.org/2000/svg" xmlns:svg="http://www.w3.org/2000/svg"><defs id="defs23" /><sodipodi:namedview id="namedview21" pagecolor="#505050" bordercolor="#ffffff" borderopacity="1" inkscape:pageshadow="0" inkscape:pageopacity="0" inkscape:pagecheckerboard="1" showgrid="false" inkscape:zoom="29.958333" inkscape:cx="12" inkscape:cy="12" inkscape:window-width="1920" inkscape:window-height="991" inkscape:window-x="-9" inkscape:window-y="-9" inkscape:window-maximized="1" inkscape:current-layer="Слой_1" />
<style type="text/css" id="style2">
	.st0{fill:#2BB673;}
	.st1{fill:#FFFFFF;}
</style>
<circle class="st0" cx="12" cy="12" r="12" id="circle4" style="fill:#1a1a1a" />
<circle class="st1" cx="12" cy="12" r="11" id="circle6" />
<ellipse transform="matrix(0.7071 -0.7071 0.7071 0.7071 -4.9706 11.9998)" class="st1" cx="12" cy="12" rx="10.4" ry="10.4" id="ellipse8" />
<g id="g18" style="fill:#1a1a1a">
	<path class="st0" d="M16.6,12c0,1.4,0,2.9,0,4.3c0,0.7-0.3,1-1,1c-2.4,0-4.8,0-7.2,0c-0.8,0-1-0.3-1-1c0-2.9,0-5.7,0-8.6   c0-0.8,0.2-1,1-1c2.4,0,4.9,0,7.3,0c0.8,0,1,0.2,1,1C16.6,9.1,16.6,10.6,16.6,12L16.6,12z M12.6,8.4c-1.3,0-2.3,1-2.3,2.2   s1,2.2,2.2,2.3c1.3,0,2.3-1,2.3-2.3C14.9,9.4,13.9,8.5,12.6,8.4z M8.7,12c0-1.3,0-2.7,0-4c0-0.2-0.1-0.3-0.2-0.5   C8.4,7.7,8.2,7.8,8.2,8c0,2.7,0,5.3,0,8c0,0.2,0.2,0.3,0.3,0.5c0.1-0.2,0.2-0.3,0.2-0.5C8.7,14.7,8.7,13.4,8.7,12z" id="path10" style="fill:#1a1a1a" />
	<path class="st0" d="M8.8,17.8c0.5,0,1,0,1.5,0c0,0.5-0.3,0.8-0.7,0.8C9.1,18.6,8.8,18.3,8.8,17.8z" id="path12" style="fill:#1a1a1a" />
	<path class="st0" d="M13.7,17.8c0.5,0,1,0,1.5,0c0,0.5-0.3,0.7-0.7,0.8C14,18.6,13.8,18.3,13.7,17.8z" id="path14" style="fill:#1a1a1a" />
	<path class="st0" d="M10.8,10.7c0-1,0.8-1.8,1.8-1.8s1.8,0.8,1.8,1.8s-0.8,1.8-1.8,1.8S10.8,11.7,10.8,10.7z M13.3,9.7   c-0.6-0.4-1.2-0.3-1.6,0.2c-0.4,0.5-0.3,1.2,0.1,1.6c0.4,0.4,1.1,0.5,1.6,0.1s0.6-0.9,0.2-1.5c-0.2,0.1-0.3,0.3-0.5,0.4   c-0.1,0.1-0.2,0-0.4,0c0-0.1,0-0.3,0-0.4C13,10,13.1,9.9,13.3,9.7z" id="path16" style="fill:#1a1a1a" />
</g>
</svg>
