<?xml version="1.0" encoding="utf-8"?>
<!-- Roman Inozemtsev: https://github.com/mir-one/  -->
<svg version="1.1"
	 id="Слой_1" shape-rendering="geometricPrecision" image-rendering="optimizeQuality" text-rendering="geometricPrecision"
	 xmlns="http://www.w3.org/2000/svg" xmlns:xlink="http://www.w3.org/1999/xlink" x="0px" y="0px" viewBox="0 0 24 24"
	 style="enable-background:new 0 0 24 24;" xml:space="preserve">
<style type="text/css">
	.st0{fill:#4598C5;}
</style>
<g id="Layer_x0020_1">
	<g id="_1107877136">
		<path class="st0" d="M12,24c6.6,0,12-5.4,12-12S18.6,0,12,0S0,5.4,0,12S5.4,24,12,24z M12,1.9c5.6,0,10.1,4.5,10.1,10.1
			c0,5.6-4.5,10.1-10.1,10.1C6.4,22.1,1.9,17.6,1.9,12C1.9,6.4,6.4,1.9,12,1.9z"/>
		<path class="st0" d="M4.6,7.2h14.9L12,13.8L4.6,7.2z M19.7,8.3v8.5H4.3V8.3l7.5,6.6l0.2,0.2l0.2-0.2L19.7,8.3z"/>
	</g>
</g>
</svg>
