<?xml version="1.0" encoding="UTF-8" standalone="no"?>
<!-- Roman Inozemtsev: https://github.com/mir-one/  -->

<svg version="1.1" id="Слой_1" shape-rendering="geometricPrecision" text-rendering="geometricPrecision" image-rendering="optimizeQuality" x="0px" y="0px" viewBox="0 0 24 24" style="enable-background:new 0 0 24 24;" xml:space="preserve" sodipodi:docname="tabs-iconset-exchange.svg" inkscape:version="1.1.1 (3bf5ae0d25, 2021-09-20)" xmlns:inkscape="http://www.inkscape.org/namespaces/inkscape" xmlns:sodipodi="http://sodipodi.sourceforge.net/DTD/sodipodi-0.dtd" xmlns="http://www.w3.org/2000/svg" xmlns:svg="http://www.w3.org/2000/svg"><defs id="defs25" /><sodipodi:namedview id="namedview23" pagecolor="#505050" bordercolor="#ffffff" borderopacity="1" inkscape:pageshadow="0" inkscape:pageopacity="0" inkscape:pagecheckerboard="1" showgrid="false" inkscape:zoom="29.958333" inkscape:cx="12" inkscape:cy="12" inkscape:window-width="1920" inkscape:window-height="991" inkscape:window-x="-9" inkscape:window-y="-9" inkscape:window-maximized="1" inkscape:current-layer="Слой_1" />
<style type="text/css" id="style2">
	.st0{fill:#2BB673;}
	.st1{fill:#FFFFFF;}
</style>
<circle class="st0" cx="12" cy="12" r="12" id="circle4" style="fill:#1a1a1a" />
<circle class="st1" cx="12" cy="12" r="11" id="circle6" />
<ellipse transform="matrix(0.7071 -0.7071 0.7071 0.7071 -4.9777 12.017)" class="st1" cx="12" cy="12" rx="10.4" ry="10.4" id="ellipse8" />
<g id="g20" style="fill:#1a1a1a">
	<path class="st0" d="M15.5,9.8c0.6,0,1.1,0,1.7,0c0,2.5,0,5,0,7.5c-0.6,0-1.1,0-1.7,0C15.5,14.8,15.5,12.4,15.5,9.8z" id="path10" style="fill:#1a1a1a" />
	<path class="st0" d="M15.5,7.4c-0.1-0.2-0.2-0.4-0.4-0.7c0.7,0.1,1.4,0.1,2.1,0.2c-0.3,0.7-0.6,1.3-0.9,1.9   c-0.2-0.3-0.3-0.5-0.4-0.7c-1.5,0.8-3,1.7-4.5,2.5C10,11.4,8.5,12.3,7,13.1c-0.1-0.2-0.3-0.4-0.4-0.7C9.6,10.7,12.5,9,15.5,7.4z" id="path12" style="fill:#1a1a1a" />
	<path class="st0" d="M14.2,17.4c-0.6,0-1.1,0-1.7,0c0-2,0-3.9,0-5.9c0.5,0,1.1,0,1.7,0C14.2,13.4,14.2,15.3,14.2,17.4z" id="path14" style="fill:#1a1a1a" />
	<path class="st0" d="M11.3,13c0,0.1,0,0.3,0,0.4c0,1.3,0,2.6,0,4c-0.6,0-1.2,0-1.8,0c0-1.4,0-2.9,0-4.4C10.1,13,10.6,13,11.3,13z" id="path16" style="fill:#1a1a1a" />
	<path class="st0" d="M8.3,14.4c0,1,0,1.9,0,2.9c-0.6,0-1.1,0-1.7,0c0-1,0-1.9,0-2.9C7.1,14.4,7.7,14.4,8.3,14.4z" id="path18" style="fill:#1a1a1a" />
</g>
</svg>
