<?xml version="1.0" encoding="UTF-8" standalone="no"?>
<!-- Roman Inozemtsev: https://github.com/mir-one/  -->

<svg version="1.1" id="Слой_1" text-rendering="geometricPrecision" image-rendering="optimizeQuality" shape-rendering="geometricPrecision" x="0px" y="0px" viewBox="0 0 245.7 42.3" style="enable-background:new 0 0 245.7 42.3;" xml:space="preserve" sodipodi:docname="topleftlogo_hor.svg" inkscape:version="1.1.1 (3bf5ae0d25, 2021-09-20)" xmlns:inkscape="http://www.inkscape.org/namespaces/inkscape" xmlns:sodipodi="http://sodipodi.sourceforge.net/DTD/sodipodi-0.dtd" xmlns="http://www.w3.org/2000/svg" xmlns:svg="http://www.w3.org/2000/svg"><defs id="defs15"><rect x="-25.589886" y="-89.750037" width="414.63033" height="77.5114" id="rect7776" /></defs><sodipodi:namedview id="namedview13" pagecolor="#505050" bordercolor="#ffffff" borderopacity="1" inkscape:pageshadow="0" inkscape:pageopacity="0" inkscape:pagecheckerboard="1" showgrid="false" inkscape:zoom="3.813254" inkscape:cx="167.70454" inkscape:cy="22.159552" inkscape:window-width="1920" inkscape:window-height="991" inkscape:window-x="-9" inkscape:window-y="-9" inkscape:window-maximized="1" inkscape:current-layer="Слой_1" />
<style type="text/css" id="style2">
	.st0{fill:none;}
	.st1{fill:#4062AD;}
	.st2{font-family:'Roboto-Bold';}
	.st3{font-size:24px;}
</style>
<rect x="1.6" y="1.3" class="st0" width="346" height="57" id="rect4" />

<g aria-label="Родовая 
Финансовая Система" transform="matrix(0.88640304,0,0,0.88640304,23.590999,81.200398)" id="text7774" style="font-size:26.6667px;line-height:0.9;white-space:pre;shape-inside:url(#rect7776)"><path d="m -20.368483,-77.867173 v 7.04428 h -3.294275 V -89.78125 h 7.252613 q 3.177088,0 5.039069,1.653648 1.8750026,1.653647 1.8750026,4.375005 0,2.786462 -1.8359396,4.335943 -1.822919,1.549481 -5.117194,1.549481 z m 0,-2.643232 h 3.958338 q 1.757815,0 2.682295,-0.820314 0.924481,-0.833334 0.924481,-2.395836 0,-1.53646 -0.937501,-2.44792 -0.937502,-0.92448 -2.578129,-0.950522 h -4.049484 z" style="font-weight:500;font-family:Roboto;-inkscape-font-specification:'Roboto Medium'" id="path21820" /><path d="m -7.6861756,-77.997381 q 0,-2.070315 0.8203135,-3.723963 0.8203135,-1.666669 2.3046904,-2.552087 1.4843769,-0.898439 3.4114627,-0.898439 2.8515661,0 4.6224016,1.83594 1.7838565,1.83594 1.9270858,4.869798 l 0.013021,0.742189 q 0,2.083336 -0.8072926,3.723963 -0.7942719,1.640627 -2.2916696,2.539065 -1.48437688,0.898439 -3.4375043,0.898439 -2.9817746,0 -4.7786519,-1.979169 -1.7838564,-1.99219 -1.7838564,-5.299486 z m 3.1640665,0.273438 q 0,2.174481 0.8984386,3.411462 0.8984386,1.22396 2.5000032,1.22396 1.60156448,0 2.4869823,-1.250002 0.8984386,-1.250001 0.8984386,-3.658858 0,-2.13542 -0.9244803,-3.385421 -0.91145952,-1.250002 -2.4869823,-1.250002 -1.5494812,0 -2.4609407,1.236981 -0.9114594,1.22396 -0.9114594,3.67188 z" style="font-weight:500;font-family:Roboto;-inkscape-font-specification:'Roboto Medium'" id="path21822" /><path d="m 7.209677,-73.348938 q 1.3151058,-1.471356 1.7578147,-2.786462 0.4557297,-1.328126 0.5468757,-3.385421 l 0.1822919,-5.390632 h 9.7786577 v 11.562515 h 1.953128 v 6.718759 h -3.151046 v -4.192714 H 9.2409295 v 4.192714 h -3.203129 l 0.013021,-6.718759 z m 3.710942,0 h 5.403653 v -8.841157 H 12.76958 l -0.09115,2.695316 q -0.182292,3.880213 -1.757815,6.145841 z" style="font-weight:500;font-family:Roboto;-inkscape-font-specification:'Roboto Medium'" id="path21824" /><path d="m 23.095114,-77.997381 q 0,-2.070315 0.820314,-3.723963 0.820313,-1.666669 2.30469,-2.552087 1.484377,-0.898439 3.411463,-0.898439 2.851566,0 4.622402,1.83594 1.783856,1.83594 1.927085,4.869798 l 0.01302,0.742189 q 0,2.083336 -0.807292,3.723963 -0.794272,1.640627 -2.29167,2.539065 -1.484377,0.898439 -3.437504,0.898439 -2.981775,0 -4.778652,-1.979169 -1.783857,-1.99219 -1.783857,-5.299486 z m 3.164067,0.273438 q 0,2.174481 0.898439,3.411462 0.898438,1.22396 2.500003,1.22396 1.601564,0 2.486982,-1.250002 0.898439,-1.250001 0.898439,-3.658858 0,-2.13542 -0.924481,-3.385421 -0.911459,-1.250002 -2.486982,-1.250002 -1.549481,0 -2.460941,1.236981 -0.911459,1.22396 -0.911459,3.67188 z" style="font-weight:500;font-family:Roboto;-inkscape-font-specification:'Roboto Medium'" id="path21826" /><path d="m 39.110761,-70.822893 v -14.08856 h 5.716153 q 2.890629,0 4.401047,1.015627 1.510419,1.002605 1.510419,2.890628 0,0.976564 -0.61198,1.757815 -0.598959,0.76823 -1.783857,1.184897 1.38021,0.286459 2.187503,1.158856 0.807293,0.872397 0.807293,2.057294 0,1.966149 -1.458335,2.994796 -1.445315,1.028647 -4.166672,1.028647 z m 3.164066,-6.002612 v 3.502609 h 3.463546 q 2.434899,0 2.434899,-1.744794 0,-1.757815 -2.473961,-1.757815 z m 0,-2.265628 h 2.60417 q 2.695316,0 2.695316,-1.588543 0,-1.666669 -2.552086,-1.718753 h -2.7474 z" style="font-weight:500;font-family:Roboto;-inkscape-font-specification:'Roboto Medium'" id="path21828" /><path d="m 62.483182,-70.822893 q -0.208333,-0.403646 -0.364584,-1.315106 -1.510418,1.575523 -3.697921,1.575523 -2.122398,0 -3.463546,-1.210939 -1.341147,-1.210939 -1.341147,-2.994796 0,-2.252607 1.666668,-3.450525 1.67969,-1.210939 4.791673,-1.210939 h 1.940107 v -0.92448 q 0,-1.093751 -0.61198,-1.744794 -0.61198,-0.664063 -1.861982,-0.664063 -1.08073,0 -1.770835,0.546875 -0.690105,0.533855 -0.690105,1.36719 h -3.164067 q 0,-1.158856 0.76823,-2.161461 0.76823,-1.015627 2.083336,-1.588544 1.328127,-0.572918 2.955733,-0.572918 2.473962,0 3.945318,1.250002 1.471356,1.236981 1.510418,3.489588 v 6.354174 q 0,1.901045 0.533855,3.033858 v 0.221355 z m -3.476567,-2.278649 q 0.937502,0 1.757815,-0.45573 0.833334,-0.455729 1.250002,-1.223959 v -2.656254 H 60.3087 q -1.757814,0 -2.643232,0.61198 -0.885418,0.61198 -0.885418,1.731773 0,0.91146 0.598959,1.458335 0.61198,0.533855 1.627606,0.533855 z" style="font-weight:500;font-family:Roboto;-inkscape-font-specification:'Roboto Medium'" id="path21830" /><path d="m 79.77487,-84.911453 v 14.08856 h -3.151045 v -5.169277 h -2.955733 l -3.007817,5.169277 h -3.281254 l 3.320317,-5.690111 q -1.302085,-0.546876 -2.005211,-1.562502 -0.690105,-1.015627 -0.690105,-2.330733 0,-1.966148 1.510419,-3.216149 1.523439,-1.263023 4.101567,-1.289065 z m -8.606781,4.58334 q 0,0.885417 0.651042,1.445314 0.664063,0.546876 1.692711,0.546876 h 3.111983 v -4.062506 h -2.916671 q -1.158855,0 -1.84896,0.585939 -0.690105,0.585938 -0.690105,1.484377 z" style="font-weight:500;font-family:Roboto;-inkscape-font-specification:'Roboto Medium'" id="path21832" /><path d="m -13.324203,-63.723928 h 0.286458 q 2.187503,0 3.9713596,0.989584 1.7968773,0.976564 2.7864619,2.76042 1.0026054,1.783857 1.0026054,4.010422 0,2.213544 -1.0026054,3.98438 -0.9895846,1.757815 -2.7604202,2.734379 -1.7578143,0.976563 -3.9453173,0.989584 h -0.338542 v 2.473962 h -3.164067 v -2.473962 h -0.3125 q -2.200524,0 -3.997401,-0.976564 -1.796877,-0.989584 -2.786462,-2.747399 -0.976564,-1.757815 -0.976564,-3.958338 0,-2.226566 0.989585,-4.010422 0.989585,-1.783856 2.773441,-2.773441 1.783856,-1.002605 3.997401,-1.002605 h 0.3125 v -2.578129 h 3.164067 z m -3.476567,2.643232 q -2.187503,0 -3.424484,1.367189 -1.22396,1.36719 -1.22396,3.776047 0,2.343753 1.22396,3.697921 1.22396,1.341148 3.463546,1.341148 h 0.273438 v -10.182305 z m 3.476567,0 v 10.182305 h 0.3125 q 2.187503,0 3.3984419,-1.36719 1.2239599,-1.367189 1.2239599,-3.697921 0,-2.382815 -1.2239599,-3.750005 -1.2109389,-1.367189 -3.4375039,-1.367189 z" style="font-weight:500;font-family:Roboto;-inkscape-font-specification:'Roboto Medium'" id="path21834" /><path d="M 6.0638413,-60.651008 H 9.214887 v 14.08856 H 6.0638413 v -9.401054 l -5.5208403,9.401054 h -3.1510456 v -14.08856 H 0.543001 v 9.401054 z" style="font-weight:500;font-family:Roboto;-inkscape-font-specification:'Roboto Medium'" id="path21836" /><path d="m 24.514383,-46.562448 h -3.164066 v -5.690112 h -5.481778 v 5.690112 h -3.164066 v -14.08856 h 3.164066 v 5.872403 h 5.481778 v -5.872403 h 3.164066 z" style="font-weight:500;font-family:Roboto;-inkscape-font-specification:'Roboto Medium'" id="path21838" /><path d="m 36.298253,-46.562448 q -0.208333,-0.403647 -0.364583,-1.315106 -1.510419,1.575523 -3.697922,1.575523 -2.122398,0 -3.463546,-1.210939 -1.341147,-1.210939 -1.341147,-2.994796 0,-2.252607 1.666668,-3.450525 1.67969,-1.210939 4.791673,-1.210939 h 1.940107 v -0.92448 q 0,-1.093752 -0.61198,-1.744794 -0.61198,-0.664064 -1.861982,-0.664064 -1.08073,0 -1.770835,0.546876 -0.690105,0.533855 -0.690105,1.367189 h -3.164067 q 0,-1.158855 0.76823,-2.161461 0.76823,-1.015626 2.083336,-1.588544 1.328127,-0.572917 2.955733,-0.572917 2.473962,0 3.945318,1.250002 1.471356,1.23698 1.510418,3.489587 v 6.354175 q 0,1.901044 0.533855,3.033858 v 0.221355 z m -3.476567,-2.278649 q 0.937502,0 1.757815,-0.45573 0.833335,-0.45573 1.250002,-1.22396 v -2.656253 h -1.705732 q -1.757814,0 -2.643232,0.61198 -0.885418,0.61198 -0.885418,1.731773 0,0.911459 0.598959,1.458335 0.61198,0.533855 1.627606,0.533855 z" style="font-weight:500;font-family:Roboto;-inkscape-font-specification:'Roboto Medium'" id="path21840" /><path d="M 54.240984,-46.562448 H 51.076917 V -52.25256 H 45.59514 v 5.690112 h -3.164067 v -14.08856 h 3.164067 v 5.872403 h 5.481777 v -5.872403 h 3.164067 z" style="font-weight:500;font-family:Roboto;-inkscape-font-specification:'Roboto Medium'" id="path21842" /><path d="m 63.394642,-48.828076 q 1.184898,0 1.966149,-0.690105 0.781251,-0.690105 0.833334,-1.705732 H 69.1759 q -0.05208,1.315106 -0.820314,2.460941 -0.76823,1.132814 -2.083336,1.796877 -1.315106,0.664064 -2.838545,0.664064 -2.955733,0 -4.687506,-1.914065 -1.731773,-1.914065 -1.731773,-5.286465 v -0.325522 q 0,-3.21615 1.718752,-5.143235 1.718752,-1.940107 4.687506,-1.940107 2.513024,0 4.088547,1.471356 1.588544,1.458335 1.666669,3.841151 h -2.981775 q -0.05208,-1.210939 -0.833334,-1.99219 -0.76823,-0.781251 -1.966149,-0.781251 -1.53646,0 -2.369794,1.119793 -0.833335,1.106772 -0.846356,3.3724 v 0.507813 q 0,2.29167 0.820314,3.424484 0.833334,1.119793 2.395836,1.119793 z" style="font-weight:500;font-family:Roboto;-inkscape-font-specification:'Roboto Medium'" id="path21844" /><path d="m 70.972777,-53.736937 q 0,-2.070315 0.820314,-3.723963 0.820313,-1.666668 2.30469,-2.552086 1.484377,-0.898439 3.411463,-0.898439 2.851566,0 4.622401,1.83594 1.783857,1.83594 1.927086,4.869798 l 0.01302,0.742188 q 0,2.083336 -0.807293,3.723963 -0.794272,1.640627 -2.291669,2.539066 -1.484377,0.898439 -3.437505,0.898439 -2.981774,0 -4.778652,-1.97917 -1.783856,-1.99219 -1.783856,-5.299485 z m 3.164067,0.273438 q 0,2.174482 0.898438,3.411463 0.898439,1.22396 2.500003,1.22396 1.601565,0 2.486983,-1.250002 0.898438,-1.250001 0.898438,-3.658859 0,-2.135419 -0.92448,-3.385421 -0.91146,-1.250001 -2.486982,-1.250001 -1.549481,0 -2.460941,1.236981 -0.911459,1.223959 -0.911459,3.671879 z" style="font-weight:500;font-family:Roboto;-inkscape-font-specification:'Roboto Medium'" id="path21846" /><path d="m 86.988423,-46.562448 v -14.08856 h 5.716154 q 2.890628,0 4.401047,1.015626 1.510418,1.002606 1.510418,2.890629 0,0.976564 -0.61198,1.757815 -0.598959,0.76823 -1.783856,1.184897 1.38021,0.286459 2.187503,1.158856 0.807292,0.872397 0.807292,2.057294 0,1.966148 -1.458335,2.994795 -1.445314,1.028648 -4.166672,1.028648 z m 3.164067,-6.002612 v 3.502608 h 3.463546 q 2.434899,0 2.434899,-1.744793 0,-1.757815 -2.473962,-1.757815 z m 0,-2.265628 h 2.60417 q 2.695316,0 2.695316,-1.588544 0,-1.666668 -2.552087,-1.718752 H 90.15249 Z" style="font-weight:500;font-family:Roboto;-inkscape-font-specification:'Roboto Medium'" id="path21848" /><path d="m 110.36084,-46.562448 q -0.20833,-0.403647 -0.36458,-1.315106 -1.51042,1.575523 -3.69792,1.575523 -2.1224,0 -3.46355,-1.210939 -1.34114,-1.210939 -1.34114,-2.994796 0,-2.252607 1.66666,-3.450525 1.67969,-1.210939 4.79168,-1.210939 h 1.9401 v -0.92448 q 0,-1.093752 -0.61198,-1.744794 -0.61198,-0.664064 -1.86198,-0.664064 -1.08073,0 -1.77083,0.546876 -0.69011,0.533855 -0.69011,1.367189 h -3.16406 q 0,-1.158855 0.76823,-2.161461 0.76823,-1.015626 2.08333,-1.588544 1.32813,-0.572917 2.95573,-0.572917 2.47397,0 3.94532,1.250002 1.47136,1.23698 1.51042,3.489587 v 6.354175 q 0,1.901044 0.53386,3.033858 v 0.221355 z m -3.47656,-2.278649 q 0.9375,0 1.75781,-0.45573 0.83334,-0.45573 1.25,-1.22396 v -2.656253 h -1.70573 q -1.75781,0 -2.64323,0.61198 -0.88542,0.61198 -0.88542,1.731773 0,0.911459 0.59896,1.458335 0.61198,0.533855 1.62761,0.533855 z" style="font-weight:500;font-family:Roboto;-inkscape-font-specification:'Roboto Medium'" id="path21850" /><path d="m 127.65253,-60.651008 v 14.08856 h -3.15104 v -5.169278 h -2.95574 l -3.00781,5.169278 h -3.28126 l 3.32032,-5.690112 q -1.30208,-0.546875 -2.00521,-1.562502 -0.69011,-1.015626 -0.69011,-2.330732 0,-1.966148 1.51042,-3.21615 1.52344,-1.263022 4.10157,-1.289064 z m -8.60678,4.583339 q 0,0.885418 0.65104,1.445315 0.66407,0.546875 1.69271,0.546875 h 3.11199 v -4.062505 h -2.91667 q -1.15886,0 -1.84896,0.585938 -0.69011,0.585939 -0.69011,1.484377 z" style="font-weight:500;font-family:Roboto;-inkscape-font-specification:'Roboto Medium'" id="path21852" /><path d="m 152.57445,-52.734331 q -0.28646,3.033858 -2.23959,4.739589 -1.95313,1.692711 -5.19532,1.692711 -2.26563,0 -3.9974,-1.06771 -1.71875,-1.080731 -2.65625,-3.0599 -0.9375,-1.979169 -0.97657,-4.59636 v -1.770835 q 0,-2.682295 0.95053,-4.726569 0.95052,-2.044273 2.72135,-3.151045 1.78386,-1.106773 4.11459,-1.106773 3.13803,0 5.05209,1.705732 1.91407,1.705731 2.22657,4.817714 h -3.28126 q -0.23437,-2.044273 -1.19791,-2.942712 -0.95053,-0.91146 -2.79949,-0.91146 -2.14844,0 -3.30729,1.575523 -1.14584,1.562502 -1.17188,4.59636 v 1.67969 q 0,3.07292 1.09375,4.687506 1.10677,1.614585 3.22917,1.614585 1.94011,0 2.91667,-0.872397 0.97657,-0.872397 1.23698,-2.903649 z" style="font-weight:500;font-family:Roboto;-inkscape-font-specification:'Roboto Medium'" id="path21854" /><path d="m 164.00675,-60.651008 h 3.15105 v 14.08856 h -3.15105 v -9.401054 l -5.52084,9.401054 h -3.15104 v -14.08856 h 3.15104 v 9.401054 z" style="font-weight:500;font-family:Roboto;-inkscape-font-specification:'Roboto Medium'" id="path21856" /><path d="m 176.31145,-48.828076 q 1.1849,0 1.96615,-0.690105 0.78125,-0.690105 0.83333,-1.705732 h 2.98178 q -0.0521,1.315106 -0.82031,2.460941 -0.76823,1.132814 -2.08334,1.796877 -1.31511,0.664064 -2.83855,0.664064 -2.95573,0 -4.6875,-1.914065 -1.73177,-1.914065 -1.73177,-5.286465 v -0.325522 q 0,-3.21615 1.71875,-5.143235 1.71875,-1.940107 4.6875,-1.940107 2.51303,0 4.08855,1.471356 1.58854,1.458335 1.66667,3.841151 h -2.98178 q -0.0521,-1.210939 -0.83333,-1.99219 -0.76823,-0.781251 -1.96615,-0.781251 -1.53646,0 -2.36979,1.119793 -0.83334,1.106772 -0.84636,3.3724 v 0.507813 q 0,2.29167 0.82032,3.424484 0.83333,1.119793 2.39583,1.119793 z" style="font-weight:500;font-family:Roboto;-inkscape-font-specification:'Roboto Medium'" id="path21858" /><path d="m 195.56928,-58.137984 h -4.57032 v 11.575536 h -3.16406 v -11.575536 h -4.51824 v -2.513024 h 12.25262 z" style="font-weight:500;font-family:Roboto;-inkscape-font-specification:'Roboto Medium'" id="path21860" /><path d="m 203.04326,-46.302031 q -3.00782,0 -4.88282,-1.888024 -1.86198,-1.901044 -1.86198,-5.052089 v -0.390626 q 0,-2.109378 0.80729,-3.763025 0.82031,-1.666669 2.29167,-2.59115 1.47136,-0.92448 3.28125,-0.92448 2.87761,0 4.44011,1.83594 1.57553,1.83594 1.57553,5.195319 v 1.276043 h -9.20574 q 0.14323,1.744794 1.15885,2.76042 1.02865,1.015627 2.57813,1.015627 2.17448,0 3.54167,-1.757815 l 1.70573,1.627606 q -0.84635,1.263023 -2.26563,1.966149 -1.40625,0.690105 -3.16406,0.690105 z m -0.37761,-12.070328 q -1.30208,0 -2.10937,0.911459 -0.79428,0.91146 -1.01563,2.539066 h 6.02865 v -0.234375 q -0.10416,-1.588544 -0.84635,-2.395837 -0.74219,-0.820313 -2.0573,-0.820313 z" style="font-weight:500;font-family:Roboto;-inkscape-font-specification:'Roboto Medium'" id="path21862" /><path d="m 219.51463,-50.455683 4.16667,-10.195325 h 3.95834 v 14.08856 h -3.16407 v -9.322929 l -3.88021,9.322929 h -2.14844 l -3.89324,-9.375012 v 9.375012 h -3.16406 v -14.08856 h 3.98438 z" style="font-weight:500;font-family:Roboto;-inkscape-font-specification:'Roboto Medium'" id="path21864" /><path d="m 239.6058,-46.562448 q -0.20833,-0.403647 -0.36458,-1.315106 -1.51042,1.575523 -3.69792,1.575523 -2.1224,0 -3.46355,-1.210939 -1.34115,-1.210939 -1.34115,-2.994796 0,-2.252607 1.66667,-3.450525 1.67969,-1.210939 4.79167,-1.210939 h 1.94011 v -0.92448 q 0,-1.093752 -0.61198,-1.744794 -0.61198,-0.664064 -1.86198,-0.664064 -1.08073,0 -1.77084,0.546876 -0.6901,0.533855 -0.6901,1.367189 h -3.16407 q 0,-1.158855 0.76823,-2.161461 0.76823,-1.015626 2.08334,-1.588544 1.32813,-0.572917 2.95573,-0.572917 2.47396,0 3.94532,1.250002 1.47136,1.23698 1.51042,3.489587 v 6.354175 q 0,1.901044 0.53385,3.033858 v 0.221355 z m -3.47657,-2.278649 q 0.93751,0 1.75782,-0.45573 0.83333,-0.45573 1.25,-1.22396 v -2.656253 h -1.70573 q -1.75781,0 -2.64323,0.61198 -0.88542,0.61198 -0.88542,1.731773 0,0.911459 0.59896,1.458335 0.61198,0.533855 1.6276,0.533855 z" style="font-weight:500;font-family:Roboto;-inkscape-font-specification:'Roboto Medium'" id="path21866" /></g></svg>
