<?xml version="1.0" encoding="utf-8"?>
<!-- Roman Inozemtsev: https://github.com/mir-one/  -->
<svg version="1.1"
	 id="Слой_1" text-rendering="geometricPrecision" image-rendering="optimizeQuality" shape-rendering="geometricPrecision"
	 xmlns="http://www.w3.org/2000/svg" xmlns:xlink="http://www.w3.org/1999/xlink" x="0px" y="0px" viewBox="0 0 269 124"
	 style="enable-background:new 0 0 269 124;" xml:space="preserve">
<style type="text/css">
	.st0{fill:#FFFFFF;}
</style>
<g>
	<path class="st0" d="M93.9,27.2v11.3h-6.6v-32h12.5c2.4,0,4.5,0.4,6.3,1.3c1.8,0.9,3.2,2.1,4.2,3.7c1,1.6,1.5,3.5,1.5,5.5
		c0,3.1-1.1,5.6-3.2,7.4s-5.1,2.7-8.9,2.7H93.9z M93.9,21.8h5.9c1.7,0,3.1-0.4,4-1.2c0.9-0.8,1.4-2,1.4-3.5c0-1.6-0.5-2.8-1.4-3.8
		s-2.2-1.5-3.8-1.5h-6V21.8z"/>
	<path class="st0" d="M114.6,26.3c0-2.4,0.5-4.5,1.4-6.3s2.2-3.3,3.9-4.3s3.7-1.5,5.9-1.5c3.2,0,5.8,1,7.9,2.9c2,2,3.2,4.6,3.4,8
		l0,1.6c0,3.6-1,6.6-3.1,8.8s-4.8,3.3-8.2,3.3s-6.2-1.1-8.2-3.3c-2-2.2-3.1-5.2-3.1-9V26.3z M121,26.8c0,2.3,0.4,4,1.3,5.2
		c0.8,1.2,2.1,1.8,3.6,1.8c1.5,0,2.7-0.6,3.6-1.8s1.3-3.1,1.3-5.7c0-2.2-0.4-3.9-1.3-5.1s-2.1-1.8-3.6-1.8c-1.6,0-2.8,0.6-3.6,1.8
		C121.4,22.4,121,24.3,121,26.8z"/>
	<path class="st0" d="M139.8,33.3c1.4-1.5,2.4-3,2.9-4.5s0.8-3.6,0.9-6.4l0.2-7.8h17.5v18.7h3.4v12.3h-6.3v-7.1h-14.1v7.1h-6.5V33.3
		H139.8z M147.3,33.3h7.6V19.9H150l0,2.9C149.8,27.1,148.9,30.7,147.3,33.3z"/>
	<path class="st0" d="M166.9,26.3c0-2.4,0.5-4.5,1.4-6.3s2.2-3.3,3.9-4.3c1.7-1,3.7-1.5,5.9-1.5c3.2,0,5.8,1,7.9,2.9
		c2,2,3.2,4.6,3.4,8l0,1.6c0,3.6-1,6.6-3.1,8.8s-4.8,3.3-8.2,3.3s-6.2-1.1-8.2-3.3c-2-2.2-3.1-5.2-3.1-9V26.3z M173.3,26.8
		c0,2.3,0.4,4,1.3,5.2c0.8,1.2,2.1,1.8,3.6,1.8c1.5,0,2.7-0.6,3.6-1.8s1.3-3.1,1.3-5.7c0-2.2-0.4-3.9-1.3-5.1s-2.1-1.8-3.6-1.8
		c-1.6,0-2.8,0.6-3.6,1.8C173.7,22.4,173.3,24.3,173.3,26.8z"/>
	<path class="st0" d="M193.8,38.5V14.7h9.9c3.2,0,5.7,0.6,7.4,1.7s2.6,2.8,2.6,4.9c0,1.1-0.4,2.1-1.1,3c-0.7,0.9-1.8,1.5-3.2,2
		c1.7,0.3,3,1,4,1.9c1,0.9,1.5,2.1,1.5,3.5c0,2.2-0.8,3.9-2.5,5.1c-1.7,1.2-4.1,1.7-7.2,1.7H193.8z M200.1,24.3h3.9
		c2.2,0,3.3-0.7,3.3-2.1c0-0.9-0.3-1.5-0.9-1.8c-0.6-0.4-1.5-0.5-2.8-0.5h-3.6V24.3z M200.1,28.6v4.7h5.1c2.2,0,3.4-0.8,3.4-2.3
		c0-1.6-1.1-2.4-3.2-2.4H200.1z"/>
	<path class="st0" d="M232.6,38.5c-0.3-0.6-0.5-1.3-0.6-2.1c-1.5,1.7-3.5,2.6-6,2.6c-2.3,0-4.3-0.7-5.8-2c-1.5-1.3-2.3-3-2.3-5.1
		c0-2.5,0.9-4.5,2.8-5.8c1.9-1.3,4.6-2,8.1-2h2.9v-1.4c0-1.1-0.3-2-0.8-2.6c-0.6-0.7-1.5-1-2.7-1c-1.1,0-1.9,0.3-2.5,0.8
		c-0.6,0.5-0.9,1.2-0.9,2.1h-6.4c0-1.4,0.4-2.7,1.3-3.8s2.1-2.1,3.6-2.8s3.3-1,5.2-1c2.9,0,5.3,0.7,7,2.2c1.7,1.5,2.6,3.5,2.6,6.2
		V33c0,2.3,0.3,4,0.9,5.1v0.4H232.6z M227.3,34c0.9,0,1.8-0.2,2.6-0.6c0.8-0.4,1.4-1,1.8-1.7v-4.1h-2.4c-3.2,0-4.9,1.1-5.1,3.3
		l0,0.4c0,0.8,0.3,1.4,0.8,2S226.4,34,227.3,34z"/>
	<path class="st0" d="M262.8,14.7v23.8h-6.3v-8.2h-4l-4.6,8.2h-6.4l5.2-9.3c-1.4-0.7-2.5-1.6-3.3-2.7c-0.8-1.1-1.2-2.4-1.2-3.8
		c0-2.3,0.9-4.2,2.7-5.7c1.8-1.5,4.2-2.2,7.2-2.3H262.8z M252.1,25.8h4.4v-6h-4.1c-1.1,0-2,0.3-2.7,0.9s-1.1,1.3-1.1,2.2
		c0,0.8,0.3,1.5,1,2.1C250.2,25.5,251,25.8,252.1,25.8z"/>
	<path class="st0" d="M26.2,48.3c2.7,0,5.1,0.6,7.1,1.7c2.1,1.1,3.7,2.7,4.8,4.7s1.7,4.3,1.7,6.9c0,2.5-0.6,4.8-1.7,6.8
		c-1.1,2-2.7,3.5-4.8,4.6s-4.4,1.6-7.1,1.6v4.1h-6.4v-4.1c-2.7,0-5.1-0.5-7.2-1.6c-2.1-1.1-3.7-2.6-4.8-4.6c-1.1-2-1.7-4.2-1.7-6.8
		c0-2.6,0.6-4.9,1.7-7s2.7-3.6,4.8-4.7c2.1-1.1,4.5-1.7,7.2-1.7v-4.2h6.4V48.3z M19.7,53.8c-2.3,0-4.1,0.7-5.4,2.1
		c-1.3,1.4-1.9,3.3-1.9,5.8c0,2.4,0.6,4.2,1.9,5.5c1.3,1.3,3.1,2,5.5,2V53.8H19.7z M26.2,53.8v15.4h0.1c2.3,0,4.1-0.7,5.4-2
		c1.3-1.3,1.9-3.2,1.9-5.6c0-2.5-0.6-4.4-1.9-5.8C30.4,54.5,28.6,53.8,26.2,53.8z"/>
	<path class="st0" d="M58,53.7h6.4v23.8H58V62.8l-8,14.7h-6.4V53.7h6.4v14.7L58,53.7z"/>
	<path class="st0" d="M89.8,77.5h-6.4v-9.1h-7.9v9.1h-6.4V53.7h6.4v9.5h7.9v-9.5h6.4V77.5z"/>
	<path class="st0" d="M108.5,77.5c-0.3-0.6-0.5-1.3-0.6-2.1c-1.5,1.7-3.5,2.6-6,2.6c-2.3,0-4.3-0.7-5.8-2s-2.3-3-2.3-5.1
		c0-2.5,0.9-4.5,2.8-5.8c1.9-1.3,4.6-2,8.1-2h2.9v-1.4c0-1.1-0.3-2-0.8-2.6s-1.5-1-2.7-1c-1.1,0-1.9,0.3-2.5,0.8s-0.9,1.2-0.9,2.1
		h-6.4c0-1.4,0.4-2.7,1.3-3.8s2.1-2.1,3.6-2.8s3.3-1,5.2-1c2.9,0,5.3,0.7,7,2.2c1.7,1.5,2.6,3.5,2.6,6.2V72c0,2.3,0.3,4,0.9,5.1v0.4
		H108.5z M103.3,73c0.9,0,1.8-0.2,2.6-0.6c0.8-0.4,1.4-1,1.8-1.7v-4.1h-2.4c-3.2,0-4.9,1.1-5.1,3.3l0,0.4c0,0.8,0.3,1.4,0.8,2
		S102.3,73,103.3,73z"/>
	<path class="st0" d="M139.5,77.5h-6.4v-9.1h-7.9v9.1h-6.4V53.7h6.4v9.5h7.9v-9.5h6.4V77.5z"/>
	<path class="st0" d="M154.3,72.8c1.2,0,2.1-0.3,2.9-1s1.1-1.5,1.1-2.6h6c0,1.6-0.5,3.1-1.3,4.4c-0.9,1.3-2,2.4-3.5,3.1
		c-1.5,0.7-3.2,1.1-5,1.1c-3.4,0-6.1-1.1-8-3.2c-2-2.2-2.9-5.1-2.9-9v-0.4c0-3.7,1-6.6,2.9-8.8s4.6-3.3,8-3.3c3,0,5.4,0.8,7.2,2.5
		c1.8,1.7,2.7,3.9,2.7,6.7h-6c0-1.2-0.4-2.2-1.1-3c-0.7-0.8-1.7-1.2-2.9-1.2c-1.5,0-2.6,0.5-3.4,1.6c-0.8,1.1-1.1,2.8-1.1,5.2v0.7
		c0,2.5,0.4,4.2,1.1,5.3C151.7,72.2,152.8,72.8,154.3,72.8z"/>
	<path class="st0" d="M166.9,65.3c0-2.4,0.5-4.5,1.4-6.3s2.2-3.3,3.9-4.3c1.7-1,3.7-1.5,5.9-1.5c3.2,0,5.8,1,7.9,2.9
		c2,2,3.2,4.6,3.4,8l0,1.6c0,3.6-1,6.6-3.1,8.8c-2,2.2-4.8,3.3-8.2,3.3s-6.2-1.1-8.2-3.3c-2-2.2-3.1-5.2-3.1-9V65.3z M173.3,65.8
		c0,2.3,0.4,4,1.3,5.2s2.1,1.8,3.6,1.8c1.5,0,2.7-0.6,3.6-1.8c0.9-1.2,1.3-3.1,1.3-5.7c0-2.2-0.4-3.9-1.3-5.1s-2.1-1.8-3.6-1.8
		c-1.6,0-2.8,0.6-3.6,1.8C173.7,61.4,173.3,63.3,173.3,65.8z"/>
	<path class="st0" d="M193.8,77.5V53.7h9.9c3.2,0,5.7,0.6,7.4,1.7s2.6,2.8,2.6,4.9c0,1.1-0.4,2.1-1.1,3c-0.7,0.9-1.8,1.5-3.2,2
		c1.7,0.3,3,1,4,1.9c1,0.9,1.5,2.1,1.5,3.5c0,2.2-0.8,3.9-2.5,5.1c-1.7,1.2-4.1,1.7-7.2,1.7H193.8z M200.1,63.3h3.9
		c2.2,0,3.3-0.7,3.3-2.1c0-0.9-0.3-1.5-0.9-1.8c-0.6-0.4-1.5-0.5-2.8-0.5h-3.6V63.3z M200.1,67.6v4.7h5.1c2.2,0,3.4-0.8,3.4-2.3
		c0-1.6-1.1-2.4-3.2-2.4H200.1z"/>
	<path class="st0" d="M232.6,77.5c-0.3-0.6-0.5-1.3-0.6-2.1c-1.5,1.7-3.5,2.6-6,2.6c-2.3,0-4.3-0.7-5.8-2c-1.5-1.3-2.3-3-2.3-5.1
		c0-2.5,0.9-4.5,2.8-5.8c1.9-1.3,4.6-2,8.1-2h2.9v-1.4c0-1.1-0.3-2-0.8-2.6c-0.6-0.7-1.5-1-2.7-1c-1.1,0-1.9,0.3-2.5,0.8
		c-0.6,0.5-0.9,1.2-0.9,2.1h-6.4c0-1.4,0.4-2.7,1.3-3.8s2.1-2.1,3.6-2.8s3.3-1,5.2-1c2.9,0,5.3,0.7,7,2.2c1.7,1.5,2.6,3.5,2.6,6.2
		V72c0,2.3,0.3,4,0.9,5.1v0.4H232.6z M227.3,73c0.9,0,1.8-0.2,2.6-0.6c0.8-0.4,1.4-1,1.8-1.7v-4.1h-2.4c-3.2,0-4.9,1.1-5.1,3.3
		l0,0.4c0,0.8,0.3,1.4,0.8,2S226.4,73,227.3,73z"/>
	<path class="st0" d="M262.8,53.7v23.8h-6.3v-8.2h-4l-4.6,8.2h-6.4l5.2-9.3c-1.4-0.7-2.5-1.6-3.3-2.7c-0.8-1.1-1.2-2.4-1.2-3.8
		c0-2.3,0.9-4.2,2.7-5.7c1.8-1.5,4.2-2.2,7.2-2.3H262.8z M252.1,64.8h4.4v-6h-4.1c-1.1,0-2,0.3-2.7,0.9s-1.1,1.3-1.1,2.2
		c0,0.8,0.3,1.5,1,2.1C250.2,64.5,251,64.8,252.1,64.8z"/>
	<path class="st0" d="M111.1,105.8c-0.2,3.4-1.5,6.2-3.8,8.1c-2.3,2-5.3,3-9.1,3c-4.1,0-7.3-1.4-9.7-4.1c-2.4-2.8-3.5-6.6-3.5-11.4
		v-2c0-3.1,0.5-5.8,1.6-8.1s2.6-4.1,4.6-5.4c2-1.3,4.4-1.9,7-1.9c3.7,0,6.7,1,8.9,3s3.6,4.8,3.9,8.3h-6.6c-0.2-2.1-0.7-3.6-1.7-4.5
		c-1-0.9-2.5-1.4-4.5-1.4c-2.2,0-3.8,0.8-4.9,2.4c-1.1,1.6-1.7,4-1.7,7.3v2.4c0,3.5,0.5,6,1.6,7.6c1,1.6,2.7,2.4,5,2.4
		c2,0,3.6-0.5,4.6-1.4c1-0.9,1.6-2.4,1.7-4.3H111.1z"/>
	<path class="st0" d="M129.3,92.7h6.4v23.8h-6.4v-14.7l-8,14.7H115V92.7h6.4v14.7L129.3,92.7z"/>
	<path class="st0" d="M150.4,111.8c1.2,0,2.1-0.3,2.9-1s1.1-1.5,1.1-2.6h6c0,1.6-0.5,3.1-1.3,4.4c-0.9,1.3-2,2.4-3.5,3.1
		c-1.5,0.7-3.2,1.1-5,1.1c-3.4,0-6.1-1.1-8-3.2c-2-2.2-2.9-5.1-2.9-9v-0.4c0-3.7,1-6.6,2.9-8.8s4.6-3.3,8-3.3c3,0,5.4,0.8,7.2,2.5
		c1.8,1.7,2.7,3.9,2.7,6.7h-6c0-1.2-0.4-2.2-1.1-3c-0.7-0.8-1.7-1.2-2.9-1.2c-1.5,0-2.6,0.5-3.4,1.6c-0.8,1.1-1.1,2.8-1.1,5.2v0.7
		c0,2.5,0.4,4.2,1.1,5.3C147.7,111.2,148.9,111.8,150.4,111.8z"/>
	<path class="st0" d="M183.7,97.8h-7.6v18.7h-6.4V97.8h-7.5v-5.1h21.5V97.8z"/>
	<path class="st0" d="M196.4,116.9c-3.5,0-6.3-1.1-8.5-3.2c-2.2-2.1-3.3-5-3.3-8.5v-0.6c0-2.4,0.5-4.5,1.4-6.4
		c0.9-1.9,2.2-3.3,3.9-4.4c1.7-1,3.6-1.5,5.8-1.5c3.3,0,5.8,1,7.7,3.1c1.9,2.1,2.8,5,2.8,8.7v2.6h-15.1c0.2,1.6,0.8,2.8,1.9,3.7
		c1,0.9,2.3,1.4,3.9,1.4c2.4,0,4.4-0.9,5.7-2.7l3.1,3.5c-1,1.3-2.2,2.4-3.9,3.2C200.2,116.5,198.4,116.9,196.4,116.9z M195.7,97.4
		c-1.3,0-2.3,0.4-3.1,1.3c-0.8,0.9-1.3,2.1-1.5,3.7h8.8v-0.5c0-1.4-0.4-2.5-1.1-3.3S197,97.4,195.7,97.4z"/>
	<path class="st0" d="M224.3,109l6.2-16.3h8v23.8h-6.4v-14.6l-5.7,14.6h-4.3l-5.6-14.3v14.3h-6.4V92.7h7.9L224.3,109z"/>
	<path class="st0" d="M257.7,116.5c-0.3-0.6-0.5-1.3-0.6-2.1c-1.5,1.7-3.5,2.6-6,2.6c-2.3,0-4.3-0.7-5.8-2c-1.5-1.3-2.3-3-2.3-5.1
		c0-2.5,0.9-4.5,2.8-5.8c1.9-1.3,4.6-2,8.1-2h2.9v-1.4c0-1.1-0.3-2-0.8-2.6c-0.6-0.7-1.5-1-2.7-1c-1.1,0-1.9,0.3-2.5,0.8
		c-0.6,0.5-0.9,1.2-0.9,2.1h-6.3c0-1.4,0.4-2.7,1.3-3.8s2.1-2.1,3.6-2.8c1.6-0.7,3.3-1,5.2-1c2.9,0,5.3,0.7,7,2.2
		c1.7,1.5,2.6,3.5,2.6,6.2V111c0,2.3,0.3,4,0.9,5.1v0.4H257.7z M252.5,112c0.9,0,1.8-0.2,2.6-0.6c0.8-0.4,1.4-1,1.8-1.7v-4.1h-2.4
		c-3.2,0-4.9,1.1-5.1,3.3l0,0.4c0,0.8,0.3,1.4,0.8,2S251.5,112,252.5,112z"/>
</g>
</svg>
