<?xml version="1.0" encoding="UTF-8" standalone="no"?>
<!-- Roman Inozemtsev: https://github.com/mir-one/  -->

<svg version="1.1" id="Слой_1" text-rendering="geometricPrecision" image-rendering="optimizeQuality" shape-rendering="geometricPrecision" x="0px" y="0px" viewBox="0 0 269 124" style="enable-background:new 0 0 269 124;" xml:space="preserve" sodipodi:docname="topleftlogo.svg" inkscape:version="1.1.1 (3bf5ae0d25, 2021-09-20)" xmlns:inkscape="http://www.inkscape.org/namespaces/inkscape" xmlns:sodipodi="http://sodipodi.sourceforge.net/DTD/sodipodi-0.dtd" xmlns="http://www.w3.org/2000/svg" xmlns:svg="http://www.w3.org/2000/svg"><defs id="defs57"><rect x="-43.64103" y="-1.1484481" width="281.94402" height="127.76486" id="rect3670" /></defs><sodipodi:namedview id="namedview55" pagecolor="#505050" bordercolor="#ffffff" borderopacity="1" inkscape:pageshadow="0" inkscape:pageopacity="0" inkscape:pagecheckerboard="1" showgrid="false" inkscape:zoom="3.4829609" inkscape:cx="119.00794" inkscape:cy="62.73398" inkscape:window-width="1920" inkscape:window-height="991" inkscape:window-x="-9" inkscape:window-y="-9" inkscape:window-maximized="1" inkscape:current-layer="Слой_1" />
<style type="text/css" id="style2">
	.st0{fill:#FFFFFF;}
</style>

<g aria-label="Родовая
Финансовая
Система" transform="matrix(1.0679048,0,0,1.0679048,50.858634,6.0132627)" id="text3668" style="font-size:40px;line-height:0.95;white-space:pre;shape-inside:url(#rect3670);fill:#ffffff"><path d="M -35.808594,17.675781 V 28.242187 H -40.75 V -0.19531274 h 10.878906 q 4.765625,0 7.558594,2.48046874 2.8125,2.4804688 2.8125,6.5625 0,4.179688 -2.753906,6.503906 -2.734375,2.324219 -7.675781,2.324219 z m 0,-3.964844 h 5.9375 q 2.636719,0 4.023438,-1.230468 1.386719,-1.25 1.386719,-3.5937505 0,-2.3046875 -1.40625,-3.671875 -1.40625,-1.3867187 -3.867188,-1.4257812 h -6.074219 z" style="font-weight:500;font-family:Roboto;-inkscape-font-specification:'Roboto Medium';fill:#ffffff" id="path6097" /><path d="m -16.785156,17.480469 q 0,-3.105469 1.230468,-5.585938 1.230469,-2.5 3.457032,-3.828125 2.2265622,-1.3476562 5.1171873,-1.3476562 4.2773437,0 6.9335937,2.7539062 2.6757813,2.753906 2.890625,7.304688 l 0.019531,1.113281 q 0,3.125 -1.2109376,5.585937 -1.1914062,2.460938 -3.4374999,3.808594 -2.2265625,1.347656 -5.15625,1.347656 -4.4726568,0 -7.1679688,-2.96875 -2.675781,-2.988281 -2.675781,-7.949218 z m 4.746093,0.410156 q 0,3.261719 1.347657,5.117187 1.347656,1.835938 3.7499998,1.835938 2.4023437,0 3.7304687,-1.875 1.3476563,-1.875 1.3476563,-5.488281 0,-3.203125 -1.3867188,-5.078125 -1.3671875,-1.875 -3.7304687,-1.875 -2.3242188,0 -3.6914063,1.855468 -1.367188,1.835938 -1.367188,5.507813 z" style="font-weight:500;font-family:Roboto;-inkscape-font-specification:'Roboto Medium';fill:#ffffff" id="path6099" /><path d="M 5.5585937,24.453125 Q 7.53125,22.246094 8.1953125,20.273437 8.8789063,18.28125 9.015625,15.195312 L 9.2890625,7.1093748 H 23.957031 V 24.453125 h 2.929688 V 34.53125 H 22.160156 V 28.242187 H 8.6054688 V 34.53125 H 3.8007813 l 0.019531,-10.078125 z m 5.5664063,0 h 8.105469 V 11.191406 h -5.332031 l -0.136719,4.042969 q -0.273438,5.820312 -2.636719,9.21875 z" style="font-weight:500;font-family:Roboto;-inkscape-font-specification:'Roboto Medium';fill:#ffffff" id="path6101" /><path d="m 29.386719,17.480469 q 0,-3.105469 1.230468,-5.585938 1.230469,-2.5 3.457032,-3.828125 2.226562,-1.3476562 5.117187,-1.3476562 4.277344,0 6.933594,2.7539062 2.675781,2.753906 2.890625,7.304688 l 0.01953,1.113281 q 0,3.125 -1.210937,5.585937 -1.191407,2.460938 -3.4375,3.808594 -2.226563,1.347656 -5.15625,1.347656 -4.472657,0 -7.167969,-2.96875 -2.675781,-2.988281 -2.675781,-7.949218 z m 4.746093,0.410156 q 0,3.261719 1.347657,5.117187 1.347656,1.835938 3.75,1.835938 2.402343,0 3.730468,-1.875 1.347657,-1.875 1.347657,-5.488281 0,-3.203125 -1.386719,-5.078125 -1.367188,-1.875 -3.730469,-1.875 -2.324219,0 -3.691406,1.855468 -1.367188,1.835938 -1.367188,5.507813 z" style="font-weight:500;font-family:Roboto;-inkscape-font-specification:'Roboto Medium';fill:#ffffff" id="path6103" /><path d="M 53.410156,28.242187 V 7.1093748 h 8.574219 q 4.335937,0 6.601562,1.5234375 2.265625,1.5039067 2.265625,4.3359377 0,1.464844 -0.917968,2.636719 -0.898438,1.152343 -2.675782,1.777343 2.070313,0.429688 3.28125,1.738282 1.210938,1.308593 1.210938,3.085937 0,2.949219 -2.1875,4.492188 -2.167969,1.542968 -6.25,1.542968 z m 4.746094,-9.003906 v 5.253906 h 5.195312 q 3.652344,0 3.652344,-2.617187 0,-2.636719 -3.710937,-2.636719 z m 0,-3.398437 h 3.90625 q 4.042969,0 4.042969,-2.382813 0,-2.5 -3.828125,-2.578125 H 58.15625 Z" style="font-weight:500;font-family:Roboto;-inkscape-font-specification:'Roboto Medium';fill:#ffffff" id="path6105" /><path d="m 88.46875,28.242187 q -0.3125,-0.605468 -0.546875,-1.972656 -2.265625,2.363281 -5.546875,2.363281 -3.183594,0 -5.195313,-1.816406 Q 75.167969,25 75.167969,22.324219 q 0,-3.378907 2.5,-5.175782 2.519531,-1.816406 7.1875,-1.816406 h 2.910156 v -1.386719 q 0,-1.640625 -0.917969,-2.617187 -0.917969,-0.996094 -2.792969,-0.996094 -1.621093,0 -2.65625,0.820313 -1.035156,0.800781 -1.035156,2.050781 h -4.746094 q 0,-1.738281 1.152344,-3.2421877 1.152344,-1.5234375 3.125,-2.3828125 1.992188,-0.859375 4.433594,-0.859375 3.710937,0 5.917969,1.875 2.207031,1.8554692 2.265625,5.2343752 v 9.53125 q 0,2.851562 0.800781,4.550781 v 0.332031 z m -5.214844,-3.417968 q 1.40625,0 2.636719,-0.683594 1.25,-0.683594 1.875,-1.835938 v -3.984375 h -2.558594 q -2.636719,0 -3.964844,0.917969 -1.328125,0.917969 -1.328125,2.597656 0,1.367188 0.898438,2.1875 0.917969,0.800782 2.441406,0.800782 z" style="font-weight:500;font-family:Roboto;-inkscape-font-specification:'Roboto Medium';fill:#ffffff" id="path6107" /><path d="M 114.40625,7.1093748 V 28.242187 h -4.72656 v -7.753906 h -4.4336 l -4.51171,7.753906 H 95.8125 l 4.98047,-8.535156 Q 98.839844,18.886719 97.785156,17.363281 96.75,15.839844 96.75,13.867187 q 0,-2.949218 2.265625,-4.8242185 2.285155,-1.8945312 6.152345,-1.9335937 z m -12.91016,6.8750002 q 0,1.328125 0.97657,2.167969 0.99609,0.820312 2.53906,0.820312 h 4.66797 v -6.09375 h -4.375 q -1.73828,0 -2.77344,0.878906 -1.03516,0.878907 -1.03516,2.226563 z" style="font-weight:500;font-family:Roboto;-inkscape-font-specification:'Roboto Medium';fill:#ffffff" id="path6109" /><path d="m -25.242187,40.890625 h 0.429687 q 3.28125,0 5.957031,1.484375 2.695313,1.464844 4.179688,4.140625 1.503906,2.675781 1.503906,6.015625 0,3.320312 -1.503906,5.976562 -1.484375,2.636719 -4.140625,4.101563 -2.636719,1.464844 -5.917969,1.484375 h -0.507812 v 3.710937 h -4.746094 V 64.09375 h -0.46875 q -3.300781,0 -5.996094,-1.464844 -2.695312,-1.484375 -4.179687,-4.121094 -1.464844,-2.636718 -1.464844,-5.9375 0,-3.339843 1.484375,-6.015625 1.484375,-2.675781 4.160156,-4.160156 2.675781,-1.503906 5.996094,-1.503906 h 0.46875 v -3.867188 h 4.746094 z m -5.214844,3.964844 q -3.28125,0 -5.136719,2.050781 -1.835937,2.050781 -1.835937,5.664062 0,3.515625 1.835937,5.546875 1.835938,2.011719 5.195313,2.011719 h 0.410156 V 44.855469 Z m 5.214844,0 v 15.273437 h 0.46875 q 3.28125,0 5.097656,-2.050781 1.835937,-2.050781 1.835937,-5.546875 0,-3.574219 -1.835937,-5.625 -1.816406,-2.050781 -5.15625,-2.050781 z" style="font-weight:500;font-family:Roboto;-inkscape-font-specification:'Roboto Medium';fill:#ffffff" id="path6111" /><path d="M 3.8398438,45.5 H 8.5664063 V 66.632812 H 3.8398438 V 52.53125 l -8.28125,14.101562 H -9.1679688 V 45.5 h 4.7265626 v 14.101562 z" style="font-weight:500;font-family:Roboto;-inkscape-font-specification:'Roboto Medium';fill:#ffffff" id="path6113" /><path d="m 31.515625,66.632812 h -4.746094 v -8.535156 h -8.222656 v 8.535156 H 13.800781 V 45.5 h 4.746094 v 8.808594 h 8.222656 V 45.5 h 4.746094 z" style="font-weight:500;font-family:Roboto;-inkscape-font-specification:'Roboto Medium';fill:#ffffff" id="path6115" /><path d="m 49.191406,66.632812 q -0.3125,-0.605468 -0.546875,-1.972656 -2.265625,2.363281 -5.546875,2.363281 -3.183594,0 -5.195312,-1.816406 -2.011719,-1.816406 -2.011719,-4.492187 0,-3.378907 2.5,-5.175782 2.519531,-1.816406 7.1875,-1.816406 h 2.910156 v -1.386719 q 0,-1.640625 -0.917969,-2.617187 -0.917968,-0.996094 -2.792968,-0.996094 -1.621094,0 -2.65625,0.820313 -1.035157,0.800781 -1.035157,2.050781 h -4.746093 q 0,-1.738281 1.152343,-3.242188 1.152344,-1.523437 3.125,-2.382812 1.992188,-0.859375 4.433594,-0.859375 3.710938,0 5.917969,1.875 2.207031,1.855469 2.265625,5.234375 V 61.75 q 0,2.851562 0.800781,4.550781 v 0.332031 z m -5.214844,-3.417968 q 1.40625,0 2.636719,-0.683594 1.25,-0.683594 1.875,-1.835938 v -3.984375 h -2.558594 q -2.636718,0 -3.964843,0.917969 -1.328125,0.917969 -1.328125,2.597656 0,1.367188 0.898437,2.1875 0.917969,0.800782 2.441406,0.800782 z" style="font-weight:500;font-family:Roboto;-inkscape-font-specification:'Roboto Medium';fill:#ffffff" id="path6117" /><path d="m 76.105469,66.632812 h -4.746094 v -8.535156 h -8.222656 v 8.535156 H 58.390625 V 45.5 h 4.746094 v 8.808594 h 8.222656 V 45.5 h 4.746094 z" style="font-weight:500;font-family:Roboto;-inkscape-font-specification:'Roboto Medium';fill:#ffffff" id="path6119" /><path d="m 89.835937,63.234375 q 1.777344,0 2.949219,-1.035156 1.171875,-1.035157 1.25,-2.558594 h 4.472656 q -0.07813,1.972656 -1.230468,3.691406 -1.152344,1.699219 -3.125,2.695313 -1.972657,0.996093 -4.257813,0.996093 -4.433594,0 -7.03125,-2.871093 -2.597656,-2.871094 -2.597656,-7.929688 v -0.488281 q 0,-4.824219 2.578125,-7.714844 2.578125,-2.910156 7.03125,-2.910156 3.769531,0 6.132812,2.207031 2.382813,2.1875 2.5,5.761719 h -4.472656 q -0.07813,-1.816406 -1.25,-2.988281 -1.152344,-1.171875 -2.949219,-1.171875 -2.304687,0 -3.554687,1.679687 -1.25,1.660156 -1.269531,5.058594 v 0.761719 q 0,3.4375 1.230468,5.136718 1.25,1.679688 3.59375,1.679688 z" style="font-weight:500;font-family:Roboto;-inkscape-font-specification:'Roboto Medium';fill:#ffffff" id="path6121" /><path d="m 101.20313,55.871094 q 0,-3.105469 1.23046,-5.585938 1.23047,-2.5 3.45704,-3.828125 2.22656,-1.347656 5.11718,-1.347656 4.27735,0 6.9336,2.753906 2.67578,2.753906 2.89062,7.304688 l 0.0195,1.113281 q 0,3.125 -1.21093,5.585937 -1.19141,2.460938 -3.4375,3.808594 -2.22657,1.347656 -5.15625,1.347656 -4.47266,0 -7.16797,-2.96875 -2.67578,-2.988281 -2.67578,-7.949218 z m 4.74609,0.410156 q 0,3.261719 1.34766,5.117187 1.34765,1.835938 3.75,1.835938 2.40234,0 3.73046,-1.875 1.34766,-1.875 1.34766,-5.488281 0,-3.203125 -1.38672,-5.078125 -1.36719,-1.875 -3.73047,-1.875 -2.32422,0 -3.6914,1.855468 -1.36719,1.835938 -1.36719,5.507813 z" style="font-weight:500;font-family:Roboto;-inkscape-font-specification:'Roboto Medium';fill:#ffffff" id="path6123" /><path d="M 125.22656,66.632812 V 45.5 h 8.57422 q 4.33594,0 6.60156,1.523437 2.26563,1.503907 2.26563,4.335938 0,1.464844 -0.91797,2.636719 -0.89844,1.152343 -2.67578,1.777343 2.07031,0.429688 3.28125,1.738282 1.21094,1.308593 1.21094,3.085937 0,2.949219 -2.1875,4.492188 -2.16797,1.542968 -6.25,1.542968 z m 4.7461,-9.003906 v 5.253906 h 5.19531 q 3.65234,0 3.65234,-2.617187 0,-2.636719 -3.71094,-2.636719 z m 0,-3.398437 h 3.90625 q 4.04296,0 4.04296,-2.382813 0,-2.5 -3.82812,-2.578125 h -4.12109 z" style="font-weight:500;font-family:Roboto;-inkscape-font-specification:'Roboto Medium';fill:#ffffff" id="path6125" /><path d="m 160.28516,66.632812 q -0.3125,-0.605468 -0.54688,-1.972656 -2.26562,2.363281 -5.54687,2.363281 -3.1836,0 -5.19532,-1.816406 -2.01172,-1.816406 -2.01172,-4.492187 0,-3.378907 2.5,-5.175782 2.51954,-1.816406 7.1875,-1.816406 h 2.91016 v -1.386719 q 0,-1.640625 -0.91797,-2.617187 -0.91797,-0.996094 -2.79297,-0.996094 -1.62109,0 -2.65625,0.820313 -1.03515,0.800781 -1.03515,2.050781 h -4.7461 q 0,-1.738281 1.15235,-3.242188 1.15234,-1.523437 3.125,-2.382812 1.99218,-0.859375 4.43359,-0.859375 3.71094,0 5.91797,1.875 2.20703,1.855469 2.26562,5.234375 V 61.75 q 0,2.851562 0.80079,4.550781 v 0.332031 z m -5.21485,-3.417968 q 1.40625,0 2.63672,-0.683594 1.25,-0.683594 1.875,-1.835938 v -3.984375 h -2.55859 q -2.63672,0 -3.96485,0.917969 -1.32812,0.917969 -1.32812,2.597656 0,1.367188 0.89844,2.1875 0.91796,0.800782 2.4414,0.800782 z" style="font-weight:500;font-family:Roboto;-inkscape-font-specification:'Roboto Medium';fill:#ffffff" id="path6127" /><path d="m 186.22266,45.5 v 21.132812 h -4.72657 v -7.753906 h -4.43359 l -4.51172,7.753906 h -4.92187 l 4.98046,-8.535156 q -1.95312,-0.820312 -3.00781,-2.34375 -1.03515,-1.523437 -1.03515,-3.496094 0,-2.949218 2.26562,-4.824218 2.28516,-1.894532 6.15234,-1.933594 z m -12.91016,6.875 q 0,1.328125 0.97656,2.167969 0.9961,0.820312 2.53906,0.820312 h 4.66797 v -6.09375 h -4.375 q -1.73828,0 -2.77343,0.878906 -1.03516,0.878907 -1.03516,2.226563 z" style="font-weight:500;font-family:Roboto;-inkscape-font-specification:'Roboto Medium';fill:#ffffff" id="path6129" /><path d="m -19.050781,95.765625 q -0.429688,4.550785 -3.359375,7.109375 -2.929688,2.53906 -7.792969,2.53906 -3.398437,0 -5.996094,-1.60156 -2.578125,-1.62109 -3.984375,-4.589844 -1.40625,-2.96875 -1.464843,-6.894531 v -2.65625 q 0,-4.023438 1.425781,-7.089844 1.425781,-3.066406 4.082031,-4.726562 2.675781,-1.660157 6.171875,-1.660157 4.707031,0 7.578125,2.558594 2.871094,2.558594 3.339844,7.226563 h -4.921875 q -0.351563,-3.066407 -1.796875,-4.414063 -1.425781,-1.367187 -4.199219,-1.367187 -3.222656,0 -4.960937,2.363281 -1.71875,2.34375 -1.757813,6.894531 v 2.519531 q 0,4.609375 1.640625,7.03125 1.660156,2.421878 4.84375,2.421878 2.910156,0 4.375,-1.3086 1.464844,-1.30859 1.855469,-4.355465 z" style="font-weight:500;font-family:Roboto;-inkscape-font-specification:'Roboto Medium';fill:#ffffff" id="path6131" /><path d="M -1.9023437,83.890625 H 2.8242188 V 105.02344 H -1.9023437 V 90.921875 l -8.2812503,14.101565 h -4.726562 V 83.890625 h 4.726562 v 14.101562 z" style="font-weight:500;font-family:Roboto;-inkscape-font-specification:'Roboto Medium';fill:#ffffff" id="path6133" /><path d="m 16.554687,101.625 q 1.777344,0 2.949219,-1.03516 1.171875,-1.035153 1.25,-2.55859 h 4.472656 q -0.07813,1.97266 -1.230468,3.69141 -1.152344,1.69921 -3.125,2.69531 -1.972657,0.99609 -4.257813,0.99609 -4.433593,0 -7.0312497,-2.87109 Q 6.984375,99.671875 6.984375,94.613281 V 94.125 q 0,-4.824219 2.578125,-7.714844 Q 12.140625,83.5 16.59375,83.5 q 3.769531,0 6.132812,2.207031 2.382813,2.1875 2.5,5.761719 h -4.472656 q -0.07813,-1.816406 -1.25,-2.988281 -1.152344,-1.171875 -2.949219,-1.171875 -2.304687,0 -3.554687,1.679687 -1.25,1.660156 -1.269531,5.058594 v 0.761719 q 0,3.4375 1.230469,5.136718 1.25,1.679688 3.593749,1.679688 z" style="font-weight:500;font-family:Roboto;-inkscape-font-specification:'Roboto Medium';fill:#ffffff" id="path6135" /><path d="M 45.441406,87.660156 H 38.585937 V 105.02344 H 33.839844 V 87.660156 H 27.0625 v -3.769531 h 18.378906 z" style="font-weight:500;font-family:Roboto;-inkscape-font-specification:'Roboto Medium';fill:#ffffff" id="path6137" /><path d="m 56.652344,105.41406 q -4.511719,0 -7.324219,-2.83203 -2.792969,-2.851561 -2.792969,-7.578124 v -0.585937 q 0,-3.164063 1.210938,-5.644532 1.230468,-2.5 3.4375,-3.886718 Q 53.390625,83.5 56.105469,83.5 q 4.316406,0 6.660156,2.753906 2.363281,2.753906 2.363281,7.792969 v 1.914062 H 51.320312 q 0.214844,2.617188 1.738282,4.140623 1.542968,1.52344 3.867187,1.52344 3.261719,0 5.3125,-2.636719 l 2.558594,2.441409 q -1.269531,1.89453 -3.398438,2.94922 -2.109375,1.03515 -4.746093,1.03515 z M 56.085937,87.308594 q -1.953125,0 -3.164062,1.367187 -1.191406,1.367188 -1.523438,3.808594 h 9.042969 V 92.132812 Q 60.285156,89.75 59.171875,88.539062 58.058594,87.308594 56.085937,87.308594 Z" style="font-weight:500;font-family:Roboto;-inkscape-font-specification:'Roboto Medium';fill:#ffffff" id="path6139" /><path d="m 81.359375,99.183594 6.25,-15.292969 h 5.9375 V 105.02344 H 88.800781 V 91.039062 L 82.980469,105.02344 H 79.757812 L 73.917969,90.960937 V 105.02344 H 69.171875 V 83.890625 h 5.976562 z" style="font-weight:500;font-family:Roboto;-inkscape-font-specification:'Roboto Medium';fill:#ffffff" id="path6141" /><path d="m 111.49609,105.02344 q -0.3125,-0.60547 -0.54687,-1.97266 -2.26563,2.36328 -5.54688,2.36328 -3.18359,0 -5.19531,-1.8164 -2.011718,-1.81641 -2.011718,-4.492191 0,-3.378907 2.499998,-5.175782 2.51953,-1.816406 7.1875,-1.816406 h 2.91016 v -1.386719 q 0,-1.640625 -0.91797,-2.617187 -0.91797,-0.996094 -2.79297,-0.996094 -1.62109,0 -2.65625,0.820313 -1.03515,0.800781 -1.03515,2.050781 h -4.746099 q 0,-1.738281 1.152344,-3.242188 1.152345,-1.523437 3.125005,-2.382812 Q 104.91406,83.5 107.35547,83.5 q 3.71094,0 5.91797,1.875 2.20703,1.855469 2.26562,5.234375 v 9.531245 q 0,2.85157 0.80078,4.55079 v 0.33203 z m -5.21484,-3.41797 q 1.40625,0 2.63672,-0.6836 1.25,-0.68359 1.875,-1.835933 v -3.984375 h -2.55859 q -2.63672,0 -3.96485,0.917969 -1.32812,0.917969 -1.32812,2.597656 0,1.367188 0.89843,2.187503 0.91797,0.80078 2.44141,0.80078 z" style="font-weight:500;font-family:Roboto;-inkscape-font-specification:'Roboto Medium';fill:#ffffff" id="path6143" /></g></svg>
