<?xml version="1.0" encoding="UTF-8" standalone="no"?>
<!-- Generator: Adobe Illustrator 21.0.0, SVG Export Plug-In . SVG Version: 6.00 Build 0)  -->
<svg xmlns:rdf="http://www.w3.org/1999/02/22-rdf-syntax-ns#" style="image-rendering:optimizeQuality;text-rendering:geometricPrecision;shape-rendering:geometricPrecision" xmlns="http://www.w3.org/2000/svg" xml:space="preserve" viewBox="0 0 93.803802 93.80381" height="93.804" width="93.804" version="1.1" y="0px" x="0px" xmlns:cc="http://creativecommons.org/ns#" xmlns:dc="http://purl.org/dc/elements/1.1/"><metadata><rdf:RDF><cc:Work rdf:about=""><dc:format>image/svg+xml</dc:format><dc:type rdf:resource="http://purl.org/dc/dcmitype/StillImage"/><dc:title/></cc:Work></rdf:RDF></metadata><style type="text/css">
	.st0{fill:#4062ad;}
</style><path d="m36.263 57.494-10.545-10.546 10.592-10.592 10.592-10.592 10.592 10.592 10.592 10.592-10.545 10.546c-5.7997 5.8004-10.587 10.546-10.639 10.546-0.05154 0-4.839-4.7458-10.639-10.546z" stroke-width=".18502" fill="#0055fe"/><path opacity="0.93" d="m0 0v93.804h19.797c13.075 0 19.797-0.06281 19.797-0.185 0-0.10174-0.08323-0.18499-0.185-0.18499-0.12005 0-0.18499-2.4668-0.18499-7.0306v-7.03h-12.106c-10.758 0-12.138-0.03241-12.396-0.29082-0.26203-0.26209-0.29082-3.4365-0.29082-32.18 0-28.743 0.02875-31.918 0.29082-32.18 0.25838-0.25838 1.638-0.29082 12.396-0.29082h12.106v-7.0304c0-4.5638 0.06495-7.0306 0.18499-7.0306 0.10177 0 0.185-0.083239 0.185-0.185 0-0.1222-6.723-0.185-19.797-0.185zm74.1 0c-13.013 0-19.705 0.062804-19.705 0.18499 0 0.10176 0.08322 0.185 0.185 0.185 0.12009 0 0.18526 2.4668 0.18526 7.0306v7.0309h12.013c10.674 0 12.045 0.03246 12.303 0.29082 0.26203 0.26206 0.29082 3.4363 0.29082 32.18 0 28.743-0.02875 31.918-0.29082 32.18-0.25834 0.2585-1.6293 0.29082-12.303 0.29082h-12.013v7.0306c0 4.5638-0.06518 7.0306-0.18526 7.0306-0.10177 0-0.185 0.08325-0.185 0.18499 0 0.12218 6.6917 0.185 19.705 0.185s19.704-0.06281 19.704-0.185c0-0.10174-0.08322-0.18499-0.18498-0.18499-0.12286 0-0.18499-15.634-0.18499-46.532s0.06213-46.532 0.18499-46.532c0.10176 0 0.18498-0.083239 0.18498-0.185 0-0.1242-6.692-0.187-19.704-0.187z" stroke-width=".18502"/></svg>
