<?xml version="1.0" encoding="UTF-8" standalone="no"?>
<!-- Roman Inozemtsev: https://github.com/mir-one/  -->
<svg xmlns:rdf="http://www.w3.org/1999/02/22-rdf-syntax-ns#" style="enable-background:new 0 0 256.7 32.2" xmlns="http://www.w3.org/2000/svg" text-rendering="geometricPrecision" xml:space="preserve" shape-rendering="geometricPrecision" viewBox="0 0 256.7 32.2" version="1.1" image-rendering="optimizeQuality" y="0px" x="0px" xmlns:cc="http://creativecommons.org/ns#" xmlns:dc="http://purl.org/dc/elements/1.1/"><metadata><rdf:RDF><cc:Work rdf:about=""><dc:format>image/svg+xml</dc:format><dc:type rdf:resource="http://purl.org/dc/dcmitype/StillImage"/><dc:title/></cc:Work></rdf:RDF></metadata><style type="text/css">
	.st0{fill:#4062ad;}
	.st1{fill:#161616;}
</style><path d="m78.862 19.455-1.856-1.8563 1.8643-1.8643 1.8643-1.8643 1.8643 1.8643 1.8643 1.8643-1.856 1.8563c-1.0208 1.0209-1.8635 1.8563-1.8726 1.8563-0.009 0-0.85171-0.83532-1.8725-1.8563z" stroke-width=".032565" fill="#0055fe"/><path opacity="0.93" d="m72.479 9.3357v16.511h3.4845c2.3013 0 3.4845-0.01106 3.4845-0.03257 0-0.01791-0.0147-0.03256-0.0326-0.03256-0.0211 0-0.0326-0.43419-0.0326-1.2375v-1.2375h-2.1307c-1.8936 0-2.1364-0.0057-2.1819-0.05119-0.0461-0.04613-0.0512-0.60487-0.0512-5.6641s0.005-5.6179 0.0512-5.664c0.0455-0.04548 0.2883-0.05119 2.1819-0.05119h2.1307v-1.2375c0-0.80328 0.0114-1.2375 0.0326-1.2375 0.0179 0 0.0326-0.01465 0.0326-0.03256 0-0.02151-1.1832-0.03256-3.4845-0.03256zm13.042 0c-2.2904 0-3.4682 0.01105-3.4682 0.03256 0 0.01791 0.0147 0.03256 0.0326 0.03256 0.0211 0 0.0326 0.43419 0.0326 1.2375v1.2375h2.1144c1.8788 0 2.1201 0.0057 2.1656 0.05119 0.0461 0.04613 0.0512 0.60482 0.0512 5.664s-0.005 5.6179-0.0512 5.6641c-0.0455 0.0455-0.28677 0.05119-2.1656 0.05119h-2.1144v1.2375c0 0.80328-0.0115 1.2375-0.0326 1.2375-0.0179 0-0.0326 0.01466-0.0326 0.03256 0 0.0215 1.1778 0.03257 3.4682 0.03257s3.4682-0.01106 3.4682-0.03257c0-0.01791-0.0147-0.03256-0.0325-0.03256-0.0216 0-0.0325-2.7518-0.0325-8.1902s0.0109-8.1902 0.0325-8.1902c0.0179 0 0.0325-0.01465 0.0325-0.03256 0-0.02151-1.1778-0.03256-3.4682-0.03256z" stroke-width=".032565"/><path stroke-width=".045962" d="m159.95 11.175c-0.81644 0-0.96247 0.01174-1.3059 0.10558-1.3298 0.36341-2.2437 1.2134-2.6311 2.4469-0.0913 0.29081-0.10744 0.43762-0.10592 0.96355 0.002 0.96709 0.2278 1.6106 0.76303 2.1828 0.49092 0.52479 1.0513 0.81131 2.3376 1.1952 0.98119 0.29284 1.3007 0.41885 1.6257 0.64124 0.38577 0.264 0.5345 0.54709 0.5345 1.0172 0 0.82256-0.43418 1.2872-1.306 1.3978-0.74406 0.09434-1.3857-0.08178-2.2958-0.63013-0.40743-0.24549-0.55275-0.30923-0.73923-0.32417-0.34982-0.02804-0.47304 0.08172-0.95837 0.85342l-0.41318 0.6569 0.1331 0.13959c0.28746 0.30142 1.0789 0.7529 1.7575 1.0025 0.29962 0.11022 0.92462 0.27013 1.3401 0.34294 0.0632 0.01108 0.46653 0.01431 0.89627 0.0071 0.83031-0.0139 1.17-0.07482 1.7705-0.31734 1.0859-0.43863 1.8842-1.3716 2.1594-2.5236 0.30481-1.2762 0.0633-2.3917-0.6796-3.1384-0.49275-0.49527-1.026-0.76267-2.4769-1.2422-1.0682-0.35306-1.4416-0.52794-1.7238-0.80726-0.24768-0.24515-0.33735-0.4961-0.29762-0.83272 0.0769-0.6509 0.50878-1.0438 1.2508-1.1379 0.65911-0.08357 1.1907 0.04576 2.0548 0.49985 0.5917 0.31096 0.84325 0.31238 1.0802 0.006 0.0489-0.0632 0.23157-0.38673 0.40601-0.719l0.31713-0.60419-0.09-0.09943c-0.13886-0.1535-0.71542-0.49734-1.1202-0.66808-0.20071-0.08465-0.58962-0.21248-0.86425-0.28402-0.46753-0.12179-0.55789-0.13003-1.4186-0.13014zm21.28 0c-0.81645 0-0.96247 0.01174-1.3059 0.10558-1.3298 0.36341-2.2436 1.2134-2.631 2.4469-0.0913 0.29081-0.10744 0.43762-0.10593 0.96355 0.002 0.96709 0.22773 1.6106 0.76296 2.1828 0.49092 0.52479 1.0513 0.81131 2.3376 1.1952 0.98119 0.29284 1.3007 0.41885 1.6257 0.64124 0.38577 0.264 0.53449 0.54709 0.53449 1.0172 0 0.82256-0.43418 1.2872-1.306 1.3978-0.74406 0.09434-1.3856-0.08178-2.2958-0.63013-0.40743-0.24549-0.5528-0.30923-0.73929-0.32417-0.34982-0.02804-0.47297 0.08172-0.9583 0.85342l-0.41319 0.6569 0.13311 0.13959c0.28745 0.30142 1.0789 0.7529 1.7575 1.0025 0.29961 0.11022 0.92462 0.27013 1.3401 0.34294 0.0631 0.01108 0.46645 0.01431 0.8962 0.0071 0.8303-0.0139 1.1701-0.07482 1.7705-0.31734 1.0859-0.43863 1.8842-1.3716 2.1594-2.5236 0.30481-1.2762 0.0632-2.3917-0.67968-3.1384-0.49273-0.49527-1.026-0.76267-2.4769-1.2422-1.0682-0.35306-1.4416-0.52794-1.7238-0.80726-0.24768-0.24515-0.33735-0.4961-0.29762-0.83272 0.0769-0.6509 0.50872-1.0438 1.2507-1.1379 0.65912-0.08357 1.1908 0.04576 2.0549 0.49985 0.5917 0.31096 0.84317 0.31238 1.0801 0.006 0.0489-0.0632 0.23164-0.38673 0.40608-0.719l0.31714-0.60419-0.09-0.09943c-0.13886-0.1535-0.71549-0.49734-1.1203-0.66808-0.20071-0.08465-0.58963-0.21248-0.86426-0.28402-0.46753-0.12179-0.55788-0.13003-1.4186-0.13014zm-79.169 0.11482v2.0224h1.5887c1.0072 0 1.6212 0.01745 1.6776 0.04761 0.087 0.04657 0.0889 0.14917 0.0889 4.8643 0 2.6492 0.0138 4.8305 0.0306 4.8473 0.0168 0.01685 0.60627 0.03064 1.3099 0.03064h1.2793v-9.7002l0.11787-0.04478c0.0682-0.02593 0.7754-0.04485 1.6776-0.04485h1.5597v-2.0224h-4.6651zm11.261 0v11.766h2.6198v-4.3227l0.11786-0.04485c0.29394-0.11176 1.05-0.01963 1.2799 0.15595 0.0966 0.07375 0.47978 0.70027 1.1991 1.9604 0.58141 1.0186 1.1239 1.9201 1.2056 2.0032 0.0817 0.08314 0.2264 0.17282 0.32168 0.19928 0.16165 0.04489 2.7701 0.07302 2.7701 0.02988 0-0.05116-2.5133-4.1201-2.6428-4.2786-0.0826-0.10112-0.26539-0.25626-0.40615-0.34474-0.14304-0.08991-0.25693-0.19542-0.25814-0.23916-0.002-0.05281 0.12864-0.14595 0.40001-0.28643 0.74543-0.3859 1.228-0.87814 1.5799-1.6116 0.22693-0.47295 0.31604-0.91238 0.31604-1.5583 0-1.9322-1.2169-3.095-3.5378-3.3806-0.22265-0.02739-1.3695-0.04796-2.6773-0.04796zm24.314 0v11.766h2.6382c2.4288 0 2.6809-0.0073 3.1762-0.09198 2.4913-0.42592 4.2184-2.0832 4.7416-4.5502 0.1169-0.55115 0.1169-1.9308 0-2.4819-0.52286-2.465-2.2577-4.1255-4.7565-4.5527-0.47653-0.08147-0.75759-0.08943-3.1613-0.08943zm13.007 0v11.766h2.6658v-11.766h-1.3329zm15.425 0c-0.69767 0-1.2685 0.01094-1.2685 0.02428s0.91817 1.613 2.0404 3.5549c1.1222 1.9418 2.0736 3.5949 2.1142 3.6734 0.0647 0.12519 0.0738 0.41139 0.0738 2.3282v2.1854h2.6198v-2.1862c0-1.5415 0.0154-2.2158 0.0522-2.2866 0.0287-0.05522 0.98008-1.7076 2.1142-3.6719s2.0621-3.5828 2.0621-3.5965c0-0.01373-0.55913-0.02498-1.2425-0.02498-1.3698 0-1.427 0.0096-1.685 0.28181-0.0989 0.10438-0.51937 0.94881-1.2901 2.5908-0.62885 1.3398-1.1681 2.4945-1.1983 2.566-0.0629 0.14878-0.14351 0.14198-0.22473-0.01884-0.0309-0.06117-0.57498-1.207-1.2091-2.5463-0.63414-1.3393-1.2023-2.4997-1.2626-2.5788-0.21439-0.28106-0.29228-0.29464-1.696-0.29464zm-37.547 0.02298-2.245 5.8142c-1.2348 3.1978-2.2565 5.8503-2.2706 5.8945-0.0239 0.07504 0.0464 0.08044 1.0462 0.08018 0.64007 0 1.1453-0.02068 1.2545-0.05099 0.10055-0.02791 0.25769-0.12602 0.34915-0.21805 0.14568-0.14657 0.20997-0.29835 0.51883-1.2244 0.1939-0.58142 0.37213-1.0881 0.39608-1.126 0.0375-0.05942 0.34755-0.0707 2.245-0.0817 1.2657-0.0074 2.2482 0.0052 2.3113 0.02953 0.0947 0.03649 0.15987 0.19318 0.47398 1.1388 0.31939 0.96158 0.38456 1.1171 0.52958 1.2638 0.0912 0.09227 0.24738 0.19006 0.34819 0.21805 0.20555 0.05707 2.3207 0.07236 2.3189 0.01677-0.00065-0.01896-1.02-2.6715-2.2653-5.8945l-2.2641-5.8602h-1.3734zm-11.998 1.8685c0.49174-0.000872 1.2222 0.04464 1.4614 0.10785 1.0022 0.26487 1.48 1.0967 1.2502 2.1767-0.1499 0.70488-0.56531 1.1338-1.3158 1.3589-0.30078 0.09021-1.7087 0.14617-1.8729 0.07445l-0.10337-0.04513v-3.5903l0.12635-0.04996c0.0563-0.02225 0.23057-0.03223 0.45411-0.03264zm24.757 0.05493c0.66517-0.0039 1.4732 0.02802 1.7567 0.09191 0.93316 0.2103 1.6902 0.79984 2.1042 1.6386 0.38645 0.78296 0.54654 1.7512 0.45113 2.7284-0.10756 1.1016-0.42571 1.8764-1.0141 2.4697-0.54466 0.54915-1.1256 0.82066-1.9548 0.91366-0.22751 0.02552-0.82069 0.04651-1.3181 0.04678-0.7613 0.000441-0.91588-0.01111-0.97666-0.0719-0.0645-0.06451-0.0723-0.47829-0.0715-3.8722 0-2.3228 0.0178-3.8269 0.0445-3.869 0.0306-0.04822 0.46151-0.07288 0.97887-0.0759zm-11.393 0.55892c0.0812 0.0026 0.1713 0.25291 0.34777 0.78069 0.14369 0.42974 0.50654 1.5027 0.80643 2.3844 0.521 1.5319 0.54143 1.606 0.45914 1.6661-0.12619 0.09226-3.0901 0.09239-3.2163 0-0.0822-0.06008-0.0692-0.11173 0.29657-1.1835 0.21038-0.61638 0.49676-1.4412 0.63641-1.833 0.13966-0.39182 0.32985-0.96064 0.42264-1.264 0.11096-0.3627 0.17567-0.55316 0.24731-0.55085z"/></svg>
