<?xml version="1.0" encoding="utf-8"?>
<!-- Roman Inozemtsev: https://github.com/mir-one/  -->
<svg version="1.1"
	 id="Слой_1" shape-rendering="geometricPrecision" image-rendering="optimizeQuality" text-rendering="geometricPrecision"
	 xmlns="http://www.w3.org/2000/svg" xmlns:xlink="http://www.w3.org/1999/xlink" x="0px" y="0px" viewBox="0 0 114 114"
	 style="enable-background:new 0 0 114 114;" xml:space="preserve">
<style type="text/css">
	.st0{fill:#FF5700;}
</style>
<path id="Layer_x0020_1" class="st0" d="M4.2,46.9L46.9,4.2c5.5-5.5,14.6-5.5,20.1,0l42.8,42.8c5.5,5.5,5.5,14.6,0,20.1l-42.8,42.8
	c-5.5,5.5-14.6,5.5-20.1,0L4.2,67.1C-1.4,61.5-1.4,52.5,4.2,46.9z M75,32l-13.4-3.2l-5.5,15.8c-4.9,0.5-6,0.2-11.3,1.7
	c-4.7,1.4-8.8,3.9-9.3,4c-2.7-2.7-8.3-2.7-11.4,1.3c-1.2,1.5-2,4.1-1.4,6.6c0.3,1.2,0.7,2,1.3,2.8c0.6,0.9,1.3,1.4,2.2,2.1
	c0,2.5-0.3,3.6,0.3,6.1c4.1,15.8,33,23,52.1,11.4c2.8-1.7,5.3-4.1,6.9-6.6c2.1-3.1,3-6.3,2.5-10.9c1.4-0.7,3-2.6,3.5-4.8
	c1.1-4.5-1.7-9-6.5-9.8c-2.9-0.5-4.8,0.6-6.5,1.8c-0.1,0-4.9-2.7-8.8-3.8c-3.9-1.2-6.8-1.3-10.9-1.8l4.5-12.8
	c1.5,0.2,7.3,1.7,9.6,2.3c2.3,0.5,1.4,0,1.9,2c1.7,6.9,12.3,6.2,12.8-1.1c0.4-4.7-4.1-8.1-8.4-6.8c-1.1,0.3-1.8,0.8-2.5,1.4
	c-0.3,0.3-0.7,0.6-1,1.1C75.4,31.2,75.3,31.6,75,32z M26.8,60.4c0.9-3.4,3.6-5.9,6-8.1l0.5-0.5c-0.9-0.8-2.6-1.1-3.9-0.8
	C24.5,52,23.7,58.3,26.8,60.4z M46.2,57c-6.6,1.3-4.5,11,2,9.6C54.3,65.3,52.4,55.8,46.2,57z M66.8,57c-6.5,1-4.9,10.9,1.7,9.7
	C74.6,65.5,73.1,56,66.8,57z M56.1,78.8c3.1,0,5.5-0.1,8.4-1.3c5.8-2.3,4.6-4.3,3.4-4.5c-1.1-0.2-1.5,1-4,2c-3.9,1.6-9.8,1.8-13.7,0
	c-1-0.5-1.7-0.8-2.4-1.5c-0.7-0.6-2.1-0.9-2.4,0.5C44.8,76.5,52.3,78.8,56.1,78.8z M80.6,51.8l1,1c2.1,1.8,2.8,2.7,4.3,5.1
	c0.4,0.7,1,2.1,1.3,2.6c2.9-2.1,2.5-8.4-2.5-9.4C82.9,50.7,82,51.2,80.6,51.8z M80.5,30.6c-5.5,1-3.8,8.8,1.3,7.8
	C86.9,37.5,85.5,29.7,80.5,30.6z"/>
</svg>
