<?xml version="1.0" encoding="UTF-8" standalone="no"?>
<!-- Roman Inozemtsev: https://github.com/mir-one/  -->
<svg xmlns:rdf="http://www.w3.org/1999/02/22-rdf-syntax-ns#" xmlns="http://www.w3.org/2000/svg" xml:space="preserve" height="24" width="24" version="1.1" y="0px" x="0px" xmlns:cc="http://creativecommons.org/ns#" xmlns:dc="http://purl.org/dc/elements/1.1/" viewBox="0 0 24 24"><metadata><rdf:RDF><cc:Work rdf:about=""><dc:format>image/svg+xml</dc:format><dc:type rdf:resource="http://purl.org/dc/dcmitype/StillImage"/><dc:title/></cc:Work></rdf:RDF></metadata><style type="text/css">
	.st0{fill:#21409a;}
	.st1{fill:#FFFFFF;}
</style><path style="image-rendering:optimizeQuality;shape-rendering:geometricPrecision" fill="#21409a" d="m22 24h-20c-1.1 0-2-0.9-2-2v-20c0-1.1 0.89998-2 2-2h20c1.1 0 2 0.89998 2 2v20c0 1.1-0.9 2-2 2z" class="st0"/><path style="image-rendering:optimizeQuality;shape-rendering:geometricPrecision" fill="#fff" d="m21.498 23h-19.2c-0.80001 0-1.4-0.6-1.4-1.4v-19.2c0-0.80001 0.6-1.4 1.4-1.4h19.3c0.70001 0 1.3 0.6 1.3 1.4v19.3c0 0.70001-0.6 1.3-1.4 1.3z" class="st1"/><path stroke-width=".021902" fill="#21409a" d="m10.843 13.254-1.2483-1.2484 1.2538-1.2538 1.2538-1.2538 1.2538 1.2538 1.2538 1.2538-1.2483 1.2484c-0.68656 0.68663-1.2533 1.2484-1.2594 1.2484-0.006 0-0.57282-0.56179-1.2594-1.2484z"/><path opacity="0.93" d="m6.6525 6.4477v11.104h2.3435c1.5477 0 2.3435-0.0074 2.3435-0.0219 0-0.01201-0.0099-0.0219-0.0219-0.0219-0.01428 0-0.0219-0.29201-0.0219-0.83224v-0.833h-1.4335c-1.2735 0-1.4369-0.0038-1.4675-0.03442-0.03103-0.03103-0.03442-0.40681-0.03442-3.8094s0.0033-3.7783 0.03442-3.8093c0.03059-0.03058 0.1939-0.03442 1.4675-0.03442h1.4335v-0.8315c0-0.54025 0.0077-0.83224 0.0219-0.83224 0.01201 0 0.0219-0.00986 0.0219-0.021899 0-0.014468-0.79578-0.021899-2.3435-0.021899zm8.772 0c-1.5405 0-2.3326 0.00743-2.3326 0.021899 0 0.012047 0.0099 0.021899 0.0219 0.021899 0.01428 0 0.02194 0.29202 0.02194 0.83224v0.83232h1.4221c1.2636 0 1.4259 0.0038 1.4565 0.03442 0.03101 0.03102 0.03442 0.40678 0.03442 3.8093 0 3.4026-0.0035 3.7784-0.03442 3.8094-0.03057 0.03059-0.19287 0.03442-1.4565 0.03442h-1.4221v0.83224c0 0.54025-0.0077 0.83224-0.02194 0.83224-0.01201 0-0.0219 0.01-0.0219 0.0219 0 0.01449 0.79218 0.0219 2.3326 0.0219 1.5405 0 2.3326-0.0074 2.3326-0.0219 0-0.012-0.0099-0.0219-0.0219-0.0219-0.01449 0-0.0219-1.8507-0.0219-5.5083s0.0074-5.5083 0.0219-5.5083c0.012 0 0.0219-0.00986 0.0219-0.021899 0-0.014468-0.7921-0.021899-2.3326-0.021897z" stroke-width=".021902" fill="#21409a"/></svg>
