<?xml version="1.0" encoding="UTF-8" standalone="no"?>
<!-- Roman Inozemtsev: https://github.com/mir-one/  -->
<svg xmlns:rdf="http://www.w3.org/1999/02/22-rdf-syntax-ns#" style="image-rendering:optimizeQuality;text-rendering:geometricPrecision;shape-rendering:geometricPrecision" xmlns="http://www.w3.org/2000/svg" xml:space="preserve" viewBox="0 0 118.05693 17.100497" height="17.1" width="118.06" version="1.1" y="0px" x="0px" xmlns:cc="http://creativecommons.org/ns#" xmlns:dc="http://purl.org/dc/elements/1.1/"><metadata><rdf:RDF><cc:Work rdf:about=""><dc:format>image/svg+xml</dc:format><dc:type rdf:resource="http://purl.org/dc/dcmitype/StillImage"/><dc:title/></cc:Work></rdf:RDF></metadata><style type="text/css">
	.st0{fill:#4062ad;}
	.st1{fill:#161616;}
</style><path stroke-width=".065485" d="m82.479 0c-1.1633 0-1.3713 0.016723-1.8606 0.15042-1.8947 0.51778-3.1968 1.7288-3.7487 3.4863-0.13004 0.41434-0.15307 0.62351-0.15085 1.3728 0.0047 1.3779 0.32456 2.2947 1.0872 3.1099 0.69943 0.74771 1.4979 1.1559 3.3306 1.7029 1.398 0.41723 1.8532 0.59676 2.3163 0.91363 0.54963 0.37614 0.76153 0.77948 0.76153 1.4492 0 1.172-0.6186 1.834-1.8608 1.9915-1.0601 0.13441-1.9744-0.11652-3.2711-0.8978-0.58052-0.34977-0.78756-0.44058-1.0532-0.46188-0.49846-0.03995-0.67403 0.11644-1.3655 1.2159l-0.58872 0.93595 0.18964 0.19889c0.40958 0.42946 1.5372 1.0727 2.5041 1.4284 0.42689 0.15704 1.3174 0.38488 1.9093 0.48862 0.09 0.01572 0.6647 0.02037 1.277 0.01023 1.183-0.01981 1.667-0.1066 2.5225-0.45214 1.5472-0.62495 2.6846-1.9542 3.0766-3.5955 0.43429-1.8183 0.0902-3.4076-0.96831-4.4715-0.70201-0.70572-1.4618-1.0867-3.529-1.77-1.5219-0.50304-2.054-0.7522-2.4561-1.1502-0.35287-0.34929-0.4806-0.70683-0.42399-1.1864 0.10941-0.9274 0.72488-1.4872 1.782-1.6213 0.93911-0.11907 1.6966 0.065191 2.9277 0.71218 0.84306 0.44305 1.2014 0.44508 1.539 0.00868 0.0697-0.090043 0.32994-0.55101 0.57849-1.0244l0.45184-0.86084-0.12815-0.14166c-0.199-0.2193-1.021-0.70915-1.598-0.95242-0.286-0.12061-0.84-0.30274-1.231-0.40466-0.666-0.17352-0.795-0.18527-2.021-0.18542zm30.32 0c-1.1632 0-1.3713 0.016723-1.8606 0.15042-1.8947 0.51778-3.1967 1.7288-3.7486 3.4863-0.13004 0.41434-0.15307 0.62351-0.15085 1.3728 0.005 1.3779 0.32448 2.2947 1.0871 3.1099 0.69943 0.74771 1.4979 1.1559 3.3306 1.7029 1.398 0.41723 1.8532 0.59676 2.3163 0.91363 0.54965 0.37614 0.76153 0.77948 0.76153 1.4492 0 1.172-0.61861 1.834-1.8608 1.9915-1.0601 0.13441-1.9743-0.11652-3.271-0.8978-0.58049-0.34977-0.78764-0.44058-1.0533-0.46188-0.49846-0.03995-0.6739 0.11644-1.3654 1.2159l-0.58869 0.93595 0.18964 0.19889c0.40954 0.42946 1.5372 1.0727 2.504 1.4284 0.42691 0.15704 1.3174 0.38488 1.9094 0.48862 0.0901 0.01572 0.6646 0.02037 1.2769 0.01023 1.183-0.01981 1.6671-0.1066 2.5226-0.45214 1.5472-0.62495 2.6846-1.9542 3.0766-3.5955 0.4343-1.8183 0.0901-3.4076-0.96839-4.4715-0.70205-0.70572-1.4618-1.0867-3.529-1.77-1.5219-0.50304-2.0539-0.7522-2.456-1.1502-0.35287-0.34929-0.48062-0.70683-0.42401-1.1864 0.1096-0.9274 0.72479-1.4872 1.7819-1.6213 0.93909-0.11907 1.6966 0.065191 2.9278 0.71218 0.84306 0.44305 1.2014 0.44508 1.5389 0.00868 0.0697-0.090043 0.33004-0.55101 0.57857-1.0244l0.45184-0.86084-0.12821-0.14166c-0.19783-0.21871-1.0194-0.70861-1.5962-0.95187-0.28598-0.12061-0.8401-0.30274-1.2314-0.40466-0.66-0.17404-0.79-0.18579-2.01-0.18594zm-112.8 0.16359v2.8814h2.2636c1.4351 0 2.3099 0.024865 2.3902 0.067836 0.12402 0.066363 0.1267 0.21254 0.1267 6.9305 0 3.7745 0.01964 6.8824 0.04368 6.9064 0.02402 0.02402 0.8638 0.04366 1.8663 0.04366h1.8226v-13.821l0.16792-0.063802c0.09718-0.036943 1.1048-0.063907 2.3902-0.063907h2.2223v-2.8817h-6.6462zm16.044 0v16.764h3.7327v-6.1589l0.16793-0.06392c0.4188-0.15922 1.4961-0.02795 1.8236 0.22219 0.13761 0.10509 0.68359 0.99773 1.7084 2.7932 0.82839 1.4513 1.6014 2.7357 1.7177 2.8541 0.11636 0.11846 0.32259 0.24624 0.45834 0.28393 0.23033 0.06396 3.9468 0.10405 3.9468 0.04258 0-0.0729-3.5809-5.8703-3.7654-6.0961-0.11771-0.14408-0.37813-0.36512-0.57867-0.49118-0.20379-0.12811-0.36608-0.27842-0.3678-0.34075-0.0022-0.07525 0.1833-0.20795 0.56994-0.4081 1.0621-0.54982 1.7496-1.2512 2.251-2.2962 0.32331-0.67386 0.45028-1.2999 0.45028-2.2203 0-2.753-1.7338-4.4097-5.0406-4.8166-0.31722-0.039032-1.9512-0.068329-3.8146-0.068329zm34.642 0v16.764h3.7589c3.4605 0 3.8197-0.01036 4.5254-0.13104 3.5496-0.60683 6.0103-2.9681 6.7558-6.483 0.16655-0.78527 0.16655-2.751 0-3.5362-0.745-3.5125-3.217-5.8783-6.777-6.487-0.679-0.11607-1.08-0.12741-4.504-0.12741zm18.532 0v16.764h3.7981v-16.764h-1.8991zm21.977 0c-0.99403 0-1.8073 0.015587-1.8073 0.034602 0 0.019002 1.3082 2.2982 2.9071 5.0649 1.599 2.7667 2.9545 5.122 3.0124 5.2338 0.0923 0.17837 0.10512 0.58614 0.10512 3.3172v3.1138h3.7326v-3.1149c0-2.1962 0.0219-3.1571 0.0743-3.2579 0.0409-0.07867 1.3964-2.4329 3.0123-5.2316 1.6159-2.7988 2.938-5.1047 2.938-5.1243 0-0.019566-0.7966-0.035593-1.7702-0.035593-1.9516 0-2.0332 0.013674-2.4007 0.40151-0.14101 0.14872-0.74 1.3519-1.8381 3.6914-0.89599 1.9089-1.6643 3.5541-1.7073 3.656-0.0896 0.21197-0.20448 0.2023-0.32023-0.026836-0.044-0.087157-0.81923-1.7197-1.7227-3.628-0.90353-1.9082-1.713-3.5616-1.799-3.6743-0.30546-0.40046-0.41642-0.4198-2.4164-0.4198zm-53.497 0.03274-3.199 8.284c-1.7593 4.5561-3.2151 8.3354-3.2351 8.3984-0.03395 0.10691 0.06607 0.11462 1.4906 0.11423 0.91196 0 1.6318-0.02944 1.7873-0.07266 0.14326-0.03975 0.36716-0.17956 0.49747-0.31067 0.20758-0.20883 0.29916-0.42508 0.73922-1.7446 0.27626-0.82839 0.53022-1.5503 0.56432-1.6044 0.05345-0.08466 0.49517-0.10074 3.1986-0.1164 1.8033-0.01036 3.2032 0.0073 3.2931 0.04208 0.13485 0.05201 0.22778 0.27524 0.67531 1.6226 0.45507 1.37 0.54791 1.5917 0.75455 1.8007 0.12996 0.13146 0.35245 0.27079 0.49609 0.31067 0.29287 0.08131 3.3065 0.10311 3.3039 0.0239 0-0.02701-1.4533-3.8063-3.2275-8.3984l-3.226-8.3494h-1.957zm-17.094 2.6623c0.70063-0.00135 1.7414 0.063598 2.0822 0.15366 1.4279 0.37739 2.1086 1.5625 1.7813 3.1014-0.21359 1.0043-0.80546 1.6155-1.8747 1.9362-0.42855 0.12852-2.4345 0.20826-2.6685 0.10607l-0.147-0.0644v-5.1154l0.18002-0.07118c0.08024-0.03171 0.32853-0.045926 0.64699-0.046503zm35.274 0.078261c0.94773-0.00553 2.0989 0.039926 2.5029 0.13095 1.3296 0.29963 2.4082 1.1396 2.9981 2.3346 0.55062 1.1156 0.77872 2.4951 0.64279 3.8874-0.15326 1.5695-0.60657 2.6734-1.4449 3.5187-0.77601 0.78242-1.6037 1.1693-2.7852 1.3018-0.32415 0.03634-1.1693 0.06628-1.8781 0.06666-1.0847 0.000678-1.3049-0.01591-1.3915-0.10244-0.09193-0.09191-0.1029-0.68146-0.10196-5.517 0-3.3095 0.02522-5.4525 0.06331-5.5125 0.04356-0.068704 0.65755-0.10384 1.3947-0.10814zm-16.234 0.7963c0.11569 0.00374 0.24408 0.36035 0.49551 1.1123 0.20472 0.61229 0.72171 2.141 1.149 3.3973 0.74232 2.1826 0.7714 2.2882 0.65417 2.3739-0.17977 0.13144-4.4027 0.13163-4.5825 0-0.11706-0.08561-0.09868-0.15919 0.42255-1.6863 0.29975-0.87821 0.70778-2.0534 0.90675-2.6117 0.19898-0.55826 0.46996-1.3687 0.60216-1.8009 0.158-0.5168 0.25-0.7881 0.352-0.7848z"/></svg>
