<?xml version="1.0" encoding="UTF-8" standalone="no"?>
<!-- Roman Inozemtsev: https://github.com/mir-one/  -->
<svg xmlns:rdf="http://www.w3.org/1999/02/22-rdf-syntax-ns#" style="image-rendering:optimizeQuality;text-rendering:geometricPrecision;shape-rendering:geometricPrecision" xmlns="http://www.w3.org/2000/svg" xml:space="preserve" viewBox="0 0 231.22755 151.90312" height="151.9" width="231.23" version="1.1" y="0px" x="0px" xmlns:cc="http://creativecommons.org/ns#" xmlns:dc="http://purl.org/dc/elements/1.1/"><metadata><rdf:RDF><cc:Work rdf:about=""><dc:format>image/svg+xml</dc:format><dc:type rdf:resource="http://purl.org/dc/dcmitype/StillImage"/><dc:title/></cc:Work></rdf:RDF></metadata><style type="text/css">
	.st0{fill:#4062ad;}
	.st1{fill:#FFFFFF;}
</style><path d="m103.64 64.699-11.866-11.868 11.919-11.919 11.919-11.919 11.919 11.919 11.919 11.919-11.866 11.868c-6.5266 6.5273-11.914 11.868-11.972 11.868-0.0581 0-5.4454-5.3406-11.972-11.868z" stroke-width=".20820" fill="#0055fe"/><path opacity="0.93" d="m62.834 0v105.56h22.278c14.713 0 22.278-0.0707 22.278-0.20817 0-0.1145-0.0937-0.20819-0.20819-0.20819-0.13511 0-0.20818-2.776-0.20818-7.9117v-7.912h-13.619c-12.107 0-13.659-0.0365-13.95-0.32727-0.29487-0.29494-0.32728-3.8672-0.32728-36.213s0.0322-35.918 0.32728-36.213c0.29077-0.29077 1.8432-0.32727 13.95-0.32727h13.619v-7.912c0-5.1357 0.0731-7.9117 0.20818-7.9117 0.11447 0 0.20819-0.0937 0.20819-0.20819 0-0.13743-7.565-0.2081-22.278-0.2081zm83.386 0c-14.644 0-22.174 0.0707-22.174 0.20817 0 0.11452 0.0936 0.20819 0.20819 0.20819 0.13511 0 0.2085 2.776 0.2085 7.9117v7.912h13.518c12.012 0 13.555 0.0365 13.845 0.32727 0.29486 0.2949 0.32728 3.8669 0.32728 36.213s-0.0322 35.918-0.32728 36.213c-0.29071 0.29089-1.8334 0.32727-13.845 0.32727h-13.518v7.9117c0 5.1357-0.0734 7.9117-0.2085 7.9117-0.11457 0-0.20819 0.0937-0.20819 0.20819 0 0.13749 7.5302 0.20817 22.174 0.20817s22.174-0.0707 22.174-0.20817c0-0.1145-0.0937-0.20819-0.20818-0.20819-0.13829 0-0.2082-17.593-0.2082-52.363s0.0699-52.363 0.2082-52.363c0.11451 0 0.20818-0.0937 0.20818-0.20819 0-0.13933-7.53-0.21-22.17-0.21z" stroke-width=".20820" fill="#fff"/><path stroke-width=".12826" fill="#fff" d="m161.54 118.41c-2.2784 0-2.6859 0.0328-3.6442 0.29462-3.7109 1.0141-6.2613 3.3861-7.3422 6.8283-0.25481 0.81154-0.29983 1.2212-0.29559 2.6889 0.008 2.6987 0.6357 4.4945 2.1293 6.0912 1.3699 1.4645 2.9338 2.264 6.5233 3.3353 2.7381 0.8172 3.6298 1.1688 4.5367 1.7894 1.0765 0.73672 1.4916 1.5267 1.4916 2.8385 0 2.2954-1.2116 3.5922-3.6446 3.9006-2.0763 0.26326-3.867-0.2282-6.4068-1.7584-1.137-0.68506-1.5425-0.86293-2.0629-0.90463-0.97624-0.0782-1.3201 0.22806-2.6744 2.3816l-1.153 1.8332 0.37145 0.38954c0.80218 0.84115 3.0108 2.101 4.9044 2.7977 0.8361 0.30759 2.5802 0.75383 3.7397 0.95702 0.17634 0.031 1.3019 0.0399 2.5011 0.0199 2.3171-0.0388 3.2651-0.20878 4.9407-0.88557 3.0304-1.224 5.2581-3.8274 6.0259-7.0422 0.85062-3.5614 0.17657-6.6742-1.8965-8.7579-1.375-1.3821-2.863-2.1283-6.912-3.4666-2.9809-0.98525-4.023-1.4733-4.8105-2.2527-0.69113-0.68413-0.94137-1.3844-0.83046-2.3238 0.21441-1.8164 1.4198-2.9129 3.4903-3.1755 1.8393-0.23321 3.3228 0.12767 5.7342 1.3949 1.6512 0.86775 2.3532 0.87173 3.0143 0.0169 0.13636-0.17637 0.64618-1.0792 1.133-2.0065l0.88496-1.686-0.25108-0.27746c-0.38748-0.42836-1.9964-1.3879-3.1261-1.8644-0.56009-0.23622-1.6454-0.59295-2.4118-0.79257-1.3046-0.33985-1.5568-0.36287-3.9586-0.36316zm59.384 0c-2.2784 0-2.6859 0.0328-3.6441 0.29462-3.7109 1.0141-6.2612 3.3861-7.3421 6.8283-0.25482 0.81154-0.2998 1.2212-0.29556 2.6889 0.008 2.6987 0.63547 4.4945 2.1291 6.0912 1.3699 1.4645 2.9338 2.264 6.5233 3.3353 2.7381 0.8172 3.6297 1.1688 4.5366 1.7894 1.0766 0.73672 1.4916 1.5267 1.4916 2.8385 0 2.2954-1.2116 3.5922-3.6446 3.9006-2.0763 0.26326-3.8668-0.2282-6.4066-1.7584-1.137-0.68506-1.5427-0.86293-2.0631-0.90463-0.97625-0.0782-1.3199 0.22806-2.6742 2.3816l-1.153 1.8332 0.37143 0.38954c0.80215 0.84115 3.0108 2.101 4.9044 2.7977 0.83607 0.30759 2.5802 0.75383 3.7396 0.95702 0.17638 0.031 1.3017 0.0399 2.501 0.0199 2.3171-0.0388 3.2652-0.20878 4.9408-0.88557 3.0304-1.224 5.2581-3.8274 6.0259-7.0422 0.85059-3.5614 0.17635-6.6742-1.8967-8.7579-1.375-1.3821-2.8631-2.1283-6.912-3.4666-2.9808-0.98525-4.0228-1.4733-4.8103-2.2527-0.69117-0.68413-0.94137-1.3844-0.8305-2.3238 0.21441-1.8164 1.4196-2.9129 3.4901-3.1755 1.8393-0.23321 3.323 0.12767 5.7343 1.3949 1.6512 0.86775 2.353 0.87173 3.0141 0.0169 0.13636-0.17637 0.64641-1.0792 1.1332-2.0065l0.885-1.686-0.25108-0.27746c-0.38752-0.42836-1.9967-1.3879-3.1264-1.8644-0.56009-0.23622-1.6454-0.59295-2.4118-0.79257-1.3046-0.33985-1.5568-0.36287-3.9586-0.36316zm-220.92 0.32v5.6434h4.4335c2.8108 0 4.5242 0.0487 4.6815 0.13286 0.24286 0.12999 0.24818 0.41629 0.24818 13.574 0 7.3928 0.0385 13.48 0.0856 13.527 0.047 0.047 1.6918 0.0855 3.6553 0.0854h3.57v-27.07l0.32891-0.12496c0.19029-0.0723 2.1638-0.12517 4.6814-0.12517h4.3526v-5.6434h-13.018zm31.424 0v32.834h7.3108v-12.063l0.32888-0.12517c0.82028-0.31185 2.9302-0.0548 3.5718 0.4352 0.26948 0.20582 1.3389 1.9542 3.3461 5.4708 1.6225 2.8426 3.1364 5.3581 3.3643 5.5901 0.22795 0.23202 0.63187 0.48228 0.89773 0.5561 0.4511 0.12528 7.7302 0.20379 7.7302 0.0834 0-0.14278-7.0136-11.498-7.375-11.94-0.23058-0.28218-0.74064-0.71511-1.1334-0.96202-0.39915-0.25091-0.71701-0.54533-0.72035-0.6674-0.005-0.14738 0.35897-0.40729 1.1163-0.79932 2.0802-1.0769 3.4268-2.4505 4.4088-4.4974 0.63323-1.3198 0.88191-2.5461 0.88191-4.3487 0-5.392-3.3959-8.6369-9.8726-9.4338-0.6213-0.0764-3.8216-0.13383-7.4712-0.13383zm67.85 0v32.834h7.3623c6.7779 0 7.4813-0.0204 8.8634-0.25668 6.9523-1.1886 11.772-5.8134 13.232-12.698 0.32623-1.538 0.32623-5.3881 0-6.9261-1.4591-6.8788-6.3002-11.513-13.274-12.705-1.3298-0.22734-2.1141-0.24955-8.8218-0.24955zm36.298 0v32.834h7.4391v-32.834h-3.7197zm43.044 0c-1.9469 0-3.5398 0.0305-3.5398 0.0678s2.5623 4.5013 5.6939 9.9202c3.1317 5.4189 5.7867 10.032 5.9 10.251 0.18065 0.34937 0.20603 1.148 0.20603 6.4971v6.0987h7.3108v-6.1008c0-4.3016 0.043-6.1835 0.14558-6.381 0.0801-0.15409 2.7351-4.7651 5.9-10.247 3.1649-5.4817 5.7544-9.9981 5.7544-10.036 0-0.0383-1.5603-0.0697-3.4672-0.0697-3.8225 0-3.9823 0.0267-4.7021 0.78641-0.27597 0.29129-1.4493 2.6478-3.6 7.23-1.7549 3.7388-3.2596 6.9611-3.344 7.1606-0.17547 0.41518-0.40049 0.39623-0.62714-0.0525-0.0863-0.17071-1.6046-3.3683-3.3742-7.1058s-3.3551-6.9758-3.5234-7.1964c-0.59828-0.78434-0.81563-0.82223-4.7329-0.82223zm-104.78 0.0641-6.2649 16.225c-3.4457 8.9237-6.2971 16.326-6.3363 16.449-0.0665 0.20939 0.12943 0.22448 2.9196 0.22375 1.7862 0 3.196-0.0577 3.5007-0.14229 0.28058-0.0779 0.7191-0.35169 0.97434-0.60849 0.40658-0.40902 0.58598-0.83257 1.4478-3.4169 0.54111-1.6225 1.0385-3.0365 1.1053-3.1423 0.10472-0.16583 0.96988-0.19731 6.2649-0.228 3.532-0.0205 6.2738 0.0144 6.4499 0.0824 0.26416 0.10188 0.44619 0.53909 1.3227 3.178 0.89133 2.6834 1.0732 3.1174 1.4779 3.5269 0.25451 0.25751 0.69028 0.53038 0.97162 0.60849 0.57363 0.15924 6.4762 0.20193 6.4711 0.0467 0-0.0529-2.8464-7.455-6.3215-16.449l-6.313-16.36h-3.8325zm-33.481 5.2143c1.3723-0.002 3.4107 0.12457 4.0782 0.30097 2.7967 0.73915 4.1299 3.0604 3.489 6.0744-0.41831 1.967-1.5776 3.1641-3.6719 3.7922-0.83935 0.25174-4.7683 0.4079-5.2266 0.20776l-0.28844-0.12593v-10.019l0.35258-0.13942c0.15717-0.0621 0.64345-0.0899 1.2672-0.0911zm69.087 0.15329c1.8562-0.0106 4.111 0.0782 4.9021 0.25647 2.6041 0.58686 4.7168 2.232 5.8721 4.5727 1.0784 2.1849 1.5252 4.8869 1.2589 7.6139-0.30013 3.074-1.188 5.2362-2.83 6.8918-1.5199 1.5324-3.1409 2.2901-5.4552 2.5497-0.63487 0.0712-2.2902 0.12979-3.6784 0.13055-2.1245 0.001-2.5558-0.031-2.7255-0.20065-0.18004-0.18002-0.20154-1.3347-0.19971-10.806 0-6.482 0.0495-10.679 0.12402-10.797 0.0853-0.13458 1.2879-0.20339 2.7316-0.21181zm-31.795 1.5597c0.22653 0.007 0.47804 0.70577 0.97048 2.1786 0.40099 1.1992 1.4136 4.1935 2.2504 6.654 1.4539 4.2748 1.5109 4.4816 1.2813 4.6495-0.35216 0.25746-8.6232 0.25784-8.9753 0-0.22929-0.16766-0.19324-0.31178 0.82763-3.3028 0.58708-1.7201 1.3862-4.0219 1.7759-5.1153s0.92045-2.6808 1.1794-3.5273c0.30962-1.0122 0.49023-1.5436 0.69013-1.5372z"/></svg>
