<?xml version="1.0" encoding="utf-8"?>
<!-- Roman Inozemtsev: https://github.com/mir-one/  -->
<svg version="1.1" id="Слой_1" xmlns="http://www.w3.org/2000/svg" xmlns:xlink="http://www.w3.org/1999/xlink" x="0px" y="0px"
	 viewBox="0 0 64.5 64.5" style="enable-background:new 0 0 64.5 64.5;" xml:space="preserve">
<style type="text/css">
	.st0{fill:#FFFFFF;}
	.st1{fill:#404041;}
	.st2{fill:#E1E0E0;}
	.st3{fill:#3CB6D1;}
</style>
<path class="st0" d="M32.3,2.5C15.8,2.5,2.5,15.8,2.5,32.2C2.5,48.7,15.8,62,32.3,62c0.3,0,0.6,0,1,0c15-0.5,27.2-12,28.7-26.7
	c0.1-1,0.2-2,0.2-3C62,15.8,48.7,2.5,32.3,2.5z M52,52c-5.7,5.7-13.2,8.4-20.6,8.1c-6.8-0.2-13.6-2.9-18.9-8.1
	c-10.9-10.9-10.9-28.6,0-39.5C23.4,1.6,41.1,1.6,52,12.5c5.8,5.8,8.5,13.5,8.1,21C59.8,40.2,57.1,46.9,52,52z"/>
<path class="st1" d="M32.3,0C14.4,0,0,14.4,0,32.2s14.4,32.3,32.3,32.3c1.1,0,2.2-0.1,3.3-0.2C50.1,62.9,61.7,51.7,64,37.4
	c0.3-1.7,0.5-3.4,0.5-5.2C64.5,14.4,50.1,0,32.3,0z M33.2,62c-0.3,0-0.6,0-1,0C15.8,62,2.5,48.7,2.5,32.2
	c0-16.5,13.3-29.8,29.8-29.8C48.7,2.5,62,15.8,62,32.2c0,1-0.1,2-0.2,3C60.4,50,48.2,61.5,33.2,62z"/>
<path class="st1" d="M52,12.5c-10.9-10.9-28.6-10.9-39.5,0C1.6,23.4,1.6,41.1,12.5,52c5.2,5.2,12,7.9,18.9,8.1
	c7.4,0.2,15-2.5,20.6-8.1c5.1-5.1,7.8-11.8,8.1-18.5C60.5,26,57.8,18.3,52,12.5z"/>
<path class="st2" d="M32.5,50.3c-1.3-0.1-2.3-0.5-3.1-1.3c-2-1.9-4-3.8-5.8-5.8c-2.7-2.9-5.5-5.6-8.3-8.4c-1.3-1.3-1.2-2.2,0-3.3
	c1.2-1.1,2.4-2.2,3.6-3.3c0.6-0.5,1.3-0.5,2,0.1c1,1,2,1.9,3,2.9c1.5,1.4,2.9,1.4,4.3,0c1-0.9,1.9-1.9,2.9-2.8
	c0.9-0.8,1.5-0.8,2.3,0c1.2,1.1,2.4,2.2,3.6,3.3c0.8,0.7,2.3,0.6,3.2-0.1c1.2-1.1,2.4-2.2,3.6-3.3c0.6-0.6,1.2-0.6,1.8-0.1
	c1.4,1.2,2.7,2.4,4,3.7c0.7,0.7,0.7,1.3,0.2,2.1c-0.3,0.5-0.7,1-1.2,1.5c-4.5,4.5-9,9-13.5,13.5C34.4,49.8,33.5,50.2,32.5,50.3z"/>
<path class="st3" d="M32.4,14.4c1,0.1,1.9,0.4,2.7,1.2c2.9,2.9,5.8,5.8,8.7,8.7c0.8,0.8,0.8,1.4,0,2.3c-1.4,1.4-2.8,2.7-4.1,4
	c-0.7,0.7-1.4,0.7-2.1,0c-1.1-1-2.2-2.1-3.4-3.1c-1.2-1.1-2.5-1.1-3.7,0c-1,1-2.1,1.9-3.1,2.9c-1,0.9-1.6,0.9-2.5,0
	c-1.4-1.3-2.8-2.7-4.1-4c-0.6-0.6-0.6-1.3,0-2c2.9-2.9,5.8-5.8,8.7-8.7C30.2,14.9,31.2,14.4,32.4,14.4z"/>
</svg>
