<?xml version="1.0" encoding="utf-8"?>
<!-- Roman Inozemtsev: https://github.com/mir-one/  -->
<svg version="1.1" id="Слой_1" xmlns="http://www.w3.org/2000/svg" xmlns:xlink="http://www.w3.org/1999/xlink" x="0px" y="0px"
	 viewBox="0 0 64.8 64.5" style="enable-background:new 0 0 64.8 64.5;" xml:space="preserve">
<style type="text/css">
	.st0{fill:#D6D6D6;}
	.st1{fill:#FFFFFF;}
	.st2{fill:#2B388F;}
</style>
<path class="st0" d="M32.4,0C14.6,0,0.1,14.4,0.1,32.2c0,17.8,14.4,32.3,32.2,32.3c4.3,0,8.4-0.9,12.1-2.4
	c8.1-3.3,14.5-9.7,17.8-17.8c1.5-3.7,2.4-7.8,2.4-12.1C64.6,14.4,50.2,0,32.4,0z M42.6,60.2C39.4,61.4,36,62,32.4,62
	C15.9,62,2.6,48.7,2.6,32.2S15.9,2.5,32.4,2.5c16.5,0,29.8,13.3,29.8,29.8c0,3.6-0.7,7-1.8,10.2C57.3,50.7,50.8,57.2,42.6,60.2z"/>
<path class="st1" d="M32.4,2.5C15.9,2.5,2.6,15.8,2.6,32.2S15.9,62,32.4,62c3.6,0,7-0.7,10.2-1.8c8.2-3,14.8-9.5,17.8-17.8
	c1.2-3.2,1.8-6.6,1.8-10.2C62.2,15.8,48.8,2.5,32.4,2.5z M52.1,52c-3.2,3.2-7,5.4-11,6.8c-9.7,3.2-20.8,1-28.5-6.8
	c-10.9-10.9-10.9-28.6,0-39.5c10.9-10.9,28.6-10.9,39.5,0c7.7,7.7,9.9,18.8,6.8,28.5C57.6,45,55.3,48.8,52.1,52z"/>
<path class="st0" d="M52.1,12.5c-10.9-10.9-28.6-10.9-39.5,0C1.7,23.4,1.7,41.1,12.6,52c7.7,7.7,18.8,9.9,28.5,6.8
	c4-1.3,7.8-3.6,11-6.8c3.2-3.2,5.4-7,6.8-11C62.1,31.3,59.8,20.2,52.1,12.5z M32.4,50L14.6,32.2l17.8-17.8l17.8,17.8L32.4,50z"/>
<rect x="19.8" y="19.7" transform="matrix(0.7071 -0.7071 0.7071 0.7071 -13.3212 32.3384)" class="st2" width="25.1" height="25.1"/>
</svg>
