<?xml version="1.0" encoding="utf-8"?>
<!-- Roman Inozemtsev: https://github.com/mir-one/  -->
<svg version="1.1" id="Layer_1" xmlns="http://www.w3.org/2000/svg" xmlns:xlink="http://www.w3.org/1999/xlink" x="0px" y="0px"
	 viewBox="0 0 67 67" style="enable-background:new 0 0 67 67;" xml:space="preserve">
<style type="text/css">
	.st0{fill:#FFFFFF;}
	.st1{fill:#39B44A;}
	.st2{fill:#F9EE5D;}
</style>
<g>
	<path class="st0" d="M38.4,20.4c0.1,2.1,0,4.1-0.3,6.1c-0.5,3-1.6,5.8-3.2,8.3c-1.2,2-2.2,4.1-2.9,6.3c-0.9,2.9-1.3,5.8-1.4,8.8
		c0,1.4,0,2.8,0.2,4.1c0.1,1.1,0.3,2.1,0.5,3.2c0,0.1,0.1,0.2,0.2,0.2c0.4,0,0.8,0.1,1.1,0.1c2.3,0.1,4.4-0.2,6.5-1.1
		c2.7-1.1,5-2.8,6.8-5c2.1-2.4,3.5-5.1,4.5-8.1c1.3-4,1.7-8.1,1.3-12.1c-0.2-2.2-0.7-4.4-1.4-6.5c-1.2-3.5-3.1-6.7-5.8-9.3
		c-1.6-1.5-3.4-2.8-5.4-3.6c-0.9-0.4-1.9-0.7-3-0.9c0,0.1,0.1,0.1,0.1,0.2C37.4,14,38.1,17.2,38.4,20.4z"/>
	<path class="st0" d="M16.1,41.3c0.8,3,2,5.8,3.8,8.4c1.7,2.4,3.7,4.4,6.3,5.8c0.5,0.3,1.1,0.6,1.8,0.9c-0.4-2.3-0.5-4.6-0.5-6.9
		c0-2,0.3-3.9,0.6-5.9c0.7-3.8,2.1-7.2,4.1-10.5c1.7-2.7,2.6-5.6,3-8.7c0.2-2,0.1-4-0.2-6c-0.4-2.6-1.2-5.2-2.3-7.6
		c-0.1-0.3-0.1-0.3-0.4-0.2c-1.5,0.1-3,0.5-4.4,1.1c-2.7,1.1-4.9,2.8-6.8,5c-2.1,2.4-3.5,5.1-4.5,8.1c-1.1,3.4-1.6,6.9-1.4,10.5
		C15.3,37.3,15.6,39.3,16.1,41.3z"/>
	<path class="st1" d="M33.5,62.7c15.9,0,29-13,28.7-29.3C61.9,17.8,49,5,32.9,5.3C17.3,5.6,4.5,18.5,4.8,34.5
		C5.1,50.2,17.8,62.7,33.5,62.7z M39.1,11.7c2,0.8,3.8,2.1,5.4,3.6c2.7,2.6,4.6,5.8,5.8,9.3c0.7,2.1,1.2,4.3,1.4,6.5
		c0.4,4.1,0,8.2-1.3,12.1c-1,3-2.4,5.7-4.5,8.1c-1.8,2.2-4.1,3.9-6.8,5c-2.1,0.9-4.2,1.2-6.5,1.1c-0.3,0-0.7-0.1-1.1-0.1
		c-0.1,0-0.2-0.1-0.2-0.2c-0.2-1.1-0.4-2.1-0.5-3.2c-0.2-1.3-0.2-2.7-0.2-4.1c0.1-3,0.5-5.9,1.4-8.8c0.7-2.2,1.7-4.3,2.9-6.3
		c1.6-2.5,2.7-5.3,3.2-8.3c0.3-2,0.4-4,0.3-6.1c-0.3-3.2-1-6.4-2.2-9.4c0-0.1-0.1-0.1-0.1-0.2C37.2,11,38.2,11.3,39.1,11.7z
		 M16.6,24.9c1-3,2.4-5.7,4.5-8.1c1.9-2.2,4.1-3.9,6.8-5c1.4-0.6,2.9-1,4.4-1.1c0.3-0.1,0.3-0.1,0.4,0.2c1.1,2.4,1.9,5,2.3,7.6
		c0.3,2,0.4,4,0.2,6c-0.4,3.1-1.3,6-3,8.7c-2,3.3-3.4,6.7-4.1,10.5c-0.3,2-0.6,3.9-0.6,5.9c0,2.3,0.1,4.6,0.5,6.9c0-0.1,0-0.1,0-0.1
		s0,0,0,0.1c-0.7-0.3-1.3-0.6-1.8-0.9c-2.6-1.4-4.6-3.4-6.3-5.8c-1.8-2.6-3-5.4-3.8-8.4c-0.5-2-0.8-4-0.9-6
		C15,31.7,15.5,28.3,16.6,24.9z"/>
	<path class="st1" d="M33.5,0C15,0,0,15,0,33.5S15,67,33.5,67c1.1,0,2.1-0.1,3.2-0.2c15.6-1.5,28.1-13.7,30-29.2
		c0.2-1.4,0.3-2.7,0.3-4.1C67,15,52,0,33.5,0z"/>
	<g>
		<path class="st2" d="M35.5,15.2c0.9,0.2,1.6,0.4,2.4,0.7c1.6,0.7,3,1.6,4.2,2.8c2.1,2,3.5,4.5,4.5,7.3c0.5,1.6,0.9,3.3,1.1,5.1
			c0.3,3.3,0,6.4-1,9.6c-0.8,2.4-2,4.5-3.5,6.4c-1.5,1.7-3.2,3.1-5.3,3.9c-1.6,0.6-3.4,0.9-5.1,0.9c-0.3,0-0.6-0.1-0.9-0.1
			c-0.1,0-0.2-0.1-0.2-0.2c-0.2-0.9-0.3-1.6-0.4-2.5c-0.2-1.1-0.2-2.2-0.2-3.2c0-2.4,0.4-4.6,1.1-6.9c0.5-1.7,1.3-3.4,2.3-4.9
			c1.3-2,2.1-4.2,2.5-6.5c0.3-1.6,0.4-3.2,0.2-4.8c-0.2-2.6-0.8-5-1.7-7.4C35.6,15.3,35.5,15.3,35.5,15.2z"/>
		<path class="st2" d="M29.1,51.1c-0.5-0.2-0.9-0.4-1.4-0.7c-2-1.1-3.6-2.7-4.9-4.5c-1.4-2-2.4-4.2-3-6.6c-0.4-1.6-0.6-3.1-0.7-4.7
			c-0.2-2.8,0.2-5.6,1.1-8.2c0.8-2.4,2-4.5,3.5-6.4c1.5-1.7,3.2-3.1,5.3-3.9c1.1-0.5,2.3-0.7,3.4-0.9c0.2,0,0.2,0,0.3,0.2
			c0.9,1.9,1.5,3.9,1.8,6c0.2,1.6,0.3,3.1,0.2,4.7c-0.2,2.4-1,4.7-2.4,6.8c-1.6,2.5-2.7,5.3-3.2,8.2c-0.3,1.5-0.5,3.1-0.5,4.6
			C28.6,47.5,28.8,49.2,29.1,51.1C29.1,51,29.1,51,29.1,51.1z"/>
	</g>
	<path class="st0" d="M33.1,64.2c17.2,0.2,31.1-13.6,31.1-30.7C64.2,16.6,50.6,3,33.8,2.8C16.7,2.6,3,16.3,2.8,33.2
		C2.6,50.3,16.3,64.1,33.1,64.2z M32.9,4.8c16-0.3,29,12.5,29.3,28.2c0.3,16.2-12.7,29.3-28.7,29.3c-15.7,0-28.5-12.5-28.8-28.2
		C4.5,18,17.3,5.1,32.9,4.8z"/>
</g>
</svg>
