<?xml version="1.0" encoding="utf-8"?>
<!-- Roman Inozemtsev: https://github.com/mir-one/  -->
<svg version="1.1" id="Слой_1" xmlns="http://www.w3.org/2000/svg" xmlns:xlink="http://www.w3.org/1999/xlink" x="0px" y="0px"
	 viewBox="0 0 67 67" style="enable-background:new 0 0 67 67;" xml:space="preserve">
<style type="text/css">
	.st0{fill:#FFFFFF;}
	.st1{fill:#38B8EA;}
</style>
<g>
	<circle class="st0" cx="33.5" cy="33.5" r="33.5"/>
	<g>
		<path class="st1" d="M63,38.4c-0.5-0.3-0.8-0.8-1.2-1.1c-4.5-4.3-9-8.7-13.9-12.6c0,0,0,0,0,0c-2.9-2.7-5.6-5.5-8.7-8
			c-3.8-3.2-8.7-3.1-12.3,0.1c-8.4,7.5-16.7,15-25.1,22.5c-0.7,0.6-1.1,1.2-0.8,2.3C2.8,48,5.9,53.7,11.1,58.1
			c16.8,16.1,45.5,9.3,53.7-12.6C66.8,40.3,66.6,40.7,63,38.4z M39.9,54.9L39.9,54.9C39.9,55,39.9,55,39.9,54.9
			C39.9,55,39.9,55,39.9,54.9z"/>
		<path class="st1" d="M50.6,16.1C56,21,61.5,26,66.9,30.9c-0.8-10.1-5-18-12.9-24.1C43.1-1.6,25.8-2.3,15.4,5.3
			c-1.6,0.5-2.7,1.6-3.9,2.6C5,13.7,0.6,20.7,0.1,29.6C7.1,23.5,14,17.4,21,11.4c4.8-4.1,10.2-5.6,16.4-4.1c2.9,0.7,4.4,2,6.9,3.3"
			/>
		<path class="st1" d="M0.5,29.8c0,0,0.1-0.1,0.1-0.1c0,0,0,0,0-0.1c0,0,0,0,0,0C0.6,29.7,0.5,29.7,0.5,29.8z"/>
	</g>
	<path class="st0" d="M33.7,56.5c-1.3-0.1-2.4-0.5-3.3-1.3c-2.1-2-4.2-4.1-6.2-6.2c-2.8-3-5.9-5.9-8.7-8.9c-1.3-1.4-1.3-2.3,0-3.5
		c1.3-1.1,2.5-2.3,3.8-3.5c0.6-0.6,1.4-0.5,2.1,0.1c1.1,1,2.2,2,3.2,3.1c1.5,1.5,3,1.5,4.6,0c1-1,2.1-2,3.1-2.9
		c0.9-0.8,1.6-0.8,2.5,0c1.2,1.2,2.5,2.3,3.8,3.5c0.9,0.8,2.5,0.7,3.4-0.1c1.3-1.2,2.6-2.4,3.8-3.5c0.6-0.6,1.3-0.6,1.9-0.1
		c1.4,1.3,2.9,2.6,4.2,3.9c0.7,0.7,0.8,1.4,0.2,2.2c-0.4,0.5-0.8,1.1-1.2,1.5c-4.8,4.8-9.5,9.5-14.3,14.3
		C35.7,56,34.7,56.3,33.7,56.5z"/>
	<path class="st0" d="M33.6,18.5c1.1,0.1,2,0.5,2.8,1.3c3.1,3.1,6.1,6.1,9.2,9.2c0.9,0.9,0.9,1.5,0,2.4c-1.4,1.4-2.9,2.8-4.4,4.2
		c-0.8,0.7-1.5,0.7-2.2,0c-1.2-1.1-2.4-2.2-3.6-3.3c-1.2-1.1-2.7-1.1-3.9,0c-1.1,1-2.2,2.1-3.3,3.1c-1,0.9-1.7,1-2.7,0
		c-1.5-1.4-2.9-2.8-4.4-4.3c-0.7-0.7-0.7-1.4,0-2.1c3-3.1,6.1-6.2,9.2-9.2C31.3,19,32.3,18.6,33.6,18.5z"/>
	<path class="st0" d="M33.5,2.6C16.4,2.6,2.6,16.4,2.6,33.5c0,17.1,13.9,30.9,30.9,30.9c0.3,0,0.7,0,1-0.1
		c15.6-0.5,28.2-12.5,29.8-27.7c0.1-1,0.2-2.1,0.2-3.2C64.4,16.4,50.6,2.6,33.5,2.6z M54,54c-5.9,5.9-13.7,8.7-21.4,8.5
		c-7.1-0.2-14.2-3-19.6-8.5C1.6,42.7,1.6,24.3,13,13C24.3,1.7,42.7,1.7,54,13c6,6,8.8,14,8.4,21.8C62.1,41.8,59.3,48.7,54,54z"/>
</g>
</svg>
