<?xml version="1.0" encoding="utf-8"?>
<!-- Roman Inozemtsev: https://github.com/mir-one/  -->
<svg version="1.1" id="Слой_1" xmlns="http://www.w3.org/2000/svg" xmlns:xlink="http://www.w3.org/1999/xlink" x="0px" y="0px"
	 viewBox="0 0 64.8 64.5" style="enable-background:new 0 0 64.8 64.5;" xml:space="preserve">
<style type="text/css">
	.st0{fill:#3F61AC;}
	.st1{fill:#FFFFFF;}
	.st2{fill:#2B388F;}
	.st3{fill:#58595B;}
</style>
<g>
	<path class="st0" d="M32.4,62C16,62,2.6,48.7,2.6,32.3S16,2.5,32.4,2.5c16.4,0,29.8,13.3,29.8,29.8c0,3.6-0.7,7-1.8,10.2l1.9,1.9
		c1.5-3.7,2.4-7.8,2.4-12.1c0-17.8-14.4-32.2-32.2-32.2S0.2,14.5,0.2,32.3c0,17.8,14.4,32.2,32.2,32.2c4.3,0,8.4-0.9,12.1-2.4
		l-1.9-1.9C39.4,61.4,36,62,32.4,62z"/>
	<path class="st1" d="M32.4,2.5C16,2.5,2.6,15.8,2.6,32.3S16,62,32.4,62c3.6,0,7-0.7,10.2-1.8l-1.5-1.5c-9.7,3.2-20.8,1-28.5-6.7
		c-10.9-10.9-10.9-28.6,0-39.5c10.9-10.9,28.6-10.9,39.5,0c7.7,7.7,9.9,18.8,6.7,28.5l1.5,1.5c1.2-3.2,1.8-6.6,1.8-10.2
		C62.2,15.8,48.8,2.5,32.4,2.5z"/>
	<path class="st0" d="M14.7,32.3l17.7-17.7l17.7,17.7l8.7,8.7c3.2-9.7,1-20.8-6.7-28.5c-10.9-10.9-28.6-10.9-39.5,0
		C1.8,23.4,1.8,41.1,12.7,52c7.7,7.7,18.8,9.9,28.5,6.7L32.4,50L14.7,32.3z"/>
	<path class="st2" d="M62.2,44.4l-1.9-1.9c-3,8.2-9.5,14.7-17.7,17.7l1.9,1.9C52.6,58.9,59,52.4,62.2,44.4z"/>
	<path class="st1" d="M52.1,52c-3.2,3.2-7,5.4-11,6.7l1.5,1.5c8.2-3,14.7-9.5,17.7-17.7L58.9,41C57.6,45,55.3,48.8,52.1,52z"/>
	<path class="st2" d="M58.9,41l-8.7-8.7L32.4,50l8.7,8.7c4-1.3,7.8-3.6,11-6.7C55.3,48.8,57.6,45,58.9,41z"/>
	
		<rect x="20.5" y="20.3" transform="matrix(0.7071 -0.7071 0.7071 0.7071 -13.5843 32.9596)" class="st3" width="25.1" height="25.1"/>
	
		<rect x="19.9" y="19.7" transform="matrix(0.7071 -0.7071 0.7071 0.7071 -13.3377 32.3646)" class="st1" width="25.1" height="25.1"/>
</g>
</svg>
