<?xml version="1.0" encoding="utf-8"?>
<!-- Roman Inozemtsev: https://github.com/mir-one/  -->
<svg version="1.1" id="Слой_1" xmlns="http://www.w3.org/2000/svg" xmlns:xlink="http://www.w3.org/1999/xlink" x="0px" y="0px"
	 viewBox="0 0 67 67" style="enable-background:new 0 0 67 67;" xml:space="preserve">
<style type="text/css">
	.st0{fill:#FFFFFF;}
	.st1{fill:#0F1010;}
	.st2{fill:#59B2AE;}
</style>
<g>
	<path class="st0" d="M33.5,2.6C16.4,2.6,2.6,16.4,2.6,33.5c0,17.1,13.9,30.9,30.9,30.9c0.3,0,0.7,0,1-0.1
		c15.6-0.5,28.2-12.5,29.8-27.7c0.1-1,0.2-2.1,0.2-3.2C64.4,16.4,50.6,2.6,33.5,2.6z M54,54c-5.9,5.9-13.7,8.7-21.4,8.5
		c-7.1-0.2-14.2-3-19.6-8.5C1.7,42.7,1.7,24.3,13,13C24.3,1.7,42.7,1.7,54,13c6,6,8.8,14,8.4,21.8C62.1,41.8,59.3,48.7,54,54z"/>
	<path class="st1" d="M33.5,0C15,0,0,15,0,33.5S15,67,33.5,67c1.2,0,2.3-0.1,3.4-0.2C52,65.3,64.1,53.7,66.5,38.9
		c0.3-1.8,0.5-3.5,0.5-5.4C67,15,52,0,33.5,0z M34.5,64.4c-0.3,0-0.7,0.1-1,0.1c-17.1,0-30.9-13.9-30.9-30.9
		c0-17.1,13.9-30.9,30.9-30.9c17.1,0,30.9,13.9,30.9,30.9c0,1.1-0.1,2.1-0.2,3.2C62.7,51.9,50.1,63.9,34.5,64.4z"/>
	<path class="st1" d="M54,13C42.7,1.7,24.3,1.7,13,13C1.7,24.3,1.7,42.7,13,54c5.4,5.4,12.5,8.2,19.6,8.5c7.7,0.2,15.5-2.6,21.4-8.5
		c5.3-5.3,8.1-12.2,8.4-19.2C62.8,27,60,19,54,13z"/>
	<g>
		<path class="st2" d="M32.7,46.2c-1.6,0.1-3.8-0.2-6-0.9c-0.7-0.2-1.3-0.1-1.9,0.3c-1.1,0.9-2.3,1.7-3.4,2.5
			c-0.4,0.3-0.9,0.9-1.5,0.5c-0.7-0.5-0.3-1.2-0.2-1.7c0.2-0.8,0.4-1.5,0.7-2.3c0.5-1.4,0.2-2.4-0.9-3.4c-2.7-2.3-3.9-5.3-3.6-8.9
			c0.4-4,2.9-6.6,6-8.6c6.6-4.3,17.2-4,23.7,0.5c7.4,5.1,7.5,14-0.8,19.1C41.3,45.4,37.4,46.3,32.7,46.2z M21.9,45.9
			c1-0.7,1.9-1.3,2.7-1.9c0.7-0.5,1.3-0.5,2.1-0.3c6.3,1.9,12.4,1.4,18.1-2.1c6.4-4,6.5-11.7,0.3-16c-6.4-4.4-16.3-4.6-22.8-0.3
			c-4.9,3.2-6.3,8.1-3.7,12.7c0.7,1.3,1.8,2.3,3,3.2c0.8,0.6,1,1.2,0.7,2.2C22.1,44.1,21.5,44.8,21.9,45.9z"/>
		<path class="st1" d="M21.9,45.9c-0.4-1.1,0.3-1.8,0.5-2.6c0.3-1,0-1.6-0.7-2.2c-1.2-0.9-2.3-1.9-3-3.2c-2.6-4.6-1.2-9.5,3.7-12.7
			c6.5-4.3,16.4-4.1,22.8,0.3c6.2,4.3,6,12-0.3,16c-5.7,3.6-11.7,4.1-18.1,2.1c-0.7-0.2-1.4-0.2-2.1,0.3
			C23.8,44.6,22.9,45.2,21.9,45.9z M33.5,28.9C33.5,28.9,33.5,28.9,33.5,28.9c-2.4,0-4.8,0-7.1,0c-0.6,0-1.5-0.2-1.5,0.7
			c0,0.9,0.8,0.8,1.4,0.8c4.8,0,9.5,0,14.3,0c0.6,0,1.5,0.1,1.5-0.7c0-0.9-1-0.8-1.6-0.8C38.2,28.8,35.8,28.9,33.5,28.9z M33.5,33.2
			C33.5,33.2,33.5,33.2,33.5,33.2c-2.5,0-5,0-7.5,0c-0.5,0-1.2-0.1-1.2,0.7c0,0.7,0.7,0.8,1.2,0.8c5,0,9.9,0,14.9,0
			c0.5,0,1.2-0.1,1.2-0.8c0-0.8-0.7-0.7-1.2-0.7C38.5,33.2,36,33.2,33.5,33.2z M31.1,37.4C31.1,37.4,31.1,37.4,31.1,37.4
			c-1.7,0-3.5,0-5.2,0c-0.5,0-1,0.1-1,0.7c0,0.7,0.5,0.7,1,0.7c3.4,0,6.9,0,10.3,0c0.5,0,1,0,1-0.7c0-0.7-0.5-0.7-1-0.7
			C34.5,37.4,32.8,37.4,31.1,37.4z"/>
		<path class="st2" d="M33.5,28.9c2.3,0,4.7,0,7,0c0.6,0,1.6-0.1,1.6,0.8c0,0.8-0.9,0.7-1.5,0.7c-4.8,0-9.5,0-14.3,0
			c-0.6,0-1.5,0.1-1.4-0.8c0-0.9,0.9-0.7,1.5-0.7C28.7,28.9,31.1,28.9,33.5,28.9C33.5,28.9,33.5,28.9,33.5,28.9z"/>
		<path class="st2" d="M33.5,33.2c2.5,0,5,0,7.5,0c0.5,0,1.2-0.2,1.2,0.7c0,0.7-0.7,0.8-1.2,0.8c-5,0-9.9,0-14.9,0
			c-0.5,0-1.2-0.1-1.2-0.8c0-0.8,0.7-0.7,1.2-0.7C28.5,33.2,31,33.2,33.5,33.2C33.5,33.2,33.5,33.2,33.5,33.2z"/>
		<path class="st2" d="M31.1,37.4c1.7,0,3.4,0,5.1,0c0.5,0,1,0,1,0.7c0,0.7-0.5,0.7-1,0.7c-3.4,0-6.9,0-10.3,0c-0.5,0-1,0-1-0.7
			c0-0.7,0.5-0.7,1-0.7C27.6,37.4,29.3,37.4,31.1,37.4C31.1,37.4,31.1,37.4,31.1,37.4z"/>
	</g>
</g>
</svg>
