<?xml version="1.0" encoding="utf-8"?>
<!-- Roman Inozemtsev: https://github.com/mir-one/  -->
<svg version="1.1"
	 id="Слой_1" image-rendering="optimizeQuality" shape-rendering="geometricPrecision" text-rendering="geometricPrecision"
	 xmlns="http://www.w3.org/2000/svg" xmlns:xlink="http://www.w3.org/1999/xlink" x="0px" y="0px" viewBox="0 0 238.2 24.2"
	 style="enable-background:new 0 0 238.2 24.2;" xml:space="preserve">
<style type="text/css">
	.st0{fill:#3C4858;}
</style>
<g>
	<path class="st0" d="M10.5,2.7c2.2,0,3.9,0.5,5.1,1.4s1.8,2.4,1.8,4.2c0,0.9-0.3,1.8-0.9,2.5c-0.6,0.7-1.4,1.3-2.3,1.6
		c1.3,0.3,2.2,0.9,3,1.9c0.7,1,1.1,2.1,1.1,3.4c0,1.9-0.6,3.4-1.9,4.4s-2.9,1.5-5.1,1.5h-10v-1.8l2.3-0.4V4.9L1.3,4.5V2.7h2.3H10.5z
		 M6.5,11.6h4.7c1,0,1.8-0.3,2.5-0.9c0.6-0.6,0.9-1.4,0.9-2.4c0-1.1-0.4-2-1.1-2.5C12.8,5.2,11.8,5,10.4,5h-4v6.6H6.5z M6.5,13.8
		v7.6h4.9c1.3,0,2.3-0.3,3-1c0.7-0.6,1.1-1.5,1.1-2.7s-0.3-2.2-0.9-2.9c-0.6-0.7-1.5-1-2.7-1L6.5,13.8L6.5,13.8z"/>
	<path class="st0" d="M20.9,21.8l2.3-0.4V10.3l-2.3-0.4V8.1h5.2v13.3l2.3,0.4v1.8h-7.5C20.9,23.6,20.9,21.8,20.9,21.8z M26,4.1h-2.8
		V1.2H26V4.1z"/>
	<path class="st0" d="M30.1,3V1.2h5.2v20.2l2.3,0.4v1.8h-7.5v-1.8l2.3-0.4v-18L30.1,3z"/>
	<path class="st0" d="M39.4,3V1.2h5.2v20.2l2.3,0.4v1.8h-7.5v-1.8l2.3-0.4v-18L39.4,3z"/>
	<path class="st0" d="M52.7,21.4H59l0.2-2.4h2.4v4.6H49.4v-2l8.4-11.3h-5.7l-0.2,2.4h-2.4V8.1h11.8V10L52.7,21.4z"/>
	<path class="st0" d="M78.8,16.4c0,2.2-0.5,4-1.6,5.4s-2.6,2.1-4.4,2.1c-1,0-1.9-0.2-2.6-0.6c-0.7-0.4-1.4-1-1.9-1.7l-0.3,2h-2.4
		V3.4L63.3,3V1.2h5.2v8.7c0.5-0.7,1.1-1.2,1.8-1.6c0.7-0.4,1.6-0.5,2.5-0.5c1.9,0,3.4,0.8,4.5,2.3s1.6,3.5,1.6,6L78.8,16.4
		L78.8,16.4z M76,16.1c0-1.8-0.3-3.2-1-4.4c-0.7-1.1-1.6-1.7-3-1.7c-0.9,0-1.6,0.2-2.2,0.6c-0.6,0.4-1.1,1-1.4,1.7v6.9
		c0.4,0.7,0.8,1.3,1.4,1.7s1.3,0.6,2.2,0.6c1.3,0,2.3-0.5,3-1.4c0.6-0.9,1-2.2,1-3.8V16.1z"/>
	<path class="st0" d="M81.7,15.7c0-2.3,0.6-4.2,1.9-5.7c1.2-1.5,2.9-2.2,5.1-2.2c2.1,0,3.8,0.7,5.1,2.2c1.2,1.5,1.9,3.4,1.9,5.7V16
		c0,2.3-0.6,4.2-1.9,5.7c-1.2,1.5-2.9,2.2-5.1,2.2s-3.9-0.7-5.1-2.2s-1.9-3.4-1.9-5.7V15.7z M84.5,16c0,1.6,0.3,3,1,4.1
		s1.7,1.6,3.1,1.6c1.3,0,2.4-0.5,3.1-1.6s1-2.4,1-4.1v-0.3c0-1.6-0.3-3-1-4.1S90,10,88.6,10s-2.4,0.5-3.1,1.6s-1,2.4-1,4.1V16z"/>
	<path class="st0" d="M108.3,23.6c-0.1-0.4-0.2-0.8-0.2-1.1s-0.1-0.7-0.1-1c-0.5,0.7-1.2,1.3-2,1.7c-0.8,0.5-1.7,0.7-2.6,0.7
		c-1.6,0-2.8-0.4-3.7-1.2c-0.8-0.8-1.3-1.9-1.3-3.3c0-1.5,0.6-2.6,1.8-3.4c1.2-0.8,2.8-1.2,4.9-1.2h2.9V13c0-0.9-0.3-1.6-0.9-2.2
		c-0.6-0.5-1.4-0.8-2.4-0.8c-0.7,0-1.3,0.1-1.9,0.3c-0.5,0.2-1,0.4-1.3,0.7l-0.3,1.6H99v-3c0.7-0.6,1.6-1,2.6-1.4
		c1-0.3,2.1-0.5,3.3-0.5c1.8,0,3.2,0.4,4.3,1.3s1.6,2.2,1.6,3.9v7.5c0,0.2,0,0.4,0,0.6c0,0.2,0,0.4,0,0.6l1.1,0.2v1.8L108.3,23.6
		L108.3,23.6z M103.7,21.5c0.9,0,1.8-0.2,2.6-0.7c0.8-0.4,1.3-1,1.7-1.6v-2.6h-3c-1.2,0-2.1,0.3-2.7,0.8c-0.7,0.5-1,1.2-1,2
		c0,0.7,0.2,1.2,0.6,1.6C102.2,21.4,102.9,21.5,103.7,21.5z"/>
	<path class="st0" d="M114.3,9.9V8.1h4.9l0.3,2.3c0.4-0.8,1-1.4,1.6-1.9c0.6-0.4,1.4-0.7,2.2-0.7c0.2,0,0.4,0,0.7,0.1
		c0.2,0,0.4,0.1,0.5,0.1l-0.4,2.6l-1.6-0.1c-0.7,0-1.4,0.2-1.9,0.5s-0.9,0.8-1.2,1.5v8.9l2.3,0.4v1.8h-7.4v-1.8l2.3-0.4V10.3
		L114.3,9.9z"/>
	<path class="st0" d="M136.7,21.7c-0.5,0.7-1.1,1.2-1.9,1.6c-0.7,0.4-1.6,0.5-2.5,0.5c-1.9,0-3.4-0.7-4.4-2.1
		c-1.1-1.4-1.6-3.2-1.6-5.4V16c0-2.5,0.5-4.5,1.6-6c1.1-1.5,2.6-2.3,4.5-2.3c0.9,0,1.7,0.2,2.4,0.5s1.3,0.8,1.8,1.5V3.4L134.3,3V1.2
		h2.3h2.8v20.2l2.3,0.4v1.8h-4.8L136.7,21.7z M129.1,16.4c0,1.6,0.3,2.8,1,3.8c0.6,0.9,1.6,1.4,3,1.4c0.8,0,1.6-0.2,2.1-0.6
		c0.6-0.4,1-0.9,1.4-1.6v-7.2c-0.4-0.7-0.8-1.2-1.4-1.6c-0.6-0.4-1.3-0.6-2.1-0.6c-1.3,0-2.3,0.6-3,1.7c-0.6,1.1-1,2.6-1,4.4V16.4z"
		/>
	<path class="st0" d="M156.9,4.5l-2.1,0.3l2.7,11.5l0.4,2.6h0.1l0.6-2.6l3.8-13.7h2.5l3.9,13.7l0.6,2.7h0.1l0.4-2.7l2.6-11.5
		l-2.1-0.3V2.7h6.6v1.8l-1.7,0.2l-4.6,18.9h-2.5l-4.1-14.5l-0.4-1.9h-0.1l-0.4,1.9L159,23.6h-2.5l-4.6-18.9l-1.7-0.2V2.7h6.6
		L156.9,4.5L156.9,4.5z"/>
	<path class="st0" d="M188.3,23.6c-0.1-0.4-0.2-0.8-0.2-1.1s-0.1-0.7-0.1-1c-0.5,0.7-1.2,1.3-2,1.7c-0.8,0.5-1.7,0.7-2.6,0.7
		c-1.6,0-2.8-0.4-3.7-1.2c-0.8-0.8-1.3-1.9-1.3-3.3c0-1.5,0.6-2.6,1.8-3.4c1.2-0.8,2.8-1.2,4.9-1.2h2.9V13c0-0.9-0.3-1.6-0.9-2.2
		c-0.6-0.5-1.4-0.8-2.4-0.8c-0.7,0-1.3,0.1-1.9,0.3c-0.5,0.2-1,0.4-1.3,0.7l-0.3,1.6H179v-3c0.7-0.6,1.6-1,2.6-1.4
		c1-0.3,2.1-0.5,3.3-0.5c1.8,0,3.2,0.4,4.3,1.3c1.1,0.9,1.6,2.2,1.6,3.9v7.5c0,0.2,0,0.4,0,0.6c0,0.2,0,0.4,0,0.6l1.1,0.2v1.8
		L188.3,23.6L188.3,23.6z M183.7,21.5c0.9,0,1.8-0.2,2.6-0.7c0.8-0.4,1.3-1,1.7-1.6v-2.6h-3c-1.2,0-2.1,0.3-2.7,0.8
		c-0.7,0.5-1,1.2-1,2c0,0.7,0.2,1.2,0.6,1.6C182.2,21.4,182.9,21.5,183.7,21.5z"/>
	<path class="st0" d="M193.9,3V1.2h5.2v20.2l2.3,0.4v1.8h-7.5v-1.8l2.3-0.4v-18L193.9,3z"/>
	<path class="st0" d="M203.2,3V1.2h5.2v20.2l2.3,0.4v1.8h-7.5v-1.8l2.3-0.4v-18L203.2,3z"/>
	<path class="st0" d="M219.9,23.9c-2.2,0-3.9-0.7-5.2-2.2c-1.3-1.4-1.9-3.3-1.9-5.6v-0.6c0-2.2,0.7-4.1,2-5.5
		c1.3-1.5,2.9-2.2,4.7-2.2c2.1,0,3.7,0.6,4.7,1.9c1.1,1.3,1.6,2.9,1.6,5.1v1.8h-10.1v0.1c0,1.5,0.4,2.7,1.1,3.7
		c0.7,1,1.7,1.4,3.1,1.4c1,0,1.8-0.1,2.5-0.4c0.7-0.3,1.3-0.6,1.9-1.1l1.1,1.8c-0.6,0.5-1.3,1-2.2,1.4
		C222.3,23.7,221.2,23.9,219.9,23.9z M219.5,10c-0.9,0-1.8,0.4-2.4,1.2s-1.1,1.8-1.2,3v0.1h7.2v-0.4c0-1.1-0.3-2-0.9-2.8
		C221.6,10.4,220.7,10,219.5,10z"/>
	<path class="st0" d="M233.6,4.3V8h2.9v2.1h-2.9v9.4c0,0.7,0.2,1.2,0.5,1.5s0.7,0.4,1.2,0.4c0.2,0,0.5,0,0.8-0.1
		c0.3,0,0.6-0.1,0.8-0.1l0.4,1.9c-0.3,0.2-0.7,0.3-1.2,0.4s-1,0.2-1.6,0.2c-1.1,0-2.1-0.3-2.7-1c-0.7-0.7-1-1.8-1-3.3V10h-2.5V7.9
		h2.5V4.2h2.8V4.3z"/>
</g>
</svg>
