<?xml version="1.0" encoding="utf-8"?>
<!-- Roman Inozemtsev: https://github.com/mir-one/  -->
<svg version="1.1"
	 id="Слой_1" image-rendering="optimizeQuality" text-rendering="geometricPrecision" shape-rendering="geometricPrecision"
	 xmlns="http://www.w3.org/2000/svg" xmlns:xlink="http://www.w3.org/1999/xlink" x="0px" y="0px" viewBox="0 0 16 16"
	 style="enable-background:new 0 0 16 16;" xml:space="preserve">
<style type="text/css">
	.st0{fill:#C57245;}
</style>
<path class="st0" d="M8,0C3.6,0,0,3.6,0,8s3.6,8,8,8s8-3.6,8-8S12.4,0,8,0z M4.3,3.3C5.3,3.3,6,4.1,6,5S5.2,6.8,4.3,6.8
	S2.5,6,2.5,5.1S3.3,3.3,4.3,3.3z M12.5,12.2c-0.5,0.1-1-0.1-1.1-0.6s0.1-1,0.6-1.1s1,0.1,1.1,0.6C13.2,11.6,13,12.1,12.5,12.2z
	 M14.2,9.4l-0.3-0.3L14,8.3l-0.8-0.4l-0.4,0.6h-0.6l-0.4-0.7l-0.9,0.3v0.8l-0.4,0.2L9.8,8.8L9.2,9.6l0.6,0.6l-0.2,0.4l-0.7,0.1v1
	l0.7,0.2l0.1,0.4l-0.5,0.6l0.5,0.8l0.7-0.3l0.3,0.3l-0.1,0.5c-0.8,0.3-1.7,0.5-2.6,0.5c-2.9,0-5.3-1.9-6.3-4.4L2.1,10l0.8,0.4
	l0.3,1.4H5l0.4-1.4l0.8-0.3l1.1,1l1.5-1L8.3,8.7l0.5-0.6h1.5l0.6-1.7L9.7,5.6V4.8L11,4.1l-0.5-1.8L9,2.4L8.6,1.7l0.1-0.4
	c3.4,0.4,6,3.2,6,6.8c0,0.4,0,0.8-0.1,1.2L14.2,9.4z"/>
</svg>
