<?xml version="1.0" encoding="utf-8"?>
<!-- Generator: Adobe Illustrator 21.0.0, SVG Export Plug-In . SVG Version: 6.00 Build 0)  -->
<svg version="1.1" id="Слой_1" xmlns="http://www.w3.org/2000/svg" xmlns:xlink="http://www.w3.org/1999/xlink" x="0px" y="0px"
	 viewBox="0 0 64.8 64.5" style="enable-background:new 0 0 64.8 64.5;" xml:space="preserve">
<style type="text/css">
	.st0{fill:url(#SVGID_1_);}
	.st1{fill:url(#SVGID_2_);}
	.st2{fill:#FFFFFF;}
	.st3{fill:#404041;}
</style>
<linearGradient id="SVGID_1_" gradientUnits="userSpaceOnUse" x1="-12.4965" y1="-12.4971" x2="59.2719" y2="59.2712">
	<stop  offset="0" style="stop-color:#FFFFFF"/>
	<stop  offset="1" style="stop-color:#231F20"/>
</linearGradient>
<path class="st0" d="M32.3,0C14.4,0,0,14.4,0,32.2s14.4,32.3,32.3,32.3c1.1,0,2.2-0.1,3.3-0.2C50.1,62.9,61.7,51.7,64,37.4
	c0.3-1.7,0.5-3.4,0.5-5.2C64.5,14.4,50.1,0,32.3,0z M33.2,62c-0.3,0-0.6,0-1,0C15.8,62,2.5,48.7,2.5,32.2
	c0-16.5,13.3-29.8,29.8-29.8C48.7,2.5,62,15.8,62,32.2c0,1-0.1,2-0.2,3C60.4,50,48.2,61.5,33.2,62z"/>
<linearGradient id="SVGID_2_" gradientUnits="userSpaceOnUse" x1="-12.2334" y1="-12.2335" x2="59.5689" y2="59.5688">
	<stop  offset="0" style="stop-color:#FFFFFF"/>
	<stop  offset="1" style="stop-color:#231F20"/>
</linearGradient>
<path class="st1" d="M52,12.5c-10.9-10.9-28.6-10.9-39.5,0C1.6,23.4,1.6,41.1,12.5,52c5.2,5.2,12,7.9,18.9,8.1
	c7.4,0.2,15-2.5,20.6-8.1c5.1-5.1,7.8-11.8,8.1-18.5C60.5,26,57.8,18.3,52,12.5z"/>
<path class="st2" d="M21.2,59c-0.1,0-0.2-0.1-0.2-0.2c0-0.2,0-0.4,0.1-0.5c0.1,0,0.2-0.1,0.3-0.1c0.6,0.1,1.1,0.7,1.8,0.7
	c0.3,0,0.4,0,0.4-0.3c-0.1-0.4-0.1-0.6-0.2-1c0-0.1-0.1-0.3-0.1-0.4c0-0.2,0.1-0.3,0.1-0.5c-0.1-0.9-0.2-1.8-0.1-2.8
	c0.1-1.3,0.1-2.6,0.4-3.9c0.2-1,0.3-1.9,0.6-2.9c0.1-0.3,0.3-0.6,0-0.8s-0.5,0.2-0.6,0.4c-0.4,0.4-0.7,0.6-1.3,0.6
	c-0.2-0.4-0.4-0.4-0.6-0.1c-0.3-0.2-0.6-0.2-0.8-0.1c-0.2,0.1-0.5,0.2-0.7,0.1c0-0.1,0.1-0.2,0.1-0.3c0.3,0,0.6,0,0.7-0.3
	c-0.3-0.1-0.5,0-0.6,0.1c0-0.2-0.1-0.3-0.2-0.4c0-0.1,0-0.3,0.1-0.4c0.1,0,0.2,0.3,0.5,0.1c-0.1-0.2-0.2-0.5-0.2-0.6
	c0-0.1,0-0.1,0-0.2c0.1,0,0.1,0.1,0.2,0.1c0.1,0.2,0.2,0.4,0.3,0.6c0.1,0.4,0.4,0.5,0.6,0.6c0.4,0.1,0.7,0.1,1.2,0.1
	s0.6-0.1,0.6-0.6c0.1,0,0.3,0,0.4,0c0.2,0,0.4,0.1,0.6,0.1c0.1,0,0.3-0.1,0.4-0.1c-0.1,1-0.4,1.9-0.6,2.9c-0.4,1.8-0.5,3.8-0.6,5.6
	c-0.1,1.5,0.1,2.9,0.3,4.3c0,0.2,0,0.3,0,0.5c-0.6-0.2-1.4-0.3-2-0.6C21.4,58.5,21.3,58.6,21.2,59z"/>
<path class="st2" d="M10.1,49.9c0.1,0,0.3-0.1,0.3,0.1c0,0.3,0.1,0.6,0.5,0.6c0,0.6,0.6,0.6,0.7,1c0,0.2,0.4,0.2,0.4,0.4h-0.1
	c0,0,0,0,0,0.1l0.1-0.1c0.3,0.3,0.6,0.6,0.8,0.8c0.1,0.1,0.1,0.1,0.2,0.1l0,0c0,0.3-0.1,0.6-0.1,0.7c-0.6-0.8-1.6-1.4-2.1-2.3
	c-0.1,0-0.1-0.1-0.2-0.1l0,0c0.1-0.4,0-0.6-0.5-0.6l0,0c0-0.1,0-0.1-0.1-0.1c-0.2-0.3-0.6-0.5-0.6-0.8c0.2,0,0.3,0.1,0.4,0.3
	C9.9,50.1,10,50,10.1,49.9z"/>
<path class="st3" d="M60.9,30.6c0-0.3,0-0.6,0-0.8c0.2,0,0.2,0.2,0.2,0.3c0,0.3,0.2,0.4,0.4,0.5v0.1c-0.4,0.1-0.5,0.3-0.3,0.6
	c0.1,0.1,0.1,0.3,0.1,0.4c0.2,0.5-0.1,1,0.2,1.5c0,0.5-0.1,0.9-0.1,1.3c-0.2-0.1-0.5,0-0.5-0.3c-0.1-0.4,0.2-0.4,0.6-0.5
	c-0.5-0.3-0.6-0.6-0.5-0.9c0.1-0.6,0.1-1.1-0.1-1.6c0-0.1,0-0.2,0-0.2C60.9,30.9,60.9,30.7,60.9,30.6z"/>
<path class="st2" d="M58.9,43.3c0-0.2,0-0.3,0-0.5c0-0.1,0.1-0.1,0.1-0.2c0.2,0,0.2-0.1,0.2-0.3c0.1-0.4,0.3-0.7,0.5-1.1
	c0.1-0.1,0.1-0.1,0.1-0.2c0.1-0.2,0.1-0.4,0.2-0.6c0.2-0.1,0.4-0.1,0.6-0.2c0,0.2-0.1,0.4-0.2,0.5c-0.5,0.2-0.3,0.6-0.3,0.9v0.1
	c-0.1,0-0.1,0.1-0.1,0.2c-0.1,0.6-0.4,1.2-0.7,1.7C59,43.7,59,43.4,58.9,43.3z"/>
<path class="st2" d="M16.2,55.4c-0.1-0.2-0.2-0.5-0.3-0.6c0-0.2,0.1-0.5-0.1-0.6l0,0c0-0.1,0-0.2-0.1-0.2c0-0.3-0.3-0.4-0.4-0.6
	c-0.2-0.5-0.6-0.9-0.6-1.6c0-0.1,0-0.1,0-0.2c0.1-0.1,0.1-0.2,0.2-0.3c0.3,0.4,0.1,0.8,0.4,1.2c0.6,0.8,1,1.7,1.2,2.7
	c0,0.2,0,0.3,0.2,0.4l0,0c0,0.2,0.1,0.3,0.1,0.5c-0.1,0.1-0.3,0.1-0.5,0.1L16.3,56C16.5,55.8,16.2,55.6,16.2,55.4z"/>
<path class="st2" d="M7.7,45.9c0.2,0.4,0.5,0.7,0.6,1.1c-0.4-0.2-0.6-0.1-0.5,0.4c-0.4-0.6-0.6-1.1-0.9-1.7l-0.1-0.1c0,0,0,0,0-0.1
	c0-0.1,0-0.2-0.1-0.2s-0.1-0.1-0.1-0.2c0.1,0,0.1-0.1,0.2-0.1c0.2,0,0.4-0.1,0.5-0.1c0,0.3,0.2,0.4,0.4,0.6
	C7.6,45.6,7.6,45.9,7.7,45.9z"/>
<path class="st2" d="M5.8,43.3C5.4,43,5.3,42.4,5.2,42c-0.1-0.3-0.3-0.5-0.3-0.8c0.2,0.1,0.4,0,0.5-0.2c0.1,0.1,0.2,0.2,0.2,0.3
	c0.1,0.4,0.3,0.7,0.4,1C6,42.4,6,42.6,6.2,42.6C6.2,43,5.8,43.1,5.8,43.3z"/>
<path class="st2" d="M54.7,13.7c0.1,0.2,0.2,0.3,0.3,0.4c-0.1,0-0.3,0.1-0.3,0.2l0,0c-0.7-0.6-1.3-1.2-1.8-1.9c0-0.1,0-0.3,0.1-0.4
	c0.1,0,0.2,0,0.2,0l0,0c0,0.1,0.1,0.1,0.1,0.1l0.1,0.1c-0.1,0.1,0,0.2,0.1,0.3c0.2,0.3,0.4,0.5,0.6,0.6c0,0.1,0,0.1,0.1,0.1l0,0
	C54.3,13.4,54.3,13.8,54.7,13.7z"/>
<path class="st2" d="M58.9,20.2c0.1,0.5,0.5,0.7,0.6,1.2c0,0.3,0.2,0.5,0.3,0.7c-0.1,0-0.2,0.1-0.2,0.2s0,0.2,0,0.3h-0.1
	c-0.4-0.8-0.6-1.7-1-2.5C58.5,20.2,58.7,20.2,58.9,20.2z"/>
<path class="st2" d="M8.6,15.9c0.3-0.6,0.7-1.2,1.2-1.7c0,0.3,0.2,0.4,0.4,0.3c0,0.1,0,0.1,0,0.2c0,0,0,0,0,0.1
	c-0.2,0-0.4,0.2-0.5,0.3c-0.1,0.6-0.6,0.7-0.8,1.2C8.8,16.2,8.8,15.8,8.6,15.9z"/>
<path class="st2" d="M52.2,53.7c0.1-0.2-0.4-0.5,0-0.6c0.2-0.1,0.4-0.3,0.4,0.2c0.1-0.4,0-0.6,0.3-0.9c0.4,0,0.4-0.4,0.5-0.6
	c0.2-0.1,0.4-0.2,0.5-0.4c0.1,0.2,0,0.4,0.2,0.5C53.4,52.4,52.9,53.2,52.2,53.7z"/>
<path class="st2" d="M13.3,11.1c-0.5,0.3-0.6,0.7-1,1c-0.3,0.1-0.2,0.6-0.6,0.6c-0.1-0.1-0.2-0.3-0.2-0.4c0-0.1,0-0.1,0-0.2l0,0
	c0.1,0,0.1,0,0.1-0.1l0,0c0.1,0,0.1,0,0.1-0.1l0,0c0.1,0,0.1,0,0.1-0.1l0,0c0.1,0,0.1,0,0.1-0.1l0,0c0.3,0.1,0.5,0,0.5-0.3
	c0.1-0.2,0.3-0.3,0.4-0.4C13,10.9,13.2,11,13.3,11.1z"/>
<path class="st2" d="M6.3,20.1c0.2,0.2,0,0.4,0.1,0.6c0,0.1,0,0.2,0,0.3c-0.1,0.1-0.1,0.2-0.1,0.3s-0.1,0.2-0.1,0.2
	c-0.1,0.1,0,0.2,0,0.2c-0.1,0.2-0.3,0.3-0.4,0.4c-0.1,0-0.3,0-0.4,0C5.6,21.4,5.9,20.7,6.3,20.1z"/>
<path class="st2" d="M58,45.1c0.1,0,0.3-0.1,0.4,0.1c0,0.2,0,0.3,0,0.5l0,0c-0.2,0-0.1,0.1-0.1,0.2l0,0c-0.2,0-0.2,0.1-0.1,0.3
	c0,0,0,0,0,0.1c-0.3,0-0.4,0.3-0.5,0.4c-0.1,0-0.3,0-0.4,0c0-0.5,0.5-0.7,0.6-1.3C57.9,45.3,57.9,45.2,58,45.1z"/>
<path class="st2" d="M61.4,35c0,0.6,0,1-0.2,1.6h-0.1c0-0.2,0-0.5-0.4-0.4c-0.1-0.1,0.1-0.3,0-0.4c0-0.1,0-0.3,0-0.4
	c0-0.1,0-0.2,0-0.4l0,0C61,35.1,61.2,34.9,61.4,35z"/>
<path class="st2" d="M58.9,43.3c0.1,0.2,0,0.4,0.3,0.5c-0.1,0.5-0.2,0.9-0.6,1.3V45C58,44.3,58.7,43.8,58.9,43.3z"/>
<path class="st2" d="M54,51.9c-0.2-0.1-0.1-0.3-0.2-0.5c0-0.5,0.6-0.6,0.7-0.9l0,0c0,0.2,0.1,0.4,0.1,0.6
	C54.5,51.4,54.3,51.6,54,51.9z"/>
<path class="st2" d="M5.4,22c0.1,0,0.3,0,0.4,0c0,0.1,0,0.3,0,0.4c-0.2,0.1-0.5,0.2-0.1,0.5c0,0.3-0.1,0.6-0.3,0.7
	c-0.4,0-0.5-0.2-0.4-0.5l0,0C5.3,22.8,5.3,22.5,5.4,22C5.3,22.1,5.3,22.1,5.4,22C5.4,22.1,5.4,22,5.4,22L5.4,22z"/>
<path class="st2" d="M51.1,10.1c-0.2,0.2,0.1,0.4,0,0.6c-0.4-0.2-0.6-0.6-0.9-0.7c0-0.2,0.1-0.4,0.1-0.6
	C50.6,9.7,50.9,9.9,51.1,10.1z"/>
<path class="st3" d="M61.5,33.1c-0.3-0.5,0-0.9-0.2-1.5c0-0.1,0-0.3-0.1-0.4c-0.2-0.4-0.1-0.6,0.3-0.6
	C61.5,31.5,61.5,32.3,61.5,33.1z"/>
<path class="st2" d="M6.3,44.3c-0.4-0.1-0.1-0.6-0.4-0.7c0.2,0,0.4,0,0.3-0.3c0-0.1,0.1-0.1,0.2-0.1l0.1,0.1c0,0.1,0,0.3,0.2,0.4
	c0.1,0.2,0.1,0.3,0.1,0.5C6.5,44.1,6.2,43.8,6.3,44.3z"/>
<path class="st2" d="M50.4,54.7c-0.1-0.3,0.1-0.5,0.4-0.5c0.3-0.1,0.5-0.1,0.7-0.1c0,0.1,0,0.1,0,0.2c-0.3,0.2-0.5,0.4-0.7,0.6
	C50.8,54.6,50.6,54.7,50.4,54.7z"/>
<path class="st2" d="M57.8,19.3c0-0.3,0.4-0.3,0.3-0.6c0.1,0.2,0.2,0.3,0.3,0.5c0,0.3,0,0.6-0.2,0.9C58,20,58,19.6,57.8,19.3z"/>
<path class="st2" d="M13.3,11.1C13.2,11,13,10.9,12.7,11c0.2-0.4,0.6-0.6,0.9-0.8c0,0.2,0,0.3,0.2,0.5c0,0,0,0.1-0.1,0.1
	c-0.2,0-0.2,0.1-0.2,0.2S13.4,11,13.3,11.1z"/>
<path class="st2" d="M57.3,46.6c0.1,0,0.3,0,0.4,0c0,0.1,0,0.2,0,0.3v0.1c-0.1,0-0.1,0.1-0.1,0.2v0.1c-0.1,0-0.1,0-0.1,0.1l0,0
	c-0.1,0-0.2,0.1-0.2,0.1c-0.4,0-0.3-0.2-0.3-0.4v-0.1C57,46.6,57.2,46.6,57.3,46.6z"/>
<path class="st2" d="M61.2,36.5L61.2,36.5c0.1,0.7,0.1,1.4-0.4,2c0-0.3,0-0.5,0.1-0.7c0-0.1,0.1-0.2,0.1-0.2
	c0.1-0.2,0.1-0.5,0.1-0.6C61.1,36.8,61.1,36.6,61.2,36.5z"/>
<path class="st3" d="M59.7,23.7c0.1-0.2,0.3-0.3,0.6-0.4c0,0.3,0.2,0.5,0.1,0.7c-0.2,0-0.4,0-0.6,0V24
	C59.7,23.8,59.7,23.8,59.7,23.7z"/>
<path class="st3" d="M61.4,30.2c-0.3-0.4-0.1-0.9-0.3-1.3c0-0.1,0-0.3,0-0.4C61.4,29,61.4,29.5,61.4,30.2z"/>
<path class="st3" d="M60.3,24.7c0-0.1,0-0.2,0-0.4c0.3,0.6,0.5,1.2,0.5,1.7c-0.2-0.2-0.1-0.4-0.2-0.6C60.5,25.3,60.4,24.9,60.3,24.7
	z"/>
<path class="st2" d="M55.4,50.1c0.1,0,0.1-0.1,0.2,0c-0.1,0.3-0.3,0.5-0.5,0.6c-0.2,0-0.3-0.2-0.5-0.2l0,0c0.1-0.2,0.2-0.2,0.4-0.1
	C55.2,50.4,55.3,50.2,55.4,50.1z"/>
<path class="st2" d="M14.5,9.5c0,0.3,0,0.5-0.1,0.7h-0.1c-0.1-0.1-0.3-0.1-0.4-0.2C13.8,9.7,14.3,9.8,14.5,9.5z"/>
<path class="st2" d="M51.6,54.3c0-0.1,0-0.1,0-0.2c0-0.3-0.1-0.6,0.2-0.7c0.3,0.1-0.1,0.6,0.4,0.5C52,54.1,51.8,54.1,51.6,54.3z"/>
<path class="st2" d="M10.8,13c0,0.2,0,0.3,0.2,0.4c0.2,0.1,0.1,0.2,0,0.4c-0.1,0-0.2,0-0.3,0c0-0.2-0.3-0.3-0.2-0.5
	C10.6,13.3,10.6,13,10.8,13z"/>
<path class="st2" d="M58.3,20.2c0.1-0.3,0.2-0.6,0.2-0.9c0.1,0.3,0.3,0.6,0.4,0.9C58.7,20.2,58.5,20.2,58.3,20.2L58.3,20.2z"/>
<path class="st2" d="M11.2,13.2c-0.1-0.1-0.1-0.4-0.4-0.3c0-0.2,0.2-0.3,0.4-0.4c0.1,0,0.1,0,0.2,0c0,0.2,0.1,0.3,0.1,0.5
	C11.4,13.1,11.3,13.2,11.2,13.2z"/>
<path class="st2" d="M55.9,16.1c0-0.3,0.1-0.5,0.1-0.7c0.1,0.3,0.5,0.4,0.5,0.7C56.4,16.2,56.1,15.7,55.9,16.1
	C56,16.2,56,16.2,55.9,16.1z"/>
<path class="st2" d="M10.5,13.4c0,0.2,0.2,0.3,0.2,0.5v0.1c-0.3,0-0.5,0.1-0.7,0C10.1,13.7,10.3,13.5,10.5,13.4z"/>
<path class="st2" d="M7.1,18.3c0.1-0.4,0.2-0.7,0.6-0.9c0,0,0,0,0.1,0.1c-0.2,0.3-0.3,0.6-0.5,0.8C7.2,18.3,7.1,18.3,7.1,18.3
	L7.1,18.3z"/>
<path class="st2" d="M60,41.7c0-0.4-0.1-0.7,0.3-0.9C60.3,41.1,60.2,41.4,60,41.7z"/>
<path class="st2" d="M54.7,13.7c-0.5,0-0.5-0.3-0.5-0.6C54.5,13.3,54.6,13.5,54.7,13.7z"/>
<path class="st2" d="M6.5,44.4c0,0.1,0,0.2,0.1,0.2c0.1,0.1,0.2,0.3,0.3,0.4c-0.1,0-0.1,0.1-0.2,0.1C6.6,45,6.2,44.8,6.5,44.4z"/>
<path class="st2" d="M10.1,50.6c0.4,0,0.5,0.2,0.5,0.6C10.4,51,10.3,50.8,10.1,50.6z"/>
<path class="st2" d="M57.7,46.7c0-0.1,0-0.2,0-0.3c0.1-0.2,0.2-0.4,0.5-0.4C58,46.4,57.9,46.6,57.7,46.7z"/>
<path class="st2" d="M12.3,11.3c0.1,0.4-0.2,0.4-0.5,0.3C12.1,11.5,12.2,11.4,12.3,11.3z"/>
<path class="st2" d="M54.5,50.5c0.2,0.1,0.3,0.2,0.5,0.2c-0.1,0.1-0.2,0.2-0.4,0.4C54.6,50.9,54.5,50.7,54.5,50.5z"/>
<path class="st2" d="M55.6,14.7c-0.4,0-0.4-0.2-0.3-0.5C55.4,14.4,55.6,14.5,55.6,14.7z"/>
<path class="st2" d="M58.1,18.8c-0.2-0.1-0.3-0.2-0.2-0.5C58.1,18.4,58.1,18.6,58.1,18.8z"/>
<path class="st2" d="M58.3,45.6c0-0.2,0-0.3,0-0.5c0.1,0,0.2,0,0.2,0C58.5,45.4,58.5,45.5,58.3,45.6z"/>
<path class="st2" d="M57.3,47.3c0.1,0,0.2-0.1,0.2-0.1c0,0.2-0.1,0.3-0.2,0.3C57.3,47.4,57.3,47.4,57.3,47.3z"/>
<path class="st2" d="M53,12c0-0.1-0.1-0.2,0-0.2c0.1,0,0.2,0.1,0.2,0.2C53.2,12,53.1,12,53,12z"/>
<path class="st2" d="M11.5,12.1c0,0.1,0,0.1,0,0.2l-0.1,0.1l-0.1-0.1C11.3,12.3,11.4,12.2,11.5,12.1z"/>
<path class="st2" d="M58.1,46.1c0-0.1,0-0.2,0.1-0.3C58.2,45.9,58.2,46,58.1,46.1z"/>
<path class="st2" d="M52.8,11.6c-0.1,0-0.2,0-0.2-0.1C52.7,11.5,52.8,11.4,52.8,11.6z"/>
<path class="st2" d="M55.8,15.1c-0.1,0-0.1-0.1-0.1-0.2C55.8,14.9,55.8,15,55.8,15.1z"/>
<path class="st2" d="M11.3,12.5c-0.1,0-0.1,0-0.2,0c0-0.1,0-0.2,0.1-0.2L11.3,12.5C11.4,12.4,11.3,12.5,11.3,12.5z"/>
<path class="st2" d="M53.5,12.4c-0.1-0.1-0.2-0.1-0.1-0.3C53.5,12.3,53.5,12.3,53.5,12.4z"/>
<path class="st2" d="M59.9,42c0-0.1,0-0.2,0.1-0.2C60,41.9,60,42,59.9,42z"/>
<path class="st2" d="M55.7,50c-0.1-0.1,0-0.2,0.1-0.2C55.7,49.9,55.7,50,55.7,50z"/>
<path class="st2" d="M58.2,45.8c0-0.1,0-0.2,0.1-0.2C58.3,45.7,58.3,45.8,58.2,45.8z"/>
<path class="st2" d="M9.9,13.9c0.1,0.1,0,0.2-0.1,0.2C9.9,14,9.9,13.9,9.9,13.9z"/>
<path class="st2" d="M53.4,12.1C53.3,12.1,53.2,12.1,53.4,12.1C53.3,12.1,53.4,12.1,53.4,12.1z"/>
<path class="st2" d="M11.6,12C11.6,12.1,11.6,12.1,11.6,12C11.5,12.1,11.6,12,11.6,12z"/>
<path class="st2" d="M11.7,11.9C11.7,12,11.7,12,11.7,11.9C11.6,12,11.7,11.9,11.7,11.9z"/>
<path class="st2" d="M11.9,11.8C11.9,11.9,11.9,11.9,11.9,11.8C11.8,11.8,11.8,11.8,11.9,11.8z"/>
<path class="st2" d="M57.6,47c0-0.1,0-0.1,0.1-0.2C57.7,46.9,57.6,46.9,57.6,47z"/>
<path class="st2" d="M53.1,11.8C53,11.8,53,11.8,53.1,11.8C53,11.7,53,11.7,53.1,11.8z"/>
<path class="st2" d="M12,11.7C12,11.8,12,11.8,12,11.7C11.9,11.7,11.9,11.7,12,11.7z"/>
<path class="st2" d="M52.9,11.7C52.8,11.7,52.8,11.7,52.9,11.7C52.9,11.6,52.9,11.6,52.9,11.7z"/>
<path class="st2" d="M57.5,47.2C57.5,47.1,57.5,47.1,57.5,47.2C57.6,47.1,57.6,47.2,57.5,47.2z"/>
<path class="st2" d="M13,53.6L13,53.6C13.1,53.6,13,53.6,13,53.6z"/>
<path class="st2" d="M7.9,47.4L7.9,47.4C8,47.5,7.9,47.4,7.9,47.4z"/>
<path class="st2" d="M57.2,47.6C57.2,47.5,57.2,47.5,57.2,47.6C57.2,47.5,57.2,47.6,57.2,47.6z"/>
<path class="st2" d="M6.7,45.5c0.1,0,0.1,0.1,0.1,0.2C6.8,45.5,6.8,45.5,6.7,45.5z"/>
<path class="st2" d="M55.6,50.1C55.6,50,55.6,49.9,55.6,50.1C55.7,50.1,55.6,50.1,55.6,50.1z"/>
<path class="st2" d="M58.5,45.2C58.5,45.1,58.5,45.1,58.5,45.2C58.6,45.2,58.6,45.2,58.5,45.2z"/>
<path class="st2" d="M57.9,18.3C57.8,18.3,57.8,18.3,57.9,18.3C57.9,18.2,57.9,18.2,57.9,18.3z"/>
<path class="st2" d="M10.6,51.2c0.1,0,0.1,0.1,0.2,0.1C10.7,51.2,10.6,51.2,10.6,51.2z"/>
<path class="st2" d="M7.7,17.3c0,0.1,0,0.1,0,0.2H7.6c0,0,0,0-0.1-0.1C7.6,17.3,7.6,17.3,7.7,17.3z"/>
<path class="st2" d="M55.7,49.8C55.7,49.8,55.7,49.7,55.7,49.8C55.7,49.7,55.7,49.8,55.7,49.8z"/>
<path class="st2" d="M6.9,45.6L6.9,45.6C6.9,45.7,6.9,45.6,6.9,45.6z"/>
<path class="st2" d="M10.1,50.5C10.2,50.5,10.2,50.5,10.1,50.5C10.1,50.6,10,50.6,10.1,50.5z"/>
<path class="st2" d="M55.7,14.9C55.7,14.9,55.7,14.9,55.7,14.9C55.7,14.8,55.7,14.8,55.7,14.9z"/>
<path class="st2" d="M55.7,14.8C55.6,14.8,55.6,14.8,55.7,14.8C55.6,14.7,55.6,14.7,55.7,14.8z"/>
<path class="st2" d="M55,14.3c0-0.1,0-0.1,0.1-0.2l0.1,0.1C55.2,14.3,55.1,14.3,55,14.3z"/>
<path class="st2" d="M54.3,13.2C54.2,13.2,54.2,13.2,54.3,13.2C54.3,13.1,54.3,13.1,54.3,13.2z"/>
<path class="st2" d="M56.7,44.3c-0.6,0.2-1.2,0.3-1.7-0.1c-0.7-0.5-0.8-1.2-0.1-1.7c0.2-0.2,0.3-0.3,0.1-0.5
	c-0.4-0.4-0.6-0.8-0.2-1.3c0.4-0.5,0.8-0.6,1.5-0.2c0.1,0,0.1,0,0.2,0.1c0.1,0.4,0.6,0.5,0.6,0.8c0,0.1,0,0.3-0.1,0.4
	c-0.1,0.1-0.2,0.3-0.3,0.4c-0.2,0.2-0.5,0-0.6,0.2c-0.1,0-0.2,0-0.2-0.1c0-0.2,0.2-0.3,0.3-0.4c0.3-0.2,0.2-0.6,0.1-0.8
	c-0.1-0.3-0.4-0.3-0.6-0.3c-0.4,0-0.4,0.5-0.6,0.5c-0.6,0.3-0.1,0.5,0,0.6c0.1,0.1,0.3,0.2,0.4,0.3c-0.1,0.3-0.4,0.3-0.6,0.5
	C54.6,43,54.8,43,55.1,43c-0.1,0.1,0.2,0.6-0.3,0.4c-0.1,0-0.2,0.1-0.1,0.2c0.2,0.3,0.3,0.6,0.7,0.6c0.7,0.1,1-0.2,1.1-1
	c0.1,0,0.2-0.1,0.3-0.1c0.1,0.1,0.3,0.1,0.4,0.1v0.1c-0.1,0.1-0.1,0.2-0.1,0.3c-0.1,0.2-0.2,0.4-0.2,0.6
	C56.9,44.3,56.8,44.3,56.7,44.3z"/>
<path class="st2" d="M47.5,30.7c-0.1,0-0.2,0-0.3,0.1c-0.4,0.2-0.6,0.6-0.9,0.7c-0.3,0.2-0.6,0.4-0.8,0.7h-0.1
	c-0.6,0.4-1.2,0.9-1.9,1.2c-0.6,0.2-0.6,0.6-0.5,1.1c0.1,0.5,0.1,0.9-0.1,1.4c-0.1-0.1-0.2-0.1-0.3-0.2c0-0.2,0-0.3,0-0.5
	c0-0.1,0-0.2,0-0.4c0-0.3-0.1-0.5-0.1-0.7c0-0.1,0-0.2-0.1-0.2c0-0.1,0-0.1,0-0.2c0.3,0,0.1-0.3,0.2-0.4c0.6,0,1-0.6,1.5-0.8
	c0.9-0.6,1.8-1.4,2.8-2.1c0.6-0.6,1.3-1.2,1.9-1.8c0.2-0.1,0.3-0.1,0.4,0.1c0,0.1-0.1,0.2-0.1,0.2c-0.2,0.1-0.3,0.2-0.3,0.3
	c-0.1,0.1-0.1,0.2-0.2,0.3c-0.3,0.2-0.4,0.6-0.7,0.6C47.7,30.4,47.6,30.6,47.5,30.7z"/>
<path class="st2" d="M59.2,42.3c0,0.1,0,0.2-0.2,0.3C59.1,42.5,59.1,42.4,59.2,42.3z"/>
<path class="st2" d="M32.5,13.3c0.1,0,0.2,0,0.3,0c0.7-0.1,1.6-0.2,2.3-0.1c-0.1,0.3-0.6,0.1-0.6,0.6c-0.1,0-0.2,0-0.3,0
	c0-0.3-0.2-0.4-0.5-0.4c-0.1,0-0.3,0-0.3,0.2c0,0.2,0.2,0.1,0.3,0.1c0.1,0,0.2,0,0.3,0.2l-0.1,0.1c-0.1,0-0.1,0-0.2,0
	c-0.2,0-0.3,0.1-0.4,0.2c-0.2,0-0.3-0.1-0.5-0.1c-0.1,0-0.2,0-0.4,0.1c-0.3,0-0.5,0-0.7,0.1c-0.7,0.2-1.5,0.5-2.2,0.6
	c0-0.2-0.2-0.2-0.3-0.3c-0.1,0-0.3-0.1-0.3,0.1c0,0.1,0.1,0.1,0.2,0.2c-0.2,0.5-0.7,0.4-1,0.6c-0.1,0-0.2,0.1-0.2,0.2l0,0
	c-0.4,0.1-0.6,0.1-0.8,0.5c-0.1,0-0.1,0-0.2,0.1c-0.3,0.1-0.5,0.2-0.6,0.4c-0.1,0.1-0.2,0.1-0.3,0.2c-0.3,0-0.5,0.2-0.6,0.4
	c-0.2,0-0.4,0.1-0.5,0.3c-0.2,0-0.3,0.2-0.5,0.3c-0.2,0-0.3,0.1-0.3,0.2c-0.2,0-0.4,0.1-0.5,0.3c-0.2,0-0.3,0.2-0.4,0.3
	c-0.1,0-0.1,0-0.2,0c-0.2-0.6-0.6,0-0.7-0.2c0-0.1,0-0.2,0-0.3c0.1-0.1-0.1-0.2,0.1-0.3c0.6-0.3,1.3-0.6,1.7-1.2l0,0l0,0
	c0.2,0,0.3-0.1,0.5-0.2c0.5,0,0.6-0.5,0.9-0.6l0,0c0.8-0.4,1.6-0.7,2.4-1.1c0.2-0.1,0.4-0.2,0.6-0.4c0.1,0,0.3,0,0.4-0.1
	c0.1,0,0.2-0.1,0.3-0.1c0.1,0.1,0.2,0,0.2,0c0.1,0,0.2,0,0.3,0c0.3,0,0.6,0.2,0.7-0.3h0.1h0.1C31.4,13.4,32,13.4,32.5,13.3z
	 M33.2,13.6c-0.1,0-0.2,0.1-0.2,0.2s0.1,0.1,0.1,0.1C33.2,13.9,33.3,13.9,33.2,13.6C33.3,13.6,33.2,13.6,33.2,13.6z M28.2,15.1
	c-0.2-0.1-0.4-0.1-0.6,0C27.9,15.2,28,15.3,28.2,15.1z M28.7,14.7C28.7,14.6,28.7,14.6,28.7,14.7c-0.1-0.1-0.2-0.1-0.2,0
	C28.5,14.8,28.5,14.8,28.7,14.7C28.6,14.8,28.7,14.7,28.7,14.7z"/>
<path class="st2" d="M40.2,13.2c0.2,0.2,0.5,0.1,0.7,0.1c0.2,0.2,0.5,0.1,0.7,0.2c0.4,0.3,0.8,0.1,1.2,0.4c0.1,0.2,0.2,0.1,0.4,0.1
	c0.1,0.1,0.3,0.1,0.4,0.2c0.9,0.5,2,0.6,2.9,1.3c0.1,0,0.2,0.1,0.3,0.1c0.2,0.3,0.5,0.3,0.7,0.5c0.6,0.6,1.4,0.9,1.9,1.7
	c0,0,0,0.1,0.1,0.1c0,0,0,0.1,0.1,0.1v0.1c-0.1,0-0.1,0-0.2,0.1c-0.9-0.7-1.9-1.4-3-1.9c-0.6-0.3-1-0.6-1.7-0.6
	c0-0.1-0.2-0.2-0.3-0.2c-0.2-0.1-0.4-0.2-0.6-0.2c-0.1,0-0.2,0-0.3,0c-0.2-0.3-0.4-0.3-0.6-0.3l0,0c-0.1-0.1-0.2-0.1-0.3-0.2
	c-0.1-0.1-0.2-0.1-0.3-0.1c0,0,0,0,0-0.1c0-0.2,0-0.4-0.2-0.4c-0.4-0.1-0.7-0.3-1.1-0.4c-0.3-0.1-0.7-0.3-0.8-0.2
	c-0.5,0.5-0.4-0.1-0.6-0.2C39.8,13.2,40,13.2,40.2,13.2z"/>
<path class="st2" d="M20.1,11.9c0-0.1,0-0.2,0-0.2c0-1,0.4-1.5,1.3-1.7c0.3-0.1,0.3-0.2,0.2-0.4S21.3,9.2,21.2,9
	c-0.1-0.2-0.2-0.3,0-0.5c0.3,0.1,0.4,0.4,0.6,0.6c0.6,1,1.2,2.1,1.7,3.1c0.1,0.2,0.3,0.3,0.5,0.3v0.1c-0.1,0.1-0.2,0.2-0.3,0.2
	c-0.2,0-0.5-0.3-0.6,0.2c0,0,0,0,0,0.1c-0.8,1-1.8,0.7-2.7-0.5C20.2,12.4,20.2,12.2,20.1,11.9z M22.8,12.2c0-0.2-0.7-1.6-0.8-1.7
	c-0.1,0-0.2-0.1-0.3-0.1c-0.6,0-1.2,0.6-1.2,1.1c0,0.6,0.6,1.4,1.3,1.5C22.4,13.2,22.8,12.8,22.8,12.2z"/>
<path class="st2" d="M43.8,8.9c0.1,0,0.2,0,0.3,0c0.4,0.3,0.9,0.4,1.1,1c-0.2,0-0.4,0-0.5-0.1c-0.2-0.5-0.6-0.4-1-0.4
	c-0.5,0-0.6,0.4-0.7,0.7c-0.3,0.5-0.4,1-0.7,1.5v0.1v0.1c-0.6,0-0.5-0.5-0.4-0.7c0.1,0,0.3,0.1,0.4-0.1c0.1-0.2,0-0.3-0.2-0.3v-0.1
	c0.1-0.2,0.3-0.4,0.3-0.6c0-0.1,0.1-0.1,0.1-0.2c0.2-0.2,0.4-0.4,0.4-0.6c0-0.1,0-0.3-0.1-0.3c0-0.1,0-0.1,0-0.2
	c0.2,0,0.3-0.2,0.4-0.3c0.1,0,0.2,0,0.2,0c0,0.2,0.2,0.2,0.4,0.3c0,0.1,0,0.1,0,0.2s-0.1,0.2,0,0.2C43.6,9.1,43.7,9,43.8,8.9z"/>
<path class="st2" d="M32.9,7.6c0.1,0.2,0.2,0.4,0.3,0.6c0,0.1,0,0.2,0.1,0.3v0.1c0,0.3,0.2,0.6,0.1,0.9c0,0.1-0.1,0.1-0.1,0.2
	c-0.1-0.1-0.3-0.2-0.4,0C32.8,10,32.4,10,32,10.1c0.1-0.1,0.1-0.2,0.2-0.3c0.7-0.2,0.7-0.8,0.7-1.3c0-0.7-0.4-1.3-0.9-1.3
	c-0.5,0-0.9,0.3-1.1,0.9c-0.1,0-0.3,0.1-0.4,0.1c-0.1,0-0.1,0-0.2,0c0-0.1,0-0.2,0-0.2C30.5,8,30.5,8,30.5,7.9l0,0
	C31,8,30.9,7.6,31,7.3c0.3,0,0.5-0.1,0.6-0.4c0.3,0,0.6,0,0.9,0.1C32.4,7.2,32.8,7.3,32.9,7.6z"/>
<path class="st2" d="M34.4,9.4c0-0.2,0-0.4,0-0.5s0-0.2,0-0.2c0-0.2,0.1-0.3,0.1-0.5c0.1-0.1,0.1-0.1,0-0.2c0.1-0.8,0.1-1.7,0.3-2.6
	C35,5.7,35.1,5.9,35,6.3c-0.1,0.3-0.1,0.6,0,1c0,0.1,0.1,0.2,0,0.4c-0.3,0.4-0.2,0.7,0,1.1c0,0.1,0,0.2,0.2,0.3
	c-0.3,0.5,0,1-0.3,1.6c-0.1,0-0.1,0.1-0.2,0.1c-0.1,0-0.2,0-0.3,0c-0.1-0.1-0.1-0.1-0.2-0.2c0-0.2,0-0.4,0.1-0.5
	C34.5,9.7,34.4,9.5,34.4,9.4z"/>
<path class="st2" d="M27.2,7.9c0,0.1,0,0.2,0.1,0.3c-0.2,0.2,0,0.3,0.1,0.5c0,0.1,0,0.1,0.1,0.2c-0.1,0.1,0,0.2,0.1,0.2h0.1
	c0,0.1,0,0.2,0.1,0.3v0.1c-0.1,0.3-0.2,0.6,0.2,0.8l0.1,0.1v0.1c0,0.2,0.2,0.4,0.1,0.6c-0.3,0.1-0.5,0.1-0.5-0.3
	c0-0.3-0.1-0.5-0.1-0.7c0-0.1,0-0.2-0.1-0.3c-0.1-0.3-0.1-0.6-0.2-0.8c-0.1-0.6-0.1-1.2-0.5-1.7l0,0l0,0c0-0.3,0-0.4-0.3-0.3
	c-0.5,0.2-0.7,0.2-0.9,0.4c-0.4,0.1-0.7,0.2-0.6-0.5c0.3,0.2,0.5,0.1,0.7,0c0.6-0.2,1-0.3,1.3,0.3c0,0.1,0,0.2,0,0.3
	C27.1,7.7,27,7.8,27.2,7.9z"/>
<path class="st2" d="M32,10.1c0.4-0.1,0.7,0,0.9-0.6c0.1-0.3,0.3-0.1,0.4,0c-0.2,0.6-0.7,0.8-1.3,0.9c-0.6,0.1-1.1-0.1-1.5-0.6
	c-0.4-0.4-0.4-0.9-0.5-1.4c0-0.1,0-0.2,0.1-0.3c0.1,0,0.1,0,0.2,0c0,0.2,0.1,0.3,0.2,0.4C30.6,9.9,31.2,10.2,32,10.1z"/>
<path class="st2" d="M36.4,13c0.1,0,0.2,0,0.3,0.1c0.1,0.1,0.2,0.1,0.3,0c0.4,0,0.7,0.1,1,0c0.5-0.2,0.8,0,1.2,0.1
	c-0.2,0.3-0.4,0.3-0.6,0.2s-0.6-0.1-1,0.1c0.2,0.2,0.4,0,0.5,0.2v0.1c-0.4,0-0.7,0-1.1,0c-0.1,0-0.2,0-0.3,0v-0.1
	c0.1-0.1,0.2-0.1,0.2-0.2c-0.2-0.3-0.6,0-0.8-0.3v-0.1c0.1,0,0.1,0,0.2,0C36.3,13.1,36.3,13.1,36.4,13z"/>
<path class="st2" d="M35.2,8.9c-0.1,0-0.2-0.1-0.2-0.3c0.3-0.1,0.4-0.4,0.6-0.5c0.2,0.5,0.4,0.8,0.7,1.3c0,0.1,0.1,0.2,0.2,0.2l0,0
	c-0.1,0.1-0.1,0.2,0,0.3c0.1,0.3,0.2,0.5,0.5,0.6c0,0.1,0,0.1,0,0.2c-0.2,0-0.4,0-0.6,0l-0.1-0.1C36.2,10,36,9.4,35.7,8.9
	C35.6,8.6,35.4,8.7,35.2,8.9z"/>
<path class="st2" d="M40.6,11c-1.1,0.6-2.2,0.1-2.7-1c0-0.3,0-0.5,0-0.7c0.5,0.1,0.1,0.6,0.4,0.6c0.1,0.3,0.2,0.6,0.4,0.7
	c0.5,0.4,1,0.6,1.6,0.2c0.2-0.1,0.3-0.2,0.5-0.2C40.7,10.7,40.7,10.8,40.6,11C40.7,10.9,40.7,10.9,40.6,11z"/>
<path class="st2" d="M18.4,12.1c0-0.3,0.2-0.4,0.4-0.6c0.1,0,0.3-0.1,0.4,0c0,0.2,0.1,0.2,0.2,0.3l0,0c-0.1,0.4-0.6,0.5-0.6,0.9
	c-0.2,0.2-0.4,0.1-0.4-0.1C18.3,12.4,18.4,12.3,18.4,12.1z"/>
<path class="st2" d="M26.8,7.3c0.3,0.6,0.4,1.1,0.5,1.7c-0.4-0.3-0.3-0.7-0.4-1.1C26.8,7.7,26.6,7.6,26.8,7.3z"/>
<path class="st2" d="M27.8,9.9c0,0.2,0.1,0.4,0.1,0.6c-0.3-0.2-0.3-0.6-0.2-0.8l0.1,0.1C27.8,9.7,27.8,9.8,27.8,9.9z"/>
<path class="st2" d="M35.8,13.1L35.8,13.1c-0.1,0.2-0.2,0.2-0.3,0.1v-0.1C35.6,13.1,35.7,13.1,35.8,13.1z"/>
<path class="st2" d="M27.3,9.9c0.1,0.1,0.2,0.2,0.1,0.3C27.4,10,27.3,10,27.3,9.9z"/>
<path class="st2" d="M40.8,10.6C40.8,10.5,40.8,10.5,40.8,10.6C40.8,10.6,40.8,10.6,40.8,10.6z"/>
<path class="st2" d="M51,41.8c0,0.5,0,0.9,0,1.4c-0.1,0-0.1,0.1-0.2,0.2c-0.1,0.2-0.1,0.4-0.1,0.5s0,0.2,0,0.2c-0.1-0.1-0.2,0-0.3,0
	c-0.6,0.5-1.3,0.4-1.8-0.3c-0.1-0.1-0.1-0.2-0.2-0.3c-0.3-0.7-0.3-1.5-0.1-2.2c0.1-0.2,0.2-0.4,0.4-0.6h0.1c0,0.1,0,0.3,0.1,0.3
	c0,0.4,0,0.8,0,1.2c-0.3,0-0.6,0-0.3,0.5c0,0.1,0,0.2,0,0.3c0,0.6,0.3,1,0.7,1c0.6,0,0.8-0.2,0.9-0.9c0.1-0.8,0.2-1.7-0.4-2.4
	l0.1-0.1H50c0.2,0.3,0.4,0.6,0.5,0.9c0,0.1,0,0.3,0.2,0.2C50.8,41.8,50.9,41.8,51,41.8z"/>
<path class="st2" d="M46.1,46.3c0.2,0,0.3,0,0.5,0c0.2,0.2,0.5,0.2,0.6,0.3c0.1,0.2,0.1,0.4,0.4,0.2c0.2,0.1,0.4,0.1,0.6,0.4
	c0,0.2,0,0.3,0,0.5c-0.3,0-0.6-0.2-0.8-0.3c-0.5-0.5-0.9-0.3-1.4-0.1l-0.1-0.1c-0.2-0.5-0.6-0.6-1-0.6c-0.1-0.1-0.3-0.2-0.4-0.3
	c0-0.1,0-0.2,0-0.3l0,0c0.2,0,0.3,0,0.5-0.1c0.1,0,0.1,0,0.2,0.1c0,0.1,0.1,0.2,0.3,0.1c0.1,0,0.3,0.1,0.4,0l0,0
	C45.7,46.6,45.7,46.6,46.1,46.3z"/>
<path class="st2" d="M53.2,44.2c0,0.2-0.2,0.3-0.4,0.2c-0.2,0-0.3-0.2-0.3-0.4c0-0.7,0-1.4,0-2.1c0-0.4-0.1-0.5-0.5-0.5
	c-0.1,0-0.3,0-0.4,0c-0.1,0-0.2-0.1-0.2-0.3c0-0.1,0.1-0.1,0.2-0.1c0.3,0,0.6-0.1,0.8-0.3c0.3,0.1,0.3,0.4,0.3,0.6
	c0,0.7,0,1.5,0,2.3C52.9,43.9,52.9,44.1,53.2,44.2z"/>
<path class="st2" d="M45.1,44.1c0-0.2,0.2-0.3,0.3-0.5c0.3-0.2,0.5-0.4,0.6-0.6l0,0c0.3-0.1,0.5-0.3,0.6-0.6l0,0
	c0.2,0,0.2-0.2,0.2-0.3l0,0c0.1,0,0.2-0.1,0.2-0.2c0.2-0.2,0-0.5,0.2-0.6c0.1,0,0.2,0,0.3,0c0.2,0.1,0.3,0.3,0.3,0.5
	c0,0.2-0.1,0.4-0.3,0.5c-0.2,0-0.2,0.1-0.2,0.2c-0.1,0.1-0.2,0.2-0.3,0.3c-0.1,0-0.2,0.1-0.2,0.2c-0.1,0-0.1,0.1-0.2,0.1
	c-0.5,0.2-0.6,0.6-1,0.8C45.4,44,45.3,44,45.1,44.1z"/>
<path class="st2" d="M53.2,44.2c-0.3-0.1-0.3-0.3-0.3-0.5c0-0.7,0-1.5,0-2.3c0-0.2,0-0.5-0.3-0.6c0-0.2-0.1-0.6,0.4-0.5
	c0.4,0.1,0.3,0.4,0.2,0.6c0,0.3-0.1,0.6,0.1,0.9c0,0.1,0,0.1-0.1,0.2c-0.4,0.2,0,0.5,0,0.6c0,0.1,0,0.1,0,0.2
	C53.2,43.2,53.4,43.7,53.2,44.2z"/>
<path class="st2" d="M43.1,40c0.1,0.1,0.1,0.3,0.2,0.4c-0.1,0.2,0.2,0.3,0.1,0.5c-0.1,0-0.2,0-0.3,0c-0.3-0.3-0.3-0.7-0.6-1
	c-0.1-0.1-0.2-0.2-0.2-0.2c0-0.2,0.5-0.2,0.3-0.5c0.7,0.4,1.3,0.1,1.9-0.4c0.2,0,0.3,0.1,0.3,0.3l0,0h-0.1c0,0,0,0-0.1,0
	c-0.2,0-0.3,0.1-0.4,0.2h-0.1c-0.4,0.1-0.8,0.2-1.2,0.3C42.9,39.8,42.8,39.9,43.1,40z"/>
<path class="st2" d="M47.1,40.9c-0.7-0.4-0.9-0.4-1.4,0.3c-0.2,0.2-0.3,0.3-0.5,0.2c-0.3-0.2,0-0.4,0.2-0.5c0.7-0.7,1-0.7,1.7-0.3
	C47.1,40.8,47.3,40.9,47.1,40.9z"/>
<path class="st2" d="M45.5,44c0.7,0,1.5,0.2,2.2,0c0,0.1,0,0.2,0.1,0.3c-0.1,0-0.1,0.1-0.2,0.1c-0.1,0-0.2,0-0.3,0.1h-0.1
	c-0.2-0.2-0.4-0.1-0.6-0.1c-0.1,0-0.3,0-0.4,0c-0.1,0-0.2,0-0.4,0c-0.2-0.1-0.4,0.1-0.6,0.1c0-0.2-0.2-0.2-0.3-0.2v-0.1
	C45.3,44,45.4,44,45.5,44z"/>
<path class="st2" d="M44,45.5c0.1,0,0.2,0.1,0.3,0.1v0.1c-0.1,0.1-0.1,0.2-0.1,0.3l0,0c-0.4,0-0.6-0.1-0.9-0.3v-0.1
	c0.1-0.1,0.1-0.2,0.1-0.3c0-0.1,0-0.2,0-0.2c0.1,0,0.2,0,0.3,0C43.7,45.3,43.7,45.5,44,45.5z"/>
<path class="st2" d="M43.6,45.1c-0.1,0-0.2,0-0.3,0c-0.1-0.1-0.1-0.1-0.2-0.2c-0.1-0.3-0.1-0.6-0.3-0.7c0-0.1,0-0.2-0.1-0.3
	c0.1,0,0.1,0,0.2,0h0.1c0,0.1,0,0.2,0.1,0.3c0,0.1,0,0.2,0.1,0.2c0,0.1,0.1,0.2,0.2,0.2c0,0.1,0.1,0.2,0.1,0.2
	C43.5,44.8,43.5,44.9,43.6,45.1C43.7,45.1,43.7,45.1,43.6,45.1z"/>
<path class="st2" d="M43.1,40c-0.2-0.1-0.2-0.3-0.3-0.4c0.5-0.1,0.8-0.2,1.2-0.3c0.1,0.2,0,0.4-0.3,0.4C43.4,39.7,43.2,39.8,43.1,40
	z"/>
<path class="st2" d="M50,40.7L50,40.7c-0.6-0.1-0.8,0.3-1.1,0.5c-0.1-0.1-0.1-0.2-0.1-0.3c0.1-0.1,0.1-0.1,0.1-0.2
	c0.1,0,0.1-0.1,0.2-0.1c0.2,0,0.5,0,0.6,0C49.9,40.6,50,40.6,50,40.7z"/>
<path class="st2" d="M47.4,41.1c0.1,0,0.1-0.1,0.2-0.2c0.3,0.3,0.4,0.6,0.1,0.8c0-0.2-0.1-0.4-0.3-0.5
	C47.4,41.3,47.4,41.2,47.4,41.1z"/>
<path class="st2" d="M46.1,46.3c-0.4,0.3-0.4,0.3-0.6-0.1c0.1,0,0.2,0,0.2,0C45.8,46.3,45.9,46.2,46.1,46.3L46.1,46.3z"/>
<path class="st2" d="M49.8,40.5c-0.2,0-0.5,0-0.6,0C49.3,40.2,49.5,40.3,49.8,40.5z"/>
<path class="st2" d="M47.4,41.1c0,0.1,0,0.1,0,0.2c-0.1,0-0.2,0-0.3,0c0-0.1,0-0.3,0-0.4C47.4,40.9,47.4,41,47.4,41.1z"/>
<path class="st2" d="M43.9,45.1c0,0.1,0,0.3,0.1,0.3v0.1c-0.3,0-0.3-0.3-0.4-0.5h0.1C43.8,45.1,43.9,45.1,43.9,45.1L43.9,45.1z"/>
<path class="st2" d="M44.1,39.3c0.1-0.2,0.2-0.2,0.4-0.2l0,0C44.4,39.3,44.2,39.5,44.1,39.3z"/>
<path class="st2" d="M45.1,44.2c0.2,0,0.3,0,0.3,0.2C45.2,44.3,45.1,44.3,45.1,44.2z"/>
<path class="st2" d="M47.2,42.5c0-0.1,0-0.2,0.2-0.2C47.4,42.4,47.4,42.5,47.2,42.5z"/>
<path class="st2" d="M48.8,40.7c0,0.1,0,0.2-0.1,0.2h-0.1C48.7,40.7,48.8,40.7,48.8,40.7z"/>
<path class="st2" d="M51.7,25.3c-0.4,0.2-0.2,0.7-0.6,0.9h-0.1c0-0.2-0.2-0.2-0.3-0.2c0-0.1,0-0.2,0-0.3v-0.1
	c0.1-0.2,0.3-0.3,0.3-0.6h0.1c0.4,0.1,0.5-0.1,0.5-0.4s-0.2-0.2-0.4-0.2c0-0.1,0-0.1,0-0.2c0.2-0.1,0.1-0.2,0.1-0.4
	c0-0.1,0-0.3,0-0.4c0-0.1,0-0.1,0.1-0.2c0.1,0,0.1,0,0.2,0c0,0.1,0,0.3,0.1,0.4c0.2-0.2,0.1-0.5,0.2-0.6c0.1,0,0.2,0,0.2,0
	c0,0.5,0,0.9-0.2,1.4c-0.2,0.1-0.2,0.2-0.1,0.4C51.8,24.9,51.5,25.1,51.7,25.3z"/>
<path class="st2" d="M13.5,31.1c0.1-0.2,0.1-0.4,0.1-0.6c0.1-0.1,0.1-0.2,0-0.4c0.2-0.3,0.2-0.6,0.3-0.8c0.1-0.1,0.1-0.1,0.1-0.2
	c0.1-0.2,0.1-0.4,0.1-0.6c0.1-0.1,0.1-0.1,0.1-0.2v-0.1c0.3-0.2,0.3-0.6,0.4-0.8c0.1-0.2,0.3-0.3,0.3-0.5c0-0.1,0-0.2,0-0.3
	s0.1-0.1,0.1-0.2c0.2-0.1,0.3-0.2,0.3-0.4c0.1-0.1,0.1-0.1,0.1-0.2c0.3-0.5,0.6-0.9,0.8-1.5c0-0.1,0-0.1,0.1-0.2
	c0.1-0.1,0.1-0.2,0.2-0.2c0.2-0.1,0.3-0.3,0.3-0.5c0.2-0.3,0.7-0.4,0.5-0.8c0.1,0,0.1,0,0.2-0.1c0.3-0.2,0.7-0.4,0.6-0.8
	c0-0.1,0.1-0.1,0.1-0.1c0.6-0.4,1.2-0.8,1.7-1.4c0.6-0.3,0.8-0.9,1.3-1.3l0.1-0.1c0.3-0.1,0.5-0.6,0.9-0.5c0,0,0,0,0.1,0l0,0
	c-0.2,0.2-0.4,0.5-0.6,0.6c-0.1,0.1-0.4,0-0.4,0.3s0.2,0.4,0.4,0.4v0.1h-0.1c-0.2-0.1-0.3,0.1-0.4,0.2c-0.2,0.2-0.5,0.4-0.6,0.6
	c-0.2,0-0.2,0.2-0.3,0.3c0,0,0,0-0.1,0c-0.2,0-0.2,0.2-0.3,0.3c-0.2,0.2-0.4,0.3-0.5,0.5c-0.4,0.4-0.6,0.7-1,1
	c-0.2-0.2-0.2-0.5-0.6-0.2c-0.4,0.4-0.4,0.5,0.1,0.7c-0.2,0.5-0.6,0.8-0.7,1.4c0,0,0,0,0,0.1C17,25,17,25,16.9,25.1
	c-0.2,0.1-0.3,0.4-0.4,0.6c-0.3,0.1-0.3,0.4-0.3,0.6c0,0.1-0.1,0.1-0.1,0.2c-0.1,0.1-0.1,0.2-0.2,0.3c-0.1,0.3-0.3,0.5-0.4,0.7
	c-0.3,0.2-0.3,0.6-0.4,0.7c-0.5,1.1-0.9,2.2-1.1,3.4c-0.1,0.5,0,0.9-0.1,1.5c-0.3-0.2,0-0.5-0.3-0.6c0,0.3,0,0.6,0,0.8
	c0,0.3,0.2,0.6-0.2,0.8h-0.1c0-0.1,0-0.2,0-0.3c0.2-0.5,0.1-0.8,0-1.3c0.1-0.3,0.1-0.6,0-0.9C13.5,31.3,13.5,31.2,13.5,31.1z"/>
<path class="st2" d="M10.5,21.5c0.2-0.3,0.3-0.6,0.7-0.7c0.1,0,0.2,0,0.2-0.1c0.1,0,0.2,0,0.2,0c0,0.2,0.2,0.2,0.3,0.2
	c0.8,0.2,1.5,0.6,1.7,1.4c0.1,0.1,0.1,0.2,0.2,0.2c0,0.1,0.1,0.2,0.1,0.2s0,0,0,0.1c0,0.1-0.1,0.1-0.1,0.2c-0.1,0.3-0.4,0.6-0.5,0.8
	c-0.1,0-0.3,0.1-0.1,0.3c-0.2,0.6-0.3,0.6-0.8,0.4c-1.1-0.6-2.2-1.1-3.3-1.6c-0.2-0.1-0.4-0.1-0.6-0.2c0-0.3,0.2-0.6,0.4-0.7
	C9,22,9.1,22.1,9.2,22.3c0.1,0.5,0.5,0.6,0.8,0.3l0,0c0,0.1,0,0.3,0.1,0.3c0.2,0,0.1-0.2,0.1-0.3c0-0.2,0-0.4,0-0.6
	C10.5,21.7,10.5,21.6,10.5,21.5z M11,22.2c-0.5,0.4,0,0.5,0.2,0.6c0,0.1,0,0.1,0.1,0.2c0.2,0.5,0.7,0.7,1.1,0.5
	c0.1,0,0.2,0.1,0.3-0.1c0.3-0.1,0.6,0,0.7-0.4c0.3-0.2,0.2-0.4,0.1-0.6c-0.2-0.6-0.8-0.7-1.4-0.9c-0.5-0.2-0.7,0.1-1,0.3
	C10.9,21.9,11,22,11,22.2z"/>
<path class="st2" d="M10.8,26.7c-0.2-0.4-0.5-0.7-0.6-1.1c-0.1-0.1-0.1-0.2-0.2-0.2c-0.2,0-0.2,0.2-0.2,0.3
	c-0.1,0.4-0.2,0.7-0.3,1.1c-0.1,0.2-0.1,0.4-0.4,0.3c-0.3-0.1-0.3-0.2-0.2-0.5c0.1-0.6,0.3-1.3,0.4-2c0.1-0.1,0.1-0.2,0.1-0.3
	c0.3-0.1,0.5-0.2,0.6,0.3c0.1,0.4,0.5,0.6,0.6,1c0.3,0.6,0.6,1,1,1.6c0.5-0.5,0.5-1.1,0.6-1.6c0.1-0.2,0.1-0.3,0.2-0.5
	c0.1-0.2,0.2-0.2,0.4-0.1c0.2,0,0.2,0.2,0.2,0.3c-0.3,0.8-0.5,1.7-0.7,2.6c-0.2,0.4-0.5,0.1-0.6,0c-0.2-0.2-0.3-0.5-0.5-0.6
	C11,27.1,10.9,26.9,10.8,26.7z"/>
<path class="st2" d="M11.8,28.6c0.5,0.2,0.3,0.5,0.1,0.6c-0.5,0-0.9-0.3-1.4-0.2c-0.4-0.2-0.8-0.2-1.3-0.3c-0.6-0.1-1-0.2-1.6-0.3
	S7,28.4,7.3,27.9c0.1,0.1,0.2,0.2,0.4,0.2c1.3,0.3,2.6,0.5,3.9,0.6C11.7,28.9,11.8,28.8,11.8,28.6z"/>
<path class="st2" d="M11.8,28.6c0,0.2-0.1,0.3-0.3,0.2c-1.3-0.2-2.6-0.4-3.9-0.6c-0.2,0-0.2-0.2-0.4-0.2c0.1-0.4,0.4-0.1,0.6-0.1
	c1.2,0.3,2.4,0.3,3.6,0.6C11.5,28.5,11.7,28.5,11.8,28.6z"/>
<path class="st2" d="M9,29.8c0.4,0.2,0.8,0.1,1.3,0.1c0.2,0.2,0.5,0.1,0.6,0c0.1,0,0.1,0,0.2,0c0.1,0.2,0.3,0.1,0.5,0.2
	c-0.1,0.3-0.3,0.2-0.5,0.2c-0.6,0.1-1.4-0.2-2-0.2c-0.2,0-0.6,0-0.8-0.4v-0.1C8.5,29.8,8.7,29.8,9,29.8z"/>
<path class="st2" d="M7.2,29.8c0.1-0.1,0.3-0.1,0.5-0.1c0.1,0,0.2,0,0.3,0v0.1C7.6,30.2,7.4,30.1,7.2,29.8z"/>
<path class="st2" d="M35.8,8.1C35.8,8.1,35.7,8.1,35.8,8.1c-0.4,0.1-0.5,0.4-0.6,0.5c-0.3-0.4-0.3-0.7,0-1.1c0.1-0.1,0-0.3,0-0.4
	c-0.1-0.4-0.2-0.7,0-1c0.1-0.3,0-0.5-0.2-0.7c0.2-0.2,0.4,0,0.6-0.1l0,0c0.2,0.7-0.2,1.5-0.1,2.2c0,0.1-0.1,0.3,0.1,0.3
	c0.1,0.1,0.2-0.1,0.3-0.2c0.3-0.2,0.6-0.5,0.7-0.6c0.2-0.2,0.4-0.3,0.6-0.1C36.6,7.4,36.1,7.7,35.8,8.1z"/>
<path class="st2" d="M38,9.2c0-0.2,0.1-0.4,0.1-0.6c0.1-0.1,0.1-0.3,0.2-0.4c0.2,0,0.2-0.3,0.4-0.2c0.1,0.2-0.5,0.5,0,0.6
	c0,0.1,0,0.1,0,0.2c-0.4,0.1-0.1,0.2,0,0.3c-0.1,0.2-0.2,0.4-0.4,0.6C38.1,9.7,38.4,9.2,38,9.2z"/>
<path class="st2" d="M35.8,8.1C36.1,7.7,36.6,7.4,37,7c0.1,0,0.2,0,0.3,0v0.1c-0.4,0.4-0.7,0.6-1.2,1C36,8.1,35.9,8.1,35.8,8.1z"/>
<path class="st2" d="M28.5,6.2c0.1,0,0.1,0,0.2,0.1c0,0,0.1,0,0.1,0.1c-0.2,0.3-0.6,0.1-0.7,0.3c-0.3,0-0.5,0.1-0.7,0.1
	c-0.1,0-0.2,0-0.3,0C27.5,6.3,28.1,6.3,28.5,6.2z"/>
<path class="st2" d="M30.8,7.2c-0.1,0.3,0,0.7-0.6,0.6C30.4,7.6,30.4,7.3,30.8,7.2C30.7,7.2,30.8,7.2,30.8,7.2z"/>
<path class="st2" d="M37.3,7.1L37.3,7.1c0.1-0.2,0.3-0.2,0.4,0C37.4,7.1,37.4,7.1,37.3,7.1z"/>
<path class="st2" d="M30.3,8C30.2,8,30.2,8,30.3,8c-0.1-0.1-0.1-0.2,0.1-0.2C30.3,7.9,30.3,8,30.3,8z"/>
<path class="st2" d="M14.9,51.3c-0.1,0.1-0.1,0.2-0.2,0.3c-0.4,0-0.5,0.3-0.6,0.6v0.1c-0.6,0-0.6-0.3-0.5-0.7l0,0
	c0.2-0.2,0.3-0.4,0.5-0.6c0.3-0.3,0.4-0.6,0.2-0.9c-0.1-0.2,0-0.4,0-0.6l0.1-0.1c0.6-0.5,1.2-0.8,1.9-1c0.2,0.2,0.2,0.4,0.2,0.6
	c-0.1,0.1-0.2,0.2-0.3,0.4c-0.2,0-0.4,0.1-0.5,0.2c-0.2,0-0.3,0.2-0.4,0.3c-0.3-0.1-0.4,0.1-0.5,0.3c-0.2,0.1-0.3,0.2-0.1,0.4
	C14.8,50.8,14.8,51.1,14.9,51.3z"/>
<path class="st2" d="M20.2,46.1c-0.1,0.1-0.1,0.3-0.1,0.4c-0.2,0.1-0.3-0.5-0.5-0.2c-0.2,0.2,0.1,0.4,0.3,0.6c-0.2,0.3-0.4,0-0.6,0
	c0-0.1,0-0.3,0-0.4c0-0.2-0.1-0.4-0.1-0.6c0.1-0.1,0.2-0.2,0.2-0.4c0.2-0.4,0.4-0.6,0.8-0.6c0.1,0.2-0.1,0.5,0.2,0.6
	c0,0.1,0,0.1,0,0.2C20,45.6,20.2,45.9,20.2,46.1z"/>
<path class="st2" d="M25,45.7c-0.3,0-0.3,0.3-0.5,0.4c-0.1,0-0.3,0.1-0.4,0.1c-0.3-0.3,0.2-0.5,0.2-0.6c0.3-0.1,0.5-0.3,0.4-0.6
	c0.1-0.1,0.1-0.3,0.2-0.4c0.3,0.2,0.1,0.5,0.3,0.7v0.1C25.2,45.5,25.2,45.7,25,45.7z"/>
<path class="st2" d="M24.4,45.6c-0.1,0.2-0.5,0.4-0.2,0.6c-0.2,0-0.4-0.1-0.6-0.1c0.3-0.4,0.3-0.4,0-0.4c0-0.1-0.1-0.3-0.1-0.4
	c0.2-0.1,0.3-0.1,0.5-0.2c0.2,0,0.3,0,0.5,0C24.5,45.4,24.4,45.5,24.4,45.6z"/>
<path class="st2" d="M19.8,46.7c-0.2-0.2-0.4-0.4-0.3-0.6c0.2-0.2,0.3,0.3,0.5,0.2c0.1,0.1,0.2,0.3,0.2,0.4l-0.1,0.1
	C20,46.8,20,46.8,19.8,46.7C20,46.8,19.9,46.8,19.8,46.7z"/>
<path class="st2" d="M23.6,45.7c0.3,0.1,0.3,0.1,0,0.4c-0.1,0-0.3,0-0.4,0c-0.1,0-0.1,0-0.2,0c0,0-0.1,0-0.1-0.1
	c0-0.1,0.1-0.1,0.1-0.2l0,0l0,0c0.1,0.1,0.1,0.1,0.1,0C23.4,45.8,23.6,45.8,23.6,45.7z"/>
<path class="st2" d="M20.2,46.9c0,0.1,0,0.1,0,0.2s-0.1,0.2-0.1,0.3c-0.2,0-0.2-0.1-0.2-0.2S20,47.1,20,47
	C20,46.9,20.1,46.9,20.2,46.9z"/>
<path class="st2" d="M15.8,54.1c0.2,0.2,0.1,0.4,0.1,0.6c-0.2-0.1-0.3-0.2-0.5-0.4c-0.2-0.3-0.2-0.5,0.2-0.5
	C15.7,54,15.8,54,15.8,54.1C15.7,54.1,15.7,54.2,15.8,54.1C15.7,54.2,15.7,54.1,15.8,54.1z"/>
<path class="st2" d="M12,51.8L12,51.8C11.9,51.9,11.9,51.9,12,51.8C11.9,51.9,12,51.8,12,51.8L12,51.8z"/>
<path class="st2" d="M50,54.6c-0.3,0.2-0.6-0.1-0.8,0c-0.1-0.2-0.2-0.4,0.1-0.5c0.2,0,0.4,0.2,0.6,0.3C49.9,54.4,50,54.5,50,54.6z"
	/>
<path class="st2" d="M52.5,52c-0.2-0.1-0.2-0.4-0.5-0.4c0-0.1-0.1-0.3-0.1-0.4l0,0C52.4,51.2,52.4,51.6,52.5,52
	C52.6,51.9,52.5,52,52.5,52z"/>
<path class="st2" d="M7.1,44.6c0.1,0.2,0.3,0.2,0.2,0.4c-0.2,0-0.4,0.1-0.5,0.1c-0.1-0.1-0.2-0.3-0.3-0.4
	C6.7,44.7,6.9,44.7,7.1,44.6z"/>
<path class="st2" d="M17.5,56.9c0.1-0.4,0.5-0.6,0.2-1c-0.4-1.2-1-2.3-1.7-3.3c-0.2-0.2-0.2-0.5-0.3-0.7c0.1,0,0.2,0,0.3,0
	c0.3,0.7,0.7,1.4,1.1,2c0.6,0.7,0.6,1.7,1,2.5c0,0.1,0.1,0.1,0.1,0.2c0,0.3-0.6,0.3-0.4,0.6c-0.1-0.1-0.3-0.2-0.5-0.1
	C17.5,56.9,17.5,56.9,17.5,56.9z"/>
<path class="st2" d="M48.8,55.5c-0.1-0.1-0.2-0.2-0.2-0.3c0.2-0.7-0.2-1.4-0.1-2.1c0.1,0,0.2,0,0.3,0c0,0.1,0,0.2,0,0.3
	c0,0.2,0.1,0.4,0.1,0.6C48.8,54.5,49,54.9,48.8,55.5C48.9,55.5,48.8,55.5,48.8,55.5z"/>
<path class="st3" d="M60.1,25.4c0-0.1,0-0.1,0-0.2c0.1-0.2-0.1-0.6,0.3-0.6c0.1,0.3,0.2,0.6,0.3,0.9c-0.1,0.1-0.1,0.2-0.2,0.3
	C60.2,25.8,60.4,25.4,60.1,25.4z"/>
<path class="st2" d="M56.1,16.3L56.1,16.3C56.2,16.2,56.2,16.2,56.1,16.3z"/>
<path class="st2" d="M55.6,42.2c0.1,0,0.2,0,0.3,0c0,0.1,0.1,0.1,0.2,0.1c0.3,0.1,0.6,0.3,0.7,0.6c-0.1,0-0.2,0.1-0.3,0.1
	c-0.6-0.6-0.8-0.6-1.4-0.1c-0.3,0-0.4-0.1-0.2-0.3C55.1,42.5,55.5,42.5,55.6,42.2z"/>
<path class="st2" d="M42.4,35.9c0.1,0,0.2-0.1,0.3-0.1c0.1,0.1,0.2,0.1,0.3,0.2h0.1c0,0.1,0.1,0.2,0.2,0.3c0.1,0.1,0.2,0.3,0.3,0.4
	c0,0.1-0.1,0.2-0.1,0.3c-0.4-0.3-0.8-0.4-1.3-0.6c0-0.1,0.1-0.1,0-0.2C42.3,36.1,42.3,36,42.4,35.9z"/>
<path class="st2" d="M42.5,33.9c-0.3-0.3-0.3-0.6-0.4-1c0.1-0.2,0.3,0,0.4,0c0,0.2,0.1,0.5,0.1,0.6C42.6,33.7,42.8,33.9,42.5,33.9z"
	/>
<path class="st2" d="M43.4,37c0-0.1,0.1-0.2,0.1-0.3c0.3,0,0.1,0.5,0.4,0.5c0,0,0,0,0.1,0c0,0.1,0,0.1,0,0.2c0,0.2,0,0.3-0.1,0.4
	c-0.2-0.1-0.2-0.3-0.3-0.4C43.7,37.2,43.4,37.2,43.4,37z"/>
<path class="st2" d="M50.7,27c-0.2,0.1-0.2,0.4-0.4,0.5c-0.2,0.2-0.4,0.4-0.6,0.6c0-0.1,0-0.2-0.1-0.4c0-0.1,0-0.2,0-0.3
	c0.2-0.1,0.2-0.3,0.3-0.4c0.1,0,0.2-0.1,0.2-0.2c0.2-0.3,0.4-0.6,0.6-0.8c0.1,0,0.3,0,0.3,0.2C51,26.4,50.9,26.8,50.7,27z"/>
<path class="st2" d="M49.8,27.7c0,0.1,0,0.2,0.1,0.4c0,0.1,0,0.1-0.1,0.2c0-0.1-0.1-0.2-0.1-0.3S49.7,27.8,49.8,27.7z"/>
<path class="st2" d="M49.4,28.5c-0.1-0.1-0.1-0.2-0.1-0.3l0,0c0.1,0,0.1-0.1,0.2-0.1c0,0.1,0,0.1,0,0.2
	C49.5,28.4,49.5,28.4,49.4,28.5z"/>
<path class="st2" d="M49.5,28.3c0-0.1,0-0.1,0-0.2c0-0.1,0-0.1,0-0.2h0.1c0,0.1,0.1,0.2,0.1,0.3C49.7,28.3,49.6,28.3,49.5,28.3z"/>
<path class="st2" d="M14.9,20.6c-0.6,0.2-1.2,0.2-1.7-0.3c-0.2-0.1-0.5,0.1-0.5-0.3c-0.1-0.3-0.2-0.5-0.5-0.5
	c-0.1-0.1-0.1-0.2,0-0.3c0-0.1,0-0.2-0.1-0.3c0-0.7,0.4-1.3,0.8-1.8c0.1,0,0.1,0,0.2,0c0.1,0.1,0.2,0.1,0.3,0.1
	c0.6-0.1,1.2,0.2,1.7,0.6c0.2,0.2,0.4,0.2,0.6,0.1c0.1,0.1,0.1,0.2,0.1,0.3c-0.1,0-0.2,0-0.2,0.1c0,0.2,0.2,0.3,0.4,0.4
	c0,0.2,0,0.4,0,0.6c-0.1,0.1-0.1,0.3-0.2,0.4c0,0,0,0,0,0.1c-0.1,0.1-0.2,0.3-0.3,0.4c-0.1,0.1-0.2,0.2-0.4,0.3l0,0
	C15.1,20.5,15,20.6,14.9,20.6z M12.9,18.5c-0.2,0.2-0.4,0.4-0.2,0.6c0.1,0.3,0.4,0,0.5,0c0,0.1,0,0.2,0,0.2c-0.4,0.4,0,0.6,0.2,0.6
	c0.5-0.1,0.9,0.3,1.4,0.1c0.1-0.1,0.1-0.1,0.2-0.2c0.4-0.2,0.5-0.6,0.4-0.9c0-0.1-0.1-0.3-0.3-0.3c0.1-0.5-0.4-0.4-0.6-0.4
	c-0.1-0.3-0.2-0.6-0.5-0.6c-0.4-0.1-0.7,0-0.9,0.3S13,18.4,12.9,18.5z"/>
<path class="st2" d="M15.5,15.3c0,0.2-0.7,0.2-0.1,0.6c0.2,0.1-0.1,0.3-0.2,0.4s-0.3,0-0.3-0.1c-0.1-0.3-0.3-0.6,0-0.8
	c0.3-0.1,0.4-0.3,0.4-0.6c0.8-0.7,1.1-0.7,1.9,0c0.4,0.4,0.6,0.6,1,1c0.2,0.2,0.4,0.3,0.6,0.2c0.2,0.2-0.1,0.3-0.1,0.4
	c-0.2,0.1-0.6,0-0.6,0.5l0,0c-0.1,0.1-0.1,0.1-0.2,0.2c-0.4-0.1-0.3,0.2-0.4,0.4l0,0c-0.2,0-0.5,0.1-0.6,0.1c0-0.2,0.1-0.2,0.2-0.3
	c0.4-0.2,0.6-0.6,0.6-1c0.1-0.4-0.2-0.6-0.5-0.7c-0.3-0.2-0.4,0.2-0.5,0.3c-0.2,0.2-0.4,0.5-0.5,0.7c-0.1,0-0.2,0.1-0.2,0.2v0.1
	c-0.1-0.1-0.2,0-0.3,0c-0.1-0.2,0-0.3,0.1-0.4c0.3-0.2,0.5-0.6,0.6-0.9l0.1-0.1c0.1,0,0.2-0.1,0.2-0.2l0,0c0.1,0,0.2,0,0.2-0.1
	c0-0.1-0.1-0.2-0.2-0.2c-0.6-0.5-0.7-0.5-1,0.1l0,0C15.5,14.9,15.5,15.1,15.5,15.3z"/>
<path class="st2" d="M17.7,17.3c-0.1,0.2-0.3,0.3-0.4,0.5c-0.1,0-0.1,0-0.2,0.1c-0.3-0.1-0.6-0.1-0.8-0.2c-0.2-0.3-0.6-0.5-0.5-0.9
	c0.1,0,0.2-0.1,0.3,0c0.1,0.5,0.4,0.7,0.9,0.6C17.2,17.4,17.5,17.3,17.7,17.3z"/>
<path class="st2" d="M15.9,16.1c0.2-0.2,0.3-0.6,0.6-0.6c-0.1,0.4-0.3,0.6-0.6,0.9C15.9,16.3,15.9,16.2,15.9,16.1z"/>
<path class="st2" d="M15.2,14.7L15.2,14.7c0.1,0.3,0,0.5-0.3,0.6C14.9,15,15,14.8,15.2,14.7z"/>
<path class="st2" d="M19.3,14.2c0,0.5,0.2,0.7,0.6,0.8c0.2,0.1,0.2,0.1,0.1,0.3c-0.1,0-0.1,0.1-0.2,0.1c-0.2,0.1-0.3-0.1-0.4-0.3
	c-0.3-0.4-0.6-0.8-0.8-1.1c-0.2-0.3-0.5-0.6-0.6-0.9c-0.1-0.2-0.3-0.3-0.2-0.6c0.3,0,0.4,0.2,0.6,0.4C18.6,13.4,18.8,13.9,19.3,14.2
	z"/>
<path class="st2" d="M35.5,13.2c0.1,0.1,0.2,0.1,0.3,0c0.1,0,0.2,0,0.2,0c0.2,0.4,0.6,0.1,0.8,0.3c-0.1,0.1-0.1,0.1-0.2,0.2
	c-0.2,0-0.4,0-0.6,0c-0.3-0.1-0.6-0.4-0.9,0c-0.1,0-0.2,0.1-0.2,0.1c-0.1,0-0.1,0-0.2,0.1c-0.1,0-0.1,0-0.2,0
	c-0.1-0.5,0.5-0.3,0.6-0.6C35.2,13.2,35.3,13.2,35.5,13.2z"/>
<path class="st2" d="M34.2,13.8c-0.1,0-0.1,0-0.2,0.1c0-0.1-0.1-0.2-0.3-0.2c-0.1,0-0.3,0.1-0.3-0.1c0-0.2,0.2-0.2,0.3-0.2
	C34,13.4,34.2,13.5,34.2,13.8z"/>
<path class="st2" d="M33.2,13.6C33.3,13.6,33.3,13.7,33.2,13.6c0.1,0.2,0,0.3-0.1,0.3c-0.1,0-0.2,0-0.1-0.1
	C32.9,13.6,33.1,13.6,33.2,13.6z"/>
<path class="st2" d="M22.5,18.2c0.2,0.2,0.6-0.4,0.7,0.2h-0.1C23,18.2,22.7,18.4,22.5,18.2L22.5,18.2z"/>
<path class="st2" d="M28.2,15.1c-0.3,0.2-0.4,0.1-0.6,0C27.9,15,28.1,15,28.2,15.1z"/>
<path class="st2" d="M29.5,14.8c-0.1,0-0.2,0.1-0.4,0c-0.1-0.1-0.3-0.1-0.2-0.2c0-0.1,0.2-0.1,0.3-0.1
	C29.4,14.6,29.5,14.7,29.5,14.8z"/>
<path class="st2" d="M22.3,18.2c0-0.2,0-0.3,0.3-0.3c0,0.1,0,0.2,0,0.3l0,0C22.5,18.2,22.4,18.2,22.3,18.2L22.3,18.2z"/>
<path class="st2" d="M28.7,14.7L28.7,14.7c-0.2,0-0.2,0-0.2-0.1l0.1-0.1C28.7,14.6,28.7,14.6,28.7,14.7z"/>
<path class="st2" d="M39.2,13.2c0.1,0,0.3,0,0.4,0c0.2,0.1,0.1,0.7,0.6,0.2c0.1-0.1,0.6,0.1,0.8,0.2c0.4,0.1,0.7,0.3,1.1,0.4
	c0.2,0.1,0.3,0.2,0.2,0.4c-0.4-0.1-0.7-0.2-1.1-0.3v-0.1c-0.1-0.3-0.3-0.5-0.6-0.1v0.1c-0.2,0-0.4,0-0.6,0c0-0.1-0.1-0.2-0.3-0.1
	c-0.1,0-0.3-0.1-0.4-0.1c0-0.1,0-0.2-0.1-0.3c-0.1,0-0.2,0.1-0.2,0.2c-0.2,0-0.4,0-0.6,0c-0.2-0.1-0.4,0-0.6-0.1
	c-0.1-0.2-0.4,0-0.5-0.2c0.4-0.2,0.6-0.1,1-0.1C38.8,13.4,39.1,13.4,39.2,13.2z"/>
<path class="st2" d="M44.6,10.1c0-0.1,0-0.2-0.1-0.4c0.2,0.1,0.4,0.1,0.5,0.1c0.1,0,0.1,0.1,0.2,0.1c0,0.1,0,0.3-0.1,0.3
	C45,10.3,44.8,10.1,44.6,10.1z"/>
<path class="st2" d="M27.2,7.9c-0.3-0.1-0.1-0.4-0.2-0.6C27.3,7.6,27.2,7.7,27.2,7.9z"/>
<path class="st2" d="M27.4,8.7c-0.1-0.1-0.4-0.2-0.1-0.5C27.4,8.4,27.5,8.6,27.4,8.7z"/>
<path class="st2" d="M27.6,9.1c-0.1,0-0.2-0.1-0.1-0.2C27.6,8.9,27.6,9,27.6,9.1z"/>
<path class="st2" d="M30.8,8.2c0,0.2,0,0.4-0.3,0.6c-0.1-0.1-0.2-0.3-0.2-0.4C30.5,8.2,30.7,8.2,30.8,8.2z"/>
<path class="st2" d="M44.6,10.1c0.2,0,0.4,0.2,0.6,0.2c-0.2,0.7-0.5,1.4-0.9,2c-0.1,0.1-0.1,0.2-0.1,0.4c-0.1,0-0.2,0.1-0.2,0.1
	c-0.1-0.1-0.3-0.1-0.4-0.2c0.2-0.1,0.5-0.3,0.2-0.6c0-0.1,0.1-0.2,0.1-0.3c0.2-0.1,0.3-0.3,0.3-0.5c0.1,0,0.2-0.1,0.2-0.2
	c0.3-0.2,0.1-0.6,0.1-0.7C44.6,10.3,44.6,10.2,44.6,10.1z"/>
<path class="st2" d="M43.8,12.1c0.3,0.3,0,0.4-0.2,0.6c-0.1,0-0.1-0.1-0.1-0.2C43.7,12.3,43.7,12.2,43.8,12.1z"/>
<path class="st2" d="M41.2,9.8c-0.8-0.2-1.7-0.4-2.6-0.6c0-0.1-0.4-0.2,0-0.3c0.6,0.2,1.2,0.4,1.8,0.5c0.4,0.1,0.5-0.1,0.3-0.4
	c0-0.5-0.2-0.8-0.6-1c-0.5-0.2-0.8,0-1.2,0.4c-0.1,0.1-0.2,0.2-0.3,0.4c-0.5-0.2,0.1-0.5,0-0.6c0.3-0.3,0.7-0.4,1-0.6
	c0.1,0,0.1,0,0.2,0c0.4,0.3,0.8,0.4,1.1,0.8C41,8.5,41,8.6,41.1,8.8C41,9.1,41,9.4,41.2,9.8C41.2,9.7,41.2,9.8,41.2,9.8z"/>
<path class="st2" d="M48.8,42.4L48.8,42.4c0,0.2,0,0.2,0,0.3c-0.1,0.2-0.2,0.1-0.4,0.1C48.3,42.4,48.6,42.4,48.8,42.4z"/>
<path class="st2" d="M47.1,47.3c-0.1,0-0.1,0-0.2,0c-0.9-0.1-0.9-0.1-0.7,0.8c0.3,1.2,0.6,2.4,0.9,3.6c-0.1,0-0.2,0-0.3,0
	c-0.5-0.9-0.6-1.9-0.9-2.9c-0.1-0.3-0.2-0.6-0.3-0.9c0-0.3,0.1-0.5,0-0.7C46.2,46.9,46.6,46.8,47.1,47.3z"/>
<path class="st2" d="M44.2,46.4c-0.4-0.2-0.7,0.2-0.7,0.6c0,0.4,0.3,0.6,0.2,1c-0.2,0.2-0.4,0.4-0.5-0.1c0-0.1-0.1-0.2-0.1-0.2
	c0-0.4-0.1-0.7-0.6-0.6c-0.1,0-0.3,0-0.4,0C42.1,47,42.1,47,42,46.9c0-0.1,0.1-0.2,0.1-0.4c0.1,0,0.2,0,0.2,0.1
	c0.1,0,0.1,0.1,0.2,0.1l0,0c0.2,0.2,0.3,0.3,0.5,0c0.6-0.1,0.3-0.6,0.4-0.8c0.3,0.3,0.6,0.3,0.9,0.3C44.2,46.1,44.2,46.2,44.2,46.4z
	"/>
<path class="st2" d="M45.6,47.1c-0.1,0-0.2-0.1-0.3-0.1c-0.1-0.4-0.6-0.1-0.7-0.5C45.1,46.6,45.4,46.6,45.6,47.1z"/>
<path class="st2" d="M48.1,47.7c-0.1,0-0.2-0.1-0.2-0.2c0-0.2,0-0.3,0-0.5c0.3,0.1,0.3,0.4,0.5,0.6C48.3,47.7,48.2,47.7,48.1,47.7z"
	/>
<path class="st2" d="M44.3,45.7c0.1,0.1,0.2,0.1,0.3,0.2c-0.1,0.2-0.3,0.1-0.5,0.1C44.2,45.9,44.2,45.8,44.3,45.7z"/>
<path class="st2" d="M47.1,46.6c0.2,0,0.3,0,0.4,0.2C47.2,46.9,47.2,46.7,47.1,46.6z"/>
<path class="st2" d="M44.8,46c0.1-0.1,0.2,0,0.3,0.1C45,46.2,44.9,46.1,44.8,46z"/>
<path class="st2" d="M48.1,47.7c0.1,0,0.2,0,0.3,0c0.6,0.3,1,0.6,1.6,0.9c0,0,0,0,0,0.1c0.3,0.5,0.6,0.7,1,1
	c0.2,0.1,0.2,0.3,0.2,0.5c-0.1,0-0.2,0.1-0.2,0.1c-0.3-0.3-0.7-0.4-0.9-0.7c-0.1-0.2-0.2-0.4-0.5-0.3c-0.2-0.3-0.6-0.3-0.7-0.6
	c-0.1-0.1-0.2-0.3-0.3-0.2c-0.1,0-0.1,0.1-0.1,0.2s0,0.1,0,0.2c-0.3-0.1-0.2-0.5-0.4-0.6C48.2,48.1,48.1,47.9,48.1,47.7z"/>
<path class="st2" d="M51.1,50.3c0.1,0,0.2-0.1,0.2-0.1c0.4,0.1,0.5,0.6,0.8,0.6c0.2,0.1-0.2,0.2-0.1,0.4l0,0h-0.1
	c-0.3-0.1-0.4-0.4-0.6-0.6C51.2,50.6,51.1,50.5,51.1,50.3C51.1,50.3,51.1,50.3,51.1,50.3z"/>
<path class="st2" d="M42.3,41.8c0.2-0.1-0.1-0.5,0.2-0.5c0.2,0,0.3,0.3,0.5,0.4c0-0.3,0-0.6,0.1-0.9c0.1,0,0.2,0,0.3,0
	c0,0.7-0.1,1.5,0.1,2.2c0,0.3,0.1,0.6-0.1,0.8h-0.1c0.2-0.6-0.3-1-0.1-1.6c-0.1,0-0.1,0-0.2,0s-0.2,0-0.3,0c0-0.1,0-0.2,0-0.2
	C42.6,41.9,42.4,41.9,42.3,41.8L42.3,41.8z"/>
<path class="st2" d="M42.1,39c0.1,0,0.2,0.1,0.3,0.1c0.1,0.3-0.3,0.3-0.3,0.5c-0.1,0.1-0.2,0.1-0.3,0c-0.3-0.3-0.4,0.2-0.6,0.1
	l-0.1-0.1c0-0.1,0-0.2,0-0.3c0.3-0.1,0.6-0.1,0.7-0.4C42,39,42,39,42.1,39z"/>
<path class="st2" d="M41.9,39.6c0.1,0.1,0.2,0.1,0.3,0c0.1,0.1,0.2,0.2,0.2,0.2c-0.3,0-0.2,0.3-0.3,0.5c-0.1,0-0.3,0-0.4,0.1
	c0-0.1,0-0.3-0.2-0.3c-0.1-0.1-0.1-0.1-0.2-0.2C41.5,39.7,41.8,39.8,41.9,39.6z"/>
<path class="st2" d="M44.3,38.7c0-0.1,0-0.2,0-0.3c0.5,0.2,0.5,0.2,0.6,0.4c0,0.1,0,0.1,0,0.2c-0.1,0-0.2,0-0.3,0
	C44.6,38.8,44.5,38.7,44.3,38.7z"/>
<path class="st2" d="M43.5,44.3c-0.1-0.1-0.1-0.1-0.1-0.2C43.5,44.2,43.6,44.3,43.5,44.3z"/>
<path class="st2" d="M43.2,45.6c-0.2-0.2-0.1-0.3,0.1-0.3C43.4,45.5,43.4,45.5,43.2,45.6z"/>
<path class="st2" d="M51.5,20.4c0,0.1,0.1,0.3,0.1,0.4s0,0.1,0,0.2c-0.1,0-0.1,0-0.2,0c-0.1,0-0.2,0-0.3,0c0,0,0,0-0.1,0
	c-0.1-0.2-0.3-0.4-0.3-0.6c0.1-0.1,0.1-0.2,0.1-0.3c0.1,0,0.1,0.1,0.2,0.1c0.1,0.2,0.1,0.2,0.3,0.1C51.4,20.3,51.4,20.4,51.5,20.4z"
	/>
<path class="st2" d="M51.1,20.3c0.1,0,0.2,0,0.2,0c0,0.1,0,0.1,0.1,0.2C51.1,20.4,51.1,20.3,51.1,20.3z"/>
<path class="st2" d="M52.1,22.2L52.1,22.2c0,0.4,0,0.6-0.1,0.8c-0.1,0-0.2,0-0.2,0c0-0.6,0.1-1.4-0.2-2c0-0.1,0-0.1,0-0.2
	C52.1,21.1,52.3,21.8,52.1,22.2z"/>
<path class="st2" d="M51.4,21.4c0.4,0.6,0.2,1.3,0.2,1.8c-0.1,0-0.1,0-0.2,0c0-0.1,0-0.2-0.1-0.2c0-0.1,0-0.2,0-0.3
	c0-0.2,0-0.3,0-0.5c0-0.1,0-0.2,0-0.2c0-0.2,0-0.3-0.1-0.4c0-0.1,0-0.2,0-0.3S51.3,21.4,51.4,21.4z"/>
<path class="st2" d="M51.1,25c0-0.1,0-0.3,0-0.4c0.1-0.1,0.1-0.2,0.2-0.2c0.2,0,0.4-0.1,0.4,0.2C51.5,24.9,51.4,25.1,51.1,25z"/>
<path class="st2" d="M51.8,24.3c0.1,0.2,0.1,0.3-0.1,0.4C51.7,24.6,51.6,24.4,51.8,24.3z"/>
<path class="st2" d="M51.2,24.2L51.2,24.2c-0.1-0.2-0.1-0.2-0.1-0.3c0.1,0,0.1,0,0.2,0C51.3,24,51.4,24.2,51.2,24.2z"/>
<path class="st2" d="M8.4,33.8c0.1,0,0.1,0,0.2,0c0.1,0.1,0.2,0.1,0.3,0.2l0,0c0,0.2,0,0.4,0.2,0.5c0-0.2,0.3-0.4,0.3-0.6
	c0.4-0.4,0.8-0.6,1.4-0.6c0.3,0.1,0.6,0.2,0.6,0.6c0,0.2,0.1,0.3,0.2,0.5c0.6,0.6,0.5,1.5,0.6,2.2c0,0.2,0,0.4-0.3,0.4
	c0-0.2,0.2-0.6-0.3-0.3c0-0.2,0-0.3,0-0.5c-0.1-0.5-0.1-0.9-0.2-1.3c-0.1-0.5-0.5-0.7-0.9-0.7c-0.5,0.1-0.6,0.4-0.6,0.8
	c0,0.1,0,0.3,0,0.4c-0.3,0.2-0.2,0.4,0.1,0.5c0.1,0.2,0,0.4,0,0.6c-0.2,0.1-0.2,0.3-0.3,0.5c-0.1,0-0.1,0-0.2,0c0-0.1,0-0.2-0.1-0.2
	c0.1-0.5-0.1-0.9-0.1-1.4C9,35,8.9,34.7,8.6,34.6c-0.2-0.3-0.5-0.2-0.7-0.1c-0.4,0.1-0.4,0.6-0.6,0.7c0-0.1,0-0.2,0-0.2
	c0-0.7,0.4-1.2,0.9-1.3C8.2,33.8,8.3,33.8,8.4,33.8z"/>
<path class="st2" d="M20.5,44.2c-0.4,0.1-0.3,0.5-0.5,0.7c-0.5,0-0.6,0.3-0.8,0.6c-0.1,0.1-0.1,0.3-0.2,0.4c-0.1,0-0.2,0-0.2,0
	c-0.7-0.1-1.3,0.3-1.7,1.1c-0.2,0-0.3,0.2-0.3,0.4c-0.1,0-0.2,0-0.3,0c-0.2-0.4-0.1-0.6,0-0.9c0.2,0,0.2-0.2,0.2-0.3
	c0-0.1,0.1-0.1,0.2-0.1c0.4,0.1,0.5-0.1,0.6-0.6v-0.1l0,0c0.2-0.1,0.5-0.2,0.7-0.2c0.2,0.2,0.4,0.2,0.4-0.1c0.1-0.2,0.2-0.3,0.3-0.5
	c0.2-0.3,0.6-0.4,0.6-0.7l0,0c0.2-0.1,0.2-0.3,0.3-0.5v-0.1c0.3-0.1,0.4-0.3,0.5-0.6c0.1,0,0.1-0.1,0.2-0.1c0.1,0.1,0.1,0.2,0.2,0.2
	c0.2,0.2,0.4,0.3,0.4,0.6c-0.3,0-0.5,0.1-0.6,0.4c-0.2,0-0.3,0.1-0.3,0.3C20.5,44.1,20.5,44.1,20.5,44.2L20.5,44.2z"/>
<path class="st2" d="M20.8,42.6c-0.1,0-0.1,0.1-0.2,0.1c-0.5-0.5-0.6-1.1-1.5-1.2h-0.1c-0.1-0.1-0.1-0.2-0.3-0.1
	c-0.6-0.2-0.9-0.6-1.5-0.8c0-0.3-0.3-0.4-0.6-0.5c-0.1-0.1-0.2-0.1-0.2-0.2c-0.1-0.3-0.3-0.4-0.5-0.5c-0.1-0.3-0.3-0.4-0.5-0.6
	c-0.1-0.2,0.2-0.5-0.2-0.5c-0.1,0-0.2,0-0.3-0.1l0,0c-0.4-0.6-0.7-1.3-1.2-1.9v-0.1c0,0,0-0.1,0.1-0.1c0.2,0.1,0.3,0.3,0.5,0.2
	c0.2,0.3,0.3,0.7,0.6,1c0.5,0.9,1.1,1.7,1.9,2.3c0,0.1,0,0.1,0,0.2c0.9,0.6,1.8,1.1,2.9,1.6c0.1,0,0.2,0,0.2,0
	c0.1-0.1,0.1-0.2,0-0.3C20,41.1,19.8,41,19.7,41c0.1-0.1,0.1-0.1,0.2-0.2c0.1,0,0.3,0.1,0.4,0.1c0.1,0.4,0.3,0.1,0.4,0.1
	c0.1,0.2-0.3,0.3-0.1,0.6c0.1,0.2-0.3,0.5,0,0.6c0,0.1,0.1,0.1,0.1,0.2C20.7,42.4,20.7,42.5,20.8,42.6z"/>
<path class="st2" d="M9.3,36.7c0.1,0,0.1,0,0.2,0c0.6,0,1.3-0.2,2-0.2c0.5-0.3,0.3,0.2,0.3,0.3c-0.1,0-0.2,0.1-0.2,0.1
	c-0.2-0.1-0.5,0-0.6,0.1c-1,0.1-1.9,0.1-2.9,0.4c-0.3-0.1-0.6,0.1-0.8-0.2c0.2-0.3,0-0.6,0-0.8c0-0.4-0.1-0.8-0.1-1.2
	c0.3-0.2,0.3-0.6,0.6-0.7c0.3-0.1,0.6-0.2,0.7,0.1c-0.6,0-0.8,0.5-0.8,0.9c-0.5,0-0.3,0.2-0.2,0.5c0,0.1,0,0.2,0,0.2v0.1
	c0,0.1,0,0.3,0,0.4c0,0.5,0,0.5,0.2,0.5C8.2,36.9,8.7,36.7,9.3,36.7z"/>
<path class="st2" d="M10,32.3c-0.5,0-0.9,0-1.4,0c-0.3,0-0.5-0.1-0.5-0.4c0-0.3,0.2-0.4,0.5-0.3c0.9,0.1,1.8,0.1,2.8,0.1
	c0.2,0,0.4,0,0.4,0.3c0,0.3-0.1,0.4-0.4,0.4C11,32.4,10.5,32.4,10,32.3C10,32.4,10,32.3,10,32.3z"/>
<path class="st2" d="M7.9,29.9c0.1,0,0.2,0,0.3,0c0.2,0.4,0.6,0.3,0.8,0.4c0.6,0,1.4,0.3,2,0.2c0.2,0,0.4,0.1,0.5-0.2
	c0.3,0,0.3,0.3,0.2,0.5c0,0.3-0.3,0.2-0.4,0.2c-1.2-0.1-2.3-0.3-3.5-0.4c-0.3,0-0.6-0.1-0.9-0.1c0-0.1,0-0.3-0.1-0.4
	C6.9,30,7,30,7.1,29.9C7.4,30.1,7.6,30.2,7.9,29.9z"/>
<path class="st2" d="M14.5,36.5c-0.2,0.1-0.3-0.2-0.5-0.2c-0.1-0.4-0.2-0.8-0.5-1.1c0-0.2,0-0.4,0-0.6c0.1,0,0.1-0.1,0.1-0.2
	c0.2-0.3,0-0.6,0.2-0.8c0.2,0.4-0.1,0.8,0.2,1.3c0,0.1,0,0.2,0,0.2c0,0.2-0.1,0.3,0.1,0.4C14.3,35.8,14.5,36.1,14.5,36.5z"/>
<path class="st2" d="M7.2,32.2c-0.3,0-0.4,0-0.4-0.3s0.2-0.3,0.5-0.3c0.2,0,0.4,0,0.4,0.3S7.5,32.3,7.2,32.2z"/>
<path class="st2" d="M13.5,34.4L13.5,34.4h0.2h0.1c0,0.1,0,0.2-0.1,0.2C13.5,34.5,13.5,34.5,13.5,34.4z"/>
<path class="st2" d="M21.5,19.9C21.5,19.9,21.4,20,21.5,19.9C21.4,20,21.4,20,21.3,20c-0.2-0.1-0.4-0.2-0.4-0.4
	c0-0.3,0.3-0.1,0.4-0.3c0.2-0.2,0.4-0.4,0.6-0.6l0,0c0,0,0,0-0.1,0c0-0.1,0-0.2-0.1-0.2l0.1-0.1c0.1-0.1,0.3-0.1,0.4-0.2l0,0
	c0,0.3,0.4,0.3,0.3,0.6c-0.1,0-0.1,0.1-0.2,0.1c-0.4-0.1-0.5,0.1-0.5,0.5c0,0.1-0.1,0.1-0.1,0.2C21.6,19.6,21.5,19.6,21.5,19.9
	C21.5,19.7,21.5,19.8,21.5,19.9z"/>
<path class="st2" d="M18.2,23c-0.1,0.3-0.3,0.4-0.5,0.6c-0.5-0.3-0.5-0.4-0.1-0.7C18,22.6,18,22.8,18.2,23z"/>
<path class="st2" d="M13.9,32.9c0,0.2,0,0.4,0,0.6c-0.3,0.3,0,0.6-0.2,0.8h-0.1h-0.1c0-0.2,0-0.4-0.1-0.5c0.3-0.2,0.1-0.6,0.2-0.8
	c0-0.3,0-0.6,0-0.8C13.9,32.5,13.7,32.9,13.9,32.9z"/>
<path class="st2" d="M10.2,22.4c-0.4,0.3-0.7,0.2-0.8-0.3C9.7,22,9.9,22.3,10.2,22.4z"/>
<path class="st2" d="M10.4,22.4c0,0.1,0.1,0.3-0.1,0.3c-0.1,0-0.1-0.2-0.1-0.3C10.2,22.4,10.3,22.4,10.4,22.4z"/>
<path class="st2" d="M16.8,48.9c-0.1,0.1-0.3,0.1-0.4,0.2c0-0.2,0-0.5-0.2-0.6c0-0.4,0.4-0.5,0.5-0.6c0.2,0,0.4,0,0.6,0.1
	c0.1,0,0.2,0,0.3,0c0,0.1,0,0.2,0,0.3s-0.1,0.1-0.1,0.2c-0.2,0.1-0.4,0.2-0.4,0.5C17,48.7,16.9,48.8,16.8,48.9z"/>
<path class="st2" d="M16,51.8c-0.1,0-0.2,0-0.3,0c-0.4-0.6-0.4-1.3-0.5-2c0.1-0.2,0.2-0.3,0.4-0.3C15.6,50.3,15.8,51.1,16,51.8z"/>
<path class="st2" d="M14.8,50.1c0,0.1,0,0.3-0.1,0.4C14.5,50.3,14.6,50.2,14.8,50.1z"/>
<path class="st2" d="M17.2,47.8c-0.2-0.1-0.4-0.1-0.6-0.1c0-0.1,0-0.3-0.1-0.4c0.1,0,0.2,0,0.3,0s0.3,0.1,0.4,0.1
	C17.2,47.5,17.2,47.7,17.2,47.8z"/>
<path class="st2" d="M17.7,45.5c0,0.5-0.2,0.6-0.6,0.6C17.3,45.7,17.4,45.5,17.7,45.5z"/>
<path class="st2" d="M16.9,46c0,0.2,0,0.3-0.2,0.3C16.8,46.2,16.8,46.1,16.9,46z"/>
<path class="st2" d="M25,45.7c0.2,0,0.2-0.3,0.4-0.4c0.2,0.9,0.2,1.7,0.2,2.7c0,1.2,0,1.2,1.2,1c1-0.2,1.8-0.6,2.9-0.8
	c0.1,0.1,0.1,0.1,0.1,0.3c-1,0.6-2.1,0.9-3.3,0.9c-1.4,0-1.3,0-1.3-1.2c0-0.6,0-1.4,0-2C25.1,46,25.1,45.9,25,45.7z"/>
<path class="st2" d="M32.7,49.7c0-0.1,0-0.2,0-0.3h0.1c0.3,0.5,0.6,0,0.9,0.1c0,0.2-0.2,0.3-0.2,0.5c0,0.1,0,0.1,0,0.2
	c0,0.1,0,0.3,0.1,0.3c0,0.6,0.1,1.4,0.1,2c-0.1,0-0.2,0-0.2,0c-0.2-0.6,0-1.4-0.2-2C33.2,50.1,33,49.8,32.7,49.7z"/>
<path class="st2" d="M31.6,50.1c0-0.3-0.1-0.6,0.4-0.7c0.3-0.1,0.5,0.1,0.5,0.4c-0.4,0-0.6,0-0.4,0.5c0.2,0.3,0.4,0.5,0.5,0.6
	c-0.2,0.6-0.4,0-0.6,0C31.9,50.7,31.6,50.5,31.6,50.1z"/>
<path class="st2" d="M30.3,48.9c0.3-0.2,0.6-0.1,0.9-0.1s0.4,0.2,0.2,0.5c-0.1,0.2-0.2,0.4-0.4,0.5c-0.1,0.1-0.3,0.2-0.4,0.2
	s-0.1,0-0.2,0c0-0.3,0.2-0.3,0.3-0.5c0.1-0.1,0.3-0.1,0.2-0.3c0-0.1-0.2-0.1-0.3-0.2C30.5,49,30.4,49,30.3,48.9z"/>
<path class="st2" d="M33.5,52.4c0.1,0,0.2,0,0.2,0c0,0.7,0.2,1.5,0.1,2.2c-0.1,0-0.2,0-0.3,0C33.6,53.9,33.5,53.2,33.5,52.4z"/>
<path class="st2" d="M19.5,48.8c-0.2,0-0.4,0-0.5,0.2c0,0.2,0.2,0.2,0.3,0.3c0.6,0.4,1.4,0.7,2,1.1c0.1,0.1,0.3,0.1,0.2,0.3
	c-0.1,0.2-0.2,0.2-0.4,0.1c-0.7-0.5-1.6-0.9-2.3-1.3c-0.4-0.2-0.4-0.5-0.1-0.7s0.6-0.3,1-0.2c0.7,0.3,1.4,0.7,2.1,1.1
	c0.1,0.1,0.2,0.2,0.2,0.3c-0.1,0.1-0.2,0.1-0.4,0c-0.6-0.3-1-0.6-1.6-0.8C20,48.9,19.7,48.8,19.5,48.8z"/>
<path class="st2" d="M17.3,47.4c-0.1,0-0.3-0.1-0.4-0.1c0-0.2,0.1-0.3,0.3-0.4c0.4,0.3,0.4-0.1,0.6-0.3c0.2-0.2,0.3-0.4,0.6-0.6
	c0.1,0,0.2-0.2,0.3-0.1c0.1,0.1,0,0.2-0.1,0.3c-0.2,0.1-0.3,0.3-0.3,0.5c0,0.3,0.1,0.4,0.4,0.4c-0.2,0.3-0.4,0.5-0.6,0.6
	c-0.1,0-0.1-0.1-0.2-0.1l0.1-0.1c0.1-0.1,0.4-0.2,0.2-0.4c-0.1-0.2-0.3,0-0.5,0.1C17.4,47.4,17.4,47.4,17.3,47.4z"/>
<path class="st2" d="M21.8,47.7c0.1,0,0.2,0,0.4,0c0.1,0.3,0.2,0.6,0.4,0.8c0.3-0.3,0.4-0.5,0.5-0.8c0.1-0.3,0.2-0.5,0.5-0.5v0.1
	c-0.2,0.2-0.2,0.3-0.2,0.6c0,0.2-0.1,0.4-0.1,0.5c0,0.3-0.2,0.5-0.4,0.5c-0.3,0-0.5-0.1-0.6-0.4C22,48.2,21.9,47.9,21.8,47.7z"/>
<path class="st2" d="M18.5,47.2c-0.2,0-0.4-0.1-0.4-0.4c0.3-0.2,0.5-0.4,0.7-0.6c0.1,0,0.2,0,0.3,0.1c0,0.1,0,0.3,0,0.4
	c-0.1,0-0.2,0.1-0.3,0.2C18.8,46.9,18.7,47.1,18.5,47.2z"/>
<path class="st2" d="M19,46.9c0-0.2,0.1-0.2,0.3-0.2c0.2,0,0.4,0.3,0.6,0c0.1,0,0.1,0.1,0.1,0.2c0,0.1-0.1,0.1-0.1,0.2
	C19.5,47.2,19.3,46.9,19,46.9z"/>
<path class="st2" d="M17.6,47.8c0.1,0,0.1,0.1,0.2,0.1c0,0.1-0.1,0.2-0.3,0.3C17.6,47.9,17.6,47.8,17.6,47.8L17.6,47.8z"/>
<path class="st2" d="M19.2,46.4c-0.1,0-0.2,0-0.3-0.1c0-0.2,0-0.4,0-0.5c0.1,0,0.2,0,0.2,0C19.1,46,19.1,46.2,19.2,46.4z"/>
<path class="st2" d="M21.2,45.9c-0.2-0.3,0.3-0.5,0-0.7c0-0.1,0-0.2,0-0.2c0.1,0,0.2,0,0.4,0c0,0.1,0.1,0.2,0.1,0.3
	c0,0.1-0.1,0.2,0,0.3c0,0.2,0.1,0.3,0.2,0.5c-0.1,0.1-0.1,0.1-0.2,0.2C21.4,46.1,21.3,46,21.2,45.9z"/>
<path class="st2" d="M21.6,46.2c0.1-0.1,0.1-0.1,0.2-0.2c0.4,0.4,0.8,0,1.2,0.1c0,0,0.1,0,0.1,0.1C22.6,46.5,22,46.5,21.6,46.2z"/>
<path class="st2" d="M27.4,43.2c-0.2,0.6-0.5,1.3-1.2,1.6c-0.1,0-0.2,0.1-0.3,0.1c-0.6-0.2-0.6,0.2-0.6,0.6c-0.2-0.2,0-0.6-0.3-0.7
	c-0.2,0.1-0.1,0.3-0.2,0.4c-0.1,0-0.1-0.1-0.2-0.1c-0.1-0.2,0.1-0.5-0.2-0.6c0-0.1,0-0.2,0-0.3c0-0.1,0-0.3-0.1-0.3
	c-0.2,0-0.1,0.2-0.2,0.3c-0.1,0.2-0.3,0.4-0.4,0.6c-0.1,0-0.1,0-0.2,0c0-0.1,0-0.2-0.1-0.2c0-0.1,0-0.1,0-0.2
	c0.4-0.1,0.4-0.6,0.5-0.8c0.1-0.3-0.3-0.4-0.3-0.6h0.1c0.6,0.1,0.8,0.7,1.5,0.7c0.3,0.2,0.6,0.2,0.9,0.1c0.3-0.1,0.4,0,0.3,0.3
	c-0.3,0.2-0.5,0.1-0.7,0.1c-0.2,0-0.4-0.1-0.5,0.1c-0.1,0.2-0.1,0.4,0.1,0.5c0.2,0.2,0.4,0.1,0.6,0.1c0.4-0.2,0.8-0.4,0.9-0.8
	c0-0.2,0.2-0.4,0.3-0.6C27.2,43.2,27.3,43.2,27.4,43.2L27.4,43.2z M25,43.9c0-0.1,0-0.3-0.2-0.3s-0.2,0.2-0.2,0.3
	c0,0.1,0,0.3,0.2,0.3S25,44,25,43.9z"/>
<path class="st2" d="M23.8,44.4c-0.1,0.4-0.4,0.6-0.7,0.8c0.2,0,0.4,0.1,0.5,0.1c0,0.1,0.1,0.3,0.1,0.4c-0.2,0.1-0.3,0.1-0.5,0.2
	h-0.1l0,0l0,0c-0.1-0.4-0.4-0.2-0.6-0.3c0.1-0.1,0.2-0.1,0.3-0.2c0.3-0.1,0.3-0.3,0-0.4c0.1-0.1,0.2-0.2,0.3-0.3
	c0.2,0,0.3,0,0.4-0.3C23.6,44.5,23.6,44.4,23.8,44.4C23.6,44.4,23.7,44.4,23.8,44.4z"/>
<path class="st2" d="M24,45.2c0.3-0.3,0.3-0.6,0.5-0.9c0.2,0.2,0.1,0.5,0.2,0.6c-0.1,0.1-0.1,0.2-0.2,0.3
	C24.3,45.2,24.2,45.2,24,45.2z"/>
<path class="st2" d="M21.1,43.8c-0.1,0.5-0.5,0.9-0.5,1.4h-0.1c-0.3-0.4,0-0.7,0-1l0,0c0.1-0.1,0-0.1,0-0.1c0-0.2,0.2-0.3,0.3-0.3
	C21,43.7,21,43.7,21.1,43.8z"/>
<path class="st2" d="M23.1,45.9L23.1,45.9C23.2,46,23.2,46,23.1,45.9z"/>
<path class="st2" d="M48.8,50.8c-0.2,0.3,0.2,0.5,0.1,0.7c0,0.5-0.2,0.9,0.2,1.4c0,0.1-0.1,0.2-0.2,0.2s-0.2,0-0.3,0L48.5,53
	c0.2-0.3-0.1-0.5-0.1-0.6c0-0.6-0.1-1.2,0-1.7c0.1,0,0.2,0,0.2,0l0,0l0,0C48.8,50.6,48.8,50.7,48.8,50.8z"/>
<path class="st2" d="M43.1,47.7c0.1,0,0.1,0.1,0.1,0.2c0,0.5,0.2,0.4,0.5,0.1c0.3,0.9,0.5,1.7,0.6,2.7c-0.3,0-0.3-0.6-0.7-0.3
	c-0.1-0.7-0.3-1.4-0.4-2.1C43.1,48,43.1,47.8,43.1,47.7z"/>
<path class="st2" d="M43.7,51.5L43.7,51.5c-0.1-0.5-0.3-0.7-0.2-1.1c0.4-0.3,0.4,0.4,0.7,0.3c0,0.5,0.1,0.9,0.1,1.4
	c-0.1,0-0.3-0.1-0.2-0.3C44.1,51.5,43.9,51.6,43.7,51.5z"/>
<path class="st2" d="M42.2,46.9c0.1,0,0.3,0,0.4,0c-0.1,0.3,0,0.7-0.4,0.9c-0.1,0-0.2,0-0.2,0.1c-0.6,0-1.1,0.1-1.7,0.1
	c0-0.1,0-0.3,0-0.4C41.5,47.9,42,47.8,42.2,46.9z"/>
<path class="st2" d="M36,48.9c-0.5,0-0.9,0-1.4,0c-0.2,0-0.4,0-0.6,0l0,0c0-0.1,0.1-0.2,0.1-0.3c0.6,0.2,1.3,0,1.8,0
	C36,48.8,36.1,48.9,36,48.9C36.2,48.9,36.1,48.9,36,48.9z"/>
<path class="st2" d="M36.2,48.9c0-0.1-0.1-0.2-0.1-0.3c0.2-0.3,0.6,0.1,0.8-0.2c0-0.1,0.1-0.1,0.1-0.2c0.4,0.1,0.2,0.4,0.1,0.6
	C36.8,48.9,36.5,49,36.2,48.9z"/>
<path class="st2" d="M34.6,49.1c0.4,0.1,0.8,0.1,1.3,0.2c-0.3,0.2-0.6,0.2-0.7,0.3c-0.3-0.1-0.6-0.2-0.8-0.2v-0.1
	C34.3,49.1,34.4,49.1,34.6,49.1z"/>
<path class="st2" d="M38.8,48c-0.2-0.1-0.3-0.1-0.5-0.2c0-0.1,0-0.2,0-0.2c0.3,0.1,0.5,0.2,0.7,0.2c0.2,0.2,0.3,0.1,0.5,0
	c0.2,0,0.4,0,0.5,0c0,0.1,0.1,0.2,0.1,0.3C39.7,48,39.3,48,38.8,48z"/>
<path class="st2" d="M47,51.8c0.1,0,0.2,0,0.3,0c0.2,0.3,0,0.7,0.3,1c0.1,0.1,0.1,0.2,0.2,0.2c0,0.1,0,0.1,0.1,0.2
	c0,0.2-0.4,0.4,0,0.6c0,0.6,0,1,0,1.6c-0.1,0-0.2,0-0.3,0c0-0.4-0.1-0.7,0-1.1c0.1-0.4-0.4-0.1-0.6-0.3c0.1-0.2,0.5-0.2,0.4-0.5
	c0.1-0.3,0.1-0.6-0.3-0.6c-0.1,0-0.2-0.1-0.1-0.2C47.1,52.3,47,52,47,51.8z"/>
<path class="st2" d="M44.3,52.5c0.1,0.3,0.2,0.6,0.1,0.8c0,0.1,0,0.2,0,0.2l0,0c-0.1,0-0.3-0.1-0.4-0.1H44c0-0.2,0-0.3-0.1-0.4V53
	c0-0.1,0-0.2,0-0.3s0-0.2,0-0.3C44,52.5,44.2,52.5,44.3,52.5z"/>
<path class="st2" d="M44,54.4L44,54.4c0-0.1,0-0.2,0.1-0.2s0.1,0,0.2,0c0.2,0.2,0.4,0.1,0.5,0.1c0,0,0,0.1,0.1,0.1
	c0,0.2-0.1,0.3-0.1,0.5c-0.2,0-0.4,0-0.4,0.3c-0.1,0-0.2,0-0.3,0c0-0.1,0-0.1-0.1-0.2c0.2-0.1,0.2-0.2,0-0.3
	C44,54.6,44,54.5,44,54.4z"/>
<path class="st2" d="M43.7,51.5c0.2,0,0.4,0,0.3,0.3c0,0.1,0.1,0.2,0.2,0.3c0,0.1,0,0.1,0,0.2c-0.2,0.2-0.3,0-0.5,0
	c0.1-0.2,0-0.3-0.1-0.4C43.7,51.7,43.7,51.6,43.7,51.5z"/>
<path class="st2" d="M44.8,54.1c-0.1,0-0.1,0.2-0.1,0.3c-0.2,0-0.4,0.1-0.5-0.1c0-0.3,0.4-0.2,0.3-0.5l0,0l0,0
	C44.7,53.8,44.8,53.9,44.8,54.1z"/>
<path class="st2" d="M43.8,52.2c0.2,0,0.3,0.3,0.5,0c0.1,0.1,0.2,0.2,0,0.4c-0.2,0-0.4-0.1-0.5-0.1h-0.1
	C43.7,52.4,43.7,52.3,43.8,52.2L43.8,52.2C43.7,52.2,43.8,52.2,43.8,52.2z"/>
<path class="st2" d="M44.4,53.6c0-0.1,0-0.2,0-0.2c0.1,0,0.2,0.1,0.2,0.3C44.5,53.6,44.4,53.6,44.4,53.6z"/>
<path class="st2" d="M44.4,53.6c0.1,0,0.1,0,0.2,0c0,0.1,0,0.1,0,0.2l0,0l0,0C44.4,53.7,44.4,53.6,44.4,53.6L44.4,53.6z"/>
<path class="st2" d="M41.9,38.5c0.1-0.5-0.2-0.9-0.3-1.4c0.5,0.4,0.7,1.1,1.4,1.3c0.1,0.3-0.1,0.5-0.4,0.4c-0.2,0-0.5-0.1-0.5,0.2
	c-0.1,0-0.2,0-0.3,0c0-0.1,0-0.2-0.1-0.3C41.8,38.6,41.9,38.6,41.9,38.5z"/>
<path class="st2" d="M43.4,38.4c-0.1-0.2-0.2-0.5-0.3-0.6c0-0.1-0.2-0.2-0.1-0.3c0.1-0.1,0.2,0,0.3,0.1c0,0.3,0.1,0.5,0.4,0.6
	c0.2,0.1,0.2,0.1,0.1,0.2c-0.1,0.2-0.1,0.6-0.4,0.6C43.1,38.8,43.5,38.6,43.4,38.4z"/>
<path class="st2" d="M44,37.7c0.1-0.1,0.1-0.3,0.1-0.4c0.2,0.1,0.6,0,0.2,0.4c-0.1,0.1,0,0.4-0.1,0.6C44.1,38.1,44,37.9,44,37.7z"/>
<path class="st2" d="M39.9,24.8c0.2,0.1,0.4,0.2,0.5,0.2c0,0.1,0.1,0.2,0.2,0.2c0.1,0.1,0.3,0.2,0.4,0.2c0.3,0.3,0.6,0.5,0.6,1
	c0,0.2,0.1,0.2,0.3,0.2c0.1,0.2-0.2,0.4,0.1,0.6c0,0.1,0.1,0.1,0.1,0.2c0,0.4,0.2,0.6,0.4,0.8c0,0.1,0.1,0.2,0.1,0.2
	c0.2,0.5,0.4,0.8,0.5,1.3c0,0.2,0,0.4-0.1,0.5c-0.1-0.1-0.2-0.1-0.4-0.2c0.2-0.2,0.1-0.4,0-0.6c-0.2-0.6-0.5-1-0.7-1.6
	c0-0.1-0.1-0.2-0.1-0.3c-0.2-0.4-0.1-0.9-0.6-1c0.3-0.3,0.2-0.6-0.2-0.7c-0.6-0.3-1.2-0.6-1.8-0.7c-1.1-0.4-2.2-0.4-3.4-0.4
	c-1.1,0-2.2,0.4-3.2,0.5c0-0.1-0.1-0.2-0.2-0.2c0.1-0.1,0.1-0.1,0.2-0.2c0.5,0,0.9-0.1,1.4-0.3c0.3-0.1,0.6,0,0.8-0.2
	c0.1,0,0.2,0,0.3,0c0.2,0,0.3,0,0.5,0c0.5,0,0.9,0,1.4,0c0.6,0.1,1.3,0.1,1.8,0.2c0.2,0.2,0.4,0.1,0.6,0.1c0.1,0,0.1,0,0.2,0
	c0,0.1-0.3,0.2,0,0.2C39.6,24.8,39.7,24.8,39.9,24.8z"/>
<path class="st2" d="M42.6,32.9c-0.1,0-0.3-0.2-0.4,0c-0.3-0.1-0.4-0.3-0.4-0.6c0.3-0.1,0.8,0,0.6-0.6c0-0.2,0-0.4,0.1-0.5
	c0.1-0.1,0.1-0.2,0.2-0.2C42.7,31.7,42.6,32.2,42.6,32.9z"/>
<path class="st2" d="M42.7,31c-0.1,0.1-0.1,0.2-0.2,0.2c0-0.1,0-0.2-0.1-0.3c0-0.2-0.2-0.3-0.2-0.4c0.1,0,0.4,0.1,0.4-0.1
	c0.1-0.2-0.1-0.3-0.3-0.4c0-0.1,0-0.2,0-0.3c0,0,0.1,0,0.1-0.1c0.1,0,0.2,0,0.2,0c0.1,0.1,0.2,0.1,0.4,0.2c0,0.1,0,0.2,0,0.3
	c-0.2,0.1-0.1,0.2-0.1,0.4C42.8,30.8,42.7,30.9,42.7,31z"/>
<path class="st2" d="M42.8,30.7c0-0.1-0.1-0.3,0.1-0.4C43,30.6,43,30.6,42.8,30.7z"/>
<path class="st2" d="M41.7,36.3c-0.2,0-0.3-0.1-0.5,0c-0.9,0.6-2,0.6-2.7,1.7c-0.1,0.1-0.3,0.1-0.3,0.3c-0.1,0-0.2,0.3-0.4,0.2
	c-0.2-0.1,0-0.3,0.1-0.4V38c0.2-0.1,0.3-0.2,0.4-0.4c0,0,0.1,0,0.1-0.1c0-0.1,0.1-0.1,0.1-0.2c0.1-0.1,0.1-0.1,0.2-0.2
	c0.5-0.3,0.8-0.5,1.3-0.7c0.6,0,0.9-0.2,1.4-0.6c0.1,0,0.1,0.1,0.2,0.1c0.1-0.1,0-0.2,0.1-0.3h0.1l0.1,0.1c0,0.1,0.1,0.2,0.1,0.2
	C41.8,36.2,41.7,36.3,41.7,36.3z"/>
<path class="st2" d="M38.9,32.1c0,0.1,0,0.2,0,0.2c-0.2,0.1-0.3,0.1-0.4,0.3c-0.3,0-0.6,0.1-0.8-0.1c0-0.1,0-0.2,0-0.2h0.1
	c0.1,0,0.1-0.1,0.2-0.1c0.2,0.1,0.5,0.3,0.3-0.2c-0.1-0.2,0.2-0.4,0.1-0.6c0-0.2-0.1-0.3-0.1-0.5c0.5,0,0.8,0.2,1.3,0.1
	c-0.2,0.3-0.6,0.4-0.6,0.7C38.8,32,38.8,32,38.9,32.1z"/>
<path class="st2" d="M42.4,31.7c0.2,0.6-0.3,0.5-0.6,0.6c-0.4-0.2-0.4-0.6-0.6-0.9c-0.3-0.4,0.1-0.7,0.2-1.1c0.1,0,0.1,0,0.2-0.1
	c0.2,0.2,0.1,0.4,0.1,0.6c0,0.1-0.2,0.3,0.1,0.4C41.7,31.5,41.9,31.8,42.4,31.7z"/>
<path class="st2" d="M38.5,32.6c0.1-0.2,0.3-0.2,0.4-0.3c0.5,0.3,0.1,0.6,0.1,0.9c-0.4,0.1-0.3,0.6-0.6,0.7
	c-0.3,0.1-0.5,0.3-0.8,0.2c-0.2,0-0.3,0-0.3-0.2c0-0.2,0.2-0.2,0.3-0.2c0.6,0,0.7-0.4,1-0.7C38.7,32.9,38.7,32.8,38.5,32.6z"/>
<path class="st2" d="M39.7,30.9c-0.5,0-0.8,0-1.2-0.2c0-0.1,0.1-0.1,0.1-0.2c0.3,0,0.6,0.1,0.9,0.1s0.6-0.1,0.2-0.5
	c0-0.1,0-0.2,0-0.2c0.1,0,0.2-0.1,0.3-0.1s0.1,0.1,0.2,0.1C40.1,30.4,40.2,30.8,39.7,30.9z"/>
<path class="st2" d="M38.9,32.1c-0.1-0.1-0.1-0.2,0-0.2C39,32,39,32,38.9,32.1z"/>
<path class="st2" d="M42,36.1c0.1,0,0.2,0.1,0.3,0.1c0.1,0.1,0,0.1,0,0.2c-0.2,0-0.3,0-0.5,0.1C41.7,36.3,41.8,36.2,42,36.1z"/>
<path class="st2" d="M21.9,18.3L21.9,18.3C21.8,18.4,21.8,18.3,21.9,18.3z"/>
<path class="st2" d="M17.9,17.1c-0.1,0.1-0.1,0.2-0.2,0.2h-0.1c0-0.2-0.1-0.6,0.4-0.4C17.9,16.9,17.9,17,17.9,17.1z"/>
<path class="st2" d="M16.8,15.1c0-0.1,0-0.2,0-0.3c0.1,0,0.2,0.1,0.2,0.2S16.9,15.1,16.8,15.1z"/>
<path class="st2" d="M16.4,16.5c0,0.2,0,0.2-0.2,0.2C16.2,16.6,16.3,16.5,16.4,16.5z"/>
<path class="st2" d="M16.7,15.4c0-0.2,0-0.2,0.2-0.2C16.8,15.3,16.8,15.3,16.7,15.4z"/>
<path class="st2" d="M33.8,14.7L33.8,14.7c0,0.2,0,0.2,0,0.3c-0.1,0-0.2,0-0.2,0c-0.2-0.1-0.2,0-0.2,0.1c-1.6,0.3-2.9,0.9-4.5,1.3
	c-0.1,0-0.1,0.2-0.1,0.2c-0.2,0.1-0.5-0.1-0.6,0.2c-0.1-0.1-0.2-0.1-0.3-0.1c-1.7,0.8-3.2,1.8-4.7,2.9c-0.2,0.1-0.5,0.1-0.5,0.4
	c-0.1,0-0.1,0-0.2,0c0-0.1,0-0.2-0.1-0.3c0-0.1,0.1-0.2,0.1-0.3c0.3,0,0.5-0.3,0.6-0.4c0.6-0.5,1.3-0.8,1.9-1.3c0.1,0,0.2,0,0.2-0.1
	c0.8-0.6,1.7-0.8,2.6-1.3c0.1,0,0.2-0.1,0.2-0.2c0.5-0.2,0.8-0.3,1.3-0.5c1.2-0.5,2.4-0.8,3.6-1.1c0.1,0,0.2,0.1,0.3,0
	C33.5,14.7,33.7,14.7,33.8,14.7z"/>
<path class="st2" d="M22.6,18.9c0.1-0.3-0.4-0.4-0.3-0.6c0.1,0,0.1,0,0.2,0c0.2,0.2,0.5,0,0.7,0.2c0,0.1-0.1,0.2-0.1,0.3h-0.1
	C22.9,18.7,22.8,18.9,22.6,18.9z"/>
<path class="st2" d="M36.1,13.7c-0.3-0.1-0.6,0.1-0.9-0.1C35.5,13.4,35.8,13.6,36.1,13.7C36.2,13.7,36.2,13.7,36.1,13.7z"/>
<path class="st2" d="M44.5,15.7c1,0.6,2.1,1,3.1,1.7c0.5,0.3,0.9,0.6,1.3,0.9c0.2,0.1,0.3,0.3,0.6,0.3c-0.1,0.1-0.1,0.2-0.2,0.3
	c-0.1-0.1-0.3-0.2-0.4-0.2c-0.2-0.1-0.5-0.2-0.6-0.4c-0.9-0.8-2.1-1.4-3.2-1.9c-0.1,0-0.1,0-0.2,0c-0.1-0.1-0.1-0.1-0.2-0.1
	c-0.3,0-0.4-0.4-0.6-0.4c0-0.1,0-0.1,0-0.2C44.2,15.7,44.3,15.7,44.5,15.7z"/>
<path class="st2" d="M49.4,18.9c0.1-0.1,0.1-0.2,0.2-0.3s0.2-0.1,0.3-0.1c0.1,0.4,0.3,0.6,0.6,0.8l0,0c0,0.2,0.1,0.2,0.2,0.2l0,0
	c0,0.3,0.2,0.5,0.2,0.6c0,0.1,0,0.2-0.1,0.3c-0.2-0.2-0.3-0.4-0.5-0.6c0-0.1-0.1-0.1-0.2-0.1l0,0c-0.1-0.1-0.2-0.2-0.3-0.2
	C49.9,19.2,49.6,19.1,49.4,18.9z"/>
<path class="st2" d="M41.2,14.1C41,14.2,40.8,14,40.7,14C40.9,13.6,41.1,13.7,41.2,14.1z"/>
<path class="st2" d="M39.5,13.8C39.5,13.9,39.5,13.9,39.5,13.8c-0.1,0-0.2,0-0.3-0.1c0-0.1,0.1-0.2,0.2-0.2
	C39.6,13.6,39.6,13.7,39.5,13.8z"/>
<path class="st2" d="M31.8,9.9C31.9,9.9,31.9,9.9,31.8,9.9C31.9,9.9,31.8,10,31.8,9.9C31.8,10,31.8,9.9,31.8,9.9L31.8,9.9z"/>
<path class="st2" d="M44.2,11.4c0-0.2,0.1-0.2,0.2-0.2C44.4,11.3,44.3,11.4,44.2,11.4z"/>
<path class="st2" d="M42,46.7c-0.1,0-0.3,0-0.3,0c-0.6,0.5-1.5,0.2-2.1,0.4c-0.4,0.1-0.6-0.2-1-0.3c-0.4,0-0.5-0.6-0.9-0.3h-0.1
	c-0.1-0.1-0.1-0.1-0.2-0.2c0.4-0.2,0.4-0.5,0.3-0.8c0-0.1,0-0.2-0.1-0.3c0.1-0.2-0.4-0.2-0.1-0.4c0.2,0,0.5,0,0.6,0.1
	c0,0.2-0.1,0.4-0.1,0.6c-0.2,0.3-0.2,0.6,0.3,0.6c0.1,0.2,0.2,0.3,0.4,0.2c0.1,0,0.3-0.1,0.3,0.1c0.2,0.5,0.6,0.4,0.8,0.3
	c0.6-0.2,1.2-0.1,1.7-0.5c0.2-0.1,0.4-0.1,0.6,0C42.1,46.6,42,46.6,42,46.7z"/>
<path class="st2" d="M42.5,46.6c0.2,0,0.3,0,0.5,0C42.8,46.8,42.7,46.7,42.5,46.6z"/>
<path class="st2" d="M42.3,46.5L42.3,46.5c0.2-0.1,0.2,0,0.2,0.1C42.5,46.6,42.4,46.5,42.3,46.5z"/>
<path class="st2" d="M40.6,42.2c0,0.2-0.1,0.3-0.2,0.5c-0.3,0-0.3,0.3-0.3,0.5c-0.1,0-0.2,0-0.2,0c0-0.2,0-0.4,0.1-0.6
	c0.4-0.6,0.1-1.2,0.6-1.7c0.4-0.3,0.9-0.2,1.3-0.5c0-0.2,0.1-0.2,0.3-0.2c0.1,0.3,0,0.4-0.4,0.4c-0.3,0-0.6,0-0.8,0.2
	c-0.2,0.1-0.4,0.2-0.3,0.5C40.6,41.6,40.6,41.9,40.6,42.2z"/>
<path class="st2" d="M42.4,42.6c0.2,0,0.2-0.2,0.2-0.4c0.1,0,0.2,0,0.3,0c0,0.6-0.4,0.8-0.6,1.2c-0.1,0-0.2,0.1-0.2,0.1
	c-0.1,0-0.1-0.1-0.2-0.1c0-0.3,0.3-0.5,0.3-0.7l0,0C42.3,42.8,42.3,42.7,42.4,42.6z"/>
<path class="st2" d="M41.4,39.9c0.1,0.1,0.1,0.1,0.2,0.2c-0.2,0.1-0.4,0.1-0.6,0.1c-0.4,0-0.6,0.2-0.7,0.6c-0.4,0-0.5,0.5-0.8,0.6
	c-0.1,0-0.1,0.2-0.3,0.1c-0.1-0.1-0.1-0.2-0.1-0.3c0-0.3,0.2-0.6,0.1-0.8c0-0.2,0.1-0.3,0.3-0.2c0,0.2,0,0.5,0.1,0.6
	c0.3-0.2,0.6-0.3,0.7-0.6c0.2-0.2,0.6-0.2,0.6-0.6c0.1,0,0.2,0,0.3,0l0.1,0.1C41.2,39.8,41.2,39.9,41.4,39.9z"/>
<path class="st2" d="M40.9,39.3c0.1,0,0.1,0,0.2,0.1c0,0.1,0,0.2,0,0.3c-0.1,0-0.2,0-0.3,0c-0.1-0.1-0.2-0.1-0.4-0.1
	C40.6,39.2,40.8,39.3,40.9,39.3z"/>
<path class="st2" d="M41.6,44.2c0-0.1,0-0.2,0-0.3c0.1,0,0.2,0,0.3,0c0.2,0.8-0.3,1.4-0.9,1.8c-0.2,0-0.3,0-0.4,0.2
	c-0.2,0-0.4,0.2-0.5,0.3c-0.1,0.1-0.3,0.1-0.4,0c-0.1-0.1,0.1-0.2,0.2-0.3c0.4-0.4,0.8-0.6,1.2-0.9c0.2-0.2,0.3-0.4,0.3-0.6
	C41.6,44.3,41.6,44.3,41.6,44.2z"/>
<path class="st2" d="M40.3,44.2L40.3,44.2L40.3,44.2c-0.1,0-0.2-0.2-0.2-0.3c0.1-0.3,0.1-0.5,0.2-0.7l0,0c0.2,0,0.4,0,0.5-0.2
	c0.1,0,0.2-0.1,0.2-0.2c0.1-0.1,0.2-0.3,0.4-0.2c0,0.1,0,0.1,0,0.2c-0.2,0.5-0.8,0.6-0.9,1.1C40.3,44,40.3,44.1,40.3,44.2z"/>
<path class="st2" d="M42.7,44.4c0.4,0,0.2,0.3,0.3,0.5c-0.1,0.5-0.5,0.7-0.7,1c-0.1,0-0.1,0-0.2,0c0-0.1,0.1-0.3,0.1-0.4l0.1-0.1
	C42.5,45.2,42.7,44.8,42.7,44.4z"/>
<path class="st2" d="M39,45.8c-0.1,0-0.1,0-0.2,0s-0.1,0-0.2,0c0-0.1,0-0.2,0-0.2c0-0.3,0.1-0.6,0.3-0.8c0.1,0,0.2,0,0.2,0
	c0,0.1,0,0.2,0,0.3C39,45.2,39,45.3,39,45.4C39,45.5,39,45.6,39,45.8z"/>
<path class="st2" d="M40,44c0,0.1,0.1,0.3,0.1,0.4c-0.3,0.2-0.3,0.6-0.2,0.8c-0.2,0-0.3,0-0.5,0c0-0.1,0-0.2,0-0.3
	C39.8,44.5,39.7,44.2,40,44z"/>
<path class="st2" d="M38.6,45.6c0,0.1,0,0.2,0,0.2c-0.1,0.1-0.1,0.2-0.1,0.3c-0.1,0.1-0.1,0.1-0.2,0.2c-0.5-0.1-0.5-0.3-0.3-0.6
	C38.3,45.7,38.5,45.6,38.6,45.6z"/>
<path class="st2" d="M51.1,21.4c-0.1-0.1-0.1-0.3-0.1-0.5c0.1,0,0.2,0,0.3,0c0,0.1,0,0.3,0,0.4S51.2,21.4,51.1,21.4z"/>
<path class="st2" d="M7.6,35.8c0.1,0.6,0.4,0.9,1,0.6c0.1-0.1,0.3,0.1,0.5,0.1c0.1,0,0.1,0.1,0.1,0.2c-0.6,0-1,0.3-1.6,0.2
	c0-0.2,0.1-0.4-0.2-0.5c0-0.1,0-0.3,0-0.4c0,0,0.1,0,0.1-0.1c-0.1,0-0.1,0-0.2,0c0-0.1,0-0.2,0-0.2C7.6,35.8,7.6,35.8,7.6,35.8z"/>
<path class="st2" d="M9.8,36.3c0.6,0,1.1,0.1,1.7-0.3c0,0.2,0,0.3,0,0.5c-0.6,0-1.3,0.3-2,0.2C9.5,36.5,9.5,36.3,9.8,36.3z"/>
<path class="st2" d="M9.7,35.2c0,0.2,0.2,0.3,0.1,0.5C9.5,35.5,9.3,35.4,9.7,35.2z"/>
<path class="st2" d="M21.1,43.8c-0.1,0-0.2,0-0.3,0c0.1-0.3,0.3-0.4,0.6-0.4c0.1,0.1,0.2,0.1,0.2,0.2c0,0.2,0.1,0.4,0.1,0.6
	c0,0.1-0.2,0.3,0.1,0.4c0.2,0.1,0.2-0.2,0.3-0.3c0.1,0,0.2,0,0.3,0c0.4-0.2,0.5-0.6,0.6-1c0.1,0,0.1,0,0.2,0
	c0.1,0.1,0.3,0.1,0.4,0.1v0.1c0,0,0,0,0,0.1c-0.2,0.1-0.3,0.3-0.4,0.5c0,0,0,0,0,0.1c-0.1,0-0.1,0.1-0.2,0.1c-0.1,0-0.2,0.1-0.2,0.2
	c-0.1,0-0.2,0.1-0.2,0.1c-0.3,0-0.4,0.2-0.5,0.4c-0.2,0.1-0.4,0.2-0.6,0.3c-0.1,0-0.2,0-0.4,0c-0.1-0.3-0.1-0.6,0.2-0.8
	C21.5,44,21.5,43.7,21.1,43.8z"/>
<path class="st2" d="M18.4,45.1c0.1-0.1,0.3-0.1,0.4-0.1C18.7,45.3,18.6,45.3,18.4,45.1z"/>
<path class="st2" d="M20.2,40.9c0.6-0.2,0.5-0.6,0.6-1h0.1c0.1,0,0.1,0,0.2,0c0,0.3-0.1,0.5-0.1,0.7c-0.1,0.1-0.1,0.4-0.4,0.4
	C20.5,41,20.3,41.3,20.2,40.9z"/>
<path class="st2" d="M19.7,40.9c-0.1,0-0.2-0.1-0.2-0.1c0-0.1,0.1-0.1,0.1-0.2c0.1,0,0.2,0.1,0.2,0.1C19.8,40.9,19.8,40.9,19.7,40.9
	z"/>
<path class="st2" d="M7.6,35.8c-0.1,0-0.2,0-0.2,0c-0.1-0.2-0.3-0.5,0.2-0.5C7.7,35.4,7.6,35.6,7.6,35.8z"/>
<path class="st2" d="M7.5,36.4c0.3,0.1,0.2,0.3,0.2,0.5C7.5,36.9,7.5,36.9,7.5,36.4z"/>
<path class="st2" d="M7.5,36c0.1,0,0.1,0,0.2,0C7.6,36.1,7.6,36.1,7.5,36C7.5,36.1,7.5,36,7.5,36z"/>
<path class="st2" d="M15.8,27.7c0.6-1.1,1.2-2.1,2-3.1c0,0,0,0,0.1-0.1c0.1-0.1,0.1-0.1,0.2-0.2c0.2,0.1,0,0.3,0,0.4
	c-0.4,0.6-0.7,1.1-1,1.7c-0.4,0.2-0.3,0.6-0.5,0.9c-0.6,0.6-0.7,1.5-1.1,2.2c-0.2,0.6-0.4,1.1-0.6,1.7c-0.1-0.1-0.1-0.1-0.2-0.2
	c0.1-0.8,0.4-1.6,0.7-2.3C15.6,28.3,15.8,28.1,15.8,27.7z"/>
<path class="st2" d="M14.5,35.1c0-0.1,0-0.2,0-0.2c-0.2-0.5-0.1-1-0.1-1.5c0-0.2,0-0.5,0-0.6c0.1,0,0.2,0,0.2,0
	c0.2,0.6-0.1,1.4,0.4,2c0,0,0,0.1-0.1,0.1c-0.2,0.2,0.1,0.3,0.1,0.5c0.1,0.7,0.5,1.4,0.7,2c0,0.3,0.4,0.4,0.3,0.6
	c-0.1,0-0.2,0-0.3,0c-0.3-0.1-0.3-0.4-0.5-0.6C15.1,36.5,14.8,35.8,14.5,35.1L14.5,35.1z"/>
<path class="st2" d="M14.6,32.7c-0.1,0-0.2,0-0.2,0c0.1-0.6,0.1-1.1,0.3-1.7c0.1,0.1,0.1,0.1,0.2,0.2C14.8,31.7,14.7,32.1,14.6,32.7
	z"/>
<path class="st2" d="M20.4,21.5c0.2,0,0.3,0,0.5,0c0,0.2-0.1,0.3-0.3,0.4c-0.4,0.4-0.7,0.6-1.1,1c-0.2,0.1-0.4,0.3-0.5,0.5
	c-0.1,0.1-0.3,0.1-0.5,0.1c0.4-0.6,0.9-1,1.5-1.6C20.2,21.8,20.4,21.7,20.4,21.5z"/>
<path class="st2" d="M22.5,19c-0.1,0.2-0.3,0.3-0.5,0.5C22,19.1,22.2,19,22.5,19z"/>
<path class="st2" d="M21.6,21.2c-0.2,0.2-0.3,0.3-0.6,0.2c-0.1,0-0.1,0-0.2,0c-0.2-0.1-0.1-0.2,0-0.2c0.1-0.1,0.3-0.1,0.3-0.3
	c0.2-0.1,0.4-0.2,0.5-0.4c0,0.2,0,0.3,0,0.5C21.7,21.1,21.6,21.1,21.6,21.2z"/>
<path class="st2" d="M20.9,21.4c0.1,0,0.1,0,0.2,0c0,0.1,0,0.2-0.2,0.2C20.9,21.5,20.9,21.4,20.9,21.4z"/>
<path class="st2" d="M29.9,48.1c0.6-0.1,1.2,0,1.7-0.2c0.1,0,0.1,0,0.2,0c0,0.2-0.1,0.2-0.2,0.2c-0.2,0-0.1,0.1-0.1,0.2
	c-0.3,0-0.6,0-0.8,0.1C30.5,48.4,30.1,48.6,29.9,48.1z"/>
<path class="st2" d="M31.6,48.3c0-0.1-0.1-0.2,0.1-0.2c0.2,0,0.2-0.1,0.2-0.2c0.1,0,0.1,0,0.2,0c-0.1,0.4-0.2,0.7,0.2,0.9
	c0,0.1,0,0.2,0,0.3C31.8,49,31.8,48.6,31.6,48.3z"/>
<path class="st2" d="M33.3,48.4c-0.1,0.3-0.2,0.6-0.6,0.7c-0.1,0-0.2,0-0.2,0h-0.1c0-0.1,0-0.2,0-0.2c0.5-0.1,0.6-0.4,0.5-0.8
	c0.1,0,0.2,0,0.3,0C33.3,48.2,33.3,48.3,33.3,48.4z"/>
<path class="st2" d="M32.5,48.9c0,0.1,0,0.2,0,0.2c-0.1,0-0.2,0-0.2,0c0-0.1,0-0.2,0-0.3C32.4,48.9,32.5,48.9,32.5,48.9z"/>
<path class="st2" d="M32.6,49.1c0.1,0,0.2,0,0.2,0c0,0.1,0,0.2,0,0.2h-0.1C32.7,49.3,32.6,49.2,32.6,49.1z"/>
<path class="st2" d="M21.6,45.4c0.4-0.2,0.8,0,1.1-0.3c0.3,0.1,0.3,0.3,0,0.4c-0.1,0-0.2,0.1-0.3,0.2c-0.1,0-0.1,0-0.2,0
	c-0.2-0.1-0.3-0.2-0.6-0.1c-0.1,0-0.2,0-0.3,0C21.4,45.5,21.5,45.4,21.6,45.4z"/>
<path class="st2" d="M32,47.9c-0.1,0-0.1,0-0.2,0s-0.1,0-0.2,0c-0.3-0.6-0.8-0.9-1.3-1.4c-0.8-1-1.7-2-2.3-3.2
	c-0.2-0.3-0.5-0.2-0.6-0.2l0,0c-0.1-0.4,0.1-0.6,0.6-0.7c0.3,0.6,0.6,1,0.9,1.5c0.5,0.6,0.7,1.3,1.4,1.7c0,0.1,0,0.3,0.1,0.4
	c0.6,0.6,1.1,1.1,1.7,1.7C32,47.8,32,47.8,32,47.9C32.1,47.8,32.1,47.8,32,47.9z"/>
<path class="st2" d="M28.7,47.1c-0.8-0.1-1.7-0.3-2.1-1.1c-0.1-0.2-0.4-0.4-0.5-0.6c0-0.1-0.1-0.2,0-0.2c0.1-0.1,0.2,0,0.2,0.1
	c0.1,0.2,0.3,0.3,0.4,0.5c0.6,0.6,1.2,1,2,1.1c0.2,0,0.5,0,0.5,0.2C29.2,47.2,28.9,47,28.7,47.1z"/>
<path class="st2" d="M30.1,47.2c0,0.3,0,0.5-0.2,0.5c-0.2,0-0.2-0.2-0.2-0.3c-0.1-0.4-0.3-0.6-0.6-0.9c-0.1-0.1-0.2-0.2-0.1-0.3
	c0.1-0.1,0.2,0,0.4,0C29.8,46.5,30.1,46.8,30.1,47.2z"/>
<path class="st2" d="M23.3,41.1c0.1,0.6,0.5,0.9,0.6,1.5h-0.1c-0.1,0-0.1,0-0.2,0s-0.1-0.1-0.2-0.1c-0.1,0-0.1-0.1-0.2-0.1
	c-0.2-0.5-0.3-0.8-0.6-1.2c0-0.1-0.1-0.1-0.1-0.2c-0.1-0.1-0.1-0.1-0.2-0.1c0-0.2-0.1-0.4-0.1-0.6l0.1-0.1h0.1
	c0.1,0.2,0.2,0.4,0.4,0.6C22.8,41.1,23,41.1,23.3,41.1z"/>
<path class="st2" d="M27.9,42.4c-0.5,0-0.6,0.3-0.6,0.7c-0.1,0-0.1,0-0.2,0c0-0.2,0.1-0.4-0.1-0.5c-0.1-0.1-0.2,0.1-0.3,0.2
	c-0.2-0.1-0.5,0-0.6-0.3c0.3,0,0.6-0.1,0.7-0.4c0.1,0,0.3-0.1,0.4-0.1l0,0l0.1,0.1c0.1,0,0.2-0.1,0.3-0.1s0.2,0,0.3,0
	C28,42.2,28,42.3,27.9,42.4z"/>
<path class="st2" d="M21.8,45.6c0.2-0.1,0.4,0,0.6,0.1C22.1,45.9,22,45.7,21.8,45.6z"/>
<path class="st2" d="M37.6,45c-0.3,0.2,0.2,0.3,0.1,0.4l-0.1,0.1c-0.1,0-0.2,0.1-0.2,0.1c-0.2,0-0.3,0.1-0.4,0.3
	c-0.2,0-0.3,0.1-0.3,0.2c-0.1,0-0.2,0.1-0.1,0.2c-0.4,0-0.3,0.4-0.3,0.6c0,0.2,0.2,0.1,0.4,0c0.2,0.2,0.3,0.4,0.6,0.4
	c0.4,0.1,0.8,0.2,1.2,0.3h0.1v0.1c0,0.1,0,0.2,0,0.2c-0.5,0-0.8-0.3-1.2-0.3c-0.3-0.1-0.5-0.2-0.7-0.3c0-0.2-0.1-0.3-0.3-0.2
	c-0.3,0.1-0.5,0-0.6,0c0.5-0.6,0.6-1.5,1.3-1.9l0,0l0,0c0.3,0,0.4-0.3,0.6-0.4h0.1h0.1C37.5,44.8,37.6,44.9,37.6,45z"/>
<path class="st2" d="M33.4,48.4c0.3,0,0.6,0.1,0.8,0.2c0,0.1-0.1,0.2-0.1,0.3C33.8,48.9,33.5,48.9,33.4,48.4z"/>
<path class="st2" d="M34.6,49.1c-0.1,0-0.3,0-0.3,0.1c-0.1-0.1-0.1-0.2-0.1-0.3c0.2,0,0.4,0,0.6,0C34.6,49,34.6,49,34.6,49.1z"/>
<path class="st2" d="M43.8,54.1L43.8,54.1l0.2,0.1l-0.1,0.1C43.8,54.3,43.8,54.2,43.8,54.1z"/>
<path class="st2" d="M44,54.2L44,54.2c-0.2-0.4-0.1-0.6,0-0.7c0.1,0,0.3,0.1,0.4,0.1c0,0.1,0,0.2,0.1,0.2c0,0.3-0.4,0.2-0.3,0.5
	C44.2,54.2,44.1,54.2,44,54.2z"/>
<path class="st2" d="M39,38.5c0,0.1,0,0.1,0,0.2c-0.1,0.1-0.3,0.2-0.2,0.4l0,0c-0.2,0-0.3,0.2-0.2,0.3c-0.1,0-0.3,0-0.4,0
	c0-0.4,0.4-0.6,0.4-0.9c0.1,0,0.1,0,0.2,0C38.9,38.5,38.9,38.5,39,38.5L39,38.5z"/>
<path class="st2" d="M32.4,25.1c-0.7,0.3-0.5,0.8-0.6,1.4c0,0.1-0.1,0.2-0.1,0.2c-0.1,0.3-0.1,0.5-0.3,0.6c-0.2,0.3-0.2,0.6,0,0.8
	c0.3,0.6,0.6,1,0.7,1.6c-0.1,0.3-0.1,0.6-0.2,0.8c-0.1,0.1-0.3,0.1-0.3,0.4c-0.6,0.7-1.2,1.2-1.9,1.7c-0.3,0.2-0.6,0.3-1,0.2
	c-0.6-0.2-1.2-0.5-1.7-0.1c-0.1,0-0.3,0.1-0.4,0.1c-0.1-0.4-0.2,0.1-0.2,0l-0.1,0.1l0,0c-0.2-0.1-0.5,0.2-0.6,0.1
	c-0.4-0.1-0.3,0-0.2,0.3c0.1,0.3,0.1,0.4-0.2,0.2c0-0.2-0.1-0.3-0.2-0.4c0-0.1,0-0.3,0-0.4c0.1,0,0.2,0,0.2,0c0.6,0.2,1.1,0,1.5-0.6
	c0,0,0.1,0,0.2,0c0,0.1,0,0.1,0,0.2l0,0l0,0c0,0,0,0,0-0.1c0.3,0,0.5,0,0.7-0.1c0.1,0,0.2,0,0.2,0c0.4,0.1,0.6,0.2,1,0.2
	c0.6,0.2,1.2-0.1,1.7-0.9c-0.5,0.2-0.8,0.4-1.3,0.5c-0.5,0.1-0.9,0-1.3,0.1C28,31.9,28,31.8,28,31.8c0.2,0,0.5,0,0.6,0
	c0.8,0.2,2.2-0.3,2.5-0.9c-0.2-0.1-0.3,0-0.4,0.1c-0.5,0.3-0.9,0.6-1.4,0.6c-0.2,0-0.5,0.2-0.6-0.2c0.7,0,1.4-0.2,1.8-0.7
	c0.2,0,0.3-0.2,0.5-0.4c0.1,0,0.3-0.1,0.4-0.1c-0.1,0.2-0.1,0.4-0.2,0.6c0.1,0.3,0.3,0.4,0.5,0c0.6-0.7-0.1-1.3-0.2-2
	c0-0.2-0.1-0.3-0.3-0.4c0-0.1,0-0.1,0-0.2c0-0.3,0-0.5-0.1-0.7c0.3-0.5,0.6-0.9,0.6-1.6c0-0.3-0.1-0.4-0.4-0.3
	c-0.5,0.2-0.8,0.6-1.3,0.7c-0.8,0.3-1.7,0.8-2.4,1.2c-1,0.5-1.9,1.2-2.9,1.7c-0.1-0.2-0.3,0-0.5,0c0.2-0.3,0.4-0.4,0.6-0.6
	c0.4-0.2,0.7-0.3,0.9-0.6c0.1,0,0.2-0.1,0.3-0.2c0.2,0,0.4,0,0.4-0.2c0.2,0,0.4-0.1,0.5-0.3c0.2-0.1,0.5-0.3,0.6-0.4
	c0.1,0,0.2-0.1,0.3-0.1c0.3-0.2,0.6-0.4,0.8-0.6c0.1,0,0.1,0,0.2,0c0.2,0,0.4,0,0.3-0.2c0-0.2-0.2-0.2-0.4-0.1c-0.2,0-0.4,0-0.6-0.1
	c0.1,0,0.2-0.1,0.3-0.1c0.7,0.1,1.4-0.1,2-0.5c0.2,0,0.4-0.1,0.5-0.3c0.1,0,0.2-0.1,0.3-0.1c0.2-0.1,0.5,0,0.6-0.3
	c0.2,0,0.3,0,0.5-0.1C32.3,24.9,32.4,24.9,32.4,25.1z"/>
<path class="st2" d="M42.4,31.7c-0.6,0.1-0.7-0.2-0.8-0.6c0.3,0,0.5,0,0.7-0.1c0.1,0.1,0.1,0.2,0.1,0.3
	C42.4,31.4,42.4,31.6,42.4,31.7z"/>
<path class="st2" d="M42.3,30.9c-0.3,0-0.5,0-0.7,0.1c-0.3-0.1-0.1-0.2-0.1-0.4c0.1-0.2,0.2-0.4-0.1-0.6c0.2-0.3,0.5-0.3,0.7-0.3
	c0,0.1,0,0.2,0,0.3c-0.1,0.1-0.4,0.1-0.4,0.2c0,0.2,0.2,0.1,0.3,0.2C42.1,30.7,42.3,30.7,42.3,30.9z"/>
<path class="st2" d="M38,37.9c-0.6,0.3-0.6,0.8-0.4,1.3c0,0,0,0.1-0.1,0.1c-0.2,0-0.2,0.2-0.2,0.3c-0.4-0.2-0.3-0.6-0.6-0.8
	c0,0,0-0.1,0.1-0.2c0.4-0.1,0.4-0.4,0.4-0.6c0-0.1,0.1-0.1,0.1-0.2c0.2,0,0.2-0.1,0.3-0.2c0.3-0.1,0.6-0.4,0.7-0.6
	c0.3-0.3,0.4-0.7,0.6-1c0.1,0.1,0.1,0.1,0.2,0.2c-0.1,0.4-0.5,0.7-0.5,1.1c-0.1,0.1-0.1,0.1-0.2,0.2c-0.1,0-0.1,0.1-0.1,0.2
	c0,0,0,0.1-0.1,0.1C38.2,37.6,38,37.6,38,37.9z"/>
<path class="st2" d="M41.5,35.5c0,0.1,0.1,0.2,0.1,0.2c0,0.1,0.1,0.3-0.1,0.3c0,0-0.1-0.1-0.2-0.1c-0.4-0.3-0.6,0.2-1,0.1
	c0-0.1,0-0.2,0-0.3c0-0.1,0.1-0.1,0.1-0.2c0.1-0.1,0.3-0.1,0.4-0.2c0.1,0,0.2,0,0.4,0C41.3,35.5,41.4,35.5,41.5,35.5L41.5,35.5z"/>
<path class="st2" d="M40.4,36.1c-0.1,0.1-0.2,0.1-0.3,0.2c-0.3-0.1-0.6-0.1-0.8-0.2c-0.1-0.1-0.1-0.1-0.2-0.2c0-0.3,0.1-0.6,0.1-0.9
	c0.1-0.1,0.2-0.3,0.4-0.4c0.2-0.1,0.3,0,0.2,0.2l-0.1,0.1c-0.3,0.3-0.3,0.6,0,0.9c0.3,0.1,0.5,0.1,0.7,0C40.4,36,40.4,36,40.4,36.1z
	"/>
<path class="st2" d="M37.6,32.6c-0.2,0-0.5,0-0.6-0.1c-0.3-0.2-0.6-0.2-0.8-0.1c-0.2-0.3,0.3-0.2,0.2-0.5l0,0c0.1,0,0.2,0,0.2-0.1
	l0,0c0.6,0.1,0.8-0.4,1.3-0.5l0.1,0.1c-0.1,0.3-0.2,0.5-0.1,0.7c-0.1,0-0.1,0.1-0.2,0.1c0-0.1,0-0.2,0-0.2c0-0.2-0.1-0.4-0.3-0.3
	c-0.2,0-0.3,0.1-0.3,0.2c0,0.3,0.2,0.2,0.3,0.3c0.1,0,0.1,0,0.2,0.1C37.6,32.4,37.6,32.5,37.6,32.6z"/>
<path class="st2" d="M38.1,31.5L38.1,31.5c-0.6-0.4-1,0.1-1.4,0.4l0,0c-0.1,0-0.2,0.1-0.2,0.1l0,0c-0.1,0-0.3,0.1-0.4,0.1
	c0-0.4,0.4-0.5,0.6-0.6c0.3-0.2,0.6-0.3,0.9-0.5c0.3,0,0.5,0,0.7,0.1c0,0.2,0.1,0.3,0.1,0.5C38.3,31.5,38.2,31.5,38.1,31.5z"/>
<path class="st2" d="M38.1,31.5c0.1,0,0.2,0,0.3,0c0,0.2-0.2,0.4-0.1,0.6c0.1,0.5-0.2,0.2-0.3,0.2C37.9,31.9,38,31.8,38.1,31.5z"/>
<path class="st2" d="M37.5,30.7c-0.5-0.2-0.7,0.4-1.2,0.3c-0.1,0-0.2,0-0.4-0.1c0.4-0.2,0.5-0.5,0.8-0.6c0.4,0,0.7,0.1,1.2,0.1
	c0.3,0,0.5,0,0.7,0v0.1c0,0.1-0.1,0.1-0.1,0.2C38.2,30.8,37.9,30.6,37.5,30.7z"/>
<path class="st2" d="M39.4,29.9c0.2,0,0.3,0.1,0.5,0.1c0,0.1,0,0.2,0,0.2c-0.4,0.3-0.7,0-1,0c-0.3-0.2-0.6-0.1-0.8-0.1
	c-0.3,0-0.6,0.1-0.9,0.1c0-0.1,0-0.2,0-0.2v-0.1c0.1,0,0.3,0,0.4-0.1c0.1,0,0.2,0,0.3,0C38.3,29.8,38.8,29.8,39.4,29.9z"/>
<path class="st2" d="M37.2,46.5c0.1,0,0.2,0,0.3,0c0.1,0.1,0.1,0.1,0.2,0.2v0.1c0,0,0,0.1-0.1,0.1c-0.1,0.2-0.6,0.1-0.5,0.5
	c-0.3-0.1-0.4-0.3-0.6-0.4C36.7,46.6,37.2,46.9,37.2,46.5z"/>
<path class="st2" d="M40.5,39.5c-0.3,0-0.5,0-0.4-0.4c0.3-0.1,0.6-0.1,0.7-0.3c0.1,0,0.3-0.1,0.3,0.1C41,39,40.8,39,40.8,39.2
	C40.8,39.3,40.6,39.2,40.5,39.5z"/>
<path class="st2" d="M21.3,40.8c-0.1,0.8,0.3,1.5,0.7,2c0.3,0.4,0.1,0.9,0.2,1.4c-0.1,0-0.2,0-0.3,0c0-0.1,0-0.2,0-0.2
	c0-0.1,0-0.3-0.1-0.3v-0.1c0.1-0.2,0-0.5-0.1-0.6c-0.6-0.6-0.7-1.5-0.6-2.3l0,0C21.3,40.7,21.3,40.7,21.3,40.8z"/>
<path class="st2" d="M22.9,43.2c-0.1-0.4-0.2-0.8-0.6-1.1c-0.2-0.1-0.2-0.3-0.2-0.5h0.1c0.4,0.2,0.5,0.6,0.8,0.8c0,0.2,0,0.4,0,0.6
	v0.1C23,43.2,22.9,43.2,22.9,43.2z"/>
<path class="st2" d="M23,43.2L23,43.2c0.4-0.1,0.1-0.5,0.4-0.6c0.1,0,0.1,0.1,0.2,0.1c0,0.2,0.1,0.5-0.1,0.6
	C23.3,43.2,23.2,43.2,23,43.2z"/>
<path class="st2" d="M23.5,43.3L23.5,43.3C23.5,43.4,23.5,43.4,23.5,43.3L23.5,43.3z"/>
<path class="st2" d="M16.4,38.1c0,0.1,0.1,0.1,0.1,0.2c0.1,0.2,0.1,0.5,0.5,0.5c0,0.1,0,0.2,0,0.3c-0.6-0.2-0.9-0.6-1-1.2
	c0.1,0,0.2,0,0.3,0C16.1,38,16.2,38.1,16.4,38.1z"/>
<path class="st2" d="M18.8,40.6c-0.4-0.2-0.9-0.2-1-0.7c0.5-0.1,0.7,0.3,1,0.6C18.8,40.4,18.8,40.5,18.8,40.6z"/>
<path class="st2" d="M19.6,40.8c0,0.1-0.1,0.1-0.1,0.2c-0.3-0.1-0.6,0-0.6-0.4C19.2,40.4,19.4,40.7,19.6,40.8z"/>
<path class="st2" d="M17.8,39.8c-0.1,0-0.3,0-0.4-0.1c0-0.1,0-0.1,0-0.2C17.7,39.5,17.8,39.6,17.8,39.8z"/>
<path class="st2" d="M16.9,39c0-0.1,0-0.2,0-0.3C17.1,38.8,17.2,38.8,16.9,39C17,39,16.9,39,16.9,39L16.9,39z"/>
<path class="st2" d="M17.5,39.5c-0.2,0-0.3-0.1-0.2-0.3C17.4,39.3,17.5,39.3,17.5,39.5z"/>
<path class="st2" d="M16.9,39L16.9,39c0.1,0.1,0.1,0.1,0.1,0.2C16.9,39.2,16.8,39.1,16.9,39z"/>
<path class="st2" d="M17,38.5L17,38.5C16.9,38.5,16.9,38.4,17,38.5C17,38.4,17,38.5,17,38.5L17,38.5z"/>
<path class="st2" d="M18.8,40.6c0-0.1,0-0.1,0-0.2C18.9,40.4,18.9,40.5,18.8,40.6C18.9,40.6,18.9,40.6,18.8,40.6z"/>
<path class="st2" d="M17,38.5L17,38.5C17.1,38.5,17.1,38.5,17,38.5C17.1,38.6,17,38.5,17,38.5L17,38.5z"/>
<path class="st2" d="M20.9,39.9c0-0.1,0-0.2,0-0.3c0.2-0.4,0.1-0.6,0.1-1l0,0c0.3-0.1,0.2-0.4,0.2-0.6c0-0.2,0-0.4,0.3-0.4
	c0,0.2,0,0.4-0.1,0.5c0,0.1,0,0.2,0.2,0.3c0,0.1,0,0.2,0,0.3c-0.2,0.4-0.3,0.7-0.5,1.1C21.1,39.9,21,39.9,20.9,39.9
	C21.1,39.9,21,39.9,20.9,39.9z"/>
<path class="st2" d="M32.9,48.1c-0.2-0.3-0.5-0.2-0.7-0.4c0.1-0.3,0.6-0.2,0.6-0.6l0.1-0.1c0.1,0.1,0.2,0.1,0.3,0.2
	c0,0.1,0,0.1,0,0.2c-0.1,0-0.3,0.1-0.1,0.2c0,0.1,0,0.2,0,0.3c0,0,0,0,0,0.1C33.1,48.1,33,48.1,32.9,48.1z"/>
<path class="st2" d="M26.9,42.8c-0.3,0.4-0.6,0.5-1,0.4c-0.2,0-0.4-0.1-0.6-0.1L25.2,43c0-0.1-0.1-0.1-0.1-0.2
	c-0.1-0.3-0.4-0.4-0.6-0.6c-0.1-0.2-0.4-0.4-0.1-0.6c0.1,0,0.2,0.1,0.2,0.1c0.1,0.3,0.2,0.5,0.5,0.6c0.2,0.3,0.5,0.3,0.7,0.3
	c0.2,0,0.3,0,0.5,0C26.4,42.8,26.7,42.7,26.9,42.8z M25.5,42.8c0.3,0.1,0.4,0.1,0.6,0.1C25.9,42.8,25.8,42.7,25.5,42.8z"/>
<path class="st2" d="M24.7,41.7c-0.1,0-0.2-0.1-0.2-0.1c-0.1-0.3-0.3-0.6-0.6-0.7c0-0.1,0-0.1,0-0.2c0.1,0,0.2,0,0.2,0s0,0,0.1,0
	c0.1,0.1,0.3,0.1,0.5,0.1c-0.1,0.1-0.3,0.3,0,0.5c0.2,0.2,0.4,0.2,0.6,0.3c0.3,0.2,0.6,0,0.9,0.1c0,0.1,0,0.1,0,0.2
	C25.7,41.6,25.2,41.7,24.7,41.7z"/>
<path class="st2" d="M23.6,40.5c0-0.1,0-0.1,0-0.2c0.1,0,0.3,0,0.4,0c0,0.1,0,0.2,0,0.3s0,0.1,0,0.2C23.7,40.9,23.7,40.6,23.6,40.5z
	"/>
<path class="st2" d="M22.5,41.2c-0.1,0-0.2,0-0.3,0.1c-0.1,0-0.2,0-0.2,0c0.1-0.3-0.1-0.6-0.4-0.6c-0.2-0.1-0.3,0-0.3,0.2
	c-0.1,0-0.1-0.1-0.2-0.1c0-0.2,0.1-0.4,0.3-0.5c0.2,0.2,0.5,0,0.6,0.2c0,0.2,0.1,0.4,0.1,0.6C22.4,41.1,22.4,41.1,22.5,41.2
	C22.5,41.1,22.5,41.1,22.5,41.2z"/>
<path class="st2" d="M22.1,40.4c-0.2-0.2-0.5,0-0.6-0.2c0-0.1,0-0.3,0-0.4c0-0.3,0.2-0.2,0.4-0.2c0,0.1,0.1,0.1,0.1,0.2
	C21.9,40,22.2,40.1,22.1,40.4C22.2,40.4,22.2,40.4,22.1,40.4z"/>
<path class="st2" d="M22.7,39.4c-0.3,0.3-0.4,0.6-0.5,0.9h-0.1c0.1-0.2-0.2-0.3-0.2-0.6c0.3-0.3,0.5-0.6,0.8-0.8
	C22.8,39.1,22.8,39.3,22.7,39.4z"/>
<path class="st2" d="M22.5,41c-0.1,0-0.2,0-0.2-0.1C22.3,40.9,22.4,40.9,22.5,41z"/>
<path class="st2" d="M27.1,42.2c-0.1-0.3,0.2-0.6-0.3-0.8c0-0.1,0.1-0.2,0.1-0.4c0-0.1,0-0.2,0-0.3c0.1-0.1,0.3-0.2,0.3-0.3
	c0.6-0.7,0.5-1.7-0.3-2c0-0.1,0-0.2,0-0.3c0.2,0,0.4,0,0.6,0l0,0c-0.1,0.4,0.2,0.6,0.3,0.9c0.2,0.5,0.4,0.9,0,1.4
	c-0.4,0.4-0.8,0.6-0.4,1.2c0.1,0.1,0.1,0.4,0.1,0.5C27.2,42.1,27.1,42.1,27.1,42.2z"/>
<path class="st2" d="M28.9,42.5c-0.2-0.1-0.3-0.3-0.4-0.5c-0.1-0.2-0.1-0.4-0.3-0.4c-0.3,0,0.1,0.3-0.1,0.4c-0.1,0-0.2,0-0.3,0
	c0-0.2-0.3-0.5,0-0.6c0.2,0,0.3-0.2,0.4-0.3c0.3-0.3,0.3-0.7,0.6-1c0,0.2,0.1,0.5-0.1,0.6c-0.4,0.4-0.2,0.6,0.1,0.9
	c0.1,0.2,0.4,0.3,0.3,0.6C28.9,42.4,28.9,42.5,28.9,42.5z"/>
<path class="st2" d="M27.4,42.1L27.4,42.1C27.5,42.1,27.4,42.1,27.4,42.1z"/>
<path class="st2" d="M37,42.7c0.4,0.2,0.8,0.5,1.3,0.4c0,0,0.1,0.1,0.2,0.1c0,0.1,0.1,0.3,0.1,0.4c-0.4,0.1-0.6,0.3-0.6,0.7
	c0,0.2-0.2,0.4-0.4,0.5h-0.1h-0.1c-0.2-0.3,0-0.5,0.1-0.6c0.1-0.1,0.2-0.3,0.1-0.4c0.2-0.2,0.5,0,0.6-0.3c-0.4-0.1-0.6-0.1-0.9-0.2
	c-0.1,0-0.3,0-0.4-0.1c0,0,0,0,0-0.1c-0.1-0.2-0.4-0.1-0.6-0.3c-0.2-0.2-0.4-0.1-0.6-0.1c0-0.2-0.2-0.2-0.2-0.3l0.1-0.1
	c0.1,0,0.2,0,0.3,0.1c0.2,0,0.3,0,0.5,0C36.7,42.7,36.8,42.7,37,42.7z"/>
<path class="st2" d="M36.4,47.3c-0.1,0-0.3,0.1-0.4,0.1H36c-0.2-0.1-0.3,0-0.4,0c-0.2-0.1,0-0.3,0-0.4l0,0c0.2,0,0.5,0.2,0.6,0
	C36.3,47,36.4,47.1,36.4,47.3z"/>
<path class="st2" d="M33.2,48c0-0.1,0-0.2,0-0.3c0.3,0,0.6,0,0.8,0.1c0.4,0.1,0.8,0.1,1.2,0.1c0.4,0,0.8,0.2,1.3-0.1
	c0.3,0,0.3,0.1,0.2,0.3C35.6,48.2,34.4,48.2,33.2,48z"/>
<path class="st2" d="M38.6,39.9c0.3-0.1,0.4,0,0.2,0.3c-0.1,0-0.2,0-0.3,0c-0.3-0.2-0.6-0.1-0.9-0.3c-0.1-0.1-0.2-0.2-0.2-0.4
	c0-0.2,0.1-0.3,0.2-0.3c0,0.3,0.1,0.4,0.3,0.4C38.1,40,38.4,39.8,38.6,39.9z"/>
<path class="st2" d="M39.1,39.5c-0.1,0.3-0.4,0.2-0.6,0.3c-0.2,0-0.4,0-0.6,0c-0.1-0.3,0-0.4,0.3-0.4c0.1,0,0.3,0,0.4,0
	C38.7,39.5,38.9,39.5,39.1,39.5z"/>
<path class="st2" d="M37,30.1c0,0.1,0,0.2,0,0.2c-0.1,0-0.1,0.1-0.2,0.1c-0.3,0.1-0.5,0.4-0.8,0.6c0.2,0,0.3,0,0.4,0.1
	c-0.2,0.2-0.3,0.6-0.6,0.6c0-0.2,0-0.3-0.2-0.4c0.1-0.1,0.2-0.3,0.2-0.4c0.1-0.1,0.3-0.3,0.4-0.4C36.3,30.3,36.6,30,37,30.1z"/>
<path class="st2" d="M27.2,32.9c0.5,0,0.8,0,1.2,0.3c0,0.3,0.3,0.1,0.4,0.3v0.1c-0.3,0.2-0.6,0-0.8,0c-0.4,0-0.6,0.2-0.6,0.6
	s0.1,0.7,0.2,1.1c-0.2,0-0.5,0-0.6-0.3c-0.1-0.2-0.3-0.2-0.4-0.2c0-0.2-0.1-0.2-0.3-0.2c-0.1-0.1-0.1-0.1-0.3-0.1c0-0.1,0-0.3,0-0.4
	c0.4-0.4-0.1-0.8,0.2-1.2l0,0l0.1-0.1c0.1,0.1,0.2-0.4,0.2,0c0,0.6-0.3,1.1,0,1.7c0.1-0.4,0-0.7,0-1C26.7,33.3,26.9,33,27.2,32.9z
	 M27.1,33.4c0.2-0.1,0.5,0,0.6-0.2l-0.1-0.1C27.3,33,27.2,33.2,27.1,33.4z M27.1,34.3L27.1,34.3C27.1,34.3,27.1,34.3,27.1,34.3
	C27.1,34.4,27.1,34.4,27.1,34.3C27.1,34.4,27.1,34.3,27.1,34.3z"/>
<path class="st2" d="M25.1,32.8c-0.4,0-0.7,0.2-1.1,0.3c0-0.1,0-0.1,0-0.2l0,0c0.2-0.1,0.4-0.1,0.6-0.2c0.3-0.1,0.6-0.1,0.6-0.5
	c0.2,0,0.4,0.1,0.5-0.2c0.2-0.3,0.7-0.2,0.7-0.7c0.2,0,0.3,0,0.5,0c0.1,0.2,0.2,0.2,0.4,0.2v0.1c0,0.1,0,0.1,0,0.2
	c-0.1,0-0.2,0-0.3,0c-0.5-0.1-1.3,0.4-1.5,0.8C25.2,32.8,25.1,32.8,25.1,32.8z"/>
<path class="st2" d="M24.6,29.5c0,0.2,0.2,0.3,0.1,0.4c-0.2,0-0.3,0-0.5,0s-0.3,0.2-0.3,0.3l0,0c0,0-0.1,0-0.1,0.1
	c-0.1,0-0.1,0-0.1,0.1h-0.1c-0.3,0-0.2-0.3-0.2-0.4c0.2-0.2,0.5-0.3,0.6-0.5C24.3,29.5,24.4,29.3,24.6,29.5z"/>
<path class="st2" d="M25.3,33.5c-0.1,0-0.2,0-0.3,0c0-0.1,0-0.2,0-0.3h0.1C25.3,33.2,25.3,33.3,25.3,33.5z"/>
<path class="st2" d="M29.2,37.6c-0.2,0-0.3,0-0.5,0c-0.1,0.1-0.2,0.1-0.3,0C28.3,37.4,28.3,37,28,37c-0.4,0.1-0.1,0.5-0.2,0.6
	c0,0,0,0,0,0.1c0,0.1,0,0.2,0,0.4c-0.1,0-0.3-0.1-0.4,0.1h-0.1l0,0c-0.2-0.4-0.4-0.3-0.6,0c0,0.1,0,0.2,0,0.3c0,0.2,0.1,0.5-0.1,0.6
	c-0.1,0-0.1-0.1-0.2-0.1c0-0.3,0.1-0.5,0.1-0.7s0.1-0.6-0.3-0.7c-0.1,0-0.1,0-0.2,0c-0.3-0.3-0.4,0-0.5,0.1c-0.6,0.5-1,1-1.7,1.2
	c0-0.2,0.3-0.2,0.2-0.4l0,0l0.1-0.1l0,0c0.2,0,0.4-0.1,0.5-0.3c0.1,0,0.1-0.1,0.2-0.1c0.1,0,0.1-0.1,0.1-0.2l0,0
	c0.1,0,0.2,0,0.2-0.1l0,0c0.2,0,0.2-0.1,0.3-0.3c0.2,0,0.3-0.1,0.3-0.3c0.2-0.3,0.1-0.6-0.1-0.8c-0.2-0.3-0.4,0-0.6,0.1
	c-0.2,0.1-0.4,0.3-0.6,0.3c0-0.1,0-0.1,0-0.2c0-0.1,0.1-0.1,0.1-0.2c0.5-0.2,0.8-0.5,1-0.9c0.1,0,0.1-0.1,0.1-0.2
	c0.1,0,0.2,0,0.2,0.1c-0.2,0.4-0.4,0.7,0.1,1.1c0.3,0.5,0.8,0.6,1.4,0.6c-0.4-0.6-0.8-0.7-1.4-0.9c-0.1-0.1-0.1-0.2,0-0.2
	c0.3,0.1,0.6,0.2,0.8,0.2c0.2,0.3,0.3,0.6,0.6,0.6c0.1,0,0.3,0.1,0.4-0.1h0.1c0.4,0.4,0.6,0.8,1.1,0.9
	C29.2,37.5,29.2,37.5,29.2,37.6z M26.5,37.1c0.1,0.1,0.2,0.1,0.4,0V37C26.7,37,26.6,37.1,26.5,37.1z M26.2,37
	C26.2,37,26.1,37,26.2,37C26.2,37.1,26.2,37.1,26.2,37L26.2,37L26.2,37z"/>
<path class="st2" d="M32.7,40.9c0.1,0.2,0.3,0.2,0.4,0.2c0.2,0,0.5,0,0.4,0.3c-0.1,0.2-0.3,0.1-0.5,0c-0.4-0.1-0.7-0.2-1.1-0.4
	c-0.1-0.1-0.3-0.2-0.4-0.2c-0.7-0.6-0.9-1.4-1-2.3c0-0.1,0-0.2,0.2-0.3c0.2,0,0.2,0.2,0.2,0.3c-0.1,0.2,0,0.3,0.1,0.4
	c0.1,0.3,0.1,0.5,0.2,0.7c0.1,0.7,0.7,1,1.4,1.2C32.6,40.9,32.6,40.9,32.7,40.9z"/>
<path class="st2" d="M29.1,34.1c0.2,0.5-0.3,0.6-0.5,1c-0.1,0-0.2,0-0.3,0c0-0.2,0-0.4,0.2-0.6c0.2-0.1,0.3-0.3,0.1-0.4
	c-0.2-0.2-0.4-0.2-0.6,0c-0.3,0.3-0.3,0.6,0,0.9L28,35.2c-0.1,0-0.1,0-0.2,0c-0.3-0.6-0.3-0.9,0.1-1.2
	C28.3,33.8,28.7,33.8,29.1,34.1z"/>
<path class="st2" d="M27.7,35.5L27.7,35.5c0.2,0.2,0.5,0.3,0.5,0.6c-0.4,0-0.5,0.1-0.3,0.4c-0.1,0.2-0.3,0.1-0.4,0.1
	c0-0.4-0.2-0.6-0.5-0.7c-0.1,0-0.1-0.1-0.2-0.1c0-0.2-0.2-0.2-0.3-0.2v-0.1c0.2-0.2,0.4-0.1,0.5,0C27.2,35.7,27.4,35.6,27.7,35.5z
	 M27.6,36L27.6,36L27.6,36L27.6,36C27.6,36,27.7,36,27.6,36L27.6,36z"/>
<path class="st2" d="M36.1,32c0.1,0,0.3-0.1,0.4-0.1c0.1,0.2-0.4,0.2-0.2,0.5c-0.3,0.6-0.8,0.6-1.3,0.6c-0.1,0-0.4,0-0.3-0.3
	c0-0.2,0.2-0.1,0.4-0.1C35.3,32.5,35.9,32.6,36.1,32z"/>
<path class="st2" d="M28.3,35.2c0.1,0,0.2,0,0.3,0v0.1l0.1,0.1c0.1,0,0.3,0,0.4,0.1c0.2,0.1,0.6,0,0.5,0.3c-0.1,0.3-0.4,0.1-0.6,0.1
	c-0.4-0.1-0.7-0.1-1-0.5l0.1-0.1C28.2,35.2,28.2,35.2,28.3,35.2z"/>
<path class="st2" d="M29.2,37.6c0-0.1,0-0.2,0-0.2c0.4,0,0.7,0.1,0.9-0.4c0-0.1,0.1-0.1,0.2-0.1c0.1,0,0.1,0.2,0.1,0.3
	c0,0.2-0.2,0.3-0.3,0.4C29.8,37.8,29.4,37.5,29.2,37.6z"/>
<path class="st2" d="M35.5,31.2c0.2,0,0.3,0.2,0.2,0.4c0,0-0.1,0-0.1,0.1c-0.1,0.2-0.3,0.4-0.5,0.2c-0.2-0.2,0-0.4,0.1-0.5
	C35.3,31.3,35.4,31.2,35.5,31.2z"/>
<path class="st2" d="M27.9,36.5c-0.2-0.4-0.1-0.5,0.3-0.4C28.3,36.3,28,36.4,27.9,36.5C28,36.4,28,36.4,27.9,36.5z"/>
<path class="st2" d="M28.8,35.3L28.8,35.3C28.7,35.2,28.7,35.3,28.8,35.3z"/>
<path class="st2" d="M39.8,43.1c0.1,0.5-0.3,0.7-0.5,1c-0.2,0.2-0.4,0.4-0.5,0.6c-0.3,0.1-0.4,0.5-0.7,0.6c0-0.4,0.4-0.6,0.6-0.8
	c0.2-0.2,0.3-0.4,0.5-0.6c-0.1-0.1-0.3,0-0.4-0.1c0-0.1,0.1-0.2,0.1-0.2C39.4,43.5,39.6,43.2,39.8,43.1z"/>
<path class="st2" d="M38.9,43.4c-0.1,0.1-0.2,0.1-0.1,0.2c-0.1,0-0.2,0-0.4,0c0-0.1-0.1-0.3-0.1-0.4C38.6,43.1,38.8,43.2,38.9,43.4z
	"/>
<path class="st2" d="M22,41.2c0.1,0,0.2,0,0.2,0c0,0.1,0,0.2,0,0.3h-0.1C22,41.5,22,41.4,22,41.2z"/>
<path class="st2" d="M21.9,39.7c-0.2,0-0.4-0.1-0.4,0.2c-0.1-0.1-0.2-0.1-0.3,0c0.2-0.4,0.3-0.7,0.5-1.1c0.4,0,0.3-0.5,0.6-0.6
	c0.2,0.2,0.1,0.4,0,0.6C22,38.9,21.9,39.3,21.9,39.7z"/>
<path class="st2" d="M23.5,29.8c0,0.2-0.1,0.4,0.2,0.4c-0.1,0.4-0.4,0.6-0.6,0.9c-0.2,0.3-0.2,0.6-0.2,0.9c0,0.5-0.4,0.9,0.2,1.3
	c0,0.4-0.1,0.6-0.5,0.7c-0.6,0.5-1.1,1.1-1.2,1.9c-0.1,0.1-0.1,0.3-0.1,0.4l0,0c-0.1,0-0.3,0-0.3-0.1c0-0.2,0.1-0.5,0.1-0.6
	c0.3-0.7,0.7-1.3,1.2-1.9c0.6-0.2,0.1-0.6,0.2-0.8c0-0.1,0-0.2,0-0.2c0-0.1,0-0.2,0-0.3c0.2-0.6,0.4-1.3,0.6-2
	c-0.6,0.5-1.2,0.7-1.7,1.2h-0.1c-0.3,0.1-0.5,0.3-0.6,0.5c-0.6,0.2-1,0.6-1.6,0.8c-0.6,0.3-1,0.6-1.6,0.9c-0.2,0.1-0.4,0.1-0.6,0.1
	c0.5-0.6,1-0.7,1.5-1c1.1-0.6,2.2-1.4,3.3-2.2C22.4,30.6,22.8,30,23.5,29.8z"/>
<path class="st2" d="M25,33.2c0,0.1,0,0.2,0,0.3c0,0.3-0.5,0.3-0.4,0.6c0,0.1-0.1,0.1-0.1,0.2c-0.1,0-0.2,0.1-0.2,0.2
	c-0.1,0.1-0.1,0.1-0.1,0.2h-0.1c-0.6,0.2-1.1,0.5-1.6,0.9c-0.1-0.1-0.1-0.1-0.1,0c-0.1,0.1-0.2,0.2-0.2,0.3
	c-0.2,0.3-0.5,0.5-0.3,0.8c0.4-0.3,0.7-0.4,1-0.7c0.7-0.4,1.6-0.7,2-1.6c0.4,0.1,0.2,0.3,0.1,0.4c-0.1,0.2-0.4,0.4-0.3,0.6h-0.1
	c-0.7,0.3-1.3,0.7-2,1.1c-0.4,0.2-0.6,0.5-0.6,0.9h-0.1c-0.2,0-0.2,0.2-0.4,0.2c-0.3,0-0.3,0.2-0.3,0.4s0.2,0.5-0.2,0.6
	c0-0.1,0-0.2-0.1-0.3c0-0.1,0-0.2,0.1-0.3c0-0.1,0-0.1,0-0.2c0-0.2,0-0.5,0-0.6c0-0.1,0-0.2,0.1-0.3l0,0c0.4,0.1,0.6,0,0.4-0.5l0,0
	c0.4,0,0.4-0.2,0.3-0.4c0.4-0.6,0.9-1,1.5-1.4C24,34.2,24.7,33.9,25,33.2C24.8,33.1,24.8,33.1,25,33.2z M21.8,36.8
	C21.7,36.8,21.7,36.9,21.8,36.8L21.7,37C21.8,37,21.8,37,21.8,36.8C21.9,36.9,21.9,36.9,21.8,36.8z"/>
<path class="st2" d="M20.7,39.5L20.7,39.5C20.7,39.6,20.7,39.6,20.7,39.5z"/>
<path class="st2" d="M21.4,38.1c0.1,0,0.2,0.1,0.2,0.3C21.4,38.4,21.3,38.3,21.4,38.1z"/>
<path class="st2" d="M31.6,45.7c0.6,0.3,0.8,0.9,1.4,1.3v0.1l-0.1,0.1c-0.1-0.1-0.2-0.1-0.3-0.2c-0.3-0.2-0.4-0.6-0.7-0.6
	c0-0.2-0.1-0.4-0.4-0.5l0,0C31.6,46,31.6,45.9,31.6,45.7C31.6,45.8,31.6,45.8,31.6,45.7z"/>
<path class="st2" d="M34.6,47.6c-0.2,0-0.4,0-0.6,0c-0.3,0-0.5,0-0.7,0c0-0.1,0-0.1,0-0.2h0.1c0.4,0,0.6,0,1,0
	C34.5,47.4,34.6,47.5,34.6,47.6z"/>
<path class="st2" d="M29,42.4c0.6,0.4,0.8,1.1,1.3,1.6c0.5,0.6,1,1.1,1.4,1.7c0,0,0,0-0.1,0.1c-0.1,0-0.1,0-0.2,0
	c-0.2-0.2-0.2-0.5-0.6-0.6c-0.6-0.7-1.2-1.6-1.7-2.3c-0.1-0.2-0.2-0.3-0.3-0.5C28.9,42.5,28.9,42.4,29,42.4z"/>
<path class="st2" d="M25.5,42.8c0.3-0.2,0.5,0,0.6,0.1C25.9,43,25.8,43,25.5,42.8z"/>
<path class="st2" d="M25.2,41.4c0.3-0.3,0.6-0.1,0.9-0.1c0,0.1,0,0.1,0,0.2l0,0C25.9,41.4,25.6,41.6,25.2,41.4z"/>
<path class="st2" d="M25.1,40.9c0,0.3-0.4,0.1-0.5,0.3c-0.3-0.2-0.1-0.3,0-0.5c0.1-0.1,0.1-0.1,0.2-0.1C24.9,40.8,25,40.9,25.1,40.9
	z"/>
<path class="st2" d="M26.4,41.7c-0.1,0-0.2,0-0.2,0c0-0.1,0-0.1,0-0.2l0,0C26.3,41.5,26.3,41.5,26.4,41.7z"/>
<path class="st2" d="M24.2,40.7C24.2,40.7,24.2,40.6,24.2,40.7C24.3,40.6,24.3,40.7,24.2,40.7C24.3,40.7,24.2,40.7,24.2,40.7z"/>
<path class="st2" d="M22.9,40.5c-0.1,0-0.1,0-0.2,0.1c-0.2-0.4-0.1-0.7,0.1-1c0.2-0.2,0.4-0.5,0.6-0.6l0,0c0.2,0,0.4-0.1,0.6-0.1
	c-0.1,0.3-0.5,0.4-0.6,0.6c-0.1,0.2-0.5,0.4-0.3,0.7C23,40.2,23,40.4,22.9,40.5z"/>
<path class="st2" d="M26.4,41.7c0-0.1-0.1-0.2-0.2-0.2c0-0.1,0-0.1,0-0.2h0.1c0.1,0,0.2-0.1,0.2-0.2c0.1,0,0.3,0,0.4,0
	c0,0.1-0.1,0.2-0.1,0.4C26.5,41.3,26.6,41.7,26.4,41.7z"/>
<path class="st2" d="M27.8,38c0-0.1,0-0.2,0-0.4c0.2,0,0.5,0.1,0.6-0.1c0.1,0.1,0.2,0.1,0.3,0c0,0.3,0.1,0.6-0.1,0.9
	c-0.1,0.1-0.1-0.1-0.3-0.1v-0.1h-0.1l0.1,0.1c0.2,0.7-0.4,1.5-0.1,2.3c0-0.2,0-0.4,0-0.5c0-0.4,0.1-0.5,0.5-0.4
	c0.1,0.2,0.1,0.4,0.1,0.5c-0.3,0.3-0.3,0.7-0.6,1c-0.1,0.1-0.2,0.3-0.4,0.3v-0.1c0-0.2,0.3-0.6-0.2-0.6c0-0.1,0-0.2,0-0.4
	c0.4-0.5,0.2-0.9,0-1.4c-0.1-0.3-0.4-0.6-0.3-0.9h0.1c0.3,0.4,0.4,0.8,0.6,1.2C28.2,38.8,28,38.5,27.8,38z"/>
<path class="st2" d="M26.8,38.1c0.2-0.3,0.4-0.3,0.6,0C27.1,38.1,27,38.1,26.8,38.1z"/>
<path class="st2" d="M27.6,40.8c0.5,0.1,0.2,0.4,0.2,0.6C27.4,41.2,27.7,40.9,27.6,40.8z"/>
<path class="st2" d="M28.7,39.8c-0.4-0.1-0.5,0-0.5,0.4c0,0.2,0,0.4,0,0.5c-0.3-0.7,0.4-1.5,0.1-2.3l0,0c0.2,0,0.2,0.2,0.4,0.2
	C28.7,38.9,28.7,39.4,28.7,39.8z"/>
<path class="st2" d="M30.7,28c0,0.1,0,0.1,0,0.2c-0.3,0-0.3,0.3-0.3,0.5c-0.1,0-0.1,0.1-0.2,0.1c-0.3,0.1-0.4,0.3-0.5,0.5
	c-0.1,0-0.1,0-0.2,0c-0.1,0-0.2,0-0.2,0.1c-0.6,0-1.3,0.1-1.9-0.2c0-0.1,0-0.1,0-0.2c0.5,0,1,0,1.5,0c0.3,0,0.6-0.2,0.7-0.5
	c-0.8,0-1.7,0-2.5-0.3c0-0.3,0.2-0.2,0.4-0.3C27.8,28,28,28,28.2,28c0.1,0,0.1,0,0.2,0c0.5,0,1,0.1,1.5-0.2c0.2-0.1,0.4-0.2,0.2-0.5
	c0-0.1,0-0.2,0-0.3c0.2-0.1,0.3-0.3,0.5,0c0,0.1,0.1,0.3,0.1,0.4C30.2,28.1,30.5,28,30.7,28z"/>
<path class="st2" d="M29.9,27.2c0,0.1,0,0.2,0,0.3c-0.6,0.2-1.1,0.5-1.7,0.6c-0.1,0-0.1,0-0.2,0c0-0.3,0.2-0.4,0.4-0.4
	C28.9,27.7,29.4,27.4,29.9,27.2z"/>
<path class="st2" d="M30.7,28c-0.3,0-0.6,0.1-0.4-0.3c0.1-0.2-0.1-0.3-0.1-0.4c0.3-0.1,0.1-0.3,0.1-0.4c0-0.1,0-0.2,0.1-0.2
	c0.1,0,0.2,0,0.2,0.1c0.1,0.2,0.1,0.5,0.1,0.6C30.8,27.6,30.8,27.8,30.7,28z"/>
<path class="st2" d="M23.1,33.4c0.2-0.4,0.6-0.4,0.9-0.6c0,0.1,0,0.1,0,0.2C23.7,33.2,23.5,33.5,23.1,33.4z"/>
<path class="st2" d="M27.7,35.5c-0.3,0.1-0.5,0.1-0.7-0.1c-0.1-0.1-0.3-0.2-0.5,0c-0.1,0-0.1,0-0.2,0c-0.2-0.2-0.3-0.3-0.6-0.2
	c0-0.1-0.1-0.1-0.2-0.1c0-0.1,0-0.3-0.1-0.3c-0.3-0.1-0.2-0.2-0.1-0.4c0.1-0.3,0.3,0,0.5-0.1c0,0.2,0.1,0.4,0.2,0.4
	c0.2,0,0.1-0.2,0.1-0.3c0.1,0,0.2,0,0.2,0.1c-0.2,0.3,0,0.5,0.2,0.6c0.1-0.1-0.1-0.3,0.1-0.4c0.2,0,0.3,0,0.4,0.2
	c0.1,0.3,0.4,0.3,0.6,0.3C27.6,35.3,27.7,35.4,27.7,35.5z"/>
<path class="st2" d="M26.1,34.5c0,0.1,0.1,0.3-0.1,0.3c-0.2,0-0.2-0.2-0.2-0.4s0-0.3-0.2-0.3s-0.2-0.2-0.2-0.4
	c0.5-0.3,0.5,0.3,0.7,0.4C26.1,34.2,26.1,34.4,26.1,34.5z"/>
<path class="st2" d="M26.7,34.9c-0.2,0.1,0.1,0.3-0.1,0.4c-0.2-0.2-0.4-0.3-0.2-0.6C26.5,34.6,26.7,34.6,26.7,34.9z"/>
<path class="st2" d="M26.1,30.5c-0.4-0.2-0.6-0.4-1-0.6c0-0.1,0-0.2,0-0.3c0.3-0.6,0.8-0.8,1.5-0.8c0,0.1,0.1,0.2,0.1,0.3
	c-0.5,0-0.7,0.2-1.1,0.4c-0.1,0.1-0.3,0.3,0,0.4c0.4,0.1,0.6,0.5,0.9,0.6v0.1C26.4,30.5,26.2,30.5,26.1,30.5z"/>
<path class="st2" d="M26.7,29c0-0.1-0.1-0.2-0.1-0.3c0.3,0,0.6-0.1,0.8,0.2c0,0.1,0,0.1,0,0.2C27.1,29.1,26.9,29.1,26.7,29z"/>
<path class="st2" d="M25.1,29.6c0,0.1,0,0.2,0,0.3c-0.1,0-0.2,0-0.3,0C24.8,29.6,25,29.6,25.1,29.6z"/>
<path class="st2" d="M30.5,29.6L30.5,29.6c-0.2,0.1-0.3,0.2-0.3,0.3c-0.1,0-0.1,0.1-0.2,0.1c-0.5,0-0.9,0.3-1.4,0.3
	c0-0.1,0-0.2,0-0.2c0.6-0.3,1.3-0.3,1.7-0.8c0.1,0,0.1,0,0.2,0l0,0l0,0C30.6,29.5,30.5,29.5,30.5,29.6z"/>
<path class="st2" d="M24.9,34.4c0-0.1,0-0.2,0-0.3c0.1-0.2,0.3-0.4,0.5-0.4c0,0.2,0,0.3,0.2,0.4c0.2,0,0.2,0.2,0.2,0.3
	c-0.1,0.1-0.3-0.2-0.5,0.1c-0.1,0.2-0.1,0.3,0.1,0.4c0.1,0,0.1,0.2,0.1,0.3c0,0.1,0,0.2-0.1,0.2c-0.1-0.1-0.3-0.1-0.4-0.1
	c-0.2,0-0.3,0.1-0.4,0.2l0,0h-0.1c-0.1-0.3,0.2-0.5,0.3-0.6C25.1,34.7,25.3,34.5,24.9,34.4z"/>
<path class="st2" d="M23.7,32c0.3,0,0.6-0.3,0.8-0.3c0.3-0.1,0.5-0.1,0.7,0.1c0.1,0.2-0.5,0.2-0.2,0.5c-0.1,0.3-0.3,0.4-0.6,0.5
	c-0.2,0-0.4,0.1-0.6,0.2c-0.1-0.2,0.2-0.4,0.2-0.6c-0.3-0.1-0.4,0.2-0.6,0.2c-0.2,0.1-0.3,0.4-0.5,0.2c-0.2-0.2,0.1-0.3,0.2-0.4
	C23.6,32.2,23.7,32.2,23.7,32z"/>
<path class="st2" d="M27.1,30.9c-0.1,0.2-0.1,0.4-0.4,0.5c-0.2,0-0.3,0-0.5,0v-0.1c0-0.1,0-0.1,0.1-0.2c0.4,0.2,0.4,0,0.5-0.3
	C26.9,30.9,27,30.9,27.1,30.9z"/>
<path class="st2" d="M30,30.1c0.1,0,0.1-0.1,0.2-0.1c0.1,0,0.2,0,0.2,0h0.1c0,0.1,0,0.2,0,0.3c-0.1,0.1-0.1,0.1-0.2,0.2
	c-0.4,0.3-0.8,0.5-1.3,0.6c-0.3,0-0.6,0.2-0.7-0.2c0,0,0-0.1,0.1-0.1c0.1,0,0.2-0.1,0.2-0.2C29.2,30.5,29.6,30.5,30,30.1z"/>
<path class="st2" d="M27.4,30.7c0.2,0.2,0.5,0.1,0.6,0.1c0,0.1,0,0.2,0,0.3c-0.1,0-0.3,0-0.4,0c-0.2-0.1-0.4-0.2-0.6-0.1
	c-0.1,0-0.2,0-0.3-0.1l-0.1-0.1C26.9,30.3,27.1,30.8,27.4,30.7z"/>
<path class="st2" d="M23.4,38.8c-0.2,0-0.3,0-0.5,0c0.1-0.4,0.4-0.5,0.6-0.6c0.6-0.4,1.1-0.6,1.5-1.3c0.1-0.2,0.2-0.1,0.3,0.2
	c-0.1,0.1-0.2,0.2-0.2,0.4l0,0c-0.1,0-0.2,0-0.2,0.1l0,0c-0.1,0-0.1,0.1-0.1,0.2c-0.1,0-0.1,0.1-0.2,0.1c-0.2,0-0.5,0-0.5,0.3l0,0
	l-0.1,0.1l0,0C23.7,38.5,23.5,38.5,23.4,38.8L23.4,38.8z"/>
<path class="st2" d="M25.7,39.3c0.3-0.6,0.6-1.2,0.5-1.8c0.1,0,0.1,0,0.2,0c0,0.3,0.2,0.5,0.1,0.6c-0.1,0.5-0.2,0.8-0.5,1.2
	C25.8,39.3,25.7,39.3,25.7,39.3z"/>
<path class="st2" d="M27.8,38c0.2,0.4,0.4,0.8,0.3,1.3c-0.2-0.4-0.4-0.8-0.6-1.2C27.5,38,27.7,38.1,27.8,38z"/>
<path class="st2" d="M26.7,39c0,0.4,0,0.6-0.3,0.8c-0.1-0.1-0.1-0.1-0.2-0.2c0.2-0.3,0-0.6,0.3-0.8C26.6,38.9,26.6,38.9,26.7,39z"/>
<path class="st2" d="M26.3,38.1c0.1-0.3-0.1-0.5-0.1-0.6c0.4,0.1,0.3,0.5,0.3,0.7C26.5,38.1,26.4,38.1,26.3,38.1z"/>
<path class="st2" d="M26.5,37.1c0.1-0.1,0.2-0.1,0.4,0v0.1C26.7,37.2,26.6,37.3,26.5,37.1z"/>
<path class="st2" d="M26.2,37L26.2,37L26.2,37C26.2,37.1,26.2,37.1,26.2,37C26.1,37,26.2,37,26.2,37z"/>
<path class="st2" d="M24.2,36.4c0.1,0,0.1,0,0.2,0c0,0.1,0,0.1,0,0.2c-0.1,0-0.1,0-0.2,0C24.2,36.5,24.2,36.5,24.2,36.4z"/>
<path class="st2" d="M27.6,36L27.6,36C27.7,36,27.6,36,27.6,36L27.6,36L27.6,36z"/>
<path class="st2" d="M27.6,36L27.6,36L27.6,36L27.6,36z"/>
<path class="st2" d="M24.2,36.4c0,0.1,0,0.1,0,0.2l0,0c-0.2,0-0.4-0.1-0.6-0.1c0.3-0.4,0.7-0.6,0.9-1h0.1h0.1c0,0.3-0.1,0.5-0.3,0.6
	C24.3,36.2,24.2,36.3,24.2,36.4z"/>
<path class="st2" d="M21.8,36.8c0,0.1,0.1,0.1,0.1,0.2c0,0.1-0.1,0.1-0.1,0.1V37C21.7,36.9,21.8,36.9,21.8,36.8z"/>
<path class="st2" d="M21.9,37.5L21.9,37.5c-0.1,0.1-0.1,0-0.2,0C21.8,37.5,21.9,37.5,21.9,37.5z"/>
<path class="st2" d="M23.6,36.4c0.2,0,0.4,0.1,0.6,0.1c-0.3,0.4-0.7,0.5-1.1,0.6c-0.2-0.1-0.2-0.2-0.2-0.4
	C23.2,36.7,23.4,36.6,23.6,36.4z"/>
<path class="st2" d="M22.9,36.9c0,0.2,0,0.3,0.2,0.4c-0.3,0.3-0.5,0.6-0.8,0.7c0-0.1,0-0.1,0-0.2c0.1-0.2,0.4-0.3,0.3-0.6
	c0.1-0.1,0.1-0.1,0.1-0.2C22.7,37,22.8,36.9,22.9,36.9z"/>
<path class="st2" d="M22.6,37c0,0.1,0,0.2-0.1,0.2C22.5,37.1,22.5,37.1,22.6,37z"/>
<path class="st2" d="M22.2,37.8c0,0.1,0,0.1,0,0.2l-0.1,0.1C22.1,38,22.1,37.9,22.2,37.8z"/>
<path class="st2" d="M26.2,39.7c0.1,0.1,0.1,0.1,0.2,0.2c-0.1,0.1-0.1,0.3-0.1,0.4c0,0.1-0.1,0.1-0.1,0.2c-0.4,0.1-0.6,0.5-1,0.5
	c-0.1,0-0.2-0.1-0.2-0.2C25.6,40.6,25.9,40.1,26.2,39.7z"/>
<path class="st2" d="M25.7,39.3c0.1,0,0.2,0,0.2,0c-0.2,0.6-0.8,1-1.3,0.8C24.9,39.9,25.3,39.6,25.7,39.3z"/>
<path class="st2" d="M28.3,38.4L28.3,38.4C28.2,38.3,28.2,38.3,28.3,38.4C28.3,38.3,28.3,38.3,28.3,38.4L28.3,38.4z"/>
<path class="st2" d="M23.9,31.5c-0.1,0-0.3,0-0.3-0.1c0-0.6,0.6-0.6,1-0.8c0.1,0,0.2,0,0.3,0s0.2,0,0.2-0.1c0.2,0,0.4-0.1,0.6,0.1
	c0,0.2,0,0.3,0,0.5C25,31.1,24.5,31.4,23.9,31.5z"/>
<path class="st2" d="M25.7,31c0-0.2,0-0.3,0-0.5c0.5,0,0.6,0.3,0.6,0.6c0,0.1,0,0.1-0.1,0.2C26,31.3,25.9,31.1,25.7,31z"/>
<path class="st2" d="M26.5,30.5c0,0.1,0,0.2,0,0.2c-0.2,0-0.3-0.1-0.3-0.2C26.2,30.5,26.4,30.5,26.5,30.5z"/>
<path class="st2" d="M27.4,30.5c-0.1-0.1-0.3,0-0.3-0.2c0.6,0,1,0.1,1.6-0.1c0,0.1,0,0.2,0,0.2l0,0c-0.1,0-0.2,0-0.3,0
	C28.1,30.5,27.8,30.5,27.4,30.5z"/>
<path class="st2" d="M25.1,35.2c-0.1,0.1-0.2,0.3-0.4,0.2C24.8,35.3,25,35.2,25.1,35.2z"/>
<path class="st2" d="M28.4,30.4c0.1,0,0.2,0,0.3,0v0.1c0,0.1-0.1,0.2-0.2,0.2C28.4,30.6,28.4,30.5,28.4,30.4z"/>
<path class="st2" d="M26.9,30.3c-0.1,0-0.1,0-0.2,0c0-0.1-0.1-0.2,0.1-0.3c0.1-0.1,0.2,0.1,0.3,0.1C27,30.2,27,30.2,26.9,30.3z"/>
<path class="st2" d="M26.9,30.3c0-0.1,0.1-0.1,0.1-0.2c0,0.1,0.1,0.1,0.1,0.2C27.1,30.3,27,30.3,26.9,30.3z"/>
<path class="st2" d="M32.3,2.5C15.8,2.5,2.5,15.8,2.5,32.2C2.5,48.7,15.8,62,32.3,62c0.3,0,0.6,0,1,0c15-0.5,27.2-12,28.7-26.7
	c0.1-1,0.2-2,0.2-3C62,15.8,48.7,2.5,32.3,2.5z M52,52c-5.7,5.7-13.2,8.4-20.6,8.1c-6.8-0.2-13.6-2.9-18.9-8.1
	c-10.9-10.9-10.9-28.6,0-39.5C23.4,1.6,41.1,1.6,52,12.5c5.8,5.8,8.5,13.5,8.1,21C59.8,40.2,57.1,46.9,52,52z"/>
</svg>
