<?xml version="1.0" encoding="utf-8"?>
<!-- Generator: Adobe Illustrator 21.0.0, SVG Export Plug-In . SVG Version: 6.00 Build 0)  -->
<svg version="1.1"
	 id="Слой_1" image-rendering="optimizeQuality" shape-rendering="geometricPrecision" text-rendering="geometricPrecision"
	 xmlns="http://www.w3.org/2000/svg" xmlns:xlink="http://www.w3.org/1999/xlink" x="0px" y="0px" viewBox="0 0 256.7 32.2"
	 style="enable-background:new 0 0 256.7 32.2;" xml:space="preserve">
<style type="text/css">
	.st0{fill:#4598C5;}
</style>
<g>
	<path class="st0" d="M96.5,18.3L96.5,18.3c0,1.3-0.3,2.2-0.9,2.8S94,22,92.8,22s-2.2-0.4-2.9-1.1c-0.7-0.7-1.1-1.7-1.1-3.1v-3.4
		c0-1.3,0.3-2.3,1-3.1c0.7-0.7,1.6-1.1,2.8-1.1c1.2,0,2.2,0.3,2.9,0.9c0.7,0.6,1,1.5,1,2.7l0,0h-2.1c0-0.7-0.1-1.2-0.4-1.5
		s-0.7-0.4-1.3-0.4c-0.5,0-1,0.2-1.2,0.6c-0.3,0.4-0.4,1-0.4,1.8v3.4c0,0.8,0.1,1.4,0.4,1.8s0.7,0.6,1.3,0.6c0.5,0,0.9-0.1,1.2-0.4
		c0.2-0.3,0.4-0.8,0.4-1.5h2.1V18.3z"/>
	<path class="st0" d="M97.5,17.5c0-1.3,0.3-2.3,0.9-3.1s1.5-1.2,2.5-1.2c1.1,0,1.9,0.4,2.6,1.2s0.9,1.8,0.9,3.1v0.2
		c0,1.3-0.3,2.3-0.9,3.1c-0.6,0.8-1.5,1.2-2.5,1.2c-1.1,0-2-0.4-2.6-1.2c-0.6-0.8-0.9-1.8-0.9-3.1V17.5z M99.7,17.7
		c0,0.8,0.1,1.4,0.3,1.9s0.5,0.7,1,0.7c0.4,0,0.8-0.2,1-0.7s0.3-1.1,0.3-1.9v-0.2c0-0.8-0.1-1.4-0.3-1.9c-0.2-0.5-0.5-0.7-1-0.7
		s-0.8,0.2-1,0.7c-0.2,0.5-0.3,1.1-0.3,1.9V17.7z"/>
	<path class="st0" d="M106.1,21.8V15h-1v-1.6h1v-0.9c0-0.9,0.2-1.7,0.7-2.2s1.2-0.8,2.1-0.8c0.2,0,0.3,0,0.5,0s0.4,0.1,0.6,0.1
		l-0.2,1.6c-0.1,0-0.2,0-0.3-0.1c-0.1,0-0.2,0-0.3,0c-0.3,0-0.5,0.1-0.7,0.3s-0.2,0.5-0.2,0.9v0.9h1.4V15h-1.4v6.8H106.1z"/>
	<path class="st0" d="M111,21.8V15h-1v-1.6h1v-0.9c0-0.9,0.2-1.7,0.7-2.2s1.2-0.8,2.1-0.8c0.2,0,0.3,0,0.5,0s0.4,0.1,0.6,0.1
		l-0.2,1.6c-0.1,0-0.2,0-0.3-0.1c-0.1,0-0.2,0-0.3,0c-0.3,0-0.5,0.1-0.7,0.3s-0.2,0.5-0.2,0.9v0.9h1.4V15h-1.4v6.8H111z"/>
	<path class="st0" d="M118.5,22c-1.1,0-2-0.4-2.6-1.2c-0.6-0.8-0.9-1.8-0.9-3v-0.3c0-1.3,0.3-2.3,0.9-3.1s1.4-1.2,2.5-1.2
		c1,0,1.7,0.3,2.3,1c0.5,0.7,0.8,1.6,0.8,2.8v1.2h-4.2c0,0.6,0.2,1.1,0.4,1.5c0.2,0.4,0.6,0.6,1.1,0.6c0.4,0,0.8-0.1,1.1-0.2
		c0.3-0.1,0.6-0.3,0.9-0.5l0.6,1.4c-0.3,0.3-0.7,0.5-1.2,0.7C119.7,21.9,119.1,22,118.5,22z M118.4,15c-0.4,0-0.6,0.2-0.8,0.5
		c-0.2,0.3-0.3,0.8-0.3,1.3h2.1v-0.2c0-0.5-0.1-0.9-0.2-1.2C119,15.1,118.7,15,118.4,15z"/>
	<path class="st0" d="M125.8,22c-1.1,0-2-0.4-2.6-1.2c-0.6-0.8-0.9-1.8-0.9-3v-0.3c0-1.3,0.3-2.3,0.9-3.1s1.4-1.2,2.5-1.2
		c1,0,1.7,0.3,2.3,1c0.5,0.7,0.8,1.6,0.8,2.8v1.2h-4.2c0,0.6,0.2,1.1,0.4,1.5c0.2,0.4,0.6,0.6,1.1,0.6c0.4,0,0.8-0.1,1.1-0.2
		c0.3-0.1,0.6-0.3,0.9-0.5l0.6,1.4c-0.3,0.3-0.7,0.5-1.2,0.7C127,21.9,126.4,22,125.8,22z M125.7,15c-0.4,0-0.6,0.2-0.8,0.5
		c-0.2,0.3-0.3,0.8-0.3,1.3h2.1v-0.2c0-0.5-0.1-0.9-0.2-1.2C126.3,15.1,126,15,125.7,15z"/>
	<path class="st0" d="M137.7,17.7L137.7,17.7l1.2-7.2h2.2L139,21.8h-2l-1.7-7l0,0l-1.6,7h-2l-2.2-11.3h2.2l1.2,7.2l0,0l1.6-7.2h1.7
		L137.7,17.7z"/>
	<path class="st0" d="M146,21.8c-0.1-0.2-0.2-0.4-0.2-0.6c-0.1-0.2-0.1-0.4-0.1-0.7c-0.2,0.4-0.4,0.8-0.7,1
		c-0.3,0.3-0.7,0.4-1.1,0.4c-0.8,0-1.4-0.2-1.8-0.7c-0.4-0.4-0.6-1.1-0.6-1.8c0-0.8,0.3-1.5,0.8-1.9c0.5-0.5,1.4-0.7,2.4-0.7h1v-0.7
		c0-0.4-0.1-0.7-0.2-1c-0.2-0.2-0.4-0.3-0.7-0.3s-0.5,0.1-0.6,0.3s-0.2,0.4-0.2,0.8h-2.1l0,0c0-0.7,0.2-1.3,0.8-1.9
		c0.6-0.5,1.3-0.8,2.3-0.8c0.9,0,1.6,0.3,2.2,0.8c0.5,0.5,0.8,1.2,0.8,2.2v3.5c0,0.4,0,0.8,0.1,1.1c0.1,0.4,0.1,0.7,0.3,1.1
		L146,21.8L146,21.8z M144.4,20.4c0.3,0,0.5-0.1,0.8-0.3c0.2-0.2,0.4-0.4,0.5-0.6v-1.3h-1c-0.4,0-0.6,0.1-0.8,0.4s-0.3,0.5-0.3,0.9
		c0,0.3,0.1,0.5,0.2,0.7C144,20.3,144.2,20.4,144.4,20.4z"/>
	<path class="st0" d="M151.5,21.8h-2.2V9.7h2.2V21.8z"/>
	<path class="st0" d="M155.4,21.8h-2.2V9.7h2.2V21.8z"/>
	<path class="st0" d="M160.2,22c-1.1,0-2-0.4-2.6-1.2c-0.6-0.8-0.9-1.8-0.9-3v-0.3c0-1.3,0.3-2.3,0.9-3.1c0.6-0.8,1.4-1.2,2.5-1.2
		c1,0,1.7,0.3,2.3,1c0.5,0.7,0.8,1.6,0.8,2.8v1.2H159c0,0.6,0.2,1.1,0.4,1.5s0.6,0.6,1.1,0.6c0.4,0,0.8-0.1,1.1-0.2s0.6-0.3,0.9-0.5
		l0.6,1.4c-0.3,0.3-0.7,0.5-1.2,0.7C161.3,21.9,160.8,22,160.2,22z M160.1,15c-0.4,0-0.6,0.2-0.8,0.5s-0.3,0.8-0.3,1.3h2.1v-0.2
		c0-0.5-0.1-0.9-0.2-1.2C160.6,15.1,160.4,15,160.1,15z"/>
	<path class="st0" d="M166.8,11.3v2.1h1.1V15h-1.1v4.3c0,0.4,0.1,0.6,0.2,0.8c0.1,0.2,0.2,0.2,0.4,0.2c0.1,0,0.2,0,0.3,0
		s0.2,0,0.2-0.1l0.2,1.6c-0.2,0.1-0.4,0.1-0.6,0.2s-0.4,0.1-0.6,0.1c-0.7,0-1.3-0.2-1.6-0.7s-0.6-1.1-0.6-2.1V15h-1v-1.6h1v-2.1
		C164.7,11.3,166.8,11.3,166.8,11.3z"/>
</g>
</svg>
