<?xml version="1.0" encoding="utf-8"?>
<!-- Generator: Adobe Illustrator 21.0.0, SVG Export Plug-In . SVG Version: 6.00 Build 0)  -->
<svg version="1.1" id="Слой_1" xmlns="http://www.w3.org/2000/svg" xmlns:xlink="http://www.w3.org/1999/xlink" x="0px" y="0px"
	 viewBox="0 0 67 67" style="enable-background:new 0 0 67 67;" xml:space="preserve">
<style type="text/css">
	.st0{fill:#35B629;}
	.st1{fill:#FEF554;}
</style>
<g>
	<path class="st0" d="M0.2,34.2c0-0.4,0-0.7,0-1.1c0-0.3,0-0.5,0-0.8v-0.1c0.1-1.9,0.3-3.7,0.7-5.5c0.6-2.9,1.6-5.6,2.9-8.3
		c1.7-3.4,4-6.4,6.7-9c2.9-2.7,6.2-4.9,9.8-6.5c3.2-1.4,6.5-2.3,10-2.6c1.6-0.2,3.2-0.2,4.7-0.2c1.9,0.1,3.7,0.3,5.5,0.7
		c3.2,0.7,6.2,1.7,9,3.3c4.2,2.3,7.8,5.3,10.8,9.1c2.2,2.9,3.9,6,5.1,9.5c0.7,2.1,1.2,4.2,1.5,6.3c0.2,1.1,0.3,2.2,0.3,3.4
		c0,0.3,0,0.5,0,0.8c0,0.4,0,0.7,0,1.1c0,0.3,0,0.5,0,0.8c0,0.8-0.1,1.5-0.2,2.3c-0.2,2-0.6,4-1.2,5.9c-1.7,5.8-4.8,10.8-9.2,14.9
		c-3.5,3.4-7.6,5.8-12.3,7.4c-2,0.7-4,1.1-6.1,1.4c-1.1,0.2-2.2,0.3-3.4,0.3c-0.3,0-0.5,0-0.8,0c-0.4,0-0.7,0-1.1,0
		c-0.3,0-0.5,0-0.8,0c-1.5-0.1-2.9-0.2-4.3-0.5c-3.3-0.6-6.5-1.6-9.5-3.1c-3.7-1.9-6.9-4.3-9.7-7.4c-3.1-3.5-5.5-7.4-7-11.8
		c-0.7-2-1.1-4-1.4-6.1C0,37.3-0.1,36.2-0.1,35C0.2,34.7,0.2,34.5,0.2,34.2z M64.6,33.7c0-17-13.7-30.7-30.5-30.9
		C16.9,2.6,3.1,16.4,2.9,33.3C2.7,50.5,16.5,64.4,33.4,64.5C50.7,64.7,64.6,50.8,64.6,33.7z"/>
	<path class="st1" d="M0.2,32.3L0.2,32.3c0,0.3,0,0.6,0,0.9C0.2,32.8,0.2,32.5,0.2,32.3z"/>
	<path class="st1" d="M0.2,35C0.2,35,0.2,35.1,0.2,35c0-0.2,0-0.5,0-0.8C0.2,34.5,0.2,34.7,0.2,35z"/>
	<path class="st0" d="M33.8,62.5C18,62.5,5.2,49.9,4.9,34.2C4.6,18.1,17.5,5.1,33.2,4.8c16.1-0.3,29.1,12.6,29.4,28.3
		C62.9,49.4,49.8,62.5,33.8,62.5z M36.4,10.4c0,0.1,0.1,0.1,0.1,0.2c1.2,3,1.9,6.2,2.2,9.4c0.1,2.1,0,4.1-0.3,6.1
		c-0.5,3-1.6,5.8-3.2,8.3c-1.2,2-2.2,4.1-2.9,6.3c-0.9,2.9-1.3,5.8-1.4,8.8c0,1.4,0,2.8,0.2,4.1c0.1,1.1,0.3,2.1,0.5,3.2
		c0,0.1,0.1,0.2,0.2,0.2c0.4,0,0.8,0.1,1.1,0.1c2.3,0.1,4.4-0.2,6.5-1.1c2.7-1.1,5-2.8,6.8-5c2.1-2.4,3.5-5.1,4.5-8.1
		c1.3-4,1.7-8.1,1.3-12.2c-0.2-2.2-0.7-4.4-1.4-6.5c-1.2-3.5-3.1-6.7-5.8-9.3c-1.6-1.5-3.4-2.8-5.4-3.6
		C38.5,10.9,37.5,10.6,36.4,10.4z M28.2,56.1C28.2,56,28.2,56,28.2,56.1c-0.4-2.3-0.5-4.6-0.5-6.9c0-2,0.3-3.9,0.6-5.9
		c0.7-3.8,2.1-7.2,4.1-10.5c1.7-2.7,2.6-5.6,3-8.7c0.2-2,0.1-4-0.2-6c-0.4-2.6-1.2-5.2-2.3-7.6c-0.1-0.3-0.1-0.3-0.4-0.2
		c-1.5,0.1-3,0.5-4.4,1.1c-2.7,1.1-4.9,2.8-6.8,5c-2.1,2.4-3.5,5.1-4.5,8.1c-1.1,3.4-1.6,6.9-1.4,10.5c0.1,2,0.4,4,0.9,6
		c0.8,3,2,5.8,3.8,8.4c1.7,2.4,3.7,4.4,6.3,5.8C26.9,55.5,27.5,55.8,28.2,56.1z"/>
	<path class="st1" d="M36.4,10.4c1.1,0.2,2.1,0.5,3.1,0.9c2,0.9,3.8,2.1,5.4,3.6c2.7,2.6,4.5,5.8,5.8,9.3c0.7,2.1,1.2,4.2,1.4,6.5
		c0.4,4.2,0,8.2-1.3,12.2c-1,3-2.5,5.7-4.5,8.1c-1.9,2.2-4.1,3.9-6.8,5c-2.1,0.8-4.3,1.2-6.5,1.1c-0.4,0-0.8-0.1-1.1-0.1
		c-0.1,0-0.2-0.1-0.2-0.2c-0.2-1.1-0.4-2.1-0.5-3.2C31,52.2,31,50.8,31,49.5c0-3,0.5-5.9,1.4-8.8c0.7-2.2,1.7-4.3,2.9-6.3
		c1.6-2.6,2.7-5.3,3.2-8.3c0.4-2,0.5-4.1,0.3-6.1c-0.2-3.3-1-6.4-2.2-9.4C36.5,10.5,36.4,10.5,36.4,10.4z"/>
	<path class="st1" d="M28.2,56.1c-0.6-0.3-1.2-0.5-1.8-0.9c-2.6-1.4-4.6-3.4-6.3-5.8c-1.8-2.5-3-5.4-3.8-8.4c-0.5-2-0.8-4-0.9-6
		c-0.2-3.6,0.3-7.1,1.4-10.5c1-3,2.5-5.7,4.5-8.1c1.9-2.2,4.1-3.9,6.8-5c1.4-0.6,2.9-0.9,4.4-1.1c0.3,0,0.3,0,0.4,0.2
		c1.1,2.4,1.9,5,2.3,7.6c0.3,2,0.4,4,0.2,6c-0.3,3.1-1.3,6-3,8.7c-2,3.2-3.4,6.7-4.1,10.5c-0.4,1.9-0.6,3.9-0.6,5.9
		C27.6,51.5,27.8,53.7,28.2,56.1C28.2,56,28.2,56,28.2,56.1z"/>
</g>
</svg>
