<?xml version="1.0" encoding="utf-8"?>
<!-- Generator: Adobe Illustrator 21.0.0, SVG Export Plug-In . SVG Version: 6.00 Build 0)  -->
<svg version="1.1"
	 id="Слой_1" image-rendering="optimizeQuality" text-rendering="geometricPrecision" shape-rendering="geometricPrecision"
	 xmlns="http://www.w3.org/2000/svg" xmlns:xlink="http://www.w3.org/1999/xlink" x="0px" y="0px" viewBox="0 0 65.9 76.1"
	 style="enable-background:new 0 0 65.9 76.1;" xml:space="preserve">
<style type="text/css">
	.st0{fill:#ED443E;}
	.st1{fill:#C2232F;}
</style>
<g>
	<path class="st0" d="M33.6,76.1c-0.8,0.4-1.2-0.4-1.6-0.4c-7-3.7-13.5-7.8-20.5-11.9c-3.7-2-7-4.1-10.6-6.1C0.4,57.3,0,56.9,0,56.5
		c0-12.3,0-24.6,0-36.8c0-0.8,0.4-0.8,0.8-1.2c7.8-4.5,15.6-9,23.3-13.5c2.5-1.6,4.9-2.9,7.8-4.5c0.4,0,0.8-0.4,0.8-0.4
		c0.4,0.4,0,0.8,0,1.2c0,5.7,0,11,0,16.8c0,0.8,0.4,1.2,1.2,1.2c10.2,0,20.1,0,30.3,0c0.4,0,0.8,0,1.2,0c0,0.4-0.2,0.4-0.8,0.8
		c-3.7,2.1-6.5,3.7-9.8,5.7c-7,4.1-13.9,7.8-20.5,11.9c-0.4,0.4-0.8,0.8-0.8,1.2c0,11.9,0,24.1,0,36C33.1,75.3,33.1,75.7,33.6,76.1z
		"/>
	<path class="st1" d="M33.6,76.1c-0.4-0.4,0-0.8,0-1.2c0-11.9,0-24.1,0-36c0-0.8,0.4-1.2,0.8-1.2c7.7-5,13.2-7.8,20.3-12.1
		c3.3-2,6.3-3.8,10-5.5c0.4-0.4,0,0,0.8-0.8c0.1,0.3,0.1,0.4,0,0.8c-1.6,2.9-3.3,5.7-4.9,8.6c-3.7,6.1-7,12.3-10.6,18.4
		c-0.4,0.8,0,0.8,0.4,1.2c4.9,2.9,9.8,5.7,14.7,8.6c0.4,0,0.4,0.4,0.8,0.8c-1.6,0.8-3.3,2-4.9,2.9C52,65.5,43,70.8,33.6,76.1
		L33.6,76.1z"/>
</g>
</svg>
