<?xml version="1.0" encoding="utf-8"?>
<!-- Roman Inozemtsev: https://github.com/mir-one/  -->
<svg version="1.1"
	 id="Слой_1" image-rendering="optimizeQuality" text-rendering="geometricPrecision" shape-rendering="geometricPrecision"
	 xmlns="http://www.w3.org/2000/svg" xmlns:xlink="http://www.w3.org/1999/xlink" x="0px" y="0px" viewBox="0 0 256.7 32.2"
	 style="enable-background:new 0 0 256.7 32.2;" xml:space="preserve">
<style type="text/css">
	.st0{fill:#ED443E;}
	.st1{fill:#C2232F;}
	.st2{fill:#25A9E0;}
</style>
<g>
	<path class="st0" d="M71.3,25.2c-0.2,0.1-0.3-0.1-0.4-0.1c-1.7-0.9-3.3-1.9-5-2.9c-0.9-0.5-1.7-1-2.6-1.5c-0.1-0.1-0.2-0.2-0.2-0.3
		c0-3,0-6,0-9c0-0.2,0.1-0.2,0.2-0.3c1.9-1.1,3.8-2.2,5.7-3.3c0.6-0.4,1.2-0.7,1.9-1.1c0.1,0,0.2-0.1,0.2-0.1c0.1,0.1,0,0.2,0,0.3
		c0,1.4,0,2.7,0,4.1c0,0.2,0.1,0.3,0.3,0.3c2.5,0,4.9,0,7.4,0c0.1,0,0.2,0,0.3,0c0,0.1-0.2,0.1-0.2,0.2c-0.8,0.5-1.6,0.9-2.4,1.4
		c-1.7,1-3.4,1.9-5,2.9c-0.1,0.1-0.2,0.2-0.2,0.3c0,2.9,0,5.9,0,8.8C71.2,25,71.2,25.1,71.3,25.2z"/>
	<path class="st1" d="M71.3,25.2c-0.1-0.1,0-0.2,0-0.3c0-2.9,0-5.9,0-8.8c0-0.2,0.1-0.3,0.2-0.3c1.7-1,3.4-1.9,5-2.9
		c0.8-0.5,1.6-0.9,2.4-1.4c0.1-0.1,0.2,0,0.2-0.2c0.1,0.1,0.1,0.1,0,0.2c-0.4,0.7-0.8,1.4-1.2,2.1c-0.9,1.5-1.7,3-2.6,4.5
		c-0.1,0.2,0,0.2,0.1,0.3c1.2,0.7,2.4,1.4,3.6,2.1c0.1,0,0.1,0.1,0.2,0.2c-0.4,0.2-0.8,0.5-1.2,0.7C75.8,22.6,73.6,23.9,71.3,25.2
		C71.3,25.2,71.3,25.2,71.3,25.2z"/>
</g>
<g>
	<path class="st2" d="M87,13.7l1.4,4.3l1.4-4.3h2v6.2h-1.5v-1.4l0.1-2.9l-1.5,4.4h-1l-1.5-4.4l0.1,3v1.4h-1.5v-6.2H87z"/>
	<path class="st2" d="M96.5,17.2h-2.3v1.5h2.8v1.1h-4.2v-6.2h4.3v1.1h-2.8v1.3h2.3V17.2z"/>
	<path class="st2" d="M102.5,17.7c0,0.4-0.1,0.8-0.3,1.1s-0.5,0.6-0.9,0.8c-0.4,0.2-0.8,0.3-1.3,0.3c-0.8,0-1.4-0.3-1.9-0.8
		c-0.5-0.5-0.7-1.3-0.7-2.2v-0.3c0-0.6,0.1-1.1,0.3-1.6c0.2-0.5,0.5-0.8,0.9-1.1c0.4-0.2,0.9-0.4,1.4-0.4c0.7,0,1.3,0.2,1.8,0.6
		c0.5,0.4,0.7,0.9,0.8,1.6H101c0-0.4-0.1-0.6-0.3-0.8c-0.2-0.2-0.4-0.2-0.8-0.2c-0.4,0-0.6,0.1-0.8,0.4c-0.2,0.3-0.3,0.7-0.3,1.3
		v0.4c0,0.7,0.1,1.1,0.2,1.4c0.2,0.3,0.4,0.4,0.9,0.4c0.3,0,0.6-0.1,0.8-0.2c0.2-0.2,0.3-0.4,0.3-0.8H102.5z"/>
	<path class="st2" d="M107.9,14.8h-1.9v5h-1.5v-5h-1.8v-1.1h5.2V14.8z"/>
	<path class="st2" d="M113.7,19.8h-1.5v-2.6h-2.2v2.6h-1.5v-6.2h1.5v2.4h2.2v-2.4h1.5V19.8z"/>
	<path class="st2" d="M116.1,15.8h0.8c0.5,0,0.9,0.1,1.3,0.2c0.4,0.2,0.7,0.4,0.9,0.7c0.2,0.3,0.3,0.7,0.3,1c0,0.6-0.2,1.1-0.7,1.5
		c-0.5,0.4-1.1,0.6-1.8,0.6h-2.2v-6.2h1.5V15.8z M116.1,16.9v1.8h0.8c0.3,0,0.5-0.1,0.7-0.3c0.2-0.2,0.3-0.4,0.3-0.7
		c0-0.3-0.1-0.5-0.3-0.6c-0.2-0.2-0.4-0.2-0.7-0.2H116.1z M121.3,19.8h-1.5v-6.2h1.5V19.8z"/>
	<path class="st2" d="M125.8,13.7h1.5v6.2h-1.5v-3.9l-2.2,3.9h-1.5v-6.2h1.5v3.9L125.8,13.7z M126.3,12c0,0.4-0.1,0.7-0.4,0.9
		c-0.3,0.2-0.7,0.4-1.1,0.4c-0.5,0-0.9-0.1-1.1-0.4c-0.3-0.2-0.4-0.6-0.4-0.9h1c0,0.2,0.1,0.3,0.2,0.4c0.1,0.1,0.3,0.1,0.4,0.1
		c0.2,0,0.3,0,0.4-0.1c0.1-0.1,0.2-0.2,0.2-0.4H126.3z"/>
	<path class="st2" d="M132.6,17.4h-0.7v2.4h-1.5v-6.2h1.5V16h0.6l1.2-2.4h1.8l-1.7,2.8l1.9,3.3h-1.8L132.6,17.4z"/>
	<path class="st2" d="M141.1,16.9c0,0.6-0.1,1.1-0.3,1.6c-0.2,0.5-0.5,0.8-1,1.1c-0.4,0.2-0.9,0.4-1.4,0.4c-0.5,0-1-0.1-1.4-0.4
		c-0.4-0.2-0.7-0.6-1-1c-0.2-0.4-0.3-1-0.4-1.5v-0.3c0-0.6,0.1-1.1,0.3-1.6c0.2-0.5,0.5-0.8,1-1.1c0.4-0.3,0.9-0.4,1.4-0.4
		c0.5,0,1,0.1,1.4,0.4c0.4,0.2,0.7,0.6,1,1.1c0.2,0.5,0.3,1,0.3,1.6V16.9z M139.6,16.6c0-0.6-0.1-1.1-0.3-1.4
		c-0.2-0.3-0.5-0.5-0.9-0.5c-0.7,0-1.1,0.6-1.2,1.7l0,0.5c0,0.6,0.1,1.1,0.3,1.4c0.2,0.3,0.5,0.5,0.9,0.5c0.4,0,0.7-0.2,0.9-0.5
		c0.2-0.3,0.3-0.8,0.3-1.4V16.6z"/>
	<path class="st2" d="M143.8,13.7l1.4,4.3l1.4-4.3h2v6.2H147v-1.4l0.1-2.9l-1.5,4.4h-1l-1.5-4.4l0.1,3v1.4h-1.5v-6.2H143.8z"/>
	<path class="st2" d="M154.4,17.7c0,0.4-0.1,0.8-0.3,1.1c-0.2,0.3-0.5,0.6-0.9,0.8c-0.4,0.2-0.8,0.3-1.3,0.3c-0.8,0-1.4-0.3-1.9-0.8
		c-0.5-0.5-0.7-1.3-0.7-2.2v-0.3c0-0.6,0.1-1.1,0.3-1.6c0.2-0.5,0.5-0.8,0.9-1.1c0.4-0.2,0.9-0.4,1.4-0.4c0.7,0,1.3,0.2,1.8,0.6
		c0.5,0.4,0.7,0.9,0.8,1.6H153c0-0.4-0.1-0.6-0.3-0.8c-0.2-0.2-0.4-0.2-0.8-0.2c-0.4,0-0.6,0.1-0.8,0.4c-0.2,0.3-0.3,0.7-0.3,1.3
		v0.4c0,0.7,0.1,1.1,0.2,1.4c0.2,0.3,0.4,0.4,0.9,0.4c0.3,0,0.6-0.1,0.8-0.2c0.2-0.2,0.3-0.4,0.3-0.8H154.4z"/>
	<path class="st2" d="M160.4,16.9c0,0.6-0.1,1.1-0.3,1.6c-0.2,0.5-0.5,0.8-1,1.1c-0.4,0.2-0.9,0.4-1.4,0.4s-1-0.1-1.4-0.4
		c-0.4-0.2-0.7-0.6-1-1c-0.2-0.4-0.3-1-0.4-1.5v-0.3c0-0.6,0.1-1.1,0.3-1.6c0.2-0.5,0.5-0.8,1-1.1c0.4-0.3,0.9-0.4,1.4-0.4
		c0.5,0,1,0.1,1.4,0.4c0.4,0.2,0.7,0.6,1,1.1c0.2,0.5,0.3,1,0.3,1.6V16.9z M158.9,16.6c0-0.6-0.1-1.1-0.3-1.4
		c-0.2-0.3-0.5-0.5-0.9-0.5c-0.7,0-1.1,0.6-1.2,1.7l0,0.5c0,0.6,0.1,1.1,0.3,1.4c0.2,0.3,0.5,0.5,0.9,0.5c0.4,0,0.7-0.2,0.9-0.5
		c0.2-0.3,0.3-0.8,0.3-1.4V16.6z"/>
	<path class="st2" d="M163.1,13.7l1.4,4.3l1.4-4.3h2v6.2h-1.5v-1.4l0.1-2.9l-1.5,4.4h-1l-1.5-4.4l0.1,3v1.4h-1.5v-6.2H163.1z"/>
	<path class="st2" d="M174,16.9c0,0.6-0.1,1.1-0.3,1.6c-0.2,0.5-0.5,0.8-1,1.1c-0.4,0.2-0.9,0.4-1.4,0.4s-1-0.1-1.4-0.4
		c-0.4-0.2-0.7-0.6-1-1c-0.2-0.4-0.3-1-0.4-1.5v-0.3c0-0.6,0.1-1.1,0.3-1.6c0.2-0.5,0.5-0.8,1-1.1c0.4-0.3,0.9-0.4,1.4-0.4
		c0.5,0,1,0.1,1.4,0.4c0.4,0.2,0.7,0.6,1,1.1c0.2,0.5,0.3,1,0.3,1.6V16.9z M172.4,16.6c0-0.6-0.1-1.1-0.3-1.4
		c-0.2-0.3-0.5-0.5-0.9-0.5c-0.7,0-1.1,0.6-1.2,1.7l0,0.5c0,0.6,0.1,1.1,0.3,1.4c0.2,0.3,0.5,0.5,0.9,0.5c0.4,0,0.7-0.2,0.9-0.5
		c0.2-0.3,0.3-0.8,0.3-1.4V16.6z"/>
	<path class="st2" d="M179.8,13.7v6.2h-1.5v-5h-1.4l-0.1,2.1c0,0.7-0.1,1.3-0.3,1.7c-0.2,0.4-0.4,0.7-0.7,0.9
		c-0.3,0.2-0.7,0.3-1.2,0.3h-0.4v-1.1l0.2,0c0.3,0,0.5-0.2,0.6-0.5c0.1-0.3,0.2-0.9,0.3-1.6l0.1-2.8H179.8z"/>
	<path class="st2" d="M182.2,15.8h0.8c0.5,0,0.9,0.1,1.3,0.2c0.4,0.2,0.7,0.4,0.9,0.7c0.2,0.3,0.3,0.7,0.3,1c0,0.6-0.2,1.1-0.7,1.5
		c-0.5,0.4-1.1,0.6-1.8,0.6h-2.2v-6.2h1.5V15.8z M182.2,16.9v1.8h0.8c0.3,0,0.5-0.1,0.7-0.3s0.3-0.4,0.3-0.7c0-0.3-0.1-0.5-0.3-0.6
		c-0.2-0.2-0.4-0.2-0.7-0.2H182.2z"/>
	<path class="st2" d="M191.1,17.7c0,0.4-0.1,0.8-0.3,1.1c-0.2,0.3-0.5,0.6-0.9,0.8c-0.4,0.2-0.8,0.3-1.3,0.3c-0.8,0-1.4-0.3-1.9-0.8
		c-0.5-0.5-0.7-1.3-0.7-2.2v-0.3c0-0.6,0.1-1.1,0.3-1.6c0.2-0.5,0.5-0.8,0.9-1.1c0.4-0.2,0.9-0.4,1.4-0.4c0.7,0,1.3,0.2,1.8,0.6
		c0.5,0.4,0.7,0.9,0.8,1.6h-1.5c0-0.4-0.1-0.6-0.3-0.8c-0.2-0.2-0.4-0.2-0.8-0.2c-0.4,0-0.6,0.1-0.8,0.4c-0.2,0.3-0.3,0.7-0.3,1.3
		v0.4c0,0.7,0.1,1.1,0.2,1.4c0.2,0.3,0.4,0.4,0.9,0.4c0.3,0,0.6-0.1,0.8-0.2c0.2-0.2,0.3-0.4,0.3-0.8H191.1z"/>
	<path class="st2" d="M194,17.4h-0.7v2.4h-1.5v-6.2h1.5V16h0.6l1.2-2.4h1.8l-1.7,2.8l1.9,3.3h-1.8L194,17.4z"/>
</g>
</svg>
