<?xml version="1.0" encoding="UTF-8" standalone="no"?>
<!-- Roman Inozemtsev: https://github.com/mir-one/  -->

<svg
   xmlns:dc="http://purl.org/dc/elements/1.1/"
   xmlns:cc="http://creativecommons.org/ns#"
   xmlns:rdf="http://www.w3.org/1999/02/22-rdf-syntax-ns#"
   xmlns:svg="http://www.w3.org/2000/svg"
   xmlns="http://www.w3.org/2000/svg"
   xmlns:sodipodi="http://sodipodi.sourceforge.net/DTD/sodipodi-0.dtd"
   xmlns:inkscape="http://www.inkscape.org/namespaces/inkscape"
   version="1.1"
   id="Слой_1"
   image-rendering="optimizeQuality"
   text-rendering="geometricPrecision"
   shape-rendering="geometricPrecision"
   x="0px"
   y="0px"
   viewBox="0 0 256.7 32.2"
   style="enable-background:new 0 0 256.7 32.2;"
   xml:space="preserve"
   sodipodi:docname="modal-header-danger.svg"
   inkscape:version="0.92.2pre0 (973e216, 2017-07-25)"><metadata
     id="metadata53"><rdf:RDF><cc:Work
         rdf:about=""><dc:format>image/svg+xml</dc:format><dc:type
           rdf:resource="http://purl.org/dc/dcmitype/StillImage" /></cc:Work></rdf:RDF></metadata><defs
     id="defs51" /><sodipodi:namedview
     pagecolor="#ffffff"
     bordercolor="#666666"
     borderopacity="1"
     objecttolerance="10"
     gridtolerance="10"
     guidetolerance="10"
     inkscape:pageopacity="0"
     inkscape:pageshadow="2"
     inkscape:window-width="1366"
     inkscape:window-height="696"
     id="namedview49"
     showgrid="false"
     inkscape:zoom="2.0328975"
     inkscape:cx="57.672465"
     inkscape:cy="14.033238"
     inkscape:window-x="0"
     inkscape:window-y="0"
     inkscape:window-maximized="1"
     inkscape:current-layer="Слой_1" /><style
     type="text/css"
     id="style2">
	.st0{fill:#ED443E;}
	.st1{fill:#C2232F;}
	.st2{fill:#25A9E0;}
</style><style
     id="style2-356"
     type="text/css">
	.st0{fill:#ED443E;}
	.st1{fill:#C2232F;}
	.st2{fill:#25A9E0;}
</style><style
     type="text/css"
     id="style2-35">
	.st0{fill:#ED443E;}
	.st1{fill:#C2232F;}
	.st2{fill:#25A9E0;}
</style><style
     id="style2-3"
     type="text/css">
	.st0{fill:#ED443E;}
	.st1{fill:#C2232F;}
	.st2{fill:#25A9E0;}
</style><style
     type="text/css"
     id="style2-6">
	.st0{fill:#ED443E;}
	.st1{fill:#C2232F;}
</style><g
     style="image-rendering:optimizeQuality;shape-rendering:geometricPrecision;text-rendering:geometricPrecision"
     id="g870"
     transform="matrix(0.29153571,0,0,0.29153571,62.25813,5.0071023)"><path
       sodipodi:nodetypes="ccccssccccssscccccccc"
       class="st0"
       d="M 33.243487,76.099755 C 32,75.6 32.364373,75.742507 32,75.6 25,71.9 18.5,67.8 11.5,63.7 7.8,61.7 4.5,59.6 0.9,57.6 0.4,57.2 0,56.8 0,56.4 V 19.6 C 0,18.8 0.4,18.8 0.8,18.4 8.6,13.9 16.4,9.4 24.1,4.9 26.6,3.3 29,2 31.9,0.4 32.3,0.4 32.7,0 32.7,0 c 0.4,0.4 0,0.8 0,1.2 V 18 c 0,0.8 0.4,1.2 1.2,1.2 h 30.3 1.2 c -0.256513,0.899755 -0.2,0.4 -0.8,0.8 -3.7,2.1 -6.5,3.7 -9.8,5.7 -7,4.1 -13.9,7.8 -20.5,11.9 -0.03723,0.883686 -0.57831,1.243379 -0.8,1.2 v 36 c -0.256513,1.299755 -0.257737,0.130215 -0.256513,1.299755 z"
       id="path4-7"
       inkscape:connector-curvature="0"
       style="fill:#ed443e" /><path
       sodipodi:nodetypes="csscccccccccccc"
       class="st1"
       d="m 33.243487,76.099755 v -1.2 -36 c 0,-0.538003 0.11785,-0.575238 0.8,-1.2 7.7,-5 13.2,-7.8 20.3,-12.1 3.3,-2 3.323551,-2.034865 11.056513,-6.399755 v 0 c -0.256513,0.899755 -0.156513,0.499755 -0.256513,0.899755 -1.6,2.9 -3.3,5.7 -4.9,8.6 -3.7,6.1 -7,12.3 -10.6,18.4 -0.4,0.8 0,0.8 0.4,1.2 4.9,2.9 9.8,5.7 14.7,8.6 0.4,0 0.4,0.4 0.8,0.8 -1.6,0.8 -3.3,2 -4.9,2.9 -9,4.9 -18,10.2 -27.4,15.5 z"
       id="path6-5"
       inkscape:connector-curvature="0"
       style="fill:#c2232f" /></g><g
     aria-label="БИЗНЕС-НА-АМУРЕ"
     transform="translate(100.55269,-39.230828)"
     style="font-style:normal;font-variant:normal;font-weight:bold;font-stretch:normal;font-size:13.33333302px;line-height:1.25;font-family:'Roboto Condensed';-inkscape-font-specification:'Roboto Condensed, Bold';letter-spacing:0px;word-spacing:0px;fill:#25a9e0;fill-opacity:1;stroke:none;image-rendering:optimizeQuality;shape-rendering:geometricPrecision;text-rendering:geometricPrecision"
     id="flowRoot872"><path
       d="m -4.3613283,52.33138 h -3.3984374 v 1.809896 h 1.1328125 q 1.438802,0 2.2916666,0.820312 0.8528646,0.813802 0.8528646,2.18099 0,1.360677 -0.8333334,2.207031 -0.8333333,0.839844 -2.2070312,0.865886 h -3.157552 v -9.479167 h 5.3190103 z m -3.3984374,3.398438 v 2.897135 h 1.1588542 q 0.5598958,0 0.8789062,-0.416667 0.3255208,-0.423177 0.3255208,-1.080729 0,-0.618489 -0.3190104,-1.002604 -0.3125,-0.390625 -0.8723958,-0.397135 z"
       id="path850"
       inkscape:connector-curvature="0" /><path
       d="m 2.2597653,50.736328 h 1.9140625 v 9.479167 H 2.2597653 v -6.276042 l -2.79296865,6.276042 H -2.4537762 v -9.479167 h 1.92057285 v 6.282552 z"
       id="path852"
       inkscape:connector-curvature="0" /><path
       d="m 9.4863267,53.347005 q 0,-0.520833 -0.2929687,-0.833333 -0.2864583,-0.3125 -0.78125,-0.3125 -0.4361979,0 -0.7161458,0.305989 -0.2734375,0.29948 -0.2734375,0.800782 H 5.5084623 q 0,-0.787761 0.3776041,-1.39974 0.3841146,-0.61849 1.0546875,-0.957031 0.6705729,-0.338542 1.4713541,-0.338542 1.4127604,0 2.200521,0.709636 0.794271,0.703125 0.794271,1.985677 0,0.651041 -0.332032,1.191406 -0.32552,0.533854 -0.898437,0.846354 0.651042,0.273437 1.002604,0.833333 0.351563,0.553386 0.351563,1.380209 0,1.282552 -0.852865,2.03125 -0.8528646,0.748697 -2.265625,0.748697 -0.859375,0 -1.5559895,-0.332031 Q 6.1660143,59.67513 5.7753893,59.05664 5.3912748,58.438151 5.3912748,57.585286 h 1.9205728 q 0,0.488281 0.3059896,0.833334 0.3059896,0.345052 0.7942708,0.345052 0.546875,0 0.8723958,-0.345052 0.3255209,-0.345053 0.3255209,-0.891928 0,-0.735677 -0.279948,-1.054687 -0.2799479,-0.31901 -0.813802,-0.31901 H 7.5462226 v -1.542969 h 0.9765625 q 0.9635416,-0.0065 0.9635416,-1.263021 z"
       id="path854"
       inkscape:connector-curvature="0" /><path
       d="M 19.551432,60.215495 H 17.64388 v -4.05599 h -2.825521 v 4.05599 h -1.914062 v -9.479167 h 1.914062 v 3.834635 h 2.825521 v -3.834635 h 1.907552 z"
       id="path856"
       inkscape:connector-curvature="0" /><path
       d="m 25.977212,56.113932 h -2.981771 v 2.513021 h 3.528646 v 1.588542 h -5.442708 v -9.479167 h 5.429687 v 1.595052 h -3.515625 v 2.239583 h 2.981771 z"
       id="path858"
       inkscape:connector-curvature="0" /><path
       d="m 34.043617,57.057943 q -0.07161,1.621093 -0.911458,2.454427 -0.839844,0.833333 -2.369792,0.833333 -1.608073,0 -2.467448,-1.054688 -0.852864,-1.061198 -0.852864,-3.020833 V 54.67513 q 0,-1.953125 0.885416,-3.007812 0.885417,-1.061198 2.460938,-1.061198 1.549479,0 2.35026,0.865885 0.807292,0.865886 0.917969,2.486979 h -1.920573 q -0.02604,-1.002604 -0.3125,-1.380208 -0.279948,-0.384115 -1.035156,-0.384115 -0.768229,0 -1.08724,0.540365 -0.31901,0.533854 -0.338541,1.764323 v 1.790364 q 0,1.412761 0.3125,1.940104 0.31901,0.527344 1.087239,0.527344 0.755208,0 1.041667,-0.364583 0.286458,-0.371094 0.325521,-1.334635 z"
       id="path860"
       inkscape:connector-curvature="0" /><path
       d="M 38.44466,56.921224 H 35.261066 V 55.384765 H 38.44466 Z"
       id="path862"
       inkscape:connector-curvature="0" /><path
       d="m 46.712889,60.215495 h -1.907552 v -4.05599 h -2.825521 v 4.05599 h -1.914062 v -9.479167 h 1.914062 v 3.834635 h 2.825521 v -3.834635 h 1.907552 z"
       id="path864"
       inkscape:connector-curvature="0" /><path
       d="m 52.897783,58.27539 h -2.610678 l -0.507812,1.940105 h -2.02474 l 2.96224,-9.479167 h 1.751302 l 2.981771,9.479167 h -2.044271 z m -2.194011,-1.595052 h 1.770833 l -0.885416,-3.378906 z"
       id="path866"
       inkscape:connector-curvature="0" /><path
       d="m 59.564453,56.921224 h -3.183594 v -1.536459 h 3.183594 z"
       id="path868"
       inkscape:connector-curvature="0" /><path
       d="m 65.710286,58.27539 h -2.610677 l -0.507812,1.940105 h -2.02474 l 2.96224,-9.479167 h 1.751302 l 2.981771,9.479167 h -2.044271 z m -2.19401,-1.595052 h 1.770833 l -0.885416,-3.378906 z"
       id="path870"
       inkscape:connector-curvature="0" /><path
       d="m 71.654297,50.736328 1.790364,6.855469 1.783854,-6.855469 h 2.5 v 9.479167 H 75.807943 V 57.65039 l 0.175781,-3.951822 -1.894531,6.516927 h -1.302084 l -1.894531,-6.516927 0.175781,3.951822 v 2.565105 h -1.914062 v -9.479167 z"
       id="path872"
       inkscape:connector-curvature="0" /><path
       d="m 82.253253,54.948568 1.276041,-4.21224 h 2.057292 l -2.597656,7.617187 q -0.442709,1.132813 -0.957032,1.55599 -0.507812,0.423177 -1.223958,0.442708 h -0.208333 l -0.455729,-0.02604 -0.03255,-1.588542 q 0.0651,0.02604 0.423177,0.02604 0.364583,0 0.546875,-0.162761 0.188802,-0.16276 0.32552,-0.729166 l 0.09115,-0.345053 -2.708333,-6.790364 h 2.050781 z"
       id="path874"
       inkscape:connector-curvature="0" /><path
       d="m 88.516273,56.882161 v 3.333334 h -1.914062 v -9.479167 h 3.229167 q 1.40625,0 2.239583,0.872396 0.839844,0.872396 0.839844,2.265625 0,1.393229 -0.826823,2.200521 -0.826823,0.807291 -2.291667,0.807291 z m 0,-1.595052 h 1.315105 q 0.546875,0 0.846354,-0.358073 0.299479,-0.358073 0.299479,-1.041666 0,-0.709636 -0.30599,-1.126302 -0.305989,-0.423177 -0.820312,-0.429688 h -1.334636 z"
       id="path876"
       inkscape:connector-curvature="0" /><path
       d="m 99.076169,56.113932 h -2.981771 v 2.513021 h 3.528646 v 1.588542 h -5.442708 v -9.479167 h 5.429687 v 1.595052 h -3.515625 v 2.239583 h 2.981771 z"
       id="path878"
       inkscape:connector-curvature="0" /></g></svg>