<?xml version="1.0" encoding="UTF-8" standalone="no"?>
<!-- Roman Inozemtsev: https://github.com/mir-one/  -->

<svg
   xmlns:dc="http://purl.org/dc/elements/1.1/"
   xmlns:cc="http://creativecommons.org/ns#"
   xmlns:rdf="http://www.w3.org/1999/02/22-rdf-syntax-ns#"
   xmlns:svg="http://www.w3.org/2000/svg"
   xmlns="http://www.w3.org/2000/svg"
   xmlns:sodipodi="http://sodipodi.sourceforge.net/DTD/sodipodi-0.dtd"
   xmlns:inkscape="http://www.inkscape.org/namespaces/inkscape"
   version="1.1"
   id="Слой_1"
   shape-rendering="geometricPrecision"
   text-rendering="geometricPrecision"
   image-rendering="optimizeQuality"
   x="0px"
   y="0px"
   viewBox="0 0 24 24"
   style="enable-background:new 0 0 24 24;"
   xml:space="preserve"
   sodipodi:docname="tabs-iconset-community.svg"
   inkscape:version="0.92.2pre0 (973e216, 2017-07-25)"><metadata
     id="metadata19"><rdf:RDF><cc:Work
         rdf:about=""><dc:format>image/svg+xml</dc:format><dc:type
           rdf:resource="http://purl.org/dc/dcmitype/StillImage" /></cc:Work></rdf:RDF></metadata><defs
     id="defs17" /><sodipodi:namedview
     pagecolor="#ffffff"
     bordercolor="#666666"
     borderopacity="1"
     objecttolerance="10"
     gridtolerance="10"
     guidetolerance="10"
     inkscape:pageopacity="0"
     inkscape:pageshadow="2"
     inkscape:window-width="1366"
     inkscape:window-height="696"
     id="namedview15"
     showgrid="false"
     inkscape:zoom="9.8333333"
     inkscape:cx="3.7132835"
     inkscape:cy="12.724275"
     inkscape:window-x="0"
     inkscape:window-y="0"
     inkscape:window-maximized="1"
     inkscape:current-layer="Слой_1" /><style
     type="text/css"
     id="style2">
	.st0{fill:#3F58A7;}
	.st1{fill:#FFFFFF;}
</style><circle
     class="st0"
     cx="12"
     cy="12"
     r="12"
     id="circle4"
     style="fill:#00aeef;fill-opacity:1" /><circle
     class="st1"
     cx="12"
     cy="12"
     r="11.1"
     id="circle6" /><ellipse
     transform="matrix(0.7071 -0.7071 0.7071 0.7071 -4.9704 11.9931)"
     class="st1"
     cx="12"
     cy="12"
     rx="10.4"
     ry="10.4"
     id="ellipse8" /><style
     id="style21"
     type="text/css">
	.st0{fill:#00AEEF;}
	.st1{fill:#FFFFFF;}
</style><style
     id="style60"
     type="text/css">
	.st0{fill:url(#SVGID_1_);}
	.st1{fill:#FFFFFF;}
</style><path
     style="fill:#00aeef;fill-opacity:1;stroke-width:0.31159088"
     inkscape:connector-curvature="0"
     class="st1"
     d="M 15.351464,7.332057 C 14.572488,6.4596025 13.575397,5.9610571 12.391351,5.8364208 10.303693,5.6183072 8.3095111,6.8335116 7.5616929,8.7965341 7.2812604,9.4820345 7.1877833,10.167534 7.2501021,10.915352 c 0.062321,0.747819 0.3427491,1.464477 0.6543411,2.149978 0.5608627,1.184044 1.3086809,2.243453 2.1811358,3.240544 0.560864,0.654341 1.184046,1.277523 1.776068,1.900705 0.03116,0.03115 0.03116,0.03115 0.03116,0.06232 0.03115,0 0.03115,0 0.06232,0 0.34275,-0.342749 0.6855,-0.6855 0.997091,-1.02825 0.99709,-1.059409 1.900704,-2.212295 2.617363,-3.489818 0.405068,-0.716658 0.747818,-1.464476 0.934772,-2.274612 0.311591,-1.5891145 -0.09348,-2.9912734 -1.152886,-4.1441596 z m -3.427498,6.076022 c -1.620273,0 -2.9601139,-1.308681 -2.9601139,-2.960112 0,-1.6514329 1.3086809,-2.9601146 2.9601139,-2.9601146 1.651431,0 2.960113,1.3086817 2.960113,2.9601146 0,1.651431 -1.339842,2.960112 -2.960113,2.960112 z"
     id="path73" /></svg>