<?xml version="1.0" encoding="UTF-8" standalone="no"?>
<!-- Generator: Adobe Illustrator 21.0.0, SVG Export Plug-In . SVG Version: 6.00 Build 0)  -->

<svg
   xmlns:dc="http://purl.org/dc/elements/1.1/"
   xmlns:cc="http://creativecommons.org/ns#"
   xmlns:rdf="http://www.w3.org/1999/02/22-rdf-syntax-ns#"
   xmlns:svg="http://www.w3.org/2000/svg"
   xmlns="http://www.w3.org/2000/svg"
   xmlns:sodipodi="http://sodipodi.sourceforge.net/DTD/sodipodi-0.dtd"
   xmlns:inkscape="http://www.inkscape.org/namespaces/inkscape"
   version="1.1"
   id="Слой_1"
   x="0px"
   y="0px"
   viewBox="0 0 23.999998 24"
   style="image-rendering:optimizeQuality;shape-rendering:geometricPrecision;text-rendering:geometricPrecision"
   xml:space="preserve"
   sodipodi:docname="tabs-iconset-portfolio.svg"
   width="23.999998"
   height="24"
   inkscape:version="0.92.2pre0 (973e216, 2017-07-25)"><metadata
     id="metadata25"><rdf:RDF><cc:Work
         rdf:about=""><dc:format>image/svg+xml</dc:format><dc:type
           rdf:resource="http://purl.org/dc/dcmitype/StillImage" /></cc:Work></rdf:RDF></metadata><defs
     id="defs23" /><sodipodi:namedview
     pagecolor="#ffffff"
     bordercolor="#666666"
     borderopacity="1"
     objecttolerance="10"
     gridtolerance="10"
     guidetolerance="10"
     inkscape:pageopacity="0"
     inkscape:pageshadow="2"
     inkscape:window-width="1366"
     inkscape:window-height="696"
     id="namedview21"
     showgrid="false"
     inkscape:zoom="9.8333333"
     inkscape:cx="2.5423723"
     inkscape:cy="11.79661"
     inkscape:window-x="0"
     inkscape:window-y="0"
     inkscape:window-maximized="1"
     inkscape:current-layer="Слой_1" /><style
     type="text/css"
     id="style2">
	.st0{fill:#00AEEF;}
	.st1{fill:#FFFFFF;}
</style><path
     style="fill:#00aeef;fill-opacity:1;image-rendering:optimizeQuality;shape-rendering:geometricPrecision;text-rendering:geometricPrecision"
     inkscape:connector-curvature="0"
     class="st0"
     d="M 21.999998,24 H 2 C 0.89999996,24 0,23.1 0,22 V 1.9999999 C 0,0.90000007 0.89999996,0 2,0 h 19.999998 c 1.1,0 2,0.90000007 2,1.9999999 V 22 c 0,1.1 -0.9,2 -2,2 z"
     id="path820" /><path
     style="fill:#ffffff;image-rendering:optimizeQuality;shape-rendering:geometricPrecision;text-rendering:geometricPrecision"
     inkscape:connector-curvature="0"
     class="st1"
     d="M 21.599998,23 H 2.4 C 1.6,23 0.99999998,22.4 0.99999998,21.6 V 2.3999999 C 0.99999998,1.5999999 1.6,0.99999999 2.4,0.99999999 h 19.299998 c 0.7,0 1.3,0.59999991 1.3,1.39999991 V 21.7 c 0,0.7 -0.6,1.3 -1.4,1.3 z"
     id="path822" /><g
     id="g18"
     transform="translate(-0.0500008,-0.65000009)"><path
       class="st0"
       d="m 16.6,12 c 0,1.4 0,2.9 0,4.3 0,0.7 -0.3,1 -1,1 -2.4,0 -4.8,0 -7.2,0 -0.8,0 -1,-0.3 -1,-1 0,-2.9 0,-5.7 0,-8.6 0,-0.8 0.2,-1 1,-1 2.4,0 4.9,0 7.3,0 0.8,0 1,0.2 1,1 -0.1,1.4 -0.1,2.9 -0.1,4.3 z m -4,-3.6 c -1.3,0 -2.3,1 -2.3,2.2 0,1.2 1,2.2 2.2,2.3 1.3,0 2.3,-1 2.3,-2.3 C 14.9,9.4 13.9,8.5 12.6,8.4 Z M 8.7,12 c 0,-1.3 0,-2.7 0,-4 C 8.7,7.8 8.6,7.7 8.5,7.5 8.4,7.7 8.2,7.8 8.2,8 c 0,2.7 0,5.3 0,8 0,0.2 0.2,0.3 0.3,0.5 0.1,-0.2 0.2,-0.3 0.2,-0.5 0,-1.3 0,-2.6 0,-4 z"
       id="path10"
       inkscape:connector-curvature="0"
       style="fill:#00aeef" /><path
       class="st0"
       d="m 8.8,17.8 c 0.5,0 1,0 1.5,0 0,0.5 -0.3,0.8 -0.7,0.8 -0.5,0 -0.8,-0.3 -0.8,-0.8 z"
       id="path12"
       inkscape:connector-curvature="0"
       style="fill:#00aeef" /><path
       class="st0"
       d="m 13.7,17.8 c 0.5,0 1,0 1.5,0 0,0.5 -0.3,0.7 -0.7,0.8 -0.5,0 -0.7,-0.3 -0.8,-0.8 z"
       id="path14"
       inkscape:connector-curvature="0"
       style="fill:#00aeef" /><path
       class="st0"
       d="m 10.8,10.7 c 0,-1 0.8,-1.8 1.8,-1.8 1,0 1.8,0.8 1.8,1.8 0,1 -0.8,1.8 -1.8,1.8 -1,0 -1.8,-0.8 -1.8,-1.8 z m 2.5,-1 c -0.6,-0.4 -1.2,-0.3 -1.6,0.2 -0.4,0.5 -0.3,1.2 0.1,1.6 0.4,0.4 1.1,0.5 1.6,0.1 0.5,-0.4 0.6,-0.9 0.2,-1.5 -0.2,0.1 -0.3,0.3 -0.5,0.4 -0.1,0.1 -0.2,0 -0.4,0 0,-0.1 0,-0.3 0,-0.4 C 13,10 13.1,9.9 13.3,9.7 Z"
       id="path16"
       inkscape:connector-curvature="0"
       style="fill:#00aeef" /></g><style
     id="style2-675"
     type="text/css">
	.st0{fill:#00AEEF;}
	.st1{fill:#FFFFFF;}
</style><style
     type="text/css"
     id="style2-67">
	.st0{fill:#00AEEF;}
	.st1{fill:#FFFFFF;}
</style><style
     id="style2-6"
     type="text/css">
	.st0{fill:#3F58A7;}
	.st1{fill:#FFFFFF;}
</style><style
     type="text/css"
     id="style21">
	.st0{fill:#00AEEF;}
	.st1{fill:#FFFFFF;}
</style><style
     type="text/css"
     id="style60">
	.st0{fill:url(#SVGID_1_);}
	.st1{fill:#FFFFFF;}
</style><style
     type="text/css"
     id="style818">
	.st0{fill:#21409A;}
	.st1{fill:#FFFFFF;}
</style></svg>