<?xml version="1.0" encoding="UTF-8" standalone="no"?>
<!-- Generator: Adobe Illustrator 21.0.0, SVG Export Plug-In . SVG Version: 6.00 Build 0)  -->

<svg
   xmlns:dc="http://purl.org/dc/elements/1.1/"
   xmlns:cc="http://creativecommons.org/ns#"
   xmlns:rdf="http://www.w3.org/1999/02/22-rdf-syntax-ns#"
   xmlns:svg="http://www.w3.org/2000/svg"
   xmlns="http://www.w3.org/2000/svg"
   xmlns:sodipodi="http://sodipodi.sourceforge.net/DTD/sodipodi-0.dtd"
   xmlns:inkscape="http://www.inkscape.org/namespaces/inkscape"
   version="1.1"
   id="Слой_1"
   x="0px"
   y="0px"
   viewBox="0 0 23.999998 24"
   style="image-rendering:optimizeQuality;shape-rendering:geometricPrecision;text-rendering:geometricPrecision"
   xml:space="preserve"
   sodipodi:docname="tabs-iconset-wallet.svg"
   width="23.999998"
   height="24"
   inkscape:version="0.92.2pre0 (973e216, 2017-07-25)"><metadata
     id="metadata21"><rdf:RDF><cc:Work
         rdf:about=""><dc:format>image/svg+xml</dc:format><dc:type
           rdf:resource="http://purl.org/dc/dcmitype/StillImage" /></cc:Work></rdf:RDF></metadata><defs
     id="defs19" /><sodipodi:namedview
     pagecolor="#ffffff"
     bordercolor="#666666"
     borderopacity="1"
     objecttolerance="10"
     gridtolerance="10"
     guidetolerance="10"
     inkscape:pageopacity="0"
     inkscape:pageshadow="2"
     inkscape:window-width="1366"
     inkscape:window-height="696"
     id="namedview17"
     showgrid="false"
     inkscape:zoom="9.8333333"
     inkscape:cx="18.630798"
     inkscape:cy="12.305085"
     inkscape:window-x="0"
     inkscape:window-y="0"
     inkscape:window-maximized="1"
     inkscape:current-layer="Слой_1" /><style
     type="text/css"
     id="style2">
	.st0{fill:#00AEEF;}
	.st1{fill:#FFFFFF;}
</style><path
     style="fill:#00aeef;fill-opacity:1;image-rendering:optimizeQuality;shape-rendering:geometricPrecision;text-rendering:geometricPrecision"
     inkscape:connector-curvature="0"
     class="st0"
     d="M 21.999999,24 H 2 C 0.9,24 0,23.1 0,22 V 2 C 0,0.90000011 0.9,0 2,0 h 19.999999 c 1.1,0 2,0.90000011 2,2 v 20 c 0,1.1 -0.9,2 -2,2 z"
     id="path820" /><path
     style="fill:#ffffff;image-rendering:optimizeQuality;shape-rendering:geometricPrecision;text-rendering:geometricPrecision"
     inkscape:connector-curvature="0"
     class="st1"
     d="M 21.599999,23 H 2.4 C 1.6,23 1,22.4 1,21.6 V 2.4 C 1,1.6 1.6,1 2.4,1 h 19.299999 c 0.7,0 1.3,0.6 1.3,1.4 v 19.3 c 0,0.7 -0.6,1.3 -1.4,1.3 z"
     id="path822" /><g
     id="g14"
     transform="translate(-0.231913,0.0500001)"><path
       class="st0"
       d="m 13.3,6.2 c 0.2,0.3 0.4,0.7 0.6,1.1 0.3,-0.1 0.7,-0.2 1.1,-0.4 0.2,0.7 0.5,1.3 0.7,2 0.1,0.3 0.2,0.4 0.5,0.4 0.4,0 0.6,0.3 0.6,0.8 0,0.5 0,1.1 0,1.6 0.3,0.1 0.5,0.1 0.7,0.1 0.2,0.1 0.5,0.2 0.5,0.4 0.3,0.8 0.4,1.7 0,2.5 -0.2,0.3 -0.7,0.5 -1.2,0.7 0,0.3 0,0.9 0,1.4 0,0.6 -0.3,0.9 -0.8,0.9 -3,0 -6,0 -9,0 -0.6,0 -0.8,-0.3 -0.8,-0.9 0,-2.2 0,-4.5 0,-6.7 C 6.2,9.5 6.5,9.2 7.1,9.2 7.7,9.2 8.1,9 8.6,8.8 10,8 11.5,7.2 12.9,6.3 c 0.2,0.1 0.3,0 0.4,-0.1 z m 2.4,8.5 v 0 c 0.5,0 1,0 1.5,0 0.3,0 0.5,-0.2 0.6,-0.5 0,-0.4 0.1,-0.9 0,-1.3 0,-0.2 -0.3,-0.5 -0.5,-0.5 -1,0 -2.1,-0.1 -3.1,0 -0.6,0 -1,0.6 -1,1.2 0,0.6 0.5,1 1.1,1.1 0.4,0 0.9,0 1.4,0 z M 10.4,9.2 c 0,0.1 0,0.1 0,0 1.6,0.1 3.2,0.1 4.9,0.1 -0.2,-0.6 -0.4,-1.1 -0.6,-1.6 -1.5,0.5 -2.9,1 -4.3,1.5 z m 0.4,-0.9 c 0,0.1 0,0.1 0,0 C 11.7,8.1 12.5,7.8 13.4,7.5 13.3,7.3 13.2,7.2 13.1,7.1 12.3,7.5 11.5,7.9 10.8,8.3 Z"
       id="path10"
       inkscape:connector-curvature="0"
       style="fill:#00aeef" /><path
       class="st0"
       d="m 14.2,14.2 c -0.1,-0.2 -0.4,-0.4 -0.4,-0.6 0,-0.2 0.3,-0.5 0.5,-0.5 0.3,-0.1 0.6,0.2 0.5,0.5 0,0.2 -0.3,0.4 -0.4,0.6 -0.1,0 -0.2,0 -0.2,0 z"
       id="path12"
       inkscape:connector-curvature="0"
       style="fill:#00aeef" /></g><style
     id="style2-675"
     type="text/css">
	.st0{fill:#00AEEF;}
	.st1{fill:#FFFFFF;}
</style><style
     type="text/css"
     id="style2-67">
	.st0{fill:#00AEEF;}
	.st1{fill:#FFFFFF;}
</style><style
     id="style2-6"
     type="text/css">
	.st0{fill:#3F58A7;}
	.st1{fill:#FFFFFF;}
</style><style
     type="text/css"
     id="style21">
	.st0{fill:#00AEEF;}
	.st1{fill:#FFFFFF;}
</style><style
     type="text/css"
     id="style60">
	.st0{fill:url(#SVGID_1_);}
	.st1{fill:#FFFFFF;}
</style><style
     type="text/css"
     id="style818">
	.st0{fill:#21409A;}
	.st1{fill:#FFFFFF;}
</style></svg>