<?xml version="1.0" encoding="UTF-8" standalone="no"?>
<!-- Generator: Adobe Illustrator 21.0.0, SVG Export Plug-In . SVG Version: 6.00 Build 0)  -->

<svg
   xmlns:dc="http://purl.org/dc/elements/1.1/"
   xmlns:cc="http://creativecommons.org/ns#"
   xmlns:rdf="http://www.w3.org/1999/02/22-rdf-syntax-ns#"
   xmlns:svg="http://www.w3.org/2000/svg"
   xmlns="http://www.w3.org/2000/svg"
   xmlns:sodipodi="http://sodipodi.sourceforge.net/DTD/sodipodi-0.dtd"
   xmlns:inkscape="http://www.inkscape.org/namespaces/inkscape"
   version="1.1"
   id="Слой_1"
   x="0px"
   y="0px"
   viewBox="0 0 24 24"
   style="image-rendering:optimizeQuality;shape-rendering:geometricPrecision;text-rendering:geometricPrecision"
   xml:space="preserve"
   sodipodi:docname="tabs-iconset-history.svg"
   width="24"
   height="24"
   inkscape:version="0.92.2pre0 (973e216, 2017-07-25)"><metadata
     id="metadata41"><rdf:RDF><cc:Work
         rdf:about=""><dc:format>image/svg+xml</dc:format><dc:type
           rdf:resource="http://purl.org/dc/dcmitype/StillImage" /></cc:Work></rdf:RDF></metadata><defs
     id="defs39" /><sodipodi:namedview
     pagecolor="#ffffff"
     bordercolor="#666666"
     borderopacity="1"
     objecttolerance="10"
     gridtolerance="10"
     guidetolerance="10"
     inkscape:pageopacity="0"
     inkscape:pageshadow="2"
     inkscape:window-width="1366"
     inkscape:window-height="696"
     id="namedview37"
     showgrid="false"
     inkscape:zoom="9.8333333"
     inkscape:cx="0.81355897"
     inkscape:cy="13.322034"
     inkscape:window-x="0"
     inkscape:window-y="0"
     inkscape:window-maximized="1"
     inkscape:current-layer="Слой_1" /><style
     type="text/css"
     id="style2">
	.st0{fill:#00AEEF;}
	.st1{fill:#FFFFFF;}
</style><path
     style="fill:#00aeef;fill-opacity:1;image-rendering:optimizeQuality;shape-rendering:geometricPrecision;text-rendering:geometricPrecision"
     inkscape:connector-curvature="0"
     class="st0"
     d="M 21.999999,24 H 2 C 0.89999997,24 0,23.1 0,22 V 2 C 0,0.9000001 0.89999997,0 2,0 h 19.999999 c 1.1,0 2,0.9000001 2,2 v 20 c 0,1.1 -0.9,2 -2,2 z"
     id="path820" /><path
     style="fill:#ffffff;image-rendering:optimizeQuality;shape-rendering:geometricPrecision;text-rendering:geometricPrecision"
     inkscape:connector-curvature="0"
     class="st1"
     d="M 21.599999,23 H 2.4 C 1.6,23 0.99999998,22.4 0.99999998,21.6 V 2.4 C 0.99999998,1.6 1.6,1 2.4,1 h 19.299999 c 0.7,0 1.3,0.6 1.3,1.4 v 19.3 c 0,0.7 -0.6,1.3 -1.4,1.3 z"
     id="path822" /><g
     id="g34"
     transform="translate(0.04999953,-1.1773198)"><path
       class="st0"
       d="M 12.9,16.3 C 11.5,17 10.2,17.1 8.8,16.3 7.3,15.4 6.5,13.4 7.1,11.8 7.8,9.9 9.5,9 11.1,9.2 c 2,0.2 3.4,1.6 3.5,3.4 0,0.7 -0.1,1.4 -0.3,2.1 -0.1,0.3 -0.1,0.5 0.2,0.7 0.7,0.7 1.4,1.4 2.1,2.1 0.5,0.5 0.5,1 0.1,1.4 -0.4,0.4 -0.9,0.3 -1.4,-0.1 -0.9,-0.9 -1.6,-1.7 -2.4,-2.5 z M 8.1,13 c 0,1.5 1.2,2.7 2.7,2.8 1.5,0 2.7,-1.2 2.7,-2.7 0,-1.6 -1.1,-2.8 -2.7,-2.8 -1.5,0 -2.7,1.1 -2.7,2.7 z"
       id="path10"
       inkscape:connector-curvature="0"
       style="fill:#00aeef" /><path
       class="st0"
       d="m 16.1,7.2 c 0.3,0 0.6,0 1,0 0,2.5 0,5 0,7.6 -0.3,0 -0.6,0 -1,0 0,-2.5 0,-5 0,-7.6 z"
       id="path12"
       inkscape:connector-curvature="0"
       style="fill:#00aeef" /><path
       class="st0"
       d="m 15.8,14.8 c -0.2,0 -0.5,0 -0.7,0 0,-2.5 0,-5 0,-7.6 0.2,0 0.5,0 0.7,0 0,2.5 0,5 0,7.6 z"
       id="path14"
       inkscape:connector-curvature="0"
       style="fill:#00aeef" /><path
       class="st0"
       d="m 6.5,13.6 c -0.1,0 -0.3,0 -0.4,0 0,-0.1 0,-0.2 0,-0.3 0,-1.9 0,-3.8 0,-5.7 0,-0.3 0.1,-0.5 0.4,-0.3 0,2 0,4.1 0,6.3 z"
       id="path16"
       inkscape:connector-curvature="0"
       style="fill:#00aeef" /><path
       class="st0"
       d="m 17.3,7.2 c 0.2,0 0.3,0 0.5,0 0,2.5 0,5 0,7.5 l -0.1,0.1 c -0.1,-0.1 -0.4,-0.2 -0.4,-0.3 0,-2.4 0,-4.8 0,-7.3 z"
       id="path18"
       inkscape:connector-curvature="0"
       style="fill:#00aeef" /><path
       class="st0"
       d="m 7,10.5 c 0,-1 0,-2.1 0,-3.2 0.4,0 0.8,0 1.3,0 0,0.7 0,1.4 0,2 0,0.1 -0.1,0.2 -0.1,0.2 -0.5,0.3 -0.9,0.7 -1.2,1 z"
       id="path20"
       inkscape:connector-curvature="0"
       style="fill:#00aeef" /><path
       class="st0"
       d="M 14.5,10.5 C 14.1,10.1 13.8,9.8 13.4,9.5 13.3,9.4 13.2,9.3 13.2,9.1 c 0,-0.6 0,-1.2 0,-1.9 0.4,0 0.8,0 1.3,0 0,1.1 0,2.2 0,3.3 z"
       id="path22"
       inkscape:connector-curvature="0"
       style="fill:#00aeef" /><path
       class="st0"
       d="m 9.7,8.7 c 0,-0.5 0,-1 0,-1.5 0.3,0 0.6,0 1,0 0,0.4 0,0.8 0,1.4 -0.3,0 -0.6,0.1 -1,0.1 z"
       id="path24"
       inkscape:connector-curvature="0"
       style="fill:#00aeef" /><path
       class="st0"
       d="M 13,9.1 C 12.4,9 12.1,8.7 12.2,8.1 c 0,-0.3 0,-0.6 0,-0.9 0.3,0 0.5,0 0.8,0 0,0.7 0,1.3 0,1.9 z"
       id="path26"
       inkscape:connector-curvature="0"
       style="fill:#00aeef" /><path
       class="st0"
       d="M 9,8.9 C 9.1,8.3 8.9,7.7 9.2,7.2 9.6,8.1 9.5,8.8 9,8.9 Z"
       id="path28"
       inkscape:connector-curvature="0"
       style="fill:#00aeef" /><path
       class="st0"
       d="m 8.5,9.3 c 0,-0.7 0,-1.4 0,-2.1 0.4,0.3 0.4,1.6 0,2.1 z"
       id="path30"
       inkscape:connector-curvature="0"
       style="fill:#00aeef" /><path
       class="st0"
       d="M 11.8,8.8 C 11.7,8.7 11.6,8.6 11.6,8.5 c 0,-0.4 0,-0.7 0,-1.1 0,-0.1 0.1,-0.2 0.1,-0.2 0.1,0.1 0.2,0.2 0.2,0.2 0,0.4 0,0.8 0,1.3 0,0 0,0 -0.1,0.1 z"
       id="path32"
       inkscape:connector-curvature="0"
       style="fill:#00aeef" /></g><style
     id="style2-67"
     type="text/css">
	.st0{fill:#00AEEF;}
	.st1{fill:#FFFFFF;}
</style><style
     type="text/css"
     id="style2-6">
	.st0{fill:#3F58A7;}
	.st1{fill:#FFFFFF;}
</style><style
     id="style21"
     type="text/css">
	.st0{fill:#00AEEF;}
	.st1{fill:#FFFFFF;}
</style><style
     id="style60"
     type="text/css">
	.st0{fill:url(#SVGID_1_);}
	.st1{fill:#FFFFFF;}
</style><style
     id="style818"
     type="text/css">
	.st0{fill:#21409A;}
	.st1{fill:#FFFFFF;}
</style></svg>