<?xml version="1.0" encoding="UTF-8" standalone="no"?>
<!-- Roman Inozemtsev: https://github.com/mir-one/  -->

<svg
   xmlns:dc="http://purl.org/dc/elements/1.1/"
   xmlns:cc="http://creativecommons.org/ns#"
   xmlns:rdf="http://www.w3.org/1999/02/22-rdf-syntax-ns#"
   xmlns:svg="http://www.w3.org/2000/svg"
   xmlns="http://www.w3.org/2000/svg"
   xmlns:sodipodi="http://sodipodi.sourceforge.net/DTD/sodipodi-0.dtd"
   xmlns:inkscape="http://www.inkscape.org/namespaces/inkscape"
   version="1.1"
   id="Слой_1"
   x="0px"
   y="0px"
   viewBox="0 0 180.58049 50.006705"
   style="image-rendering:optimizeQuality;shape-rendering:geometricPrecision;text-rendering:geometricPrecision"
   xml:space="preserve"
   sodipodi:docname="topleftlogo_hor.svg"
   width="180.58049"
   height="50.006706"
   inkscape:version="0.92.2pre0 (973e216, 2017-07-25)"><metadata
     id="metadata51"><rdf:RDF><cc:Work
         rdf:about=""><dc:format>image/svg+xml</dc:format><dc:type
           rdf:resource="http://purl.org/dc/dcmitype/StillImage" /></cc:Work></rdf:RDF></metadata><defs
     id="defs49" /><sodipodi:namedview
     pagecolor="#ffffff"
     bordercolor="#666666"
     borderopacity="1"
     objecttolerance="10"
     gridtolerance="10"
     guidetolerance="10"
     inkscape:pageopacity="0"
     inkscape:pageshadow="2"
     inkscape:window-width="1366"
     inkscape:window-height="696"
     id="namedview47"
     showgrid="false"
     inkscape:zoom="1.3013586"
     inkscape:cx="27.274782"
     inkscape:cy="-28.641008"
     inkscape:window-x="0"
     inkscape:window-y="0"
     inkscape:window-maximized="1"
     inkscape:current-layer="g927" /><style
     type="text/css"
     id="style2">
	.st0{fill:#25A9E0;}
</style><g
     id="g44"
     transform="translate(-1.8202508,51.681025)"><g
       aria-label="КОМСОМОЛЬСК-НА-АМУРЕ"
       transform="translate(39.95824,-5.0980683)"
       style="font-style:normal;font-weight:normal;font-size:40px;line-height:1.25;font-family:sans-serif;letter-spacing:0px;word-spacing:0px;fill:#25a9e0;fill-opacity:1;stroke:none"
       id="flowRoot858"><g
         id="g927"
         transform="matrix(0.65687837,0,0,0.78974748,-9.0746445,-42.640789)"><g
           id="g904"
           transform="matrix(0.72908071,0,0,0.72908071,-11.986725,15.264935)"><path
             d="m -19.95242,-21.230061 h -15.520853 v 6.875218 h 5.173617 q 6.571089,0 10.46617,3.116108 3.895078,3.0913753 3.895078,8.2848873 0,5.1687803 -3.805879,8.3838095 -3.80588,3.1903011 -10.079634,3.2892251 H -44.244636 V -27.289157 H -19.95242 Z M -35.473273,-8.3204767 V 2.6848217 h 5.292551 q 2.557075,0 4.014013,-1.5827841 1.486673,-1.60751736 1.486673,-4.1053483 0,-2.349446 -1.456938,-3.808574 -1.427205,-1.48386 -3.984281,-1.508592 z"
             id="path847"
             inkscape:connector-curvature="0"
             style="font-style:normal;font-variant:normal;font-weight:bold;font-stretch:normal;font-size:medium;line-height:1.25;font-family:'Roboto Condensed';-inkscape-font-specification:'Roboto Condensed, Bold';letter-spacing:0px;word-spacing:0px;fill:#25a9e0;fill-opacity:1;stroke:none;stroke-width:1.38839614" /><path
             d="M 10.286481,-27.289157 H 19.02811 V 8.7191869 H 10.286481 V -15.121503 L -2.4691627,8.7191869 H -11.240524 V -27.289157 h 8.7713613 v 23.8654193 z"
             id="path849"
             inkscape:connector-curvature="0"
             style="font-style:normal;font-variant:normal;font-weight:bold;font-stretch:normal;font-size:medium;line-height:1.25;font-family:'Roboto Condensed';-inkscape-font-specification:'Roboto Condensed, Bold';letter-spacing:0px;word-spacing:0px;fill:#25a9e0;fill-opacity:1;stroke:none;stroke-width:1.38839614" /><path
             d="m 43.290592,-17.372025 q 0,-1.978479 -1.338004,-3.165568 -1.308271,-1.187088 -3.568012,-1.187088 -1.992141,0 -3.270679,1.162358 -1.248803,1.137625 -1.248803,3.041911 h -8.74163 q 0,-2.99245 1.72454,-5.317164 1.754273,-2.349446 4.816815,-3.635458 3.062544,-1.286012 6.719757,-1.286012 6.452155,0 10.0499,2.695679 3.627479,2.670949 3.627479,7.542955 0,2.473101 -1.516405,4.525775 -1.486671,2.027943 -4.103213,3.2150312 2.973343,1.038702 4.578948,3.1655691 1.605606,2.102135 1.605606,5.2429729 0,4.8720085 -3.89508,7.7160746 -3.89508,2.8440641 -10.347235,2.8440641 -3.924813,0 -7.106291,-1.26128 Q 28.126542,6.6665128 26.342536,4.3170677 24.588263,1.9676216 24.588263,-1.2721398 h 8.771363 q 0,1.85482544 1.39747,3.1655694 1.397472,1.3107431 3.62748,1.3107431 2.497608,0 3.984279,-1.3107431 1.486673,-1.31074396 1.486673,-3.3881494 0,-2.7946029 -1.278538,-4.0064219 -1.278538,-1.211819 -3.716679,-1.211819 H 34.43003 V -12.57421 h 4.460014 q 4.400548,-0.02473 4.400548,-4.797815 z"
             id="path851"
             inkscape:connector-curvature="0"
             style="font-style:normal;font-variant:normal;font-weight:bold;font-stretch:normal;font-size:medium;line-height:1.25;font-family:'Roboto Condensed';-inkscape-font-specification:'Roboto Condensed, Bold';letter-spacing:0px;word-spacing:0px;fill:#25a9e0;fill-opacity:1;stroke:none;stroke-width:1.38839614" /><path
             d="M 89.258481,8.7191869 H 80.546584 V -6.6882297 H 67.642274 V 8.7191869 h -8.74163 V -27.289157 h 8.74163 v 14.566561 h 12.90431 v -14.566561 h 8.711897 z"
             id="path853"
             inkscape:connector-curvature="0"
             style="font-style:normal;font-variant:normal;font-weight:bold;font-stretch:normal;font-size:medium;line-height:1.25;font-family:'Roboto Condensed';-inkscape-font-specification:'Roboto Condensed, Bold';letter-spacing:0px;word-spacing:0px;fill:#25a9e0;fill-opacity:1;stroke:none;stroke-width:1.38839614" /><path
             d="m 118.60538,-6.8613477 h -13.61791 v 9.5461694 h 16.11552 V 8.7191869 H 96.245837 V -27.289157 h 24.797693 v 6.059096 h -16.05606 v 8.507465 h 13.61791 z"
             id="path855"
             inkscape:connector-curvature="0"
             style="font-style:normal;font-variant:normal;font-weight:bold;font-stretch:normal;font-size:medium;line-height:1.25;font-family:'Roboto Condensed';-inkscape-font-specification:'Roboto Condensed, Bold';letter-spacing:0px;word-spacing:0px;fill:#25a9e0;fill-opacity:1;stroke:none;stroke-width:1.38839614" /><path
             d="m 155.4451,-3.2753517 q -0.32706,6.1580214 -4.16267,9.3235895 -3.83561,3.1655691 -10.82298,3.1655691 -7.34416,0 -11.26896,-4.0064231 Q 125.2954,1.1762296 125.2954,-6.2678038 V -12.3269 q 0,-7.419301 4.04374,-11.425724 4.04375,-4.031153 11.23925,-4.031153 7.07655,0 10.73377,3.289223 3.68694,3.289224 4.19241,9.447243 h -8.77135 q -0.1189,-3.808573 -1.42721,-5.242972 -1.27855,-1.459129 -4.72762,-1.459129 -3.50855,0 -4.96548,2.052673 -1.45694,2.027943 -1.54615,6.702102 v 6.8010272 q 0,5.36662804 1.42721,7.3698394 1.45693,2.0032121 4.96548,2.0032121 3.44909,0 4.75735,-1.3849361 1.30828,-1.40966796 1.48667,-5.0698573 z"
             id="path857"
             inkscape:connector-curvature="0"
             style="font-style:normal;font-variant:normal;font-weight:bold;font-stretch:normal;font-size:medium;line-height:1.25;font-family:'Roboto Condensed';-inkscape-font-specification:'Roboto Condensed, Bold';letter-spacing:0px;word-spacing:0px;fill:#25a9e0;fill-opacity:1;stroke:none;stroke-width:1.38839614" /><path
             d="m -13.857067,56.835831 h -8.711895 V 41.428415 h -12.904311 v 15.407416 h -8.74163 V 20.827487 h 8.74163 v 14.566562 h 12.904311 V 20.827487 h 8.711895 z"
             id="path859"
             inkscape:connector-curvature="0"
             style="font-style:normal;font-variant:normal;font-weight:bold;font-stretch:normal;font-size:medium;line-height:1.25;font-family:'Roboto Condensed';-inkscape-font-specification:'Roboto Condensed, Bold';letter-spacing:0px;word-spacing:0px;fill:#25a9e0;fill-opacity:1;stroke:none;stroke-width:1.38839614" /><path
             d="M 14.389695,49.465991 H 2.466588 l -2.31920856,7.36984 H -9.0997173 L 4.4289939,20.827487 H 12.427289 L 26.0452,56.835831 H 16.708903 Z M 4.3695278,43.406895 H 12.457022 L 8.4132747,30.571503 Z"
             id="path861"
             inkscape:connector-curvature="0"
             style="font-style:normal;font-variant:normal;font-weight:bold;font-stretch:normal;font-size:medium;line-height:1.25;font-family:'Roboto Condensed';-inkscape-font-specification:'Roboto Condensed, Bold';letter-spacing:0px;word-spacing:0px;fill:#25a9e0;fill-opacity:1;stroke:none;stroke-width:1.38839614" /><path
             d="M 44.836731,44.321942 H 30.297082 v -5.836517 h 14.539649 z"
             id="path863"
             inkscape:connector-curvature="0"
             style="font-style:normal;font-variant:normal;font-weight:bold;font-stretch:normal;font-size:medium;line-height:1.25;font-family:'Roboto Condensed';-inkscape-font-specification:'Roboto Condensed, Bold';letter-spacing:0px;word-spacing:0px;fill:#25a9e0;fill-opacity:1;stroke:none;stroke-width:1.38839614" /><path
             d="M 72.905092,49.465991 H 60.981985 l -2.319208,7.36984 H 49.41568 L 62.944391,20.827487 h 7.998295 L 84.560598,56.835831 H 75.2243 Z M 62.884925,43.406895 h 8.087494 L 66.928672,30.571503 Z"
             id="path865"
             inkscape:connector-curvature="0"
             style="font-style:normal;font-variant:normal;font-weight:bold;font-stretch:normal;font-size:medium;line-height:1.25;font-family:'Roboto Condensed';-inkscape-font-specification:'Roboto Condensed, Bold';letter-spacing:0px;word-spacing:0px;fill:#25a9e0;fill-opacity:1;stroke:none;stroke-width:1.38839614" /><path
             d="m 100.05172,20.827487 8.17669,26.041749 8.14696,-26.041749 h 11.41764 v 36.008344 h -8.77136 v -9.744016 l 0.80279,-15.011721 -8.65242,24.755737 h -5.94669 l -8.652425,-24.755737 0.802803,15.011721 v 9.744016 h -8.74163 V 20.827487 Z"
             id="path867"
             inkscape:connector-curvature="0"
             style="font-style:normal;font-variant:normal;font-weight:bold;font-stretch:normal;font-size:medium;line-height:1.25;font-family:'Roboto Condensed';-inkscape-font-specification:'Roboto Condensed, Bold';letter-spacing:0px;word-spacing:0px;fill:#25a9e0;fill-opacity:1;stroke:none;stroke-width:1.38839614" /><path
             d="m 148.45775,36.828447 5.82775,-16.00096 h 9.39577 l -11.86364,28.935276 q -2.02188,4.303195 -4.37081,5.910711 -2.31921,1.607515 -5.5899,1.681708 h -0.95147 l -2.08134,-0.09892 -0.14873,-6.034365 q 0.29733,0.09893 1.93267,0.09893 1.66507,0 2.4976,-0.618275 0.86227,-0.618276 1.48668,-2.769872 l 0.41626,-1.310744 -12.36911,-25.794439 h 9.36604 z"
             id="path869"
             inkscape:connector-curvature="0"
             style="font-style:normal;font-variant:normal;font-weight:bold;font-stretch:normal;font-size:medium;line-height:1.25;font-family:'Roboto Condensed';-inkscape-font-specification:'Roboto Condensed, Bold';letter-spacing:0px;word-spacing:0px;fill:#25a9e0;fill-opacity:1;stroke:none;stroke-width:1.38839614" /><path
             d="m 177.06131,44.173557 v 12.662274 h -8.74163 V 20.827487 h 14.74778 q 6.42242,0 10.2283,3.313954 3.83561,3.313956 3.83561,8.60639 0,5.292436 -3.77615,8.359081 -3.77613,3.066645 -10.46616,3.066645 z m 0,-6.059098 h 6.00615 q 2.49762,0 3.86534,-1.360204 1.36774,-1.360206 1.36774,-3.956961 0,-2.695681 -1.39747,-4.278465 -1.39747,-1.607515 -3.7464,-1.632246 h -6.09536 z"
             id="path871"
             inkscape:connector-curvature="0"
             style="font-style:normal;font-variant:normal;font-weight:bold;font-stretch:normal;font-size:medium;line-height:1.25;font-family:'Roboto Condensed';-inkscape-font-specification:'Roboto Condensed, Bold';letter-spacing:0px;word-spacing:0px;fill:#25a9e0;fill-opacity:1;stroke:none;stroke-width:1.38839614" /><path
             d="m 225.28894,41.255297 h -13.61792 v 9.546169 h 16.11552 v 6.034365 H 202.9294 V 20.827487 h 24.79768 v 6.059096 h -16.05606 v 8.507466 h 13.61792 z"
             id="path873"
             inkscape:connector-curvature="0"
             style="font-style:normal;font-variant:normal;font-weight:bold;font-stretch:normal;font-size:medium;line-height:1.25;font-family:'Roboto Condensed';-inkscape-font-specification:'Roboto Condensed, Bold';letter-spacing:0px;word-spacing:0px;fill:#25a9e0;fill-opacity:1;stroke:none;stroke-width:1.38839614" /></g></g></g></g></svg>