<?xml version="1.0" encoding="UTF-8" standalone="no"?>
<!-- Roman Inozemtsev: https://github.com/mir-one/  -->

<svg
   xmlns:dc="http://purl.org/dc/elements/1.1/"
   xmlns:cc="http://creativecommons.org/ns#"
   xmlns:rdf="http://www.w3.org/1999/02/22-rdf-syntax-ns#"
   xmlns:svg="http://www.w3.org/2000/svg"
   xmlns="http://www.w3.org/2000/svg"
   xmlns:sodipodi="http://sodipodi.sourceforge.net/DTD/sodipodi-0.dtd"
   xmlns:inkscape="http://www.inkscape.org/namespaces/inkscape"
   version="1.1"
   id="Слой_1"
   x="0px"
   y="0px"
   viewBox="0 0 479.85462 97.470475"
   style="image-rendering:optimizeQuality;shape-rendering:geometricPrecision;text-rendering:geometricPrecision"
   xml:space="preserve"
   sodipodi:docname="topleftlogo.svg"
   width="479.85461"
   height="97.470474"
   inkscape:version="0.92.2pre0 (973e216, 2017-07-25)"><metadata
     id="metadata53"><rdf:RDF><cc:Work
         rdf:about=""><dc:format>image/svg+xml</dc:format><dc:type
           rdf:resource="http://purl.org/dc/dcmitype/StillImage" /></cc:Work></rdf:RDF></metadata><defs
     id="defs51" /><sodipodi:namedview
     pagecolor="#ffffff"
     bordercolor="#666666"
     borderopacity="1"
     objecttolerance="10"
     gridtolerance="10"
     guidetolerance="10"
     inkscape:pageopacity="0"
     inkscape:pageshadow="2"
     inkscape:window-width="1366"
     inkscape:window-height="696"
     id="namedview49"
     showgrid="false"
     inkscape:zoom="1.0669898"
     inkscape:cx="156.45147"
     inkscape:cy="-37.209405"
     inkscape:window-x="0"
     inkscape:window-y="0"
     inkscape:window-maximized="1"
     inkscape:current-layer="Слой_1" /><style
     type="text/css"
     id="style2">
	.st0{fill:#FFFFFF;}
</style><path
     class="st0"
     d="m 78.072996,70.990167 c -5.883877,-3.414118 -11.69512,-6.828211 -17.579,-10.24232 -0.653759,-0.363203 -0.944328,-0.653761 -0.435839,-1.452801 4.358425,-7.481975 8.644215,-14.818663 12.85737,-22.227991 1.961278,-3.414103 3.849936,-6.682924 5.811229,-10.097028 0.363204,-0.581123 0.363204,-0.653763 -0.07265,-0.944326 0,0 0,0.07265 0,0.07265 -0.435838,-0.290561 -1.016963,-0.145286 -1.452802,-0.145286 -12.058327,0 -23.971367,0 -36.02968,0 -1.016963,0 -1.307532,-0.290562 -1.307532,-1.307529 0,-6.610284 0,-13.220567 0,-19.8308511 0,-0.435842 0.290569,-1.089606 -0.217919,-1.380169 -0.508475,-0.290563 -0.799045,0.290563 -1.16225,0.435843 -3.050891,1.743372 -6.101797,3.486742 -9.080057,5.230115 C 20.033244,14.403228 10.662621,19.851265 1.364639,25.15402 c -0.6537633,0.363203 -0.9443254,0.799045 -0.9443254,1.598091 0,14.600735 0,29.274104 0,43.874848 0,0.653757 0.2179211,1.016965 0.7264043,1.380163 4.2131478,2.469777 8.4262961,4.866919 12.7120831,7.336697 8.063095,4.721632 16.198827,9.297992 24.261918,13.946978 0.653774,0.3632 1.162248,1.08962 2.106577,0.7264 0.07265,-0.0727 0.29057,-0.0727 0.29057,0 10.823427,-6.247078 21.79214,-12.566798 32.615567,-18.886528 2.033943,-1.089615 3.922586,-2.324505 6.101799,-3.486745 -0.581125,-0.217922 -0.799044,-0.508482 -1.162249,-0.653757 z m -37.99097,22.01007 c 0,0.1453 0,0.21791 0,0.3632 -0.07265,-0.14531 -0.07265,-0.29057 0,-0.3632 z"
     id="path4"
     inkscape:connector-curvature="0"
     style="opacity:0.95;fill:#ffffff;stroke-width:0.72640479" /><g
     id="g903"
     style="opacity:0.95"
     transform="translate(-0.937217,-11.311087)"><path
       class="st0"
       d="m 123.21932,39.453162 h -3.52251 V 55.439956 H 111.8389 V 16.421342 h 7.85791 v 15.715832 h 2.70963 l 6.77404,-15.715832 h 9.48368 l -9.48368,18.154494 10.56754,20.86412 h -9.21273 z"
       id="path6"
       inkscape:connector-curvature="0"
       style="fill:#ffffff;stroke-width:2.70962596" /><path
       class="st0"
       d="m 169.28295,39.1822 c 0,2.709628 -0.27096,5.148289 -1.08384,7.31599 -0.81291,2.167703 -1.62579,3.793476 -2.9806,5.148289 -1.35482,1.354816 -2.70962,2.438663 -4.3354,2.980589 -1.62576,0.812888 -3.52252,1.083851 -5.69022,1.083851 -2.16771,0 -4.06444,-0.270963 -5.69022,-1.083851 -1.62577,-0.812886 -3.25157,-1.625773 -4.3354,-2.980589 -1.35482,-1.354813 -2.1677,-2.980586 -2.98058,-5.148289 -0.8129,-2.167701 -1.08387,-4.606362 -1.08387,-7.31599 v -6.503102 c 0,-2.709626 0.27097,-5.148288 1.08387,-7.315989 0.81288,-2.1677 1.62576,-3.793477 2.98058,-5.419253 1.3548,-1.354811 2.70963,-2.438661 4.3354,-3.251551 1.62578,-0.812889 3.52251,-1.083851 5.69022,-1.083851 2.1677,0 4.06446,0.270962 5.69022,1.083851 1.62578,0.81289 3.25156,1.89674 4.3354,3.251551 1.35481,1.354815 2.16769,3.251553 2.9806,5.419253 0.81288,2.167701 1.08384,4.606363 1.08384,7.315989 z m -7.85791,-6.503102 c 0,-1.896737 0,-3.522511 -0.27096,-4.877326 -0.27097,-1.354814 -0.54192,-2.438663 -1.08385,-3.251551 -0.54194,-0.812889 -1.08385,-1.354812 -1.89676,-1.896739 -0.81288,-0.270963 -1.62576,-0.541924 -2.70963,-0.541924 -1.08385,0 -1.89673,0.270961 -2.70961,0.541924 -0.8129,0.270963 -1.3548,1.08385 -1.89675,1.896739 -0.54193,0.812888 -0.81287,1.896737 -1.08385,3.251551 -0.27096,1.354815 -0.27096,2.980589 -0.27096,4.877326 V 39.1822 c 0,1.89674 0,3.251553 0.27096,4.606363 0.27098,1.354814 0.54192,2.167703 1.08385,2.98059 0.54195,0.812889 1.08385,1.354814 1.89675,1.89674 0.81288,0.270963 1.62576,0.541923 2.70961,0.541923 1.08387,0 1.89675,-0.27096 2.70963,-0.541923 0.81291,-0.270963 1.35482,-1.083851 1.89676,-1.89674 0.54193,-0.812887 0.81288,-1.896738 1.08385,-2.98059 0.27096,-1.35481 0.27096,-2.709623 0.27096,-4.606363 z"
       id="path8"
       inkscape:connector-curvature="0"
       style="fill:#ffffff;stroke-width:2.70962596" /><path
       class="st0"
       d="m 185.26974,16.150379 7.31599,28.18011 7.31598,-28.18011 h 10.29659 v 39.018614 h -7.85792 V 44.601452 l 0.81288,-16.257754 -7.85791,26.825295 h -5.41925 l -7.85791,-26.825295 0.81289,16.257754 v 10.567541 h -7.8579 V 16.150379 Z"
       id="path10"
       inkscape:connector-curvature="0"
       style="fill:#ffffff;stroke-width:2.70962596" /><path
       class="st0"
       d="m 243.25573,42.16279 c -0.27095,4.3354 -1.35481,7.857913 -3.79346,10.025615 -2.43867,2.1677 -5.69022,3.522514 -9.75466,3.522514 -2.16769,0 -4.06445,-0.270963 -5.69021,-1.083851 -1.62577,-0.812886 -3.25155,-1.896736 -4.3354,-3.251552 -1.08385,-1.354813 -2.16768,-3.251549 -2.70963,-5.14829 -0.54193,-2.1677 -0.8129,-4.60636 -0.8129,-7.315989 v -6.774063 c 0,-2.709625 0.27097,-5.14829 1.08388,-7.31599 0.5419,-2.167702 1.62578,-3.793476 2.70962,-5.14829 1.08385,-1.354811 2.70963,-2.438663 4.33539,-3.251552 1.62578,-0.812888 3.52253,-1.083849 5.6902,-1.083849 4.33541,0 7.58697,1.083849 9.75466,3.522515 2.1677,2.438663 3.52251,5.690213 3.79348,10.296579 h -7.85791 c 0,-1.354815 -0.27097,-2.438666 -0.27097,-3.522515 -0.27098,-0.812888 -0.54192,-1.625777 -1.08385,-2.167701 -0.54192,-0.541926 -1.08384,-1.083852 -1.62578,-1.083852 -0.81288,-0.270961 -1.62577,-0.270961 -2.43865,-0.270961 -1.08386,0 -1.89675,0.270961 -2.70962,0.541924 -0.81289,0.270963 -1.35481,0.812889 -1.89676,1.625776 -0.5419,0.812889 -0.81287,1.896737 -1.08384,3.251552 -0.27096,1.354811 -0.27096,2.980588 -0.27096,4.877327 V 39.1822 c 0,1.89674 0,3.251553 0.27096,4.606363 0.27097,1.354814 0.54194,2.438663 0.81291,3.251553 0.54191,0.812888 1.08382,1.354814 1.89671,1.89674 0.81288,0.27096 1.6258,0.541923 2.70962,0.541923 1.08386,0 1.89675,0 2.43868,-0.270963 0.81289,-0.27096 1.35481,-0.541923 1.62578,-1.083849 0.27095,-0.541925 0.81288,-1.354814 1.08382,-2.167701 0.27098,-0.812889 0.27098,-2.167703 0.54195,-3.522513 h 7.58694 z"
       id="path12"
       inkscape:connector-curvature="0"
       style="fill:#ffffff;stroke-width:2.70962596" /><path
       class="st0"
       d="m 275.50031,39.1822 c 0,2.709628 -0.27097,5.148289 -1.08389,7.31599 -0.81289,2.167703 -1.62576,3.793476 -2.98058,5.148289 -1.35481,1.354816 -2.70963,2.438663 -4.33541,2.980589 -1.62577,0.812888 -3.52251,1.083851 -5.6902,1.083851 -2.1677,0 -4.06445,-0.270963 -5.69021,-1.083851 -1.62578,-0.812886 -3.25156,-1.625773 -4.33541,-2.980589 -1.35482,-1.354813 -2.16772,-2.980586 -2.9806,-5.148289 -0.81287,-2.167701 -1.08383,-4.606362 -1.08383,-7.31599 v -6.503102 c 0,-2.709626 0.27096,-5.148288 1.08383,-7.315989 0.81288,-2.1677 1.62578,-3.793477 2.9806,-5.419253 1.35481,-1.354811 2.70963,-2.438661 4.33541,-3.251551 1.62576,-0.812889 3.52251,-1.083851 5.69021,-1.083851 2.16769,0 4.06443,0.270962 5.6902,1.083851 1.62578,0.81289 3.25155,1.89674 4.33541,3.251551 1.35482,1.354815 2.16769,3.251553 2.98058,5.419253 0.81292,2.167701 1.08389,4.606363 1.08389,7.315989 z m -7.85796,-6.503102 c 0,-1.896737 0,-3.522511 -0.27095,-4.877326 -0.27097,-1.354814 -0.54194,-2.438663 -1.08385,-3.251551 -0.54192,-0.812889 -1.08386,-1.354812 -1.89674,-1.896739 -0.81289,-0.270963 -1.62578,-0.541924 -2.70963,-0.541924 -1.08386,0 -1.89675,0.270961 -2.70962,0.541924 -0.81288,0.270963 -1.35481,1.08385 -1.89675,1.896739 -0.54191,0.812888 -0.81288,1.896737 -1.08384,3.251551 -0.27095,1.354815 -0.27095,2.980589 -0.27095,4.877326 V 39.1822 c 0,1.89674 0,3.251553 0.27095,4.606363 0.27096,1.354814 0.54193,2.167703 1.08384,2.98059 0.54194,0.812889 1.08387,1.354814 1.89675,1.89674 0.81287,0.270963 1.62576,0.541923 2.70962,0.541923 1.08385,0 1.89674,-0.27096 2.70963,-0.541923 0.81288,-0.270963 1.35482,-1.083851 1.89674,-1.89674 0.54191,-0.812887 0.81288,-1.896738 1.08385,-2.98059 0.27095,-1.35481 0.27095,-2.709623 0.27095,-4.606363 z"
       id="path14"
       inkscape:connector-curvature="0"
       style="fill:#ffffff;stroke-width:2.70962596" /><path
       class="st0"
       d="m 291.48706,16.150379 7.31601,28.18011 7.31598,-28.18011 h 10.29658 v 39.018614 h -7.8579 V 44.601452 l 0.81288,-16.257754 -7.85791,26.825295 h -5.41926 l -7.85792,-26.825295 0.81288,16.257754 v 10.567541 h -7.8579 V 16.150379 Z"
       id="path16"
       inkscape:connector-curvature="0"
       style="fill:#ffffff;stroke-width:2.70962596" /><path
       class="st0"
       d="m 350.28597,39.1822 c 0,2.709628 -0.27097,5.148289 -1.08385,7.31599 -0.8129,2.167703 -1.62578,3.793476 -2.9806,5.148289 -1.35481,1.354816 -2.70963,2.438663 -4.33541,2.980589 -1.62575,0.812888 -3.5225,1.083851 -5.69019,1.083851 -2.16771,0 -4.06446,-0.270963 -5.69024,-1.083851 -1.62578,-0.812886 -3.25155,-1.625773 -4.33541,-2.980589 -1.35482,-1.354813 -2.1677,-2.980586 -2.9806,-5.148289 -0.81288,-2.167701 -1.08382,-4.606362 -1.08382,-7.31599 v -6.503102 c 0,-2.709626 0.27094,-5.148288 1.08382,-7.315989 0.8129,-2.1677 1.62578,-3.793477 2.9806,-5.419253 1.35481,-1.354811 2.70963,-2.438661 4.33541,-3.251551 1.62578,-0.812889 3.52253,-1.083851 5.69024,-1.083851 2.16769,0 4.06444,0.270962 5.69019,1.083851 1.62578,0.81289 3.25156,1.89674 4.33541,3.251551 1.35482,1.354815 2.1677,3.251553 2.9806,5.419253 0.81288,2.167701 1.08385,4.606363 1.08385,7.315989 z m -7.85792,-6.503102 c 0,-1.896737 0,-3.522511 -0.27097,-4.877326 -0.27097,-1.354814 -0.54194,-2.438663 -1.08385,-3.251551 -0.54191,-0.812889 -1.08385,-1.354812 -1.89675,-1.896739 -0.81287,-0.270963 -1.62575,-0.541924 -2.70961,-0.541924 -1.08384,0 -1.89674,0.270961 -2.70963,0.541924 -0.81289,0.270963 -1.35483,1.08385 -1.89675,1.896739 -0.54193,0.812888 -0.81291,1.896737 -1.08384,3.251551 -0.27097,1.354815 -0.27097,2.980589 -0.27097,4.877326 V 39.1822 c 0,1.89674 0,3.251553 0.27097,4.606363 0.27093,1.354814 0.54191,2.167703 1.08384,2.98059 0.54192,0.812889 1.08386,1.354814 1.89675,1.89674 0.81289,0.270963 1.62579,0.541923 2.70963,0.541923 1.08386,0 1.89674,-0.27096 2.70961,-0.541923 0.8129,-0.270963 1.35484,-1.083851 1.89675,-1.89674 0.54191,-0.812887 0.81288,-1.896738 1.08385,-2.98059 0.27097,-1.35481 0.27097,-2.709623 0.27097,-4.606363 z"
       id="path18"
       inkscape:connector-curvature="0"
       style="fill:#ffffff;stroke-width:2.70962596" /><path
       class="st0"
       d="m 382.25954,16.150379 v 39.018614 h -7.85791 V 22.653482 h -7.04503 l -0.27098,11.109465 c -0.27095,4.064441 -0.54191,7.315993 -1.08383,10.025616 -0.54194,2.709627 -1.35482,4.87733 -2.16771,6.503103 -1.08386,1.625776 -2.16769,2.98059 -3.52251,3.793476 -1.35481,0.812889 -2.98057,1.083851 -4.87732,1.083851 h -1.89675 v -6.5031 h 0.8129 c 1.08385,0 1.89673,-0.541926 2.43866,-1.083851 0.54194,-0.541926 1.08385,-1.354816 1.35482,-2.438665 0.27096,-1.083851 0.54193,-2.709624 0.54193,-4.606365 0,-1.896735 0.27095,-4.064438 0.27095,-7.045028 l 0.54193,-17.612568 h 22.76085 z"
       id="path20"
       inkscape:connector-curvature="0"
       style="fill:#ffffff;stroke-width:2.70962596" /><path
       class="st0"
       d="m 396.62057,30.240435 h 4.87731 c 1.89676,0 3.79348,0.270963 5.41926,0.812889 1.62578,0.541926 2.9806,1.354813 4.06445,2.43866 1.08384,1.083852 1.89671,2.438667 2.43866,3.793479 0.54191,1.625774 0.81287,3.251549 0.81287,5.14829 0,1.896736 -0.27096,3.522513 -0.81287,5.148289 -0.54195,1.625774 -1.35482,2.980586 -2.43866,4.064437 -1.08385,1.083853 -2.43867,1.89674 -4.06445,2.709626 -1.62578,0.541926 -3.25156,0.812888 -5.41926,0.812888 H 388.76264 V 16.150379 h 7.85793 z m 0,6.503102 v 11.922356 h 4.87731 c 0.81288,0 1.6258,-0.270963 2.1677,-0.541926 0.54193,-0.270963 1.08388,-0.812888 1.62578,-1.354814 0.54193,-0.541927 0.8129,-1.354813 0.8129,-1.896738 0.27095,-0.812889 0.27095,-1.625775 0.27095,-2.438662 0,-0.812887 0,-1.625776 -0.27095,-2.167704 -0.27097,-0.812887 -0.54193,-1.354812 -0.8129,-1.896735 -0.5419,-0.541926 -0.81288,-0.812888 -1.62578,-1.354814 -0.5419,-0.270963 -1.35482,-0.541926 -2.1677,-0.541926 h -4.87731 z"
       id="path22"
       inkscape:connector-curvature="0"
       style="fill:#ffffff;stroke-width:2.70962596" /><path
       class="st0"
       d="m 445.39382,42.16279 c -0.27096,4.3354 -1.35481,7.857913 -3.79347,10.025615 -2.43865,2.1677 -5.69023,3.522514 -9.75466,3.522514 -2.1677,0 -4.06445,-0.270963 -5.69023,-1.083851 -1.62575,-0.812886 -3.25153,-1.896736 -4.33538,-3.251552 -1.08385,-1.354813 -2.1677,-3.251549 -2.70963,-5.14829 -0.54192,-2.1677 -0.81289,-4.60636 -0.81289,-7.315989 v -6.774063 c 0,-2.709625 0.27097,-5.14829 1.08386,-7.31599 0.54191,-2.167702 1.62577,-3.793476 2.70963,-5.14829 1.08385,-1.354811 2.70961,-2.438663 4.33538,-3.251552 1.62578,-0.812888 3.52253,-1.083849 5.69023,-1.083849 4.33541,0 7.58694,1.083849 9.75463,3.522515 2.16772,2.438663 3.52253,5.690213 3.7935,10.296579 h -7.85791 c 0,-1.354815 -0.27098,-2.438666 -0.27098,-3.522515 -0.27095,-0.812888 -0.54193,-1.625777 -1.08383,-2.167701 -0.54195,-0.541926 -1.08388,-1.083852 -1.62579,-1.083852 -0.81291,-0.270961 -1.62578,-0.270961 -2.43866,-0.270961 -1.08387,0 -1.89675,0.270961 -2.70963,0.541924 -0.8129,0.270963 -1.35481,0.812889 -1.89675,1.625776 -0.54191,0.812889 -0.81288,1.896737 -1.08382,3.251552 -0.27099,1.354811 -0.27099,2.980588 -0.27099,4.877327 V 39.1822 c 0,1.89674 0,3.251553 0.27099,4.606363 0.27094,1.354814 0.54191,2.438663 0.81287,3.251553 0.54192,0.812888 1.08386,1.354814 1.89674,1.89674 0.81289,0.27096 1.62578,0.541923 2.70963,0.541923 1.08384,0 1.89671,0 2.43866,-0.270963 0.81287,-0.27096 1.3548,-0.541923 1.62578,-1.083849 0.27097,-0.541925 0.81287,-1.354814 1.08385,-2.167701 0.27095,-0.812889 0.27095,-2.167703 0.54193,-3.522513 h 7.58694 z"
       id="path24"
       inkscape:connector-curvature="0"
       style="fill:#ffffff;stroke-width:2.70962596" /><path
       class="st0"
       d="m 461.6516,39.453162 h -3.52253 v 15.986794 h -7.85791 V 16.421342 h 7.85791 v 15.715832 h 2.70963 l 6.77406,-15.715832 h 9.48368 l -9.48368,18.154494 10.56753,20.86412 h -9.48368 z"
       id="path26"
       inkscape:connector-curvature="0"
       style="fill:#ffffff;stroke-width:2.70962596" /><path
       class="st0"
       d="m 139.20609,103.94227 h -7.85791 V 87.142578 H 119.69681 V 103.94227 H 111.8389 V 64.923647 h 7.85791 v 15.715828 h 11.65137 V 64.923647 h 7.85791 z"
       id="path30"
       inkscape:connector-curvature="0"
       style="fill:#ffffff;stroke-width:2.70962596" /><path
       class="st0"
       d="m 164.67661,96.084354 h -10.83853 l -2.16772,7.857916 h -8.39982 l 12.1933,-39.018623 h 7.31602 l 12.19332,39.018623 h -8.39986 z m -8.9418,-6.503111 h 7.31601 l -3.52253,-13.819092 z"
       id="path32"
       inkscape:connector-curvature="0"
       style="fill:#ffffff;stroke-width:2.70962596" /><path
       class="st0"
       d="m 192.0438,90.39414 h -13.0062 v -6.23215 h 13.0062 z"
       id="path34"
       inkscape:connector-curvature="0"
       style="fill:#ffffff;stroke-width:2.70962596" /><path
       class="st0"
       d="m 217.51432,96.084354 h -10.83853 l -2.16772,7.857916 h -8.39982 l 12.1933,-39.018623 h 7.316 l 12.19334,39.018623 h -8.39986 z m -9.21277,-6.503111 h 7.316 l -3.5225,-13.819092 z"
       id="path36"
       inkscape:connector-curvature="0"
       style="fill:#ffffff;stroke-width:2.70962596" /><path
       class="st0"
       d="m 241.90092,64.923647 7.31597,28.180118 7.31601,-28.180118 h 10.29656 v 39.018623 h -7.8579 V 93.374728 l 0.81287,-16.257765 -7.85791,26.825307 h -5.41922 l -7.85795,-26.825307 0.81292,16.257765 v 10.567542 h -7.85793 V 64.923647 Z"
       id="path38"
       inkscape:connector-curvature="0"
       style="fill:#ffffff;stroke-width:2.70962596" /><path
       class="st0"
       d="m 285.5259,82.265253 5.14828,-17.341606 h 8.39986 L 288.5065,96.355314 c -0.54195,1.083851 -0.81289,2.167704 -1.35482,3.251544 -0.54192,1.083852 -1.08384,1.896742 -1.89673,2.709632 -0.8129,0.81289 -1.62579,1.35481 -2.43868,1.89674 -0.81288,0.54192 -2.16767,0.54192 -3.52251,0.54192 -0.27094,0 -0.27094,0 -0.54192,0 -0.27097,0 -0.5419,0 -0.81287,0 -0.27097,0 -0.54195,0 -0.54195,0 -0.27095,0 -0.27095,0 -0.54191,0 l -0.27098,-6.503092 c 0,0 0.27098,0 0.27098,0 0.27096,0 0.27096,0 0.54191,0 0.27098,0 0.27098,0 0.54195,0 0.27097,0 0.27097,0 0.27097,0 0.5419,0 1.08382,0 1.62575,-0.270962 0.54193,-0.270972 0.81291,-0.270972 1.08384,-0.81289 0.27097,-0.270971 0.54194,-0.812892 0.54194,-1.083852 0.27097,-0.541926 0.27097,-1.08385 0.54192,-1.625775 l 0.27096,-1.354814 -11.10948,-27.909156 h 8.39986 z"
       id="path40"
       inkscape:connector-curvature="0"
       style="fill:#ffffff;stroke-width:2.70962596" /><path
       class="st0"
       d="m 311.26733,90.39414 v 13.81909 h -7.85791 V 65.194609 h 13.27717 c 1.89675,0 3.79347,0.270963 5.41926,1.083852 1.62578,0.541923 2.98057,1.625774 4.06442,2.709624 1.08386,1.083852 1.89675,2.438663 2.43866,4.06444 0.54194,1.625774 0.8129,3.251552 0.8129,5.148289 0,1.896737 -0.27096,3.522513 -0.8129,5.14829 -0.54191,1.625773 -1.3548,2.709624 -2.43866,3.793474 -1.08385,1.083852 -2.43864,1.896741 -4.06442,2.438665 -1.62579,0.541925 -3.25156,0.812897 -5.41926,0.812897 z m 0,-6.774073 h 5.41926 c 0.8129,0 1.62578,-0.270963 2.1677,-0.541926 0.54193,-0.270962 1.08385,-0.812888 1.35482,-1.083851 0.27095,-0.541926 0.54192,-1.083853 0.81289,-1.896739 0.27095,-0.812887 0.27095,-1.354811 0.27095,-2.438662 0,-0.812886 0,-1.625775 -0.27095,-2.438665 -0.27097,-0.812888 -0.54194,-1.354813 -0.81289,-2.167699 -0.27097,-0.541925 -0.81289,-1.083851 -1.35482,-1.354814 -0.54192,-0.270963 -1.3548,-0.541925 -2.1677,-0.541925 h -5.41926 z"
       id="path42"
       inkscape:connector-curvature="0"
       style="fill:#ffffff;stroke-width:2.70962596" /><path
       class="st0"
       d="m 354.89231,87.142578 h -12.1933 V 97.439165 H 357.331 v 6.503105 H 334.8411 V 64.923647 h 22.21893 v 6.503101 h -14.36102 v 9.212727 h 12.1933 z"
       id="path44"
       inkscape:connector-curvature="0"
       style="fill:#ffffff;stroke-width:2.70962596" /></g></svg>