<?xml version="1.0" encoding="UTF-8" standalone="no"?>
<!-- Roman Inozemtsev: https://github.com/mir-one/  -->

<svg
   xmlns:dc="http://purl.org/dc/elements/1.1/"
   xmlns:cc="http://creativecommons.org/ns#"
   xmlns:rdf="http://www.w3.org/1999/02/22-rdf-syntax-ns#"
   xmlns:svg="http://www.w3.org/2000/svg"
   xmlns="http://www.w3.org/2000/svg"
   xmlns:sodipodi="http://sodipodi.sourceforge.net/DTD/sodipodi-0.dtd"
   xmlns:inkscape="http://www.inkscape.org/namespaces/inkscape"
   version="1.1"
   id="Слой_1"
   x="0px"
   y="0px"
   viewBox="0 0 449.86371 215.55969"
   style="image-rendering:optimizeQuality;shape-rendering:geometricPrecision;text-rendering:geometricPrecision"
   xml:space="preserve"
   sodipodi:docname="topleftlogo.svg"
   width="449.86371"
   height="215.55969"
   inkscape:version="0.92.2pre0 (973e216, 2017-07-25)"><metadata
     id="metadata53"><rdf:RDF><cc:Work
         rdf:about=""><dc:format>image/svg+xml</dc:format><dc:type
           rdf:resource="http://purl.org/dc/dcmitype/StillImage" /></cc:Work></rdf:RDF></metadata><defs
     id="defs51" /><sodipodi:namedview
     pagecolor="#ffffff"
     bordercolor="#666666"
     borderopacity="1"
     objecttolerance="10"
     gridtolerance="10"
     guidetolerance="10"
     inkscape:pageopacity="0"
     inkscape:pageshadow="2"
     inkscape:window-width="1366"
     inkscape:window-height="696"
     id="namedview49"
     showgrid="false"
     inkscape:zoom="0.53349491"
     inkscape:cx="264.38565"
     inkscape:cy="-48.027401"
     inkscape:window-x="0"
     inkscape:window-y="0"
     inkscape:window-maximized="1"
     inkscape:current-layer="Слой_1" /><style
     type="text/css"
     id="style2">
	.st0{fill:#FFFFFF;}
</style><path
     class="st0"
     d="m 107.72787,173.0208 c -7.58509,-4.40125 -15.076539,-8.80246 -22.661629,-13.20369 -0.84278,-0.46822 -1.217362,-0.84279 -0.561853,-1.87285 5.618579,-9.64525 11.143522,-19.1032 16.574832,-28.65479 2.52834,-4.40122 4.96307,-8.61516 7.49143,-13.01639 0.46822,-0.74914 0.46822,-0.84278 -0.0936,-1.21735 0,0 0,0.0936 0,0.0936 -0.56185,-0.37457 -1.311,-0.18729 -1.87285,-0.18729 -15.54476,0 -30.902225,0 -46.446965,0 -1.310999,0 -1.68558,-0.37457 -1.68558,-1.68558 0,-8.52152 0,-17.043035 0,-25.564555 0,-0.561857 0.374581,-1.404644 -0.280926,-1.779218 -0.655491,-0.374574 -1.030073,0.374574 -1.498292,0.561858 -3.932997,2.247435 -7.866014,4.494866 -11.70538,6.742302 -12.079955,6.835943 -24.159912,13.859173 -36.1462255,20.695113 -0.842787,0.46822 -1.217359,1.03008 -1.217359,2.06015 0,18.82226 0,37.73815 0,56.56041 0,0.84278 0.280929,1.311 0.93643,1.77921 5.4312975,3.18387 10.8625955,6.2741 16.3875355,9.45796 10.394378,6.08681 20.882399,11.98633 31.276777,17.97948 0.8428,0.46821 1.498289,1.40466 2.715652,0.93643 0.09366,-0.0937 0.374583,-0.0937 0.374583,0 13.952812,-8.0533 28.092916,-16.20025 42.04573,-24.34721 2.62202,-1.40465 5.05672,-2.99659 7.86601,-4.49487 -0.74914,-0.28093 -1.03007,-0.6555 -1.49829,-0.84277 z m -48.975325,28.37385 c 0,0.18731 0,0.28092 0,0.46821 -0.09366,-0.18732 -0.09366,-0.37458 0,-0.46821 z"
     id="path4"
     inkscape:connector-curvature="0"
     style="opacity:0.95;fill:#ffffff;stroke-width:0.93643069" /><g
     id="g1007"
     transform="translate(134.41812,-210.64918)"
     style="fill:#ffffff"><path
       d="M 35.994139,307.57487 H 19.001953 v 9.04948 h 5.664062 q 7.19401,0 11.458333,4.10156 4.264323,4.06901 4.264323,10.90495 0,6.80338 -4.166667,11.03515 -4.166666,4.19922 -11.035156,4.32943 H 9.3990884 V 299.59961 H 35.994139 Z m -16.992186,16.99219 v 14.48567 h 5.79427 q 2.799479,0 4.394531,-2.08333 1.627604,-2.11589 1.627604,-5.40365 0,-3.09244 -1.595052,-5.01302 -1.5625,-1.95312 -4.361979,-1.98567 z"
       id="path950"
       inkscape:connector-curvature="0"
       style="font-style:normal;font-variant:normal;font-weight:bold;font-stretch:normal;font-size:medium;line-height:1.25;font-family:'Roboto Condensed';-inkscape-font-specification:'Roboto Condensed, Bold';letter-spacing:0px;word-spacing:0px;fill:#ffffff;fill-opacity:1;stroke:none" /><path
       d="m 69.099607,299.59961 h 9.570312 v 47.39583 H 69.099607 V 315.61523 L 55.134764,346.99544 H 45.5319 v -47.39583 h 9.602864 v 31.41276 z"
       id="path952"
       inkscape:connector-curvature="0"
       style="font-style:normal;font-variant:normal;font-weight:bold;font-stretch:normal;font-size:medium;line-height:1.25;font-family:'Roboto Condensed';-inkscape-font-specification:'Roboto Condensed, Bold';letter-spacing:0px;word-spacing:0px;fill:#ffffff;fill-opacity:1;stroke:none" /><path
       d="m 105.23242,312.65299 q 0,-2.60416 -1.46485,-4.16666 -1.43229,-1.5625 -3.906245,-1.5625 -2.18099,0 -3.580729,1.52995 -1.367188,1.49739 -1.367188,4.0039 h -9.570312 q 0,-3.9388 1.888021,-6.9987 1.920573,-3.09244 5.273437,-4.78515 3.352865,-1.69271 7.356771,-1.69271 7.063805,0 11.002605,3.54818 3.97135,3.51562 3.97135,9.92838 0,3.25521 -1.66015,5.95703 -1.62761,2.66927 -4.49219,4.23177 3.25521,1.36719 5.01302,4.16667 1.75781,2.76693 1.75781,6.90104 0,6.41276 -4.26432,10.15625 -4.26432,3.74349 -11.328125,3.74349 -4.296875,0 -7.779948,-1.66016 -3.45052,-1.66015 -5.403645,-4.7526 -1.920573,-3.09245 -1.920573,-7.35677 h 9.602864 q 0,2.44141 1.529948,4.16667 1.529948,1.72526 3.971354,1.72526 2.734375,0 4.361975,-1.72526 1.62761,-1.72526 1.62761,-4.45964 0,-3.67838 -1.39974,-5.27344 -1.39974,-1.59505 -4.06901,-1.59505 h -4.850262 v -7.71484 h 4.882812 q 4.81771,-0.0326 4.81771,-6.31511 z"
       id="path954"
       inkscape:connector-curvature="0"
       style="font-style:normal;font-variant:normal;font-weight:bold;font-stretch:normal;font-size:medium;line-height:1.25;font-family:'Roboto Condensed';-inkscape-font-specification:'Roboto Condensed, Bold';letter-spacing:0px;word-spacing:0px;fill:#ffffff;fill-opacity:1;stroke:none" /><path
       d="m 155.55794,346.99544 h -9.53776 v -20.27995 h -14.1276 v 20.27995 h -9.57031 v -47.39583 h 9.57031 v 19.17318 h 14.1276 v -19.17318 h 9.53776 z"
       id="path956"
       inkscape:connector-curvature="0"
       style="font-style:normal;font-variant:normal;font-weight:bold;font-stretch:normal;font-size:medium;line-height:1.25;font-family:'Roboto Condensed';-inkscape-font-specification:'Roboto Condensed, Bold';letter-spacing:0px;word-spacing:0px;fill:#ffffff;fill-opacity:1;stroke:none" /><path
       d="m 187.68684,326.48763 h -14.90886 v 12.5651 h 17.64323 v 7.94271 h -27.21354 v -47.39583 h 27.14844 v 7.97526 h -17.57813 v 11.19792 h 14.90886 z"
       id="path958"
       inkscape:connector-curvature="0"
       style="font-style:normal;font-variant:normal;font-weight:bold;font-stretch:normal;font-size:medium;line-height:1.25;font-family:'Roboto Condensed';-inkscape-font-specification:'Roboto Condensed, Bold';letter-spacing:0px;word-spacing:0px;fill:#ffffff;fill-opacity:1;stroke:none" /><path
       d="m 228.01887,331.20768 q -0.35807,8.10547 -4.55729,12.27214 -4.19922,4.16666 -11.84896,4.16666 -8.04036,0 -12.33723,-5.27344 -4.26433,-5.30598 -4.26433,-15.10416 v -7.97526 q 0,-9.76563 4.42709,-15.03906 4.42708,-5.30599 12.30468,-5.30599 7.7474,0 11.7513,4.32942 4.03646,4.32943 4.58985,12.4349 h -9.60287 q -0.1302,-5.01302 -1.5625,-6.90104 -1.39974,-1.92057 -5.17578,-1.92057 -3.84114,0 -5.4362,2.70182 -1.59505,2.66927 -1.6927,8.82161 v 8.95182 q 0,7.06381 1.5625,9.70053 1.59505,2.63671 5.43619,2.63671 3.77605,0 5.20834,-1.82291 1.43229,-1.85547 1.6276,-6.67318 z"
       id="path960"
       inkscape:connector-curvature="0"
       style="font-style:normal;font-variant:normal;font-weight:bold;font-stretch:normal;font-size:medium;line-height:1.25;font-family:'Roboto Condensed';-inkscape-font-specification:'Roboto Condensed, Bold';letter-spacing:0px;word-spacing:0px;fill:#ffffff;fill-opacity:1;stroke:none" /><path
       d="m 42.667316,410.32875 h -9.53776 V 390.04881 H 19.001953 v 20.27994 H 9.4316405 v -47.39583 h 9.5703125 v 19.17318 h 14.127603 v -19.17318 h 9.53776 z"
       id="path962"
       inkscape:connector-curvature="0"
       style="font-style:normal;font-variant:normal;font-weight:bold;font-stretch:normal;font-size:medium;line-height:1.25;font-family:'Roboto Condensed';-inkscape-font-specification:'Roboto Condensed, Bold';letter-spacing:0px;word-spacing:0px;fill:#ffffff;fill-opacity:1;stroke:none" /><path
       d="M 73.591795,400.62823 H 60.53841 l -2.539063,9.70052 H 47.87565 l 14.811197,-47.39583 h 8.75651 l 14.908854,47.39583 H 76.130857 Z m -10.970052,-7.97526 h 8.854166 l -4.427083,-16.89453 z"
       id="path964"
       inkscape:connector-curvature="0"
       style="font-style:normal;font-variant:normal;font-weight:bold;font-stretch:normal;font-size:medium;line-height:1.25;font-family:'Roboto Condensed';-inkscape-font-specification:'Roboto Condensed, Bold';letter-spacing:0px;word-spacing:0px;fill:#ffffff;fill-opacity:1;stroke:none" /><path
       d="M 106.92512,393.8574 H 91.007156 v -7.68229 h 15.917964 z"
       id="path966"
       inkscape:connector-curvature="0"
       style="font-style:normal;font-variant:normal;font-weight:bold;font-stretch:normal;font-size:medium;line-height:1.25;font-family:'Roboto Condensed';-inkscape-font-specification:'Roboto Condensed, Bold';letter-spacing:0px;word-spacing:0px;fill:#ffffff;fill-opacity:1;stroke:none" /><path
       d="m 137.65429,400.62823 h -13.05338 l -2.53907,9.70052 h -10.12369 l 14.81119,-47.39583 h 8.75651 l 14.90886,47.39583 h -10.22136 z m -10.97005,-7.97526 h 8.85417 l -4.42709,-16.89453 z"
       id="path968"
       inkscape:connector-curvature="0"
       style="font-style:normal;font-variant:normal;font-weight:bold;font-stretch:normal;font-size:medium;line-height:1.25;font-family:'Roboto Condensed';-inkscape-font-specification:'Roboto Condensed, Bold';letter-spacing:0px;word-spacing:0px;fill:#ffffff;fill-opacity:1;stroke:none" /><path
       d="m 167.37434,362.93292 8.95183,34.27734 8.91927,-34.27734 h 12.5 v 47.39583 h -9.60287 v -12.82552 l 0.87891,-19.75911 -9.47266,32.58463 h -6.51041 l -9.47266,-32.58463 0.87891,19.75911 v 12.82552 h -9.57032 v -47.39583 z"
       id="path970"
       inkscape:connector-curvature="0"
       style="font-style:normal;font-variant:normal;font-weight:bold;font-stretch:normal;font-size:medium;line-height:1.25;font-family:'Roboto Condensed';-inkscape-font-specification:'Roboto Condensed, Bold';letter-spacing:0px;word-spacing:0px;fill:#ffffff;fill-opacity:1;stroke:none" /><path
       d="m 220.36913,383.99412 6.38021,-21.0612 h 10.28646 l -12.98828,38.08594 q -2.21355,5.66406 -4.78516,7.77995 -2.53906,2.11588 -6.11979,2.21354 h -1.04167 l -2.27864,-0.13021 -0.16277,-7.94271 q 0.32553,0.13021 2.11589,0.13021 1.82292,0 2.73437,-0.8138 0.94402,-0.8138 1.62761,-3.64584 l 0.45573,-1.72526 -13.54167,-33.95182 h 10.25391 z"
       id="path972"
       inkscape:connector-curvature="0"
       style="font-style:normal;font-variant:normal;font-weight:bold;font-stretch:normal;font-size:medium;line-height:1.25;font-family:'Roboto Condensed';-inkscape-font-specification:'Roboto Condensed, Bold';letter-spacing:0px;word-spacing:0px;fill:#ffffff;fill-opacity:1;stroke:none" /><path
       d="m 251.68423,393.66209 v 16.66666 h -9.57031 v -47.39583 h 16.14583 q 7.03125,0 11.19792,4.36198 4.19922,4.36198 4.19922,11.32813 0,6.96614 -4.13411,11.0026 -4.13412,4.03646 -11.45834,4.03646 z m 0,-7.97526 h 6.57552 q 2.73438,0 4.23178,-1.79037 1.49739,-1.79036 1.49739,-5.20833 0,-3.54818 -1.52995,-5.63151 -1.52994,-2.11589 -4.10156,-2.14844 h -6.67318 z"
       id="path974"
       inkscape:connector-curvature="0"
       style="font-style:normal;font-variant:normal;font-weight:bold;font-stretch:normal;font-size:medium;line-height:1.25;font-family:'Roboto Condensed';-inkscape-font-specification:'Roboto Condensed, Bold';letter-spacing:0px;word-spacing:0px;fill:#ffffff;fill-opacity:1;stroke:none" /><path
       d="m 304.48371,389.82094 h -14.90885 v 12.56511 h 17.64323 v 7.9427 h -27.21354 v -47.39583 h 27.14843 v 7.97526 h -17.57812 v 11.19792 h 14.90885 z"
       id="path976"
       inkscape:connector-curvature="0"
       style="font-style:normal;font-variant:normal;font-weight:bold;font-stretch:normal;font-size:medium;line-height:1.25;font-family:'Roboto Condensed';-inkscape-font-specification:'Roboto Condensed, Bold';letter-spacing:0px;word-spacing:0px;fill:#ffffff;fill-opacity:1;stroke:none" /></g></svg>