<?xml version="1.0" encoding="UTF-8" standalone="no"?>
<!-- Roman Inozemtsev: https://github.com/mir-one/  -->

<svg
   xmlns:dc="http://purl.org/dc/elements/1.1/"
   xmlns:cc="http://creativecommons.org/ns#"
   xmlns:rdf="http://www.w3.org/1999/02/22-rdf-syntax-ns#"
   xmlns:svg="http://www.w3.org/2000/svg"
   xmlns="http://www.w3.org/2000/svg"
   xmlns:sodipodi="http://sodipodi.sourceforge.net/DTD/sodipodi-0.dtd"
   xmlns:inkscape="http://www.inkscape.org/namespaces/inkscape"
   version="1.1"
   id="Слой_1"
   x="0px"
   y="0px"
   viewBox="0 0 850.56945 543.16785"
   style="image-rendering:optimizeQuality;shape-rendering:geometricPrecision;text-rendering:geometricPrecision"
   xml:space="preserve"
   sodipodi:docname="topleftlogo2.svg"
   width="850.56946"
   height="543.16785"
   inkscape:version="0.92.2pre0 (973e216, 2017-07-25)"><metadata
     id="metadata57"><rdf:RDF><cc:Work
         rdf:about=""><dc:format>image/svg+xml</dc:format><dc:type
           rdf:resource="http://purl.org/dc/dcmitype/StillImage" /></cc:Work></rdf:RDF></metadata><defs
     id="defs55" /><sodipodi:namedview
     pagecolor="#ffffff"
     bordercolor="#666666"
     borderopacity="1"
     objecttolerance="10"
     gridtolerance="10"
     guidetolerance="10"
     inkscape:pageopacity="0"
     inkscape:pageshadow="2"
     inkscape:window-width="1366"
     inkscape:window-height="696"
     id="namedview53"
     showgrid="false"
     inkscape:zoom="0.37723787"
     inkscape:cx="184.64282"
     inkscape:cy="160.85183"
     inkscape:window-x="0"
     inkscape:window-y="0"
     inkscape:window-maximized="1"
     inkscape:current-layer="Слой_1" /><style
     type="text/css"
     id="style2">
	.st0{fill:#ED443E;}
	.st1{fill:#C2232F;}
	.st2{fill:#25A9E0;}
</style><g
     id="g8"
     transform="matrix(3.1689691,0,0,3.1689691,54.99068,0.0645772)"><path
       class="st0"
       d="m 117.5,124.9 c -1.3,0.5 -2,-0.5 -2.9,-1 C 103.5,117.4 92.3,111.1 81.2,104.7 75.4,101.3 69.6,98 63.7,94.6 c -0.8,-0.5 -1,-1 -1,-1.9 0,-20.1 0,-40.3 0,-60.4 0,-1 0.4,-1.6 1.3,-2.2 12.8,-7.3 25.7,-14.8 38.5,-22.2 4.2,-2.4 8.4,-4.8 12.5,-7.2 0.5,-0.3 1,-1 1.6,-0.6 0.6,0.4 0.3,1.3 0.3,1.9 0,9.1 0,18.2 0,27.3 0,1.4 0.4,1.8 1.8,1.8 16.6,0 33,0 49.6,0 0.6,0 1.4,-0.1 2,0.3 -0.1,0.9 -1,0.8 -1.6,1.1 -5.2,3.5 -10.8,6.3 -16.2,9.5 -11.3,6.6 -22.7,13 -33.9,19.5 -0.9,0.5 -1.3,1.1 -1.3,2.3 0,19.8 0,39.5 0,59.3 0,0.4 -0.2,1.1 0.2,1.8 z"
       id="path4"
       inkscape:connector-curvature="0"
       style="fill:#ed443e" /><path
       class="st1"
       d="m 117.5,124.9 c -0.4,-0.6 -0.3,-1.3 -0.3,-2 0,-19.8 0,-39.5 0,-59.3 0,-1.1 0.4,-1.8 1.3,-2.3 11.4,-6.5 22.7,-12.9 33.9,-19.5 5.4,-3.2 11,-6.1 16.2,-9.5 0.5,-0.4 1.5,-0.3 1.6,-1.1 0.6,0.4 0.6,0.5 0.1,1.3 -2.7,4.7 -5.3,9.2 -8,13.9 -5.8,10.3 -11.8,20.4 -17.7,30.6 -0.6,1.1 -0.3,1.5 0.6,2 8.1,4.7 16.1,9.4 24.2,14.1 0.5,0.3 0.9,0.6 1.6,1 -2.9,1.6 -5.6,3.3 -8.4,4.8 -14.9,8.6 -30,17.3 -44.9,26 0.2,-0.2 -0.1,-0.2 -0.2,0 z"
       id="path6"
       inkscape:connector-curvature="0"
       style="fill:#c2232f" /></g><g
     aria-label="БИЗНЕС-НА-АМУРЕ"
     transform="matrix(0.97271628,0,0,0.97271628,316.43803,-15.613345)"
     style="font-style:normal;font-variant:normal;font-weight:bold;font-stretch:normal;font-size:106.66666412px;line-height:1.25;font-family:'Roboto Condensed';-inkscape-font-specification:'Roboto Condensed, Bold';letter-spacing:0px;word-spacing:0px;fill:#24a8e0;fill-opacity:0.90980392;stroke:none"
     id="flowRoot969"><path
       d="m -282.76172,510.28776 h -27.1875 v 14.47917 h 9.0625 q 11.51042,0 18.33333,6.5625 6.82292,6.51041 6.82292,17.44791 0,10.88542 -6.66667,17.65625 -6.66666,6.71875 -17.65625,6.92708 h -25.26041 v -75.83333 h 42.55208 z m -27.1875,27.1875 v 23.17708 h 9.27083 q 4.47917,0 7.03125,-3.33333 2.60417,-3.38542 2.60417,-8.64583 0,-4.94792 -2.55208,-8.02084 -2.5,-3.125 -6.97917,-3.17708 z"
       id="path977"
       inkscape:connector-curvature="0" /><path
       d="m -229.79297,497.52734 h 15.3125 v 75.83333 h -15.3125 v -50.20833 l -22.34375,50.20833 h -15.36458 v -75.83333 h 15.36458 v 50.26042 z"
       id="path979"
       inkscape:connector-curvature="0" /><path
       d="m -171.98048,518.41276 q 0,-4.16667 -2.34375,-6.66667 -2.29167,-2.5 -6.25,-2.5 -3.48958,0 -5.72917,2.44792 -2.1875,2.39583 -2.1875,6.40625 h -15.3125 q 0,-6.30208 3.02084,-11.19792 3.07291,-4.94791 8.4375,-7.65625 5.36458,-2.70833 11.77083,-2.70833 11.30208,0 17.60417,5.67708 6.35416,5.625 6.35416,15.88542 0,5.20833 -2.65625,9.53125 -2.60416,4.27083 -7.1875,6.77083 5.20834,2.1875 8.02084,6.66667 2.8125,4.42708 2.8125,11.04167 0,10.26041 -6.82292,16.24999 -6.82292,5.98959 -18.125,5.98959 -6.875,0 -12.44792,-2.65625 -5.52083,-2.65625 -8.64583,-7.60417 -3.07292,-4.94791 -3.07292,-11.77083 h 15.36459 q 0,3.90625 2.44791,6.66667 2.44792,2.76041 6.35417,2.76041 4.375,0 6.97917,-2.76041 2.60416,-2.76042 2.60416,-7.13542 0,-5.88542 -2.23958,-8.4375 -2.23958,-2.55208 -6.51042,-2.55208 h -7.76041 v -12.34375 h 7.8125 q 7.70833,-0.0521 7.70833,-10.10417 z"
       id="path981"
       inkscape:connector-curvature="0" /><path
       d="m -91.459637,573.36067 h -15.260413 v -32.44791 h -22.60417 v 32.44791 h -15.3125 v -75.83333 h 15.3125 v 30.67709 h 22.60417 v -30.67709 h 15.260413 z"
       id="path983"
       inkscape:connector-curvature="0" /><path
       d="m -40.053397,540.54818 h -23.854166 v 20.10416 h 28.229166 v 12.70833 h -43.541665 v -75.83333 h 43.437499 v 12.76042 h -28.125 v 17.91667 h 23.854166 z"
       id="path985"
       inkscape:connector-curvature="0" /><path
       d="m 24.477843,548.10026 q -0.572917,12.96875 -7.291667,19.63541 -6.718749,6.66667 -18.9583325,6.66667 -12.8645835,0 -19.7395825,-8.4375 -6.822917,-8.48958 -6.822917,-24.16666 v -12.76042 q 0,-15.625 7.083333,-24.0625 7.083333,-8.48958 19.6874998,-8.48958 12.3958332,0 18.8020832,6.92708 6.458333,6.92708 7.34375,19.89583 H 9.2174266 q -0.2083334,-8.02083 -2.5,-11.04166 -2.2395833,-3.07292 -8.2812498,-3.07292 -6.1458332,0 -8.6979168,4.32292 -2.552083,4.27083 -2.708333,14.11458 v 14.32292 q 0,11.30208 2.5,15.52083 2.5520833,4.21875 8.6979165,4.21875 6.0416665,0 8.3333331,-2.91667 2.2916666,-2.96875 2.6041666,-10.67708 z"
       id="path987"
       inkscape:connector-curvature="0" /><path
       d="M 59.686187,547.00651 H 34.217438 v -12.29167 h 25.468749 z"
       id="path989"
       inkscape:connector-curvature="0" /><path
       d="M 125.83202,573.36067 H 110.5716 V 540.91276 H 87.967437 v 32.44791 H 72.654938 v -75.83333 h 15.312499 v 30.67709 H 110.5716 v -30.67709 h 15.26042 z"
       id="path991"
       inkscape:connector-curvature="0" /><path
       d="m 175.31117,557.83984 h -20.88542 l -4.0625,15.52083 h -16.19792 l 23.69792,-75.83333 h 14.01042 l 23.85416,75.83333 h -16.35416 z m -17.55209,-12.76041 h 14.16667 l -7.08333,-27.03125 z"
       id="path993"
       inkscape:connector-curvature="0" /><path
       d="m 228.64453,547.00651 h -25.46875 v -12.29167 h 25.46875 z"
       id="path995"
       inkscape:connector-curvature="0" /><path
       d="m 277.8112,557.83984 h -20.88542 l -4.0625,15.52083 h -16.19792 l 23.69792,-75.83333 h 14.01042 l 23.85416,75.83333 H 281.8737 Z m -17.55209,-12.76041 h 14.16667 l -7.08333,-27.03125 z"
       id="path997"
       inkscape:connector-curvature="0" /><path
       d="m 325.36328,497.52734 14.32292,54.84375 14.27083,-54.84375 h 20 v 75.83333 h -15.36458 v -20.52083 l 1.40625,-31.61458 -15.15625,52.13541 h -10.41667 l -15.15625,-52.13541 1.40625,31.61458 v 20.52083 h -15.3125 v -75.83333 z"
       id="path999"
       inkscape:connector-curvature="0" /><path
       d="m 410.15493,531.22526 10.20833,-33.69792 h 16.45833 l -20.78125,60.9375 q -3.54166,9.0625 -7.65625,12.44792 -4.0625,3.38541 -9.79166,3.54166 h -1.66667 l -3.64583,-0.20833 -0.26042,-12.70833 q 0.52083,0.20833 3.38542,0.20833 2.91666,0 4.375,-1.30208 1.51041,-1.30208 2.60416,-5.83333 l 0.72917,-2.76042 -21.66667,-54.32292 h 16.40625 z"
       id="path1001"
       inkscape:connector-curvature="0" /><path
       d="m 460.25909,546.69401 v 26.66666 h -15.3125 v -75.83333 h 25.83334 q 11.25,0 17.91666,6.97917 6.71875,6.97917 6.71875,18.125 0,11.14583 -6.61458,17.60417 -6.61458,6.45833 -18.33333,6.45833 z m 0,-12.76042 h 10.52084 q 4.375,0 6.77083,-2.86458 2.39583,-2.86458 2.39583,-8.33333 0,-5.67709 -2.44791,-9.01042 -2.44792,-3.38542 -6.5625,-3.4375 h -10.67709 z"
       id="path1003"
       inkscape:connector-curvature="0" /><path
       d="m 544.73826,540.54818 h -23.85417 v 20.10416 h 28.22917 v 12.70833 h -43.54167 v -75.83333 h 43.4375 v 12.76042 h -28.125 v 17.91667 h 23.85417 z"
       id="path1005"
       inkscape:connector-curvature="0" /></g></svg>