<?xml version="1.0" encoding="utf-8"?>
<!-- Roman Inozemtsev: https://github.com/mir-one/  -->
<svg version="1.1"
	 id="Слой_1" image-rendering="optimizeQuality" text-rendering="geometricPrecision" shape-rendering="geometricPrecision"
	 xmlns="http://www.w3.org/2000/svg" xmlns:xlink="http://www.w3.org/1999/xlink" x="0px" y="0px" viewBox="0 0 236 156.4"
	 style="enable-background:new 0 0 236 156.4;" xml:space="preserve">
<style type="text/css">
	.st0{fill:#FFFFFF;}
</style>
<path class="st0" d="M171.6,94.1c-8.1-4.7-16.1-9.4-24.2-14.1c-0.9-0.5-1.3-0.9-0.6-2c6-10.3,11.9-20.4,17.7-30.6
	c2.7-4.7,5.3-9.2,8-13.9c0.5-0.8,0.5-0.9-0.1-1.3c0,0,0,0.1,0,0.1c-0.6-0.4-1.4-0.2-2-0.2c-16.6,0-33,0-49.6,0
	c-1.4,0-1.8-0.4-1.8-1.8c0-9.1,0-18.2,0-27.3c0-0.6,0.4-1.5-0.3-1.9s-1.1,0.4-1.6,0.6c-4.2,2.4-8.4,4.8-12.5,7.2
	C91.7,16.2,78.8,23.7,66,31c-0.9,0.5-1.3,1.1-1.3,2.2c0,20.1,0,40.3,0,60.4c0,0.9,0.3,1.4,1,1.9c5.8,3.4,11.6,6.7,17.5,10.1
	c11.1,6.5,22.3,12.8,33.4,19.2c0.9,0.5,1.6,1.5,2.9,1c0.1-0.1,0.4-0.1,0.4,0c14.9-8.6,30-17.3,44.9-26c2.8-1.5,5.4-3.2,8.4-4.8
	C172.4,94.7,172.1,94.3,171.6,94.1z M119.3,124.4c0,0.2,0,0.3,0,0.5C119.2,124.7,119.2,124.5,119.3,124.4z"/>
<g>
	<path class="st0" d="M6.2,150H4.9v5.9H2v-14.4h2.9v5.8h1l2.5-5.8h3.5l-3.5,6.7l3.9,7.7H8.9L6.2,150z"/>
	<path class="st0" d="M23.2,149.9c0,1-0.1,1.9-0.4,2.7c-0.3,0.8-0.6,1.4-1.1,1.9c-0.5,0.5-1,0.9-1.6,1.1c-0.6,0.3-1.3,0.4-2.1,0.4
		c-0.8,0-1.5-0.1-2.1-0.4c-0.6-0.3-1.2-0.6-1.6-1.1c-0.5-0.5-0.8-1.1-1.1-1.9c-0.3-0.8-0.4-1.7-0.4-2.7v-2.4c0-1,0.1-1.9,0.4-2.7
		c0.3-0.8,0.6-1.4,1.1-2c0.5-0.5,1-0.9,1.6-1.2c0.6-0.3,1.3-0.4,2.1-0.4c0.8,0,1.5,0.1,2.1,0.4c0.6,0.3,1.2,0.7,1.6,1.2
		c0.5,0.5,0.8,1.2,1.1,2c0.3,0.8,0.4,1.7,0.4,2.7V149.9z M20.3,147.5c0-0.7,0-1.3-0.1-1.8c-0.1-0.5-0.2-0.9-0.4-1.2
		c-0.2-0.3-0.4-0.5-0.7-0.7c-0.3-0.1-0.6-0.2-1-0.2c-0.4,0-0.7,0.1-1,0.2c-0.3,0.1-0.5,0.4-0.7,0.7c-0.2,0.3-0.3,0.7-0.4,1.2
		c-0.1,0.5-0.1,1.1-0.1,1.8v2.4c0,0.7,0,1.2,0.1,1.7c0.1,0.5,0.2,0.8,0.4,1.1c0.2,0.3,0.4,0.5,0.7,0.7c0.3,0.1,0.6,0.2,1,0.2
		c0.4,0,0.7-0.1,1-0.2c0.3-0.1,0.5-0.4,0.7-0.7c0.2-0.3,0.3-0.7,0.4-1.1c0.1-0.5,0.1-1,0.1-1.7V147.5z"/>
	<path class="st0" d="M29.1,141.4l2.7,10.4l2.7-10.4h3.8v14.4h-2.9v-3.9l0.3-6l-2.9,9.9h-2l-2.9-9.9l0.3,6v3.9h-2.9v-14.4H29.1z"/>
	<path class="st0" d="M50.5,151c-0.1,1.6-0.5,2.9-1.4,3.7c-0.9,0.8-2.1,1.3-3.6,1.3c-0.8,0-1.5-0.1-2.1-0.4
		c-0.6-0.3-1.2-0.7-1.6-1.2c-0.4-0.5-0.8-1.2-1-1.9c-0.2-0.8-0.3-1.7-0.3-2.7v-2.5c0-1,0.1-1.9,0.4-2.7c0.2-0.8,0.6-1.4,1-1.9
		c0.4-0.5,1-0.9,1.6-1.2c0.6-0.3,1.3-0.4,2.1-0.4c1.6,0,2.8,0.4,3.6,1.3c0.8,0.9,1.3,2.1,1.4,3.8h-2.9c0-0.5-0.1-0.9-0.1-1.3
		c-0.1-0.3-0.2-0.6-0.4-0.8c-0.2-0.2-0.4-0.4-0.6-0.4c-0.3-0.1-0.6-0.1-0.9-0.1c-0.4,0-0.7,0.1-1,0.2c-0.3,0.1-0.5,0.3-0.7,0.6
		c-0.2,0.3-0.3,0.7-0.4,1.2c-0.1,0.5-0.1,1.1-0.1,1.8v2.5c0,0.7,0,1.2,0.1,1.7c0.1,0.5,0.2,0.9,0.3,1.2c0.2,0.3,0.4,0.5,0.7,0.7
		c0.3,0.1,0.6,0.2,1,0.2c0.4,0,0.7,0,0.9-0.1c0.3-0.1,0.5-0.2,0.6-0.4s0.3-0.5,0.4-0.8c0.1-0.3,0.1-0.8,0.2-1.3H50.5z"/>
	<path class="st0" d="M62.4,149.9c0,1-0.1,1.9-0.4,2.7c-0.3,0.8-0.6,1.4-1.1,1.9c-0.5,0.5-1,0.9-1.6,1.1c-0.6,0.3-1.3,0.4-2.1,0.4
		s-1.5-0.1-2.1-0.4c-0.6-0.3-1.2-0.6-1.6-1.1c-0.5-0.5-0.8-1.1-1.1-1.9c-0.3-0.8-0.4-1.7-0.4-2.7v-2.4c0-1,0.1-1.9,0.4-2.7
		c0.3-0.8,0.6-1.4,1.1-2c0.5-0.5,1-0.9,1.6-1.2c0.6-0.3,1.3-0.4,2.1-0.4c0.8,0,1.5,0.1,2.1,0.4c0.6,0.3,1.2,0.7,1.6,1.2
		c0.5,0.5,0.8,1.2,1.1,2c0.3,0.8,0.4,1.7,0.4,2.7V149.9z M59.5,147.5c0-0.7,0-1.3-0.1-1.8c-0.1-0.5-0.2-0.9-0.4-1.2
		c-0.2-0.3-0.4-0.5-0.7-0.7c-0.3-0.1-0.6-0.2-1-0.2c-0.4,0-0.7,0.1-1,0.2c-0.3,0.1-0.5,0.4-0.7,0.7c-0.2,0.3-0.3,0.7-0.4,1.2
		c-0.1,0.5-0.1,1.1-0.1,1.8v2.4c0,0.7,0,1.2,0.1,1.7c0.1,0.5,0.2,0.8,0.4,1.1c0.2,0.3,0.4,0.5,0.7,0.7c0.3,0.1,0.6,0.2,1,0.2
		c0.4,0,0.7-0.1,1-0.2c0.3-0.1,0.5-0.4,0.7-0.7c0.2-0.3,0.3-0.7,0.4-1.1c0.1-0.5,0.1-1,0.1-1.7V147.5z"/>
	<path class="st0" d="M68.3,141.4l2.7,10.4l2.7-10.4h3.8v14.4h-2.9v-3.9l0.3-6l-2.9,9.9h-2l-2.9-9.9l0.3,6v3.9h-2.9v-14.4H68.3z"/>
	<path class="st0" d="M90,149.9c0,1-0.1,1.9-0.4,2.7c-0.3,0.8-0.6,1.4-1.1,1.9c-0.5,0.5-1,0.9-1.6,1.1c-0.6,0.3-1.3,0.4-2.1,0.4
		c-0.8,0-1.5-0.1-2.1-0.4c-0.6-0.3-1.2-0.6-1.6-1.1c-0.5-0.5-0.8-1.1-1.1-1.9c-0.3-0.8-0.4-1.7-0.4-2.7v-2.4c0-1,0.1-1.9,0.4-2.7
		c0.3-0.8,0.6-1.4,1.1-2c0.5-0.5,1-0.9,1.6-1.2c0.6-0.3,1.3-0.4,2.1-0.4c0.8,0,1.5,0.1,2.1,0.4c0.6,0.3,1.2,0.7,1.6,1.2
		c0.5,0.5,0.8,1.2,1.1,2c0.3,0.8,0.4,1.7,0.4,2.7V149.9z M87.1,147.5c0-0.7,0-1.3-0.1-1.8c-0.1-0.5-0.2-0.9-0.4-1.2
		c-0.2-0.3-0.4-0.5-0.7-0.7c-0.3-0.1-0.6-0.2-1-0.2c-0.4,0-0.7,0.1-1,0.2c-0.3,0.1-0.5,0.4-0.7,0.7c-0.2,0.3-0.3,0.7-0.4,1.2
		c-0.1,0.5-0.1,1.1-0.1,1.8v2.4c0,0.7,0,1.2,0.1,1.7c0.1,0.5,0.2,0.8,0.4,1.1c0.2,0.3,0.4,0.5,0.7,0.7c0.3,0.1,0.6,0.2,1,0.2
		c0.4,0,0.7-0.1,1-0.2c0.3-0.1,0.5-0.4,0.7-0.7c0.2-0.3,0.3-0.7,0.4-1.1c0.1-0.5,0.1-1,0.1-1.7V147.5z"/>
	<path class="st0" d="M101.8,141.4v14.4h-2.9v-12h-2.6l-0.1,4.1c-0.1,1.5-0.2,2.7-0.4,3.7c-0.2,1-0.5,1.8-0.8,2.4
		c-0.4,0.6-0.8,1.1-1.3,1.4s-1.1,0.4-1.8,0.4h-0.7v-2.4h0.3c0.4,0,0.7-0.2,0.9-0.4c0.2-0.2,0.4-0.5,0.5-0.9c0.1-0.4,0.2-1,0.2-1.7
		s0.1-1.5,0.1-2.6l0.2-6.5H101.8z"/>
	<path class="st0" d="M107.1,146.6h1.8c0.7,0,1.4,0.1,2,0.3c0.6,0.2,1.1,0.5,1.5,0.9c0.4,0.4,0.7,0.9,0.9,1.4
		c0.2,0.6,0.3,1.2,0.3,1.9c0,0.7-0.1,1.3-0.3,1.9c-0.2,0.6-0.5,1.1-0.9,1.5c-0.4,0.4-0.9,0.7-1.5,1c-0.6,0.2-1.2,0.3-2,0.3h-4.7
		v-14.4h2.9V146.6z M107.1,149v4.4h1.8c0.3,0,0.6-0.1,0.8-0.2c0.2-0.1,0.4-0.3,0.6-0.5c0.2-0.2,0.3-0.5,0.3-0.7
		c0.1-0.3,0.1-0.6,0.1-0.9c0-0.3,0-0.6-0.1-0.8c-0.1-0.3-0.2-0.5-0.3-0.7c-0.2-0.2-0.3-0.3-0.6-0.5c-0.2-0.1-0.5-0.2-0.8-0.2H107.1z
		"/>
	<path class="st0" d="M125.1,151c-0.1,1.6-0.5,2.9-1.4,3.7c-0.9,0.8-2.1,1.3-3.6,1.3c-0.8,0-1.5-0.1-2.1-0.4
		c-0.6-0.3-1.2-0.7-1.6-1.2c-0.4-0.5-0.8-1.2-1-1.9c-0.2-0.8-0.3-1.7-0.3-2.7v-2.5c0-1,0.1-1.9,0.4-2.7c0.2-0.8,0.6-1.4,1-1.9
		s1-0.9,1.6-1.2c0.6-0.3,1.3-0.4,2.1-0.4c1.6,0,2.8,0.4,3.6,1.3c0.8,0.9,1.3,2.1,1.4,3.8h-2.9c0-0.5-0.1-0.9-0.1-1.3
		c-0.1-0.3-0.2-0.6-0.4-0.8c-0.2-0.2-0.4-0.4-0.6-0.4c-0.3-0.1-0.6-0.1-0.9-0.1c-0.4,0-0.7,0.1-1,0.2c-0.3,0.1-0.5,0.3-0.7,0.6
		c-0.2,0.3-0.3,0.7-0.4,1.2c-0.1,0.5-0.1,1.1-0.1,1.8v2.5c0,0.7,0,1.2,0.1,1.7c0.1,0.5,0.2,0.9,0.3,1.2c0.2,0.3,0.4,0.5,0.7,0.7
		c0.3,0.1,0.6,0.2,1,0.2c0.4,0,0.7,0,0.9-0.1c0.3-0.1,0.5-0.2,0.6-0.4s0.3-0.5,0.4-0.8c0.1-0.3,0.1-0.8,0.2-1.3H125.1z"/>
	<path class="st0" d="M131.1,150h-1.3v5.9h-2.9v-14.4h2.9v5.8h1l2.5-5.8h3.5l-3.5,6.7l3.9,7.7h-3.5L131.1,150z"/>
	<path class="st0" d="M141.6,150.8h-4.8v-2.3h4.8V150.8z"/>
	<path class="st0" d="M154.1,155.8h-2.9v-6.2h-4.3v6.2H144v-14.4h2.9v5.8h4.3v-5.8h2.9V155.8z"/>
	<path class="st0" d="M163.5,152.9h-4l-0.8,2.9h-3.1l4.5-14.4h2.7l4.5,14.4h-3.1L163.5,152.9z M160.2,150.5h2.7l-1.3-5.1
		L160.2,150.5z"/>
	<path class="st0" d="M173.6,150.8h-4.8v-2.3h4.8V150.8z"/>
	<path class="st0" d="M183,152.9h-4l-0.8,2.9h-3.1l4.5-14.4h2.7l4.5,14.4h-3.1L183,152.9z M179.6,150.5h2.7l-1.3-5.1L179.6,150.5z"
		/>
	<path class="st0" d="M192,141.4l2.7,10.4l2.7-10.4h3.8v14.4h-2.9v-3.9l0.3-6l-2.9,9.9h-2l-2.9-9.9l0.3,6v3.9h-2.9v-14.4H192z"/>
	<path class="st0" d="M208.1,147.8l1.9-6.4h3.1l-3.9,11.6c-0.2,0.4-0.3,0.8-0.5,1.2c-0.2,0.4-0.4,0.7-0.7,1
		c-0.3,0.3-0.6,0.5-0.9,0.7s-0.8,0.2-1.3,0.2c-0.1,0-0.1,0-0.2,0s-0.2,0-0.3,0s-0.2,0-0.2,0c-0.1,0-0.1,0-0.2,0l-0.1-2.4
		c0,0,0.1,0,0.1,0c0.1,0,0.1,0,0.2,0c0.1,0,0.1,0,0.2,0c0.1,0,0.1,0,0.1,0c0.2,0,0.4,0,0.6-0.1s0.3-0.1,0.4-0.3
		c0.1-0.1,0.2-0.3,0.2-0.4c0.1-0.2,0.1-0.4,0.2-0.6l0.1-0.5l-4.1-10.3h3.1L208.1,147.8z"/>
	<path class="st0" d="M217.6,150.8v5.1h-2.9v-14.4h4.9c0.7,0,1.4,0.1,2,0.4c0.6,0.2,1.1,0.6,1.5,1c0.4,0.4,0.7,0.9,0.9,1.5
		c0.2,0.6,0.3,1.2,0.3,1.9c0,0.7-0.1,1.3-0.3,1.9c-0.2,0.6-0.5,1-0.9,1.4c-0.4,0.4-0.9,0.7-1.5,0.9c-0.6,0.2-1.2,0.3-2,0.3H217.6z
		 M217.6,148.3h2c0.3,0,0.6-0.1,0.8-0.2c0.2-0.1,0.4-0.3,0.5-0.4c0.1-0.2,0.2-0.4,0.3-0.7s0.1-0.5,0.1-0.9c0-0.3,0-0.6-0.1-0.9
		c-0.1-0.3-0.2-0.5-0.3-0.8c-0.1-0.2-0.3-0.4-0.5-0.5c-0.2-0.1-0.5-0.2-0.8-0.2h-2V148.3z"/>
	<path class="st0" d="M233.7,149.6h-4.5v3.8h5.4v2.4h-8.3v-14.4h8.2v2.4h-5.3v3.4h4.5V149.6z"/>
</g>
</svg>
