<?xml version="1.0" encoding="UTF-8" standalone="no"?>
<!-- Roman Inozemtsev: https://github.com/mir-one/  -->

<svg
   xmlns:dc="http://purl.org/dc/elements/1.1/"
   xmlns:cc="http://creativecommons.org/ns#"
   xmlns:rdf="http://www.w3.org/1999/02/22-rdf-syntax-ns#"
   xmlns:svg="http://www.w3.org/2000/svg"
   xmlns="http://www.w3.org/2000/svg"
   xmlns:sodipodi="http://sodipodi.sourceforge.net/DTD/sodipodi-0.dtd"
   xmlns:inkscape="http://www.inkscape.org/namespaces/inkscape"
   version="1.1"
   id="Слой_1"
   x="0px"
   y="0px"
   viewBox="0 0 252.19849 63.467127"
   style="image-rendering:optimizeQuality;shape-rendering:geometricPrecision;text-rendering:geometricPrecision"
   xml:space="preserve"
   sodipodi:docname="topleftlogo_hor.svg"
   width="252.19849"
   height="63.467129"
   inkscape:version="0.92.2pre0 (973e216, 2017-07-25)"><metadata
     id="metadata51"><rdf:RDF><cc:Work
         rdf:about=""><dc:format>image/svg+xml</dc:format><dc:type
           rdf:resource="http://purl.org/dc/dcmitype/StillImage" /></cc:Work></rdf:RDF></metadata><defs
     id="defs49" /><sodipodi:namedview
     pagecolor="#ffffff"
     bordercolor="#666666"
     borderopacity="1"
     objecttolerance="10"
     gridtolerance="10"
     guidetolerance="10"
     inkscape:pageopacity="0"
     inkscape:pageshadow="2"
     inkscape:window-width="1366"
     inkscape:window-height="696"
     id="namedview47"
     showgrid="false"
     inkscape:zoom="1.3013586"
     inkscape:cx="186.29915"
     inkscape:cy="40.403398"
     inkscape:window-x="0"
     inkscape:window-y="0"
     inkscape:window-maximized="1"
     inkscape:current-layer="g927" /><style
     type="text/css"
     id="style2">
	.st0{fill:#25A9E0;}
</style><g
     id="g44"
     transform="translate(-2.6288447,-3.9029563)"><g
       aria-label="КОМСОМОЛЬСК-НА-АМУРЕ"
       transform="translate(39.95824,-5.0980683)"
       style="font-style:normal;font-weight:normal;font-size:40px;line-height:1.25;font-family:sans-serif;letter-spacing:0px;word-spacing:0px;fill:#25a9e0;fill-opacity:1;stroke:none"
       id="flowRoot858"><g
         id="g927"
         transform="matrix(0.65687837,0,0,0.78974748,-9.0746445,-42.640789)"><path
           inkscape:connector-curvature="0"
           id="path866"
           style="font-style:normal;font-variant:normal;font-weight:bold;font-stretch:normal;font-family:'Roboto Condensed';-inkscape-font-specification:'Roboto Condensed, Bold';fill:#25a9e0;fill-opacity:1;stroke-width:1.13237715"
           d="m -33.718005,89.254726 h -2.819538 V 102.4452 h -6.476129 V 70.112984 h 6.476129 v 12.924008 h 2.180735 l 5.572996,-12.924008 h 7.885894 l -7.841841,15.055801 8.722948,17.276415 h -7.709675 z" /><path
           inkscape:connector-curvature="0"
           id="path868"
           style="font-style:normal;font-variant:normal;font-weight:bold;font-stretch:normal;font-family:'Roboto Condensed';-inkscape-font-specification:'Roboto Condensed, Bold';fill:#25a9e0;fill-opacity:1;stroke-width:1.13237715"
           d="m 4.2796801,89.188107 q 0,6.506414 -3.0618428,10.103818 -3.0398152,3.597405 -8.4586157,3.597405 -5.3967726,0 -8.4806426,-3.552995 -3.083871,-3.575195 -3.127926,-9.992784 v -5.529344 q 0,-6.661859 3.061843,-10.3925 3.061843,-3.752846 8.5026709,-3.752846 5.3527171,0 8.4365875,3.686228 3.0838699,3.664023 3.1279257,10.303675 z m -6.4981556,-5.418311 q 0,-4.374621 -1.233548,-6.506416 -1.2335481,-2.131794 -3.8328096,-2.131794 -2.5772352,0 -3.8107839,2.065175 -1.233547,2.042971 -1.277602,6.239941 v 5.751405 q 0,4.241383 1.255575,6.262147 1.2555757,1.998557 3.8768656,1.998557 2.5331793,0 3.7667273,-1.954145 1.2335481,-1.976351 1.2555756,-6.106704 z" /><path
           inkscape:connector-curvature="0"
           id="path870"
           style="font-style:normal;font-variant:normal;font-weight:bold;font-stretch:normal;font-family:'Roboto Condensed';-inkscape-font-specification:'Roboto Condensed, Bold';fill:#25a9e0;fill-opacity:1;stroke-width:1.13237715"
           d="m 17.386129,70.112984 6.057599,23.383125 6.035577,-23.383125 H 37.93792 V 102.4452 H 31.439764 V 93.695965 L 32.03451,80.216804 25.624466,102.4452 H 21.218937 L 14.808893,80.216804 15.403639,93.695965 V 102.4452 H 8.927513 V 70.112984 Z" /><path
           inkscape:connector-curvature="0"
           id="path872"
           style="font-style:normal;font-variant:normal;font-weight:bold;font-stretch:normal;font-family:'Roboto Condensed';-inkscape-font-specification:'Roboto Condensed, Bold';fill:#25a9e0;fill-opacity:1;stroke-width:1.13237715"
           d="m 64.855699,91.675201 q -0.242303,5.529342 -3.083869,8.371729 -2.841567,2.8424 -8.018064,2.8424 -5.440825,0 -8.348476,-3.597405 -2.885621,-3.619609 -2.885621,-10.303673 v -5.440519 q 0,-6.661858 2.99576,-10.259263 2.995759,-3.619609 8.326449,-3.619609 5.242579,0 7.951979,2.953423 2.731429,2.953425 3.105899,8.482767 h -6.498155 q -0.08811,-3.419754 -1.057328,-4.707713 -0.947188,-1.310166 -3.502395,-1.310166 -2.599262,0 -3.678616,1.843115 -1.079355,1.820907 -1.145437,6.01788 v 6.106702 q 0,4.818745 1.057327,6.617447 1.079355,1.798699 3.678614,1.798699 2.555208,0 3.524424,-1.243545 0.969217,-1.265752 1.101383,-4.552269 z" /><path
           inkscape:connector-curvature="0"
           id="path874"
           style="font-style:normal;font-variant:normal;font-weight:bold;font-stretch:normal;font-family:'Roboto Condensed';-inkscape-font-specification:'Roboto Condensed, Bold';fill:#25a9e0;fill-opacity:1;stroke-width:1.13237715"
           d="m 91.42104,89.188107 q 0,6.506414 -3.061851,10.103818 -3.039802,3.597405 -8.458608,3.597405 -5.39677,0 -8.480642,-3.552995 -3.08387,-3.575195 -3.127928,-9.992784 v -5.529344 q 0,-6.661859 3.061845,-10.3925 3.061844,-3.752846 8.50267,-3.752846 5.352711,0 8.436591,3.686228 3.083863,3.664023 3.127923,10.303675 z m -6.498157,-5.418311 q 0,-4.374621 -1.233549,-6.506416 -1.23354,-2.131794 -3.832808,-2.131794 -2.577237,0 -3.810783,2.065175 -1.233546,2.042971 -1.277601,6.239941 v 5.751405 q 0,4.241383 1.255573,6.262147 1.255574,1.998557 3.876866,1.998557 2.533178,0 3.766727,-1.954145 1.233549,-1.976351 1.255575,-6.106704 z" /><path
           inkscape:connector-curvature="0"
           id="path876"
           style="font-style:normal;font-variant:normal;font-weight:bold;font-stretch:normal;font-family:'Roboto Condensed';-inkscape-font-specification:'Roboto Condensed, Bold';fill:#25a9e0;fill-opacity:1;stroke-width:1.13237715"
           d="m 104.52748,70.112984 6.05761,23.383125 6.03557,-23.383125 h 8.45862 V 102.4452 h -6.49815 v -8.749235 l 0.59474,-13.479161 -6.41005,22.228396 H 108.3603 L 101.95026,80.216804 102.545,93.695965 V 102.4452 H 96.068878 V 70.112984 Z" /><path
           inkscape:connector-curvature="0"
           id="path878"
           style="font-style:normal;font-variant:normal;font-weight:bold;font-stretch:normal;font-family:'Roboto Condensed';-inkscape-font-specification:'Roboto Condensed, Bold';fill:#25a9e0;fill-opacity:1;stroke-width:1.13237715"
           d="m 152.83411,89.188107 q 0,6.506414 -3.06184,10.103818 -3.03982,3.597405 -8.45861,3.597405 -5.39678,0 -8.48064,-3.552995 -3.08388,-3.575195 -3.12794,-9.992784 v -5.529344 q 0,-6.661859 3.06184,-10.3925 3.06186,-3.752846 8.50268,-3.752846 5.35272,0 8.43657,3.686228 3.08389,3.664023 3.12794,10.303675 z m -6.49816,-5.418311 q 0,-4.374621 -1.23354,-6.506416 -1.23356,-2.131794 -3.83281,-2.131794 -2.57724,0 -3.81078,2.065175 -1.23355,2.042971 -1.27762,6.239941 v 5.751405 q 0,4.241383 1.25559,6.262147 1.25557,1.998557 3.87687,1.998557 2.53316,0 3.76673,-1.954145 1.23353,-1.976351 1.25556,-6.106704 z" /><path
           inkscape:connector-curvature="0"
           id="path880"
           style="font-style:normal;font-variant:normal;font-weight:bold;font-stretch:normal;font-family:'Roboto Condensed';-inkscape-font-specification:'Roboto Condensed, Bold';fill:#25a9e0;fill-opacity:1;stroke-width:1.13237715"
           d="M 179.26728,70.112984 V 102.4452 h -6.49816 V 75.553502 h -5.94746 L 166.38111,87.0119 q -0.26433,5.66258 -1.27761,8.993509 -0.99124,3.308726 -2.92968,4.863151 -1.91641,1.55444 -5.17648,1.57664 h -1.58601 v -5.418306 l 0.74894,-0.06661 q 2.02655,-0.244268 2.90767,-2.664744 0.90314,-2.442681 1.1234,-8.616004 l 0.41852,-15.566543 z" /><path
           inkscape:connector-curvature="0"
           id="path882"
           style="font-style:normal;font-variant:normal;font-weight:bold;font-stretch:normal;font-family:'Roboto Condensed';-inkscape-font-specification:'Roboto Condensed, Bold';fill:#25a9e0;fill-opacity:1;stroke-width:1.13237715"
           d="m 191.00801,81.726825 h 3.83282 q 4.86811,0 7.75374,2.79798 2.8856,2.775776 2.8856,7.439076 0,4.641095 -2.81953,7.527904 -2.81954,2.864595 -7.46736,2.953415 H 184.50986 V 70.112984 h 6.49815 z m 0,5.418312 v 9.881757 h 3.92092 q 1.89438,0 2.97373,-1.421197 1.10138,-1.443402 1.10138,-3.686228 0,-2.109589 -1.07934,-3.419755 -1.05732,-1.332371 -2.95172,-1.354577 z" /><path
           inkscape:connector-curvature="0"
           id="path884"
           style="font-style:normal;font-variant:normal;font-weight:bold;font-stretch:normal;font-family:'Roboto Condensed';-inkscape-font-specification:'Roboto Condensed, Bold';fill:#25a9e0;fill-opacity:1;stroke-width:1.13237715"
           d="m 231.03224,91.675201 q -0.24229,5.529342 -3.08388,8.371729 -2.84156,2.8424 -8.01805,2.8424 -5.44083,0 -8.34846,-3.597405 -2.88565,-3.619609 -2.88565,-10.303673 v -5.440519 q 0,-6.661858 2.99576,-10.259263 2.99577,-3.619609 8.32645,-3.619609 5.24258,0 7.95201,2.953423 2.73141,2.953425 3.10588,8.482767 h -6.49814 q -0.0881,-3.419754 -1.05734,-4.707713 -0.94719,-1.310166 -3.50241,-1.310166 -2.59924,0 -3.6786,1.843115 -1.07937,1.820907 -1.14544,6.01788 v 6.106702 q 0,4.818745 1.05731,6.617447 1.07936,1.798699 3.67863,1.798699 2.5552,0 3.52443,-1.243545 0.96921,-1.265752 1.10138,-4.552269 z" /><path
           inkscape:connector-curvature="0"
           id="path886"
           style="font-style:normal;font-variant:normal;font-weight:bold;font-stretch:normal;font-family:'Roboto Condensed';-inkscape-font-specification:'Roboto Condensed, Bold';fill:#25a9e0;fill-opacity:1;stroke-width:1.13237715"
           d="m 244.35899,89.254726 h -2.81955 V 102.4452 h -6.47613 V 70.112984 h 6.47613 v 12.924008 h 2.18073 l 5.57299,-12.924008 h 7.8859 l -7.84184,15.055801 8.72293,17.276415 h -7.70965 z" /><path
           inkscape:connector-curvature="0"
           id="path890"
           style="font-style:normal;font-variant:normal;font-weight:bold;font-stretch:normal;font-family:'Roboto Condensed';-inkscape-font-specification:'Roboto Condensed, Bold';fill:#25a9e0;fill-opacity:1;stroke-width:1.13237715"
           d="m -20.166008,142.75532 h -6.454091 v -13.83446 h -9.560005 v 13.83446 h -6.47612 V 110.4231 h 6.47612 v 13.07945 h 9.560005 V 110.4231 h 6.454091 z" /><path
           inkscape:connector-curvature="0"
           id="path892"
           style="font-style:normal;font-variant:normal;font-weight:bold;font-stretch:normal;font-family:'Roboto Condensed';-inkscape-font-specification:'Roboto Condensed, Bold';fill:#25a9e0;fill-opacity:1;stroke-width:1.13237715"
           d="M 0.76025585,136.13789 H -8.0728275 l -1.7181603,6.61743 H -16.641586 L -6.6190059,110.4231 h 5.92544005 L 9.3950883,142.75532 H 2.478415 Z m -7.42331405,-5.44052 h 5.99151843 L -3.6672993,119.17235 Z" /><path
           inkscape:connector-curvature="0"
           id="path894"
           style="font-style:normal;font-variant:normal;font-weight:bold;font-stretch:normal;font-family:'Roboto Condensed';-inkscape-font-specification:'Roboto Condensed, Bold';fill:#25a9e0;fill-opacity:1;stroke-width:1.13237715"
           d="M 23.316559,131.51899 H 12.545043 v -5.24066 h 10.771516 z" /><path
           inkscape:connector-curvature="0"
           id="path896"
           style="font-style:normal;font-variant:normal;font-weight:bold;font-stretch:normal;font-family:'Roboto Condensed';-inkscape-font-specification:'Roboto Condensed, Bold';fill:#25a9e0;fill-opacity:1;stroke-width:1.13237715"
           d="m 44.110652,136.13789 h -8.833081 l -1.718159,6.61743 H 26.708814 L 36.731392,110.4231 h 5.925441 l 10.088655,32.33222 H 45.82881 Z m -7.423312,-5.44052 h 5.991519 l -2.99576,-11.52502 z" /><path
           inkscape:connector-curvature="0"
           id="path898"
           style="font-style:normal;font-variant:normal;font-weight:bold;font-stretch:normal;font-family:'Roboto Condensed';-inkscape-font-specification:'Roboto Condensed, Bold';fill:#25a9e0;fill-opacity:1;stroke-width:1.13237715"
           d="m 64.221889,110.4231 6.057594,23.38312 6.035586,-23.38312 h 8.458615 v 32.33222 h -6.498158 v -8.74923 l 0.594745,-13.47917 -6.41004,22.2284 h -4.405529 l -6.410051,-22.2284 0.594753,13.47917 v 8.74923 H 55.763273 V 110.4231 Z" /><path
           inkscape:connector-curvature="0"
           id="path900"
           style="font-style:normal;font-variant:normal;font-weight:bold;font-stretch:normal;font-family:'Roboto Condensed';-inkscape-font-specification:'Roboto Condensed, Bold';fill:#25a9e0;fill-opacity:1;stroke-width:1.13237715"
           d="m 100.0829,124.79052 4.3174,-14.36742 h 6.96074 l -8.78902,25.98126 q -1.49788,3.86387 -3.238079,5.30728 -1.718139,1.4434 -4.141175,1.51001 H 94.48787 l -1.541927,-0.0888 -0.110196,-5.41832 q 0.220282,0.0889 1.431804,0.0889 1.233553,0 1.85032,-0.55516 0.638806,-0.55515 1.101381,-2.48709 l 0.308393,-1.17693 -9.163495,-23.16108 h 6.938684 z" /><path
           inkscape:connector-curvature="0"
           id="path902"
           style="font-style:normal;font-variant:normal;font-weight:bold;font-stretch:normal;font-family:'Roboto Condensed';-inkscape-font-specification:'Roboto Condensed, Bold';fill:#25a9e0;fill-opacity:1;stroke-width:1.13237715"
           d="m 121.27349,131.38575 v 11.36957 h -6.47613 V 110.4231 h 10.92572 q 4.75796,0 7.5775,2.97565 2.84157,2.9756 2.84157,7.72774 0,4.75212 -2.79752,7.50569 -2.79751,2.75357 -7.75372,2.75357 z m 0,-5.44051 h 4.44959 q 1.85033,0 2.86359,-1.22135 1.01326,-1.22134 1.01326,-3.55299 0,-2.42046 -1.03529,-3.84167 -1.0353,-1.4434 -2.77549,-1.46561 h -4.51566 z" /><path
           inkscape:connector-curvature="0"
           id="path904"
           style="font-style:normal;font-variant:normal;font-weight:bold;font-stretch:normal;font-family:'Roboto Condensed';-inkscape-font-specification:'Roboto Condensed, Bold';fill:#25a9e0;fill-opacity:1;stroke-width:1.13237715"
           d="m 157.00234,128.76542 h -10.08867 v 8.57159 h 11.93899 v 5.41831 H 140.43755 V 110.4231 h 18.37104 v 5.44052 h -11.89492 v 7.63893 h 10.08867 z" /></g></g></g></svg>