<?xml version="1.0" encoding="utf-8"?>
<!-- Roman Inozemtsev: https://github.com/mir-one/  -->
<svg version="1.1"
	 id="Слой_1" image-rendering="optimizeQuality" text-rendering="geometricPrecision" shape-rendering="geometricPrecision"
	 xmlns="http://www.w3.org/2000/svg" xmlns:xlink="http://www.w3.org/1999/xlink" x="0px" y="0px" viewBox="0 0 401 42.7"
	 style="enable-background:new 0 0 401 42.7;" xml:space="preserve">
<style type="text/css">
	.st0{fill:#25A9E0;}
</style>
<g>
	<path class="st0" d="M7.2,23.6H5v10.1H0V8.9h5v9.9h1.7L11,8.9h6.1l-6.1,11.6l6.8,13.3h-6L7.2,23.6z"/>
	<path class="st0" d="M36.6,23.6c0,1.7-0.2,3.3-0.6,4.6c-0.4,1.3-1,2.4-1.8,3.3c-0.8,0.9-1.7,1.5-2.8,2c-1.1,0.4-2.3,0.7-3.6,0.7
		c-1.3,0-2.5-0.2-3.7-0.7c-1.1-0.4-2.1-1.1-2.8-2c-0.8-0.9-1.4-2-1.8-3.3c-0.4-1.3-0.7-2.8-0.7-4.6v-4.1c0-1.8,0.2-3.4,0.6-4.7
		c0.4-1.4,1-2.5,1.8-3.4c0.8-0.9,1.7-1.6,2.8-2.1c1.1-0.5,2.3-0.7,3.7-0.7c1.3,0,2.5,0.2,3.6,0.7c1.1,0.5,2,1.1,2.8,2.1
		c0.8,0.9,1.4,2,1.8,3.4c0.4,1.4,0.6,2.9,0.6,4.7V23.6z M31.6,19.4c0-1.2-0.1-2.2-0.3-3c-0.2-0.8-0.4-1.5-0.8-2.1
		c-0.3-0.5-0.7-0.9-1.2-1.2s-1.1-0.4-1.7-0.4c-0.6,0-1.2,0.1-1.7,0.4c-0.5,0.3-0.9,0.6-1.2,1.2c-0.3,0.5-0.6,1.2-0.8,2.1
		c-0.2,0.8-0.3,1.8-0.3,3v4.2c0,1.1,0.1,2.1,0.3,2.9c0.2,0.8,0.4,1.5,0.8,2c0.3,0.5,0.8,0.9,1.2,1.1c0.5,0.2,1.1,0.4,1.7,0.4
		c0.6,0,1.2-0.1,1.7-0.4c0.5-0.2,0.9-0.6,1.2-1.1s0.6-1.2,0.7-2c0.2-0.8,0.2-1.8,0.2-2.9V19.4z"/>
	<path class="st0" d="M46.8,8.9l4.7,18l4.7-18h6.6v24.8h-5v-6.7l0.5-10.4l-5,17.1h-3.4l-5-17.1l0.5,10.4v6.7h-5V8.9H46.8z"/>
	<path class="st0" d="M83.6,25.5c-0.1,2.8-0.9,5-2.4,6.4c-1.5,1.5-3.5,2.2-6.2,2.2c-1.4,0-2.6-0.2-3.7-0.7s-2-1.1-2.7-2
		c-0.7-0.9-1.3-2-1.7-3.3c-0.4-1.3-0.6-2.9-0.6-4.6v-4.2c0-1.7,0.2-3.3,0.6-4.6c0.4-1.3,1-2.4,1.7-3.3c0.8-0.9,1.7-1.6,2.8-2
		c1.1-0.5,2.3-0.7,3.7-0.7c2.7,0,4.8,0.8,6.2,2.3c1.4,1.5,2.2,3.7,2.4,6.5h-5c0-0.9-0.1-1.6-0.2-2.2c-0.1-0.6-0.3-1.1-0.6-1.4
		c-0.3-0.4-0.6-0.6-1.1-0.8c-0.4-0.1-1-0.2-1.6-0.2c-0.7,0-1.2,0.1-1.7,0.3c-0.5,0.2-0.9,0.6-1.2,1.1c-0.3,0.5-0.5,1.2-0.7,2
		c-0.1,0.8-0.2,1.8-0.2,3v4.3c0,1.2,0.1,2.1,0.2,3s0.3,1.5,0.6,2c0.3,0.5,0.7,0.9,1.1,1.1c0.5,0.2,1.1,0.4,1.8,0.4
		c0.6,0,1.1-0.1,1.6-0.2c0.4-0.1,0.8-0.4,1.1-0.7s0.5-0.8,0.6-1.4c0.1-0.6,0.2-1.3,0.3-2.2H83.6z"/>
	<path class="st0" d="M104.1,23.6c0,1.7-0.2,3.3-0.6,4.6c-0.4,1.3-1,2.4-1.8,3.3c-0.8,0.9-1.7,1.5-2.8,2c-1.1,0.4-2.3,0.7-3.6,0.7
		s-2.5-0.2-3.7-0.7c-1.1-0.4-2.1-1.1-2.8-2c-0.8-0.9-1.4-2-1.8-3.3c-0.4-1.3-0.7-2.8-0.7-4.6v-4.1c0-1.8,0.2-3.4,0.6-4.7
		c0.4-1.4,1-2.5,1.8-3.4c0.8-0.9,1.7-1.6,2.8-2.1c1.1-0.5,2.3-0.7,3.7-0.7s2.5,0.2,3.6,0.7c1.1,0.5,2,1.1,2.8,2.1
		c0.8,0.9,1.4,2,1.8,3.4c0.4,1.4,0.6,2.9,0.6,4.7V23.6z M99.1,19.4c0-1.2-0.1-2.2-0.3-3c-0.2-0.8-0.4-1.5-0.8-2.1
		c-0.3-0.5-0.7-0.9-1.2-1.2s-1.1-0.4-1.7-0.4c-0.6,0-1.2,0.1-1.7,0.4s-0.9,0.6-1.2,1.2c-0.3,0.5-0.6,1.2-0.8,2.1
		c-0.2,0.8-0.3,1.8-0.3,3v4.2c0,1.1,0.1,2.1,0.3,2.9c0.2,0.8,0.4,1.5,0.8,2c0.3,0.5,0.8,0.9,1.2,1.1c0.5,0.2,1.1,0.4,1.7,0.4
		c0.6,0,1.2-0.1,1.7-0.4c0.5-0.2,0.9-0.6,1.2-1.1s0.6-1.2,0.7-2c0.2-0.8,0.2-1.8,0.2-2.9V19.4z"/>
	<path class="st0" d="M114.3,8.9l4.7,18l4.7-18h6.6v24.8h-5v-6.7l0.5-10.4l-5,17.1h-3.4l-5-17.1l0.5,10.4v6.7h-5V8.9H114.3z"/>
	<path class="st0" d="M151.7,23.6c0,1.7-0.2,3.3-0.6,4.6c-0.4,1.3-1,2.4-1.8,3.3c-0.8,0.9-1.7,1.5-2.8,2c-1.1,0.4-2.3,0.7-3.6,0.7
		s-2.5-0.2-3.7-0.7c-1.1-0.4-2.1-1.1-2.8-2c-0.8-0.9-1.4-2-1.8-3.3c-0.4-1.3-0.7-2.8-0.7-4.6v-4.1c0-1.8,0.2-3.4,0.6-4.7
		c0.4-1.4,1-2.5,1.8-3.4c0.8-0.9,1.7-1.6,2.8-2.1c1.1-0.5,2.3-0.7,3.7-0.7s2.5,0.2,3.6,0.7c1.1,0.5,2,1.1,2.8,2.1
		c0.8,0.9,1.4,2,1.8,3.4c0.4,1.4,0.6,2.9,0.6,4.7V23.6z M146.7,19.4c0-1.2-0.1-2.2-0.3-3c-0.2-0.8-0.4-1.5-0.8-2.1
		c-0.3-0.5-0.7-0.9-1.2-1.2c-0.5-0.3-1.1-0.4-1.7-0.4c-0.6,0-1.2,0.1-1.7,0.4c-0.5,0.3-0.9,0.6-1.2,1.2c-0.3,0.5-0.6,1.2-0.8,2.1
		c-0.2,0.8-0.3,1.8-0.3,3v4.2c0,1.1,0.1,2.1,0.3,2.9c0.2,0.8,0.4,1.5,0.8,2c0.3,0.5,0.8,0.9,1.2,1.1c0.5,0.2,1.1,0.4,1.7,0.4
		c0.6,0,1.2-0.1,1.7-0.4c0.5-0.2,0.9-0.6,1.2-1.1s0.6-1.2,0.7-2c0.2-0.8,0.2-1.8,0.2-2.9V19.4z"/>
	<path class="st0" d="M172.2,8.9v24.8h-5V13.1h-4.6l-0.2,7c-0.1,2.5-0.3,4.7-0.6,6.4s-0.8,3.1-1.4,4.2c-0.6,1.1-1.4,1.9-2.3,2.3
		c-0.9,0.5-2,0.7-3.2,0.7h-1.2v-4.2h0.6c0.7-0.1,1.2-0.3,1.6-0.6c0.4-0.3,0.7-0.9,0.9-1.6s0.3-1.7,0.4-2.9c0.1-1.2,0.1-2.7,0.2-4.5
		l0.4-11.2H172.2z"/>
	<path class="st0" d="M181.3,17.9h3c1.3,0,2.4,0.2,3.4,0.6c1,0.4,1.9,0.9,2.6,1.6c0.7,0.7,1.3,1.5,1.6,2.5c0.4,1,0.6,2,0.6,3.2
		c0,1.2-0.2,2.3-0.6,3.3c-0.4,1-0.9,1.8-1.6,2.5c-0.7,0.7-1.6,1.3-2.6,1.7c-1,0.4-2.1,0.6-3.4,0.6h-8.1V8.9h5V17.9z M181.3,22v7.6h3
		c0.5,0,1-0.1,1.4-0.3c0.4-0.2,0.7-0.5,1-0.8c0.3-0.4,0.5-0.8,0.6-1.3s0.2-1,0.2-1.5c0-0.5-0.1-1-0.2-1.4c-0.1-0.4-0.3-0.8-0.6-1.2
		c-0.3-0.3-0.6-0.6-1-0.8c-0.4-0.2-0.9-0.3-1.4-0.3H181.3z"/>
	<path class="st0" d="M212.3,25.5c-0.1,2.8-0.9,5-2.4,6.4c-1.5,1.5-3.5,2.2-6.2,2.2c-1.4,0-2.6-0.2-3.7-0.7s-2-1.1-2.7-2
		c-0.7-0.9-1.3-2-1.7-3.3c-0.4-1.3-0.6-2.9-0.6-4.6v-4.2c0-1.7,0.2-3.3,0.6-4.6c0.4-1.3,1-2.4,1.7-3.3s1.7-1.6,2.8-2
		c1.1-0.5,2.3-0.7,3.7-0.7c2.7,0,4.8,0.8,6.2,2.3c1.4,1.5,2.2,3.7,2.4,6.5h-5c0-0.9-0.1-1.6-0.2-2.2c-0.1-0.6-0.3-1.1-0.6-1.4
		c-0.3-0.4-0.6-0.6-1.1-0.8c-0.4-0.1-1-0.2-1.6-0.2c-0.7,0-1.2,0.1-1.7,0.3c-0.5,0.2-0.9,0.6-1.2,1.1c-0.3,0.5-0.5,1.2-0.7,2
		c-0.1,0.8-0.2,1.8-0.2,3v4.3c0,1.2,0.1,2.1,0.2,3c0.1,0.8,0.3,1.5,0.6,2c0.3,0.5,0.7,0.9,1.1,1.1c0.5,0.2,1.1,0.4,1.8,0.4
		c0.6,0,1.1-0.1,1.6-0.2c0.4-0.1,0.8-0.4,1.1-0.7s0.5-0.8,0.6-1.4c0.1-0.6,0.2-1.3,0.3-2.2H212.3z"/>
	<path class="st0" d="M222.6,23.6h-2.2v10.1h-5V8.9h5v9.9h1.7l4.3-9.9h6.1l-6.1,11.6l6.8,13.3h-6L222.6,23.6z"/>
	<path class="st0" d="M240.7,25.1h-8.3v-4h8.3V25.1z"/>
	<path class="st0" d="M262.4,33.8h-5V23.1H250v10.6h-5V8.9h5v10h7.4v-10h5V33.8z"/>
	<path class="st0" d="M278.6,28.7h-6.8l-1.3,5.1h-5.3l7.8-24.8h4.6l7.8,24.8h-5.4L278.6,28.7z M272.8,24.5h4.6l-2.3-8.9L272.8,24.5z
		"/>
	<path class="st0" d="M296,25.1h-8.3v-4h8.3V25.1z"/>
	<path class="st0" d="M312.1,28.7h-6.8l-1.3,5.1h-5.3l7.8-24.8h4.6l7.8,24.8h-5.4L312.1,28.7z M306.4,24.5h4.6l-2.3-8.9L306.4,24.5z
		"/>
	<path class="st0" d="M327.7,8.9l4.7,18l4.7-18h6.6v24.8h-5v-6.7l0.5-10.4l-5,17.1h-3.4l-5-17.1l0.5,10.4v6.7h-5V8.9H327.7z"/>
	<path class="st0" d="M355.5,20l3.3-11h5.4l-6.8,20c-0.3,0.7-0.6,1.4-0.9,2c-0.3,0.6-0.7,1.2-1.2,1.7s-1,0.9-1.6,1.2
		c-0.6,0.3-1.4,0.4-2.2,0.4c-0.1,0-0.2,0-0.4,0c-0.1,0-0.3,0-0.4,0c-0.1,0-0.3,0-0.4,0c-0.1,0-0.2,0-0.3,0l-0.1-4.2
		c0.1,0,0.1,0,0.2,0c0.1,0,0.2,0,0.3,0c0.1,0,0.2,0,0.3,0c0.1,0,0.2,0,0.2,0c0.4,0,0.7-0.1,1-0.2c0.3-0.1,0.5-0.3,0.6-0.5
		c0.2-0.2,0.3-0.4,0.4-0.7c0.1-0.3,0.2-0.6,0.3-1l0.2-0.9l-7.1-17.8h5.4L355.5,20z"/>
	<path class="st0" d="M371.9,25v8.7h-5V8.9h8.5c1.3,0,2.4,0.2,3.4,0.6c1,0.4,1.8,1,2.5,1.7c0.7,0.7,1.2,1.6,1.6,2.6
		c0.4,1,0.6,2.1,0.6,3.3c0,1.2-0.2,2.3-0.6,3.3c-0.4,1-0.9,1.8-1.6,2.5c-0.7,0.7-1.5,1.2-2.5,1.6c-1,0.4-2.1,0.6-3.4,0.6H371.9z
		 M371.9,20.9h3.4c0.5,0,1-0.1,1.4-0.3c0.4-0.2,0.7-0.4,0.9-0.8c0.2-0.3,0.4-0.7,0.5-1.2c0.1-0.4,0.2-0.9,0.2-1.5
		c0-0.5-0.1-1-0.2-1.5c-0.1-0.5-0.3-0.9-0.5-1.3c-0.2-0.4-0.6-0.7-0.9-0.9c-0.4-0.2-0.8-0.3-1.4-0.3h-3.4V20.9z"/>
	<path class="st0" d="M399.6,23h-7.8v6.6h9.2v4.2h-14.3V8.9H401v4.2h-9.2V19h7.8V23z"/>
</g>
</svg>
