<?xml version="1.0" encoding="utf-8"?>
<!-- Roman Inozemtsev: https://github.com/mir-one/  -->
<svg version="1.1"
	 id="Слой_1" image-rendering="optimizeQuality" text-rendering="geometricPrecision" shape-rendering="geometricPrecision"
	 xmlns="http://www.w3.org/2000/svg" xmlns:xlink="http://www.w3.org/1999/xlink" x="0px" y="0px" viewBox="0 0 234 156.4"
	 style="enable-background:new 0 0 234 156.4;" xml:space="preserve">
<style type="text/css">
	.st0{fill:#ED443E;}
	.st1{fill:#C2232F;}
	.st2{fill:#25A9E0;}
</style>
<g>
	<path class="st0" d="M117.5,124.9c-1.3,0.5-2-0.5-2.9-1c-11.1-6.5-22.3-12.8-33.4-19.2c-5.8-3.4-11.6-6.7-17.5-10.1
		c-0.8-0.5-1-1-1-1.9c0-20.1,0-40.3,0-60.4c0-1,0.4-1.6,1.3-2.2c12.8-7.3,25.7-14.8,38.5-22.2c4.2-2.4,8.4-4.8,12.5-7.2
		c0.5-0.3,1-1,1.6-0.6c0.6,0.4,0.3,1.3,0.3,1.9c0,9.1,0,18.2,0,27.3c0,1.4,0.4,1.8,1.8,1.8c16.6,0,33,0,49.6,0c0.6,0,1.4-0.1,2,0.3
		c-0.1,0.9-1,0.8-1.6,1.1c-5.2,3.5-10.8,6.3-16.2,9.5c-11.3,6.6-22.7,13-33.9,19.5c-0.9,0.5-1.3,1.1-1.3,2.3c0,19.8,0,39.5,0,59.3
		C117.3,123.5,117.1,124.2,117.5,124.9z"/>
	<path class="st1" d="M117.5,124.9c-0.4-0.6-0.3-1.3-0.3-2c0-19.8,0-39.5,0-59.3c0-1.1,0.4-1.8,1.3-2.3
		c11.4-6.5,22.7-12.9,33.9-19.5c5.4-3.2,11-6.1,16.2-9.5c0.5-0.4,1.5-0.3,1.6-1.1c0.6,0.4,0.6,0.5,0.1,1.3c-2.7,4.7-5.3,9.2-8,13.9
		c-5.8,10.3-11.8,20.4-17.7,30.6c-0.6,1.1-0.3,1.5,0.6,2c8.1,4.7,16.1,9.4,24.2,14.1c0.5,0.3,0.9,0.6,1.6,1
		c-2.9,1.6-5.6,3.3-8.4,4.8c-14.9,8.6-30,17.3-44.9,26C117.9,124.7,117.6,124.7,117.5,124.9z"/>
</g>
<g>
	<path class="st2" d="M4.2,149H2.9v5.9H0v-14.4h2.9v5.8h1l2.5-5.8h3.5l-3.5,6.7l3.9,7.7H6.9L4.2,149z"/>
	<path class="st2" d="M21.2,148.9c0,1-0.1,1.9-0.4,2.7c-0.3,0.8-0.6,1.4-1.1,1.9c-0.5,0.5-1,0.9-1.6,1.1c-0.6,0.3-1.3,0.4-2.1,0.4
		c-0.8,0-1.5-0.1-2.1-0.4c-0.6-0.3-1.2-0.6-1.6-1.1c-0.5-0.5-0.8-1.1-1.1-1.9c-0.3-0.8-0.4-1.7-0.4-2.7v-2.4c0-1,0.1-1.9,0.4-2.7
		c0.3-0.8,0.6-1.4,1.1-2c0.5-0.5,1-0.9,1.6-1.2c0.6-0.3,1.3-0.4,2.1-0.4c0.8,0,1.5,0.1,2.1,0.4c0.6,0.3,1.2,0.7,1.6,1.2
		c0.5,0.5,0.8,1.2,1.1,2c0.3,0.8,0.4,1.7,0.4,2.7V148.9z M18.3,146.5c0-0.7,0-1.3-0.1-1.8c-0.1-0.5-0.2-0.9-0.4-1.2
		c-0.2-0.3-0.4-0.5-0.7-0.7c-0.3-0.1-0.6-0.2-1-0.2c-0.4,0-0.7,0.1-1,0.2c-0.3,0.1-0.5,0.4-0.7,0.7c-0.2,0.3-0.3,0.7-0.4,1.2
		c-0.1,0.5-0.1,1.1-0.1,1.8v2.4c0,0.7,0,1.2,0.1,1.7c0.1,0.5,0.2,0.8,0.4,1.1c0.2,0.3,0.4,0.5,0.7,0.7c0.3,0.1,0.6,0.2,1,0.2
		c0.4,0,0.7-0.1,1-0.2c0.3-0.1,0.5-0.4,0.7-0.7c0.2-0.3,0.3-0.7,0.4-1.1c0.1-0.5,0.1-1,0.1-1.7V146.5z"/>
	<path class="st2" d="M27.1,140.4l2.7,10.4l2.7-10.4h3.8v14.4h-2.9v-3.9l0.3-6l-2.9,9.9h-2l-2.9-9.9l0.3,6v3.9h-2.9v-14.4H27.1z"/>
	<path class="st2" d="M48.5,150c-0.1,1.6-0.5,2.9-1.4,3.7c-0.9,0.8-2.1,1.3-3.6,1.3c-0.8,0-1.5-0.1-2.1-0.4
		c-0.6-0.3-1.2-0.7-1.6-1.2c-0.4-0.5-0.8-1.2-1-1.9c-0.2-0.8-0.3-1.7-0.3-2.7v-2.5c0-1,0.1-1.9,0.4-2.7c0.2-0.8,0.6-1.4,1-1.9
		c0.4-0.5,1-0.9,1.6-1.2c0.6-0.3,1.3-0.4,2.1-0.4c1.6,0,2.8,0.4,3.6,1.3c0.8,0.9,1.3,2.1,1.4,3.8h-2.9c0-0.5-0.1-0.9-0.1-1.3
		c-0.1-0.3-0.2-0.6-0.4-0.8c-0.2-0.2-0.4-0.4-0.6-0.4c-0.3-0.1-0.6-0.1-0.9-0.1c-0.4,0-0.7,0.1-1,0.2c-0.3,0.1-0.5,0.3-0.7,0.6
		c-0.2,0.3-0.3,0.7-0.4,1.2c-0.1,0.5-0.1,1.1-0.1,1.8v2.5c0,0.7,0,1.2,0.1,1.7c0.1,0.5,0.2,0.9,0.3,1.2c0.2,0.3,0.4,0.5,0.7,0.7
		c0.3,0.1,0.6,0.2,1,0.2c0.4,0,0.7,0,0.9-0.1c0.3-0.1,0.5-0.2,0.6-0.4s0.3-0.5,0.4-0.8c0.1-0.3,0.1-0.8,0.2-1.3H48.5z"/>
	<path class="st2" d="M60.4,148.9c0,1-0.1,1.9-0.4,2.7c-0.3,0.8-0.6,1.4-1.1,1.9c-0.5,0.5-1,0.9-1.6,1.1c-0.6,0.3-1.3,0.4-2.1,0.4
		s-1.5-0.1-2.1-0.4c-0.6-0.3-1.2-0.6-1.6-1.1c-0.5-0.5-0.8-1.1-1.1-1.9c-0.3-0.8-0.4-1.7-0.4-2.7v-2.4c0-1,0.1-1.9,0.4-2.7
		c0.3-0.8,0.6-1.4,1.1-2c0.5-0.5,1-0.9,1.6-1.2c0.6-0.3,1.3-0.4,2.1-0.4c0.8,0,1.5,0.1,2.1,0.4c0.6,0.3,1.2,0.7,1.6,1.2
		c0.5,0.5,0.8,1.2,1.1,2c0.3,0.8,0.4,1.7,0.4,2.7V148.9z M57.5,146.5c0-0.7,0-1.3-0.1-1.8c-0.1-0.5-0.2-0.9-0.4-1.2
		c-0.2-0.3-0.4-0.5-0.7-0.7c-0.3-0.1-0.6-0.2-1-0.2c-0.4,0-0.7,0.1-1,0.2c-0.3,0.1-0.5,0.4-0.7,0.7c-0.2,0.3-0.3,0.7-0.4,1.2
		c-0.1,0.5-0.1,1.1-0.1,1.8v2.4c0,0.7,0,1.2,0.1,1.7c0.1,0.5,0.2,0.8,0.4,1.1c0.2,0.3,0.4,0.5,0.7,0.7c0.3,0.1,0.6,0.2,1,0.2
		c0.4,0,0.7-0.1,1-0.2c0.3-0.1,0.5-0.4,0.7-0.7c0.2-0.3,0.3-0.7,0.4-1.1c0.1-0.5,0.1-1,0.1-1.7V146.5z"/>
	<path class="st2" d="M66.3,140.4l2.7,10.4l2.7-10.4h3.8v14.4h-2.9v-3.9l0.3-6l-2.9,9.9h-2l-2.9-9.9l0.3,6v3.9h-2.9v-14.4H66.3z"/>
	<path class="st2" d="M88,148.9c0,1-0.1,1.9-0.4,2.7c-0.3,0.8-0.6,1.4-1.1,1.9c-0.5,0.5-1,0.9-1.6,1.1c-0.6,0.3-1.3,0.4-2.1,0.4
		c-0.8,0-1.5-0.1-2.1-0.4c-0.6-0.3-1.2-0.6-1.6-1.1c-0.5-0.5-0.8-1.1-1.1-1.9c-0.3-0.8-0.4-1.7-0.4-2.7v-2.4c0-1,0.1-1.9,0.4-2.7
		c0.3-0.8,0.6-1.4,1.1-2c0.5-0.5,1-0.9,1.6-1.2c0.6-0.3,1.3-0.4,2.1-0.4c0.8,0,1.5,0.1,2.1,0.4c0.6,0.3,1.2,0.7,1.6,1.2
		c0.5,0.5,0.8,1.2,1.1,2c0.3,0.8,0.4,1.7,0.4,2.7V148.9z M85.1,146.5c0-0.7,0-1.3-0.1-1.8c-0.1-0.5-0.2-0.9-0.4-1.2
		c-0.2-0.3-0.4-0.5-0.7-0.7c-0.3-0.1-0.6-0.2-1-0.2c-0.4,0-0.7,0.1-1,0.2c-0.3,0.1-0.5,0.4-0.7,0.7c-0.2,0.3-0.3,0.7-0.4,1.2
		c-0.1,0.5-0.1,1.1-0.1,1.8v2.4c0,0.7,0,1.2,0.1,1.7c0.1,0.5,0.2,0.8,0.4,1.1c0.2,0.3,0.4,0.5,0.7,0.7c0.3,0.1,0.6,0.2,1,0.2
		c0.4,0,0.7-0.1,1-0.2c0.3-0.1,0.5-0.4,0.7-0.7c0.2-0.3,0.3-0.7,0.4-1.1c0.1-0.5,0.1-1,0.1-1.7V146.5z"/>
	<path class="st2" d="M99.8,140.4v14.4h-2.9v-12h-2.6l-0.1,4.1c-0.1,1.5-0.2,2.7-0.4,3.7c-0.2,1-0.5,1.8-0.8,2.4
		c-0.4,0.6-0.8,1.1-1.3,1.4s-1.1,0.4-1.8,0.4h-0.7v-2.4h0.3c0.4,0,0.7-0.2,0.9-0.4c0.2-0.2,0.4-0.5,0.5-0.9c0.1-0.4,0.2-1,0.2-1.7
		s0.1-1.5,0.1-2.6l0.2-6.5H99.8z"/>
	<path class="st2" d="M105.1,145.6h1.8c0.7,0,1.4,0.1,2,0.3c0.6,0.2,1.1,0.5,1.5,0.9c0.4,0.4,0.7,0.9,0.9,1.4
		c0.2,0.6,0.3,1.2,0.3,1.9c0,0.7-0.1,1.3-0.3,1.9c-0.2,0.6-0.5,1.1-0.9,1.5c-0.4,0.4-0.9,0.7-1.5,1c-0.6,0.2-1.2,0.3-2,0.3h-4.7
		v-14.4h2.9V145.6z M105.1,148v4.4h1.8c0.3,0,0.6-0.1,0.8-0.2c0.2-0.1,0.4-0.3,0.6-0.5c0.2-0.2,0.3-0.5,0.3-0.7
		c0.1-0.3,0.1-0.6,0.1-0.9c0-0.3,0-0.6-0.1-0.8c-0.1-0.3-0.2-0.5-0.3-0.7c-0.2-0.2-0.3-0.3-0.6-0.5c-0.2-0.1-0.5-0.2-0.8-0.2H105.1z
		"/>
	<path class="st2" d="M123.1,150c-0.1,1.6-0.5,2.9-1.4,3.7c-0.9,0.8-2.1,1.3-3.6,1.3c-0.8,0-1.5-0.1-2.1-0.4
		c-0.6-0.3-1.2-0.7-1.6-1.2c-0.4-0.5-0.8-1.2-1-1.9c-0.2-0.8-0.3-1.7-0.3-2.7v-2.5c0-1,0.1-1.9,0.4-2.7c0.2-0.8,0.6-1.4,1-1.9
		s1-0.9,1.6-1.2c0.6-0.3,1.3-0.4,2.1-0.4c1.6,0,2.8,0.4,3.6,1.3c0.8,0.9,1.3,2.1,1.4,3.8h-2.9c0-0.5-0.1-0.9-0.1-1.3
		c-0.1-0.3-0.2-0.6-0.4-0.8c-0.2-0.2-0.4-0.4-0.6-0.4c-0.3-0.1-0.6-0.1-0.9-0.1c-0.4,0-0.7,0.1-1,0.2c-0.3,0.1-0.5,0.3-0.7,0.6
		c-0.2,0.3-0.3,0.7-0.4,1.2c-0.1,0.5-0.1,1.1-0.1,1.8v2.5c0,0.7,0,1.2,0.1,1.7c0.1,0.5,0.2,0.9,0.3,1.2c0.2,0.3,0.4,0.5,0.7,0.7
		c0.3,0.1,0.6,0.2,1,0.2c0.4,0,0.7,0,0.9-0.1c0.3-0.1,0.5-0.2,0.6-0.4s0.3-0.5,0.4-0.8c0.1-0.3,0.1-0.8,0.2-1.3H123.1z"/>
	<path class="st2" d="M129.1,149h-1.3v5.9h-2.9v-14.4h2.9v5.8h1l2.5-5.8h3.5l-3.5,6.7l3.9,7.7h-3.5L129.1,149z"/>
	<path class="st2" d="M139.6,149.8h-4.8v-2.3h4.8V149.8z"/>
	<path class="st2" d="M152.1,154.8h-2.9v-6.2h-4.3v6.2H142v-14.4h2.9v5.8h4.3v-5.8h2.9V154.8z"/>
	<path class="st2" d="M161.5,151.9h-4l-0.8,2.9h-3.1l4.5-14.4h2.7l4.5,14.4h-3.1L161.5,151.9z M158.2,149.5h2.7l-1.3-5.1
		L158.2,149.5z"/>
	<path class="st2" d="M171.6,149.8h-4.8v-2.3h4.8V149.8z"/>
	<path class="st2" d="M181,151.9h-4l-0.8,2.9h-3.1l4.5-14.4h2.7l4.5,14.4h-3.1L181,151.9z M177.6,149.5h2.7l-1.3-5.1L177.6,149.5z"
		/>
	<path class="st2" d="M190,140.4l2.7,10.4l2.7-10.4h3.8v14.4h-2.9v-3.9l0.3-6l-2.9,9.9h-2l-2.9-9.9l0.3,6v3.9h-2.9v-14.4H190z"/>
	<path class="st2" d="M206.1,146.8l1.9-6.4h3.1l-3.9,11.6c-0.2,0.4-0.3,0.8-0.5,1.2c-0.2,0.4-0.4,0.7-0.7,1
		c-0.3,0.3-0.6,0.5-0.9,0.7s-0.8,0.2-1.3,0.2c-0.1,0-0.1,0-0.2,0s-0.2,0-0.3,0s-0.2,0-0.2,0c-0.1,0-0.1,0-0.2,0l-0.1-2.4
		c0,0,0.1,0,0.1,0c0.1,0,0.1,0,0.2,0c0.1,0,0.1,0,0.2,0c0.1,0,0.1,0,0.1,0c0.2,0,0.4,0,0.6-0.1s0.3-0.1,0.4-0.3
		c0.1-0.1,0.2-0.3,0.2-0.4c0.1-0.2,0.1-0.4,0.2-0.6l0.1-0.5l-4.1-10.3h3.1L206.1,146.8z"/>
	<path class="st2" d="M215.6,149.8v5.1h-2.9v-14.4h4.9c0.7,0,1.4,0.1,2,0.4c0.6,0.2,1.1,0.6,1.5,1c0.4,0.4,0.7,0.9,0.9,1.5
		c0.2,0.6,0.3,1.2,0.3,1.9c0,0.7-0.1,1.3-0.3,1.9c-0.2,0.6-0.5,1-0.9,1.4c-0.4,0.4-0.9,0.7-1.5,0.9c-0.6,0.2-1.2,0.3-2,0.3H215.6z
		 M215.6,147.3h2c0.3,0,0.6-0.1,0.8-0.2c0.2-0.1,0.4-0.3,0.5-0.4c0.1-0.2,0.2-0.4,0.3-0.7s0.1-0.5,0.1-0.9c0-0.3,0-0.6-0.1-0.9
		c-0.1-0.3-0.2-0.5-0.3-0.8c-0.1-0.2-0.3-0.4-0.5-0.5c-0.2-0.1-0.5-0.2-0.8-0.2h-2V147.3z"/>
	<path class="st2" d="M231.7,148.6h-4.5v3.8h5.4v2.4h-8.3v-14.4h8.2v2.4h-5.3v3.4h4.5V148.6z"/>
</g>
</svg>
