<?xml version="1.0" encoding="utf-8"?>
<!-- Roman Inozemtsev: https://github.com/mir-one/  -->
<svg version="1.1"
	 id="Слой_1" shape-rendering="geometricPrecision" image-rendering="optimizeQuality" text-rendering="geometricPrecision"
	 xmlns="http://www.w3.org/2000/svg" xmlns:xlink="http://www.w3.org/1999/xlink" x="0px" y="0px" viewBox="0 0 113.9 113.9"
	 style="enable-background:new 0 0 113.9 113.9;" xml:space="preserve">
<style type="text/css">
	.st0{fill:#55ACEE;}
</style>
<path id="Layer_x0020_1" class="st0" d="M4.2,46.9L46.9,4.2c5.5-5.5,14.6-5.5,20.1,0l42.8,42.7c5.5,5.5,5.5,14.6,0,20.1L67,109.8
	c-5.5,5.5-14.6,5.5-20.1,0L4.2,67C-1.4,61.5-1.4,52.4,4.2,46.9z M44.5,82H47c0.3-0.1,1.7-0.1,2.1-0.2c0.7-0.1,1.4-0.1,2-0.2
	c3.8-0.5,7-1.5,10.4-3.1c2.2-1,5.1-2.9,6.8-4.4c0.2-0.2,0.4-0.3,0.6-0.5l1.2-1.1c0.2-0.2,0.4-0.4,0.6-0.6l1.4-1.4
	c2.8-3.3,5.1-6.6,6.7-10.8c0.9-2.2,1.6-4.4,2.1-6.9c0.6-2.9,0.7-5.3,0.7-8.4c0-0.1,1.9-1.6,2.2-1.8c0.2-0.2,0.3-0.2,0.4-0.4
	c0.3-0.3,0.6-0.5,0.8-0.8c0.1-0.1,0.2-0.3,0.4-0.4c0.8-0.9,1-1.1,1.8-2.2c0.2-0.3,0.5-0.7,0.7-0.9v-0.1c-0.3,0.1-1.2,0.5-1.6,0.6
	c-1.6,0.6-3.9,1.2-5.5,1.3c0.3-0.2,0.6-0.4,0.9-0.7c2.1-1.6,3.7-3.6,4.5-6.3c-0.3,0.1-0.6,0.3-0.9,0.5c-0.3,0.2-0.6,0.3-0.9,0.5
	c-1.4,0.6-4.9,2.1-6.2,2.1c-0.2-0.3-0.5-0.5-0.8-0.7l-0.8-0.7c-1.5-1.1-3.4-2-5.3-2.3c-0.4-0.1-1-0.1-1.3-0.2h-1.9
	c-0.2,0.1-1.2,0.2-1.5,0.2c-4.8,0.9-8.7,4.6-9.9,9.2c-0.3,1.1-0.4,1.9-0.4,3.1c0,1.2,0.2,2,0.3,3.1c-1.1,0.1-3.3-0.3-4.4-0.5
	c-7-1.2-12.6-4.2-17.8-8.7c-0.5-0.5-1-1-1.5-1.5l-1.2-1.2c-0.2-0.2-0.9-1.2-1.2-1.3c-0.1,0.3-0.4,0.7-0.5,1
	c-1.3,2.8-1.6,5.9-0.7,8.9c0.8,2.6,2.2,4.7,4.2,6.3l0.7,0.6c0.1,0.1,0,0,0.1,0.1c-1,0-2.2-0.3-3.1-0.5c-1.5-0.5-1.6-0.7-2.5-1
	c0,5.5,3.2,10,7.9,11.9c0.7,0.3,2,0.6,2.1,0.7c-1.9,0.6-3.6,0.5-5.6,0.2c0.3,1.1,1.2,2.7,1.7,3.5c0.7,1,1.6,1.9,2.5,2.6
	c2.1,1.6,4.1,2.5,7.5,2.7c-0.4,0.4-1.2,0.9-1.8,1.3c-3.4,2.2-7.1,3.6-11.2,4c-2.5,0.3-3.3,0.1-5.7,0l0.1,0.1c0,0,0,0,0,0l1.8,1
	c3.9,2.3,9.1,3.9,13.7,4.3C42.1,81.9,44.4,82,44.5,82z"/>
</svg>
