<?xml version="1.0" encoding="UTF-8" standalone="no"?>
<!-- Roman Inozemtsev: https://github.com/mir-one/  -->

<svg
   xmlns:dc="http://purl.org/dc/elements/1.1/"
   xmlns:cc="http://creativecommons.org/ns#"
   xmlns:rdf="http://www.w3.org/1999/02/22-rdf-syntax-ns#"
   xmlns:svg="http://www.w3.org/2000/svg"
   xmlns="http://www.w3.org/2000/svg"
   xmlns:sodipodi="http://sodipodi.sourceforge.net/DTD/sodipodi-0.dtd"
   xmlns:inkscape="http://www.inkscape.org/namespaces/inkscape"
   version="1.1"
   id="Слой_1"
   shape-rendering="geometricPrecision"
   text-rendering="geometricPrecision"
   image-rendering="optimizeQuality"
   x="0px"
   y="0px"
   viewBox="0 0 16 16"
   style="enable-background:new 0 0 16 16;"
   xml:space="preserve"
   sodipodi:docname="uiTB-iconset-profile.svg"
   inkscape:version="0.92.2pre0 (973e216, 2017-07-25)"><metadata
     id="metadata19"><rdf:RDF><cc:Work
         rdf:about=""><dc:format>image/svg+xml</dc:format><dc:type
           rdf:resource="http://purl.org/dc/dcmitype/StillImage" /></cc:Work></rdf:RDF></metadata><defs
     id="defs17" /><sodipodi:namedview
     pagecolor="#ffffff"
     bordercolor="#666666"
     borderopacity="1"
     objecttolerance="10"
     gridtolerance="10"
     guidetolerance="10"
     inkscape:pageopacity="0"
     inkscape:pageshadow="2"
     inkscape:window-width="1366"
     inkscape:window-height="696"
     id="namedview15"
     showgrid="false"
     inkscape:zoom="41.719301"
     inkscape:cx="0.86573666"
     inkscape:cy="4.5869433"
     inkscape:window-x="0"
     inkscape:window-y="0"
     inkscape:window-maximized="1"
     inkscape:current-layer="Слой_1" /><style
     type="text/css"
     id="style2">
	.st0{fill:#EFC818;}
	.st1{fill:#FFFFFF;}
</style><circle
     class="st0"
     cx="8"
     cy="8"
     r="8"
     id="circle4"
     style="fill:#ed443e;fill-opacity:1" /><circle
     class="st1"
     cx="8"
     cy="8"
     r="7.4"
     id="circle6" /><circle
     class="st1"
     cx="8"
     cy="8"
     r="7.4"
     id="circle8"
     style="fill:#ffffff" /><ellipse
     transform="matrix(0.7071 -0.7071 0.7071 0.7071 -3.3137 7.9999)"
     class="st0"
     cx="8"
     cy="8"
     rx="6.7"
     ry="6.7"
     id="ellipse10"
     style="fill:#ed443e;fill-opacity:1" /><path
     class="st1"
     d="M8,5.1c0.5,0,0.9,0.4,0.9,0.9S8.5,6.9,8,6.9S7.1,6.5,7.1,6S7.5,5.1,8,5.1 M8,9c1.3,0,2.6,0.6,2.6,0.9v0.5H5.4  V9.9C5.4,9.7,6.7,9,8,9 M8,4.3C7,4.3,6.3,5.1,6.3,6S7.1,7.8,8,7.8S9.8,7,9.8,6S9,4.3,8,4.3z M8,8.2c-1.2,0-3.5,0.6-3.5,1.7v1.3h6.9  V9.9C11.5,8.8,9.2,8.2,8,8.2z"
     id="path12"
     style="fill:#ffffff" /><style
     id="style2-35"
     type="text/css">
	.st0{fill:#EFC818;}
	.st1{fill:#FFFFFF;}
</style><style
     type="text/css"
     id="style2-3">
	.st0{fill:#EFC818;}
	.st1{fill:#FFFFFF;}
</style><style
     id="style826"
     type="text/css">
	.st0{fill:#ED443E;}
	.st1{fill:#C2232F;}
	.st2{fill:#25A9E0;}
</style></svg>