<?xml version="1.0" encoding="UTF-8" standalone="no"?>
<!-- Roman Inozemtsev: https://github.com/mir-one/  -->

<svg
   xmlns:dc="http://purl.org/dc/elements/1.1/"
   xmlns:cc="http://creativecommons.org/ns#"
   xmlns:rdf="http://www.w3.org/1999/02/22-rdf-syntax-ns#"
   xmlns:svg="http://www.w3.org/2000/svg"
   xmlns="http://www.w3.org/2000/svg"
   xmlns:sodipodi="http://sodipodi.sourceforge.net/DTD/sodipodi-0.dtd"
   xmlns:inkscape="http://www.inkscape.org/namespaces/inkscape"
   version="1.1"
   id="Слой_1"
   shape-rendering="geometricPrecision"
   text-rendering="geometricPrecision"
   image-rendering="optimizeQuality"
   x="0px"
   y="0px"
   viewBox="0 0 78.4 78.6"
   style="enable-background:new 0 0 78.4 78.6;"
   xml:space="preserve"
   sodipodi:docname="uiTB-iconset-logout.svg"
   inkscape:version="0.92.2pre0 (973e216, 2017-07-25)"><metadata
     id="metadata19"><rdf:RDF><cc:Work
         rdf:about=""><dc:format>image/svg+xml</dc:format><dc:type
           rdf:resource="http://purl.org/dc/dcmitype/StillImage" /></cc:Work></rdf:RDF></metadata><defs
     id="defs17" /><sodipodi:namedview
     pagecolor="#ffffff"
     bordercolor="#666666"
     borderopacity="1"
     objecttolerance="10"
     gridtolerance="10"
     guidetolerance="10"
     inkscape:pageopacity="0"
     inkscape:pageshadow="2"
     inkscape:window-width="1366"
     inkscape:window-height="696"
     id="namedview15"
     showgrid="false"
     inkscape:zoom="4.2462393"
     inkscape:cx="-34.846053"
     inkscape:cy="38.812258"
     inkscape:window-x="0"
     inkscape:window-y="0"
     inkscape:window-maximized="1"
     inkscape:current-layer="Слой_1" /><style
     type="text/css"
     id="style2">
	.st0{fill:#EFC818;}
	.st1{fill:#FFFFFF;}
</style><circle
     class="st0"
     cx="39.3"
     cy="39.3"
     r="39.3"
     id="circle4"
     style="fill:#ed443e;fill-opacity:1" /><circle
     class="st1"
     cx="39.3"
     cy="39.3"
     r="36.3"
     id="circle6" /><circle
     class="st1"
     cx="39.3"
     cy="39.3"
     r="36.3"
     id="circle8"
     style="fill:#ffffff" /><ellipse
     transform="matrix(0.7071 -0.7071 0.7071 0.7071 -16.2858 39.3069)"
     class="st0"
     cx="39.3"
     cy="39.3"
     rx="33"
     ry="33"
     id="ellipse10"
     style="fill:#ed443e;fill-opacity:1" /><path
     class="st1"
     d="M41.3,20.1H37v21.3h4.3V20.1z M51.6,24.7l-3,3c3.4,2.7,5.5,6.9,5.5,11.5c0,8.2-6.7,14.9-14.9,14.9  s-14.9-6.7-14.9-14.9c0-4.7,2.1-8.8,5.5-11.5l-3-3c-4.1,3.5-6.7,8.7-6.7,14.5c0,10.6,8.6,19.2,19.2,19.2s19.2-8.6,19.2-19.2  C58.4,33.4,55.7,28.3,51.6,24.7z"
     id="path12"
     style="fill:#ffffff" /><style
     id="style2-3"
     type="text/css">
	.st0{fill:#EFC818;}
	.st1{fill:#FFFFFF;}
</style><style
     type="text/css"
     id="style826">
	.st0{fill:#ED443E;}
	.st1{fill:#C2232F;}
	.st2{fill:#25A9E0;}
</style></svg>