<?xml version="1.0" encoding="utf-8"?>
<!-- Roman Inozemtsev: https://github.com/mir-one/  -->
<svg version="1.1" id="Слой_1" xmlns="http://www.w3.org/2000/svg" xmlns:xlink="http://www.w3.org/1999/xlink" x="0px" y="0px"
	 viewBox="0 0 67 67" style="enable-background:new 0 0 67 67;" xml:space="preserve">
<style type="text/css">
	.st0{fill:url(#SVGID_1_);}
	.st1{fill:#FFFFFF;}
</style>
<g>
	<linearGradient id="SVGID_1_" gradientUnits="userSpaceOnUse" x1="33.5" y1="67.8933" x2="33.5" y2="0.8933">
		<stop  offset="0" style="stop-color:#2B388F"/>
		<stop  offset="1" style="stop-color:#EB008B"/>
	</linearGradient>
	<circle class="st0" cx="33.5" cy="33.5" r="33.5"/>
	<path class="st1" d="M33.5,2.6C16.4,2.6,2.6,16.4,2.6,33.5s13.9,30.9,30.9,30.9c0.3,0,0.7,0,1-0.1c15.6-0.5,28.2-12.5,29.8-27.7
		c0.1-1,0.2-2.1,0.2-3.2C64.4,16.4,50.6,2.6,33.5,2.6z M54,54c-5.9,5.9-13.7,8.7-21.4,8.5c-7.1-0.2-14.2-3-19.6-8.5
		C1.7,42.7,1.7,24.3,13,13s29.7-11.3,41,0c6,6,8.8,14,8.4,21.8C62.1,41.8,59.3,48.7,54,54z"/>
</g>
<path class="st1" d="M44.5,18.4C42,15.6,38.8,14,35,13.6c-6.7-0.7-13.1,3.2-15.5,9.5c-0.9,2.2-1.2,4.4-1,6.8
	c0.2,2.4,1.1,4.7,2.1,6.9c1.8,3.8,4.2,7.2,7,10.4c1.8,2.1,3.8,4.1,5.7,6.1c0.1,0.1,0.1,0.1,0.1,0.2c0.1,0,0.1,0,0.2,0
	c1.1-1.1,2.2-2.2,3.2-3.3c3.2-3.4,6.1-7.1,8.4-11.2c1.3-2.3,2.4-4.7,3-7.3C49.2,26.6,47.9,22.1,44.5,18.4z M33.5,37.9
	c-5.2,0-9.5-4.2-9.5-9.5s4.2-9.5,9.5-9.5s9.5,4.2,9.5,9.5S38.7,37.9,33.5,37.9z"/>
</svg>
