<?xml version="1.0" encoding="UTF-8" standalone="no"?>
<!-- Roman Inozemtsev: https://github.com/mir-one/  -->

<svg
   xmlns:dc="http://purl.org/dc/elements/1.1/"
   xmlns:cc="http://creativecommons.org/ns#"
   xmlns:rdf="http://www.w3.org/1999/02/22-rdf-syntax-ns#"
   xmlns:svg="http://www.w3.org/2000/svg"
   xmlns="http://www.w3.org/2000/svg"
   xmlns:sodipodi="http://sodipodi.sourceforge.net/DTD/sodipodi-0.dtd"
   xmlns:inkscape="http://www.inkscape.org/namespaces/inkscape"
   version="1.1"
   id="Слой_1"
   x="0px"
   y="0px"
   viewBox="0 0 67 67"
   style="enable-background:new 0 0 67 67;"
   xml:space="preserve"
   sodipodi:docname="wB-bg-QUEST.svg"
   inkscape:version="0.92.2pre0 (973e216, 2017-07-25)"><metadata
     id="metadata19"><rdf:RDF><cc:Work
         rdf:about=""><dc:format>image/svg+xml</dc:format><dc:type
           rdf:resource="http://purl.org/dc/dcmitype/StillImage" /></cc:Work></rdf:RDF></metadata><defs
     id="defs17" /><sodipodi:namedview
     pagecolor="#ffffff"
     bordercolor="#666666"
     borderopacity="1"
     objecttolerance="10"
     gridtolerance="10"
     guidetolerance="10"
     inkscape:pageopacity="0"
     inkscape:pageshadow="2"
     inkscape:window-width="1366"
     inkscape:window-height="696"
     id="namedview15"
     showgrid="false"
     inkscape:zoom="2.4907045"
     inkscape:cx="-13.428146"
     inkscape:cy="-0.63933057"
     inkscape:window-x="0"
     inkscape:window-y="0"
     inkscape:window-maximized="1"
     inkscape:current-layer="Слой_1" /><style
     type="text/css"
     id="style2">
	.st0{fill:#F05A28;}
	.st1{fill:#C44827;}
	.st2{fill:#FFFFFF;}
</style><polygon
     id="polygon842"
     points="313.07,70.39 558.66,316 313.07,561.61 67.46,316 "
     class="cls-1"
     style="fill:#000000;fill-rule:evenodd"
     transform="matrix(0.13622977,0,0,0.13622977,-9.1234401,-9.5732587)" /><path
     class="st2"
     d="m 45.450956,23.4885 c -0.603987,0.345136 -1.121691,0.603987 -1.639394,0.949123 -6.988999,-7.506702 -17.429355,-5.004468 -21.570984,1.380543 1.553111,0.862839 3.106222,1.811963 4.573049,2.674802 1.380543,-1.725679 3.019937,-2.84737 5.177036,-3.192505 5.177036,-0.776556 9.232381,2.674801 9.6638,7.075282 0.43142,3.882777 -1.466827,7.075283 -5.004468,8.714677 -0.172568,0.08628 -0.345136,0.258852 -0.345136,0.345136 0,1.725679 0,3.451357 0,5.349604 4.055345,-0.949123 6.988999,-3.106222 9.059813,-6.643863 2.070815,-3.537641 2.243383,-7.24785 1.121692,-11.130627 0.517703,-0.258852 1.035407,-0.603988 1.639394,-0.949124 1.639395,5.004469 1.121691,9.663801 -1.725678,13.977998 -2.84737,4.227912 -6.902715,6.471295 -12.166035,6.988998 0,-1.294259 0,-2.41595 0,-3.623925 0,-1.639395 0.08628,-3.192505 0,-4.745616 0,-0.690272 0.172568,-0.949124 0.862839,-1.121691 4.486765,-1.207975 6.12616,-6.471295 3.27879,-10.008937 -1.639395,-2.070814 -3.882777,-2.84737 -6.471295,-2.157098 -2.588518,0.690271 -4.314197,2.41595 -4.745617,5.090752 -0.517703,3.27879 1.380543,6.385011 4.831901,7.161567 0.517703,0.08628 0.603987,0.345135 0.603987,0.776555 0,3.192505 0,6.298727 0,9.491233 0,0.258851 0,0.517703 0,0.776555 4.400481,0.603988 11.216912,-1.639395 15.185973,-7.334134 3.796493,-5.522172 3.796493,-12.770023 1.121691,-17.601923 -1.553111,0.86284 -3.019938,1.811963 -4.573049,2.674802 1.466827,3.623925 1.553111,7.161567 -0.258852,10.699208 -1.294259,2.502234 -3.278789,4.314197 -6.039875,5.435888 0,-0.603988 0,-1.294259 0,-1.811963 0,-0.172568 0.258852,-0.345136 0.43142,-0.517703 3.278789,-2.070815 5.004468,-5.004469 5.004468,-8.97353 -0.08628,-4.055344 -2.84737,-7.765554 -6.730147,-9.059813 -3.278789,-1.121691 -6.298727,-0.690271 -9.059813,1.207975 -0.43142,0.258852 -0.862839,0.949124 -1.207975,0.86284 -0.517704,0 -1.121691,-0.517704 -1.639395,-0.776556 3.537642,-4.573048 13.028874,-6.126159 18.551046,1.294259 1.466827,-0.862839 3.019938,-1.811962 4.659332,-2.761085 -1.380543,-2.070815 -3.106221,-3.796494 -5.177036,-5.090753 -3.451357,-2.243382 -7.24785,-3.106221 -11.303195,-2.674802 -8.628393,0.949124 -15.013404,8.024406 -15.35854,16.22138 -0.345136,8.283258 4.573048,14.495701 10.871776,16.997935 0,-0.690272 0,-1.380543 0,-1.984531 0,-1.207975 0,-2.329666 0,-3.537641 0,-0.258852 -0.172568,-0.603987 -0.43142,-0.690271 -4.141629,-2.84737 -6.039875,-8.283258 -4.659333,-13.028874 0,0 0.08628,-0.08628 0.172568,-0.172568 0.517704,0.345136 1.035408,0.603987 1.639395,0.949123 -0.603987,3.106222 -0.258852,6.039876 1.725679,8.54211 0.862839,1.035407 1.98453,1.811962 3.019937,2.674802 0.345136,0.258851 0.43142,0.431419 0.43142,0.862839 0,2.84737 0,5.694739 0,8.542109 0,0.172568 -0.08628,0.43142 -0.08628,0.776556 -0.776555,-0.258852 -1.553111,-0.517704 -2.243382,-0.776556 -3.796493,-1.466827 -6.816431,-3.796493 -9.059813,-7.161566 -1.811963,-2.761086 -2.933654,-5.781024 -3.192506,-9.059813 -0.258852,-2.761086 0,-5.435888 0.949124,-8.024406 1.98453,-5.522172 5.694739,-9.577517 11.216911,-11.648331 9.232381,-3.710209 19.155033,-0.08628 23.90065,8.628393 3.710209,6.643863 2.847369,15.35854 -1.984531,21.225848 -3.192505,3.882777 -7.334134,6.298727 -12.338602,6.988999 -1.553111,0.172567 -3.106222,0.08628 -4.745617,0.08628 -0.603987,0 -0.776555,-0.258851 -0.776555,-0.776555 0,-3.278789 0,-6.643863 0.08628,-9.922652 0,-0.43142 -0.172568,-0.690272 -0.517704,-0.86284 -4.227913,-1.98453 -5.953591,-6.298727 -4.40048,-10.699207 0,0 0,-0.08628 0,-0.258852 -1.466827,-0.86284 -3.019938,-1.725679 -4.573049,-2.588518 -0.690271,1.207975 -1.035407,2.41595 -1.207975,3.710209 -0.603988,4.227913 0.43142,8.024406 3.192506,11.303195 0.258851,0.258852 0.517703,0.517704 0.776555,0.776556 0.43142,0.345135 1.035407,0.690271 1.207975,1.121691 0.172568,0.690271 0.08628,1.466827 0.08628,2.243382 -4.314197,-2.502234 -8.283258,-8.369541 -7.161567,-15.703676 0.86284,-6.039875 5.781024,-11.389479 12.079751,-12.770022 6.212443,-1.380543 11.907183,1.121691 15.272256,5.26332 z"
     id="path10"
     inkscape:connector-curvature="0"
     style="fill:#ffffff;stroke-width:0.86283934" /></svg>