<?xml version="1.0" encoding="UTF-8" standalone="no"?>
<!-- Roman Inozemtsev: https://github.com/mir-one/  -->

<svg
   xmlns:dc="http://purl.org/dc/elements/1.1/"
   xmlns:cc="http://creativecommons.org/ns#"
   xmlns:rdf="http://www.w3.org/1999/02/22-rdf-syntax-ns#"
   xmlns:svg="http://www.w3.org/2000/svg"
   xmlns="http://www.w3.org/2000/svg"
   xmlns:sodipodi="http://sodipodi.sourceforge.net/DTD/sodipodi-0.dtd"
   xmlns:inkscape="http://www.inkscape.org/namespaces/inkscape"
   version="1.1"
   id="Слой_1"
   x="0px"
   y="0px"
   viewBox="0 0 67 67"
   style="enable-background:new 0 0 67 67;"
   xml:space="preserve"
   sodipodi:docname="wB-bg-LOCAL.svg"
   inkscape:version="0.92.2pre0 (973e216, 2017-07-25)"><metadata
     id="metadata22"><rdf:RDF><cc:Work
         rdf:about=""><dc:format>image/svg+xml</dc:format><dc:type
           rdf:resource="http://purl.org/dc/dcmitype/StillImage" /></cc:Work></rdf:RDF></metadata><defs
     id="defs20"><style
       id="style829">.cls-1,.cls-3{fill:#0056ff;}.cls-1{fill-rule:evenodd;}.cls-2{fill:#fff;}.cls-4{fill:none;}</style><linearGradient
       y2="0.8933"
       x2="33.5"
       y1="67.8933"
       x1="33.5"
       gradientUnits="userSpaceOnUse"
       id="SVGID_1_"><stop
         id="stop4"
         style="stop-color:#2B388F"
         offset="0" /><stop
         id="stop6"
         style="stop-color:#EB008B"
         offset="1" /></linearGradient></defs><sodipodi:namedview
     pagecolor="#ffffff"
     bordercolor="#666666"
     borderopacity="1"
     objecttolerance="10"
     gridtolerance="10"
     guidetolerance="10"
     inkscape:pageopacity="0"
     inkscape:pageshadow="2"
     inkscape:window-width="1366"
     inkscape:window-height="696"
     id="namedview18"
     showgrid="false"
     inkscape:zoom="3.5223881"
     inkscape:cx="-25.01497"
     inkscape:cy="43.1181"
     inkscape:window-x="0"
     inkscape:window-y="0"
     inkscape:window-maximized="1"
     inkscape:current-layer="Слой_1" /><style
     type="text/css"
     id="style2">
	.st0{fill:url(#SVGID_1_);}
	.st1{fill:#FFFFFF;}
</style><circle
     style="fill:#00aeef;fill-opacity:1"
     id="circle9"
     r="33.5"
     cy="33.5"
     cx="33.5"
     class="st0" /><path
     style="fill:#ffffff"
     inkscape:connector-curvature="0"
     id="path11"
     d="M 33.5,2.6 C 16.4,2.6 2.6,16.4 2.6,33.5 c 0,17.1 13.9,30.9 30.9,30.9 0.3,0 0.7,0 1,-0.1 15.6,-0.5 28.2,-12.5 29.8,-27.7 0.1,-1 0.2,-2.1 0.2,-3.2 C 64.4,16.4 50.6,2.6 33.5,2.6 Z M 54,54 C 48.1,59.9 40.3,62.7 32.6,62.5 25.5,62.3 18.4,59.5 13,54 1.7,42.7 1.7,24.3 13,13 24.3,1.7 42.7,1.7 54,13 c 6,6 8.8,14 8.4,21.8 -0.3,7 -3.1,13.9 -8.4,19.2 z"
     class="st1" /><path
     class="st1"
     d="M 41.791294,21.300164 C 39.84161,19.116518 37.346015,17.86872 34.382495,17.556771 29.157341,17.010859 24.16615,20.052367 22.294453,24.96557 c -0.701886,1.715722 -0.935848,3.431444 -0.779873,5.303141 0.155975,1.871697 0.857861,3.665406 1.637734,5.381128 1.403773,2.96352 3.27547,5.61509 5.459116,8.110686 1.403772,1.637735 2.96352,3.197482 4.44528,4.757229 0.07799,0.07799 0.07799,0.07799 0.07799,0.155975 0.07799,0 0.07799,0 0.155975,0 0.857861,-0.857861 1.715722,-1.715722 2.495595,-2.573583 2.495596,-2.65157 4.75723,-5.537103 6.550939,-8.734585 1.013836,-1.793709 1.871697,-3.665406 2.339621,-5.693077 0.779873,-3.977356 -0.233962,-7.486787 -2.885533,-10.37232 z M 33.212684,36.5077 c -4.055343,0 -7.408799,-3.275469 -7.408799,-7.408799 0,-4.133331 3.275469,-7.4088 7.408799,-7.4088 4.133331,0 7.4088,3.275469 7.4088,7.4088 0,4.13333 -3.353457,7.408799 -7.4088,7.408799 z"
     id="path15"
     inkscape:connector-curvature="0"
     style="fill:#ffffff;stroke-width:0.77987361" /><rect
     id="rect859"
     height="632"
     width="2429.0801"
     class="cls-4"
     x="-1177.0656"
     y="-1035.9661"
     style="fill:none" /><style
     id="style912"
     type="text/css">
	.st0{fill:#3F61AC;}
	.st1{fill:#FFFFFF;}
	.st2{fill:#2B388F;}
	.st3{fill:#58595B;}
</style><style
     id="style954"
     type="text/css">
	.st0{fill:#00AEEF;}
	.st1{fill:#FFFFFF;}
</style></svg>