<?xml version="1.0" encoding="UTF-8" standalone="no"?>
<!-- Roman Inozemtsev: https://github.com/mir-one/  -->

<svg
   xmlns:dc="http://purl.org/dc/elements/1.1/"
   xmlns:cc="http://creativecommons.org/ns#"
   xmlns:rdf="http://www.w3.org/1999/02/22-rdf-syntax-ns#"
   xmlns:svg="http://www.w3.org/2000/svg"
   xmlns="http://www.w3.org/2000/svg"
   xmlns:sodipodi="http://sodipodi.sourceforge.net/DTD/sodipodi-0.dtd"
   xmlns:inkscape="http://www.inkscape.org/namespaces/inkscape"
   version="1.1"
   id="Слой_1"
   x="0px"
   y="0px"
   viewBox="0 0 67 67"
   style="enable-background:new 0 0 67 67;"
   xml:space="preserve"
   sodipodi:docname="wB-bg-PHOTO.svg"
   inkscape:version="0.92.2pre0 (973e216, 2017-07-25)"><metadata
     id="metadata23"><rdf:RDF><cc:Work
         rdf:about=""><dc:format>image/svg+xml</dc:format><dc:type
           rdf:resource="http://purl.org/dc/dcmitype/StillImage" /></cc:Work></rdf:RDF></metadata><defs
     id="defs21" /><sodipodi:namedview
     pagecolor="#ffffff"
     bordercolor="#666666"
     borderopacity="1"
     objecttolerance="10"
     gridtolerance="10"
     guidetolerance="10"
     inkscape:pageopacity="0"
     inkscape:pageshadow="2"
     inkscape:window-width="1366"
     inkscape:window-height="696"
     id="namedview19"
     showgrid="false"
     inkscape:zoom="4.9814089"
     inkscape:cx="8.5816232"
     inkscape:cy="26.053983"
     inkscape:window-x="0"
     inkscape:window-y="0"
     inkscape:window-maximized="1"
     inkscape:current-layer="Слой_1" /><style
     type="text/css"
     id="style2">
	.st0{fill:#1A1A1A;}
	.st1{fill:#232323;}
	.st2{fill:#FFFFFF;}
</style><polygon
     id="polygon842"
     points="558.66,316 313.07,561.61 67.46,316 313.07,70.39 "
     class="cls-1"
     style="fill:#666666;fill-rule:evenodd"
     transform="matrix(0.13622977,0,0,0.13622977,-9.1199989,-9.4474355)" /><path
     id="rect951"
     style="fill:#ffffff;fill-opacity:1;fill-rule:nonzero;stroke-width:0.06331094"
     d="m 33.674074,14.875515 c -1.242896,0.0037 -2.493257,0.129161 -3.73807,0.37838 -4.803854,0.961776 -9.029104,3.747544 -11.949561,7.878752 -1.453423,2.055971 -2.616569,4.919029 -3.089507,7.60461 -0.234209,1.329999 -0.317496,3.796178 -0.174469,5.16318 0.596679,5.702728 3.69354,10.788709 8.531889,14.011751 2.292149,1.526904 5.244996,2.615487 8.103797,2.98761 1.147656,0.149386 4.111637,0.104106 5.266069,-0.0805 2.243896,-0.358823 4.353366,-1.085354 6.340995,-2.183856 0.779674,-0.430914 2.160774,-1.342452 2.305775,-1.521812 0.05703,-0.07057 -0.308244,-0.604055 -1.225174,-1.788905 -0.718596,-0.928562 -1.333835,-1.698421 -1.36712,-1.71088 -0.03329,-0.01246 -0.438221,0.230897 -0.899953,0.540864 -3.328499,2.234498 -7.621364,2.975522 -11.602353,2.002701 -2.562285,-0.626136 -4.875116,-1.942876 -6.795541,-3.868644 -2.826929,-2.834793 -4.275661,-6.317065 -4.285472,-10.301507 -0.0086,-3.490032 1.080508,-6.575038 3.281661,-9.29595 2.130023,-2.633023 5.115523,-4.413932 8.573069,-5.113843 1.292992,-0.261745 4.043521,-0.280073 5.346304,-0.03562 2.29133,0.429959 4.518992,1.410655 6.24663,2.749946 0.27857,0.215946 0.550586,0.419272 0.604423,0.451832 0.09399,0.05681 2.827004,-3.042716 2.880526,-3.26682 0.05293,-0.221523 -2.228817,-1.788757 -3.673753,-2.523411 -2.649854,-1.347266 -5.517459,-2.047428 -8.431624,-2.07702 -0.08278,-9.17e-4 -0.165681,-0.0011 -0.248541,-9.17e-4 z m 0.02993,6.799125 c -0.983221,-0.0071 -1.962478,0.100102 -2.89821,0.323108 -4.157432,0.990815 -7.532007,4.106955 -8.855119,8.177129 -0.433734,1.334221 -0.578957,2.274934 -0.582048,3.770094 -0.0052,2.497274 0.639868,4.675323 1.995038,6.736309 2.022458,3.075835 5.302445,5.088647 8.965306,5.501498 0.868121,0.09785 2.526933,0.03614 3.477149,-0.129219 3.997202,-0.695672 7.578675,-3.575106 9.163136,-7.367193 2.195625,-5.254726 0.49861,-11.259487 -4.1533,-14.696548 C 40.01951,23.401358 38.403494,22.577993 37.431553,22.265461 36.238716,21.881905 34.968137,21.683814 33.704,21.67464 Z m -0.118956,4.445492 c 1.730262,-0.009 3.473165,0.553428 4.926123,1.702348 1.585039,1.253343 2.628241,3.107578 2.897837,5.150692 0.508496,3.853604 -2.008403,7.581973 -5.787875,8.573685 -0.870463,0.228407 -2.538233,0.292191 -3.389988,0.129592 -2.502099,-0.477656 -4.520164,-2.018145 -5.649876,-4.312688 -0.584505,-1.18717 -0.735703,-1.875689 -0.741436,-3.376502 -0.0039,-1.041931 0.02768,-1.389368 0.178805,-1.961155 0.380977,-1.441348 1.073547,-2.619308 2.172244,-3.694663 1.488328,-1.456732 3.433196,-2.201052 5.394166,-2.211309 z"
     inkscape:connector-curvature="0"
     sodipodi:nodetypes="cssccsssccccssssccssccccccssccsssscssssccscccss" /></svg>