<?xml version="1.0" encoding="utf-8"?>
<!-- Roman Inozemtsev: https://github.com/mir-one/  -->
<svg version="1.1" id="Слой_1" xmlns="http://www.w3.org/2000/svg" xmlns:xlink="http://www.w3.org/1999/xlink" x="0px" y="0px"
	 viewBox="0 0 67 67" style="enable-background:new 0 0 67 67;" xml:space="preserve">
<style type="text/css">
	.st0{fill:#F05A28;}
	.st1{fill:#C44827;}
	.st2{fill:#FFFFFF;}
</style>
<g>
	<path class="st0" d="M11.9,39.2l0.9-13.8l3.9-6.6l6.9-5.2l12.1-1.2l12,4L67,35.2c0-0.6,0-1.2,0-1.7C67,15,52,0,33.5,0S0,15,0,33.5
		C0,52,15,67,33.5,67c0.5,0,1.1,0,1.6,0l-17-17.2L11.9,39.2z"/>
	<path class="st1" d="M67,35.2L47.7,16.4l-12-4l-12.1,1.2l-6.9,5.2l-3.9,6.6l-0.9,13.8l6.3,10.6l17,17.2
		C52.3,66.2,66.1,52.4,67,35.2z"/>
</g>
<path class="st2" d="M47.3,22c-0.7,0.4-1.3,0.7-1.9,1.1c-8.1-8.7-20.2-5.8-25,1.6c1.8,1,3.6,2.1,5.3,3.1c1.6-2,3.5-3.3,6-3.7
	c6-0.9,10.7,3.1,11.2,8.2c0.5,4.5-1.7,8.2-5.8,10.1c-0.2,0.1-0.4,0.3-0.4,0.4c0,2,0,4,0,6.2c4.7-1.1,8.1-3.6,10.5-7.7
	c2.4-4.1,2.6-8.4,1.3-12.9c0.6-0.3,1.2-0.7,1.9-1.1c1.9,5.8,1.3,11.2-2,16.2c-3.3,4.9-8,7.5-14.1,8.1c0-1.5,0-2.8,0-4.2
	c0-1.9,0.1-3.7,0-5.5c0-0.8,0.2-1.1,1-1.3c5.2-1.4,7.1-7.5,3.8-11.6c-1.9-2.4-4.5-3.3-7.5-2.5c-3,0.8-5,2.8-5.5,5.9
	c-0.6,3.8,1.6,7.4,5.6,8.3c0.6,0.1,0.7,0.4,0.7,0.9c0,3.7,0,7.3,0,11c0,0.3,0,0.6,0,0.9c5.1,0.7,13-1.9,17.6-8.5
	c4.4-6.4,4.4-14.8,1.3-20.4c-1.8,1-3.5,2.1-5.3,3.1c1.7,4.2,1.8,8.3-0.3,12.4c-1.5,2.9-3.8,5-7,6.3c0-0.7,0-1.5,0-2.1
	c0-0.2,0.3-0.4,0.5-0.6c3.8-2.4,5.8-5.8,5.8-10.4c-0.1-4.7-3.3-9-7.8-10.5c-3.8-1.3-7.3-0.8-10.5,1.4c-0.5,0.3-1,1.1-1.4,1
	c-0.6,0-1.3-0.6-1.9-0.9c4.1-5.3,15.1-7.1,21.5,1.5c1.7-1,3.5-2.1,5.4-3.2c-1.6-2.4-3.6-4.4-6-5.9c-4-2.6-8.4-3.6-13.1-3.1
	c-10,1.1-17.4,9.3-17.8,18.8C13,42,18.7,49.2,26,52.1c0-0.8,0-1.6,0-2.3c0-1.4,0-2.7,0-4.1c0-0.3-0.2-0.7-0.5-0.8
	c-4.8-3.3-7-9.6-5.4-15.1c0,0,0.1-0.1,0.2-0.2c0.6,0.4,1.2,0.7,1.9,1.1c-0.7,3.6-0.3,7,2,9.9c1,1.2,2.3,2.1,3.5,3.1
	c0.4,0.3,0.5,0.5,0.5,1c0,3.3,0,6.6,0,9.9c0,0.2-0.1,0.5-0.1,0.9c-0.9-0.3-1.8-0.6-2.6-0.9c-4.4-1.7-7.9-4.4-10.5-8.3
	c-2.1-3.2-3.4-6.7-3.7-10.5c-0.3-3.2,0-6.3,1.1-9.3c2.3-6.4,6.6-11.1,13-13.5C36.1,8.7,47.6,12.9,53.1,23c4.3,7.7,3.3,17.8-2.3,24.6
	c-3.7,4.5-8.5,7.3-14.3,8.1c-1.8,0.2-3.6,0.1-5.5,0.1c-0.7,0-0.9-0.3-0.9-0.9c0-3.8,0-7.7,0.1-11.5c0-0.5-0.2-0.8-0.6-1
	c-4.9-2.3-6.9-7.3-5.1-12.4c0,0,0-0.1,0-0.3c-1.7-1-3.5-2-5.3-3c-0.8,1.4-1.2,2.8-1.4,4.3c-0.7,4.9,0.5,9.3,3.7,13.1
	c0.3,0.3,0.6,0.6,0.9,0.9c0.5,0.4,1.2,0.8,1.4,1.3c0.2,0.8,0.1,1.7,0.1,2.6c-5-2.9-9.6-9.7-8.3-18.2c1-7,6.7-13.2,14-14.8
	C36.8,14.3,43.4,17.2,47.3,22z"/>
<path class="st2" d="M33.5,2.8C16.4,2.8,2.5,16.6,2.5,33.7s13.9,30.9,30.9,30.9c0.3,0,0.7,0,1-0.1C50,64,62.7,52,64.3,36.8
	c0.1-1,0.2-2.1,0.2-3.2C64.3,16.6,50.5,2.8,33.5,2.8z M54,54.2c-5.9,5.9-13.7,8.7-21.4,8.5c-7.1-0.2-14.2-3-19.6-8.5
	c-11.3-11.3-11.3-29.7,0-41s29.7-11.3,41,0c6,6,8.8,14,8.4,21.8C62,42,59.3,48.9,54,54.2z"/>
</svg>
