<?xml version="1.0" encoding="utf-8"?>
<!-- Roman Inozemtsev: https://github.com/mir-one/  -->
<svg version="1.1" id="Слой_1" xmlns="http://www.w3.org/2000/svg" xmlns:xlink="http://www.w3.org/1999/xlink" x="0px" y="0px"
	 viewBox="0 0 67 67" style="enable-background:new 0 0 67 67;" xml:space="preserve">
<style type="text/css">
	.st0{fill:#90278E;}
	.st1{fill:#6D266E;}
	.st2{fill:#FFFFFF;}
	.st3{fill:#F2B295;}
</style>
<g>
	<g>
		<g>
			<path class="st0" d="M44.8,14.9L66.8,37c0.1-1.1,0.2-2.2,0.2-3.4C67,15.1,52,0.2,33.6,0.2c-18.5,0-33.4,15-33.4,33.4
				C0.2,52,15.1,67,33.6,67c2.6,0,5.2-0.3,7.6-0.9L17.4,42.3L44.8,14.9z"/>
			<path class="st1" d="M66.8,37L44.8,14.9L17.4,42.3l23.8,23.8C54.9,62.9,65.4,51.3,66.8,37z"/>
		</g>
		<g>
			<circle class="st2" cx="32.1" cy="29.7" r="19.4"/>
			<circle class="st3" cx="32.1" cy="29.7" r="14.7"/>
		</g>
		<circle class="st2" cx="40.3" cy="43.2" r="13.6"/>
	</g>
	<path class="st2" d="M33.5,2.8C16.5,2.8,2.7,16.5,2.7,33.6s13.9,30.8,30.8,30.8c0.3,0,0.7,0,1-0.1c15.6-0.5,28.1-12.5,29.7-27.6
		c0.1-1,0.2-2.1,0.2-3.2C64.4,16.5,50.6,2.8,33.5,2.8z M54,54c-5.9,5.9-13.7,8.7-21.3,8.5c-7.1-0.2-14.2-3-19.5-8.5
		c-11.3-11.3-11.3-29.6,0-40.9s29.6-11.3,40.9,0c6,6,8.8,14,8.4,21.7C62.1,41.9,59.3,48.7,54,54z"/>
</g>
</svg>
