<?xml version="1.0" encoding="UTF-8" standalone="no"?>
<!-- Roman Inozemtsev: https://github.com/mir-one/  -->

<svg
   xmlns:osb="http://www.openswatchbook.org/uri/2009/osb"
   xmlns:dc="http://purl.org/dc/elements/1.1/"
   xmlns:cc="http://creativecommons.org/ns#"
   xmlns:rdf="http://www.w3.org/1999/02/22-rdf-syntax-ns#"
   xmlns:svg="http://www.w3.org/2000/svg"
   xmlns="http://www.w3.org/2000/svg"
   xmlns:sodipodi="http://sodipodi.sourceforge.net/DTD/sodipodi-0.dtd"
   xmlns:inkscape="http://www.inkscape.org/namespaces/inkscape"
   version="1.1"
   id="Слой_1"
   x="0px"
   y="0px"
   viewBox="0 0 64.553352 64.551346"
   xml:space="preserve"
   sodipodi:docname="wB-bg-GARAGE.svg"
   width="64.553352"
   height="64.551346"
   inkscape:version="0.92.2pre0 (973e216, 2017-07-25)"><metadata
     id="metadata39"><rdf:RDF><cc:Work
         rdf:about=""><dc:format>image/svg+xml</dc:format><dc:type
           rdf:resource="http://purl.org/dc/dcmitype/StillImage" /></cc:Work></rdf:RDF></metadata><defs
     id="defs37"><linearGradient
       id="linearGradient901"
       osb:paint="solid"><stop
         style="stop-color:#ffff00;stop-opacity:1;"
         offset="0"
         id="stop899" /></linearGradient></defs><sodipodi:namedview
     pagecolor="#ffffff"
     bordercolor="#666666"
     borderopacity="1"
     objecttolerance="10"
     gridtolerance="10"
     guidetolerance="10"
     inkscape:pageopacity="0"
     inkscape:pageshadow="2"
     inkscape:window-width="1366"
     inkscape:window-height="696"
     id="namedview35"
     showgrid="false"
     inkscape:zoom="5.1744868"
     inkscape:cx="14.071911"
     inkscape:cy="34.492166"
     inkscape:window-x="0"
     inkscape:window-y="0"
     inkscape:window-maximized="1"
     inkscape:current-layer="Слой_1" /><style
     type="text/css"
     id="style2">
	.st0{fill:#404041;}
	.st1{fill:none;}
	.st2{fill:#1A1A1A;}
	.st3{fill:#333333;}
	.st4{fill:#808184;}
	.st5{fill:#71C8F0;}
	.st6{fill:#EE3B24;}
	.st7{fill:#FDCD08;}
	.st8{fill:#FFFFFF;}
</style><path
     style="fill:#1a1a1a"
     inkscape:connector-curvature="0"
     id="path4"
     d="m 52.018144,12.583671 c -10.899998,-10.9 -28.599998,-10.9 -39.499998,0 -10.900001,10.9 -10.900001,28.6 0,39.5 5.2,5.2 12,7.9 18.9,8.1 7.4,0.2 14.999998,-2.5 20.599998,-8.1 5.1,-5.1 7.8,-11.8 8.1,-18.5 0.4,-7.5 -2.3,-15.2 -8.1,-21 z"
     class="st0" /><path
     style="fill:none"
     inkscape:connector-curvature="0"
     id="path6"
     d="m 42.114693,34.064269 c 0,-16.4 -13.3,-29.6999996 -29.700001,-29.6999996 -16.4999994,0 -29.8,13.2999996 -29.8,29.6999996 0,16.5 13.3000006,29.8 29.8,29.8 0.3,0 0.600001,0 1,0 2.700001,-0.1 5.4,-0.6 7.9,-1.3 l -27.2999994,-27.2 10.8,-10.2 7.5000004,7.5 1.6,-1.6 -6.8,-6.7 7.2,-7.8 26.5,26.5 c 0.6,-1.9 1,-3.9 1.2,-5.9 0.1,-1 0.1,-2 0.1,-3.1 z"
     class="st1" /><path
     style="fill:#1a1a1a"
     d="M 32.300783,0.051343 C 14.500783,0.051343 0,14.450562 0,32.250562 c 0,17.8 14.400783,32.300781 32.300783,32.300781 1.1,0 2.198828,-0.09922 3.298828,-0.199219 2.6,-0.3 5.1,-0.901172 7.5,-1.701172 9.000003,-3.3 16.200003,-10.499609 19.500003,-19.599609 l -0.0762,-0.07617 c 0.59171,-1.778029 1.18067,-3.650468 1.47656,-5.623049 0.3,-1.7 0.5,-3.401172 0.5,-5.201172 0,-17.7 -14.39922,-32.099609 -32.199221,-32.099609 z m 0,2.400391 c 16.400001,0.1 29.699221,13.398828 29.699221,29.798828 0,1 -0.0992,2 -0.19922,3 -0.2,2 -0.60118,4.00039 -1.20117,5.90039 l 0.0742,0.07422 c -2.91634,9.264203 -10.29926,16.533589 -19.574221,19.425781 -2.5,0.8 -5.20039,1.300391 -7.900391,1.400391 h -1 c -16.4,-10e-7 -29.699221,-13.300782 -29.699221,-29.800782 0,-16.5 13.300783,-29.798828 29.800782,-29.798828 z"
     id="path8"
     inkscape:connector-curvature="0" /><path
     style="fill:#ffd443;fill-opacity:1;fill-rule:nonzero;stroke-width:1.02387345"
     d="M 34.069116,0 0.083312,33.9858 A 32.320347,32.320347 0 0 0 2.05907,43.484627 L 43.559941,1.983754 A 32.320347,32.320347 0 0 0 34.069116,0 Z M 16.571281,4.067497 A 32.320347,32.320347 0 0 0 4.104811,16.533956 Z M 52.192874,6.781162 6.874472,52.099563 a 32.320347,32.320347 0 0 0 5.779285,5.693295 L 57.892174,12.556449 a 32.320347,32.320347 0 0 0 -5.6993,-5.775287 z m 10.4707,14.434216 -41.348882,41.348891 a 32.320347,32.320347 0 0 0 9.012882,1.901766 l 34.22578,-34.225773 a 32.320347,32.320347 0 0 0 -1.88978,-9.024884 z m -1.75978,26.104775 -13.48033,13.480334 a 32.320347,32.320347 0 0 0 13.48033,-13.480334 z"
     id="path67"
     inkscape:connector-curvature="0" /><path
     style="fill:#ffffff;fill-opacity:1;fill-rule:nonzero;stroke-width:1.19272733"
     d="M 32.300783,62.101147 C 15.800784,62.101147 2.5,48.802319 2.5,32.302318 2.5,15.802319 15.79922,2.501539 32.19922,2.501538 h 1 c 2.700001,0.1 5.400391,0.600392 7.900391,1.40039 9.274963,2.892193 16.657883,10.161579 19.574213,19.425781 l -0.0742,0.07422 c 0.6,1.9 1.00117,3.900391 1.20117,5.900391 0.1,1 0.19922,2 0.19922,3 0,16.400001 -13.29921,29.698829 -29.699213,29.798829 z m -0.0332,-1.90625 c 7.15,0 14.300001,-2.72578 19.750001,-8.175782 5.8,-5.8 8.50156,-13.5 8.10156,-21 -0.3,-6.7 -3.00156,-13.4 -8.10156,-18.5 -5.6,-5.599999 -13.199611,-8.299608 -20.599611,-8.099608 -6.900001,0.2 -13.700389,2.899609 -18.90039,8.099608 -10.900002,10.9 -10.900002,28.6 0,39.5 5.449999,5.450002 12.599999,8.175782 19.75,8.175782 z"
     id="path987"
     inkscape:connector-curvature="0" /><flowRoot
     xml:space="preserve"
     id="flowRoot1006"
     style="fill:black;fill-opacity:1;stroke:none;font-family:sans-serif;font-style:normal;font-weight:normal;font-size:40px;line-height:1.25;letter-spacing:0px;word-spacing:0px"><flowRegion
       id="flowRegion1008"><rect
         id="rect1010"
         width="61.068859"
         height="49.086994"
         x="-22.804193"
         y="10.246444" /></flowRegion><flowPara
       id="flowPara1012"></flowPara></flowRoot></svg>