<?xml version="1.0" encoding="UTF-8" standalone="no"?>
<!-- Roman Inozemtsev: https://github.com/mir-one/  -->

<svg
   xmlns:dc="http://purl.org/dc/elements/1.1/"
   xmlns:cc="http://creativecommons.org/ns#"
   xmlns:rdf="http://www.w3.org/1999/02/22-rdf-syntax-ns#"
   xmlns:svg="http://www.w3.org/2000/svg"
   xmlns="http://www.w3.org/2000/svg"
   xmlns:sodipodi="http://sodipodi.sourceforge.net/DTD/sodipodi-0.dtd"
   xmlns:inkscape="http://www.inkscape.org/namespaces/inkscape"
   version="1.1"
   id="Слой_1"
   x="0px"
   y="0px"
   viewBox="0 0 67 67"
   style="enable-background:new 0 0 67 67;"
   xml:space="preserve"
   sodipodi:docname="wB-bg-KMSLIFE.svg"
   inkscape:version="0.92.2pre0 (973e216, 2017-07-25)"><metadata
     id="metadata19"><rdf:RDF><cc:Work
         rdf:about=""><dc:format>image/svg+xml</dc:format><dc:type
           rdf:resource="http://purl.org/dc/dcmitype/StillImage" /></cc:Work></rdf:RDF></metadata><defs
     id="defs17" /><sodipodi:namedview
     pagecolor="#ffffff"
     bordercolor="#666666"
     borderopacity="1"
     objecttolerance="10"
     gridtolerance="10"
     guidetolerance="10"
     inkscape:pageopacity="0"
     inkscape:pageshadow="2"
     inkscape:window-width="1366"
     inkscape:window-height="696"
     id="namedview15"
     showgrid="false"
     inkscape:zoom="7.0447761"
     inkscape:cx="45.690584"
     inkscape:cy="31.906804"
     inkscape:window-x="0"
     inkscape:window-y="0"
     inkscape:window-maximized="1"
     inkscape:current-layer="Слой_1" /><style
     type="text/css"
     id="style2">
	.st0{fill:#02ACEC;}
	.st1{fill:#FFFFFF;}
	.st2{fill:#F15A29;}
</style><circle
     style="fill:#5599ff;fill-opacity:1;fill-rule:nonzero;stroke-width:2.10714293"
     id="path828"
     cx="33.641945"
     cy="33.500004"
     r="33.5" /><path
     class="st1"
     d="m 33.641945,2.600002 c -17.1,0 -30.9999997,13.8 -30.9999997,30.9 0,17.1 13.8999997,30.9 30.8999997,30.9 0.3,0 0.7,0 1,-0.1 15.6,-0.6 28.3,-12.6 29.9,-27.8 0.1,-1 0.2,-2.1 0.2,-3.2 -0.2,-16.9 -14,-30.7 -31,-30.7 z m 20.5,51.3 c -5.9,5.9 -13.7,8.7 -21.4,8.5 -7.1,-0.2 -14.2,-3 -19.6,-8.5 -11.2999997,-11.3 -11.2999997,-29.6 0,-40.9 11.3,-11.3 29.7,-11.3 40.9,0 6,6 8.8,14 8.4,21.8 -0.3,6.9 -3,13.8 -8.3,19.1 z"
     id="path6"
     inkscape:connector-curvature="0"
     style="fill:#ffffff" /><g
     id="g12"
     transform="translate(-1.8080546,0.70000199)"><path
       class="st1"
       d="m 33.3,22.8 h 6.4 l -8.6,8.2 4.8,11.8 h -6 l -3,-7.8 -3,2.8 -1.1,5 H 17 l 4.3,-20 h 5.8 l -1.6,7.4 z"
       id="path8"
       inkscape:connector-curvature="0"
       style="fill:#ffffff" /><path
       class="st2"
       d="m 53.9,37.8 -1,5 H 37.8 l 4.3,-20 h 5.8 l -3.2,15.1 h 9.2 z"
       id="path10"
       inkscape:connector-curvature="0"
       style="fill:#f15a29" /></g></svg>