<?xml version="1.0" encoding="utf-8"?>
<!-- Roman Inozemtsev: https://github.com/mir-one/  -->
<svg version="1.1" id="Слой_1" xmlns="http://www.w3.org/2000/svg" xmlns:xlink="http://www.w3.org/1999/xlink" x="0px" y="0px"
	 viewBox="0 0 67 67" style="enable-background:new 0 0 67 67;" xml:space="preserve">
<style type="text/css">
	.st0{fill:#02ACEC;}
	.st1{fill:#FFFFFF;}
	.st2{fill:#F15A29;}
</style>
<path class="st0" d="M66.9,33.4C66.9,15,52,0,33.5,0S0.1,15,0.1,33.4c0,17.4,13.2,31.6,30.1,33.3c1.1,0.1,2.3,0.2,3.4,0.2
	c17.7,0,32.2-13.8,33.4-31.2l-0.1-0.1C66.9,34.9,66.9,34.2,66.9,33.4z M18.5,46.8l-1.1-1.1l0.1-0.1l1.1,1.1L18.5,46.8z"/>
<path class="st1" d="M33.5,2.5c-17.1,0-31,13.8-31,30.9s13.9,30.9,30.9,30.9c0.3,0,0.7,0,1-0.1C50,63.6,62.7,51.6,64.3,36.4
	c0.1-1,0.2-2.1,0.2-3.2C64.3,16.3,50.5,2.5,33.5,2.5z M54,53.8c-5.9,5.9-13.7,8.7-21.4,8.5c-7.1-0.2-14.2-3-19.6-8.5
	C1.7,42.5,1.7,24.2,13,12.9s29.7-11.3,40.9,0c6,6,8.8,14,8.4,21.8C62,41.6,59.3,48.5,54,53.8z"/>
<g>
	<path class="st1" d="M33.3,22.8h6.4L31.1,31l4.8,11.8h-6l-3-7.8l-3,2.8l-1.1,5h-5.8l4.3-20h5.8l-1.6,7.4L33.3,22.8z"/>
	<path class="st2" d="M53.9,37.8l-1,5H37.8l4.3-20h5.8l-3.2,15.1H53.9z"/>
</g>
</svg>
