<?xml version="1.0" encoding="UTF-8" standalone="no"?>
<!-- Roman Inozemtsev: https://github.com/mir-one/  -->

<svg
   xmlns:dc="http://purl.org/dc/elements/1.1/"
   xmlns:cc="http://creativecommons.org/ns#"
   xmlns:rdf="http://www.w3.org/1999/02/22-rdf-syntax-ns#"
   xmlns:svg="http://www.w3.org/2000/svg"
   xmlns="http://www.w3.org/2000/svg"
   xmlns:sodipodi="http://sodipodi.sourceforge.net/DTD/sodipodi-0.dtd"
   xmlns:inkscape="http://www.inkscape.org/namespaces/inkscape"
   version="1.1"
   id="Слой_1"
   x="0px"
   y="0px"
   viewBox="0 0 67 67"
   style="enable-background:new 0 0 67 67;"
   xml:space="preserve"
   sodipodi:docname="wB-bg-QUEST.svg"
   inkscape:version="0.92.2pre0 (973e216, 2017-07-25)"><metadata
     id="metadata19"><rdf:RDF><cc:Work
         rdf:about=""><dc:format>image/svg+xml</dc:format><dc:type
           rdf:resource="http://purl.org/dc/dcmitype/StillImage" /></cc:Work></rdf:RDF></metadata><defs
     id="defs17" /><sodipodi:namedview
     pagecolor="#ffffff"
     bordercolor="#666666"
     borderopacity="1"
     objecttolerance="10"
     gridtolerance="10"
     guidetolerance="10"
     inkscape:pageopacity="0"
     inkscape:pageshadow="2"
     inkscape:window-width="1366"
     inkscape:window-height="696"
     id="namedview15"
     showgrid="false"
     inkscape:zoom="4.981409"
     inkscape:cx="24.773423"
     inkscape:cy="25.138413"
     inkscape:window-x="0"
     inkscape:window-y="0"
     inkscape:window-maximized="1"
     inkscape:current-layer="Слой_1" /><style
     type="text/css"
     id="style2">
	.st0{fill:#F05A28;}
	.st1{fill:#C44827;}
	.st2{fill:#FFFFFF;}
</style><ellipse
     style="fill:#000000;fill-opacity:1;fill-rule:nonzero;stroke-width:0.99675703"
     id="path830"
     cx="33.725399"
     cy="33.475346"
     rx="33.707657"
     ry="33.524654" /><path
     class="st2"
     d="m 47.547565,21.900945 c -0.7,0.4 -1.3,0.7 -1.9,1.1 -8.1,-8.7 -20.2,-5.8 -25,1.6 1.8,1 3.6,2.1 5.3,3.1 1.6,-2 3.5,-3.3 6,-3.7 6,-0.9 10.7,3.1 11.2,8.2 0.5,4.5 -1.7,8.2 -5.8,10.1 -0.2,0.1 -0.4,0.3 -0.4,0.4 0,2 0,4 0,6.2 4.7,-1.1 8.1,-3.6 10.5,-7.7 2.4,-4.1 2.6,-8.4 1.3,-12.9 0.6,-0.3 1.2,-0.7 1.9,-1.1 1.9,5.8 1.3,11.2 -2,16.2 -3.3,4.9 -8,7.5 -14.1,8.1 0,-1.5 0,-2.8 0,-4.2 0,-1.9 0.1,-3.7 0,-5.5 0,-0.8 0.2,-1.1 1,-1.3 5.2,-1.4 7.1,-7.5 3.8,-11.6 -1.9,-2.4 -4.5,-3.3 -7.5,-2.5 -3,0.8 -5,2.8 -5.5,5.9 -0.6,3.8 1.6,7.4 5.6,8.3 0.6,0.1 0.7,0.4 0.7,0.9 0,3.7 0,7.3 0,11 0,0.3 0,0.6 0,0.9 5.1,0.7 13,-1.9 17.6,-8.5 4.4,-6.4 4.4,-14.8 1.3,-20.4 -1.8,1 -3.5,2.1 -5.3,3.1 1.7,4.2 1.8,8.3 -0.3,12.4 -1.5,2.9 -3.8,5 -7,6.3 0,-0.7 0,-1.5 0,-2.1 0,-0.2 0.3,-0.4 0.5,-0.6 3.8,-2.4 5.8,-5.8 5.8,-10.4 -0.1,-4.7 -3.3,-9 -7.8,-10.5 -3.8,-1.3 -7.3,-0.8 -10.5,1.4 -0.5,0.3 -1,1.1 -1.4,1 -0.6,0 -1.3,-0.6 -1.9,-0.9 4.1,-5.3 15.1,-7.1 21.5,1.5 1.7,-1 3.5,-2.1 5.4,-3.2 -1.6,-2.4 -3.6,-4.4 -6,-5.9 -4,-2.6 -8.4,-3.6 -13.1,-3.1 -10,1.1 -17.4,9.3 -17.8,18.8 -0.4,9.6 5.3,16.8 12.6,19.7 0,-0.8 0,-1.6 0,-2.3 0,-1.4 0,-2.7 0,-4.1 0,-0.3 -0.2,-0.7 -0.5,-0.8 -4.8,-3.3 -7,-9.6 -5.4,-15.1 0,0 0.1,-0.1 0.2,-0.2 0.6,0.4 1.2,0.7 1.9,1.1 -0.7,3.6 -0.3,7 2,9.9 1,1.2 2.3,2.1 3.5,3.1 0.4,0.3 0.5,0.5 0.5,1 0,3.3 0,6.6 0,9.9 0,0.2 -0.1,0.5 -0.1,0.9 -0.9,-0.3 -1.8,-0.6 -2.6,-0.9 -4.4,-1.7 -7.9,-4.4 -10.5,-8.3 -2.1,-3.2 -3.4,-6.7 -3.7,-10.5 -0.3,-3.2 0,-6.3 1.1,-9.3 2.3,-6.4 6.6,-11.1 13,-13.5 10.7,-4.2999997 22.2,-0.1 27.7,10 4.3,7.7 3.3,17.8 -2.3,24.6 -3.7,4.5 -8.5,7.3 -14.3,8.1 -1.8,0.2 -3.6,0.1 -5.5,0.1 -0.7,0 -0.9,-0.3 -0.9,-0.9 0,-3.8 0,-7.7 0.1,-11.5 0,-0.5 -0.2,-0.8 -0.6,-1 -4.9,-2.3 -6.9,-7.3 -5.1,-12.4 0,0 0,-0.1 0,-0.3 -1.7,-1 -3.5,-2 -5.3,-3 -0.8,1.4 -1.2,2.8 -1.4,4.3 -0.7,4.9 0.5,9.3 3.7,13.1 0.3,0.3 0.6,0.6 0.9,0.9 0.5,0.4 1.2,0.8 1.4,1.3 0.2,0.8 0.1,1.7 0.1,2.6 -5,-2.9 -9.6,-9.7 -8.3,-18.2 1,-7 6.7,-13.2 14,-14.8 7.2,-1.6 13.8,1.3 17.7,6.1 z"
     id="path10"
     inkscape:connector-curvature="0"
     style="fill:#ffffff" /><path
     class="st2"
     d="m 33.725399,2.5753474 c -17.1,0 -31,13.7999996 -31,30.8999996 0,17.1 13.9,30.9 30.9,30.9 0.3,0 0.7,0 1,-0.1 15.6,-0.5 28.3,-12.5 29.9,-27.7 0.1,-1 0.2,-2.1 0.2,-3.2 -0.2,-17 -14,-30.7999996 -31,-30.7999996 z m 20.5,51.3999996 c -5.9,5.9 -13.7,8.7 -21.4,8.5 -7.1,-0.2 -14.2,-3 -19.6,-8.5 -11.3,-11.3 -11.3,-29.7 0,-41 11.3,-11.2999996 29.7,-11.2999996 41,0 6,6 8.8,14 8.4,21.8 -0.4,7 -3.1,13.9 -8.4,19.2 z"
     id="path12"
     inkscape:connector-curvature="0"
     style="fill:#ffffff" /></svg>