<?xml version="1.0" encoding="utf-8"?>
<!-- Roman Inozemtsev: https://github.com/mir-one/  -->
<svg version="1.1" id="Слой_1" xmlns="http://www.w3.org/2000/svg" xmlns:xlink="http://www.w3.org/1999/xlink" x="0px" y="0px"
	 viewBox="0 0 67 67" style="enable-background:new 0 0 67 67;" xml:space="preserve">
<style type="text/css">
	.st0{fill:#1A1A1A;}
	.st1{fill:#232323;}
	.st2{fill:#FFFFFF;}
</style>
<g>
	<g>
		<g>
			<path class="st0" d="M10.5,42l-0.9-13l7.8-13.8l14.1-5.9L42.6,11l7,4.3L67,32.7C66.5,14.6,51.7,0,33.5,0C15,0,0,15,0,33.5
				c0,18.2,14.5,33,32.6,33.5L15.3,49.6L10.5,42z"/>
			<path class="st1" d="M67,33.5c0-0.3,0-0.6,0-0.8L49.6,15.3l-7-4.3L31.5,9.3l-14.1,5.9L9.6,29.1l0.9,13l4.8,7.6L32.6,67
				c0.3,0,0.6,0,0.9,0C52,67,67,52,67,33.5z"/>
		</g>
		<path class="st2" d="M9.2,33.6C9.2,20.2,19.9,9.3,33.4,9.3c13.4,0,24.3,10.7,24.4,24.2C57.8,46.7,47,57.7,33.8,57.7
			C20.1,57.8,9.3,47.2,9.2,33.6z M38.2,45.2c3.5,1.1,6.5,2,9.4,3.2c1.6,0.6,2.5,0.1,3.4-1.1c2.7-3.5,4.2-7.5,4.6-11.8
			c0.1-1.6,0-3.2,0-5.6C49.5,35.3,44.1,40,38.2,45.2z M21,31.6c-1.7,1.5-3,2.6-4.3,3.8c-5.1,4.5-5.2,5.2-1.2,10.8
			c0.7,1,1.4,2.1,2.4,2.9c2.3,1.8,4.7,3.5,7,5.2c0.2-0.2,0.4-0.4,0.6-0.6C24,46.5,22.6,39.3,21,31.6z M25.8,43.4
			c0.8,3.9,1.4,7.2,2.1,10.5c0.1,0.5,0.9,1.2,1.4,1.3c6.5,1.2,12.5-0.1,18.2-4.5C40.1,48.3,33.2,45.9,25.8,43.4z M19.6,16.5
			c7.5,2.5,14.4,4.7,21.7,7.1c-0.7-3.7-1.3-6.8-2-9.9c-0.2-0.7-1-1.5-1.6-1.7C31.2,10.7,25.5,12.4,19.6,16.5z M41.6,13.1
			c1.5,7.5,2.9,14.6,4.4,22.2c2.9-2.6,5.5-4.8,8-7.1c0.4-0.4,0.6-1.3,0.4-1.8C52.1,20.2,48.1,15.8,41.6,13.1z M28.5,21.9
			c-3.5-1.2-6.6-2.2-9.6-3.2c-0.5-0.2-1.5,0-1.8,0.4C12.8,24,11,29.6,11.8,36.6C17.5,31.6,22.8,26.9,28.5,21.9z"/>
	</g>
	<path class="st2" d="M33.5,2.6C16.4,2.6,2.5,16.4,2.5,33.5s13.9,30.9,30.9,30.9c0.3,0,0.7,0,1-0.1C50,63.8,62.7,51.8,64.3,36.6
		c0.1-1,0.2-2.1,0.2-3.2C64.3,16.4,50.5,2.6,33.5,2.6z M54,54c-5.9,5.9-13.7,8.7-21.4,8.5c-7.1-0.2-14.2-3-19.6-8.5
		c-11.3-11.3-11.3-29.7,0-41s29.7-11.3,41,0c6,6,8.8,14,8.4,21.8C62,41.8,59.3,48.7,54,54z"/>
</g>
</svg>
