<?xml version="1.0" encoding="utf-8"?>
<!-- Roman Inozemtsev: https://github.com/mir-one/  -->
<svg version="1.1"
	 id="Слой_1" shape-rendering="geometricPrecision" image-rendering="optimizeQuality" text-rendering="geometricPrecision"
	 xmlns="http://www.w3.org/2000/svg" xmlns:xlink="http://www.w3.org/1999/xlink" x="0px" y="0px" viewBox="0 0 114 114"
	 style="enable-background:new 0 0 114 114;" xml:space="preserve">
<style type="text/css">
	.st0{fill:#F57D00;}
</style>
<path id="Layer_x0020_1" class="st0" d="M4.2,46.9L46.9,4.2c5.5-5.5,14.6-5.5,20.1,0l42.8,42.8c5.5,5.5,5.5,14.6,0,20.1l-42.8,42.8
	c-5.5,5.5-14.6,5.5-20.1,0L4.2,67.1C-1.4,61.5-1.4,52.5,4.2,46.9z M46.7,27.7c-4.9,0.3-7.8,1.2-11,3.6c-2.6,1.9-5.1,4.5-6.5,8.2
	c-1.7,4.5-1.4,8.1-1.4,13.2c0,4.8-0.2,10,0,14.7c0.2,4.5,1.4,8.1,3.6,11c2,2.7,4.6,5,8.2,6.5c4.4,1.7,8.1,1.4,13.2,1.4
	c4.8,0,10,0.2,14.7,0c4.9-0.2,8.8-1.6,12-4.3c0.7-0.6,2.3-2.1,2.8-2.8c4.6-6.1,4.2-10,4.2-17.8c0-2.4,0.1-5,0-7.3
	c-0.1-2.1-1.4-3.9-3.1-4.3c-2.3-0.6-4.2,0.6-6.3-0.9c-1.9-1.4-1.4-2.9-1.8-5.6c-0.7-4.3-2.5-7.5-4.9-9.9c-4.8-4.8-9.6-5.7-16.2-5.7
	C51.7,27.7,48.9,27.5,46.7,27.7z M46.7,61.9c-4.3,0.5-5.7,5.9-2.4,8.6c1.1,0.9,2.1,1.1,3.8,1.1c1.8,0,18.1,0.1,19.5-0.1
	c4.2-0.5,5.6-6.1,2.3-8.6c-1.1-0.9-2.1-1.1-3.8-1.1C64.2,61.9,48,61.8,46.7,61.9z M46.2,42.5c-4.3,1.1-5.1,6.4-1.7,8.8
	c1.7,1.2,4,0.8,6.4,0.8c1.7,0,5.9,0.2,7.2-0.1c4.3-1,5-6.5,1.7-8.7c-1.8-1.2-4-0.9-6.4-0.9C51.8,42.4,47.5,42.2,46.2,42.5z"/>
</svg>
