<?xml version="1.0" encoding="utf-8"?>
<!-- Roman Inozemtsev: https://github.com/mir-one/  -->
<svg version="1.1"
	 id="Слой_1" shape-rendering="geometricPrecision" text-rendering="geometricPrecision" image-rendering="optimizeQuality"
	 xmlns="http://www.w3.org/2000/svg" xmlns:xlink="http://www.w3.org/1999/xlink" x="0px" y="0px" viewBox="0 0 173.8 42.3"
	 style="enable-background:new 0 0 173.8 42.3;" xml:space="preserve">
<style type="text/css">
	.st0{fill:#332C6C;}
</style>
<path class="st0" d="M1,33.6c3.5,0.2,6.7,0.2,10.1,0.7c2,0.4,4.1-0.1,6.2,0c6.9,0.4,13.9,0.7,20.7,1c3.5,0.1,7,0.4,10.5,0.5
	c7.7,0.4,15.5,0.7,23.2,1.1c7.5,0.5,15,0.6,22.5,1c10,0.5,19.8,1,29.8,1.5c7,0.4,14.1,0.6,21.1,0.9c2.9,0.1,5.7,0.2,8.5,0.6
	c2,0.4,4-0.6,5.9,0.2c0,0,0,0,0,0.1v-0.1c-15.5,0.2-30.9,0.1-46.4,0.1c-35.9,0-71.9,0-107.8,0c-1.1,0-1.7-0.4-2-1.4
	C2.5,38.1,1.7,35.9,1,33.6z"/>
<path class="st0" d="M47.2,17.6c2.9,1.1,3.9,3.4,4.6,6.1c0.7,2.7,1.5,5.5,2.2,8.5c-2.4,0-4.6,0-7,0c-0.9,0-1-1-1.2-1.6
	c-0.6-2.6-1.1-5.2-1.7-7.7c-0.5-2.1-2.7-3.4-4.9-2.9c-0.9,0.2-0.6,0.7-0.5,1.2c0.6,3.4,0.1,6.9,0.2,10.2c0,0.6-0.2,0.9-0.9,0.9
	c-1.9,0-3.7,0-5.6,0c-1,0-1-0.5-1-1.2c0-4.4,0-8.6,0-13c0-4.7,0-9.5,0-14.2c0-1.4,0.1-1.9,1.7-2c3.5-0.4,7-0.6,10.4-0.1
	c3.1,0.4,6.2,1.1,8.2,4c2,2.7,1.7,8.1-2,10.6C48.9,16.6,48.2,17.2,47.2,17.6z M38.8,10.6c0,1.2,0,2.5,0,3.9c0,0.4-0.1,0.9,0.6,1
	c2,0.1,3.9-0.4,5.1-1.9c1.2-1.5,1.4-4.4,0.2-6s-3-1.7-4.9-1.7c-0.9,0-1.1,0.5-1.1,1.4C38.8,8.3,38.8,9.5,38.8,10.6z"/>
<path class="st0" d="M119.7,16.8c0-4.6,0-9.4,0-14c0-0.7,0.1-1,0.9-1.1c4.1-0.5,8.1-0.9,12.2,0c3,0.6,5.5,2.1,7.5,4.5
	c3.2,4.1,3.1,8.9,2.6,13.5c-0.2,2.7-1.2,5.2-3.1,7.5c-2,2.4-4.6,3.6-7.5,4.2c-3.6,0.9-7.2,0.7-11,0.5c-1.2-0.1-1.7-0.5-1.7-2
	C119.7,25.7,119.7,21.2,119.7,16.8L119.7,16.8z M127,16.7c0,3.2,0,6.5,0,9.7c0,0.7,0.1,1,1,1c3.1,0.1,5.4-1.5,6.5-4.6
	c1.2-3.5,1.1-7.1,0.5-10.7c-0.5-3.5-2.6-6.2-6.9-6c-0.9,0-1.1,0.2-1.1,1.1C127,10.3,127,13.5,127,16.7z"/>
<path class="st0" d="M157.1,1.5c1.1,0,2.4,0,3.5,0c0.7,0,1.1,0.2,1.4,1c1.7,7.2,3.6,14.4,5.4,21.6c0.6,2.5,1.1,5,1.7,7.4
	c0.1,0.6-0.1,0.7-0.6,0.7c-1.9,0-3.7,0-5.6,0c-0.6,0-0.9-0.4-1-0.9c-0.4-1.7-0.9-3.5-1.2-5.2c-0.1-0.9-0.5-1.2-1.5-1.2
	c-1.6,0.1-3.1,0.1-4.7,0c-1,0-1.5,0.4-1.6,1.2c-0.2,1.5-0.6,3-0.9,4.6c-0.1,1-0.6,1.5-1.7,1.5c-1.7-0.1-3.5,0-5.1,0
	c-0.6,0-0.9-0.1-0.6-0.9c1.4-4.6,2.6-9.2,3.9-14c1.4-4.7,2.9-9.5,4-14.2c0.4-1.6,1.1-1.7,2.4-1.6C155.4,1.5,156.2,1.5,157.1,1.5z
	 M157,7.3c-0.1,0-0.1,0-0.2,0c-0.9,3.7-1.7,7.5-2.5,11.2c-0.4,1.9-0.2,1.9,1.7,1.9c0.7,0,1.6,0,2.4,0c0.9,0,1.2-0.1,1-1.1
	C158.5,15.3,157.7,11.3,157,7.3z"/>
<path class="st0" d="M2.2,32.2c0.9-4.5,2.2-8.6,3.4-12.9c1-3.7,2.1-7.5,3.1-11.2c0.5-2.1,1.1-4,1.6-6c0.1-0.6,0.5-0.6,1-0.6
	c2.5,0,4.9,0,7.4,0c0.9,0,1,0.5,1.1,1.1c1.6,6.9,3.2,13.9,5,20.7c0.6,2.7,1.4,5.4,2,8c0.2,0.9,0,0.9-0.7,0.9c-1.6,0-3.1-0.1-4.7,0
	c-1.4,0.1-1.7-0.6-2-1.6c-0.4-1.5-0.6-3-0.9-4.6c-0.1-0.7-0.5-1.1-1.2-1c-1.7,0-3.5,0-5.1,0c-0.7,0-1.1,0.2-1.2,1
	c-0.2,1.6-0.6,3.1-1,4.7c-0.2,1-0.7,1.5-1.9,1.5C6.1,32.1,4.2,32.2,2.2,32.2z M14.9,7.5c-0.1,0-0.2,0-0.2,0
	c-0.9,4.1-1.9,8.4-2.7,12.5c-0.1,0.6,0.2,0.6,0.6,0.6c1.4,0,2.6,0,4,0c0.7,0,0.9-0.2,0.7-1C16.5,15.5,15.7,11.5,14.9,7.5z"/>
<path class="st0" d="M51.7,34.3c5.7,0.1,11.4-0.5,17.1,0.1c0.7,0.1,1.4-0.2,2.1-0.2c9.6,0,19.3,0,29,0c16.6-0.1,33.2-0.1,49.8-0.4
	c6.4-0.1,12.7,0,19.1-0.1c1,0,1.5,0.2,1.9,1.2c0.4,1.4,1,2.6,1.5,4c0.4,0.9,0.2,1.1-0.9,1.1c-7.7-0.4-15.5-0.7-23.2-1
	c-8.2-0.4-16.5-0.7-24.7-1.1c-12.7-0.6-25.5-1.2-38.2-1.9c-10-0.5-20.1-0.9-30.1-1.2C53.9,34.7,52.7,34.9,51.7,34.3z"/>
<path class="st0" d="M72,32.2c-4.2,0-7.7-0.7-10.6-3.1c-2-1.6-3.4-3.7-4-6.2C56,17.2,56,11.8,59.7,7c2.9-3.9,7-5.7,11.7-5.9
	c1.7,0,3.5-0.2,5.1,0.4c0.4,0.1,0.9,0.1,0.9,0.6c-0.1,1.5-0.6,2.9-1.1,4.2c-0.2,0.6-0.9,0.1-1.4,0c-1.9-0.5-3.7-0.2-5.6,0.5
	c-2.6,1.1-3.9,3.4-4.4,5.9c-0.6,3.4-0.9,6.7,0.7,10c2,3.9,3.9,4.1,7.6,4.1c0.9,0,2-0.6,2.7-0.2c0.9,0.4,0.1,1.7,0.6,2.6
	c0.2,0.4,0.2,0.9,0.4,1.2c0.1,0.6,0,1-0.7,1.1C74.6,32.1,73,32.3,72,32.2z"/>
<path class="st0" d="M86.9,19.6c0-3.9,0-7.6,0-11.5c0-0.9-0.2-1.2-1.2-1.2c-1.6,0.1-3.1,0-4.7,0c-0.7,0-1.1-0.1-1-1
	c0-1.2,0-2.5,0-3.6c0-0.6,0.2-0.9,0.9-0.9c6.6,0,13.2,0,19.8,0c0.7,0,1,0.2,0.9,1c0,1.1,0,2.4,0,3.5c0,0.7-0.2,1-1,1
	c-1.6,0-3.1,0.1-4.7,0c-1.2-0.1-1.4,0.5-1.4,1.5c0,7.4,0,14.9,0,22.2c0,1.2-0.2,1.6-1.5,1.5c-1.6-0.1-3.2-0.1-4.9,0
	c-1.1,0-1.2-0.4-1.2-1.4C86.9,27.1,86.9,23.3,86.9,19.6z"/>
<path class="st0" d="M112.8,16.7c0,4.7,0,9.4,0,14.1c0,1-0.2,1.4-1.2,1.4c-1.6-0.1-3.2-0.1-4.9,0c-1,0-1.4-0.2-1.4-1.2
	c0-9.4,0-18.8,0-28.2c0-0.9,0.1-1.2,1.1-1.1c1.7,0.1,3.5,0.1,5.1,0c1,0,1.2,0.4,1.2,1.2C112.8,7.3,112.8,12,112.8,16.7L112.8,16.7z"
	/>
</svg>
