<?xml version="1.0" encoding="utf-8"?>
<!-- Roman Inozemtsev: https://github.com/mir-one/  -->
<svg version="1.1"
	 id="Слой_1" shape-rendering="geometricPrecision" image-rendering="optimizeQuality" text-rendering="geometricPrecision"
	 xmlns="http://www.w3.org/2000/svg" xmlns:xlink="http://www.w3.org/1999/xlink" x="0px" y="0px" viewBox="0 0 256.7 32.2"
	 style="enable-background:new 0 0 256.7 32.2;" xml:space="preserve">
<style type="text/css">
	.st0{fill:#B62A6F;}
</style>
<g>
	<path class="st0" d="M32.9,11.1c1,0.1,1.9,0.5,2.5,1.2s1,1.6,1,2.7c0,1.1-0.3,2-1,2.7s-1.5,1.1-2.5,1.2v1.4h-2.1v-1.4
		c-1.1-0.1-1.9-0.5-2.6-1.2c-0.6-0.7-1-1.6-1-2.7c0-1.1,0.3-2,1-2.8c0.6-0.7,1.5-1.1,2.6-1.2V9.6h2.1V11.1z M29.3,15
		c0,0.6,0.1,1.1,0.4,1.4s0.6,0.6,1.1,0.6l0,0v-4.2l0,0c-0.4,0-0.8,0.3-1.1,0.6C29.4,13.9,29.3,14.4,29.3,15z M34.4,15
		c0-0.6-0.1-1.1-0.4-1.5c-0.3-0.4-0.6-0.6-1-0.6l0,0v4.2l0,0c0.4,0,0.8-0.2,1-0.6C34.2,16.1,34.4,15.6,34.4,15z"/>
	<path class="st0" d="M40.3,20.4c-1,0-1.9-0.4-2.4-1.1S37,17.7,37,16.6v-0.3c0-1.2,0.3-2.2,0.8-2.9s1.3-1.1,2.3-1.1
		c0.9,0,1.6,0.3,2.1,1s0.7,1.5,0.7,2.6v1.1h-4c0,0.6,0.2,1.1,0.4,1.4c0.2,0.3,0.6,0.5,1.1,0.5c0.4,0,0.8,0,1-0.1
		c0.3-0.1,0.6-0.2,0.9-0.5l0.5,1.3c-0.3,0.3-0.7,0.5-1.1,0.7S40.9,20.4,40.3,20.4z M40.2,13.8c-0.3,0-0.6,0.2-0.8,0.5
		c-0.2,0.3-0.3,0.7-0.3,1.3h2v-0.2c0-0.5-0.1-0.9-0.2-1.1S40.5,13.8,40.2,13.8z"/>
	<path class="st0" d="M50.5,16.5c0,1.2-0.2,2.1-0.7,2.8c-0.5,0.7-1.1,1.1-2,1.1c-0.3,0-0.6-0.1-0.9-0.2c-0.3-0.1-0.5-0.3-0.7-0.6
		v3.7h-2.1v-11h1.9l0.1,0.8c0.2-0.3,0.4-0.5,0.7-0.7s0.6-0.2,0.9-0.2c0.8,0,1.5,0.4,2,1.1s0.7,1.8,0.7,3V16.5z M48.4,16.4
		c0-0.8-0.1-1.4-0.3-1.8c-0.2-0.5-0.5-0.7-0.9-0.7c-0.2,0-0.4,0.1-0.6,0.2c-0.2,0.1-0.3,0.3-0.4,0.5v3.7c0.1,0.2,0.2,0.3,0.4,0.4
		s0.4,0.1,0.6,0.1c0.4,0,0.7-0.2,0.9-0.6c0.2-0.4,0.3-1,0.3-1.7V16.4z"/>
	<path class="st0" d="M55.8,17.9L55.8,17.9l1.6-5.5h2.6v7.9h-2.1V16h0l-1.4,4.3h-1.4l-1.3-4.1l0,0v4.1h-2.1v-7.9h2.5L55.8,17.9z"/>
	<path class="st0" d="M64.6,20.4c-1,0-1.9-0.4-2.4-1.1c-0.6-0.7-0.9-1.7-0.9-2.8v-0.3c0-1.2,0.3-2.2,0.8-2.9s1.3-1.1,2.3-1.1
		c0.9,0,1.6,0.3,2.1,1s0.7,1.5,0.7,2.6v1.1h-4c0,0.6,0.2,1.1,0.4,1.4c0.2,0.3,0.6,0.5,1.1,0.5c0.4,0,0.8,0,1-0.1
		c0.3-0.1,0.6-0.2,0.9-0.5l0.5,1.3c-0.3,0.3-0.7,0.5-1.1,0.7S65.1,20.4,64.6,20.4z M64.4,13.8c-0.3,0-0.6,0.2-0.8,0.5
		c-0.2,0.3-0.3,0.7-0.3,1.3h2v-0.2c0-0.5-0.1-0.9-0.2-1.1S64.8,13.8,64.4,13.8z"/>
	<path class="st0" d="M74.7,16.5c0,1.2-0.2,2.1-0.7,2.8c-0.5,0.7-1.1,1.1-2,1.1c-0.3,0-0.6-0.1-0.9-0.2c-0.3-0.1-0.5-0.3-0.7-0.6
		v3.7h-2.1v-11h1.9l0.1,0.8c0.2-0.3,0.4-0.5,0.7-0.7c0.3-0.2,0.6-0.2,0.9-0.2c0.8,0,1.5,0.4,2,1.1s0.7,1.8,0.7,3V16.5z M72.6,16.4
		c0-0.8-0.1-1.4-0.3-1.8s-0.5-0.7-0.9-0.7c-0.2,0-0.4,0.1-0.6,0.2c-0.2,0.1-0.3,0.3-0.4,0.5v3.7c0.1,0.2,0.2,0.3,0.4,0.4
		c0.2,0.1,0.4,0.1,0.6,0.1c0.4,0,0.7-0.2,0.9-0.6c0.2-0.4,0.3-1,0.3-1.7V16.4z"/>
	<path class="st0" d="M78.7,18.8c0.3,0,0.5-0.1,0.7-0.3c0.2-0.2,0.2-0.5,0.2-0.9h1.9l0,0c0,0.8-0.2,1.5-0.8,2
		c-0.5,0.5-1.2,0.8-2,0.8c-1,0-1.8-0.4-2.4-1.1c-0.6-0.7-0.8-1.7-0.8-2.9v-0.2c0-1.2,0.3-2.1,0.8-2.9c0.6-0.8,1.3-1.1,2.4-1.1
		c0.9,0,1.5,0.3,2.1,0.8c0.5,0.5,0.8,1.3,0.7,2.2l0,0h-1.9c0-0.4-0.1-0.8-0.2-1.1c-0.2-0.3-0.4-0.4-0.7-0.4c-0.4,0-0.7,0.2-0.9,0.7
		c-0.2,0.4-0.2,1-0.2,1.7v0.2c0,0.7,0.1,1.3,0.2,1.8C78,18.6,78.3,18.8,78.7,18.8z"/>
	<path class="st0" d="M85.3,17.3h-0.6v3h-2.1v-7.9h2.1v3h0.5l1.3-3h2.6L87,15.9l0,0l0,0l2.3,4.3h-2.8L85.3,17.3z"/>
	<path class="st0" d="M89.7,16.3c0-1.2,0.3-2.2,0.9-2.9c0.6-0.8,1.4-1.1,2.4-1.1c1,0,1.8,0.4,2.4,1.1c0.6,0.7,0.9,1.7,0.9,2.9v0.2
		c0,1.2-0.3,2.2-0.9,2.9c-0.6,0.7-1.4,1.1-2.4,1.1c-1,0-1.8-0.4-2.4-1.1s-0.9-1.7-0.9-2.9V16.3z M91.7,16.4c0,0.7,0.1,1.3,0.3,1.8
		c0.2,0.4,0.5,0.7,0.9,0.7c0.4,0,0.7-0.2,0.9-0.7c0.2-0.4,0.3-1,0.3-1.8v-0.2c0-0.7-0.1-1.3-0.3-1.8c-0.2-0.4-0.5-0.7-0.9-0.7
		s-0.7,0.2-0.9,0.7s-0.3,1-0.3,1.8V16.4z"/>
	<path class="st0" d="M100.3,20.4c-1,0-1.9-0.4-2.4-1.1c-0.6-0.7-0.9-1.7-0.9-2.8v-0.3c0-1.2,0.3-2.2,0.8-2.9s1.3-1.1,2.3-1.1
		c0.9,0,1.6,0.3,2.1,1s0.7,1.5,0.7,2.6v1.1h-4c0,0.6,0.2,1.1,0.4,1.4c0.2,0.3,0.6,0.5,1.1,0.5c0.4,0,0.8,0,1-0.1
		c0.3-0.1,0.6-0.2,0.9-0.5l0.5,1.3c-0.3,0.3-0.7,0.5-1.1,0.7S100.9,20.4,100.3,20.4z M100.2,13.8c-0.3,0-0.6,0.2-0.8,0.5
		c-0.2,0.3-0.3,0.7-0.3,1.3h2v-0.2c0-0.5-0.1-0.9-0.2-1.1S100.5,13.8,100.2,13.8z"/>
	<path class="st0" d="M110.1,14.9L110.1,14.9l0.9-2.5h2.3l-2,3.9l2.1,4h-2.3l-0.9-2.6h0l-0.9,2.6h-2.3l2.1-4l-2-3.9h2.3L110.1,14.9z
		"/>
	<path class="st0" d="M113.8,16.3c0-1.2,0.3-2.2,0.9-2.9c0.6-0.8,1.4-1.1,2.4-1.1c1,0,1.8,0.4,2.4,1.1c0.6,0.7,0.9,1.7,0.9,2.9v0.2
		c0,1.2-0.3,2.2-0.9,2.9c-0.6,0.7-1.4,1.1-2.4,1.1c-1,0-1.8-0.4-2.4-1.1s-0.9-1.7-0.9-2.9V16.3z M115.9,16.4c0,0.7,0.1,1.3,0.3,1.8
		c0.2,0.4,0.5,0.7,0.9,0.7c0.4,0,0.7-0.2,0.9-0.7c0.2-0.4,0.3-1,0.3-1.8v-0.2c0-0.7-0.1-1.3-0.3-1.8c-0.2-0.4-0.5-0.7-0.9-0.7
		s-0.7,0.2-0.9,0.7s-0.3,1-0.3,1.8V16.4z"/>
	<path class="st0" d="M124.4,15.6c0.3,0,0.5-0.1,0.7-0.2s0.2-0.4,0.2-0.7c0-0.3-0.1-0.5-0.2-0.7c-0.1-0.2-0.4-0.3-0.7-0.3
		c-0.3,0-0.5,0.1-0.7,0.2c-0.2,0.2-0.3,0.4-0.3,0.6h-2l0,0c0-0.7,0.2-1.3,0.8-1.7s1.2-0.6,2.1-0.6c0.9,0,1.7,0.2,2.3,0.6
		s0.8,1,0.8,1.7c0,0.4-0.1,0.7-0.3,1s-0.5,0.5-0.9,0.7c0.4,0.2,0.7,0.4,1,0.7s0.3,0.7,0.3,1.1c0,0.7-0.3,1.3-0.9,1.7
		c-0.6,0.4-1.4,0.6-2.3,0.6c-0.8,0-1.5-0.2-2.1-0.6c-0.6-0.4-0.9-1-0.8-1.8l0,0h2c0,0.3,0.1,0.5,0.3,0.7s0.4,0.3,0.8,0.3
		c0.3,0,0.6-0.1,0.8-0.3c0.2-0.2,0.3-0.4,0.3-0.7c0-0.3-0.1-0.6-0.3-0.8c-0.2-0.2-0.5-0.3-0.8-0.3h-1.1v-1.3H124.4z"/>
	<path class="st0" d="M134.7,12.4v7.9h-2.1v-2.8h-0.8l-1.3,2.8h-2.1l1.5-3.1c-0.4-0.2-0.8-0.5-1-0.9c-0.2-0.4-0.3-0.8-0.3-1.3
		c0-0.8,0.3-1.4,0.8-1.9s1.3-0.7,2.2-0.7H134.7z M130.6,15.1c0,0.3,0.1,0.5,0.3,0.7s0.4,0.3,0.7,0.3h1V14h-1c-0.3,0-0.5,0.1-0.7,0.3
		C130.7,14.5,130.6,14.8,130.6,15.1z"/>
	<path class="st0" d="M140.2,12.4h2.1v7.9h-2.1v-4.4l0,0l-1.9,4.4h-2.1v-7.9h2.1v4.4l0,0L140.2,12.4z M141.5,8.9L141.5,8.9
		c0,0.7-0.2,1.2-0.6,1.6c-0.4,0.4-1,0.6-1.7,0.6c-0.7,0-1.3-0.2-1.7-0.6s-0.6-0.9-0.6-1.5l0,0h1.5c0,0.3,0.1,0.5,0.2,0.7
		s0.3,0.2,0.6,0.2c0.3,0,0.5-0.1,0.6-0.3c0.1-0.2,0.2-0.4,0.2-0.6H141.5z"/>
	<path class="st0" d="M146.5,18.8c0.3,0,0.5-0.1,0.7-0.3c0.2-0.2,0.2-0.5,0.2-0.9h1.9l0,0c0,0.8-0.2,1.5-0.8,2
		c-0.5,0.5-1.2,0.8-2,0.8c-1,0-1.8-0.4-2.4-1.1c-0.6-0.7-0.8-1.7-0.8-2.9v-0.2c0-1.2,0.3-2.1,0.8-2.9c0.6-0.8,1.3-1.1,2.4-1.1
		c0.9,0,1.5,0.3,2.1,0.8c0.5,0.5,0.8,1.3,0.7,2.2l0,0h-1.9c0-0.4-0.1-0.8-0.2-1.1s-0.4-0.4-0.7-0.4c-0.4,0-0.7,0.2-0.9,0.7
		c-0.2,0.4-0.2,1-0.2,1.7v0.2c0,0.7,0.1,1.3,0.2,1.8S146.1,18.8,146.5,18.8z"/>
	<path class="st0" d="M156.2,14h-2.1v6.3h-2.1V14h-2.1v-1.6h6.3V14z"/>
	<path class="st0" d="M157.3,20.3v-7.9h2.9c0.9,0,1.6,0.2,2.1,0.6c0.5,0.4,0.8,0.9,0.8,1.6c0,0.4-0.1,0.7-0.3,1
		c-0.2,0.3-0.5,0.5-1,0.7c0.6,0.1,1,0.3,1.3,0.7s0.4,0.7,0.4,1.2c0,0.7-0.2,1.3-0.7,1.7c-0.5,0.4-1.2,0.6-2.1,0.6H157.3z
		 M159.4,15.6h0.9c0.3,0,0.5-0.1,0.6-0.2c0.1-0.1,0.2-0.3,0.2-0.6c0-0.3-0.1-0.5-0.2-0.7s-0.4-0.2-0.6-0.2h-0.8V15.6z M159.4,17v1.7
		h1.3c0.3,0,0.5-0.1,0.6-0.2s0.2-0.4,0.2-0.6c0-0.3-0.1-0.5-0.2-0.6S161,17,160.7,17H159.4z"/>
	<path class="st0" d="M164.3,16.3c0-1.2,0.3-2.2,0.9-2.9c0.6-0.8,1.4-1.1,2.4-1.1c1,0,1.8,0.4,2.4,1.1c0.6,0.7,0.9,1.7,0.9,2.9v0.2
		c0,1.2-0.3,2.2-0.9,2.9c-0.6,0.7-1.4,1.1-2.4,1.1c-1,0-1.8-0.4-2.4-1.1s-0.9-1.7-0.9-2.9V16.3z M166.4,16.4c0,0.7,0.1,1.3,0.3,1.8
		c0.2,0.4,0.5,0.7,0.9,0.7c0.4,0,0.7-0.2,0.9-0.7c0.2-0.4,0.3-1,0.3-1.8v-0.2c0-0.7-0.1-1.3-0.3-1.8c-0.2-0.4-0.5-0.7-0.9-0.7
		s-0.7,0.2-0.9,0.7s-0.3,1-0.3,1.8V16.4z"/>
	<path class="st0" d="M180.7,15.6h-3.3v3.1h3.9v1.6h-6V9.6h6v1.6h-3.9V14h3.3V15.6z"/>
	<path class="st0" d="M185.3,18.8c0.3,0,0.5-0.1,0.7-0.3c0.2-0.2,0.2-0.5,0.2-0.9h1.9l0,0c0,0.8-0.2,1.5-0.8,2
		c-0.5,0.5-1.2,0.8-2,0.8c-1,0-1.8-0.4-2.4-1.1c-0.6-0.7-0.8-1.7-0.8-2.9v-0.2c0-1.2,0.3-2.1,0.8-2.9c0.6-0.8,1.3-1.1,2.4-1.1
		c0.9,0,1.5,0.3,2.1,0.8c0.5,0.5,0.8,1.3,0.7,2.2l0,0h-1.9c0-0.4-0.1-0.8-0.2-1.1s-0.4-0.4-0.7-0.4c-0.4,0-0.7,0.2-0.9,0.7
		c-0.2,0.4-0.2,1-0.2,1.7v0.2c0,0.7,0.1,1.3,0.2,1.8S184.9,18.8,185.3,18.8z"/>
	<path class="st0" d="M188.9,16.3c0-1.2,0.3-2.2,0.9-2.9c0.6-0.8,1.4-1.1,2.4-1.1c1,0,1.8,0.4,2.4,1.1c0.6,0.7,0.9,1.7,0.9,2.9v0.2
		c0,1.2-0.3,2.2-0.9,2.9c-0.6,0.7-1.4,1.1-2.4,1.1c-1,0-1.8-0.4-2.4-1.1s-0.9-1.7-0.9-2.9V16.3z M191,16.4c0,0.7,0.1,1.3,0.3,1.8
		c0.2,0.4,0.5,0.7,0.9,0.7c0.4,0,0.7-0.2,0.9-0.7c0.2-0.4,0.3-1,0.3-1.8v-0.2c0-0.7-0.1-1.3-0.3-1.8c-0.2-0.4-0.5-0.7-0.9-0.7
		s-0.7,0.2-0.9,0.7c-0.2,0.4-0.3,1-0.3,1.8V16.4z"/>
	<path class="st0" d="M198.7,16.4v3.9h-2.1V9.6h3.6c1.1,0,1.9,0.3,2.5,0.9c0.6,0.6,0.9,1.4,0.9,2.5c0,1-0.3,1.8-0.9,2.5
		c-0.6,0.6-1.5,0.9-2.5,0.9H198.7z M198.7,14.8h1.5c0.5,0,0.8-0.2,1.1-0.5c0.2-0.3,0.4-0.8,0.4-1.3c0-0.5-0.1-1-0.4-1.3
		c-0.2-0.3-0.6-0.5-1.1-0.5h-1.5V14.8z"/>
	<path class="st0" d="M204.6,16.3c0-1.2,0.3-2.2,0.9-2.9c0.6-0.8,1.4-1.1,2.4-1.1c1,0,1.8,0.4,2.4,1.1c0.6,0.7,0.9,1.7,0.9,2.9v0.2
		c0,1.2-0.3,2.2-0.9,2.9c-0.6,0.7-1.4,1.1-2.4,1.1c-1,0-1.8-0.4-2.4-1.1s-0.9-1.7-0.9-2.9V16.3z M206.6,16.4c0,0.7,0.1,1.3,0.3,1.8
		c0.2,0.4,0.5,0.7,0.9,0.7c0.4,0,0.7-0.2,0.9-0.7c0.2-0.4,0.3-1,0.3-1.8v-0.2c0-0.7-0.1-1.3-0.3-1.8c-0.2-0.4-0.5-0.7-0.9-0.7
		s-0.7,0.2-0.9,0.7s-0.3,1-0.3,1.8V16.4z"/>
	<path class="st0" d="M214.4,20.3h-2.1V8.9h2.1V20.3z"/>
	<path class="st0" d="M218.9,20.4c-1,0-1.9-0.4-2.4-1.1s-0.9-1.7-0.9-2.8v-0.3c0-1.2,0.3-2.2,0.8-2.9c0.6-0.8,1.3-1.1,2.3-1.1
		c0.9,0,1.6,0.3,2.1,1s0.7,1.5,0.7,2.6v1.1h-4c0,0.6,0.2,1.1,0.4,1.4c0.2,0.3,0.6,0.5,1.1,0.5c0.4,0,0.8,0,1-0.1
		c0.3-0.1,0.6-0.2,0.9-0.5l0.5,1.3c-0.3,0.3-0.7,0.5-1.1,0.7C219.9,20.4,219.4,20.4,218.9,20.4z M218.8,13.8c-0.3,0-0.6,0.2-0.8,0.5
		c-0.2,0.3-0.3,0.7-0.3,1.3h2v-0.2c0-0.5-0.1-0.9-0.2-1.1S219.1,13.8,218.8,13.8z"/>
</g>
</svg>
