<?xml version="1.0" encoding="utf-8"?>
<!-- Roman Inozemtsev: https://github.com/mir-one/  -->
<svg version="1.1"
	 id="Слой_1" shape-rendering="geometricPrecision" image-rendering="optimizeQuality" text-rendering="geometricPrecision"
	 xmlns="http://www.w3.org/2000/svg" xmlns:xlink="http://www.w3.org/1999/xlink" x="0px" y="0px" viewBox="0 0 10.5 10.5"
	 style="enable-background:new 0 0 10.5 10.5;" xml:space="preserve">
<style type="text/css">
	.st0{fill:#4598C5;}
</style>
<path class="st0" d="M10.2,4.6L5.9,0.3c-0.4-0.4-1-0.4-1.4,0L0.3,4.6c-0.4,0.4-0.4,1,0,1.4l4.3,4.3c0.4,0.4,1,0.4,1.4,0l4.3-4.3
	C10.6,5.6,10.6,4.9,10.2,4.6z M6.1,7.8c0,0.4-0.3,0.6-0.6,0.6H5.1c-0.4,0-0.6-0.3-0.6-0.6V4.8c0-0.2,0.1-0.3,0.3-0.3h1
	c0.2,0,0.3,0.1,0.3,0.3V7.8z M6.1,3.4c0,0.2-0.1,0.3-0.3,0.3h-1c-0.2,0-0.3-0.1-0.3-0.3V2.7C4.4,2.3,4.7,2,5.1,2h0.4
	c0.4,0,0.6,0.3,0.6,0.6V3.4z"/>
</svg>
