<?xml version="1.0" encoding="utf-8"?>
<!-- Roman Inozemtsev: https://github.com/mir-one/  -->
<svg version="1.1"
	 id="Слой_1" text-rendering="geometricPrecision" shape-rendering="geometricPrecision" image-rendering="optimizeQuality"
	 xmlns="http://www.w3.org/2000/svg" xmlns:xlink="http://www.w3.org/1999/xlink" x="0px" y="0px" viewBox="0 0 94 94"
	 style="enable-background:new 0 0 94 94;" xml:space="preserve">
<style type="text/css">
	.st0{fill:#404041;}
	.st1{fill:#E92225;}
	.st2{fill:#F38021;}
	.st3{fill:#F1E71B;}
	.st4{fill:#33B24C;}
	.st5{fill:#3F6BB1;}
	.st6{fill:#6B4D9F;}
	.st7{fill:#AB4397;}
	.st8{fill:#F6F7F7;}
	.st9{fill:#D0CFCF;}
	.st10{fill:#C5C6C5;}
	.st11{fill:#242628;}
</style>
<g>
	<circle class="st0" cx="45.2" cy="46.4" r="32.5"/>
	<path class="st1" d="M29.7,91.1c-4.5-1.6-8.4-4.2-12.1-7.2c-3.6-2.9-6.7-6.2-9.3-10c-2.7-3.9-4.7-8.1-6.1-12.6
		c-1.9-6.1-2.5-12.2-2-18.5C0.6,37.5,2,32.3,4.2,27.3c2.5-5.5,5.9-10.3,10.2-14.5c2.4-2.3,5.1-4.4,8-6.2c2-1.2,4.1-2.1,6.1-3.2
		c1.1-0.6,2.3-0.8,3.5-1.2c0.6-0.2,1.2-0.4,1.8-0.6c1.3-0.1,2.5-0.3,3.7-0.9c0.1,0,0.3,0,0.4,0c0.5-0.1,1.1-0.1,1.5-0.4c0,0,0,0,0,0
		c0.8,0,1.6,0.2,2.4-0.2c0,0,0,0,0,0c1.2-0.1,2.4,0.2,3.6-0.2c0.8-0.1,1.7,0.1,2.5-0.2c1.3,0.5,2.7,0.3,4.1,0.4
		c1.3,0.2,2.6,0.5,4,0.6c1.4,0.1,2.7,0.5,4,0.9c0.8,0.3,1.6,0.9,2.6,0.8c0.8,0,1.4,0.5,2.1,0.8c1.9,0.7,3.7,1.6,5.5,2.6
		c1.6,0.9,3,1.9,4.5,2.9c1.4,0.9,2.6,2.2,3.9,3.2c1.4,1.1,2.7,2.5,3.9,3.9c1.6,1.9,3.3,3.8,4.5,6c2.2,3.9,4.1,7.9,5.3,12.3
		c0.5,2.1,1,4.3,1.4,6.4c0.1,0.7-0.3,1.5,0.2,2.2c0,3.1,0,6.2,0,9.3c-0.4,0.8-0.2,1.7-0.3,2.6c-0.7,5.7-2.5,11-5.5,15.9
		c-2,3.2-4.2,6.4-6.9,9.2c-2.6,2.7-5.3,5.2-8.5,7c-2.6,1.5-5.3,3-8.3,4c-1.7,0.6-3.4,1.3-5.2,1.7c-2.3,0.6-4.6,0.9-6.9,1.3
		c-4.1,0.7-8.1,0.4-12.2,0c-2.4-0.2-4.9-0.8-7.2-1.7c-0.2-0.2-0.4-0.2-0.7-0.2c0,0,0,0,0,0c-0.3-0.4-0.8-0.5-1.3-0.4c0,0,0,0,0,0
		C30.7,91.1,30.2,91.1,29.7,91.1z M3.7,47c-0.5,24.2,20,43.4,42.4,43.5C71,90.6,90.4,71.4,90.6,47.6C90.8,21.8,70.3,4.1,48,3.6
		C23.1,3,3.6,23,3.7,47z"/>
	<path class="st2" d="M3.7,47C3.6,23,23.1,3,48,3.6c22.3,0.5,42.9,18.2,42.6,44.1c-0.2,23.7-19.6,43-44.5,42.9
		C23.7,90.4,3.2,71.2,3.7,47z M7.4,47.3C7,69.8,26.3,87.1,47.3,86.8c22-0.3,39.3-17.2,39.6-39.3C87.2,23.6,67.6,7.2,47.1,7.3
		C24.7,7.4,7.5,24.9,7.4,47.3z"/>
	<path class="st3" d="M7.4,47.3c0.2-22.5,17.3-40,39.7-40.1c20.6-0.1,40.2,16.3,39.9,40.2c-0.3,22.1-17.7,39-39.6,39.3
		C26.3,87.1,7,69.8,7.4,47.3z M47.1,83.2c19.7,0.1,36.5-15.7,36.2-37.1c-0.3-20.4-17.5-35.2-35.9-35.3c-21.2,0-36.2,16.4-36.5,36.5
		C10.7,67.7,27.9,83.4,47.1,83.2z"/>
	<path class="st4" d="M47.1,83.2c-19.2,0.2-36.5-15.5-36.2-35.9c0.3-20.1,15.3-36.5,36.5-36.5c18.4,0,35.6,14.8,35.9,35.3
		C83.6,67.6,66.8,83.3,47.1,83.2z M48.1,79.6c1.7,0.1,3.9-0.3,6.2-0.7c5.6-1.2,10.7-3.8,14.9-7.7c4-3.7,7-8.1,8.7-13.3
		c1.7-5.1,2.3-10.3,1.5-15.6c-0.5-3.7-1.5-7.4-3.4-10.7c-2.1-3.7-4.5-7.1-8.1-9.7c-3.4-2.4-6.9-4.7-10.9-6c-2.7-0.9-5.5-1.4-8.3-1.5
		c-4.9-0.1-9.5,0.8-14.1,2.6c-4.7,1.8-8.6,4.5-11.8,8.4c-2.1,2.6-4,5.3-5.3,8.4c-1.6,3.6-2.5,7.4-2.8,11.4c-0.2,2.8,0,5.5,0.5,8.3
		c1.5,7.6,4.9,14,11,18.8C32.4,77.1,39.5,79.7,48.1,79.6z"/>
	<path class="st5" d="M48.1,79.6c-8.6,0-15.6-2.5-21.9-7.4c-6.2-4.8-9.5-11.2-11-18.8c-0.5-2.7-0.7-5.5-0.5-8.3
		c0.2-3.9,1.1-7.7,2.8-11.4c1.4-3.1,3.2-5.8,5.3-8.4c3.2-3.9,7.2-6.5,11.8-8.4c4.6-1.8,9.2-2.7,14.1-2.6c2.8,0.1,5.6,0.6,8.3,1.5
		c4,1.3,7.4,3.6,10.9,6c3.6,2.5,6,5.9,8.1,9.7c1.8,3.3,2.8,6.9,3.4,10.7c0.8,5.3,0.2,10.5-1.5,15.6c-1.7,5.2-4.7,9.7-8.7,13.3
		c-4.2,3.9-9.3,6.4-14.9,7.7C52,79.4,49.7,79.8,48.1,79.6z M76.2,46.6c0.1-1.7-0.2-3.8-0.7-5.9c-0.8-4.2-2.6-8.1-5.2-11.4
		c-2.3-3-5-5.6-8.5-7.4c-3.8-2-7.7-3.4-11.9-3.8c-4.8-0.5-9.4,0.4-13.9,2.3c-2.4,1-4.8,2.3-6.9,4c-4.7,3.8-8,8.6-9.8,14.3
		c-1.5,4.8-1.7,9.7-0.7,14.6c1.1,5.4,3.6,10.1,7.3,14.1c1.8,2,3.9,3.5,6.4,4.8c5.3,2.7,10.7,4.2,16.7,3.8c4.3-0.3,8.3-1.5,12.2-3.6
		c4.5-2.4,7.9-5.8,10.6-10.1C74.8,57.8,76.2,52.6,76.2,46.6z"/>
	<path class="st6" d="M76.2,46.6c0,6-1.4,11.2-4.3,15.8c-2.7,4.2-6.1,7.7-10.6,10.1c-3.9,2-7.8,3.2-12.2,3.6
		c-6,0.4-11.4-1.1-16.7-3.8c-2.5-1.2-4.5-2.8-6.4-4.8c-3.8-4-6.2-8.7-7.3-14.1c-1-4.9-0.8-9.8,0.7-14.6c1.8-5.8,5-10.5,9.8-14.3
		c2.1-1.7,4.5-3,6.9-4c4.4-1.9,9.1-2.7,13.9-2.3c4.2,0.4,8.1,1.8,11.9,3.8c3.5,1.8,6.2,4.4,8.5,7.4c2.6,3.3,4.3,7.2,5.2,11.4
		C75.9,42.8,76.2,44.9,76.2,46.6z M61,25.7c0-0.3-0.2-0.4-0.5-0.4c-2.3-1.3-4.6-2.5-7.3-2.9c-3.2-0.5-6.4-0.8-9.7-0.3
		c-3.1,0.4-6.2,1.2-8.9,2.8c-2.9,1.7-5.5,3.9-7.6,6.7c-2.5,3.3-4.1,6.9-4.9,10.9c-0.8,4.4-0.6,8.8,0.9,13.1
		c1.4,3.9,3.4,7.4,6.4,10.1c3.4,3.1,7.1,5.6,11.9,6.1c3.1,0.3,6.2,0.8,9.4,0.3c2.7-0.4,5.4-1.1,7.8-2.4c2.7-1.5,5.2-3.4,7.3-5.7
		c2.6-2.8,4.2-6.1,5.3-9.7c0.9-2.8,1-5.8,0.9-8.7c-0.1-3.9-1.2-7.6-3.1-11c-1.5-2.8-3.5-5.1-5.9-7.2c-0.1-0.4-0.3-0.6-0.7-0.6
		c-0.1,0-0.1,0-0.2,0c-0.2-0.6-0.6-1.1-1.3-1C61.2,25.7,61.1,25.7,61,25.7z"/>
	<path class="st7" d="M62.5,26.8c0.1,0,0.1,0,0.2,0c0.1,0.4,0.2,0.6,0.7,0.6c2.4,2,4.4,4.4,5.9,7.2c1.8,3.4,3,7.1,3.1,11
		c0.1,3-0.1,5.9-0.9,8.7c-1.1,3.6-2.8,6.9-5.3,9.7c-2.1,2.3-4.6,4.2-7.3,5.7c-2.4,1.3-5.1,2-7.8,2.4c-3.2,0.4-6.2,0-9.4-0.3
		c-4.8-0.5-8.5-3-11.9-6.1c-3-2.8-5-6.3-6.4-10.1c-1.5-4.3-1.8-8.7-0.9-13.1c0.7-4,2.3-7.6,4.9-10.9c2.1-2.7,4.7-4.9,7.6-6.7
		c2.7-1.6,5.7-2.4,8.9-2.8c3.3-0.4,6.4-0.2,9.7,0.3c2.7,0.4,5,1.6,7.3,2.9c0,0.3,0.2,0.4,0.5,0.4c0.1,0,0.1,0,0.2,0
		C61.6,26.2,61.9,26.7,62.5,26.8z M26.2,40.4L26.2,40.4L26.2,40.4C26,40.5,26,40.5,26,40.6c-0.4,1.4-0.8,2.7-1,4.1
		c-0.1,0.1-0.1,0.1-0.2,0.2c-0.2,0-0.3,0-0.5,0c-0.3,0-0.7,0-1,0c-0.2,0-0.3,0-0.5,0c-0.1,0-0.2,0-0.3,0.2l0,0
		c-0.2,0.1-0.1,0.3-0.1,0.4c-0.1,0.5-0.1,1,0,1.5c0.8,0.4,1.6,0,2.4,0.2c0,2.3,0.4,4.4,1,6.6c2.7,8.6,9.9,14.5,19,15.3
		c0.7,0.1,1,0.3,0.9,1c0,0.4,0,0.7,0,1.1c0,0.3,0.1,0.4,0.4,0.5c1.4,0.4,1.9,0,1.9-1.4c0-0.2,0-0.4,0-0.5c-0.1-0.5,0.2-0.7,0.7-0.7
		c6-0.5,11-2.9,15-7.5c3.1-3.6,4.9-7.7,5.2-12.5c0.1-1.8,0.1-1.9,1.9-1.9c0.7,0,1-0.2,1-0.9c-0.1-0.6,0.2-1.4-0.9-1.5
		c-1.7-0.1-1.7-0.1-2.2-1.9c0-0.2-0.1-0.3-0.1-0.5c-1.8-9.2-9.5-16.2-18.8-17.3c-1.4-0.2-1.4-0.2-1.5-1.7c0-0.4,0.2-0.8-0.3-1
		c-1.1-0.5-2.1,0.1-2,1.2c0.1,1.1-0.3,1.5-1.4,1.6c-4.2,0.4-7.9,1.8-11.2,4.5c-1.1,0.7-2,1.6-2.8,2.6c-0.1,0.1-0.1,0.1-0.2,0.2l0,0
		c-0.7,0.5-1.1,1.2-1.5,1.9l0,0c-0.6,0.8-1.2,1.6-1.5,2.5c0,0,0,0,0,0c-0.1,0.1-0.1,0.2-0.2,0.2c-0.1,0.2-0.1,0.4-0.2,0.6
		c-0.3,0.3-0.4,0.8-0.6,1.2c0,0.1,0,0.1,0,0.2l0,0c-0.3,0.2-0.3,0.6-0.3,0.9C26.2,40.2,26.2,40.3,26.2,40.4z"/>
	<path class="st8" d="M34.4,32.6c-0.5-1.1-0.4-1.4,0.6-1.4c4.4,0,8.8,0,13.2,0c2.7,0.3,5.1,1.3,6.9,3.5c2.4,2.9,1.8,8.3-1.4,10.3
		c-0.2-0.8-0.6-0.2-0.9-0.1c-0.7,0.2,0.1,0.5-0.1,0.8c-0.1,0.1-0.3,0.1-0.4,0.2c-0.4-0.8-0.9-0.2-1.4-0.2c0.1,0.4,0.5,0.4,0.6,0.7
		c-0.2,0.1-0.4,0.2-0.7,0.3c3.2,2.7,4.9,6.4,7.2,9.6c0.8,1.1,1.6,2.3,2.7,3c0.3,0.2,0.6,0.4,0.9,0.4c1,0.1,1.1,0.7,0.8,1.5
		c0,0-0.1,0-0.1,0c0-0.1-0.1-0.1-0.1-0.2c0.1-0.5-0.2-0.6-0.6-0.6c-1.2,0-2.3-0.1-3.5,0c-0.8,0.1-1.2-0.2-1.7-0.8
		c-1.9-2.6-3.5-5.3-5.3-8c-0.6-0.9-1.2-1.8-1.9-2.5c-0.1-0.2-0.2-0.4-0.4-0.4c-0.8-1-1.8-1.7-3.2-1.9c-0.1,0-0.1-0.1-0.2-0.1
		c-1-0.1-2-0.1-3,0c-0.2,0.7-0.2,0.7,0.3,0.7c0.6,0,1.2,0,1.8,0l0,0.1c-0.1,0.1-0.1,0.1-0.2,0.2c-0.7,0-1.4,0-2.1,0
		c-0.4,0-0.6,0.1-0.6,0.6c0,1.6,0,3.2,0.1,4.8c0,0.4,0,0.9,0,1.3c0,0.3,0,0.7,0,1c0,0.2,0,0.3,0,0.5c0,0.4-0.2,0.8,0.1,1.1
		c0.1,2,0.6,2.7,2.5,3.1c1,0.2,1,0.6,0.7,1.3c-0.1-0.1-0.1-0.1-0.2-0.2c0.1-0.4,0-0.7-0.5-0.6c-0.7,0-1.5,0-2.2,0
		c-2.4-0.1-4.9,0.2-7.3-0.2c-0.7-0.1-0.6,0.4-0.6,0.8c-0.1,0.1-0.1,0.1-0.2,0.2c-0.3-0.8-0.1-1.3,0.9-1.4c1.2-0.1,1.9-0.8,2.1-2
		c0.1,0.1,0.1,0.1,0.2,0.2c0.2,0.8,0.5,0.5,0.7,0c0.4-0.9,0.5-1.8,0.5-2.8c0-6.6,0-13.2,0-19.8c0-0.9-0.2-1.7-0.4-2.5
		c-0.2-0.6-0.6-1.2-1.4-1.2c-0.7-0.3-1.4-0.4-2.1-0.4c-0.3,0.3-0.3,0.6,0,0.8C34.5,32.4,34.5,32.5,34.4,32.6z M51.7,43
		c0.2-0.2,0.4-0.3,0.4-0.6c0.4-0.5,0.7-1,0.7-1.7c0.1,0,0.2-0.1,0.1-0.2c0-0.2,0-0.4,0.1-0.7c0.2-0.7,0.1-1.4,0-2.2
		c-0.3-2.6-2.1-4.6-4.7-5.3c-0.1,0-0.3-0.1-0.4-0.1c-0.3-0.3-0.6-0.1-0.9-0.1c-0.1,0-0.1-0.1-0.2-0.1c-1.4-0.1-2.7-0.1-4.1,0
		c-0.1,0-0.2,0-0.1,0.2c0,0.1,0,0.3,0,0.4c1.1,0.3,2.2,0,3.3,0.2c-0.1,0.4-0.4,0.2-0.6,0.2c-0.9,0-1.7,0.1-2.6,0
		c-0.7-0.1-0.9,0.2-0.9,0.9c0,3,0,6.1,0,9.1c0,0.9-0.3,2.1,0.1,2.7c0.5,0.6,1.8,0.2,2.7,0.2c2.2,0.1,4.2-0.5,5.8-2.3
		C51.5,44.3,51.4,43.4,51.7,43z"/>
	<path class="st9" d="M37.4,51.1c0-0.7,0-1.4,0-2.1c0-0.4,0-0.9,0-1.3c0-0.1,0-0.3,0-0.4c0-0.4,0-0.9,0-1.3c0-0.4,0-0.9,0-1.3
		c0-0.3,0-0.6,0-0.9c0-2.8,0.1-5.7-0.1-8.5c-0.1-1.2-0.5-2.2-1.8-2.6c0.1,0,0.3,0,0.4,0c0.2,0,0.4,0.1,0.6,0.1
		c1.1,0.9,1.2,2.2,1.2,3.4c0,6.7,0,13.3,0,20c0,0.7-0.1,1.3-0.4,1.9c-0.1-0.1-0.1-0.1-0.2-0.2C37.5,55.6,37.4,53.3,37.4,51.1z"/>
	<path class="st10" d="M45,61.1c0.1,0.1,0.1,0.1,0.2,0.2c-0.1,0.3-0.3,0.2-0.5,0.2c-3.3,0-6.6,0-9.9,0c-0.2,0-0.4,0-0.5-0.2
		c0.1-0.1,0.1-0.1,0.2-0.2C38,61,41.5,61.1,45,61.1z"/>
	<path class="st9" d="M55.9,60.6c0.4,0.4,0.8,0.5,1.4,0.5c1.3,0,2.7,0,4,0c0.4,0.3,0.9,0.1,1.3,0.1c0,0,0.1,0,0.1,0
		c-0.1,0.2-0.3,0.2-0.5,0.2c-1.8,0-3.5,0-5.3,0C56.3,61.5,55.8,61.4,55.9,60.6z"/>
	<path class="st10" d="M53.3,57.4c0.6-0.2,0.7,0.4,0.9,0.7c0.3,0.5,0.7,1,1,1.5c-0.1,0.1-0.1,0.3-0.2,0.4
		C54.3,59.2,53.9,58.3,53.3,57.4z"/>
	<path class="st9" d="M50.3,52.8c0.8,0.3,1.8,1.9,1.7,2.6c-0.7-0.7-0.9-1.8-1.7-2.4C50.4,52.9,50.3,52.8,50.3,52.8z"/>
	<path class="st9" d="M51.6,46.4c-0.1-0.2-0.5-0.2-0.6-0.7c0.5,0.1,1-0.5,1.4,0.2C52.2,46.2,52,46.3,51.6,46.4z"/>
	<path class="st9" d="M52.9,45.7c0.1-0.3-0.6-0.6,0.1-0.8c0.3-0.1,0.7-0.6,0.9,0.1C53.6,45.4,53.3,45.6,52.9,45.7z"/>
	<path class="st9" d="M55.1,60c0.1-0.1,0.1-0.3,0.2-0.4c0.2,0.4,0.6,0.6,0.7,1.1C55.3,60.8,55.5,60.1,55.1,60z"/>
	<path class="st9" d="M50.6,43.6c0.7-0.2,0.5-0.9,0.7-1.4c0.8-1.9,0.8-3.7,0-5.6c0.1,0,0.3,0,0.4,0c0.4,1,0.5,2.1,0.5,3.2
		c0,0.1,0,0.1,0,0.2c-0.1,0.6-0.2,1.3-0.3,1.9c-0.2,0.3-0.5,0.6-0.2,1C51.4,43.4,51.5,44.3,50.6,43.6z"/>
	<path class="st9" d="M44.8,47.4c1.1,0.1,2.1,0.6,2.8,1.4c-0.1,0.1-0.1,0.1-0.2,0.2c-0.8-0.7-1.8-1.1-2.9-1.4
		C44.7,47.6,44.8,47.5,44.8,47.4z"/>
	<path class="st10" d="M62.6,61.3c-0.4,0-0.9,0.2-1.3-0.1c0.4,0,0.8-0.1,1.2-0.1C62.5,61.1,62.6,61.2,62.6,61.3z"/>
	<path class="st11" d="M45.9,46.8c-0.1,0-0.1-0.1-0.2-0.1C45.8,46.7,45.8,46.8,45.9,46.8z"/>
	<path class="st9" d="M47.9,49.1c0.6,0.5,0.6,0.5,1,1.3c-0.6-0.3-0.8-0.8-1.2-1.1C47.7,49.2,47.8,49.1,47.9,49.1z"/>
	<path class="st9" d="M47.7,48.9c0.1,0.1,0.1,0.1,0.2,0.2c-0.1,0.1-0.1,0.1-0.2,0.2c-0.1-0.1-0.1-0.1-0.2-0.2
		C47.6,49,47.6,48.9,47.7,48.9z"/>
	<path class="st10" d="M49.7,34.5c-1-0.4-1.7-1-2.7-1.2C47.7,32.9,49.1,33.5,49.7,34.5z"/>
</g>
</svg>
