<?xml version="1.0" encoding="utf-8"?>
<!-- Roman Inozemtsev: https://github.com/mir-one/  -->
<svg version="1.1"
	 id="Слой_1" shape-rendering="geometricPrecision" text-rendering="geometricPrecision" image-rendering="optimizeQuality"
	 xmlns="http://www.w3.org/2000/svg" xmlns:xlink="http://www.w3.org/1999/xlink" x="0px" y="0px" viewBox="0 0 94 94"
	 style="enable-background:new 0 0 94 94;" xml:space="preserve">
<style type="text/css">
	.st0{fill:#71C8F0;}
	.st1{fill:#EE3B24;}
	.st2{fill:#FDCD08;}
</style>
<g>
	<path class="st0" d="M47.3,0c1,0.2,1.9,0.7,2.8,1.4c0.3,0.2,0.5,0.5,0.7,0.7c1.7,1.7,3.4,3.5,5.2,5.2c2,1.9,3.9,3.9,5.9,5.9
		c0.5,0.5,0.9,1,1.2,1.5c1,1.7,0.9,3.4-0.3,4.9c-0.7,1-1.6,1.8-2.5,2.7c-1.5,1.5-3,3-4.5,4.5c-1.8,1.7-3.5,3.5-5.3,5.3
		c-0.8,0.8-1.6,1.4-2.7,1.7c-0.9,0.2-1.7,0.1-2.5-0.2c-0.9-0.4-1.6-1-2.3-1.7c-3.8-3.8-7.6-7.6-11.4-11.4c-1-1-1.7-2.2-1.7-3.7
		c0-1.1,0.5-2,1.2-2.8c0.8-1,1.8-1.9,2.7-2.8c2.9-2.8,5.8-5.7,8.6-8.5c1.1-1.1,2.3-2.2,3.9-2.6C46.5,0,46.9,0,47.3,0z"/>
	<path class="st1" d="M47.1,94c-1.7,0-2.9-0.8-3.9-1.9c-6.4-6.4-12.8-12.8-19.2-19.2c-3.3-3.3-6.8-6.6-10-10.1
		c-0.5-0.5-0.9-1.1-1.4-1.6c-1.2-1.2-1.3-2.7-1-4.3c0.2-0.9,0.7-1.7,1.3-2.3c6.7-6.7,13.5-13.4,20.2-20.1c0.7-0.7,1.5-1.5,2.2-2.2
		c0.2-0.2,0.3-0.2,0.5,0c1.2,1.2,2.5,2.4,3.7,3.7c1,1,1.7,2.2,1.6,3.7C41,41,40.3,42.1,39.4,43c-3.2,3.2-6.4,6.4-9.6,9.6
		c-0.8,0.8-1,1.6-0.7,2.6c0.3,1,1,1.6,2.1,1.8c1,0.2,1.8-0.2,2.5-0.8c1.1-1.1,2.2-2.2,3.3-3.3c3.6-3.6,7.2-7.2,10.8-10.8
		c4.8-4.8,9.6-9.6,14.5-14.4c1.3-1.3,2.5-2.6,3.9-3.8c1.2-1.1,2.6-1.6,4.3-1.1c0.9,0.3,1.6,0.8,2.3,1.4c6.5,6.4,12.9,12.9,19.4,19.3
		c0.4,0.4,0.8,0.9,1.1,1.4c0.9,1.5,1,2.9,0.1,4.4c-0.3,0.5-0.7,1-1.1,1.5c-5.7,5.7-11.4,11.4-17.1,17.1c-1.9,1.9-3.7,3.7-5.6,5.6
		c-5.1,5.1-10.2,10.2-15.3,15.3c-1.4,1.4-2.7,2.7-4.1,4C49.2,93.5,48.2,94.1,47.1,94z"/>
	<path class="st2" d="M29.4,27.7c0,1.9-0.5,3.2-1.5,4.2C22.7,37,17.6,42.2,12.4,47.3c-1.2,1.2-2.4,2.4-3.6,3.5c-1.9,1.8-5,1.8-7,0
		c-2.4-2.2-2.5-5.5-0.2-7.8C6.8,38,11.9,32.9,17,27.8c1.2-1.2,2.3-2.4,3.5-3.5c1.7-1.5,3.7-1.9,5.7-1C28.3,24.2,29.4,25.9,29.4,27.7
		z"/>
</g>
</svg>
