<?xml version="1.0" encoding="utf-8"?>
<!-- Roman Inozemtsev: https://github.com/mir-one/  -->
<svg version="1.1"
	 id="Слой_1" text-rendering="geometricPrecision" shape-rendering="geometricPrecision" image-rendering="optimizeQuality"
	 xmlns="http://www.w3.org/2000/svg" xmlns:xlink="http://www.w3.org/1999/xlink" x="0px" y="0px" viewBox="0 0 256.7 32.2"
	 style="enable-background:new 0 0 256.7 32.2;" xml:space="preserve">
<style type="text/css">
	.st0{fill:#404041;}
	.st1{fill:#E92225;}
	.st2{fill:#F38021;}
	.st3{fill:#F1E71B;}
	.st4{fill:#33B24C;}
	.st5{fill:#3F6BB1;}
	.st6{fill:#6B4D9F;}
	.st7{fill:#AB4397;}
	.st8{fill:#F6F7F7;}
	.st9{fill:#D0CFCF;}
	.st10{fill:#C5C6C5;}
	.st11{fill:#242628;}
	.st12{fill:#EC1E27;}
	.st13{fill:#F8DD00;}
	.st14{fill:#33AF4A;}
</style>
<g>
	<circle class="st0" cx="85.2" cy="16" r="5.9"/>
	<path class="st1" d="M82.4,24.1c-0.8-0.3-1.5-0.8-2.2-1.3c-0.7-0.5-1.2-1.1-1.7-1.8c-0.5-0.7-0.8-1.5-1.1-2.3
		c-0.3-1.1-0.5-2.2-0.4-3.4c0.1-1,0.3-1.9,0.7-2.8c0.5-1,1.1-1.9,1.9-2.6c0.4-0.4,0.9-0.8,1.5-1.1c0.4-0.2,0.7-0.4,1.1-0.6
		c0.2-0.1,0.4-0.1,0.6-0.2c0.1,0,0.2-0.1,0.3-0.1c0.2,0,0.5-0.1,0.7-0.2c0,0,0,0,0.1,0c0.1,0,0.2,0,0.3-0.1c0,0,0,0,0,0
		c0.1,0,0.3,0,0.4,0c0,0,0,0,0,0c0.2,0,0.4,0,0.7,0c0.2,0,0.3,0,0.5,0c0.2,0.1,0.5,0.1,0.7,0.1c0.2,0,0.5,0.1,0.7,0.1
		c0.3,0,0.5,0.1,0.7,0.2c0.2,0,0.3,0.2,0.5,0.1c0.1,0,0.3,0.1,0.4,0.1c0.3,0.1,0.7,0.3,1,0.5C90,8.8,90.3,9,90.6,9.2
		c0.3,0.2,0.5,0.4,0.7,0.6c0.3,0.2,0.5,0.5,0.7,0.7c0.3,0.4,0.6,0.7,0.8,1.1c0.4,0.7,0.8,1.4,1,2.2c0.1,0.4,0.2,0.8,0.3,1.2
		c0,0.1-0.1,0.3,0,0.4c0,0.6,0,1.1,0,1.7c-0.1,0.1,0,0.3-0.1,0.5c-0.1,1-0.5,2-1,2.9c-0.4,0.6-0.8,1.2-1.3,1.7
		c-0.5,0.5-1,0.9-1.5,1.3c-0.5,0.3-1,0.5-1.5,0.7c-0.3,0.1-0.6,0.2-0.9,0.3c-0.4,0.1-0.8,0.2-1.2,0.2c-0.7,0.1-1.5,0.1-2.2,0
		c-0.4,0-0.9-0.1-1.3-0.3c0,0-0.1,0-0.1,0c0,0,0,0,0,0c-0.1-0.1-0.1-0.1-0.2-0.1c0,0,0,0,0,0C82.6,24.1,82.5,24.1,82.4,24.1z
		 M77.7,16.1c-0.1,4.4,3.6,7.9,7.7,7.9c4.5,0,8.1-3.5,8.1-7.8c0-4.7-3.7-7.9-7.8-8C81.2,8.1,77.6,11.8,77.7,16.1z"/>
	<path class="st2" d="M77.7,16.1c0-4.4,3.5-8,8-7.9c4.1,0.1,7.8,3.3,7.8,8c0,4.3-3.6,7.8-8.1,7.8C81.3,24,77.6,20.5,77.7,16.1z
		 M78.3,16.2c-0.1,4.1,3.4,7.2,7.3,7.2c4-0.1,7.2-3.1,7.2-7.2c0.1-4.3-3.5-7.3-7.2-7.3C81.5,8.9,78.3,12.1,78.3,16.2z"/>
	<path class="st3" d="M78.3,16.2c0-4.1,3.2-7.3,7.2-7.3c3.7,0,7.3,3,7.2,7.3c-0.1,4-3.2,7.1-7.2,7.2C81.8,23.4,78.3,20.3,78.3,16.2z
		 M85.6,22.7c3.6,0,6.6-2.9,6.6-6.7c0-3.7-3.2-6.4-6.5-6.4c-3.9,0-6.6,3-6.6,6.6C78.9,19.9,82.1,22.7,85.6,22.7z"/>
	<path class="st4" d="M85.6,22.7c-3.5,0-6.6-2.8-6.6-6.5c0-3.6,2.8-6.6,6.6-6.6c3.3,0,6.5,2.7,6.5,6.4
		C92.2,19.9,89.1,22.7,85.6,22.7z M85.7,22c0.3,0,0.7,0,1.1-0.1c1-0.2,1.9-0.7,2.7-1.4c0.7-0.7,1.3-1.5,1.6-2.4
		c0.3-0.9,0.4-1.9,0.3-2.8c-0.1-0.7-0.3-1.3-0.6-1.9c-0.4-0.7-0.8-1.3-1.5-1.8c-0.6-0.4-1.2-0.9-2-1.1c-0.5-0.2-1-0.3-1.5-0.3
		c-0.9,0-1.7,0.1-2.6,0.5c-0.8,0.3-1.6,0.8-2.2,1.5c-0.4,0.5-0.7,1-1,1.5c-0.3,0.7-0.5,1.4-0.5,2.1c0,0.5,0,1,0.1,1.5
		c0.3,1.4,0.9,2.5,2,3.4C82.9,21.6,84.2,22.1,85.7,22z"/>
	<path class="st5" d="M85.7,22c-1.6,0-2.8-0.5-4-1.3c-1.1-0.9-1.7-2-2-3.4c-0.1-0.5-0.1-1-0.1-1.5c0-0.7,0.2-1.4,0.5-2.1
		c0.2-0.6,0.6-1.1,1-1.5c0.6-0.7,1.3-1.2,2.2-1.5c0.8-0.3,1.7-0.5,2.6-0.5c0.5,0,1,0.1,1.5,0.3c0.7,0.2,1.4,0.7,2,1.1
		c0.7,0.5,1.1,1.1,1.5,1.8c0.3,0.6,0.5,1.3,0.6,1.9c0.1,1,0,1.9-0.3,2.8c-0.3,1-0.9,1.8-1.6,2.4c-0.8,0.7-1.7,1.2-2.7,1.4
		C86.4,22,86,22.1,85.7,22z M90.8,16c0-0.3,0-0.7-0.1-1.1c-0.1-0.8-0.5-1.5-0.9-2.1c-0.4-0.5-0.9-1-1.6-1.3
		c-0.7-0.4-1.4-0.6-2.2-0.7c-0.9-0.1-1.7,0.1-2.5,0.4c-0.4,0.2-0.9,0.4-1.3,0.7c-0.9,0.7-1.5,1.6-1.8,2.6c-0.3,0.9-0.3,1.8-0.1,2.7
		c0.2,1,0.6,1.8,1.3,2.6c0.3,0.4,0.7,0.6,1.2,0.9c1,0.5,1.9,0.8,3,0.7c0.8-0.1,1.5-0.3,2.2-0.6c0.8-0.4,1.4-1.1,1.9-1.8
		C90.6,18.1,90.8,17.1,90.8,16z"/>
	<path class="st6" d="M90.8,16c0,1.1-0.3,2-0.8,2.9c-0.5,0.8-1.1,1.4-1.9,1.8c-0.7,0.4-1.4,0.6-2.2,0.6c-1.1,0.1-2.1-0.2-3-0.7
		c-0.4-0.2-0.8-0.5-1.2-0.9c-0.7-0.7-1.1-1.6-1.3-2.6c-0.2-0.9-0.1-1.8,0.1-2.7c0.3-1,0.9-1.9,1.8-2.6c0.4-0.3,0.8-0.5,1.3-0.7
		c0.8-0.3,1.7-0.5,2.5-0.4c0.8,0.1,1.5,0.3,2.2,0.7c0.6,0.3,1.1,0.8,1.6,1.3c0.5,0.6,0.8,1.3,0.9,2.1C90.8,15.4,90.8,15.7,90.8,16z
		 M88.1,12.2C88.1,12.2,88.1,12.2,88.1,12.2c-0.5-0.3-0.9-0.5-1.4-0.6c-0.6-0.1-1.2-0.1-1.8-0.1c-0.6,0.1-1.1,0.2-1.6,0.5
		c-0.5,0.3-1,0.7-1.4,1.2c-0.5,0.6-0.7,1.3-0.9,2c-0.1,0.8-0.1,1.6,0.2,2.4c0.2,0.7,0.6,1.3,1.2,1.8c0.6,0.6,1.3,1,2.2,1.1
		c0.6,0.1,1.1,0.1,1.7,0.1c0.5-0.1,1-0.2,1.4-0.4c0.5-0.3,0.9-0.6,1.3-1c0.5-0.5,0.8-1.1,1-1.8c0.2-0.5,0.2-1,0.2-1.6
		c0-0.7-0.2-1.4-0.6-2c-0.3-0.5-0.6-0.9-1.1-1.3c0-0.1,0-0.1-0.1-0.1c0,0,0,0,0,0C88.3,12.3,88.3,12.2,88.1,12.2
		C88.1,12.2,88.1,12.2,88.1,12.2z"/>
	<path class="st7" d="M88.4,12.4C88.4,12.4,88.4,12.4,88.4,12.4c0,0.1,0.1,0.1,0.2,0.1c0.4,0.4,0.8,0.8,1.1,1.3
		c0.3,0.6,0.5,1.3,0.6,2c0,0.5,0,1.1-0.2,1.6c-0.2,0.7-0.5,1.3-1,1.8c-0.4,0.4-0.8,0.8-1.3,1c-0.4,0.2-0.9,0.4-1.4,0.4
		c-0.6,0.1-1.1,0-1.7-0.1c-0.9-0.1-1.6-0.5-2.2-1.1c-0.6-0.5-0.9-1.1-1.2-1.8c-0.3-0.8-0.3-1.6-0.2-2.4c0.1-0.7,0.4-1.4,0.9-2
		c0.4-0.5,0.9-0.9,1.4-1.2c0.5-0.3,1-0.4,1.6-0.5c0.6-0.1,1.2,0,1.8,0.1c0.5,0.1,0.9,0.3,1.3,0.5c0,0.1,0,0.1,0.1,0.1c0,0,0,0,0,0
		C88.2,12.3,88.2,12.4,88.4,12.4z M81.7,14.9L81.7,14.9L81.7,14.9C81.7,14.9,81.7,14.9,81.7,14.9c-0.1,0.3-0.2,0.5-0.2,0.8
		c0,0,0,0,0,0c0,0-0.1,0-0.1,0c-0.1,0-0.1,0-0.2,0c0,0-0.1,0-0.1,0c0,0,0,0,0,0l0,0c0,0,0,0.1,0,0.1c0,0.1,0,0.2,0,0.3
		c0.1,0.1,0.3,0,0.4,0c0,0.4,0.1,0.8,0.2,1.2c0.5,1.6,1.8,2.6,3.4,2.8c0.1,0,0.2,0.1,0.2,0.2c0,0.1,0,0.1,0,0.2c0,0.1,0,0.1,0.1,0.1
		c0.2,0.1,0.4,0,0.4-0.3c0,0,0-0.1,0-0.1c0-0.1,0-0.1,0.1-0.1c1.1-0.1,2-0.5,2.7-1.4c0.6-0.7,0.9-1.4,1-2.3c0-0.3,0-0.3,0.3-0.3
		c0.1,0,0.2,0,0.2-0.2c0-0.1,0-0.3-0.2-0.3c-0.3,0-0.3,0-0.4-0.3c0,0,0-0.1,0-0.1c-0.3-1.7-1.7-2.9-3.4-3.1c-0.3,0-0.3,0-0.3-0.3
		c0-0.1,0-0.1-0.1-0.2c-0.2-0.1-0.4,0-0.4,0.2c0,0.2-0.1,0.3-0.3,0.3c-0.8,0.1-1.4,0.3-2,0.8c-0.2,0.1-0.4,0.3-0.5,0.5c0,0,0,0,0,0
		l0,0c-0.1,0.1-0.2,0.2-0.3,0.3l0,0c-0.1,0.1-0.2,0.3-0.3,0.5c0,0,0,0,0,0c0,0,0,0,0,0c0,0,0,0.1,0,0.1c-0.1,0.1-0.1,0.1-0.1,0.2
		c0,0,0,0,0,0l0,0C81.8,14.7,81.8,14.8,81.7,14.9C81.8,14.9,81.7,14.9,81.7,14.9z"/>
	<path class="st8" d="M83.2,13.5c-0.1-0.2-0.1-0.3,0.1-0.3c0.8,0,1.6,0,2.4,0c0.5,0.1,0.9,0.2,1.3,0.6c0.4,0.5,0.3,1.5-0.2,1.9
		c0-0.1-0.1,0-0.2,0c-0.1,0,0,0.1,0,0.1c0,0-0.1,0-0.1,0c-0.1-0.1-0.2,0-0.3,0c0,0.1,0.1,0.1,0.1,0.1c0,0-0.1,0-0.1,0.1
		c0.6,0.5,0.9,1.2,1.3,1.7c0.1,0.2,0.3,0.4,0.5,0.6c0.1,0,0.1,0.1,0.2,0.1c0.2,0,0.2,0.1,0.2,0.3c0,0,0,0,0,0c0,0,0,0,0,0
		c0-0.1,0-0.1-0.1-0.1c-0.2,0-0.4,0-0.6,0c-0.1,0-0.2,0-0.3-0.1c-0.4-0.5-0.6-1-1-1.5c-0.1-0.2-0.2-0.3-0.3-0.5c0,0,0-0.1-0.1-0.1
		c-0.1-0.2-0.3-0.3-0.6-0.3c0,0,0,0,0,0c-0.2,0-0.4,0-0.5,0c0,0.1,0,0.1,0.1,0.1c0.1,0,0.2,0,0.3,0l0,0c0,0,0,0,0,0
		c-0.1,0-0.3,0-0.4,0c-0.1,0-0.1,0-0.1,0.1c0,0.3,0,0.6,0,0.9c0,0.1,0,0.2,0,0.2c0,0.1,0,0.1,0,0.2c0,0,0,0.1,0,0.1
		c0,0.1,0,0.1,0,0.2c0,0.4,0.1,0.5,0.5,0.6c0.2,0,0.2,0.1,0.1,0.2c0,0,0,0,0,0c0-0.1,0-0.1-0.1-0.1c-0.1,0-0.3,0-0.4,0
		c-0.4,0-0.9,0-1.3,0c-0.1,0-0.1,0.1-0.1,0.1c0,0,0,0,0,0c-0.1-0.1,0-0.2,0.2-0.2c0.2,0,0.3-0.1,0.4-0.4c0,0,0,0,0,0
		c0,0.1,0.1,0.1,0.1,0C84,18,84,17.8,84,17.6c0-1.2,0-2.4,0-3.6c0-0.2,0-0.3-0.1-0.4c0-0.1-0.1-0.2-0.3-0.2
		c-0.1-0.1-0.3-0.1-0.4-0.1C83.2,13.3,83.2,13.4,83.2,13.5C83.3,13.5,83.3,13.5,83.2,13.5z M86.4,15.4c0,0,0.1-0.1,0.1-0.1
		c0.1-0.1,0.1-0.2,0.1-0.3c0,0,0,0,0,0c0,0,0-0.1,0-0.1c0-0.1,0-0.3,0-0.4c0-0.5-0.4-0.8-0.9-1c0,0-0.1,0-0.1,0c0,0-0.1,0-0.2,0
		c0,0,0,0,0,0c-0.2,0-0.5,0-0.7,0c0,0,0,0,0,0c0,0,0,0.1,0,0.1c0.2,0.1,0.4,0,0.6,0c0,0.1-0.1,0-0.1,0c-0.2,0-0.3,0-0.5,0
		c-0.1,0-0.2,0-0.2,0.2c0,0.6,0,1.1,0,1.7c0,0.2-0.1,0.4,0,0.5c0.1,0.1,0.3,0,0.5,0c0.4,0,0.8-0.1,1.1-0.4
		C86.3,15.6,86.3,15.5,86.4,15.4z"/>
	<path class="st9" d="M83.8,16.9c0-0.1,0-0.3,0-0.4c0-0.1,0-0.2,0-0.2c0,0,0-0.1,0-0.1c0-0.1,0-0.2,0-0.2c0-0.1,0-0.2,0-0.2
		c0-0.1,0-0.1,0-0.2c0-0.5,0-1,0-1.5c0-0.2-0.1-0.4-0.3-0.5c0,0,0.1,0,0.1,0c0,0,0.1,0,0.1,0c0.2,0.2,0.2,0.4,0.2,0.6
		c0,1.2,0,2.4,0,3.6c0,0.1,0,0.2-0.1,0.3c0,0,0,0,0,0C83.8,17.7,83.8,17.3,83.8,16.9z"/>
	<path class="st10" d="M85.2,18.7C85.2,18.7,85.2,18.7,85.2,18.7C85.2,18.8,85.2,18.8,85.2,18.7c-0.7,0.1-1.3,0.1-1.9,0.1
		c0,0-0.1,0-0.1,0c0,0,0,0,0,0C83.9,18.7,84.5,18.7,85.2,18.7z"/>
	<path class="st9" d="M87.1,18.6c0.1,0.1,0.2,0.1,0.2,0.1c0.2,0,0.5,0,0.7,0c0.1,0.1,0.2,0,0.2,0c0,0,0,0,0,0c0,0-0.1,0-0.1,0
		c-0.3,0-0.6,0-1,0C87.2,18.8,87.1,18.7,87.1,18.6z"/>
	<path class="st10" d="M86.7,18c0.1,0,0.1,0.1,0.2,0.1c0.1,0.1,0.1,0.2,0.2,0.3c0,0,0,0,0,0.1C86.9,18.3,86.8,18.2,86.7,18z"/>
	<path class="st9" d="M86.1,17.2c0.1,0,0.3,0.3,0.3,0.5C86.3,17.5,86.3,17.3,86.1,17.2C86.1,17.2,86.1,17.2,86.1,17.2z"/>
	<path class="st9" d="M86.4,16c0,0-0.1,0-0.1-0.1c0.1,0,0.2-0.1,0.3,0C86.5,16,86.4,16,86.4,16z"/>
	<path class="st9" d="M86.6,15.9c0,0-0.1-0.1,0-0.1c0.1,0,0.1-0.1,0.2,0C86.7,15.8,86.7,15.9,86.6,15.9z"/>
	<path class="st9" d="M87,18.5C87,18.5,87,18.4,87,18.5c0.1,0,0.1,0,0.2,0.1C87,18.6,87.1,18.5,87,18.5z"/>
	<path class="st9" d="M86.2,15.5c0.1,0,0.1-0.2,0.1-0.3c0.1-0.3,0.1-0.7,0-1c0,0,0.1,0,0.1,0c0.1,0.2,0.1,0.4,0.1,0.6c0,0,0,0,0,0
		c0,0.1,0,0.2-0.1,0.4c0,0.1-0.1,0.1,0,0.2C86.3,15.5,86.3,15.6,86.2,15.5z"/>
	<path class="st9" d="M85.1,16.2c0.2,0,0.4,0.1,0.5,0.3c0,0,0,0,0,0C85.5,16.4,85.3,16.3,85.1,16.2C85.1,16.2,85.1,16.2,85.1,16.2z"
		/>
	<path class="st10" d="M88.4,18.7c-0.1,0-0.2,0-0.2,0C88.2,18.7,88.3,18.7,88.4,18.7C88.4,18.7,88.4,18.7,88.4,18.7z"/>
	<path class="st11" d="M85.3,16.1C85.3,16.1,85.3,16.1,85.3,16.1C85.3,16.1,85.3,16.1,85.3,16.1z"/>
	<path class="st9" d="M85.7,16.5c0.1,0.1,0.1,0.1,0.2,0.2C85.8,16.7,85.7,16.6,85.7,16.5C85.7,16.5,85.7,16.5,85.7,16.5z"/>
	<path class="st9" d="M85.7,16.5C85.7,16.5,85.7,16.5,85.7,16.5C85.7,16.5,85.7,16.5,85.7,16.5C85.6,16.5,85.6,16.5,85.7,16.5
		C85.6,16.5,85.6,16.5,85.7,16.5z"/>
	<path class="st10" d="M86,13.8c-0.2-0.1-0.3-0.2-0.5-0.2C85.7,13.5,85.9,13.7,86,13.8z"/>
</g>
<g>
	<path class="st12" d="M109.4,11.7h2.8c0.3,0,0.6,0.1,0.8,0.2c0.2,0.1,0.5,0.3,0.6,0.5c0.2,0.2,0.3,0.5,0.4,0.8s0.2,0.6,0.2,1
		c0,0.2,0,0.4-0.1,0.7s-0.1,0.4-0.2,0.6s-0.2,0.4-0.4,0.5c-0.1,0.1-0.3,0.3-0.5,0.3c0.1,0,0.1,0.1,0.2,0.2s0.1,0.2,0.2,0.3
		c0.1,0.1,0.1,0.2,0.2,0.4c0.1,0.1,0.1,0.3,0.1,0.5l0.4,1.9h0.6l0,1.1h-1.3l-0.5-2.7c-0.1-0.5-0.2-0.8-0.4-1.1s-0.4-0.3-0.8-0.3
		h-0.9v3.1h0.7v1h-2.2v-1h0.6v-6.9h-0.6V11.7z M110.9,12.7v2.8h1.3c0.2,0,0.3,0,0.5-0.1s0.3-0.1,0.4-0.3s0.2-0.3,0.2-0.4
		s0.1-0.4,0.1-0.6c0-0.4-0.1-0.8-0.3-1s-0.5-0.4-0.9-0.4H110.9z"/>
	<path class="st12" d="M118.3,20c-0.2,0.2-0.4,0.4-0.6,0.5s-0.4,0.2-0.7,0.2c-0.2,0-0.4,0-0.6-0.1c-0.2-0.1-0.3-0.2-0.5-0.4
		s-0.2-0.4-0.3-0.6s-0.1-0.4-0.1-0.7c0-0.3,0-0.5,0.1-0.7s0.1-0.4,0.2-0.5s0.2-0.3,0.3-0.4c0.1-0.1,0.3-0.2,0.4-0.2s0.3-0.1,0.4-0.1
		c0.1,0,0.3,0,0.4,0c0.2,0,0.4,0,0.5,0s0.3,0,0.4,0.1l0-0.5c0-0.2,0-0.4-0.1-0.6c0-0.2-0.1-0.3-0.2-0.4c-0.1-0.1-0.2-0.2-0.3-0.2
		c-0.1-0.1-0.3-0.1-0.4-0.1c-0.1,0-0.3,0-0.4,0c-0.1,0-0.2,0.1-0.4,0.1c-0.1,0-0.2,0.1-0.3,0.1c-0.1,0.1-0.2,0.1-0.2,0.2l-0.3-0.8
		c0.1-0.1,0.2-0.2,0.4-0.3c0.1-0.1,0.3-0.1,0.4-0.2s0.3-0.1,0.4-0.1c0.1,0,0.3,0,0.4,0c0.3,0,0.5,0,0.7,0.1s0.4,0.2,0.5,0.4
		c0.1,0.2,0.3,0.4,0.3,0.7s0.1,0.6,0.1,1l0,3h0.5v1h-1.3V20z M117.2,19.8c0.1,0,0.2,0,0.3-0.1s0.2-0.1,0.3-0.1
		c0.1-0.1,0.2-0.1,0.3-0.2s0.2-0.2,0.2-0.2l0-1.4h-0.9c-0.2,0-0.3,0-0.4,0.1c-0.1,0-0.2,0.1-0.3,0.2c-0.1,0.1-0.2,0.2-0.2,0.3
		s-0.1,0.3-0.1,0.5c0,0.2,0,0.3,0.1,0.4c0,0.1,0.1,0.2,0.2,0.3c0.1,0.1,0.2,0.1,0.3,0.2C116.9,19.8,117.1,19.8,117.2,19.8z"/>
	<path class="st13" d="M120.5,14.5h1.5v5.1h0.7v1h-2.2v-1h0.6v-4.1h-0.7V14.5z M121,12.4c0-0.1,0-0.2,0-0.3s0.1-0.2,0.1-0.2
		c0.1-0.1,0.1-0.1,0.2-0.2c0.1,0,0.1-0.1,0.2-0.1c0.1,0,0.1,0,0.2,0.1s0.1,0.1,0.2,0.2s0.1,0.1,0.1,0.2c0,0.1,0,0.2,0,0.3
		c0,0.1,0,0.2,0,0.3c0,0.1-0.1,0.2-0.1,0.2s-0.1,0.1-0.2,0.2s-0.1,0.1-0.2,0.1c-0.1,0-0.2,0-0.2-0.1c-0.1,0-0.1-0.1-0.2-0.2
		c-0.1-0.1-0.1-0.2-0.1-0.2S121,12.5,121,12.4z"/>
	<path class="st13" d="M126.4,19.6h0.6v-2.8c0-0.5-0.1-0.8-0.3-1.1s-0.4-0.4-0.8-0.4c-0.2,0-0.4,0.1-0.6,0.2
		c-0.2,0.1-0.4,0.3-0.5,0.5v3.6h0.6v1h-2.1v-1h0.6v-4.1h-0.6v-1h1.4v0.7h0c0.1-0.1,0.2-0.2,0.3-0.3s0.2-0.2,0.3-0.3s0.2-0.1,0.4-0.2
		c0.1,0,0.3-0.1,0.4-0.1c0.2,0,0.5,0,0.7,0.1s0.4,0.2,0.5,0.4c0.1,0.2,0.2,0.4,0.3,0.7s0.1,0.6,0.1,1v2.9h0.6v1h-2.1V19.6z"/>
	<path class="st14" d="M129.2,11.5h1.5V15c0.2-0.2,0.4-0.4,0.6-0.5s0.5-0.2,0.7-0.2c0.3,0,0.6,0.1,0.8,0.2s0.5,0.4,0.6,0.6
		c0.2,0.3,0.3,0.6,0.4,1c0.1,0.4,0.1,0.8,0.1,1.3c0,0.5-0.1,0.9-0.2,1.3s-0.3,0.7-0.5,1c-0.2,0.3-0.4,0.5-0.7,0.7s-0.6,0.2-0.9,0.2
		c-0.2,0-0.4,0-0.6-0.1s-0.4-0.2-0.5-0.3v0.4h-0.8v-8.1h-0.7V11.5z M131.8,15.3c-0.2,0-0.4,0.1-0.6,0.2s-0.4,0.3-0.5,0.5v3.3
		c0.1,0.1,0.2,0.2,0.4,0.3s0.4,0.1,0.7,0.1c0.2,0,0.4,0,0.5-0.1s0.3-0.2,0.5-0.4c0.1-0.2,0.2-0.4,0.3-0.7c0.1-0.3,0.1-0.6,0.1-1
		c0-0.3,0-0.6-0.1-0.9c-0.1-0.3-0.2-0.5-0.3-0.7c-0.1-0.2-0.3-0.3-0.4-0.4C132.2,15.4,132,15.3,131.8,15.3z"/>
	<path class="st14" d="M134.8,17.5c0-0.5,0.1-0.9,0.2-1.3c0.1-0.4,0.3-0.7,0.5-1s0.4-0.5,0.7-0.7s0.6-0.2,0.9-0.2
		c0.3,0,0.6,0.1,0.9,0.2c0.3,0.2,0.5,0.4,0.7,0.6c0.2,0.3,0.4,0.6,0.5,1c0.1,0.4,0.2,0.8,0.2,1.3c0,0.5-0.1,0.9-0.2,1.3
		c-0.1,0.4-0.3,0.7-0.5,1c-0.2,0.3-0.4,0.5-0.7,0.7c-0.3,0.2-0.6,0.2-0.9,0.2c-0.3,0-0.7-0.1-0.9-0.2s-0.5-0.4-0.7-0.7
		c-0.2-0.3-0.4-0.6-0.5-1S134.8,18,134.8,17.5z M135.7,17.5c0,0.3,0,0.7,0.1,0.9c0.1,0.3,0.2,0.5,0.3,0.7s0.3,0.3,0.5,0.5
		c0.2,0.1,0.4,0.2,0.5,0.2c0.2,0,0.4-0.1,0.6-0.2c0.2-0.1,0.3-0.3,0.5-0.5s0.2-0.4,0.3-0.7c0.1-0.3,0.1-0.6,0.1-0.9
		c0-0.4,0-0.7-0.1-1c-0.1-0.3-0.2-0.5-0.3-0.7c-0.1-0.2-0.3-0.3-0.5-0.4c-0.2-0.1-0.4-0.1-0.6-0.1c-0.2,0-0.4,0-0.5,0.1
		c-0.2,0.1-0.3,0.2-0.5,0.4c-0.1,0.2-0.2,0.4-0.3,0.7C135.7,16.9,135.7,17.2,135.7,17.5z"/>
	<path class="st14" d="M139.9,14.5h1.4v1h-0.2l0.8,3.9l1.1-4.9h0.7l1,4.9l0.8-3.9h-0.3v-1h1.4v1h-0.4l-1.2,5.2h-0.8l-1-4.8l-1,4.8
		h-0.8l-1.2-5.2h-0.4V14.5z"/>
	<path class="st6" d="M158,11.7h2.2v1h-0.6l-1.9,7.9h-1.3l-1.8-7.7l-1.7,7.7h-1.3l-1.9-7.9H149v-1h2.2v1h-0.6l1.6,6.8l1.7-7.8h1.3
		l1.8,7.8l1.6-6.8H158V11.7z"/>
	<path class="st6" d="M163.3,20c-0.2,0.2-0.4,0.4-0.6,0.5c-0.2,0.1-0.4,0.2-0.7,0.2c-0.2,0-0.4,0-0.6-0.1s-0.3-0.2-0.5-0.4
		s-0.2-0.4-0.3-0.6c-0.1-0.2-0.1-0.4-0.1-0.7c0-0.3,0-0.5,0.1-0.7s0.1-0.4,0.2-0.5s0.2-0.3,0.3-0.4c0.1-0.1,0.3-0.2,0.4-0.2
		s0.3-0.1,0.4-0.1s0.3,0,0.4,0c0.2,0,0.4,0,0.5,0s0.3,0,0.4,0.1l0-0.5c0-0.2,0-0.4-0.1-0.6c0-0.2-0.1-0.3-0.2-0.4
		c-0.1-0.1-0.2-0.2-0.3-0.2c-0.1-0.1-0.3-0.1-0.4-0.1c-0.1,0-0.3,0-0.4,0s-0.2,0.1-0.4,0.1s-0.2,0.1-0.3,0.1s-0.2,0.1-0.2,0.2
		l-0.3-0.8c0.1-0.1,0.2-0.2,0.4-0.3c0.1-0.1,0.3-0.1,0.4-0.2c0.1-0.1,0.3-0.1,0.4-0.1s0.3,0,0.4,0c0.3,0,0.5,0,0.7,0.1
		s0.4,0.2,0.5,0.4c0.1,0.2,0.3,0.4,0.3,0.7s0.1,0.6,0.1,1l0,3h0.5v1h-1.3V20z M162.2,19.8c0.1,0,0.2,0,0.3-0.1
		c0.1,0,0.2-0.1,0.3-0.1c0.1-0.1,0.2-0.1,0.3-0.2s0.2-0.2,0.2-0.2l0-1.4h-0.9c-0.2,0-0.3,0-0.4,0.1s-0.2,0.1-0.3,0.2
		c-0.1,0.1-0.2,0.2-0.2,0.3s-0.1,0.3-0.1,0.5c0,0.2,0,0.3,0.1,0.4c0,0.1,0.1,0.2,0.2,0.3c0.1,0.1,0.2,0.1,0.3,0.2
		C161.9,19.8,162,19.8,162.2,19.8z"/>
	<path class="st5" d="M165.5,11.5h1.5v8.1h0.7v1h-2.2v-1h0.7v-7.1h-0.7V11.5z"/>
	<path class="st5" d="M168.4,11.5h1.5v8.1h0.7v1h-2.2v-1h0.7v-7.1h-0.7V11.5z"/>
	<path class="st7" d="M172.1,17.7c0,0.2,0,0.3,0,0.5s0,0.3,0.1,0.4c0.1,0.4,0.3,0.7,0.5,0.9s0.5,0.3,0.8,0.3c0.2,0,0.5,0,0.7-0.1
		c0.2-0.1,0.5-0.2,0.7-0.4l0.3,0.7c-0.3,0.3-0.6,0.5-0.9,0.6s-0.6,0.2-0.9,0.2c-0.3,0-0.6-0.1-0.9-0.2c-0.3-0.1-0.5-0.3-0.7-0.6
		c-0.2-0.3-0.3-0.6-0.4-1c-0.1-0.4-0.2-0.9-0.2-1.4c0-0.4,0-0.8,0.1-1.2c0.1-0.4,0.2-0.7,0.4-1c0.2-0.3,0.4-0.5,0.7-0.7
		s0.6-0.3,0.9-0.3c0.3,0,0.6,0.1,0.9,0.2c0.2,0.1,0.4,0.3,0.6,0.6s0.3,0.5,0.3,0.8c0.1,0.3,0.1,0.6,0.2,0.9c0,0.1,0,0.3,0,0.5
		s0,0.3,0,0.4H172.1z M173.4,15.3c-0.2,0-0.4,0-0.5,0.1c-0.1,0.1-0.3,0.2-0.4,0.3s-0.2,0.3-0.2,0.5c-0.1,0.2-0.1,0.4-0.1,0.7h2.4
		c0-0.2,0-0.4-0.1-0.6s-0.1-0.4-0.2-0.5c-0.1-0.1-0.2-0.3-0.3-0.3C173.8,15.3,173.6,15.3,173.4,15.3z"/>
	<path class="st7" d="M177.8,14.5h1.1v0.9h-1.1l0,3.5c0,0.2,0,0.4,0.1,0.6c0,0.1,0.1,0.3,0.2,0.3s0.2,0.1,0.3,0.1c0.1,0,0.2,0,0.3,0
		c0.1,0,0.2-0.1,0.3-0.1l0.2,0.7c-0.1,0.1-0.3,0.2-0.4,0.2c-0.2,0.1-0.3,0.1-0.5,0.1c-0.2,0-0.4,0-0.5-0.1c-0.1-0.1-0.3-0.2-0.4-0.3
		s-0.2-0.4-0.2-0.6c0-0.3-0.1-0.6-0.1-1l0-3.3h-0.7v-0.9h0.7v-1.5l0.8-0.5V14.5z"/>
</g>
</svg>
