<?xml version="1.0" encoding="utf-8"?>
<!-- Roman Inozemtsev: https://github.com/mir-one/  -->
<svg version="1.1"
	 id="Слой_1" text-rendering="geometricPrecision" shape-rendering="geometricPrecision" image-rendering="optimizeQuality"
	 xmlns="http://www.w3.org/2000/svg" xmlns:xlink="http://www.w3.org/1999/xlink" x="0px" y="0px" viewBox="0 0 84 18.3"
	 style="enable-background:new 0 0 84 18.3;" xml:space="preserve">
<style type="text/css">
	.st0{fill:#EC1E27;}
	.st1{fill:#F8DD00;}
	.st2{fill:#33AF4A;}
</style>
<g>
	<path class="st0" d="M0,0.5h6.2c0.7,0,1.3,0.1,1.8,0.3c0.6,0.2,1,0.5,1.5,0.9c0.4,0.4,0.7,0.9,1,1.5c0.2,0.6,0.3,1.3,0.3,2
		c0,0.4-0.1,0.9-0.2,1.3c-0.1,0.4-0.3,0.8-0.6,1.2c-0.2,0.4-0.5,0.7-0.9,1C8.9,9,8.5,9.2,8.1,9.4c0.2,0.1,0.3,0.2,0.5,0.4
		c0.2,0.2,0.3,0.3,0.5,0.6c0.1,0.2,0.3,0.5,0.4,0.8c0.1,0.3,0.2,0.6,0.3,0.9l0.8,3.8h1.3l0,2.2H9l-1.1-5.3c-0.2-1-0.5-1.7-0.9-2.1
		c-0.4-0.4-1-0.7-1.7-0.7H3.4V16h1.5v2H0v-2h1.4V2.5H0V0.5z M3.4,2.5V8h2.9c0.4,0,0.7-0.1,1-0.2c0.3-0.1,0.6-0.3,0.8-0.5
		s0.4-0.5,0.5-0.9c0.1-0.3,0.2-0.7,0.2-1.2c0-0.9-0.2-1.5-0.7-2C7.7,2.8,7,2.5,6,2.5H3.4z"/>
	<path class="st0" d="M20,16.9c-0.4,0.4-0.8,0.8-1.3,1c-0.5,0.3-1,0.4-1.6,0.4c-0.5,0-1-0.1-1.4-0.3c-0.4-0.2-0.8-0.4-1.1-0.8
		c-0.3-0.3-0.5-0.7-0.7-1.1c-0.2-0.4-0.3-0.9-0.3-1.3c0-0.5,0.1-1,0.2-1.3s0.3-0.7,0.5-1c0.2-0.3,0.5-0.5,0.7-0.7
		c0.3-0.2,0.6-0.4,0.9-0.5c0.3-0.1,0.6-0.2,1-0.3c0.3,0,0.6-0.1,0.9-0.1c0.5,0,0.9,0,1.2,0.1c0.3,0,0.6,0.1,0.9,0.1l0-1
		c0-0.4-0.1-0.8-0.2-1.1c-0.1-0.3-0.3-0.6-0.4-0.8c-0.2-0.2-0.4-0.4-0.7-0.5c-0.3-0.1-0.6-0.1-0.9-0.1c-0.3,0-0.6,0-0.9,0.1
		c-0.3,0.1-0.5,0.1-0.8,0.2c-0.2,0.1-0.5,0.2-0.7,0.3c-0.2,0.1-0.4,0.2-0.5,0.3l-0.6-1.5c0.2-0.2,0.5-0.4,0.8-0.5
		c0.3-0.2,0.6-0.3,0.9-0.4c0.3-0.1,0.6-0.2,1-0.3c0.3-0.1,0.7-0.1,1-0.1c0.6,0,1.1,0.1,1.6,0.2c0.5,0.2,0.9,0.4,1.2,0.8
		c0.3,0.3,0.6,0.8,0.8,1.3c0.2,0.5,0.3,1.2,0.3,1.9l0,6h1.1v2h-3V16.9z M17.5,16.5c0.2,0,0.5,0,0.7-0.1c0.2-0.1,0.5-0.2,0.7-0.3
		c0.2-0.1,0.4-0.3,0.6-0.4c0.2-0.2,0.3-0.3,0.5-0.5l0-2.7h-2.1c-0.4,0-0.7,0-1,0.1c-0.3,0.1-0.5,0.2-0.8,0.4
		c-0.2,0.2-0.4,0.4-0.5,0.7c-0.1,0.3-0.2,0.6-0.2,0.9c0,0.3,0,0.6,0.1,0.8c0.1,0.2,0.2,0.4,0.4,0.6c0.2,0.2,0.4,0.3,0.6,0.4
		C16.9,16.5,17.2,16.5,17.5,16.5z"/>
	<path class="st1" d="M24.9,6h3.3v10h1.5v2h-4.9v-2h1.5V8h-1.5V6z M26.1,1.8c0-0.2,0-0.4,0.1-0.6c0.1-0.2,0.2-0.3,0.3-0.5
		c0.1-0.1,0.3-0.2,0.4-0.3c0.2-0.1,0.3-0.1,0.5-0.1c0.2,0,0.3,0,0.5,0.1c0.2,0.1,0.3,0.2,0.4,0.3c0.1,0.1,0.2,0.3,0.3,0.5
		c0.1,0.2,0.1,0.4,0.1,0.6c0,0.2,0,0.4-0.1,0.6c-0.1,0.2-0.2,0.3-0.3,0.5C28.1,3,28,3.1,27.8,3.2c-0.2,0.1-0.3,0.1-0.5,0.1
		c-0.2,0-0.3,0-0.5-0.1c-0.2-0.1-0.3-0.2-0.4-0.3c-0.1-0.1-0.2-0.3-0.3-0.5C26.1,2.2,26.1,2,26.1,1.8z"/>
	<path class="st1" d="M38.2,16h1.4v-5.5c0-0.9-0.2-1.6-0.6-2.1c-0.4-0.5-1-0.7-1.7-0.7c-0.4,0-0.9,0.1-1.3,0.4
		c-0.4,0.2-0.8,0.5-1.2,0.9v7h1.4v2h-4.8v-2h1.4V8h-1.4V6h3.3v1.4h0C35,7.2,35.2,7,35.5,6.8c0.2-0.2,0.5-0.4,0.8-0.5
		C36.5,6.2,36.8,6,37.1,6c0.3-0.1,0.6-0.1,0.9-0.1c0.5,0,1,0.1,1.5,0.3c0.4,0.2,0.8,0.4,1.1,0.8c0.3,0.4,0.5,0.8,0.7,1.4
		c0.2,0.6,0.3,1.2,0.3,2V16H43v2h-4.8V16z"/>
	<path class="st2" d="M44.5,0.1h3.3v7c0.4-0.4,0.9-0.7,1.4-0.9c0.5-0.2,1-0.3,1.6-0.3c0.7,0,1.3,0.1,1.8,0.4c0.6,0.3,1,0.7,1.4,1.2
		c0.4,0.5,0.7,1.2,0.9,1.9c0.2,0.7,0.3,1.6,0.3,2.5c0,1-0.1,1.8-0.4,2.6c-0.2,0.8-0.6,1.5-1,2c-0.4,0.6-1,1-1.6,1.3
		c-0.6,0.3-1.3,0.5-2,0.5c-0.5,0-1-0.1-1.4-0.3c-0.4-0.2-0.8-0.4-1.1-0.7V18H46V2h-1.5V0.1z M50.4,7.7c-0.5,0-0.9,0.1-1.4,0.3
		c-0.4,0.2-0.8,0.5-1.1,0.9v6.4c0.2,0.3,0.5,0.5,0.9,0.7c0.4,0.2,0.9,0.3,1.5,0.3c0.4,0,0.8-0.1,1.2-0.3c0.4-0.2,0.7-0.5,1-0.8
		c0.3-0.4,0.5-0.8,0.7-1.4c0.2-0.6,0.3-1.2,0.3-1.9c0-0.7-0.1-1.3-0.3-1.8c-0.2-0.5-0.4-1-0.7-1.3c-0.3-0.4-0.6-0.6-1-0.8
		C51.2,7.7,50.8,7.7,50.4,7.7z"/>
	<path class="st2" d="M57.2,12c0-0.9,0.1-1.8,0.4-2.6c0.3-0.8,0.6-1.4,1.1-2c0.5-0.6,1-1,1.6-1.3c0.6-0.3,1.3-0.4,2.1-0.4
		c0.8,0,1.4,0.1,2.1,0.4C65,6.5,65.6,6.9,66,7.4c0.4,0.5,0.8,1.2,1,2c0.2,0.8,0.4,1.6,0.4,2.6c0,0.9-0.1,1.8-0.4,2.6
		c-0.3,0.8-0.6,1.5-1,2c-0.4,0.6-1,1-1.6,1.3c-0.6,0.3-1.3,0.5-2.1,0.5c-0.8,0-1.5-0.2-2.1-0.5c-0.6-0.3-1.2-0.7-1.6-1.3
		c-0.4-0.6-0.8-1.2-1-2C57.3,13.8,57.2,13,57.2,12z M59.1,12c0,0.7,0.1,1.3,0.3,1.9c0.2,0.6,0.4,1,0.7,1.4c0.3,0.4,0.6,0.7,1,0.9
		c0.4,0.2,0.8,0.3,1.2,0.3c0.5,0,0.9-0.1,1.3-0.3c0.4-0.2,0.7-0.5,1-0.9c0.3-0.4,0.5-0.9,0.7-1.4c0.2-0.6,0.2-1.2,0.2-1.9
		c0-0.7-0.1-1.4-0.2-1.9c-0.2-0.6-0.4-1-0.7-1.4c-0.3-0.4-0.6-0.7-1-0.9c-0.4-0.2-0.8-0.3-1.3-0.3c-0.4,0-0.8,0.1-1.2,0.3
		c-0.4,0.2-0.7,0.5-1,0.9c-0.3,0.4-0.5,0.8-0.7,1.4C59.2,10.7,59.1,11.3,59.1,12z"/>
	<path class="st2" d="M68.6,6h3.2v2h-0.5l1.8,7.6L75.6,6h1.5l2.3,9.6L81.3,8h-0.6V6H84v2h-0.9l-2.8,10.1h-1.7l-2.3-9.5L74,18.2h-1.7
		L69.5,8h-0.9V6z"/>
</g>
</svg>
