<?xml version="1.0" encoding="utf-8"?>
<!-- Roman Inozemtsev: https://github.com/mir-one/  -->
<svg version="1.1"
	 id="Слой_1" text-rendering="geometricPrecision" shape-rendering="geometricPrecision" image-rendering="optimizeQuality"
	 xmlns="http://www.w3.org/2000/svg" xmlns:xlink="http://www.w3.org/1999/xlink" x="0px" y="0px" viewBox="0 0 229.4 152.5"
	 style="enable-background:new 0 0 229.4 152.5;" xml:space="preserve">
<style type="text/css">
	.st0{fill:#E92225;}
	.st1{fill:#F38021;}
	.st2{fill:#F1E71B;}
	.st3{fill:#33B24C;}
	.st4{fill:#3F6BB1;}
	.st5{fill:#6B4D9F;}
	.st6{fill:#AB4397;}
	.st7{fill:#F6F7F7;}
	.st8{fill:#D0CFCF;}
	.st9{fill:#C5C6C5;}
	.st10{fill:#242628;}
	.st11{fill:#FFFFFF;}
</style>
<g>
	<path class="st0" d="M98.7,89.8c-4.5-1.5-8.3-4.1-11.9-7c-3.6-2.8-6.6-6.1-9.2-9.8c-2.6-3.8-4.6-8-6-12.4c-1.9-6-2.5-12-2-18.2
		c0.4-5.3,1.8-10.4,4-15.3c2.4-5.4,5.8-10.2,10.1-14.3c2.4-2.3,5.1-4.3,7.9-6.1c1.9-1.2,4-2.1,6-3.1c1.1-0.6,2.3-0.8,3.5-1.2
		c0.6-0.2,1.2-0.4,1.8-0.6c1.2-0.1,2.5-0.3,3.6-0.8c0.1,0,0.3,0,0.4,0c0.5-0.1,1.1-0.1,1.5-0.4c0,0,0,0,0,0c0.8,0,1.6,0.2,2.3-0.2
		c0,0,0,0,0,0c1.2-0.1,2.4,0.2,3.6-0.2c0.8-0.1,1.7,0.1,2.5-0.2c1.3,0.5,2.7,0.3,4,0.4c1.3,0.2,2.6,0.5,3.9,0.6
		c1.4,0.1,2.6,0.5,3.9,0.9c0.8,0.3,1.6,0.8,2.6,0.8c0.7,0,1.4,0.5,2.1,0.8c1.9,0.7,3.7,1.6,5.4,2.5c1.5,0.8,3,1.9,4.4,2.8
		c1.4,0.9,2.6,2.1,3.9,3.2c1.4,1.1,2.7,2.4,3.8,3.8c1.6,1.9,3.3,3.8,4.5,5.9c2.1,3.9,4.1,7.8,5.2,12.1c0.5,2.1,1,4.2,1.4,6.3
		c0.1,0.7-0.3,1.5,0.2,2.1c0,3,0,6.1,0,9.1c-0.3,0.8-0.2,1.7-0.3,2.5c-0.7,5.6-2.5,10.9-5.4,15.6c-2,3.2-4.2,6.3-6.8,9
		c-2.5,2.7-5.3,5.1-8.4,6.9c-2.6,1.5-5.3,2.9-8.1,4c-1.7,0.6-3.4,1.2-5.1,1.7c-2.2,0.6-4.5,0.9-6.8,1.3c-4,0.7-8,0.4-12,0
		c-2.4-0.2-4.8-0.8-7.1-1.6c-0.2-0.2-0.4-0.2-0.6-0.2c0,0,0,0,0,0c-0.3-0.4-0.8-0.5-1.3-0.4c0,0,0,0,0,0
		C99.6,89.8,99.1,89.8,98.7,89.8z M73.1,46.4c-0.5,23.8,19.6,42.7,41.7,42.8c24.5,0.1,43.5-18.8,43.8-42.2
		c0.2-25.4-20-42.9-41.9-43.3C92.2,3.2,72.9,22.9,73.1,46.4z"/>
	<path class="st1" d="M73.1,46.4C72.9,22.9,92.2,3.2,116.6,3.7c21.9,0.5,42.2,17.9,41.9,43.3c-0.2,23.3-19.2,42.3-43.8,42.2
		C92.7,89.1,72.6,70.2,73.1,46.4z M76.7,46.7c-0.3,22.1,18.6,39.2,39.3,38.9c21.6-0.3,38.7-16.9,39-38.7c0.3-23.5-19-39.6-39.2-39.6
		C93.7,7.4,76.8,24.7,76.7,46.7z"/>
	<path class="st2" d="M76.7,46.7c0.1-22.1,17-39.3,39-39.4c20.3-0.1,39.5,16,39.2,39.6c-0.3,21.8-17.4,38.4-39,38.7
		C95.3,85.9,76.3,68.9,76.7,46.7z M115.8,82.1c19.3,0.1,35.9-15.4,35.6-36.5c-0.2-20.1-17.2-34.7-35.3-34.7
		c-20.9,0-35.7,16.1-35.9,35.9C79.9,66.8,96.9,82.2,115.8,82.1z"/>
	<path class="st3" d="M115.8,82.1c-18.9,0.2-35.9-15.2-35.6-35.3c0.3-19.7,15-35.9,35.9-35.9c18.1,0,35.1,14.6,35.3,34.7
		C151.7,66.7,135.1,82.1,115.8,82.1z M116.7,78.5c1.6,0.1,3.9-0.3,6.1-0.7c5.5-1.2,10.5-3.8,14.7-7.5c4-3.6,6.9-8,8.6-13.1
		c1.7-5,2.2-10.1,1.5-15.3c-0.5-3.7-1.5-7.2-3.3-10.5c-2-3.7-4.4-7-8-9.5c-3.4-2.4-6.8-4.6-10.7-5.9c-2.7-0.9-5.4-1.4-8.2-1.4
		c-4.8-0.1-9.4,0.8-13.9,2.6c-4.6,1.8-8.5,4.4-11.6,8.2c-2.1,2.5-3.9,5.2-5.2,8.2c-1.6,3.6-2.5,7.3-2.7,11.2c-0.2,2.7,0,5.4,0.5,8.1
		c1.5,7.4,4.8,13.8,10.9,18.5C101.3,76.1,108.2,78.6,116.7,78.5z"/>
	<path class="st4" d="M116.7,78.5c-8.5,0-15.4-2.5-21.5-7.2c-6.1-4.7-9.4-11-10.9-18.5c-0.5-2.7-0.7-5.4-0.5-8.1
		c0.2-3.9,1.1-7.6,2.7-11.2c1.3-3,3.1-5.7,5.2-8.2c3.2-3.8,7.1-6.4,11.6-8.2c4.5-1.8,9.1-2.7,13.9-2.6c2.8,0.1,5.5,0.6,8.2,1.4
		c4,1.3,7.3,3.5,10.7,5.9c3.6,2.5,6,5.8,8,9.5c1.8,3.2,2.8,6.8,3.3,10.5c0.8,5.2,0.2,10.3-1.5,15.3c-1.7,5.1-4.6,9.5-8.6,13.1
		c-4.2,3.8-9.1,6.3-14.7,7.5C120.6,78.3,118.3,78.7,116.7,78.5z M144.4,46c0.1-1.6-0.2-3.7-0.6-5.8c-0.8-4.1-2.5-7.9-5.1-11.2
		c-2.3-2.9-4.9-5.5-8.4-7.3c-3.7-1.9-7.6-3.3-11.7-3.7c-4.7-0.5-9.3,0.4-13.6,2.2c-2.4,1-4.7,2.3-6.8,3.9c-4.7,3.7-7.9,8.4-9.6,14.1
		c-1.5,4.7-1.7,9.6-0.7,14.4c1.1,5.3,3.5,9.9,7.2,13.9c1.8,1.9,3.9,3.5,6.3,4.7c5.2,2.6,10.5,4.2,16.4,3.7c4.3-0.3,8.2-1.5,12-3.5
		c4.5-2.3,7.8-5.7,10.5-9.9C143,57,144.4,52,144.4,46z"/>
	<path class="st5" d="M144.4,46c0,5.9-1.4,11-4.3,15.6c-2.6,4.1-6,7.6-10.5,9.9c-3.8,2-7.7,3.2-12,3.5c-5.9,0.4-11.2-1.1-16.4-3.7
		c-2.4-1.2-4.5-2.8-6.3-4.7c-3.7-3.9-6.1-8.6-7.2-13.9c-1-4.9-0.8-9.7,0.7-14.4c1.8-5.7,5-10.3,9.6-14.1c2.1-1.7,4.4-2.9,6.8-3.9
		c4.3-1.8,8.9-2.7,13.6-2.2c4.1,0.4,8,1.8,11.7,3.7c3.5,1.8,6.1,4.4,8.4,7.3c2.6,3.3,4.3,7.1,5.1,11.2
		C144.1,42.3,144.4,44.4,144.4,46z M129.5,25.5c0-0.3-0.2-0.4-0.4-0.4c-2.2-1.3-4.5-2.4-7.1-2.8c-3.2-0.5-6.3-0.7-9.5-0.3
		c-3.1,0.4-6.1,1.2-8.7,2.8c-2.9,1.7-5.4,3.8-7.5,6.5c-2.5,3.2-4,6.8-4.8,10.7c-0.8,4.4-0.6,8.7,0.9,12.9c1.3,3.8,3.3,7.2,6.3,10
		c3.3,3.1,7,5.5,11.7,6c3.1,0.3,6.1,0.7,9.2,0.3c2.7-0.4,5.3-1,7.7-2.3c2.7-1.5,5.1-3.4,7.2-5.6c2.5-2.8,4.2-6,5.3-9.6
		c0.8-2.8,1-5.7,0.9-8.6c-0.1-3.9-1.2-7.5-3-10.8c-1.5-2.7-3.4-5.1-5.8-7c-0.1-0.4-0.3-0.6-0.7-0.6c-0.1,0-0.1,0-0.2,0
		c-0.2-0.6-0.5-1.1-1.3-1C129.6,25.5,129.5,25.5,129.5,25.5z"/>
	<path class="st6" d="M130.9,26.5c0.1,0,0.1,0,0.2,0c0.1,0.4,0.2,0.6,0.7,0.6c2.4,2,4.3,4.3,5.8,7c1.8,3.4,2.9,6.9,3,10.8
		c0.1,2.9-0.1,5.8-0.9,8.6c-1.1,3.5-2.7,6.8-5.3,9.6c-2.1,2.3-4.5,4.2-7.2,5.6c-2.4,1.3-5,2-7.7,2.3c-3.1,0.4-6.1,0-9.2-0.3
		c-4.8-0.5-8.4-2.9-11.7-6c-3-2.7-5-6.2-6.3-10c-1.5-4.2-1.7-8.6-0.9-12.9c0.7-3.9,2.3-7.5,4.8-10.7c2.1-2.7,4.6-4.9,7.5-6.5
		c2.7-1.6,5.7-2.4,8.7-2.8c3.2-0.4,6.3-0.2,9.5,0.3c2.6,0.4,4.9,1.6,7.1,2.8c0,0.3,0.2,0.4,0.4,0.4c0.1,0,0.1,0,0.2,0
		C130,25.9,130.3,26.5,130.9,26.5z M95.2,40L95.2,40L95.2,40C95,40,95,40.1,95,40.1c-0.4,1.3-0.8,2.7-1,4c-0.1,0.1-0.1,0.1-0.2,0.2
		c-0.2,0-0.3,0-0.5,0c-0.3,0-0.7,0-1,0c-0.1,0-0.3,0-0.4,0c-0.1,0-0.2,0-0.2,0.2l0,0c-0.2,0.1-0.1,0.3-0.1,0.4c-0.1,0.5-0.1,1,0,1.5
		c0.8,0.4,1.6,0,2.4,0.2c0,2.2,0.3,4.4,1,6.5c2.6,8.5,9.7,14.2,18.7,15.1c0.7,0.1,0.9,0.3,0.9,0.9c0,0.3,0,0.7,0,1
		c0,0.3,0.1,0.4,0.4,0.5c1.3,0.4,1.9,0,1.9-1.4c0-0.2,0-0.4,0-0.5c-0.1-0.5,0.2-0.6,0.7-0.7c5.9-0.5,10.8-2.9,14.7-7.4
		c3.1-3.5,4.8-7.6,5.2-12.3c0.1-1.8,0.1-1.8,1.8-1.8c0.7,0,1-0.2,0.9-0.9c-0.1-0.6,0.2-1.4-0.9-1.5c-1.7-0.1-1.7-0.1-2.1-1.9
		c0-0.2-0.1-0.3-0.1-0.5c-1.8-9-9.3-15.9-18.5-17c-1.4-0.2-1.4-0.2-1.4-1.6c0-0.3,0.2-0.8-0.3-1c-1.1-0.5-2,0.1-1.9,1.2
		c0.1,1.1-0.3,1.5-1.4,1.6c-4.1,0.3-7.8,1.8-11,4.4c-1.1,0.7-1.9,1.5-2.7,2.5c-0.1,0.1-0.1,0.1-0.2,0.2l0,0
		c-0.7,0.5-1.1,1.2-1.5,1.8l0,0c-0.6,0.8-1.2,1.6-1.5,2.5c0,0,0,0,0,0c-0.1,0.1-0.1,0.2-0.2,0.2c-0.1,0.2-0.1,0.4-0.2,0.6
		c-0.3,0.3-0.4,0.8-0.6,1.2c0,0.1,0,0.1,0,0.2l0,0c-0.3,0.2-0.3,0.6-0.3,0.9C95.2,39.7,95.2,39.9,95.2,40z"/>
	<path class="st7" d="M103.3,32.3c-0.5-1.1-0.3-1.4,0.6-1.4c4.3,0,8.7,0,13,0c2.7,0.3,5,1.3,6.8,3.5c2.4,2.9,1.7,8.2-1.3,10.2
		c-0.2-0.7-0.6-0.2-0.8-0.1c-0.7,0.2,0.1,0.5,0,0.8c-0.1,0.1-0.3,0.1-0.4,0.2c-0.4-0.8-0.9-0.2-1.4-0.2c0.1,0.4,0.5,0.4,0.6,0.6
		c-0.2,0.1-0.4,0.2-0.7,0.3c3.1,2.6,4.8,6.2,7,9.5c0.8,1.1,1.5,2.2,2.7,3c0.3,0.2,0.6,0.4,0.9,0.4c1,0.1,1.1,0.7,0.8,1.5
		c0,0-0.1,0-0.1,0c0-0.1-0.1-0.1-0.1-0.2c0.1-0.5-0.2-0.6-0.6-0.6c-1.1,0-2.3-0.1-3.4,0c-0.8,0.1-1.2-0.2-1.6-0.8
		c-1.9-2.5-3.4-5.3-5.2-7.9c-0.6-0.9-1.2-1.7-1.9-2.5c-0.1-0.2-0.2-0.3-0.4-0.4c-0.8-1-1.8-1.7-3.1-1.8c-0.1,0-0.1-0.1-0.2-0.1
		c-1-0.1-2-0.1-2.9,0c-0.2,0.7-0.2,0.7,0.3,0.7c0.6,0,1.2,0,1.8,0l0,0.1c-0.1,0.1-0.1,0.1-0.2,0.2c-0.7,0-1.4,0-2.1,0
		c-0.4,0-0.6,0.1-0.6,0.6c0,1.6,0,3.1,0.1,4.7c0,0.4,0,0.8,0,1.3c0,0.3,0,0.7,0,1c0,0.2,0,0.3,0,0.5c0,0.4-0.2,0.8,0.1,1.1
		c0.1,2,0.6,2.7,2.4,3c1,0.2,1,0.6,0.7,1.3c-0.1-0.1-0.1-0.1-0.2-0.2c0.1-0.4,0-0.7-0.5-0.6c-0.7,0-1.5,0-2.2,0
		c-2.4-0.1-4.8,0.2-7.2-0.2c-0.7-0.1-0.6,0.4-0.6,0.8c-0.1,0.1-0.1,0.1-0.2,0.2c-0.3-0.8-0.1-1.3,0.9-1.4c1.2-0.1,1.9-0.8,2.1-2
		c0.1,0.1,0.1,0.1,0.2,0.2c0.2,0.8,0.5,0.5,0.7,0c0.4-0.9,0.5-1.8,0.5-2.7c0-6.5,0-13,0-19.5c0-0.8-0.2-1.7-0.4-2.4
		c-0.2-0.6-0.6-1.2-1.4-1.2c-0.7-0.3-1.4-0.4-2.1-0.4c-0.3,0.3-0.3,0.5,0,0.8C103.4,32.1,103.3,32.2,103.3,32.3z M120.2,42.5
		c0.2-0.2,0.4-0.3,0.4-0.6c0.4-0.5,0.7-1,0.7-1.7c0.1,0,0.2-0.1,0.1-0.2c0-0.2,0-0.4,0.1-0.6c0.2-0.7,0.1-1.4,0-2.1
		c-0.3-2.5-2.1-4.6-4.6-5.2c-0.1,0-0.3-0.1-0.4-0.1c-0.3-0.3-0.6-0.1-0.9-0.1c-0.1,0-0.1-0.1-0.2-0.1c-1.3-0.1-2.7-0.1-4,0
		c-0.1,0-0.2,0-0.1,0.1c0,0.1,0,0.3,0,0.4c1.1,0.3,2.2,0,3.3,0.2c-0.1,0.4-0.4,0.2-0.6,0.2c-0.8,0-1.7,0.1-2.5,0
		c-0.7-0.1-0.9,0.2-0.9,0.9c0,3,0,6,0,9c0,0.9-0.3,2.1,0.1,2.6c0.5,0.6,1.8,0.2,2.7,0.2c2.2,0.1,4.2-0.5,5.7-2.2
		C120.1,43.8,120,42.9,120.2,42.5z"/>
	<path class="st8" d="M106.2,50.4c0-0.7,0-1.4,0-2.1c0-0.4,0-0.8,0-1.3c0-0.1,0-0.3,0-0.4c0-0.4,0-0.8,0-1.3c0-0.4,0-0.8,0-1.3
		c0-0.3,0-0.6,0-0.8c0-2.8,0.1-5.6-0.1-8.4c-0.1-1.2-0.5-2.2-1.8-2.5c0.1,0,0.3,0,0.4,0c0.2,0,0.4,0.1,0.6,0.1
		c1.1,0.9,1.2,2.2,1.2,3.4c0,6.6,0,13.1,0,19.7c0,0.7-0.1,1.3-0.4,1.9c-0.1-0.1-0.1-0.1-0.2-0.2C106.3,54.9,106.2,52.7,106.2,50.4z"
		/>
	<path class="st9" d="M113.7,60.3c0.1,0.1,0.1,0.1,0.2,0.2c-0.1,0.3-0.3,0.2-0.5,0.2c-3.3,0-6.5,0-9.8,0c-0.2,0-0.4,0-0.5-0.2
		c0.1-0.1,0.1-0.1,0.2-0.2C106.8,60.3,110.3,60.3,113.7,60.3z"/>
	<path class="st8" d="M124.4,59.9c0.4,0.4,0.8,0.5,1.3,0.5c1.3,0,2.6,0,3.9,0c0.4,0.3,0.9,0.1,1.3,0.1c0,0,0.1,0,0.1,0
		c-0.1,0.2-0.3,0.2-0.5,0.2c-1.7,0-3.5,0-5.2,0C124.8,60.7,124.3,60.6,124.4,59.9z"/>
	<path class="st9" d="M121.9,56.7c0.6-0.1,0.7,0.3,0.9,0.7c0.3,0.5,0.7,1,1,1.4c-0.1,0.1-0.1,0.3-0.2,0.4
		C122.9,58.5,122.4,57.6,121.9,56.7z"/>
	<path class="st8" d="M118.9,52.1c0.8,0.2,1.8,1.8,1.7,2.6c-0.7-0.7-0.9-1.7-1.7-2.4C119,52.2,119,52.2,118.9,52.1z"/>
	<path class="st8" d="M120.2,45.8c-0.1-0.2-0.5-0.2-0.6-0.6c0.5,0.1,1-0.5,1.4,0.2C120.8,45.6,120.6,45.8,120.2,45.8z"/>
	<path class="st8" d="M121.5,45.2c0.1-0.2-0.6-0.6,0-0.8c0.3-0.1,0.7-0.6,0.8,0.1C122.2,44.9,121.9,45.1,121.5,45.2z"/>
	<path class="st8" d="M123.6,59.2c0.1-0.1,0.1-0.3,0.2-0.4c0.2,0.3,0.6,0.6,0.7,1.1C123.8,60,124,59.3,123.6,59.2z"/>
	<path class="st8" d="M119.2,43.1c0.7-0.2,0.5-0.9,0.7-1.4c0.8-1.8,0.8-3.7,0-5.5c0.1,0,0.3,0,0.4,0c0.4,1,0.5,2.1,0.5,3.2
		c0,0.1,0,0.1,0,0.2c-0.1,0.6-0.2,1.3-0.3,1.9c-0.2,0.3-0.5,0.6-0.2,1C120,42.9,120.1,43.8,119.2,43.1z"/>
	<path class="st8" d="M113.5,46.9c1.1,0.1,2,0.6,2.8,1.4c-0.1,0.1-0.1,0.1-0.2,0.2c-0.8-0.7-1.8-1.1-2.8-1.4
		C113.4,47,113.5,46.9,113.5,46.9z"/>
	<path class="st9" d="M131,60.5c-0.4,0-0.9,0.2-1.3-0.1c0.4,0,0.8-0.1,1.2-0.1C130.9,60.3,131,60.4,131,60.5z"/>
	<path class="st10" d="M114.6,46.2c-0.1,0-0.1-0.1-0.2-0.1C114.5,46.2,114.5,46.2,114.6,46.2z"/>
	<path class="st8" d="M116.5,48.5c0.6,0.5,0.6,0.5,1,1.3c-0.6-0.3-0.8-0.8-1.2-1.1C116.4,48.6,116.5,48.5,116.5,48.5z"/>
	<path class="st8" d="M116.3,48.3c0.1,0.1,0.1,0.1,0.2,0.2c-0.1,0.1-0.1,0.1-0.2,0.2c-0.1-0.1-0.1-0.1-0.2-0.2
		C116.2,48.4,116.3,48.4,116.3,48.3z"/>
	<path class="st9" d="M118.3,34.1c-1-0.4-1.7-1-2.6-1.2C116.3,32.5,117.7,33.1,118.3,34.1z"/>
</g>
<g>
	<path class="st11" d="M0.9,103.2h16.9c1.8,0,3.5,0.3,5,0.8c1.5,0.6,2.9,1.4,4,2.4c1.1,1.1,2,2.4,2.6,4c0.6,1.6,0.9,3.5,0.9,5.6
		c0,1.2-0.2,2.4-0.5,3.5c-0.4,1.2-0.9,2.2-1.5,3.2c-0.7,1-1.4,1.9-2.3,2.7c-0.9,0.8-1.9,1.4-2.9,1.8c0.4,0.2,0.9,0.6,1.4,1
		c0.5,0.4,0.9,1,1.3,1.6c0.4,0.6,0.8,1.3,1.1,2.1c0.3,0.8,0.6,1.6,0.8,2.5l2.3,10.3h3.5l0.1,6h-7.9l-3-14.5
		c-0.6-2.6-1.4-4.5-2.5-5.7c-1.1-1.2-2.7-1.8-4.7-1.8h-5.2v16.6h4.1v5.4H0.9v-5.4h3.9v-36.7H0.9V103.2z M10.1,108.6v15h7.8
		c1,0,2-0.2,2.8-0.5c0.8-0.3,1.6-0.8,2.2-1.4c0.6-0.6,1.1-1.4,1.4-2.3c0.3-0.9,0.5-2,0.5-3.2c0-2.4-0.6-4.2-1.8-5.5
		c-1.2-1.3-3.1-2-5.8-2H10.1z"/>
	<path class="st11" d="M55.3,147.7c-1.1,1.2-2.2,2.1-3.5,2.8c-1.3,0.7-2.7,1.1-4.4,1.1c-1.4,0-2.6-0.3-3.7-0.8
		c-1.1-0.5-2.1-1.2-2.9-2.1c-0.8-0.9-1.5-1.9-1.9-3c-0.5-1.1-0.7-2.4-0.7-3.7c0-1.4,0.2-2.6,0.5-3.7c0.3-1.1,0.8-2,1.4-2.8
		c0.6-0.8,1.3-1.4,2-2c0.8-0.5,1.6-1,2.4-1.3c0.8-0.3,1.7-0.6,2.6-0.7c0.9-0.1,1.7-0.2,2.5-0.2c1.3,0,2.4,0,3.2,0.1
		c0.9,0.1,1.7,0.2,2.4,0.4l0-2.7c0-1.1-0.1-2.1-0.4-3c-0.3-0.8-0.7-1.5-1.2-2.1c-0.5-0.6-1.1-1-1.9-1.2c-0.7-0.3-1.5-0.4-2.4-0.4
		c-0.8,0-1.6,0.1-2.4,0.2c-0.8,0.1-1.5,0.3-2.2,0.5c-0.7,0.2-1.3,0.5-1.9,0.8s-1,0.6-1.4,0.9l-1.6-4c0.7-0.5,1.4-1,2.2-1.4
		c0.8-0.4,1.6-0.8,2.5-1.1c0.9-0.3,1.8-0.5,2.7-0.7c0.9-0.2,1.8-0.3,2.7-0.3c1.6,0,3.1,0.2,4.3,0.7c1.3,0.4,2.4,1.1,3.3,2.1
		c0.9,0.9,1.6,2.1,2.1,3.6c0.5,1.5,0.7,3.2,0.7,5.2l0,16.2h3.1v5.4h-8.1V147.7z M48.5,146.8c0.7,0,1.3-0.1,2-0.3
		c0.7-0.2,1.3-0.4,1.9-0.8c0.6-0.3,1.1-0.7,1.6-1.1c0.5-0.4,0.9-0.9,1.3-1.3l0-7.3h-5.8c-1,0-1.8,0.1-2.6,0.4
		c-0.8,0.3-1.5,0.6-2.1,1.1c-0.6,0.5-1,1.1-1.4,1.8c-0.3,0.7-0.5,1.5-0.5,2.4c0,0.9,0.1,1.6,0.4,2.2c0.3,0.6,0.6,1.2,1.1,1.6
		c0.5,0.4,1.1,0.8,1.8,1C46.9,146.6,47.7,146.8,48.5,146.8z"/>
	<path class="st11" d="M68.7,118.2h9.1v27.1H82v5.4H68.8v-5.4h4v-21.7h-4V118.2z M71.8,106.7c0-0.5,0.1-1.1,0.3-1.6
		c0.2-0.5,0.4-0.9,0.8-1.3c0.3-0.4,0.7-0.7,1.1-0.9c0.4-0.2,0.9-0.3,1.4-0.3c0.5,0,0.9,0.1,1.3,0.3c0.4,0.2,0.8,0.5,1.1,0.9
		c0.3,0.4,0.6,0.8,0.8,1.3c0.2,0.5,0.3,1,0.3,1.6c0,0.6-0.1,1.1-0.3,1.6s-0.4,0.9-0.8,1.3c-0.3,0.4-0.7,0.7-1.1,0.9
		c-0.4,0.2-0.9,0.3-1.3,0.3c-0.5,0-0.9-0.1-1.4-0.3c-0.4-0.2-0.8-0.5-1.1-0.9c-0.3-0.4-0.6-0.8-0.8-1.3S71.8,107.3,71.8,106.7z"/>
	<path class="st11" d="M104.9,145.3h3.9v-14.8c0-2.5-0.5-4.4-1.6-5.7c-1.1-1.3-2.6-1.9-4.7-1.9c-1.2,0-2.3,0.3-3.5,1
		c-1.2,0.6-2.3,1.5-3.4,2.4v19h3.9v5.4h-13v-5.4h3.9v-21.7h-3.9v-5.4h8.9v3.8h0.1c0.6-0.6,1.2-1.2,1.9-1.7c0.7-0.5,1.4-1,2.1-1.4
		c0.7-0.4,1.5-0.7,2.3-0.9c0.8-0.2,1.6-0.3,2.5-0.3c1.5,0,2.8,0.2,4,0.7c1.2,0.5,2.2,1.2,3.1,2.2c0.8,1,1.5,2.2,1.9,3.8
		c0.5,1.5,0.7,3.4,0.7,5.4v15.6h3.9v5.4h-13V145.3z"/>
	<path class="st11" d="M122.1,101.9h9v19c1.2-1.1,2.5-1.9,3.9-2.5c1.4-0.6,2.8-0.9,4.3-0.9c1.8,0,3.5,0.4,5,1.2
		c1.5,0.8,2.8,1.9,3.9,3.4c1.1,1.4,2,3.2,2.6,5.2c0.6,2,0.9,4.2,0.9,6.7c0,2.6-0.3,5-1,7.1c-0.7,2.1-1.6,3.9-2.8,5.5
		c-1.2,1.5-2.6,2.7-4.3,3.5c-1.7,0.8-3.5,1.2-5.5,1.2c-1.4,0-2.7-0.2-3.9-0.7c-1.2-0.5-2.2-1.1-3.1-1.8v2h-5v-43.4h-4V101.9z
		 M138,122.6c-1.3,0-2.6,0.3-3.8,0.9c-1.2,0.6-2.2,1.5-3.1,2.5v17.5c0.6,0.7,1.4,1.3,2.5,1.8c1.1,0.5,2.5,0.8,4.2,0.8
		c1.1,0,2.2-0.3,3.3-0.8c1.1-0.5,2-1.3,2.8-2.3c0.8-1,1.4-2.3,1.9-3.8s0.7-3.3,0.7-5.3c0-1.8-0.2-3.5-0.7-4.9
		c-0.5-1.4-1.1-2.6-1.9-3.6c-0.8-1-1.7-1.7-2.7-2.2C140.3,122.9,139.1,122.6,138,122.6z"/>
	<path class="st11" d="M156.5,134.5c0-2.6,0.4-4.9,1.1-7c0.7-2.1,1.6-3.9,2.9-5.4c1.2-1.5,2.7-2.7,4.4-3.5c1.7-0.8,3.6-1.2,5.6-1.2
		c2.1,0,3.9,0.4,5.6,1.2c1.7,0.8,3.2,2,4.4,3.5c1.2,1.5,2.2,3.3,2.8,5.4c0.7,2.1,1,4.5,1,7c0,2.5-0.3,4.9-1,7
		c-0.7,2.1-1.6,3.9-2.8,5.5c-1.2,1.5-2.7,2.7-4.4,3.6c-1.7,0.8-3.6,1.3-5.6,1.3c-2.1,0-4-0.4-5.7-1.3c-1.7-0.8-3.2-2-4.4-3.5
		c-1.2-1.5-2.2-3.3-2.8-5.4C156.8,139.4,156.5,137,156.5,134.5z M161.8,134.5c0,1.9,0.2,3.5,0.7,5s1.1,2.8,1.9,3.8
		c0.8,1.1,1.7,1.9,2.8,2.4c1,0.6,2.2,0.9,3.3,0.9c1.2,0,2.4-0.3,3.4-0.8c1.1-0.6,2-1.4,2.8-2.4c0.8-1.1,1.4-2.3,1.9-3.8
		c0.4-1.5,0.7-3.2,0.7-5.1c0-2-0.2-3.7-0.7-5.2c-0.4-1.5-1.1-2.8-1.8-3.8c-0.8-1-1.7-1.8-2.8-2.3c-1.1-0.5-2.2-0.8-3.5-0.8
		c-1.2,0-2.3,0.3-3.3,0.8c-1,0.5-2,1.3-2.8,2.3c-0.8,1-1.4,2.3-1.9,3.8C162,130.8,161.8,132.5,161.8,134.5z"/>
	<path class="st11" d="M187.6,118.2h8.8v5.4h-1.3l4.9,20.7l6.7-26.1h4.2l6.4,26.1l5.1-20.7h-1.6v-5.4h8.8v5.4H227l-7.6,27.6h-4.6
		l-6.3-25.9l-6.3,25.9h-4.7l-7.6-27.6h-2.4V118.2z"/>
</g>
</svg>
