<?xml version="1.0" encoding="utf-8"?>
<!-- Roman Inozemtsev: https://github.com/mir-one/  -->
<svg version="1.1"
	 id="Слой_1" text-rendering="geometricPrecision" shape-rendering="geometricPrecision" image-rendering="optimizeQuality"
	 xmlns="http://www.w3.org/2000/svg" xmlns:xlink="http://www.w3.org/1999/xlink" x="0px" y="0px" viewBox="0 0 234 155.1"
	 style="enable-background:new 0 0 234 155.1;" xml:space="preserve">
<style type="text/css">
	.st0{fill:#404041;}
	.st1{fill:#E92225;}
	.st2{fill:#F38021;}
	.st3{fill:#F1E71B;}
	.st4{fill:#33B24C;}
	.st5{fill:#3F6BB1;}
	.st6{fill:#6B4D9F;}
	.st7{fill:#AB4397;}
	.st8{fill:#F6F7F7;}
	.st9{fill:#D0CFCF;}
	.st10{fill:#C5C6C5;}
	.st11{fill:#242628;}
	.st12{fill:#EC1E27;}
	.st13{fill:#F8DD00;}
	.st14{fill:#33AF4A;}
</style>
<g>
	<circle class="st0" cx="115.7" cy="46.6" r="32.8"/>
	<path class="st1" d="M100.1,91.7c-4.6-1.6-8.5-4.2-12.2-7.2c-3.6-2.9-6.8-6.2-9.4-10c-2.7-3.9-4.7-8.1-6.1-12.7
		c-1.9-6.1-2.5-12.3-2-18.7c0.4-5.5,1.8-10.7,4.1-15.7c2.5-5.5,5.9-10.4,10.3-14.6c2.5-2.4,5.2-4.4,8.1-6.2c2-1.2,4.1-2.1,6.1-3.2
		c1.1-0.6,2.4-0.8,3.5-1.2c0.6-0.2,1.2-0.4,1.9-0.6c1.3-0.1,2.5-0.3,3.7-0.9c0.1,0,0.3,0,0.4,0c0.5-0.1,1.1-0.1,1.5-0.4c0,0,0,0,0,0
		c0.8,0,1.6,0.2,2.4-0.2c0,0,0,0,0,0c1.2-0.1,2.5,0.2,3.7-0.2c0.9-0.1,1.7,0.1,2.6-0.2c1.3,0.5,2.7,0.3,4.1,0.4
		c1.3,0.2,2.7,0.5,4,0.6c1.4,0.1,2.7,0.5,4,0.9c0.9,0.3,1.7,0.9,2.6,0.8c0.8,0,1.4,0.5,2.1,0.8c1.9,0.7,3.7,1.6,5.5,2.6
		c1.6,0.9,3.1,1.9,4.6,2.9c1.4,0.9,2.6,2.2,4,3.2c1.4,1.1,2.7,2.5,3.9,3.9c1.6,2,3.3,3.9,4.6,6.1c2.2,3.9,4.2,8,5.3,12.4
		c0.5,2.2,1,4.3,1.4,6.5c0.1,0.7-0.3,1.5,0.2,2.2c0,3.1,0,6.2,0,9.3c-0.4,0.8-0.2,1.7-0.3,2.6c-0.7,5.7-2.5,11.1-5.6,16
		c-2,3.3-4.3,6.4-7,9.3c-2.6,2.7-5.4,5.2-8.6,7.1c-2.6,1.6-5.4,3-8.3,4.1c-1.7,0.6-3.5,1.3-5.3,1.8c-2.3,0.6-4.6,0.9-6.9,1.3
		c-4.1,0.7-8.2,0.4-12.3,0c-2.5-0.3-4.9-0.8-7.3-1.7c-0.2-0.2-0.4-0.2-0.7-0.2c0,0,0,0,0,0c-0.3-0.4-0.8-0.5-1.3-0.4c0,0,0,0,0,0
		C101,91.7,100.6,91.7,100.1,91.7z M73.9,47.3C73.4,71.6,94,91,116.6,91.1c25.1,0.1,44.6-19.3,44.8-43.2c0.2-26-20.5-43.9-43-44.4
		C93.5,3,73.7,23.1,73.9,47.3z"/>
	<path class="st2" d="M73.9,47.3C73.7,23.1,93.5,3,118.5,3.5c22.5,0.5,43.2,18.4,43,44.4c-0.2,23.9-19.7,43.3-44.8,43.2
		C94,91,73.4,71.6,73.9,47.3z M77.6,47.6c-0.3,22.7,19.1,40.1,40.2,39.8c22.1-0.3,39.6-17.4,39.9-39.6c0.3-24.1-19.4-40.6-40.2-40.5
		C95,7.3,77.7,25,77.6,47.6z"/>
	<path class="st3" d="M77.6,47.6C77.7,25,95,7.3,117.6,7.2c20.8-0.1,40.5,16.4,40.2,40.5c-0.3,22.3-17.8,39.3-39.9,39.6
		C96.7,87.7,77.2,70.2,77.6,47.6z M117.6,83.8c19.8,0.1,36.7-15.8,36.5-37.4c-0.3-20.6-17.6-35.5-36.2-35.5
		c-21.4,0-36.5,16.5-36.8,36.7C80.9,68.2,98.3,83.9,117.6,83.8z"/>
	<path class="st4" d="M117.6,83.8c-19.4,0.2-36.7-15.6-36.5-36.2c0.3-20.2,15.4-36.8,36.8-36.7c18.5,0,35.9,14.9,36.2,35.5
		C154.4,68,137.5,83.8,117.6,83.8z M118.6,80.1c1.7,0.1,4-0.3,6.2-0.7c5.7-1.2,10.7-3.8,15-7.7c4.1-3.7,7-8.2,8.8-13.4
		c1.7-5.1,2.3-10.3,1.5-15.7c-0.5-3.8-1.5-7.4-3.4-10.7c-2.1-3.7-4.5-7.2-8.2-9.7c-3.5-2.4-6.9-4.7-11-6c-2.7-0.9-5.5-1.4-8.4-1.5
		c-4.9-0.1-9.6,0.8-14.2,2.6c-4.7,1.8-8.7,4.5-11.9,8.4c-2.2,2.6-4,5.4-5.4,8.4c-1.6,3.7-2.5,7.5-2.8,11.5c-0.2,2.8,0,5.6,0.5,8.3
		c1.5,7.6,4.9,14.1,11.1,18.9C102.8,77.6,109.9,80.2,118.6,80.1z"/>
	<path class="st5" d="M118.6,80.1c-8.7,0-15.7-2.5-22-7.4c-6.2-4.8-9.6-11.3-11.1-18.9c-0.5-2.8-0.7-5.5-0.5-8.3
		c0.2-4,1.1-7.8,2.8-11.5c1.4-3.1,3.2-5.8,5.4-8.4c3.2-3.9,7.2-6.6,11.9-8.4c4.6-1.8,9.3-2.8,14.2-2.6c2.9,0.1,5.7,0.6,8.4,1.5
		c4.1,1.3,7.5,3.6,11,6c3.7,2.6,6.1,6,8.2,9.7c1.8,3.3,2.8,7,3.4,10.7c0.8,5.4,0.2,10.6-1.5,15.7c-1.8,5.3-4.7,9.8-8.8,13.4
		c-4.3,3.9-9.3,6.5-15,7.7C122.5,79.9,120.2,80.3,118.6,80.1z M146.9,46.9c0.1-1.7-0.2-3.8-0.7-5.9c-0.8-4.2-2.6-8.1-5.2-11.5
		c-2.4-3-5.1-5.6-8.6-7.5c-3.8-2-7.8-3.4-12-3.8c-4.8-0.5-9.5,0.4-14,2.3c-2.5,1-4.8,2.3-7,4c-4.8,3.8-8,8.6-9.9,14.4
		c-1.5,4.8-1.7,9.8-0.7,14.8c1.1,5.4,3.6,10.2,7.4,14.2c1.9,2,4,3.6,6.4,4.8c5.3,2.7,10.8,4.3,16.8,3.8c4.4-0.3,8.4-1.6,12.3-3.6
		c4.6-2.4,8-5.9,10.7-10.1C145.5,58.1,146.9,52.9,146.9,46.9z"/>
	<path class="st6" d="M146.9,46.9c0,6.1-1.4,11.3-4.4,15.9c-2.7,4.2-6.1,7.8-10.7,10.1c-3.9,2-7.9,3.3-12.3,3.6
		c-6,0.4-11.5-1.1-16.8-3.8c-2.5-1.3-4.6-2.8-6.4-4.8c-3.8-4-6.2-8.8-7.4-14.2c-1-5-0.8-9.9,0.7-14.8c1.8-5.8,5.1-10.6,9.9-14.4
		c2.1-1.7,4.5-3,7-4c4.5-1.9,9.2-2.8,14-2.3c4.2,0.4,8.2,1.8,12,3.8c3.5,1.8,6.3,4.5,8.6,7.5c2.6,3.4,4.4,7.2,5.2,11.5
		C146.6,43,147,45.2,146.9,46.9z M131.7,25.8c0-0.3-0.2-0.4-0.5-0.4c-2.3-1.3-4.6-2.5-7.3-2.9c-3.3-0.5-6.5-0.8-9.7-0.3
		c-3.2,0.4-6.2,1.2-9,2.8c-3,1.7-5.6,3.9-7.7,6.7c-2.5,3.3-4.1,6.9-4.9,11c-0.8,4.5-0.6,8.9,0.9,13.2c1.4,3.9,3.4,7.4,6.5,10.2
		c3.4,3.1,7.1,5.6,12,6.1c3.2,0.3,6.3,0.8,9.5,0.3c2.8-0.4,5.5-1.1,7.9-2.4c2.8-1.5,5.2-3.4,7.4-5.8c2.6-2.9,4.3-6.2,5.4-9.8
		c0.9-2.8,1-5.8,0.9-8.8c-0.1-4-1.2-7.6-3.1-11.1c-1.5-2.8-3.5-5.2-5.9-7.2c-0.1-0.4-0.3-0.6-0.7-0.6c-0.1,0-0.1,0-0.2,0
		c-0.2-0.7-0.6-1.1-1.3-1C131.8,25.8,131.7,25.8,131.7,25.8z"/>
	<path class="st7" d="M133.1,26.9c0.1,0,0.1,0,0.2,0c0.1,0.4,0.2,0.6,0.7,0.6c2.4,2,4.4,4.4,5.9,7.2c1.8,3.4,3,7.1,3.1,11.1
		c0.1,3-0.1,5.9-0.9,8.8c-1.1,3.6-2.8,7-5.4,9.8c-2.1,2.4-4.6,4.3-7.4,5.8c-2.4,1.3-5.1,2-7.9,2.4c-3.2,0.4-6.3,0-9.5-0.3
		c-4.9-0.5-8.6-3-12-6.1c-3.1-2.8-5.1-6.3-6.5-10.2c-1.5-4.4-1.8-8.8-0.9-13.2c0.7-4,2.4-7.7,4.9-11c2.1-2.8,4.7-5,7.7-6.7
		c2.7-1.6,5.8-2.4,9-2.8c3.3-0.4,6.5-0.2,9.7,0.3c2.7,0.4,5,1.6,7.3,2.9c0,0.3,0.2,0.4,0.5,0.4c0.1,0,0.1,0,0.2,0
		C132.2,26.3,132.5,26.8,133.1,26.9z M96.5,40.6L96.5,40.6L96.5,40.6c-0.1,0.1-0.1,0.1-0.1,0.2c-0.4,1.4-0.8,2.7-1,4.1
		c-0.1,0.1-0.1,0.1-0.2,0.2c-0.2,0-0.3,0-0.5,0c-0.3,0-0.7,0-1,0c-0.2,0-0.3,0-0.5,0c-0.1,0-0.2,0-0.3,0.2l0,0
		c-0.2,0.1-0.1,0.3-0.1,0.4c-0.1,0.5-0.1,1,0,1.5c0.8,0.4,1.7,0,2.5,0.2c0,2.3,0.4,4.5,1,6.6c2.7,8.7,10,14.6,19.1,15.4
		c0.7,0.1,1,0.3,0.9,1c0,0.4,0,0.7,0,1.1c0,0.3,0.1,0.4,0.4,0.5c1.4,0.4,2,0,2-1.4c0-0.2,0-0.4,0-0.5c-0.1-0.5,0.2-0.7,0.7-0.7
		c6-0.5,11.1-2.9,15.1-7.6c3.1-3.6,5-7.8,5.3-12.6c0.1-1.8,0.1-1.9,1.9-1.9c0.7,0,1-0.2,1-0.9c-0.1-0.6,0.2-1.4-0.9-1.5
		c-1.8-0.1-1.8-0.1-2.2-1.9c0-0.2-0.1-0.3-0.1-0.5c-1.9-9.3-9.5-16.3-18.9-17.4c-1.5-0.2-1.4-0.2-1.5-1.7c0-0.4,0.2-0.8-0.3-1
		c-1.1-0.5-2.1,0.1-2,1.2c0.1,1.1-0.3,1.5-1.4,1.6c-4.2,0.4-8,1.8-11.2,4.5c-1.1,0.7-2,1.6-2.8,2.6c-0.1,0.1-0.1,0.1-0.2,0.2l0,0
		c-0.7,0.5-1.1,1.2-1.5,1.9l0,0c-0.6,0.8-1.2,1.6-1.5,2.6c0,0,0,0,0,0c-0.1,0.1-0.1,0.2-0.2,0.2c-0.1,0.2-0.1,0.4-0.2,0.6
		c-0.3,0.3-0.4,0.8-0.6,1.2c0,0.1,0,0.1,0,0.2l0,0c-0.3,0.2-0.3,0.6-0.3,1C96.6,40.4,96.5,40.5,96.5,40.6z"/>
	<path class="st8" d="M104.8,32.8c-0.5-1.1-0.4-1.4,0.6-1.4c4.4,0,8.9,0,13.3,0c2.8,0.3,5.1,1.4,7,3.6c2.5,2.9,1.8,8.4-1.4,10.4
		c-0.2-0.8-0.6-0.2-0.9-0.1c-0.7,0.2,0.1,0.5-0.1,0.8c-0.2,0.1-0.3,0.1-0.5,0.2c-0.4-0.8-0.9-0.2-1.4-0.2c0.1,0.4,0.5,0.4,0.6,0.7
		c-0.2,0.1-0.4,0.2-0.7,0.3c3.2,2.7,4.9,6.4,7.2,9.7c0.8,1.1,1.6,2.3,2.8,3.1c0.3,0.2,0.6,0.4,1,0.5c1,0.1,1.1,0.7,0.9,1.5
		c0,0-0.1,0-0.1,0c0-0.1-0.1-0.1-0.1-0.2c0.1-0.5-0.2-0.7-0.6-0.6c-1.2,0-2.4-0.1-3.5,0c-0.8,0.1-1.2-0.2-1.7-0.8
		c-1.9-2.6-3.5-5.4-5.3-8c-0.6-0.9-1.2-1.8-1.9-2.6c-0.1-0.2-0.2-0.4-0.4-0.4c-0.8-1-1.8-1.7-3.2-1.9c-0.1,0-0.1-0.1-0.2-0.1
		c-1-0.1-2-0.1-3,0c-0.2,0.7-0.2,0.7,0.3,0.7c0.6,0,1.2,0,1.8,0l0,0.1c-0.1,0.1-0.1,0.1-0.2,0.2c-0.7,0-1.4,0-2.1,0
		c-0.4,0-0.7,0.1-0.6,0.6c0,1.6,0,3.2,0.1,4.8c0,0.4,0,0.9,0,1.3c0,0.3,0,0.7,0,1c0,0.2,0,0.3,0,0.5c0,0.4-0.2,0.8,0.1,1.1
		c0.1,2,0.6,2.8,2.5,3.1c1,0.2,1,0.6,0.7,1.3c-0.1-0.1-0.1-0.1-0.2-0.2c0.1-0.4,0-0.7-0.5-0.6c-0.7,0-1.5,0-2.2,0
		c-2.4-0.1-4.9,0.2-7.3-0.2c-0.7-0.1-0.6,0.4-0.6,0.8c-0.1,0.1-0.1,0.1-0.2,0.2c-0.3-0.8-0.1-1.3,0.9-1.4c1.2-0.1,1.9-0.8,2.1-2
		c0.1,0.1,0.1,0.1,0.2,0.2c0.2,0.8,0.5,0.5,0.7,0c0.4-0.9,0.6-1.8,0.6-2.8c0-6.6,0-13.3,0-19.9c0-0.9-0.2-1.7-0.5-2.5
		c-0.2-0.7-0.6-1.2-1.4-1.2c-0.7-0.3-1.4-0.4-2.2-0.4c-0.4,0.3-0.3,0.6,0,0.8C104.9,32.6,104.9,32.7,104.8,32.8z M122.2,43.2
		c0.2-0.2,0.4-0.3,0.4-0.6c0.4-0.5,0.7-1,0.7-1.7c0.1,0,0.2-0.1,0.1-0.2c0-0.2,0-0.4,0.1-0.7c0.2-0.7,0.1-1.4,0-2.2
		c-0.3-2.6-2.1-4.7-4.7-5.3c-0.1,0-0.3-0.1-0.4-0.1c-0.3-0.3-0.6-0.1-0.9-0.1c-0.1,0-0.1-0.1-0.2-0.1c-1.4-0.1-2.7-0.1-4.1,0
		c-0.1,0-0.2,0-0.1,0.2c0,0.1,0,0.3,0,0.4c1.1,0.3,2.2,0,3.3,0.2c-0.1,0.4-0.4,0.2-0.6,0.2c-0.9,0-1.7,0.1-2.6,0
		c-0.7-0.1-0.9,0.2-0.9,0.9c0,3.1,0,6.1,0,9.2c0,0.9-0.3,2.1,0.1,2.7c0.5,0.7,1.8,0.2,2.8,0.2c2.3,0.1,4.3-0.5,5.8-2.3
		C122,44.6,122,43.6,122.2,43.2z"/>
	<path class="st9" d="M107.8,51.4c0-0.7,0-1.4,0-2.1c0-0.4,0-0.9,0-1.3c0-0.1,0-0.3,0-0.4c0-0.4,0-0.9,0-1.3c0-0.4,0-0.9,0-1.3
		c0-0.3,0-0.6,0-0.9c0-2.9,0.1-5.7-0.1-8.6c-0.1-1.2-0.5-2.2-1.8-2.6c0.1,0,0.3,0,0.4,0c0.2,0,0.4,0.1,0.6,0.1
		c1.1,0.9,1.2,2.2,1.2,3.4c0,6.7,0,13.4,0,20.1c0,0.7-0.1,1.3-0.4,1.9c-0.1-0.1-0.1-0.1-0.2-0.2C107.9,56,107.8,53.7,107.8,51.4z"/>
	<path class="st10" d="M115.5,61.4c0.1,0.1,0.1,0.1,0.2,0.2c-0.1,0.3-0.3,0.2-0.5,0.2c-3.3,0-6.7,0-10,0c-0.2,0-0.4,0-0.5-0.2
		c0.1-0.1,0.1-0.1,0.2-0.2C108.4,61.4,112,61.4,115.5,61.4z"/>
	<path class="st9" d="M126.5,61c0.4,0.4,0.8,0.5,1.4,0.5c1.3,0,2.7,0,4,0c0.4,0.3,0.9,0.1,1.4,0.1c0,0,0.1,0,0.1,0
		c-0.1,0.2-0.3,0.2-0.5,0.2c-1.8,0-3.6,0-5.4,0C126.8,61.9,126.4,61.7,126.5,61z"/>
	<path class="st10" d="M123.9,57.8c0.6-0.2,0.7,0.4,0.9,0.7c0.3,0.5,0.7,1,1,1.5c-0.1,0.1-0.1,0.3-0.2,0.4
		C124.9,59.6,124.4,58.7,123.9,57.8z"/>
	<path class="st9" d="M120.9,53.1c0.8,0.3,1.8,1.9,1.8,2.7c-0.7-0.7-0.9-1.8-1.7-2.4C120.9,53.2,120.9,53.1,120.9,53.1z"/>
	<path class="st9" d="M122.2,46.6c-0.1-0.2-0.5-0.2-0.6-0.7c0.5,0.1,1-0.5,1.4,0.2C122.8,46.4,122.5,46.6,122.2,46.6z"/>
	<path class="st9" d="M123.5,46c0.1-0.3-0.6-0.6,0.1-0.8c0.3-0.1,0.7-0.6,0.9,0.1C124.2,45.7,123.9,45.9,123.5,46z"/>
	<path class="st9" d="M125.6,60.4c0.1-0.1,0.1-0.3,0.2-0.4c0.2,0.4,0.6,0.6,0.7,1.1C125.9,61.2,126,60.4,125.6,60.4z"/>
	<path class="st9" d="M121.1,43.8c0.7-0.2,0.5-0.9,0.7-1.4c0.8-1.9,0.8-3.8,0-5.7c0.1,0,0.3,0,0.4,0c0.4,1,0.5,2.1,0.5,3.2
		c0,0.1,0,0.1,0,0.2c-0.1,0.6-0.2,1.3-0.3,1.9c-0.2,0.3-0.5,0.6-0.2,1C122,43.6,122,44.6,121.1,43.8z"/>
	<path class="st9" d="M115.3,47.7c1.1,0.1,2.1,0.6,2.9,1.4c-0.1,0.1-0.1,0.1-0.2,0.2c-0.8-0.8-1.9-1.1-2.9-1.5
		C115.2,47.9,115.3,47.8,115.3,47.7z"/>
	<path class="st10" d="M133.2,61.6c-0.5,0-0.9,0.2-1.4-0.1c0.4,0,0.8-0.1,1.3-0.1C133.2,61.5,133.2,61.6,133.2,61.6z"/>
	<path class="st11" d="M116.4,47.1c-0.1,0-0.1-0.1-0.2-0.1C116.3,47,116.3,47,116.4,47.1z"/>
	<path class="st9" d="M118.4,49.4c0.6,0.5,0.6,0.5,1,1.3c-0.6-0.3-0.8-0.8-1.2-1.1C118.3,49.5,118.3,49.4,118.4,49.4z"/>
	<path class="st9" d="M118.2,49.2c0.1,0.1,0.1,0.1,0.2,0.2c-0.1,0.1-0.1,0.1-0.2,0.2c-0.1-0.1-0.1-0.1-0.2-0.2
		C118.1,49.3,118.1,49.2,118.2,49.2z"/>
	<path class="st10" d="M120.2,34.6c-1-0.4-1.7-1-2.7-1.2C118.2,33,119.6,33.6,120.2,34.6z"/>
</g>
<g>
	<path class="st12" d="M0,105.4h17.3c1.9,0,3.6,0.3,5.1,0.9c1.6,0.6,2.9,1.4,4.1,2.5c1.1,1.1,2,2.5,2.7,4.1c0.6,1.6,1,3.5,1,5.7
		c0,1.2-0.2,2.4-0.6,3.6c-0.4,1.2-0.9,2.3-1.6,3.3c-0.7,1-1.5,1.9-2.4,2.7c-0.9,0.8-1.9,1.4-3,1.8c0.5,0.2,0.9,0.6,1.4,1
		c0.5,0.4,0.9,1,1.3,1.6c0.4,0.6,0.8,1.3,1.1,2.2c0.3,0.8,0.6,1.7,0.8,2.6l2.3,10.6h3.6l0.1,6.1h-8.1l-3.1-14.8
		c-0.6-2.7-1.4-4.6-2.6-5.9c-1.2-1.3-2.8-1.9-4.8-1.9H9.3v17h4.2v5.5H0v-5.5h4V111H0V105.4z M9.3,111v15.3h8c1,0,2-0.2,2.9-0.5
		c0.9-0.3,1.6-0.8,2.3-1.4c0.6-0.6,1.1-1.4,1.5-2.4c0.4-1,0.5-2.1,0.5-3.3c0-2.4-0.6-4.3-1.9-5.7c-1.2-1.3-3.2-2-5.9-2H9.3z"/>
	<path class="st12" d="M55.6,151c-1.1,1.2-2.3,2.1-3.6,2.9c-1.3,0.7-2.8,1.1-4.5,1.1c-1.4,0-2.7-0.3-3.8-0.8c-1.2-0.5-2.2-1.2-3-2.1
		c-0.8-0.9-1.5-1.9-2-3.1c-0.5-1.2-0.7-2.4-0.7-3.8c0-1.4,0.2-2.7,0.5-3.8s0.8-2,1.4-2.8c0.6-0.8,1.3-1.5,2.1-2
		c0.8-0.5,1.6-1,2.5-1.3c0.9-0.3,1.8-0.6,2.7-0.7c0.9-0.1,1.8-0.2,2.6-0.2c1.3,0,2.4,0,3.3,0.1c0.9,0.1,1.7,0.2,2.4,0.4l0-2.7
		c0-1.2-0.1-2.2-0.4-3.1c-0.3-0.9-0.7-1.6-1.2-2.2c-0.5-0.6-1.2-1-1.9-1.3c-0.7-0.3-1.6-0.4-2.5-0.4c-0.9,0-1.7,0.1-2.5,0.2
		c-0.8,0.1-1.5,0.3-2.2,0.5s-1.3,0.5-1.9,0.8c-0.6,0.3-1.1,0.6-1.5,0.9l-1.7-4.1c0.7-0.5,1.4-1,2.2-1.4c0.8-0.4,1.7-0.8,2.5-1.1
		c0.9-0.3,1.8-0.6,2.7-0.7c0.9-0.2,1.8-0.3,2.7-0.3c1.6,0,3.1,0.2,4.5,0.7c1.3,0.5,2.4,1.2,3.4,2.1c0.9,1,1.6,2.2,2.1,3.7
		c0.5,1.5,0.7,3.3,0.7,5.3l0,16.6h3.2v5.5h-8.3V151z M48.7,150c0.7,0,1.4-0.1,2-0.3c0.7-0.2,1.3-0.5,1.9-0.8
		c0.6-0.3,1.2-0.7,1.7-1.2c0.5-0.4,0.9-0.9,1.3-1.4l0-7.5h-5.9c-1,0-1.9,0.1-2.7,0.4c-0.8,0.3-1.5,0.6-2.1,1.1
		c-0.6,0.5-1.1,1.1-1.4,1.8c-0.3,0.7-0.5,1.6-0.5,2.5c0,0.9,0.1,1.6,0.4,2.3c0.3,0.7,0.7,1.2,1.2,1.6c0.5,0.4,1.1,0.8,1.8,1
		C47.1,149.9,47.9,150,48.7,150z"/>
	<path class="st13" d="M69.4,120.8h9.3v27.8H83v5.5H69.5v-5.5h4.1v-22.2h-4.1V120.8z M72.6,109c0-0.6,0.1-1.1,0.3-1.6
		c0.2-0.5,0.4-0.9,0.8-1.3c0.3-0.4,0.7-0.7,1.1-0.9c0.4-0.2,0.9-0.3,1.4-0.3c0.5,0,0.9,0.1,1.4,0.3c0.4,0.2,0.8,0.5,1.1,0.9
		c0.3,0.4,0.6,0.8,0.8,1.3c0.2,0.5,0.3,1,0.3,1.6c0,0.6-0.1,1.1-0.3,1.6c-0.2,0.5-0.4,1-0.8,1.4c-0.3,0.4-0.7,0.7-1.1,0.9
		c-0.4,0.2-0.9,0.3-1.4,0.3c-0.5,0-1-0.1-1.4-0.3c-0.4-0.2-0.8-0.5-1.1-0.9c-0.3-0.4-0.6-0.9-0.8-1.4
		C72.7,110.2,72.6,109.6,72.6,109z"/>
	<path class="st13" d="M106.5,148.6h4v-15.2c0-2.5-0.6-4.5-1.7-5.8c-1.1-1.3-2.7-2-4.8-2c-1.2,0-2.4,0.3-3.6,1
		c-1.2,0.7-2.4,1.5-3.4,2.5v19.5h4v5.5H87.7v-5.5h4v-22.2h-4v-5.5h9.1v3.9h0.1c0.6-0.6,1.3-1.2,1.9-1.8c0.7-0.6,1.4-1,2.2-1.4
		c0.8-0.4,1.5-0.7,2.3-1c0.8-0.2,1.7-0.4,2.6-0.4c1.5,0,2.9,0.2,4.1,0.7c1.2,0.5,2.3,1.2,3.1,2.2c0.9,1,1.5,2.3,2,3.9
		c0.5,1.6,0.7,3.4,0.7,5.6v15.9h4v5.5h-13.3V148.6z"/>
	<path class="st14" d="M124.1,104.1h9.2v19.5c1.2-1.1,2.5-2,4-2.6c1.4-0.6,2.9-1,4.4-1c1.9,0,3.6,0.4,5.1,1.2c1.6,0.8,2.9,2,4,3.4
		c1.1,1.5,2,3.3,2.6,5.3c0.6,2.1,0.9,4.4,0.9,6.9c0,2.7-0.3,5.1-1,7.3c-0.7,2.2-1.7,4-2.9,5.6c-1.2,1.6-2.7,2.8-4.4,3.6
		c-1.7,0.8-3.6,1.3-5.6,1.3c-1.4,0-2.7-0.2-4-0.7c-1.2-0.5-2.3-1.1-3.2-1.9v2.1h-5.1v-44.5h-4.1V104.1z M140.3,125.3
		c-1.3,0-2.6,0.3-3.8,1c-1.2,0.6-2.3,1.5-3.2,2.6v17.9c0.6,0.7,1.4,1.3,2.6,1.9c1.1,0.5,2.6,0.8,4.3,0.8c1.2,0,2.3-0.3,3.4-0.8
		c1.1-0.5,2-1.3,2.9-2.3c0.8-1,1.5-2.3,2-3.9c0.5-1.5,0.7-3.3,0.7-5.4c0-1.9-0.2-3.6-0.7-5c-0.5-1.5-1.1-2.7-1.9-3.7
		c-0.8-1-1.7-1.8-2.8-2.3C142.7,125.6,141.6,125.3,140.3,125.3z"/>
	<path class="st14" d="M159.3,137.5c0-2.6,0.4-5,1.1-7.2c0.7-2.2,1.7-4,3-5.6c1.3-1.6,2.8-2.7,4.5-3.6c1.7-0.8,3.7-1.3,5.7-1.3
		c2.1,0,4,0.4,5.8,1.3c1.7,0.8,3.2,2,4.5,3.5c1.2,1.5,2.2,3.4,2.9,5.5c0.7,2.2,1,4.6,1,7.2c0,2.6-0.3,5-1,7.1
		c-0.7,2.2-1.7,4-2.9,5.6c-1.2,1.6-2.7,2.8-4.5,3.6c-1.7,0.9-3.7,1.3-5.8,1.3c-2.1,0-4.1-0.4-5.8-1.3c-1.7-0.9-3.2-2.1-4.5-3.6
		c-1.2-1.6-2.2-3.4-2.9-5.6C159.7,142.5,159.3,140.1,159.3,137.5z M164.7,137.5c0,1.9,0.2,3.6,0.7,5.2s1.1,2.9,1.9,3.9
		c0.8,1.1,1.8,1.9,2.8,2.5c1.1,0.6,2.2,0.9,3.4,0.9c1.3,0,2.4-0.3,3.5-0.9c1.1-0.6,2-1.4,2.8-2.5c0.8-1.1,1.4-2.4,1.9-3.9
		c0.5-1.5,0.7-3.3,0.7-5.2c0-2-0.2-3.8-0.7-5.4c-0.5-1.6-1.1-2.9-1.9-3.9c-0.8-1-1.7-1.8-2.8-2.4c-1.1-0.5-2.3-0.8-3.5-0.8
		c-1.2,0-2.3,0.3-3.4,0.8c-1.1,0.5-2,1.3-2.8,2.4c-0.8,1-1.5,2.4-1.9,3.9C165,133.7,164.7,135.5,164.7,137.5z"/>
	<path class="st14" d="M191.2,120.8h9v5.5h-1.3l5,21.2l6.8-26.8h4.3l6.5,26.7l5.2-21.2H225v-5.5h9v5.5h-2.4l-7.8,28.3H219l-6.5-26.6
		l-6.4,26.6h-4.8l-7.7-28.3h-2.4V120.8z"/>
</g>
</svg>
