<?xml version="1.0" encoding="utf-8"?>
<!-- Roman Inozemtsev: https://github.com/mir-one/  -->
<svg version="1.1" id="Слой_1" xmlns="http://www.w3.org/2000/svg" xmlns:xlink="http://www.w3.org/1999/xlink" x="0px" y="0px"
	 viewBox="0 0 64.5 64.5" style="enable-background:new 0 0 64.5 64.5;" xml:space="preserve">
<style type="text/css">
	.st0{fill:#FFFFFF;}
	.st1{fill:#404041;}
	.st2{fill:#E92225;}
	.st3{fill:#F38021;}
	.st4{fill:#F1E71B;}
	.st5{fill:#33B24C;}
	.st6{fill:#3F6BB1;}
	.st7{fill:#6B4D9F;}
	.st8{fill:#AB4397;}
	.st9{fill:#F6F7F7;}
	.st10{fill:#D0CFCF;}
	.st11{fill:#C5C6C5;}
	.st12{fill:#242628;}
</style>
<path class="st0" d="M32.3,2.5C15.8,2.5,2.5,15.8,2.5,32.2C2.5,48.7,15.8,62,32.3,62c0.3,0,0.6,0,1,0c15-0.5,27.2-12,28.7-26.7
	c0.1-1,0.2-2,0.2-3C62,15.8,48.7,2.5,32.3,2.5z M52,52c-5.7,5.7-13.2,8.4-20.6,8.1c-6.8-0.2-13.6-2.9-18.9-8.1
	c-10.9-10.9-10.9-28.6,0-39.5C23.4,1.6,41.1,1.6,52,12.5c5.8,5.8,8.5,13.5,8.1,21C59.8,40.2,57.1,46.9,52,52z"/>
<path class="st1" d="M32.3,0C14.4,0,0,14.4,0,32.3s14.4,32.3,32.3,32.3c1.1,0,2.2-0.1,3.3-0.2C50.1,62.9,61.7,51.7,64,37.4
	c0.3-1.7,0.5-3.4,0.5-5.2C64.5,14.4,50.1,0,32.3,0z M33.2,62c-0.3,0-0.6,0-1,0C15.8,62,2.5,48.7,2.5,32.3
	c0-16.5,13.3-29.8,29.8-29.8C48.7,2.5,62,15.8,62,32.3c0,1-0.1,2-0.2,3C60.4,50,48.2,61.5,33.2,62z"/>
<path class="st2" d="M52,12.5c-10.9-10.9-28.6-10.9-39.5,0C1.6,23.4,1.6,41.1,12.5,52c5.2,5.2,12,7.9,18.9,8.1
	c7.4,0.2,15-2.5,20.6-8.1c5.1-5.1,7.8-11.8,8.1-18.5C60.5,26,57.8,18.3,52,12.5z"/>
<g>
	<circle class="st1" cx="31" cy="31.9" r="19.2"/>
	<path class="st2" d="M21.9,58.3c-2.7-0.9-5-2.5-7.2-4.2c-2.1-1.7-4-3.6-5.5-5.9c-1.6-2.3-2.8-4.8-3.6-7.4
		c-1.1-3.6-1.5-7.2-1.2-10.9c0.3-3.2,1.1-6.3,2.4-9.2c1.5-3.2,3.5-6.1,6-8.6c1.4-1.4,3-2.6,4.7-3.6c1.2-0.7,2.4-1.2,3.6-1.9
		c0.6-0.3,1.4-0.5,2.1-0.7c0.4-0.1,0.7-0.2,1.1-0.4c0.7-0.1,1.5-0.2,2.2-0.5c0.1,0,0.2,0,0.2,0c0.3,0,0.6,0,0.9-0.2c0,0,0,0,0,0
		c0.5,0,0.9,0.1,1.4-0.1c0,0,0,0,0,0c0.7-0.1,1.4,0.1,2.2-0.1c0.5,0,1,0.1,1.5-0.1c0.8,0.3,1.6,0.2,2.4,0.2c0.8,0.1,1.6,0.3,2.4,0.4
		C38.3,5,39,5.2,39.8,5.5c0.5,0.2,1,0.5,1.6,0.5c0.4,0,0.8,0.3,1.2,0.5c1.1,0.4,2.2,1,3.2,1.5c0.9,0.5,1.8,1.1,2.7,1.7
		c0.8,0.5,1.5,1.3,2.3,1.9c0.8,0.7,1.6,1.5,2.3,2.3c0.9,1.2,2,2.3,2.7,3.6c1.3,2.3,2.4,4.7,3.1,7.3c0.3,1.3,0.6,2.5,0.8,3.8
		c0.1,0.4-0.2,0.9,0.1,1.3c0,1.8,0,3.6,0,5.5c-0.2,0.5-0.1,1-0.2,1.5c-0.4,3.4-1.5,6.5-3.3,9.4c-1.2,1.9-2.5,3.8-4.1,5.4
		c-1.5,1.6-3.2,3.1-5,4.2c-1.5,0.9-3.2,1.8-4.9,2.4c-1,0.4-2,0.7-3.1,1c-1.3,0.4-2.7,0.5-4.1,0.8c-2.4,0.4-4.8,0.3-7.2,0
		c-1.4-0.1-2.9-0.5-4.3-1c-0.1-0.1-0.2-0.1-0.4-0.1c0,0,0,0,0,0c-0.2-0.3-0.5-0.3-0.8-0.3c0,0,0,0,0,0
		C22.4,58.3,22.2,58.3,21.9,58.3z M6.5,32.3C6.2,46.5,18.3,57.9,31.6,58C46.3,58,57.7,46.6,57.8,32.6c0.1-15.3-12-25.7-25.2-26
		C18,6.3,6.4,18.1,6.5,32.3z"/>
	<path class="st3" d="M6.5,32.3C6.4,18.1,18,6.3,32.7,6.6c13.2,0.3,25.3,10.8,25.2,26C57.7,46.6,46.3,58,31.6,58
		C18.3,57.9,6.2,46.5,6.5,32.3z M8.7,32.4C8.5,45.7,19.9,56,32.3,55.8c13-0.2,23.2-10.2,23.4-23.2C55.9,18.4,44.3,8.7,32.1,8.8
		C18.9,8.8,8.8,19.2,8.7,32.4z"/>
	<path class="st4" d="M8.7,32.4C8.8,19.2,18.9,8.8,32.1,8.8c12.2-0.1,23.7,9.6,23.6,23.8c-0.2,13.1-10.4,23.1-23.4,23.2
		C19.9,56,8.5,45.7,8.7,32.4z M32.2,53.7c11.6,0,21.5-9.3,21.4-21.9c-0.1-12.1-10.3-20.8-21.2-20.8c-12.6,0-21.4,9.7-21.6,21.5
		C10.6,44.5,20.8,53.8,32.2,53.7z"/>
	<path class="st5" d="M32.2,53.7c-11.4,0.1-21.5-9.1-21.4-21.2c0.2-11.8,9-21.6,21.6-21.5c10.9,0,21.1,8.8,21.2,20.8
		C53.7,44.4,43.8,53.7,32.2,53.7z M32.7,51.5c1,0.1,2.3-0.2,3.7-0.4c3.3-0.7,6.3-2.3,8.8-4.5c2.4-2.2,4.1-4.8,5.1-7.9
		c1-3,1.3-6.1,0.9-9.2c-0.3-2.2-0.9-4.3-2-6.3C48,21,46.6,19,44.4,17.5c-2-1.4-4.1-2.8-6.4-3.5c-1.6-0.5-3.2-0.8-4.9-0.9
		c-2.9-0.1-5.6,0.5-8.3,1.5c-2.8,1.1-5.1,2.7-7,4.9c-1.3,1.5-2.3,3.1-3.2,4.9c-1,2.1-1.5,4.4-1.6,6.7c-0.1,1.6,0,3.3,0.3,4.9
		c0.9,4.5,2.9,8.3,6.5,11.1C23.5,50,27.6,51.6,32.7,51.5z"/>
	<path class="st6" d="M32.7,51.5c-5.1,0-9.2-1.5-12.9-4.4c-3.7-2.8-5.6-6.6-6.5-11.1c-0.3-1.6-0.4-3.2-0.3-4.9
		c0.1-2.3,0.7-4.6,1.6-6.7c0.8-1.8,1.9-3.4,3.2-4.9c1.9-2.3,4.2-3.9,7-4.9c2.7-1.1,5.4-1.6,8.3-1.5c1.7,0.1,3.3,0.3,4.9,0.9
		c2.4,0.8,4.4,2.1,6.4,3.5c2.2,1.5,3.6,3.5,4.8,5.7c1.1,1.9,1.7,4.1,2,6.3c0.5,3.1,0.1,6.2-0.9,9.2c-1,3.1-2.8,5.7-5.1,7.9
		c-2.5,2.3-5.5,3.8-8.8,4.5C35,51.4,33.7,51.6,32.7,51.5z M49.3,32c0-1-0.1-2.2-0.4-3.5c-0.5-2.5-1.5-4.8-3-6.7
		c-1.4-1.8-3-3.3-5-4.4c-2.2-1.2-4.6-2-7-2.2c-2.8-0.3-5.6,0.2-8.2,1.3c-1.4,0.6-2.8,1.4-4.1,2.4c-2.8,2.2-4.7,5.1-5.8,8.4
		c-0.9,2.8-1,5.7-0.4,8.6c0.7,3.2,2.1,6,4.3,8.3c1.1,1.2,2.3,2.1,3.8,2.8c3.1,1.6,6.3,2.5,9.8,2.2c2.6-0.2,4.9-0.9,7.2-2.1
		c2.7-1.4,4.7-3.5,6.3-5.9C48.5,38.6,49.3,35.6,49.3,32z"/>
	<path class="st7" d="M49.3,32c0,3.6-0.8,6.6-2.6,9.3c-1.6,2.5-3.6,4.5-6.3,5.9c-2.3,1.2-4.6,1.9-7.2,2.1c-3.5,0.3-6.7-0.7-9.8-2.2
		c-1.5-0.7-2.7-1.7-3.8-2.8C17.4,42,16,39.2,15.3,36c-0.6-2.9-0.5-5.8,0.4-8.6c1.1-3.4,3-6.2,5.8-8.4c1.3-1,2.6-1.7,4.1-2.4
		c2.6-1.1,5.4-1.6,8.2-1.3c2.5,0.2,4.8,1.1,7,2.2c2.1,1.1,3.7,2.6,5,4.4c1.5,2,2.6,4.2,3,6.7C49.2,29.8,49.4,31,49.3,32z M40.4,19.7
		c0-0.2-0.1-0.2-0.3-0.2c-1.3-0.8-2.7-1.4-4.3-1.7c-1.9-0.3-3.8-0.4-5.7-0.2c-1.9,0.2-3.6,0.7-5.3,1.7c-1.7,1-3.3,2.3-4.5,3.9
		c-1.5,1.9-2.4,4.1-2.9,6.4c-0.5,2.6-0.3,5.2,0.6,7.8c0.8,2.3,2,4.3,3.8,6c2,1.8,4.2,3.3,7,3.6c1.9,0.2,3.7,0.4,5.5,0.2
		c1.6-0.2,3.2-0.6,4.6-1.4c1.6-0.9,3.1-2,4.3-3.4c1.5-1.7,2.5-3.6,3.2-5.8c0.5-1.7,0.6-3.4,0.5-5.1c-0.1-2.3-0.7-4.5-1.8-6.5
		c-0.9-1.6-2.1-3-3.5-4.2c0-0.2-0.2-0.4-0.4-0.4c0,0-0.1,0-0.1,0c-0.1-0.4-0.3-0.6-0.8-0.6C40.5,19.7,40.4,19.7,40.4,19.7z"/>
	<path class="st8" d="M41.3,20.3c0,0,0.1,0,0.1,0c0,0.2,0.1,0.4,0.4,0.4c1.4,1.2,2.6,2.6,3.5,4.2c1.1,2,1.8,4.2,1.8,6.5
		c0,1.7,0,3.5-0.5,5.1c-0.6,2.1-1.6,4.1-3.2,5.8c-1.3,1.4-2.7,2.5-4.3,3.4c-1.4,0.8-3,1.2-4.6,1.4c-1.9,0.2-3.7,0-5.5-0.2
		c-2.9-0.3-5-1.7-7-3.6c-1.8-1.6-3-3.7-3.8-6c-0.9-2.6-1-5.1-0.6-7.8c0.4-2.4,1.4-4.5,2.9-6.4c1.2-1.6,2.8-2.9,4.5-3.9
		c1.6-0.9,3.4-1.4,5.3-1.7c1.9-0.3,3.8-0.1,5.7,0.2c1.6,0.3,2.9,0.9,4.3,1.7c0,0.2,0.1,0.2,0.3,0.2c0,0,0.1,0,0.1,0
		C40.7,19.9,40.9,20.3,41.3,20.3z M19.8,28.4L19.8,28.4L19.8,28.4c-0.1,0.1-0.1,0.1-0.1,0.1c-0.2,0.8-0.5,1.6-0.6,2.4
		c0,0-0.1,0.1-0.1,0.1c-0.1,0-0.2,0-0.3,0c-0.2,0-0.4,0-0.6,0c-0.1,0-0.2,0-0.3,0c-0.1,0-0.1,0-0.1,0.1l0,0
		c-0.1,0.1-0.1,0.2-0.1,0.3c0,0.3-0.1,0.6,0,0.9c0.5,0.3,1,0,1.4,0.1c0,1.3,0.2,2.6,0.6,3.9c1.6,5.1,5.8,8.5,11.2,9.1
		c0.4,0,0.6,0.2,0.5,0.6c0,0.2,0,0.4,0,0.6c0,0.2,0.1,0.3,0.2,0.3c0.8,0.2,1.1,0,1.2-0.8c0-0.1,0-0.2,0-0.3c0-0.3,0.1-0.4,0.4-0.4
		c3.5-0.3,6.5-1.7,8.8-4.4c1.8-2.1,2.9-4.6,3.1-7.4c0.1-1.1,0-1.1,1.1-1.1c0.4,0,0.6-0.1,0.6-0.5c0-0.4,0.1-0.8-0.5-0.9
		c-1-0.1-1-0.1-1.3-1.1c0-0.1-0.1-0.2-0.1-0.3c-1.1-5.4-5.6-9.6-11.1-10.2c-0.9-0.1-0.8-0.1-0.9-1c0-0.2,0.1-0.5-0.2-0.6
		c-0.6-0.3-1.2,0-1.2,0.7c0,0.7-0.2,0.9-0.8,0.9c-2.5,0.2-4.7,1.1-6.6,2.6c-0.6,0.4-1.2,0.9-1.6,1.5c0,0-0.1,0.1-0.1,0.1l0,0
		c-0.4,0.3-0.6,0.7-0.9,1.1l0,0c-0.4,0.5-0.7,0.9-0.9,1.5c0,0,0,0,0,0c0,0-0.1,0.1-0.1,0.1c0,0.1-0.1,0.2-0.1,0.3
		c-0.2,0.2-0.2,0.5-0.4,0.7c0,0,0,0.1,0,0.1l0,0c-0.2,0.1-0.2,0.4-0.2,0.6C19.8,28.2,19.8,28.3,19.8,28.4z"/>
	<path class="st9" d="M24.6,23.8c-0.3-0.6-0.2-0.8,0.4-0.8c2.6,0,5.2,0,7.8,0c1.6,0.2,3,0.8,4.1,2.1c1.4,1.7,1,4.9-0.8,6.1
		c-0.1-0.4-0.3-0.1-0.5-0.1c-0.4,0.1,0,0.3,0,0.5c-0.1,0-0.2,0.1-0.3,0.1c-0.2-0.5-0.6-0.1-0.8-0.1c0,0.3,0.3,0.2,0.4,0.4
		c-0.1,0.1-0.2,0.1-0.4,0.2c1.9,1.6,2.9,3.8,4.2,5.7c0.5,0.7,0.9,1.4,1.6,1.8c0.2,0.1,0.4,0.2,0.6,0.3c0.6,0.1,0.7,0.4,0.5,0.9
		c0,0,0,0,0,0c0,0,0-0.1-0.1-0.1c0.1-0.3-0.1-0.4-0.4-0.4c-0.7,0-1.4,0-2.1,0c-0.5,0-0.7-0.1-1-0.5c-1.1-1.5-2.1-3.2-3.1-4.7
		c-0.3-0.5-0.7-1-1.1-1.5c0-0.1-0.1-0.2-0.2-0.3c-0.5-0.6-1.1-1-1.9-1.1c0,0-0.1-0.1-0.1-0.1c-0.6-0.1-1.2,0-1.8,0
		c-0.1,0.4-0.1,0.4,0.2,0.4c0.4,0,0.7,0,1.1,0l0,0c0,0-0.1,0.1-0.1,0.1c-0.4,0-0.8,0-1.3,0c-0.2,0-0.4,0-0.4,0.3c0,0.9,0,1.9,0,2.8
		c0,0.3,0,0.5,0,0.8c0,0.2,0,0.4,0,0.6c0,0.1,0,0.2,0,0.3c0,0.2-0.1,0.5,0.1,0.7c0.1,1.2,0.4,1.6,1.5,1.8c0.6,0.1,0.6,0.3,0.4,0.8
		c0,0-0.1-0.1-0.1-0.1c0-0.2,0-0.4-0.3-0.4c-0.4,0-0.9,0-1.3,0c-1.4-0.1-2.9,0.1-4.3-0.1c-0.4-0.1-0.4,0.2-0.3,0.5
		c0,0-0.1,0.1-0.1,0.1c-0.2-0.5-0.1-0.8,0.5-0.8c0.7-0.1,1.1-0.5,1.2-1.2c0,0,0.1,0.1,0.1,0.1c0.1,0.5,0.3,0.3,0.4,0
		c0.2-0.5,0.3-1.1,0.3-1.6c0-3.9,0-7.8,0-11.7c0-0.5-0.1-1-0.3-1.5c-0.1-0.4-0.4-0.7-0.8-0.7c-0.4-0.2-0.8-0.2-1.3-0.2
		c-0.2,0.2-0.2,0.3,0,0.5C24.7,23.7,24.7,23.7,24.6,23.8z M34.8,29.9c0.1-0.1,0.2-0.2,0.2-0.4c0.2-0.3,0.4-0.6,0.4-1
		c0.1,0,0.1,0,0.1-0.1c0-0.1,0-0.3,0-0.4c0.1-0.4,0.1-0.8,0-1.3c-0.2-1.5-1.2-2.7-2.8-3.1c-0.1,0-0.2,0-0.2,0
		c-0.2-0.2-0.3-0.1-0.5-0.1c0,0-0.1-0.1-0.1-0.1c-0.8-0.1-1.6,0-2.4,0c-0.1,0-0.1,0-0.1,0.1c0,0.1,0,0.2,0,0.3c0.6,0.2,1.3,0,2,0.1
		c0,0.2-0.2,0.1-0.3,0.1c-0.5,0-1,0-1.5,0c-0.4,0-0.5,0.1-0.5,0.5c0,1.8,0,3.6,0,5.4c0,0.5-0.2,1.3,0.1,1.6c0.3,0.4,1.1,0.1,1.6,0.1
		c1.3,0,2.5-0.3,3.4-1.3C34.7,30.7,34.7,30.1,34.8,29.9z"/>
	<path class="st10" d="M26.4,34.7c0-0.4,0-0.8,0-1.3c0-0.3,0-0.5,0-0.8c0-0.1,0-0.2,0-0.3c0-0.3,0-0.5,0-0.8c0-0.3,0-0.5,0-0.8
		c0-0.2,0-0.3,0-0.5c0-1.7,0.1-3.3,0-5c-0.1-0.7-0.3-1.3-1.1-1.5c0.1,0,0.2,0,0.3,0c0.1,0,0.2,0,0.4,0.1c0.6,0.5,0.7,1.3,0.7,2
		c0,3.9,0,7.9,0,11.8c0,0.4-0.1,0.8-0.2,1.1c0,0-0.1-0.1-0.1-0.1C26.5,37.3,26.4,36,26.4,34.7z"/>
	<path class="st11" d="M30.9,40.6c0,0,0.1,0.1,0.1,0.1c0,0.2-0.2,0.1-0.3,0.1c-2,0-3.9,0-5.9,0c-0.1,0-0.3,0-0.3-0.1
		c0,0,0.1-0.1,0.1-0.1C26.7,40.6,28.8,40.6,30.9,40.6z"/>
	<path class="st10" d="M37.3,40.3c0.2,0.2,0.5,0.3,0.8,0.3c0.8,0,1.6,0,2.3,0c0.3,0.2,0.5,0.1,0.8,0.1c0,0,0,0,0,0
		c-0.1,0.1-0.2,0.1-0.3,0.1c-1,0-2.1,0-3.1,0C37.6,40.8,37.3,40.7,37.3,40.3z"/>
	<path class="st11" d="M35.8,38.4c0.3-0.1,0.4,0.2,0.5,0.4c0.2,0.3,0.4,0.6,0.6,0.9c0,0.1-0.1,0.2-0.1,0.2
		C36.4,39.5,36.1,38.9,35.8,38.4z"/>
	<path class="st10" d="M34.1,35.7c0.5,0.1,1.1,1.1,1,1.6c-0.4-0.4-0.6-1-1-1.4C34.1,35.7,34.1,35.7,34.1,35.7z"/>
	<path class="st10" d="M34.8,31.9c-0.1-0.1-0.3-0.1-0.4-0.4c0.3,0,0.6-0.3,0.8,0.1C35.2,31.8,35,31.8,34.8,31.9z"/>
	<path class="st10" d="M35.6,31.5c0.1-0.1-0.4-0.3,0-0.5c0.2,0,0.4-0.4,0.5,0.1C36,31.3,35.8,31.4,35.6,31.5z"/>
	<path class="st10" d="M36.9,39.9c0-0.1,0.1-0.2,0.1-0.2c0.1,0.2,0.4,0.4,0.4,0.6C37,40.4,37.1,40,36.9,39.9z"/>
	<path class="st10" d="M34.2,30.2c0.4-0.1,0.3-0.5,0.4-0.8c0.5-1.1,0.5-2.2,0-3.3c0.1,0,0.2,0,0.3,0c0.2,0.6,0.3,1.3,0.3,1.9
		c0,0,0,0.1,0,0.1c-0.1,0.4-0.1,0.8-0.2,1.1c-0.1,0.2-0.3,0.4-0.1,0.6C34.7,30.1,34.7,30.7,34.2,30.2z"/>
	<path class="st10" d="M30.8,32.5c0.7,0.1,1.2,0.3,1.7,0.8c0,0-0.1,0.1-0.1,0.1c-0.5-0.4-1.1-0.6-1.7-0.9
		C30.7,32.6,30.8,32.6,30.8,32.5z"/>
	<path class="st11" d="M41.3,40.7c-0.3,0-0.5,0.1-0.8-0.1c0.2,0,0.5,0,0.7-0.1C41.3,40.6,41.3,40.6,41.3,40.7z"/>
	<path class="st12" d="M31.4,32.1c0,0-0.1-0.1-0.1-0.1C31.4,32.1,31.4,32.1,31.4,32.1z"/>
	<path class="st10" d="M32.6,33.5c0.4,0.3,0.4,0.3,0.6,0.8c-0.4-0.2-0.5-0.5-0.7-0.7C32.5,33.6,32.6,33.5,32.6,33.5z"/>
	<path class="st10" d="M32.5,33.4c0,0,0.1,0.1,0.1,0.1c0,0-0.1,0.1-0.1,0.1c0,0-0.1-0.1-0.1-0.1C32.4,33.4,32.5,33.4,32.5,33.4z"/>
	<path class="st11" d="M33.7,24.8c-0.6-0.2-1-0.6-1.6-0.7C32.5,23.9,33.3,24.3,33.7,24.8z"/>
</g>
</svg>
