<?xml version="1.0" encoding="utf-8"?>
<!-- Roman Inozemtsev: https://github.com/mir-one/  -->
<svg version="1.1" id="Слой_1" xmlns="http://www.w3.org/2000/svg" xmlns:xlink="http://www.w3.org/1999/xlink" x="0px" y="0px"
	 viewBox="0 0 64.5 64.5" style="enable-background:new 0 0 64.5 64.5;" xml:space="preserve">
<style type="text/css">
	.st0{fill:#404041;}
	.st1{fill:none;}
	.st2{fill:#1A1A1A;}
	.st3{fill:#333333;}
	.st4{fill:#808184;}
	.st5{fill:#71C8F0;}
	.st6{fill:#EE3B24;}
	.st7{fill:#FDCD08;}
	.st8{fill:#FFFFFF;}
</style>
<g>
	<path class="st0" d="M52,12.5c-10.9-10.9-28.6-10.9-39.5,0C1.6,23.4,1.6,41.1,12.5,52c5.2,5.2,12,7.9,18.9,8.1
		c7.4,0.2,15-2.5,20.6-8.1c5.1-5.1,7.8-11.8,8.1-18.5C60.5,26,57.8,18.3,52,12.5z"/>
	<path class="st1" d="M62,32.2C62,15.8,48.7,2.5,32.3,2.5C15.8,2.5,2.5,15.8,2.5,32.2C2.5,48.7,15.8,62,32.3,62c0.3,0,0.6,0,1,0
		c2.7-0.1,5.4-0.6,7.9-1.3L13.9,33.5l10.8-10.2l7.5,7.5l1.6-1.6l-6.8-6.7l7.2-7.8l26.5,26.5c0.6-1.9,1-3.9,1.2-5.9
		C62,34.3,62,33.3,62,32.2z"/>
	<path class="st2" d="M33.2,62c-0.3,0-0.6,0-1,0C15.8,62,2.5,48.7,2.5,32.2c0-16.5,13.3-29.8,29.8-29.8C48.7,2.5,62,15.8,62,32.2
		c0,1-0.1,2-0.2,3c-0.2,2-0.6,4-1.2,5.9l1.9,1.9c0.6-1.8,1.2-3.7,1.5-5.7c0.3-1.7,0.5-3.4,0.5-5.2C64.5,14.4,50.1,0,32.3,0
		S0,14.4,0,32.2s14.4,32.3,32.3,32.3c1.1,0,2.2-0.1,3.3-0.2c2.6-0.3,5.1-0.9,7.5-1.7l-2-2C38.6,61.4,35.9,61.9,33.2,62z"/>
	<path class="st3" d="M26.9,22.5l6.8,6.7l-1.6,1.6l-7.5-7.5L13.9,33.5l27.2,27.2c9.3-2.9,16.7-10.2,19.6-19.5L34.1,14.7L26.9,22.5z"
		/>
	<path class="st3" d="M62.6,43.1l-1.9-1.9c-2.9,9.3-10.3,16.6-19.6,19.5l2,2C52.1,59.4,59.3,52.2,62.6,43.1z"/>
	<g>
		<path class="st4" d="M33.4,14.5c0.4,0.1,0.8,0.3,1.1,0.5c0.1,0.1,0.2,0.2,0.3,0.3c0.7,0.7,1.4,1.4,2.1,2.1
			c0.8,0.8,1.6,1.6,2.4,2.4c0.2,0.2,0.4,0.4,0.5,0.6c0.4,0.7,0.3,1.4-0.1,2c-0.3,0.4-0.7,0.7-1,1.1c-0.6,0.6-1.2,1.2-1.8,1.8
			c-0.7,0.7-1.4,1.4-2.1,2.1c-0.3,0.3-0.7,0.6-1.1,0.7c-0.3,0.1-0.7,0.1-1-0.1c-0.3-0.2-0.6-0.4-0.9-0.7c-1.5-1.5-3-3-4.6-4.6
			c-0.4-0.4-0.7-0.9-0.7-1.5c0-0.4,0.2-0.8,0.5-1.1c0.3-0.4,0.7-0.7,1.1-1.1c1.1-1.1,2.3-2.3,3.4-3.4c0.5-0.5,0.9-0.9,1.6-1
			C33.1,14.5,33.3,14.5,33.4,14.5z"/>
		<path class="st4" d="M33.3,52.1c-0.7,0-1.2-0.3-1.6-0.8c-2.6-2.6-5.1-5.1-7.7-7.7c-1.3-1.3-2.7-2.6-4-4c-0.2-0.2-0.4-0.4-0.6-0.6
			c-0.5-0.5-0.5-1.1-0.4-1.7c0.1-0.4,0.3-0.7,0.5-0.9c2.7-2.7,5.4-5.4,8.1-8.1c0.3-0.3,0.6-0.6,0.9-0.9c0.1-0.1,0.1-0.1,0.2,0
			c0.5,0.5,1,1,1.5,1.5c0.4,0.4,0.7,0.9,0.6,1.5c0,0.5-0.3,1-0.7,1.4c-1.3,1.3-2.6,2.6-3.8,3.8c-0.3,0.3-0.4,0.7-0.3,1.1
			c0.1,0.4,0.4,0.6,0.8,0.7c0.4,0.1,0.7-0.1,1-0.3c0.4-0.4,0.9-0.9,1.3-1.3c1.4-1.4,2.9-2.9,4.3-4.3c1.9-1.9,3.9-3.8,5.8-5.8
			c0.5-0.5,1-1,1.6-1.5c0.5-0.4,1.1-0.6,1.7-0.4c0.4,0.1,0.7,0.3,0.9,0.6c2.6,2.6,5.2,5.2,7.8,7.7c0.2,0.2,0.3,0.3,0.4,0.5
			c0.4,0.6,0.4,1.2,0,1.8c-0.1,0.2-0.3,0.4-0.5,0.6c-2.3,2.3-4.6,4.6-6.9,6.8c-0.7,0.7-1.5,1.5-2.2,2.2c-2,2-4.1,4.1-6.1,6.1
			c-0.5,0.5-1.1,1.1-1.7,1.6C34.2,51.9,33.8,52.1,33.3,52.1z"/>
		<path class="st4" d="M26.3,25.5c0,0.8-0.2,1.3-0.6,1.7c-2.1,2.1-4.1,4.1-6.2,6.2c-0.5,0.5-1,1-1.4,1.4c-0.8,0.7-2,0.7-2.8,0
			c-1-0.9-1-2.2-0.1-3.1c2-2,4.1-4.1,6.1-6.1c0.5-0.5,0.9-1,1.4-1.4c0.7-0.6,1.5-0.8,2.3-0.4C25.8,24.2,26.2,24.8,26.3,25.5z"/>
	</g>
	<g>
		<path class="st5" d="M32.4,13.4c0.4,0.1,0.8,0.3,1.1,0.5c0.1,0.1,0.2,0.2,0.3,0.3c0.7,0.7,1.4,1.4,2.1,2.1
			c0.8,0.8,1.6,1.6,2.4,2.4c0.2,0.2,0.4,0.4,0.5,0.6c0.4,0.7,0.3,1.4-0.1,2c-0.3,0.4-0.7,0.7-1,1.1c-0.6,0.6-1.2,1.2-1.8,1.8
			c-0.7,0.7-1.4,1.4-2.1,2.1c-0.3,0.3-0.7,0.6-1.1,0.7c-0.3,0.1-0.7,0.1-1-0.1c-0.3-0.2-0.6-0.4-0.9-0.7c-1.5-1.5-3-3-4.6-4.6
			c-0.4-0.4-0.7-0.9-0.7-1.5c0-0.4,0.2-0.8,0.5-1.1c0.3-0.4,0.7-0.7,1.1-1.1c1.1-1.1,2.3-2.3,3.4-3.4c0.5-0.5,0.9-0.9,1.6-1
			C32.1,13.4,32.2,13.4,32.4,13.4z"/>
		<path class="st6" d="M32.3,51c-0.7,0-1.2-0.3-1.6-0.8c-2.6-2.6-5.1-5.1-7.7-7.7c-1.3-1.3-2.7-2.6-4-4c-0.2-0.2-0.4-0.4-0.6-0.6
			c-0.5-0.5-0.5-1.1-0.4-1.7c0.1-0.4,0.3-0.7,0.5-0.9c2.7-2.7,5.4-5.4,8.1-8.1c0.3-0.3,0.6-0.6,0.9-0.9c0.1-0.1,0.1-0.1,0.2,0
			c0.5,0.5,1,1,1.5,1.5c0.4,0.4,0.7,0.9,0.6,1.5c0,0.5-0.3,1-0.7,1.4c-1.3,1.3-2.6,2.6-3.8,3.8c-0.3,0.3-0.4,0.7-0.3,1.1
			c0.1,0.4,0.4,0.6,0.8,0.7c0.4,0.1,0.7-0.1,1-0.3c0.4-0.4,0.9-0.9,1.3-1.3c1.4-1.4,2.9-2.9,4.3-4.3c1.9-1.9,3.9-3.8,5.8-5.8
			c0.5-0.5,1-1,1.6-1.5c0.5-0.4,1.1-0.6,1.7-0.4c0.4,0.1,0.7,0.3,0.9,0.6c2.6,2.6,5.2,5.2,7.8,7.7c0.2,0.2,0.3,0.3,0.4,0.5
			c0.4,0.6,0.4,1.2,0,1.8c-0.1,0.2-0.3,0.4-0.5,0.6c-2.3,2.3-4.6,4.6-6.9,6.8c-0.7,0.7-1.5,1.5-2.2,2.2c-2,2-4.1,4.1-6.1,6.1
			c-0.5,0.5-1.1,1.1-1.7,1.6C33.1,50.8,32.7,51.1,32.3,51z"/>
		<path class="st7" d="M25.2,24.5c0,0.8-0.2,1.3-0.6,1.7c-2.1,2.1-4.1,4.1-6.2,6.2c-0.5,0.5-1,1-1.4,1.4c-0.8,0.7-2,0.7-2.8,0
			c-1-0.9-1-2.2-0.1-3.1c2-2,4.1-4.1,6.1-6.1c0.5-0.5,0.9-1,1.4-1.4c0.7-0.6,1.5-0.8,2.3-0.4C24.8,23.1,25.2,23.8,25.2,24.5z"/>
	</g>
	<path class="st8" d="M32.3,2.5C15.8,2.5,2.5,15.8,2.5,32.2C2.5,48.7,15.8,62,32.3,62c0.3,0,0.6,0,1,0c15-0.5,27.2-12,28.7-26.7
		c0.1-1,0.2-2,0.2-3C62,15.8,48.7,2.5,32.3,2.5z M52,52c-5.7,5.7-13.2,8.4-20.6,8.1c-6.8-0.2-13.6-2.9-18.9-8.1
		c-10.9-10.9-10.9-28.6,0-39.5C23.4,1.6,41.1,1.6,52,12.5c5.8,5.8,8.5,13.5,8.1,21C59.8,40.2,57.1,46.9,52,52z"/>
</g>
</svg>
