<?xml version="1.0" encoding="utf-8"?>
<!-- Roman Inozemtsev: https://github.com/mir-one/  -->
<svg version="1.1"
	 id="Слой_1" shape-rendering="geometricPrecision" text-rendering="geometricPrecision" image-rendering="optimizeQuality"
	 xmlns="http://www.w3.org/2000/svg" xmlns:xlink="http://www.w3.org/1999/xlink" x="0px" y="0px" viewBox="0 0 94 89.1"
	 style="enable-background:new 0 0 94 89.1;" xml:space="preserve">
<style type="text/css">
	.st0{fill:url(#SVGID_1_);}
</style>
<linearGradient id="SVGID_1_" gradientUnits="userSpaceOnUse" x1="54.8101" y1="90.8407" x2="35.7922" y2="-21.8068">
	<stop  offset="0" style="stop-color:#2B388F"/>
	<stop  offset="0.1142" style="stop-color:#38348F"/>
	<stop  offset="0.3279" style="stop-color:#5C2A8E"/>
	<stop  offset="0.618" style="stop-color:#95198D"/>
	<stop  offset="0.97" style="stop-color:#E4028B"/>
	<stop  offset="1" style="stop-color:#EB008B"/>
</linearGradient>
<path class="st0" d="M94,49.1c0-0.4,0-0.7,0-1.1c-0.2-0.3,0-0.7-0.1-1.1c-0.1-0.3-0.2-0.7-0.2-1c-0.3-1.3-0.6-2.6-1.3-3.7
	c-0.3-1.2-0.9-2.3-1.4-3.4c-0.7-1.7-1.4-3.4-2.3-5.1c-0.5-1.4-1.2-2.6-1.9-3.9c-0.3-0.7-0.7-1.5-1.1-2.2c-0.3-0.8-0.7-1.5-1.2-2.2
	c-0.3-0.8-0.8-1.5-1.2-2.2c-0.5-0.9-1-1.8-1.6-2.7l0,0c-0.4-0.9-1-1.7-1.6-2.5c-0.4-0.8-1-1.6-1.5-2.4c-0.6-1-1.3-2-2-2.9
	c-0.4-0.7-0.8-1.3-1.3-1.9c-0.5-0.9-1.2-1.7-1.9-2.5c-0.8-1.3-1.7-2.4-2.7-3.5c-0.6-0.9-1.3-1.6-2.2-2.2c-0.8-0.8-1.8-1.3-2.8-1.7
	c-5-2.4-12.1-1.1-15.7,3.9c-0.8,0.9-1.5,1.9-2.2,2.9c-1,1.1-1.8,2.3-2.6,3.6l0,0l0,0c-1.2,1.6-2.4,3.3-3.5,5
	c-0.8,1.1-1.6,2.3-2.3,3.6c-0.6,0.8-1.1,1.7-1.6,2.7c-0.4,0.7-0.8,1.3-1.2,2l0,0c-0.3,0.7-0.9,0.9-1.7,0.8c-3.2-0.1-6.5,0-9.7,0.2
	c-0.2,0-0.3,0-0.5,0c-4.4,0.3-8.7,0.8-13,1.4c-3,0.4-5.7,1.6-7.7,4c-1.3,1.2-2.2,2.7-2.9,4.4l0,0c-0.3,0.6-0.5,1.3-0.6,2
	C0.1,38.4,0,39.2,0,40.1c-0.1,1,0,2,0.3,2.9l0,0c0,0.7,0.2,1.3,0.5,1.8l0,0C1,45.6,1.3,46.3,1.7,47l0,0c0.2,0.8,0.6,1.6,1,2.4
	c0,0,0,0,0,0c0.2,0.8,0.6,1.6,1,2.3c0.5,1.2,1,2.4,1.7,3.6l0,0c0.7,1.7,1.5,3.3,2.4,4.8c0.5,1.2,1.1,2.3,1.8,3.4c0.5,1,1.1,2,1.7,3
	c0.6,1.1,1.2,2.2,2,3.3c0.7,1.3,1.5,2.5,2.4,3.7c2.4,3.8,5.1,7.4,7.9,10.9c2.3,2.9,5.4,4.3,9.1,4.7c0.7,0.2,1.4-0.1,2,0.1
	c0.1,0,0.2,0,0.3,0c0.9-0.2,1.9-0.5,2.8-0.7c0.4-0.1,0.9-0.1,1.2-0.5c1-0.5,1.9-1.1,2.8-1.7c0.4-0.2,0.9-0.4,1-0.9
	c0.3-0.3,0.6-0.6,0.8-0.9c1.5-1.9,3-3.9,4.5-5.8c0.4-0.2,0.6-0.6,0.8-1.1c0-0.1,0-0.1,0.1-0.1c0.4-0.3,0.6-0.6,0.8-1.1
	c0.1-0.4,0.3-0.7,0.7-1c0.2-0.1,0.2-0.3,0.4-0.5c0.9-1.3,1.8-2.7,2.7-4c0.2-0.1,0.3-0.3,0.4-0.5c0.3-0.7,0.7-1.3,1.1-1.8
	c0.7-0.7,1.3-1.5,1.5-2.5c0.3-0.7,0.6-1.3,1-1.8c0.3-0.1,0.2-0.5,0.4-0.7c-0.1-0.2,0.1-0.4,0.2-0.5c0.1-0.1,0.2-0.2,0.2-0.3
	c0,0,0,0,0,0c0.5,0,0.3-0.4,0.5-0.7c0.2-0.5,0.5-1.1,0.8-1.5c0.5-0.4,0.7-1,0.9-1.7c0.1-0.2,0.1-0.4,0.2-0.7
	c0.2-0.2,0.3-0.5,0.5-0.7c0.5-0.5,0.7-1.1,0.9-1.7c0.2-0.7,0.5-1.2,0.8-1.8c0.2-0.2,0.3-0.3,0.3-0.6c0.2-0.1,0.2-0.3,0.3-0.5
	c0.5-1.1,0.9-2.2,1.4-3.3c0.5-1,0.9-2,1.4-3c0.2-0.3,0.5-0.5,0.3-1c0.6-0.2,0.3-0.7,0.5-1.1c0.2-0.8,0.4-1.7,0.5-2.5
	c0.1-0.2,0.2-0.3,0.2-0.5c-0.2-0.7,0-1.4-0.1-2.1c0-0.1-0.1-0.1-0.1-0.1c0.1-0.1,0.1-0.2,0-0.3c-0.2-0.6-0.3-1.2-0.4-1.9
	c0.1-0.5,0-1-0.5-1.3c-0.1-0.1-0.2-0.2-0.2-0.3c-0.3-0.9-0.8-1.7-1.4-2.5c0,0,0-0.1,0-0.1c-0.1-0.5-0.3-0.9-0.8-1.1
	c-0.1-0.1-0.1-0.1-0.2-0.2c-0.2-0.3-0.3-0.7-0.7-0.8c0.1-0.3-0.4-0.2-0.5-0.4c-0.6-0.4-1.1-0.9-1.7-1.3c-0.1-0.1-0.2-0.2-0.3-0.2
	c-0.1-0.3-0.4-0.3-0.7-0.4c-0.3,0-0.5-0.2-0.8-0.3c-1.2-0.4-2.4-1.1-3.8-0.7c-0.7,0.1-1.2,0.5-1.3,1.2l0,0c-0.3,0.2-0.5,0.5-0.5,0.8
	c-0.3,0.4-0.6,0.9-0.9,1.3c-0.1,0.1,0,0.3-0.2,0.3c-0.3,0.2-0.5,0.5-0.5,0.9c-0.3,0.5-0.6,1-0.9,1.5c-0.1,0.1-0.1,0.1-0.1,0.2
	c-0.4,0.2-0.3,0.6-0.4,1c0,0.3,0,0.7,0,1c0.2,0.3-0.1,0.8,0.4,0.9c0,0.1,0.1,0.2,0.2,0.3c0.2,0.3,0.4,0.5,0.7,0.5
	c0.3,0.4,0.8,0.3,1.2,0.3c0.7,0.1,1.5,0.2,2.1,0.5c1.2,1.2,1.4,2.4,0.5,3.9c-0.1,0.2-0.2,0.4-0.2,0.7c-0.3,0.3-0.4,0.7-0.5,1.1
	c0,0,0,0.1,0,0.1C55.1,44.2,55,44.6,55,45c0,0,0,0.1,0,0.1c-0.3,0.3-0.4,0.7-0.5,1.1c0,0,0,0.1,0,0.1c-0.3,0.3-0.4,0.7-0.5,1.1
	c0,0.3-0.4,0.4-0.3,0.8c-0.4,0.7-0.7,1.5-1.1,2.2c-0.3,0.3-0.4,0.6-0.5,1c-0.2,0.3-0.3,0.7-0.5,1c-0.2,0.1-0.3,0.1-0.5,0.2
	c-0.2-0.2-0.5-0.1-0.7-0.2c-0.5-0.4-1.1,0.1-1.6-0.1c-0.2,0-0.3,0-0.5,0c-0.4-0.4-1,0.1-1.4-0.1c-0.3,0-0.5,0-0.8,0
	c-0.3-0.1-0.6,0-0.9-0.1c-0.2,0-0.4,0-0.6,0c-0.3-0.1-0.6,0-0.9-0.1c-1.3,0.1-2.6-0.4-3.8-0.3c-0.5-0.3-1.3-0.1-1.7-0.7
	c-0.2-0.3-0.3-0.8-0.7-0.9c-0.6-0.9-0.1-1.8,0.1-2.7c0.1-0.2,0.2-0.3,0.4-0.5c0.3-0.3,0.4-0.7,0.5-1.1c0.3-1.1,0.9-2.1,1.2-3.1
	c0.5-0.9,0.9-1.8,1.2-2.7c0.2-0.2,0.5-0.4,0.3-0.7c0,0,0,0,0,0c0.3,0,0.2-0.2,0.3-0.4c0.2-0.8,0.8-1.4,0.9-2.2
	c0.4-0.8,0.9-1.7,1.3-2.5l0,0l0,0c0.2-0.3,0.4-0.7,0.6-1c0.5-0.3,0.6-0.8,0.7-1.3c0-0.1,0-0.1,0-0.2c0.1-0.1,0.2-0.2,0.3-0.3
	c0.4-0.2,0.5-0.6,0.6-1c0.2-0.5,0.4-0.9,0.7-1.4c0,0,0.1,0,0.1,0c0.3-0.2,0.5-0.5,0.5-0.8c0.1-0.3,0.2-0.6,0.5-0.8
	c0.4-0.3,0.7-0.6,0.5-1.1c0,0,0,0,0.1,0c0.4,0,0.4-0.3,0.4-0.5c0-0.2,0.1-0.4,0.3-0.5c0.5-0.2,0.4-0.6,0.6-1c0-0.1,0.1-0.2,0.1-0.3
	c0.4-0.6,0.8-1.2,1.2-1.8c0.3-0.5,0.7-0.9,1-1.4c0.2-0.2,0.4-0.3,0.3-0.6c0.3-0.1,0.4-0.3,0.5-0.6c0.1-0.2,0.2-0.3,0.4-0.5
	c0.4-0.2,0.6-0.6,0.8-1.1c0,0,0-0.1,0.1-0.1c0.1-0.2,0.3-0.3,0.3-0.6c0,0,0,0,0,0c0.3,0,0.4-0.2,0.5-0.4c0.6-1.1,1.5-1.9,2.1-3
	c0-0.1,0.1-0.1,0.1-0.2c0.6,0,0.6-0.5,0.8-0.9c0.1-0.3,0.2-0.5,0.5-0.6c0.4-0.2,0.7-0.3,1-0.7c0.4-0.3,0.9-0.2,1.3-0.2
	c0.4,0.4,1,0.5,1.5,0.8c0.1,0.1,0.1,0.1,0.2,0.2c0.3,0.4,0.6,0.8,0.8,1.2c0.3,0.4,0.4,1,1,1.1c0,0,0,0,0,0c0.2,0.9,0.7,1.5,1.4,2
	c0,0.3,0.2,0.4,0.4,0.6c0,0,0.1,0.1,0.1,0.1c0.1,0.4,0.4,0.8,0.8,1.1c0,0,0.1,0.1,0.1,0.1c0.2,0.4,0.3,0.9,0.8,0.9c0,0,0,0,0,0
	c0,0,0,0,0,0c0,0,0,0.1,0,0.1c0,0.3,0.2,0.4,0.4,0.6c0.2,0.6,0.4,1.2,1.1,1.4c0,0,0,0.1,0,0.1c0.3,0.4,0.5,0.8,0.8,1.2
	c0.2,0.5,0.3,1.1,0.9,1.3c0,0.1,0,0.2,0.1,0.3c0.2,0.3,0.4,0.5,0.6,0.8c0,0.4,0.2,0.6,0.5,0.9c0.2,0.3,0.4,0.6,0.6,0.9
	c0.3,0.7,0.7,1.4,1.2,2c0.2,0.7,0.7,1.2,1,1.9c0,0,0.1,0,0.1,0c0,0,0,0,0,0c-0.1,0.4,0.1,0.7,0.4,1c0.2,0.3,0.3,0.6,0.5,0.9
	c0.1,0.2,0.1,0.5,0.4,0.6c0,0.3,0.1,0.5,0.3,0.7c0.6,1.2,1.2,2.3,1.9,3.5c0.1,0.3,0.2,0.6,0.3,0.8c0,0.4,0.2,0.8,0.5,1
	c0.1,0.4,0.4,0.7,0.5,1.1c0,0.4,0.2,0.8,0.5,1.1c0,0.3,0.2,0.5,0.4,0.6c0.2,0.4,0.2,0.9,0.5,1.3c0,0.4,0.1,0.8,0.5,1.1
	c0,0,0.1,0.1,0,0.1c0.1,0.3,0,0.7,0.4,0.8c0,0,0,0,0,0c0,0.1,0,0.2,0,0.3c0.3,0.9,0.7,1.8,1,2.7c0.1,0.2,0,0.4,0.1,0.5
	c-0.3,0.5-0.4,1-0.5,1.5c-0.1,0.1-0.1,0.1-0.2,0.2c-0.4,0.2-0.7,0.6-1,0.8c-0.7,0.3-1.4,0.4-2.2,0.4c-0.4,0.2-0.9-0.3-1.2,0.2
	c0,0-0.1,0-0.1,0c-0.4,0.2-0.9-0.3-1.2,0.2c-1.1,0.2-2.2,0.4-3.3,0.4c-0.4,0.2-1-0.3-1.4,0.1c0,0-0.1,0-0.1,0
	c-0.5,0.1-1,0.1-1.2,0.6c-0.2,0.2-0.5,0.4-0.5,0.7c-0.3,0.3-0.4,0.7-0.5,1.1c-0.1,0.3-0.3,0.5-0.4,0.8c-0.3,0.3-0.4,0.6-0.5,1.1
	c-0.2,0.5-0.5,1-0.7,1.5c-0.3,0.3-0.4,0.6-0.5,1c-0.2,0.3-0.3,0.7-0.5,1c0,0.1,0,0.2-0.1,0.3c-0.1,0.5-0.3,1.1,0.2,1.5
	c0.4,0.8,1,1.3,1.9,1.4c0.3,0.1,0.7,0.1,1,0c0.3,0,0.5,0,0.8,0c0.5-0.3,1.1,0.3,1.6-0.1c0.1,0,0.3,0,0.4,0c0.5-0.2,1.1,0.3,1.6-0.2
	c0.1,0,0.2,0,0.3,0c0.5-0.1,1,0.3,1.4-0.2l0.1,0l0.1,0c0.3-0.2,0.7,0.1,1.1-0.1c1.9-0.2,3.7-0.5,5.6-0.7c0.5,0.2,0.9-0.1,1.4-0.3
	c0.1-0.1,0.3-0.2,0.5-0.2c0.4-0.1,0.9-0.1,1.2-0.5c0.6-0.3,1.1-0.6,1.7-0.9c0.4,0,0.6-0.3,0.9-0.6c1.8-1.6,3.3-3.4,4.2-5.6
	c0,0,0,0,0-0.1c0,0,0,0,0-0.1c0.3-0.1,0.4-0.4,0.3-0.7c0.2-0.9,0.5-1.8,0.7-2.7C94,49.8,93.8,49.5,94,49.1z M43.2,66.8
	c-2.3,3.4-4.7,6.8-7.3,10.1c-1.3,1.6-3.1,1.6-4.4,0c-1.5-1.9-2.9-3.8-4.3-5.8c-0.2-0.3-0.4-0.6-0.7-0.7c0,0,0.1-0.1,0-0.1
	c-0.7-1.3-1.5-2.6-2.5-3.7c0,0-0.1,0-0.1,0c-0.4-1.3-1.1-2.4-2.1-3.3c-0.1-1.1-0.9-1.8-1.4-2.7c-0.1-0.1-0.2-0.2-0.3-0.2
	c0.1-0.2,0-0.4-0.1-0.5c-0.4-0.8-0.8-1.6-1.3-2.4c-0.1-0.2-0.2-0.3-0.5-0.3c0,0,0,0,0,0c0.1-0.3,0-0.5-0.1-0.8
	c-0.6-1.2-1.3-2.3-1.9-3.5c-0.1-0.2-0.3-0.5-0.5-0.6c0.1-0.1,0.1-0.2,0-0.3c-0.4-1.2-0.9-2.4-1.8-3.3c0-1-0.4-1.7-1-2.4
	c0-0.9-0.4-1.7-1-2.3c0-0.9-0.2-1.6-1-2.1c0.2-0.4,0.1-0.6-0.2-0.8c0,0,0.1,0,0.1-0.1c0-0.1,0.1-0.1,0.1-0.2c0.4-2,0.9-2.4,2.8-2.7
	c3.7-0.5,7.5-0.9,11.2-1.1c0.3,0,0.6,0,0.8-0.3c0,0,0,0,0,0c0,0,0,0,0.1,0c0.5,0.3,1.1,0.2,1.6,0.2c0.6-0.2,1.2-0.1,1.8-0.1
	c0.5-0.1,0.9,0,1.2,0.5c-0.7,0.5-0.8,1.3-1.1,2.1c-0.1,0.1-0.1,0.3,0,0.4c0,0,0,0,0,0c-0.7,0.7-1.1,1.5-1.1,2.5c0,0,0,0-0.1,0
	c-0.7,0.8-0.9,1.8-1.2,2.7c0,0.1,0,0.2,0,0.4c0,0-0.1,0.1-0.1,0.1c-0.5,1.2-0.6,2.5-0.6,3.8c0,0.2,0,0.5,0.3,0.6
	c-0.1,0.2-0.2,0.5-0.1,0.8c0.2,1.4,0.6,2.8,1.2,4.1c0.1,0.2,0.2,0.4,0.5,0.4c0.3,1.4,1.1,2.5,2.3,3.2c0,0.3,0.2,0.4,0.4,0.6
	c0.8,0.8,1.7,1.4,2.7,2c0.2,0.1,0.5,0.2,0.7,0.1c0.1,0.4,0.5,0.4,0.8,0.6c1.7,0.7,3.6,0.9,5.4,1.1c1.1,0.1,2.2,0.5,3.3,0.2
	c0,0,0.1,0,0.1,0c0.1,0.2,0.3,0.2,0.6,0.3c1.2,0.2,1.2,0.2,0.5,1.2c-0.2,0.3-0.4,0.5-0.5,0.8c-0.2,0.3-0.5,0.6-0.4,1
	C43.6,66.1,43.4,66.5,43.2,66.8z"/>
</svg>
