<?xml version="1.0" encoding="utf-8"?>
<!-- Roman Inozemtsev: https://github.com/mir-one/  -->
<svg version="1.1"
	 id="Слой_1" shape-rendering="geometricPrecision" text-rendering="geometricPrecision" image-rendering="optimizeQuality"
	 xmlns="http://www.w3.org/2000/svg" xmlns:xlink="http://www.w3.org/1999/xlink" x="0px" y="0px" viewBox="0 0 256.7 32.2"
	 style="enable-background:new 0 0 256.7 32.2;" xml:space="preserve">
<style type="text/css">
	.st0{fill:#3A678A;}
	.st1{fill:#A8A8A8;}
	.st2{fill:#58595B;}
	.st3{fill:#FFFFFF;}
	.st4{fill:#71c8f1;}
</style>
<g>
	<g>
		<path class="st0" d="M96,18.3c0.2-1.2,0.6-2.4,0.9-3.8l1.9-7.1h2.9v14.9h-2.1v-7.5c0-1.1,0-2.4,0.1-3.8h-0.1
			c-0.1,0.4-0.2,0.9-0.3,1.4c-0.1,0.5-0.3,1-0.4,1.6l-2.3,8.4h-1.3L93,13.9c-0.1-0.5-0.3-1-0.4-1.6c-0.1-0.5-0.2-1-0.3-1.4h-0.1
			c0.1,1.4,0.1,2.6,0.1,3.8v7.5h-2.1V7.4h2.9l1.9,7.1C95.3,15.7,95.7,16.9,96,18.3L96,18.3z"/>
		<path class="st0" d="M112,16.9c0,0.8-0.1,1.6-0.3,2.3c-0.2,0.7-0.5,1.3-0.8,1.8c-0.4,0.5-0.8,0.9-1.3,1.1
			c-0.5,0.3-1.1,0.4-1.7,0.4s-1.2-0.1-1.7-0.4s-0.9-0.7-1.3-1.1c-0.4-0.5-0.6-1.1-0.8-1.8c-0.2-0.7-0.3-1.5-0.3-2.3s0.1-1.6,0.3-2.3
			c0.2-0.7,0.5-1.3,0.8-1.8c0.4-0.5,0.8-0.9,1.3-1.1c0.5-0.3,1.1-0.4,1.7-0.4s1.2,0.1,1.7,0.4c0.5,0.3,0.9,0.7,1.3,1.1
			c0.4,0.5,0.6,1.1,0.8,1.8C111.9,15.3,112,16.1,112,16.9z M109.9,16.9c0-0.6-0.1-1.1-0.2-1.5s-0.2-0.8-0.4-1.1
			c-0.2-0.3-0.4-0.5-0.6-0.7c-0.3-0.1-0.5-0.2-0.8-0.2s-0.6,0.1-0.8,0.2c-0.2,0.1-0.5,0.4-0.6,0.7c-0.2,0.3-0.3,0.7-0.4,1.1
			c-0.1,0.4-0.2,0.9-0.2,1.5s0.1,1.1,0.2,1.5s0.2,0.8,0.4,1.1c0.2,0.3,0.4,0.5,0.6,0.7s0.5,0.2,0.8,0.2s0.6-0.1,0.8-0.2
			c0.2-0.2,0.5-0.4,0.6-0.7c0.2-0.3,0.3-0.7,0.4-1.1S109.9,17.5,109.9,16.9z"/>
		<path class="st0" d="M115.6,13L115.6,13c0.2-0.2,0.3-0.4,0.5-0.7c0.2-0.2,0.4-0.4,0.6-0.6c0.2-0.2,0.5-0.3,0.8-0.4
			c0.3-0.1,0.6-0.1,0.9-0.1s0.6,0,0.9,0.1s0.5,0.2,0.8,0.4c0.2,0.2,0.4,0.4,0.6,0.7s0.3,0.7,0.4,1.1c0.1,0.2,0.1,0.5,0.1,0.7
			c0,0.3,0,0.6,0,0.9v7h-2v-6.6c0-0.3,0-0.5,0-0.7s0-0.4-0.1-0.5c-0.1-0.3-0.3-0.6-0.5-0.7c-0.2-0.1-0.5-0.2-0.7-0.2
			c-0.4,0-0.8,0.1-1.1,0.4c-0.4,0.2-0.7,0.6-0.9,1v7.4h-2V11.5h1.6L115.6,13z"/>
		<path class="st0" d="M127.5,20.4c0.4,0,0.8-0.1,1.2-0.2s0.8-0.3,1.3-0.4v2.1c-0.3,0.1-0.7,0.3-1.2,0.4s-1.1,0.2-1.7,0.2
			s-1.1-0.1-1.6-0.3c-0.5-0.2-1-0.5-1.4-0.9s-0.7-1-0.9-1.7c-0.2-0.7-0.3-1.5-0.3-2.5s0.1-1.8,0.3-2.6c0.2-0.7,0.5-1.3,0.9-1.8
			s0.8-0.8,1.2-1.1c0.5-0.2,0.9-0.4,1.4-0.4s1,0.1,1.4,0.3c0.4,0.2,0.8,0.5,1.1,1c0.3,0.4,0.6,1,0.7,1.7s0.3,1.5,0.3,2.5
			c0,0.4,0,0.7,0,0.9h-5.3c0,0.5,0.1,0.9,0.3,1.3c0.1,0.4,0.3,0.6,0.6,0.9c0.2,0.2,0.5,0.4,0.8,0.5
			C126.8,20.4,127.1,20.4,127.5,20.4z M126.7,13.3c-0.3,0-0.5,0.1-0.7,0.2c-0.2,0.1-0.4,0.3-0.5,0.5s-0.3,0.5-0.3,0.7
			c-0.1,0.3-0.1,0.6-0.2,0.9h3.2c0-0.3,0-0.6-0.1-0.9c-0.1-0.3-0.2-0.5-0.3-0.7c-0.1-0.2-0.3-0.4-0.5-0.5
			C127.1,13.4,126.9,13.3,126.7,13.3z"/>
		<path class="st0" d="M131,11.5h2.1l1.2,3.9c0.5,1.5,0.8,2.6,1,3.3l0,0c0.1-0.6,0.4-1.6,0.9-3.1l1.3-4.1h2.2l-5.2,15.9h-2l1.9-5.8
			L131,11.5z"/>
		<path class="st1" d="M140.3,19.3h2.3v3h-2.3V19.3z"/>
		<path class="st1" d="M149.3,20.4c0.4,0,0.8-0.1,1.2-0.2s0.8-0.3,1.3-0.4v2.1c-0.3,0.1-0.7,0.3-1.2,0.4s-1.1,0.2-1.7,0.2
			c-0.6,0-1.1-0.1-1.6-0.3c-0.5-0.2-1-0.5-1.4-0.9s-0.7-1-0.9-1.7s-0.3-1.5-0.3-2.5s0.1-1.8,0.3-2.6c0.2-0.7,0.5-1.3,0.9-1.8
			s0.8-0.8,1.2-1.1c0.5-0.2,0.9-0.4,1.4-0.4s1,0.1,1.4,0.3s0.8,0.5,1.1,1c0.3,0.4,0.6,1,0.7,1.7s0.3,1.5,0.3,2.5c0,0.4,0,0.7,0,0.9
			h-5.3c0,0.5,0.1,0.9,0.3,1.3c0.1,0.4,0.3,0.6,0.6,0.9c0.2,0.2,0.5,0.4,0.8,0.5C148.6,20.4,148.9,20.4,149.3,20.4z M148.5,13.3
			c-0.3,0-0.5,0.1-0.7,0.2c-0.2,0.1-0.4,0.3-0.5,0.5s-0.3,0.5-0.3,0.7c-0.1,0.3-0.1,0.6-0.2,0.9h3.2c0-0.3,0-0.6-0.1-0.9
			c-0.1-0.3-0.2-0.5-0.3-0.7s-0.3-0.4-0.5-0.5S148.7,13.3,148.5,13.3z"/>
		<path class="st1" d="M155.7,13L155.7,13c0.2-0.2,0.3-0.4,0.5-0.7c0.2-0.2,0.4-0.4,0.6-0.6c0.2-0.2,0.5-0.3,0.8-0.4
			s0.6-0.1,0.9-0.1c0.3,0,0.6,0,0.9,0.1c0.3,0.1,0.5,0.2,0.8,0.4c0.2,0.2,0.4,0.4,0.6,0.7s0.3,0.7,0.4,1.1c0.1,0.2,0.1,0.5,0.1,0.7
			c0,0.3,0,0.6,0,0.9v7h-2v-6.6c0-0.3,0-0.5,0-0.7s0-0.4-0.1-0.5c-0.1-0.3-0.3-0.6-0.5-0.7c-0.2-0.1-0.5-0.2-0.7-0.2
			c-0.4,0-0.8,0.1-1.1,0.4c-0.4,0.2-0.7,0.6-0.9,1v7.4h-2V11.5h1.6L155.7,13z"/>
		<path class="st1" d="M167.6,20.4c0.4,0,0.8-0.1,1.2-0.2s0.8-0.3,1.3-0.4v2.1c-0.3,0.1-0.7,0.3-1.2,0.4s-1.1,0.2-1.7,0.2
			c-0.6,0-1.1-0.1-1.6-0.3c-0.5-0.2-1-0.5-1.4-0.9s-0.7-1-0.9-1.7s-0.3-1.5-0.3-2.5s0.1-1.8,0.3-2.6c0.2-0.7,0.5-1.3,0.9-1.8
			s0.8-0.8,1.2-1.1c0.5-0.2,0.9-0.4,1.4-0.4s1,0.1,1.4,0.3s0.8,0.5,1.1,1c0.3,0.4,0.6,1,0.7,1.7s0.3,1.5,0.3,2.5c0,0.4,0,0.7,0,0.9
			H165c0,0.5,0.1,0.9,0.3,1.3c0.1,0.4,0.3,0.6,0.6,0.9c0.2,0.2,0.5,0.4,0.8,0.5C167,20.4,167.3,20.4,167.6,20.4z M166.8,13.3
			c-0.3,0-0.5,0.1-0.7,0.2c-0.2,0.1-0.4,0.3-0.5,0.5s-0.3,0.5-0.3,0.7c-0.1,0.3-0.1,0.6-0.2,0.9h3.2c0-0.3,0-0.6-0.1-0.9
			c-0.1-0.3-0.2-0.5-0.3-0.7s-0.3-0.4-0.5-0.5C167.3,13.4,167.1,13.3,166.8,13.3z"/>
		<path class="st1" d="M177.1,13.6H177c-0.6,0-1.1,0.1-1.6,0.4c-0.5,0.2-0.8,0.6-1.1,1.1v7.2h-2V11.5h1.6l0.2,1.5l0,0
			c0.2-0.5,0.6-1,1-1.3s0.9-0.5,1.5-0.5c0.2,0,0.4,0,0.5,0L177.1,13.6L177.1,13.6z"/>
		<path class="st1" d="M183.6,22.6c0-0.1,0-0.3,0-0.5s0-0.4,0-0.5l0,0c-0.1,0.1-0.3,0.3-0.4,0.4c-0.2,0.1-0.3,0.2-0.5,0.4
			c-0.2,0.1-0.4,0.2-0.6,0.3c-0.2,0.1-0.5,0.1-0.7,0.1c-0.4,0-0.9-0.1-1.3-0.3c-0.4-0.2-0.8-0.5-1.1-1c-0.3-0.4-0.6-1-0.8-1.7
			s-0.3-1.5-0.3-2.5s0.1-1.8,0.3-2.5s0.5-1.3,0.8-1.8s0.7-0.9,1.1-1.1c0.4-0.2,0.9-0.4,1.3-0.4c0.5,0,0.9,0.1,1.3,0.4s0.7,0.6,1,1.1
			l0,0l0.1-1.2h1.7v11c0,0.6,0,1.2-0.1,1.6c-0.1,0.5-0.2,0.9-0.3,1.2c-0.2,0.4-0.4,0.8-0.7,1.1c-0.3,0.3-0.6,0.6-1,0.8
			c-0.4,0.2-0.7,0.3-1.2,0.4c-0.4,0.1-0.9,0.1-1.4,0.1c-0.3,0-0.5,0-0.8,0s-0.5-0.1-0.7-0.1s-0.4-0.1-0.6-0.2
			c-0.2-0.1-0.3-0.1-0.5-0.2v-2.1c0.4,0.2,0.8,0.3,1.2,0.4s0.8,0.1,1.3,0.1c0.9,0,1.6-0.2,2.1-0.7s0.7-1.1,0.7-2.1L183.6,22.6
			L183.6,22.6z M181.8,20.5c0.2,0,0.4,0,0.6-0.1c0.2-0.1,0.3-0.2,0.5-0.3c0.2-0.1,0.3-0.2,0.4-0.3c0.1-0.1,0.2-0.3,0.3-0.4v-4.8
			c-0.2-0.3-0.5-0.6-0.8-0.8s-0.6-0.3-1-0.3c-0.1,0-0.3,0-0.4,0.1c-0.1,0-0.3,0.1-0.4,0.2c-0.1,0.1-0.3,0.2-0.4,0.4
			c-0.1,0.2-0.2,0.4-0.3,0.7s-0.2,0.6-0.2,1c-0.1,0.4-0.1,0.8-0.1,1.3s0,1,0.1,1.4s0.2,0.8,0.4,1.1c0.2,0.3,0.4,0.5,0.6,0.7
			C181.2,20.4,181.5,20.5,181.8,20.5z"/>
		<path class="st1" d="M186.8,11.5h2.1l1.2,3.9c0.5,1.5,0.8,2.6,1,3.3l0,0c0.1-0.6,0.4-1.6,0.9-3.1l1.3-4.1h2.2l-5.2,15.9h-2
			l1.9-5.8L186.8,11.5z"/>
	</g>
	<g>
		<ellipse class="st2" cx="72.5" cy="15.9" rx="10.2" ry="10.1"/>
		<g>
			<circle class="st3" cx="70.2" cy="14.3" r="1"/>
			<circle class="st3" cx="66.6" cy="18.7" r="1"/>
			<circle class="st3" cx="74.5" cy="18.3" r="1"/>
			<circle class="st3" cx="77.5" cy="13.4" r="1"/>
			<g>
				<path class="st0" d="M77.5,15.2c-0.2,0-0.4,0-0.6-0.1L75.8,17c0.3,0.3,0.5,0.8,0.5,1.3c0,1-0.8,1.8-1.8,1.8s-1.8-0.8-1.8-1.8
					c0-0.4,0.1-0.7,0.3-1l-1.7-1.5c-0.3,0.2-0.7,0.3-1.1,0.3c-0.3,0-0.6-0.1-0.8-0.2L68,17.6c0.2,0.3,0.4,0.7,0.4,1.1
					c0,1-0.8,1.8-1.8,1.8s-1.8-0.8-1.8-1.8c0-0.1,0-0.1,0-0.2l-2.3-0.8c0.8,4.8,5,8.4,10,8.4c5.6,0,10.2-4.6,10.2-10.2
					c0-0.8-0.1-1.7-0.3-2.5h-3C79.2,14.4,78.5,15.2,77.5,15.2z"/>
				<path class="st4" d="M66.6,16.9c0.3,0,0.5,0.1,0.8,0.2l1.4-1.6c-0.2-0.3-0.3-0.7-0.3-1.1c0-1,0.8-1.8,1.8-1.8s1.8,0.8,1.8,1.8
					c0,0.3-0.1,0.6-0.2,0.8l1.8,1.5c0.3-0.2,0.6-0.2,0.9-0.2c0.2,0,0.4,0,0.6,0.1l1.1-1.9c-0.3-0.3-0.5-0.8-0.5-1.2
					c0-1,0.8-1.8,1.8-1.8c0.8,0,1.4,0.5,1.7,1.1h2.9c-1.4-4-5.2-6.9-9.6-6.9c-5.6,0-10.2,4.6-10.2,10.2c0,0.3,0,0.5,0,0.8l2.7,0.9
					C65.4,17.2,65.9,16.9,66.6,16.9z"/>
			</g>
		</g>
	</g>
</g>
</svg>
