<?xml version="1.0" encoding="utf-8"?>
<!-- Roman Inozemtsev: https://github.com/mir-one/  -->
<svg version="1.1"
	 id="Слой_1" shape-rendering="geometricPrecision" text-rendering="geometricPrecision" image-rendering="optimizeQuality"
	 xmlns="http://www.w3.org/2000/svg" xmlns:xlink="http://www.w3.org/1999/xlink" x="0px" y="0px" viewBox="0 0 256.7 32.3"
	 style="enable-background:new 0 0 256.7 32.3;" xml:space="preserve">
<style type="text/css">
	.st0{fill:url(#SVGID_1_);}
	.st1{fill:#262261;}
</style>
<linearGradient id="SVGID_1_" gradientUnits="userSpaceOnUse" x1="72.27" y1="27.9564" x2="68.0365" y2="2.8807">
	<stop  offset="0" style="stop-color:#2B388F"/>
	<stop  offset="0.1142" style="stop-color:#38348F"/>
	<stop  offset="0.3279" style="stop-color:#5C2A8E"/>
	<stop  offset="0.618" style="stop-color:#95198D"/>
	<stop  offset="0.97" style="stop-color:#E4028B"/>
	<stop  offset="1" style="stop-color:#EB008B"/>
</linearGradient>
<path class="st0" d="M81,18.7c0-0.1,0-0.2,0-0.2c0-0.1,0-0.2,0-0.2c0-0.1,0-0.2-0.1-0.2c-0.1-0.3-0.1-0.6-0.3-0.8
	c-0.1-0.3-0.2-0.5-0.3-0.8c-0.2-0.4-0.3-0.8-0.5-1.1c-0.1-0.3-0.3-0.6-0.4-0.9c-0.1-0.2-0.2-0.3-0.3-0.5c-0.1-0.2-0.2-0.3-0.3-0.5
	c-0.1-0.2-0.2-0.3-0.3-0.5c-0.1-0.2-0.2-0.4-0.4-0.6l0,0c-0.1-0.2-0.2-0.4-0.3-0.6c-0.1-0.2-0.2-0.4-0.3-0.5
	c-0.1-0.2-0.3-0.4-0.4-0.6c-0.1-0.1-0.2-0.3-0.3-0.4c-0.1-0.2-0.3-0.4-0.4-0.6c-0.2-0.3-0.4-0.5-0.6-0.8c-0.1-0.2-0.3-0.4-0.5-0.5
	c-0.2-0.2-0.4-0.3-0.6-0.4c-1.1-0.5-2.7-0.2-3.5,0.9c-0.2,0.2-0.3,0.4-0.5,0.6c-0.2,0.3-0.4,0.5-0.6,0.8l0,0l0,0
	c-0.3,0.4-0.5,0.7-0.8,1.1c-0.2,0.3-0.4,0.5-0.5,0.8c-0.1,0.2-0.3,0.4-0.4,0.6c-0.1,0.2-0.2,0.3-0.3,0.5l0,0
	c-0.1,0.2-0.2,0.2-0.4,0.2c-0.7,0-1.4,0-2.2,0.1c0,0-0.1,0-0.1,0c-1,0.1-1.9,0.2-2.9,0.3c-0.7,0.1-1.3,0.4-1.7,0.9
	c-0.3,0.3-0.5,0.6-0.6,1l0,0c-0.1,0.1-0.1,0.3-0.1,0.5c-0.1,0.2-0.1,0.4-0.1,0.6c0,0.2,0,0.4,0.1,0.6l0,0c0,0.1,0,0.3,0.1,0.4l0,0
	c0,0.2,0.1,0.3,0.2,0.5l0,0c0.1,0.2,0.1,0.4,0.2,0.5c0,0,0,0,0,0c0.1,0.2,0.1,0.4,0.2,0.5c0.1,0.3,0.2,0.5,0.4,0.8l0,0
	c0.2,0.4,0.3,0.7,0.5,1.1c0.1,0.3,0.3,0.5,0.4,0.8c0.1,0.2,0.2,0.5,0.4,0.7c0.1,0.3,0.3,0.5,0.4,0.7c0.2,0.3,0.3,0.6,0.5,0.8
	c0.5,0.8,1.1,1.6,1.8,2.4c0.5,0.6,1.2,1,2,1c0.1,0,0.3,0,0.5,0c0,0,0,0,0.1,0c0.2-0.1,0.4-0.1,0.6-0.2c0.1,0,0.2,0,0.3-0.1
	c0.2-0.1,0.4-0.2,0.6-0.4c0.1,0,0.2-0.1,0.2-0.2c0.1-0.1,0.1-0.1,0.2-0.2c0.3-0.4,0.7-0.9,1-1.3c0.1-0.1,0.1-0.1,0.2-0.2
	c0,0,0,0,0,0c0.1-0.1,0.1-0.1,0.2-0.2c0-0.1,0.1-0.2,0.1-0.2c0,0,0.1-0.1,0.1-0.1c0.2-0.3,0.4-0.6,0.6-0.9c0,0,0.1-0.1,0.1-0.1
	c0.1-0.1,0.2-0.3,0.3-0.4c0.2-0.2,0.3-0.3,0.3-0.6c0.1-0.1,0.1-0.3,0.2-0.4c0.1,0,0-0.1,0.1-0.1c0,0,0-0.1,0-0.1c0,0,0,0,0-0.1
	c0,0,0,0,0,0c0.1,0,0.1-0.1,0.1-0.2c0-0.1,0.1-0.2,0.2-0.3c0.1-0.1,0.2-0.2,0.2-0.4c0,0,0-0.1,0-0.1c0-0.1,0.1-0.1,0.1-0.2
	c0.1-0.1,0.2-0.2,0.2-0.4c0-0.1,0.1-0.3,0.2-0.4c0,0,0.1-0.1,0.1-0.1c0,0,0-0.1,0.1-0.1c0.1-0.2,0.2-0.5,0.3-0.7
	c0.1-0.2,0.2-0.4,0.3-0.7c0.1-0.1,0.1-0.1,0.1-0.2c0.1,0,0.1-0.2,0.1-0.2c0-0.2,0.1-0.4,0.1-0.6c0,0,0.1-0.1,0-0.1
	c0-0.2,0-0.3,0-0.5c0,0,0,0,0,0c0,0,0,0,0-0.1c0-0.1-0.1-0.3-0.1-0.4c0-0.1,0-0.2-0.1-0.3c0,0,0-0.1-0.1-0.1
	c-0.1-0.2-0.2-0.4-0.3-0.6c0,0,0,0,0,0c0-0.1-0.1-0.2-0.2-0.2c0,0,0,0,0,0c0-0.1-0.1-0.2-0.2-0.2c0-0.1-0.1-0.1-0.1-0.1
	c-0.1-0.1-0.3-0.2-0.4-0.3c0,0,0,0-0.1,0c0-0.1-0.1-0.1-0.2-0.1c-0.1,0-0.1,0-0.2-0.1c-0.3-0.1-0.5-0.2-0.8-0.2
	c-0.2,0-0.3,0.1-0.3,0.3l0,0c-0.1,0-0.1,0.1-0.1,0.2c-0.1,0.1-0.1,0.2-0.2,0.3c0,0,0,0.1,0,0.1c-0.1,0-0.1,0.1-0.1,0.2
	c-0.1,0.1-0.1,0.2-0.2,0.3c0,0,0,0,0,0c-0.1,0-0.1,0.1-0.1,0.2c0,0.1,0,0.1,0,0.2c0,0.1,0,0.2,0.1,0.2c0,0,0,0.1,0,0.1
	c0,0.1,0.1,0.1,0.2,0.1c0.1,0.1,0.2,0.1,0.3,0.1c0.2,0,0.3,0,0.5,0.1c0.3,0.3,0.3,0.5,0.1,0.9c0,0,0,0.1-0.1,0.1
	c-0.1,0.1-0.1,0.2-0.1,0.2c0,0,0,0,0,0c-0.1,0.1-0.1,0.1-0.1,0.2c0,0,0,0,0,0c-0.1,0.1-0.1,0.1-0.1,0.2c0,0,0,0,0,0
	c-0.1,0.1-0.1,0.2-0.1,0.2c0,0.1-0.1,0.1-0.1,0.2c-0.1,0.2-0.2,0.3-0.2,0.5c-0.1,0.1-0.1,0.1-0.1,0.2c0,0.1-0.1,0.1-0.1,0.2
	c0,0-0.1,0-0.1,0c0,0-0.1,0-0.1,0c-0.1-0.1-0.2,0-0.3,0c0,0-0.1,0-0.1,0c-0.1-0.1-0.2,0-0.3,0c-0.1,0-0.1,0-0.2,0
	c-0.1,0-0.1,0-0.2,0c0,0-0.1,0-0.1,0c-0.1,0-0.1,0-0.2,0c-0.3,0-0.6-0.1-0.9-0.1c-0.1-0.1-0.3,0-0.4-0.2c0-0.1-0.1-0.2-0.2-0.2
	c-0.1-0.2,0-0.4,0-0.6c0,0,0.1-0.1,0.1-0.1c0.1-0.1,0.1-0.1,0.1-0.2c0.1-0.2,0.2-0.5,0.3-0.7c0.1-0.2,0.2-0.4,0.3-0.6
	c0,0,0.1-0.1,0.1-0.1c0,0,0,0,0,0c0.1,0,0-0.1,0.1-0.1c0-0.2,0.2-0.3,0.2-0.5c0.1-0.2,0.2-0.4,0.3-0.6l0,0l0,0
	c0-0.1,0.1-0.2,0.1-0.2c0.1-0.1,0.1-0.2,0.2-0.3c0,0,0,0,0,0c0,0,0-0.1,0.1-0.1c0.1,0,0.1-0.1,0.1-0.2c0-0.1,0.1-0.2,0.1-0.3
	c0,0,0,0,0,0c0.1,0,0.1-0.1,0.1-0.2c0-0.1,0.1-0.1,0.1-0.2c0.1-0.1,0.2-0.1,0.1-0.3c0,0,0,0,0,0c0.1,0,0.1-0.1,0.1-0.1
	c0-0.1,0-0.1,0.1-0.1c0.1,0,0.1-0.1,0.1-0.2c0,0,0,0,0-0.1c0.1-0.1,0.2-0.3,0.3-0.4c0.1-0.1,0.2-0.2,0.2-0.3c0,0,0.1-0.1,0.1-0.1
	c0.1,0,0.1-0.1,0.1-0.1c0,0,0.1-0.1,0.1-0.1c0.1-0.1,0.1-0.1,0.2-0.2c0,0,0,0,0,0c0,0,0.1-0.1,0.1-0.1c0,0,0,0,0,0
	c0.1,0,0.1,0,0.1-0.1c0.1-0.2,0.3-0.4,0.5-0.7c0,0,0,0,0,0c0.1,0,0.1-0.1,0.2-0.2c0-0.1,0-0.1,0.1-0.1c0.1,0,0.2-0.1,0.2-0.1
	c0.1-0.1,0.2,0,0.3,0c0.1,0.1,0.2,0.1,0.3,0.2c0,0,0,0,0,0c0.1,0.1,0.1,0.2,0.2,0.3c0.1,0.1,0.1,0.2,0.2,0.2c0,0,0,0,0,0
	c0,0.2,0.2,0.3,0.3,0.5c0,0.1,0,0.1,0.1,0.1c0,0,0,0,0,0c0,0.1,0.1,0.2,0.2,0.2c0,0,0,0,0,0c0,0.1,0.1,0.2,0.2,0.2c0,0,0,0,0,0
	c0,0,0,0,0,0c0,0,0,0,0,0c0,0.1,0.1,0.1,0.1,0.1c0.1,0.1,0.1,0.3,0.2,0.3c0,0,0,0,0,0c0.1,0.1,0.1,0.2,0.2,0.3
	c0,0.1,0.1,0.2,0.2,0.3c0,0,0,0,0,0.1c0,0.1,0.1,0.1,0.1,0.2c0,0.1,0,0.1,0.1,0.2c0,0.1,0.1,0.1,0.1,0.2c0.1,0.2,0.1,0.3,0.3,0.4
	c0,0.2,0.2,0.3,0.2,0.4c0,0,0,0,0,0c0,0,0,0,0,0c0,0.1,0,0.2,0.1,0.2c0,0.1,0.1,0.1,0.1,0.2C77,15,77,15,77,15c0,0.1,0,0.1,0.1,0.1
	c0.1,0.3,0.3,0.5,0.4,0.8c0,0.1,0.1,0.1,0.1,0.2c0,0.1,0,0.2,0.1,0.2c0,0.1,0.1,0.2,0.1,0.3c0,0.1,0,0.2,0.1,0.2
	c0,0.1,0,0.1,0.1,0.1c0,0.1,0,0.2,0.1,0.3c0,0.1,0,0.2,0.1,0.2c0,0,0,0,0,0c0,0.1,0,0.1,0.1,0.2c0,0,0,0,0,0c0,0,0,0,0,0.1
	c0.1,0.2,0.2,0.4,0.2,0.6c0,0,0,0.1,0,0.1c-0.1,0.1-0.1,0.2-0.1,0.3c0,0,0,0,0,0c-0.1,0-0.1,0.1-0.2,0.2c-0.2,0.1-0.3,0.1-0.5,0.1
	c-0.1,0-0.2-0.1-0.3,0c0,0,0,0,0,0c-0.1,0-0.2-0.1-0.3,0c-0.2,0-0.5,0.1-0.7,0.1c-0.1,0.1-0.2-0.1-0.3,0c0,0,0,0,0,0
	c-0.1,0-0.2,0-0.3,0.1c-0.1,0-0.1,0.1-0.1,0.2c-0.1,0.1-0.1,0.2-0.1,0.2c0,0.1-0.1,0.1-0.1,0.2c-0.1,0.1-0.1,0.1-0.1,0.2
	c-0.1,0.1-0.1,0.2-0.2,0.3c-0.1,0.1-0.1,0.1-0.1,0.2c0,0.1-0.1,0.1-0.1,0.2c0,0,0,0.1,0,0.1c0,0.1-0.1,0.2,0,0.3
	c0.1,0.2,0.2,0.3,0.4,0.3c0.1,0,0.1,0,0.2,0c0.1,0,0.1,0,0.2,0c0.1-0.1,0.2,0.1,0.3,0c0,0,0.1,0,0.1,0c0.1-0.1,0.2,0.1,0.4,0
	c0,0,0,0,0.1,0c0.1,0,0.2,0.1,0.3,0l0,0l0,0c0.1,0,0.2,0,0.2,0c0.4-0.1,0.8-0.1,1.2-0.2c0.1,0,0.2,0,0.3-0.1c0,0,0.1,0,0.1,0
	c0.1,0,0.2,0,0.3-0.1c0.1-0.1,0.2-0.1,0.4-0.2c0.1,0,0.1-0.1,0.2-0.1c0.4-0.3,0.7-0.8,0.9-1.2c0,0,0,0,0,0c0,0,0,0,0,0
	c0.1,0,0.1-0.1,0.1-0.2c0.1-0.2,0.1-0.4,0.2-0.6C81,18.8,81,18.7,81,18.7z M69.7,22.6c-0.5,0.8-1.1,1.5-1.6,2.2
	c-0.3,0.4-0.7,0.4-1,0c-0.3-0.4-0.6-0.9-1-1.3c0-0.1-0.1-0.1-0.2-0.2c0,0,0,0,0,0c-0.2-0.3-0.3-0.6-0.6-0.8c0,0,0,0,0,0
	c-0.1-0.3-0.2-0.5-0.5-0.7c0-0.2-0.2-0.4-0.3-0.6c0,0,0,0-0.1,0c0,0,0-0.1,0-0.1c-0.1-0.2-0.2-0.4-0.3-0.5c0,0,0-0.1-0.1-0.1
	c0,0,0,0,0,0c0-0.1,0-0.1,0-0.2c-0.1-0.3-0.3-0.5-0.4-0.8c0-0.1-0.1-0.1-0.1-0.1c0,0,0-0.1,0-0.1c-0.1-0.3-0.2-0.5-0.4-0.7
	c0-0.2-0.1-0.4-0.2-0.5c0-0.2-0.1-0.4-0.2-0.5c0-0.2-0.1-0.4-0.2-0.5c0-0.1,0-0.1,0-0.2c0,0,0,0,0,0c0,0,0,0,0-0.1
	c0.1-0.4,0.2-0.5,0.6-0.6c0.8-0.1,1.7-0.2,2.5-0.3c0.1,0,0.1,0,0.2-0.1c0,0,0,0,0,0c0,0,0,0,0,0c0.1,0.1,0.2,0,0.4,0
	c0.1,0,0.3,0,0.4,0c0.1,0,0.2,0,0.3,0.1c-0.2,0.1-0.2,0.3-0.2,0.5c0,0,0,0.1,0,0.1c0,0,0,0,0,0c-0.2,0.2-0.2,0.3-0.2,0.6
	c0,0,0,0,0,0c-0.1,0.2-0.2,0.4-0.3,0.6c0,0,0,0.1,0,0.1c0,0,0,0,0,0c-0.1,0.3-0.1,0.6-0.1,0.9c0,0,0,0.1,0.1,0.1c0,0.1,0,0.1,0,0.2
	c0,0.3,0.1,0.6,0.3,0.9c0,0,0,0.1,0.1,0.1c0.1,0.3,0.2,0.5,0.5,0.7c0,0.1,0,0.1,0.1,0.1c0.2,0.2,0.4,0.3,0.6,0.4c0,0,0.1,0,0.2,0
	c0,0.1,0.1,0.1,0.2,0.1c0.4,0.2,0.8,0.2,1.2,0.2c0.2,0,0.5,0.1,0.7,0.1c0,0,0,0,0,0c0,0,0.1,0.1,0.1,0.1c0.3,0,0.3,0,0.1,0.3
	c0,0.1-0.1,0.1-0.1,0.2c0,0.1-0.1,0.1-0.1,0.2C69.8,22.4,69.7,22.5,69.7,22.6z"/>
<g>
	<path class="st1" d="M87.7,16.4c0-2.9,2.1-5.1,5.1-5.1c1.8,0,3.3,0.9,4.2,2.3l-1.9,1.1c-0.4-0.8-1.3-1.2-2.3-1.2
		c-1.7,0-2.8,1.2-2.8,2.9c0,1.7,1.1,2.9,2.8,2.9c1,0,1.8-0.4,2.3-1.2l1.9,1.1c-0.8,1.4-2.4,2.3-4.2,2.3
		C89.9,21.5,87.7,19.3,87.7,16.4z"/>
	<path class="st1" d="M102.3,14.2v2.4c-0.9-0.1-2.1,0.2-2.1,1.6v3.1h-2.1v-7h2.1v1.2C100.5,14.6,101.4,14.2,102.3,14.2z"/>
	<path class="st1" d="M110,14.3l-2.4,6.8c-0.8,2.2-2,3.1-4,3v-2c1,0,1.4-0.3,1.7-1.2l-2.8-6.6h2.3l1.5,4.3l1.3-4.3H110z"/>
	<path class="st1" d="M118.3,17.8c0,2.1-1.5,3.7-3.3,3.7c-0.9,0-1.6-0.3-2.1-0.8v3.4h-2.1v-9.8h2.1V15c0.5-0.5,1.1-0.8,2.1-0.8
		C116.8,14.1,118.3,15.7,118.3,17.8z M116.2,17.8c0-1-0.7-1.7-1.7-1.7c-1,0-1.7,0.7-1.7,1.7c0,1,0.7,1.7,1.7,1.7
		C115.5,19.5,116.2,18.9,116.2,17.8z"/>
	<path class="st1" d="M122,16.3v2.5c0,0.6,0.5,0.7,1.4,0.6v1.9c-2.7,0.3-3.5-0.5-3.5-2.5v-2.5h-1.1v-2h1.1V13l2.1-0.6v2h1.4v2H122z"
		/>
	<path class="st1" d="M124.1,17.8c0-2.1,1.6-3.7,3.7-3.7s3.7,1.6,3.7,3.7s-1.6,3.7-3.7,3.7S124.1,19.9,124.1,17.8z M129.4,17.8
		c0-1-0.7-1.6-1.6-1.6c-0.9,0-1.6,0.7-1.6,1.6c0,1,0.7,1.6,1.6,1.6C128.7,19.5,129.4,18.8,129.4,17.8z"/>
	<path class="st1" d="M142.5,21.3h-2.2v-5.7l-2.5,4.1h-0.3l-2.5-4.1v5.7h-2.2v-9.8h2.2l2.6,4.3l2.6-4.3h2.2V21.3z"/>
	<path class="st1" d="M143.9,12.5c0-0.7,0.6-1.3,1.3-1.3c0.7,0,1.3,0.6,1.3,1.3c0,0.7-0.6,1.3-1.3,1.3
		C144.5,13.7,143.9,13.2,143.9,12.5z M144.1,14.3h2.1v7h-2.1V14.3z"/>
	<path class="st1" d="M151.9,21.3l-1.3-1.8l-1.3,1.8H147l2.5-3.5l-2.4-3.4h2.4l1.2,1.7l1.2-1.7h2.4l-2.4,3.4l2.5,3.5H151.9z"/>
	<path class="st1" d="M160.9,13.7v1.9h3.6v2.1h-3.6v3.6h-2.2v-9.8h5.9v2.1H160.9z"/>
	<path class="st1" d="M172.4,14.3v7h-2.1v-0.7c-0.4,0.5-1.1,0.8-2,0.8c-1.4,0-2.6-1-2.6-2.9v-4.3h2.1v4c0,0.9,0.5,1.3,1.2,1.3
		c0.8,0,1.3-0.4,1.3-1.4v-3.8H172.4z"/>
	<path class="st1" d="M180.6,17v4.3h-2.1v-4c0-0.9-0.5-1.3-1.2-1.3c-0.8,0-1.3,0.4-1.3,1.4v3.8H174v-7h2.1V15c0.4-0.5,1.1-0.8,2-0.8
		C179.4,14.1,180.6,15.1,180.6,17z"/>
	<path class="st1" d="M189.2,11.5v9.8h-2.1v-0.7c-0.5,0.5-1.1,0.8-2.1,0.8c-1.8,0-3.3-1.6-3.3-3.7s1.5-3.7,3.3-3.7
		c0.9,0,1.6,0.3,2.1,0.8v-3.4H189.2z M187.1,17.8c0-1-0.7-1.7-1.7-1.7c-1,0-1.7,0.7-1.7,1.7c0,1,0.7,1.7,1.7,1.7
		C186.4,19.5,187.1,18.9,187.1,17.8z"/>
</g>
</svg>
