<?xml version="1.0" encoding="utf-8"?>
<!-- Roman Inozemtsev: https://github.com/mir-one/  -->
<svg version="1.1"
	 id="Слой_1" shape-rendering="geometricPrecision" text-rendering="geometricPrecision" image-rendering="optimizeQuality"
	 xmlns="http://www.w3.org/2000/svg" xmlns:xlink="http://www.w3.org/1999/xlink" x="0px" y="0px" viewBox="0 0 256.7 32.2"
	 style="enable-background:new 0 0 256.7 32.2;" xml:space="preserve">
<style type="text/css">
	.st0{fill:url(#SVGID_1_);}
	.st1{fill:#262261;}
</style>
<linearGradient id="SVGID_1_" gradientUnits="userSpaceOnUse" x1="76.27" y1="26.9564" x2="72.0365" y2="1.8807">
	<stop  offset="0" style="stop-color:#2B388F"/>
	<stop  offset="0.1142" style="stop-color:#38348F"/>
	<stop  offset="0.3279" style="stop-color:#5C2A8E"/>
	<stop  offset="0.618" style="stop-color:#95198D"/>
	<stop  offset="0.97" style="stop-color:#E4028B"/>
	<stop  offset="1" style="stop-color:#EB008B"/>
</linearGradient>
<path class="st0" d="M85,17.7c0-0.1,0-0.2,0-0.2c0-0.1,0-0.2,0-0.2c0-0.1,0-0.2-0.1-0.2c-0.1-0.3-0.1-0.6-0.3-0.8
	c-0.1-0.3-0.2-0.5-0.3-0.8c-0.2-0.4-0.3-0.8-0.5-1.1c-0.1-0.3-0.3-0.6-0.4-0.9c-0.1-0.2-0.2-0.3-0.3-0.5c-0.1-0.2-0.2-0.3-0.3-0.5
	c-0.1-0.2-0.2-0.3-0.3-0.5c-0.1-0.2-0.2-0.4-0.4-0.6l0,0c-0.1-0.2-0.2-0.4-0.3-0.6c-0.1-0.2-0.2-0.4-0.3-0.5
	c-0.1-0.2-0.3-0.4-0.4-0.6c-0.1-0.1-0.2-0.3-0.3-0.4c-0.1-0.2-0.3-0.4-0.4-0.6c-0.2-0.3-0.4-0.5-0.6-0.8c-0.1-0.2-0.3-0.4-0.5-0.5
	c-0.2-0.2-0.4-0.3-0.6-0.4c-1.1-0.5-2.7-0.2-3.5,0.9c-0.2,0.2-0.3,0.4-0.5,0.6c-0.2,0.3-0.4,0.5-0.6,0.8l0,0l0,0
	c-0.3,0.4-0.5,0.7-0.8,1.1c-0.2,0.3-0.4,0.5-0.5,0.8c-0.1,0.2-0.3,0.4-0.4,0.6c-0.1,0.2-0.2,0.3-0.3,0.5l0,0
	c-0.1,0.2-0.2,0.2-0.4,0.2c-0.7,0-1.4,0-2.2,0.1c0,0-0.1,0-0.1,0c-1,0.1-1.9,0.2-2.9,0.3c-0.7,0.1-1.3,0.4-1.7,0.9
	c-0.3,0.3-0.5,0.6-0.6,1l0,0c-0.1,0.1-0.1,0.3-0.1,0.5c-0.1,0.2-0.1,0.4-0.1,0.6c0,0.2,0,0.4,0.1,0.6l0,0c0,0.1,0,0.3,0.1,0.4l0,0
	c0,0.2,0.1,0.3,0.2,0.5l0,0c0.1,0.2,0.1,0.4,0.2,0.5c0,0,0,0,0,0c0.1,0.2,0.1,0.4,0.2,0.5c0.1,0.3,0.2,0.5,0.4,0.8l0,0
	c0.2,0.4,0.3,0.7,0.5,1.1c0.1,0.3,0.3,0.5,0.4,0.8c0.1,0.2,0.2,0.5,0.4,0.7c0.1,0.3,0.3,0.5,0.4,0.7c0.2,0.3,0.3,0.6,0.5,0.8
	c0.5,0.8,1.1,1.6,1.8,2.4c0.5,0.6,1.2,1,2,1c0.1,0,0.3,0,0.5,0c0,0,0,0,0.1,0c0.2-0.1,0.4-0.1,0.6-0.2c0.1,0,0.2,0,0.3-0.1
	c0.2-0.1,0.4-0.2,0.6-0.4c0.1,0,0.2-0.1,0.2-0.2c0.1-0.1,0.1-0.1,0.2-0.2c0.3-0.4,0.7-0.9,1-1.3c0.1-0.1,0.1-0.1,0.2-0.2
	c0,0,0,0,0,0c0.1-0.1,0.1-0.1,0.2-0.2c0-0.1,0.1-0.2,0.1-0.2c0,0,0.1-0.1,0.1-0.1c0.2-0.3,0.4-0.6,0.6-0.9c0,0,0.1-0.1,0.1-0.1
	c0.1-0.1,0.2-0.3,0.3-0.4c0.2-0.2,0.3-0.3,0.3-0.6c0.1-0.1,0.1-0.3,0.2-0.4c0.1,0,0-0.1,0.1-0.1c0,0,0-0.1,0-0.1c0,0,0,0,0-0.1
	c0,0,0,0,0,0c0.1,0,0.1-0.1,0.1-0.2c0-0.1,0.1-0.2,0.2-0.3c0.1-0.1,0.2-0.2,0.2-0.4c0,0,0-0.1,0-0.1c0-0.1,0.1-0.1,0.1-0.2
	c0.1-0.1,0.2-0.2,0.2-0.4c0-0.1,0.1-0.3,0.2-0.4c0,0,0.1-0.1,0.1-0.1c0,0,0-0.1,0.1-0.1c0.1-0.2,0.2-0.5,0.3-0.7
	c0.1-0.2,0.2-0.4,0.3-0.7c0.1-0.1,0.1-0.1,0.1-0.2c0.1,0,0.1-0.2,0.1-0.2c0-0.2,0.1-0.4,0.1-0.6c0,0,0.1-0.1,0-0.1
	c0-0.2,0-0.3,0-0.5c0,0,0,0,0,0c0,0,0,0,0-0.1c0-0.1-0.1-0.3-0.1-0.4c0-0.1,0-0.2-0.1-0.3c0,0,0-0.1-0.1-0.1
	c-0.1-0.2-0.2-0.4-0.3-0.6c0,0,0,0,0,0c0-0.1-0.1-0.2-0.2-0.2c0,0,0,0,0,0c0-0.1-0.1-0.2-0.2-0.2c0-0.1-0.1-0.1-0.1-0.1
	c-0.1-0.1-0.3-0.2-0.4-0.3c0,0,0,0-0.1,0c0-0.1-0.1-0.1-0.2-0.1c-0.1,0-0.1,0-0.2-0.1c-0.3-0.1-0.5-0.2-0.8-0.2
	c-0.2,0-0.3,0.1-0.3,0.3l0,0c-0.1,0-0.1,0.1-0.1,0.2c-0.1,0.1-0.1,0.2-0.2,0.3c0,0,0,0.1,0,0.1c-0.1,0-0.1,0.1-0.1,0.2
	c-0.1,0.1-0.1,0.2-0.2,0.3c0,0,0,0,0,0c-0.1,0-0.1,0.1-0.1,0.2c0,0.1,0,0.1,0,0.2c0,0.1,0,0.2,0.1,0.2c0,0,0,0.1,0,0.1
	c0,0.1,0.1,0.1,0.2,0.1c0.1,0.1,0.2,0.1,0.3,0.1c0.2,0,0.3,0,0.5,0.1c0.3,0.3,0.3,0.5,0.1,0.9c0,0,0,0.1-0.1,0.1
	c-0.1,0.1-0.1,0.2-0.1,0.2c0,0,0,0,0,0c-0.1,0.1-0.1,0.1-0.1,0.2c0,0,0,0,0,0c-0.1,0.1-0.1,0.1-0.1,0.2c0,0,0,0,0,0
	c-0.1,0.1-0.1,0.2-0.1,0.2c0,0.1-0.1,0.1-0.1,0.2c-0.1,0.2-0.2,0.3-0.2,0.5c-0.1,0.1-0.1,0.1-0.1,0.2c0,0.1-0.1,0.1-0.1,0.2
	c0,0-0.1,0-0.1,0c0,0-0.1,0-0.1,0c-0.1-0.1-0.2,0-0.3,0c0,0-0.1,0-0.1,0c-0.1-0.1-0.2,0-0.3,0c-0.1,0-0.1,0-0.2,0
	c-0.1,0-0.1,0-0.2,0c0,0-0.1,0-0.1,0c-0.1,0-0.1,0-0.2,0c-0.3,0-0.6-0.1-0.9-0.1c-0.1-0.1-0.3,0-0.4-0.2c0-0.1-0.1-0.2-0.2-0.2
	c-0.1-0.2,0-0.4,0-0.6c0,0,0.1-0.1,0.1-0.1c0.1-0.1,0.1-0.1,0.1-0.2c0.1-0.2,0.2-0.5,0.3-0.7c0.1-0.2,0.2-0.4,0.3-0.6
	c0,0,0.1-0.1,0.1-0.1c0,0,0,0,0,0c0.1,0,0-0.1,0.1-0.1c0-0.2,0.2-0.3,0.2-0.5c0.1-0.2,0.2-0.4,0.3-0.6l0,0l0,0
	c0-0.1,0.1-0.2,0.1-0.2c0.1-0.1,0.1-0.2,0.2-0.3c0,0,0,0,0,0c0,0,0-0.1,0.1-0.1c0.1,0,0.1-0.1,0.1-0.2c0-0.1,0.1-0.2,0.1-0.3
	c0,0,0,0,0,0c0.1,0,0.1-0.1,0.1-0.2c0-0.1,0.1-0.1,0.1-0.2c0.1-0.1,0.2-0.1,0.1-0.3c0,0,0,0,0,0c0.1,0,0.1-0.1,0.1-0.1
	c0-0.1,0-0.1,0.1-0.1c0.1,0,0.1-0.1,0.1-0.2c0,0,0,0,0-0.1c0.1-0.1,0.2-0.3,0.3-0.4c0.1-0.1,0.2-0.2,0.2-0.3c0,0,0.1-0.1,0.1-0.1
	c0.1,0,0.1-0.1,0.1-0.1c0,0,0.1-0.1,0.1-0.1c0.1-0.1,0.1-0.1,0.2-0.2c0,0,0,0,0,0c0,0,0.1-0.1,0.1-0.1c0,0,0,0,0,0
	c0.1,0,0.1,0,0.1-0.1c0.1-0.2,0.3-0.4,0.5-0.7c0,0,0,0,0,0c0.1,0,0.1-0.1,0.2-0.2c0-0.1,0-0.1,0.1-0.1c0.1,0,0.2-0.1,0.2-0.1
	c0.1-0.1,0.2,0,0.3,0c0.1,0.1,0.2,0.1,0.3,0.2c0,0,0,0,0,0c0.1,0.1,0.1,0.2,0.2,0.3c0.1,0.1,0.1,0.2,0.2,0.2c0,0,0,0,0,0
	c0,0.2,0.2,0.3,0.3,0.5c0,0.1,0,0.1,0.1,0.1c0,0,0,0,0,0c0,0.1,0.1,0.2,0.2,0.2c0,0,0,0,0,0c0,0.1,0.1,0.2,0.2,0.2c0,0,0,0,0,0
	c0,0,0,0,0,0c0,0,0,0,0,0c0,0.1,0.1,0.1,0.1,0.1c0.1,0.1,0.1,0.3,0.2,0.3c0,0,0,0,0,0c0.1,0.1,0.1,0.2,0.2,0.3
	c0,0.1,0.1,0.2,0.2,0.3c0,0,0,0,0,0.1c0,0.1,0.1,0.1,0.1,0.2c0,0.1,0,0.1,0.1,0.2c0,0.1,0.1,0.1,0.1,0.2c0.1,0.2,0.1,0.3,0.3,0.4
	c0,0.2,0.2,0.3,0.2,0.4c0,0,0,0,0,0c0,0,0,0,0,0c0,0.1,0,0.2,0.1,0.2c0,0.1,0.1,0.1,0.1,0.2C81,14,81,14,81,14c0,0.1,0,0.1,0.1,0.1
	c0.1,0.3,0.3,0.5,0.4,0.8c0,0.1,0.1,0.1,0.1,0.2c0,0.1,0,0.2,0.1,0.2c0,0.1,0.1,0.2,0.1,0.3c0,0.1,0,0.2,0.1,0.2
	c0,0.1,0,0.1,0.1,0.1c0,0.1,0,0.2,0.1,0.3c0,0.1,0,0.2,0.1,0.2c0,0,0,0,0,0c0,0.1,0,0.1,0.1,0.2c0,0,0,0,0,0c0,0,0,0,0,0.1
	c0.1,0.2,0.2,0.4,0.2,0.6c0,0,0,0.1,0,0.1c-0.1,0.1-0.1,0.2-0.1,0.3c0,0,0,0,0,0c-0.1,0-0.1,0.1-0.2,0.2c-0.2,0.1-0.3,0.1-0.5,0.1
	c-0.1,0-0.2-0.1-0.3,0c0,0,0,0,0,0c-0.1,0-0.2-0.1-0.3,0c-0.2,0-0.5,0.1-0.7,0.1c-0.1,0.1-0.2-0.1-0.3,0c0,0,0,0,0,0
	c-0.1,0-0.2,0-0.3,0.1c-0.1,0-0.1,0.1-0.1,0.2c-0.1,0.1-0.1,0.2-0.1,0.2c0,0.1-0.1,0.1-0.1,0.2c-0.1,0.1-0.1,0.1-0.1,0.2
	c-0.1,0.1-0.1,0.2-0.2,0.3c-0.1,0.1-0.1,0.1-0.1,0.2c0,0.1-0.1,0.1-0.1,0.2c0,0,0,0.1,0,0.1c0,0.1-0.1,0.2,0,0.3
	c0.1,0.2,0.2,0.3,0.4,0.3c0.1,0,0.1,0,0.2,0c0.1,0,0.1,0,0.2,0c0.1-0.1,0.2,0.1,0.3,0c0,0,0.1,0,0.1,0c0.1-0.1,0.2,0.1,0.4,0
	c0,0,0,0,0.1,0c0.1,0,0.2,0.1,0.3,0l0,0l0,0c0.1,0,0.2,0,0.2,0c0.4-0.1,0.8-0.1,1.2-0.2c0.1,0,0.2,0,0.3-0.1c0,0,0.1,0,0.1,0
	c0.1,0,0.2,0,0.3-0.1c0.1-0.1,0.2-0.1,0.4-0.2c0.1,0,0.1-0.1,0.2-0.1c0.4-0.3,0.7-0.8,0.9-1.2c0,0,0,0,0,0c0,0,0,0,0,0
	c0.1,0,0.1-0.1,0.1-0.2c0.1-0.2,0.1-0.4,0.2-0.6C85,17.8,85,17.7,85,17.7z M73.7,21.6c-0.5,0.8-1.1,1.5-1.6,2.2
	c-0.3,0.4-0.7,0.4-1,0c-0.3-0.4-0.6-0.9-1-1.3c0-0.1-0.1-0.1-0.2-0.2c0,0,0,0,0,0c-0.2-0.3-0.3-0.6-0.6-0.8c0,0,0,0,0,0
	c-0.1-0.3-0.2-0.5-0.5-0.7c0-0.2-0.2-0.4-0.3-0.6c0,0,0,0-0.1,0c0,0,0-0.1,0-0.1c-0.1-0.2-0.2-0.4-0.3-0.5c0,0,0-0.1-0.1-0.1
	c0,0,0,0,0,0c0-0.1,0-0.1,0-0.2c-0.1-0.3-0.3-0.5-0.4-0.8c0-0.1-0.1-0.1-0.1-0.1c0,0,0-0.1,0-0.1c-0.1-0.3-0.2-0.5-0.4-0.7
	c0-0.2-0.1-0.4-0.2-0.5c0-0.2-0.1-0.4-0.2-0.5c0-0.2-0.1-0.4-0.2-0.5c0-0.1,0-0.1,0-0.2c0,0,0,0,0,0c0,0,0,0,0-0.1
	c0.1-0.4,0.2-0.5,0.6-0.6c0.8-0.1,1.7-0.2,2.5-0.3c0.1,0,0.1,0,0.2-0.1c0,0,0,0,0,0c0,0,0,0,0,0c0.1,0.1,0.2,0,0.4,0
	c0.1,0,0.3,0,0.4,0c0.1,0,0.2,0,0.3,0.1c-0.2,0.1-0.2,0.3-0.2,0.5c0,0,0,0.1,0,0.1c0,0,0,0,0,0c-0.2,0.2-0.2,0.3-0.2,0.6
	c0,0,0,0,0,0c-0.1,0.2-0.2,0.4-0.3,0.6c0,0,0,0.1,0,0.1c0,0,0,0,0,0c-0.1,0.3-0.1,0.6-0.1,0.9c0,0,0,0.1,0.1,0.1c0,0.1,0,0.1,0,0.2
	c0,0.3,0.1,0.6,0.3,0.9c0,0,0,0.1,0.1,0.1c0.1,0.3,0.2,0.5,0.5,0.7c0,0.1,0,0.1,0.1,0.1c0.2,0.2,0.4,0.3,0.6,0.4c0,0,0.1,0,0.2,0
	c0,0.1,0.1,0.1,0.2,0.1c0.4,0.2,0.8,0.2,1.2,0.2c0.2,0,0.5,0.1,0.7,0.1c0,0,0,0,0,0c0,0,0.1,0.1,0.1,0.1c0.3,0,0.3,0,0.1,0.3
	c0,0.1-0.1,0.1-0.1,0.2c0,0.1-0.1,0.1-0.1,0.2C73.8,21.4,73.7,21.5,73.7,21.6z"/>
<g>
	<path class="st1" d="M91.7,15.4c0-2.9,2.1-5.1,5.1-5.1c1.8,0,3.3,0.9,4.2,2.3l-1.9,1.1c-0.4-0.8-1.3-1.2-2.3-1.2
		c-1.7,0-2.8,1.2-2.8,2.9s1.1,2.9,2.8,2.9c1,0,1.8-0.4,2.3-1.2l1.9,1.1c-0.8,1.4-2.4,2.3-4.2,2.3C93.9,20.5,91.7,18.3,91.7,15.4z"/>
	<path class="st1" d="M106.3,13.2v2.4c-0.9-0.1-2.1,0.2-2.1,1.6v3.1h-2.1v-7h2.1v1.2C104.5,13.6,105.4,13.2,106.3,13.2z"/>
	<path class="st1" d="M114,13.3l-2.4,6.8c-0.8,2.2-2,3.1-4,3v-2c1,0,1.4-0.3,1.7-1.2l-2.8-6.6h2.3l1.5,4.3l1.3-4.3H114z"/>
	<path class="st1" d="M122.3,16.8c0,2.1-1.5,3.7-3.3,3.7c-0.9,0-1.6-0.3-2.1-0.8v3.4h-2.1v-9.8h2.1V14c0.5-0.5,1.1-0.8,2.1-0.8
		C120.8,13.1,122.3,14.7,122.3,16.8z M120.2,16.8c0-1-0.7-1.7-1.7-1.7c-1,0-1.7,0.7-1.7,1.7c0,1,0.7,1.7,1.7,1.7
		C119.5,18.5,120.2,17.9,120.2,16.8z"/>
	<path class="st1" d="M126,15.3v2.5c0,0.6,0.5,0.7,1.4,0.6v1.9c-2.7,0.3-3.5-0.5-3.5-2.5v-2.5h-1.1v-2h1.1V12l2.1-0.6v2h1.4v2H126z"
		/>
	<path class="st1" d="M128.1,16.8c0-2.1,1.6-3.7,3.7-3.7c2,0,3.7,1.6,3.7,3.7s-1.6,3.7-3.7,3.7C129.8,20.5,128.1,18.9,128.1,16.8z
		 M133.4,16.8c0-1-0.7-1.6-1.6-1.6s-1.6,0.7-1.6,1.6c0,1,0.7,1.6,1.6,1.6S133.4,17.8,133.4,16.8z"/>
	<path class="st1" d="M146.5,20.3h-2.2v-5.7l-2.5,4.1h-0.3l-2.5-4.1v5.7h-2.2v-9.8h2.2l2.6,4.3l2.6-4.3h2.2V20.3z"/>
	<path class="st1" d="M147.9,11.5c0-0.7,0.6-1.3,1.3-1.3c0.7,0,1.3,0.6,1.3,1.3c0,0.7-0.6,1.3-1.3,1.3
		C148.5,12.7,147.9,12.2,147.9,11.5z M148.1,13.3h2.1v7h-2.1V13.3z"/>
	<path class="st1" d="M155.9,20.3l-1.3-1.8l-1.3,1.8H151l2.5-3.5l-2.4-3.4h2.4l1.2,1.7l1.2-1.7h2.4l-2.4,3.4l2.5,3.5H155.9z"/>
	<path class="st1" d="M164.9,12.7v1.9h3.6v2.1h-3.6v3.6h-2.2v-9.8h5.9v2.1H164.9z"/>
	<path class="st1" d="M176.4,13.3v7h-2.1v-0.7c-0.4,0.5-1.1,0.8-2,0.8c-1.4,0-2.6-1-2.6-2.9v-4.3h2.1v4c0,0.9,0.5,1.3,1.2,1.3
		c0.8,0,1.3-0.4,1.3-1.4v-3.8H176.4z"/>
	<path class="st1" d="M184.6,16v4.3h-2.1v-4c0-0.9-0.5-1.3-1.2-1.3c-0.8,0-1.3,0.4-1.3,1.4v3.8H178v-7h2.1V14c0.4-0.5,1.1-0.8,2-0.8
		C183.4,13.1,184.6,14.1,184.6,16z"/>
	<path class="st1" d="M193.2,10.5v9.8h-2.1v-0.7c-0.5,0.5-1.1,0.8-2.1,0.8c-1.8,0-3.3-1.6-3.3-3.7s1.5-3.7,3.3-3.7
		c0.9,0,1.6,0.3,2.1,0.8v-3.4H193.2z M191.1,16.8c0-1-0.7-1.7-1.7-1.7c-1,0-1.7,0.7-1.7,1.7c0,1,0.7,1.7,1.7,1.7
		C190.4,18.5,191.1,17.9,191.1,16.8z"/>
</g>
</svg>
