<?xml version="1.0" encoding="utf-8"?>
<!-- Roman Inozemtsev: https://github.com/mir-one/  -->
<svg version="1.1"
	 id="Слой_1" shape-rendering="geometricPrecision" text-rendering="geometricPrecision" image-rendering="optimizeQuality"
	 xmlns="http://www.w3.org/2000/svg" xmlns:xlink="http://www.w3.org/1999/xlink" x="0px" y="0px" viewBox="0 0 93.5 18.3"
	 style="enable-background:new 0 0 93.5 18.3;" xml:space="preserve">
<style type="text/css">
	.st0{fill:#262261;}
</style>
<g>
	<path class="st0" d="M0,7.4c0-4,3-7.1,7.1-7.1c2.5,0,4.7,1.2,5.9,3.2L10.3,5C9.7,4,8.5,3.4,7.1,3.4c-2.4,0-4,1.6-4,4.1
		s1.6,4.1,4,4.1c1.4,0,2.6-0.6,3.2-1.7l2.7,1.6c-1.2,1.9-3.4,3.2-5.9,3.2C3,14.5,0,11.5,0,7.4z"/>
	<path class="st0" d="M20.4,4.3v3.3c-1.2-0.2-2.9,0.3-2.9,2.2v4.4h-2.9V4.5h2.9v1.7C17.9,4.9,19.2,4.3,20.4,4.3z"/>
	<path class="st0" d="M31.3,4.5L27.9,14c-1.1,3.1-2.8,4.3-5.6,4.2v-2.7c1.4,0,2-0.4,2.4-1.6l-3.9-9.3h3.2l2.2,6l1.8-6H31.3z"/>
	<path class="st0" d="M42.9,9.4c0,2.9-2.1,5.2-4.7,5.2c-1.3,0-2.3-0.4-2.9-1.2v4.8h-2.9V4.5h2.9v0.9c0.6-0.7,1.6-1.2,2.9-1.2
		C40.8,4.2,42.9,6.5,42.9,9.4z M39.9,9.4c0-1.5-1-2.4-2.3-2.4c-1.3,0-2.3,0.9-2.3,2.4s1,2.4,2.3,2.4C39,11.8,39.9,10.8,39.9,9.4z"/>
	<path class="st0" d="M48.1,7.3v3.5c0,0.8,0.7,0.9,2,0.8v2.7c-3.8,0.4-4.9-0.8-4.9-3.5V7.3h-1.6V4.5h1.6V2.6l2.9-0.9v2.7h2v2.8H48.1
		z"/>
	<path class="st0" d="M51.1,9.4c0-2.9,2.3-5.2,5.2-5.2c2.9,0,5.2,2.2,5.2,5.2s-2.3,5.2-5.2,5.2C53.4,14.5,51.1,12.3,51.1,9.4z
		 M58.5,9.4c0-1.4-1-2.3-2.2-2.3C55,7.1,54,8,54,9.4c0,1.4,1,2.3,2.2,2.3C57.5,11.7,58.5,10.8,58.5,9.4z"/>
	<path class="st0" d="M76.9,14.3h-3.1v-8l-3.5,5.8h-0.4l-3.5-5.8v8h-3.1V0.6h3.1L70,6.7l3.7-6.1h3.1V14.3z"/>
	<path class="st0" d="M78.8,1.9c0-1,0.8-1.8,1.8-1.8c1,0,1.8,0.8,1.8,1.8c0,1-0.8,1.8-1.8,1.8C79.6,3.6,78.8,2.8,78.8,1.9z
		 M79.1,4.5h2.9v9.8h-2.9V4.5z"/>
	<path class="st0" d="M90.1,14.3l-1.8-2.6l-1.8,2.6h-3.4l3.5-5l-3.4-4.8h3.4l1.7,2.4L90,4.5h3.4L90,9.3l3.5,5H90.1z"/>
</g>
</svg>
