<?xml version="1.0" encoding="utf-8"?>
<!-- Roman Inozemtsev: https://github.com/mir-one/  -->
<svg version="1.1"
	 id="Слой_1" shape-rendering="geometricPrecision" text-rendering="geometricPrecision" image-rendering="optimizeQuality"
	 xmlns="http://www.w3.org/2000/svg" xmlns:xlink="http://www.w3.org/1999/xlink" x="0px" y="0px" viewBox="0 0 234 155.1"
	 style="enable-background:new 0 0 234 155.1;" xml:space="preserve">
<style type="text/css">
	.st0{fill:url(#SVGID_1_);}
	.st1{fill:#262261;}
</style>
<linearGradient id="SVGID_1_" gradientUnits="userSpaceOnUse" x1="125.6996" y1="101.1873" x2="104.5156" y2="-24.2905">
	<stop  offset="0" style="stop-color:#2B388F"/>
	<stop  offset="0.1142" style="stop-color:#38348F"/>
	<stop  offset="0.3279" style="stop-color:#5C2A8E"/>
	<stop  offset="0.618" style="stop-color:#95198D"/>
	<stop  offset="0.97" style="stop-color:#E4028B"/>
	<stop  offset="1" style="stop-color:#EB008B"/>
</linearGradient>
<path class="st0" d="M169.4,54.7c0-0.4,0-0.8,0-1.2c-0.2-0.4,0-0.8-0.1-1.2c-0.1-0.4-0.2-0.8-0.3-1.1c-0.3-1.4-0.7-2.9-1.5-4.1
	c-0.3-1.3-1-2.5-1.5-3.8c-0.8-1.9-1.6-3.8-2.6-5.6c-0.5-1.5-1.4-2.9-2.1-4.3c-0.4-0.8-0.8-1.7-1.3-2.4c-0.3-0.9-0.8-1.7-1.3-2.4
	c-0.4-0.9-0.8-1.7-1.4-2.4c-0.5-1-1.1-2.1-1.8-3l0,0c-0.5-1-1.1-1.9-1.7-2.8c-0.5-0.9-1.1-1.8-1.7-2.6c-0.7-1.1-1.4-2.2-2.2-3.2
	c-0.4-0.7-0.9-1.4-1.5-2.1c-0.6-1-1.3-1.9-2.1-2.8c-0.8-1.4-1.9-2.7-3-3.9c-0.7-1-1.5-1.8-2.4-2.4c-0.9-0.8-2-1.5-3.2-1.9
	c-5.5-2.6-13.4-1.2-17.5,4.3c-0.9,1-1.7,2.1-2.4,3.2c-1.1,1.3-2,2.6-2.9,4l0,0l0,0c-1.4,1.8-2.7,3.7-3.9,5.6c-0.9,1.3-1.8,2.6-2.5,4
	c-0.7,0.9-1.3,1.9-1.8,3c-0.4,0.8-0.9,1.5-1.3,2.3l0,0c-0.4,0.8-1,1-1.9,0.9c-3.6-0.1-7.2,0-10.8,0.3c-0.2,0-0.4,0-0.6,0
	c-4.8,0.4-9.7,0.8-14.5,1.5c-3.4,0.5-6.3,1.8-8.6,4.4c-1.4,1.4-2.4,3.1-3.2,4.9l0,0c-0.3,0.7-0.6,1.5-0.7,2.3
	c-0.3,0.9-0.4,1.9-0.4,2.8c-0.1,1.1,0,2.2,0.3,3.3l0,0c0,0.7,0.2,1.4,0.6,2.1l0,0c0.2,0.8,0.5,1.6,1,2.4l0,0
	c0.3,0.9,0.7,1.8,1.1,2.6c0,0,0,0,0,0c0.3,0.9,0.7,1.8,1.1,2.6c0.5,1.4,1.1,2.7,1.9,4l0,0c0.8,1.8,1.7,3.6,2.7,5.4
	c0.6,1.3,1.3,2.6,2,3.8c0.5,1.2,1.2,2.3,1.9,3.3c0.7,1.3,1.4,2.5,2.2,3.6c0.8,1.4,1.7,2.8,2.6,4.1c2.7,4.2,5.7,8.2,8.8,12.1
	c2.6,3.2,6,4.8,10.1,5.2c0.7,0.2,1.5-0.1,2.3,0.2c0.1,0,0.3,0,0.4,0c1-0.3,2.1-0.5,3.1-0.8c0.5-0.1,1-0.1,1.4-0.5
	c1.1-0.6,2.2-1.2,3.2-1.9c0.5-0.2,1-0.4,1.1-1c0.3-0.3,0.6-0.6,0.9-1c1.7-2.1,3.3-4.3,5-6.5c0.5-0.3,0.7-0.7,0.9-1.2
	c0-0.1,0-0.1,0.1-0.1c0.5-0.3,0.7-0.7,0.9-1.2c0.2-0.4,0.4-0.8,0.7-1.1c0.2-0.1,0.3-0.4,0.4-0.6c1-1.5,2-3,3-4.5
	c0.2-0.1,0.3-0.4,0.4-0.6c0.3-0.7,0.8-1.4,1.3-2c0.8-0.8,1.4-1.7,1.7-2.8c0.3-0.7,0.7-1.4,1.2-2c0.3-0.1,0.2-0.5,0.4-0.7
	c-0.1-0.2,0.1-0.4,0.2-0.6c0.1-0.1,0.2-0.2,0.2-0.4c0,0,0,0,0,0c0.5,0,0.4-0.5,0.5-0.8c0.2-0.6,0.5-1.2,0.9-1.7
	c0.6-0.5,0.8-1.2,1-1.9c0.1-0.2,0.1-0.5,0.2-0.7c0.2-0.3,0.3-0.5,0.5-0.8c0.6-0.5,0.8-1.2,1-1.9c0.2-0.7,0.6-1.4,0.9-2
	c0.2-0.2,0.4-0.4,0.3-0.6c0.2-0.1,0.2-0.3,0.3-0.5c0.5-1.2,1-2.5,1.5-3.7c0.5-1.1,1-2.2,1.5-3.4c0.3-0.3,0.6-0.6,0.4-1.1
	c0.7-0.2,0.3-0.8,0.5-1.2c0.2-0.9,0.4-1.8,0.6-2.8c0.1-0.2,0.3-0.4,0.2-0.6c-0.2-0.8,0-1.5-0.1-2.3c0-0.1-0.1-0.1-0.1-0.1
	c0.1-0.1,0.1-0.2,0-0.3c-0.2-0.7-0.4-1.4-0.4-2.1c0.1-0.6,0-1.1-0.5-1.5c-0.1-0.1-0.2-0.3-0.3-0.4c-0.3-1-0.9-1.9-1.5-2.8
	c0,0,0-0.1,0-0.1c-0.2-0.5-0.4-1-0.9-1.2c-0.1-0.1-0.1-0.1-0.2-0.2c-0.2-0.3-0.3-0.8-0.8-0.9c0.1-0.4-0.4-0.3-0.5-0.5
	c-0.6-0.5-1.3-1-1.9-1.4c-0.1-0.2-0.2-0.2-0.3-0.2c-0.1-0.4-0.5-0.3-0.8-0.4c-0.3,0-0.6-0.2-0.8-0.3c-1.4-0.5-2.7-1.2-4.2-0.8
	c-0.8,0.2-1.3,0.5-1.5,1.4l0,0c-0.4,0.2-0.5,0.5-0.6,0.9c-0.3,0.5-0.6,1-1,1.5c-0.1,0.1,0,0.3-0.2,0.4c-0.3,0.2-0.5,0.5-0.5,1
	c-0.3,0.6-0.7,1.1-1,1.7c-0.1,0.1-0.1,0.2-0.1,0.2c-0.5,0.2-0.3,0.7-0.5,1.1c0,0.4,0,0.7,0,1.1c0.2,0.3-0.1,0.9,0.5,1
	c0,0.1,0.1,0.3,0.2,0.4c0.2,0.3,0.4,0.5,0.8,0.6c0.4,0.5,0.9,0.3,1.4,0.3c0.8,0.1,1.6,0.2,2.4,0.6c1.3,1.3,1.5,2.7,0.6,4.3
	c-0.1,0.2-0.2,0.5-0.3,0.7c-0.4,0.3-0.4,0.8-0.5,1.2c0,0,0,0.1,0,0.1c-0.4,0.3-0.5,0.7-0.5,1.2c0,0.1,0,0.1,0,0.1
	c-0.4,0.3-0.5,0.7-0.5,1.2c0,0.1,0,0.1,0,0.1c-0.4,0.3-0.4,0.8-0.5,1.2c0,0.3-0.5,0.5-0.4,0.9c-0.4,0.8-0.8,1.6-1.2,2.4
	c-0.3,0.3-0.5,0.7-0.5,1.2c-0.2,0.4-0.4,0.7-0.6,1.1c-0.2,0.1-0.4,0.1-0.6,0.2c-0.2-0.2-0.5-0.1-0.7-0.2c-0.5-0.5-1.2,0.2-1.7-0.2
	c-0.2,0-0.3,0-0.5,0c-0.5-0.5-1.1,0.1-1.6-0.2c-0.3,0-0.6,0-0.9-0.1c-0.3-0.1-0.7,0-1-0.1c-0.2,0-0.5,0-0.7,0c-0.3-0.1-0.7,0-1-0.1
	c-1.4,0.1-2.8-0.4-4.3-0.4c-0.6-0.3-1.4-0.2-1.9-0.8c-0.2-0.4-0.3-0.9-0.8-1c-0.7-1-0.2-2,0.1-3c0.1-0.2,0.3-0.4,0.4-0.6
	c0.4-0.3,0.5-0.7,0.5-1.2c0.3-1.2,1-2.3,1.3-3.5c0.5-1,1-2,1.3-3c0.2-0.2,0.5-0.4,0.3-0.7c0,0,0,0,0,0c0.3,0,0.2-0.3,0.3-0.4
	c0.2-0.9,0.8-1.5,1-2.4c0.5-0.9,1-1.9,1.5-2.8l0,0l0,0c0.2-0.4,0.5-0.8,0.7-1.1c0.5-0.3,0.7-0.9,0.8-1.5c0-0.1,0-0.1,0-0.2
	c0.1-0.1,0.2-0.3,0.3-0.4c0.5-0.2,0.5-0.7,0.6-1.1c0.2-0.5,0.5-1,0.7-1.5c0,0,0.1,0,0.1,0c0.4-0.2,0.6-0.5,0.6-0.9
	c0.1-0.4,0.3-0.7,0.5-0.9c0.4-0.3,0.8-0.7,0.6-1.3c0,0,0,0,0.1,0c0.4,0,0.5-0.3,0.5-0.6c0-0.3,0.2-0.4,0.3-0.6
	c0.5-0.2,0.5-0.7,0.6-1.1c0.1-0.1,0.1-0.2,0.2-0.4c0.5-0.7,0.9-1.4,1.4-2.1c0.4-0.5,0.8-1,1.2-1.5c0.2-0.2,0.4-0.4,0.4-0.7
	c0.3-0.1,0.4-0.4,0.5-0.6c0.1-0.2,0.3-0.4,0.4-0.6c0.5-0.3,0.7-0.7,0.9-1.2c0-0.1,0-0.1,0.1-0.1c0.2-0.2,0.4-0.4,0.4-0.7
	c0,0,0,0,0,0c0.3,0,0.4-0.2,0.5-0.5c0.6-1.2,1.7-2.1,2.3-3.3c0-0.1,0.1-0.1,0.1-0.2c0.6,0,0.7-0.6,0.9-1c0.1-0.3,0.2-0.6,0.6-0.7
	c0.4-0.2,0.8-0.4,1.1-0.7c0.5-0.3,1-0.2,1.5-0.2c0.5,0.4,1.2,0.5,1.6,0.9c0.1,0.1,0.1,0.1,0.2,0.2c0.3,0.4,0.6,0.9,0.9,1.3
	c0.3,0.5,0.4,1.1,1.1,1.2c0,0,0,0,0,0c0.2,1,0.8,1.7,1.6,2.3c0,0.3,0.2,0.5,0.5,0.7c0.1,0,0.1,0.1,0.1,0.1c0.2,0.5,0.4,0.9,0.9,1.2
	c0,0,0.1,0.1,0.1,0.1c0.2,0.4,0.3,1,0.9,1c0,0,0,0,0,0c0,0,0,0-0.1,0c0,0,0,0.1,0,0.1c0.1,0.3,0.3,0.5,0.5,0.7
	c0.3,0.6,0.5,1.3,1.2,1.6c0,0.1,0,0.1,0,0.2c0.3,0.4,0.6,0.9,0.8,1.3c0.2,0.6,0.4,1.2,1,1.4c0,0.1,0,0.2,0.1,0.3
	c0.2,0.3,0.4,0.6,0.6,0.9c0,0.4,0.2,0.7,0.5,1c0.2,0.3,0.5,0.6,0.7,1c0.3,0.8,0.7,1.6,1.3,2.2c0.2,0.8,0.8,1.4,1.1,2.1
	c0,0,0.1,0,0.1,0c0,0,0,0,0,0c-0.1,0.5,0.1,0.8,0.4,1.1c0.2,0.3,0.4,0.7,0.6,1c0.1,0.3,0.1,0.6,0.4,0.7c0,0.3,0.1,0.5,0.3,0.7
	c0.7,1.3,1.4,2.6,2.1,3.9c0.1,0.3,0.3,0.6,0.4,0.9c0.1,0.4,0.2,0.8,0.5,1.2c0.1,0.5,0.5,0.8,0.6,1.3c0,0.5,0.2,0.9,0.5,1.2
	c0,0.3,0.2,0.5,0.4,0.7c0.2,0.5,0.2,1.1,0.6,1.5c0,0.5,0.2,0.9,0.5,1.2c0,0,0.1,0.1,0,0.1c0.1,0.3,0,0.7,0.5,0.8c0,0,0,0,0,0
	c0,0.1,0,0.2,0,0.4c0.4,1,0.8,2,1.2,3c0.1,0.2,0,0.4,0.2,0.6c-0.4,0.5-0.4,1.1-0.6,1.7c-0.1,0.1-0.1,0.1-0.2,0.2
	c-0.4,0.2-0.7,0.6-1.1,0.9c-0.8,0.3-1.6,0.4-2.4,0.4c-0.4,0.2-1-0.3-1.4,0.2c0,0-0.1,0-0.1,0c-0.4,0.2-1-0.3-1.4,0.2
	c-1.2,0.2-2.5,0.4-3.7,0.4c-0.5,0.3-1.1-0.3-1.6,0.2c0,0-0.1,0-0.2,0c-0.5,0.1-1.1,0.1-1.3,0.7c-0.3,0.2-0.5,0.4-0.6,0.8
	c-0.4,0.3-0.4,0.8-0.5,1.2c-0.1,0.3-0.3,0.6-0.4,0.9c-0.3,0.3-0.5,0.7-0.5,1.2c-0.3,0.5-0.5,1.1-0.8,1.6c-0.3,0.3-0.5,0.7-0.5,1.2
	c-0.2,0.4-0.4,0.7-0.5,1.1c0,0.1,0,0.3-0.1,0.4c-0.2,0.6-0.3,1.2,0.2,1.7c0.4,0.9,1.1,1.5,2.1,1.5c0.4,0.1,0.7,0.1,1.1,0
	c0.3,0,0.6,0,0.9,0c0.6-0.3,1.2,0.3,1.7-0.2c0.2,0,0.3,0,0.5,0c0.6-0.3,1.2,0.3,1.8-0.2c0.1,0,0.2,0,0.3,0c0.5-0.2,1.1,0.3,1.6-0.2
	l0.1,0l0.1,0c0.4-0.2,0.8,0.1,1.2-0.2c2.1-0.3,4.1-0.5,6.2-0.8c0.6,0.2,1-0.1,1.5-0.3c0.2-0.1,0.3-0.2,0.5-0.2
	c0.5-0.1,1-0.1,1.3-0.5c0.6-0.3,1.2-0.7,1.9-1c0.5,0,0.7-0.3,1-0.7c2-1.7,3.7-3.8,4.7-6.2c0,0,0,0,0-0.1c0,0,0,0,0-0.1
	c0.4-0.1,0.5-0.4,0.3-0.8c0.3-1,0.5-2,0.8-3C169.4,55.5,169.2,55.1,169.4,54.7z M112.7,74.4c-2.6,3.8-5.3,7.6-8.1,11.2
	c-1.4,1.8-3.4,1.8-4.9,0c-1.7-2.1-3.2-4.3-4.8-6.4c-0.2-0.3-0.4-0.6-0.8-0.8c0,0,0.1-0.1,0-0.1c-0.8-1.5-1.6-2.9-2.8-4.1
	c0,0-0.1,0-0.1,0c-0.5-1.4-1.2-2.7-2.4-3.7c-0.1-1.2-1-2-1.5-3c-0.1-0.1-0.2-0.2-0.3-0.2c0.1-0.2,0-0.4-0.1-0.6
	c-0.5-0.9-0.9-1.8-1.5-2.6c-0.1-0.2-0.2-0.4-0.5-0.4c0,0,0,0,0,0c0.1-0.3,0-0.6-0.1-0.9c-0.7-1.3-1.4-2.6-2.1-3.9
	c-0.1-0.3-0.3-0.5-0.6-0.7c0.1-0.1,0.1-0.3,0.1-0.4c-0.5-1.3-1-2.7-2-3.7c0.1-1.1-0.4-1.9-1.1-2.7c0-1-0.4-1.9-1.1-2.6
	c0-1-0.3-1.8-1.1-2.4c0.2-0.4,0.1-0.7-0.2-0.9c0,0,0.1,0,0.1-0.1c0-0.1,0.1-0.2,0.1-0.3c0.4-2.2,1-2.7,3.2-3c4.1-0.6,8.3-1,12.5-1.3
	c0.3,0,0.7,0,0.9-0.4c0,0,0,0,0-0.1c0,0,0,0,0.1,0c0.6,0.4,1.2,0.2,1.8,0.2c0.6-0.2,1.3-0.1,2-0.1c0.6-0.1,1,0,1.3,0.5
	c-0.8,0.6-0.9,1.5-1.2,2.3c-0.1,0.2-0.1,0.3,0,0.5c0,0,0,0,0,0c-0.8,0.8-1.2,1.7-1.2,2.8c0,0,0,0-0.1,0c-0.7,0.9-1,2-1.4,3
	c0,0.1-0.1,0.3,0,0.4c0,0-0.1,0.1-0.1,0.1c-0.6,1.4-0.6,2.8-0.6,4.3c0,0.2,0,0.5,0.3,0.6c-0.2,0.3-0.2,0.6-0.2,0.9
	c0.2,1.6,0.6,3.1,1.4,4.5c0.1,0.2,0.2,0.4,0.5,0.4c0.3,1.6,1.2,2.8,2.6,3.6c0,0.3,0.2,0.5,0.4,0.7c0.9,0.9,1.9,1.6,3,2.2
	c0.2,0.1,0.5,0.2,0.8,0.1c0.1,0.4,0.5,0.5,0.9,0.6c1.9,0.8,4,1,6,1.2c1.2,0.1,2.4,0.5,3.7,0.3c0,0,0.1,0,0.1,0
	c0.1,0.2,0.4,0.3,0.6,0.3c1.3,0.2,1.3,0.2,0.6,1.4c-0.2,0.3-0.4,0.6-0.6,0.9c-0.2,0.4-0.5,0.7-0.5,1.1C113.2,73.6,113,74,112.7,74.4
	z"/>
<g>
	<path class="st1" d="M0,128.2c0-10.1,7.5-17.8,17.8-17.8c6.2,0,11.7,3.1,14.7,7.9l-6.8,3.9c-1.5-2.6-4.5-4.2-7.9-4.2
		c-6.1,0-10,4.1-10,10.2s3.9,10.2,10,10.2c3.5,0,6.5-1.6,7.9-4.2l6.8,3.9c-2.9,4.8-8.4,7.9-14.7,7.9C7.5,146,0,138.2,0,128.2z"/>
	<path class="st1" d="M51.1,120.3v8.3c-3-0.5-7.3,0.7-7.3,5.6v11.1h-7.3v-24.5h7.3v4.4C44.7,121.9,48,120.3,51.1,120.3z"/>
	<path class="st1" d="M78.3,120.8l-8.4,23.7c-2.7,7.8-7.1,10.9-14,10.5v-6.9c3.4,0,5-1.1,6.1-4.1l-9.7-23.3h8.1l5.4,15l4.6-15H78.3z
		"/>
	<path class="st1" d="M107.3,133c0,7.3-5.3,12.9-11.7,12.9c-3.3,0-5.7-1.1-7.3-3v12.1H81v-34.3h7.3v2.3c1.6-1.9,4-3,7.3-3
		C102,120.1,107.3,125.8,107.3,133z M100,133c0-3.7-2.4-6-5.8-6s-5.8,2.3-5.8,6c0,3.7,2.4,6,5.8,6S100,136.7,100,133z"/>
	<path class="st1" d="M120.3,127.9v8.7c0,2.1,1.8,2.3,5,2.1v6.7c-9.6,1-12.4-1.9-12.4-8.8v-8.7H109v-7h3.9v-4.6l7.3-2.2v6.9h5v7
		H120.3z"/>
	<path class="st1" d="M127.8,133c0-7.3,5.8-12.9,13-12.9s13,5.6,13,12.9s-5.8,12.9-13,12.9S127.8,140.3,127.8,133z M146.4,133
		c0-3.5-2.4-5.8-5.6-5.8s-5.6,2.3-5.6,5.8c0,3.5,2.4,5.8,5.6,5.8S146.4,136.5,146.4,133z"/>
	<path class="st1" d="M192.4,145.3h-7.8v-19.9l-8.9,14.5h-0.9l-8.9-14.5v19.9h-7.8V111h7.8l9.3,15.2l9.3-15.2h7.8V145.3z"/>
	<path class="st1" d="M197.3,114.3c0-2.4,2-4.4,4.4-4.4c2.4,0,4.4,2,4.4,4.4c0,2.4-2,4.4-4.4,4.4
		C199.3,118.7,197.3,116.6,197.3,114.3z M198,120.8h7.3v24.5H198V120.8z"/>
	<path class="st1" d="M225.6,145.3l-4.6-6.5l-4.6,6.5h-8.4l8.8-12.4l-8.5-12h8.4l4.3,6.1l4.3-6.1h8.4l-8.5,12l8.8,12.4H225.6z"/>
</g>
</svg>
