<?xml version="1.0" encoding="utf-8"?>
<!-- Roman Inozemtsev: https://github.com/mir-one/  -->
<svg version="1.1"
	 id="Слой_1" shape-rendering="geometricPrecision" text-rendering="geometricPrecision" image-rendering="optimizeQuality"
	 xmlns="http://www.w3.org/2000/svg" xmlns:xlink="http://www.w3.org/1999/xlink" x="0px" y="0px" viewBox="0 0 229.4 152.5"
	 style="enable-background:new 0 0 229.4 152.5;" xml:space="preserve">
<style type="text/css">
	.st0{fill:#FFFFFF;}
</style>
<path class="st0" d="M166,53.6c0-0.4,0-0.8,0-1.2c-0.2-0.4,0-0.8-0.1-1.2c-0.1-0.4-0.2-0.7-0.3-1.1c-0.3-1.4-0.7-2.8-1.5-4
	c-0.3-1.3-1-2.5-1.5-3.7c-0.8-1.9-1.6-3.8-2.6-5.5c-0.5-1.5-1.3-2.8-2-4.2c-0.4-0.8-0.7-1.6-1.2-2.4c-0.3-0.8-0.8-1.6-1.3-2.4
	c-0.3-0.9-0.8-1.6-1.3-2.4c-0.5-1-1.1-2-1.8-3l0,0c-0.5-1-1.1-1.9-1.7-2.8c-0.5-0.9-1.1-1.7-1.7-2.6c-0.7-1.1-1.4-2.1-2.2-3.1
	c-0.4-0.7-0.9-1.4-1.4-2c-0.6-1-1.3-1.9-2.1-2.8c-0.8-1.4-1.9-2.6-2.9-3.9c-0.6-0.9-1.4-1.7-2.4-2.4c-0.9-0.8-1.9-1.4-3.1-1.8
	c-5.4-2.6-13.2-1.2-17.2,4.2c-0.9,1-1.7,2-2.4,3.1c-1,1.2-2,2.5-2.9,3.9l0,0l0,0c-1.3,1.8-2.6,3.6-3.8,5.5c-0.9,1.2-1.7,2.5-2.5,3.9
	c-0.7,0.9-1.2,1.9-1.8,2.9c-0.4,0.7-0.9,1.5-1.3,2.2l0,0c-0.4,0.8-1,0.9-1.8,0.9c-3.5-0.1-7.1,0-10.6,0.3c-0.2,0-0.4,0-0.5,0
	c-4.8,0.3-9.5,0.8-14.2,1.5c-3.3,0.5-6.2,1.8-8.5,4.3c-1.4,1.4-2.4,3-3.1,4.8l0,0c-0.3,0.7-0.6,1.4-0.7,2.2
	c-0.3,0.9-0.4,1.8-0.4,2.8c-0.1,1.1,0,2.1,0.3,3.2l0,0c0,0.7,0.2,1.4,0.6,2l0,0c0.2,0.8,0.5,1.6,0.9,2.3l0,0
	c0.3,0.9,0.6,1.8,1.1,2.6c0,0,0,0,0,0c0.3,0.9,0.7,1.7,1.1,2.5c0.5,1.4,1.1,2.7,1.8,3.9l0,0c0.8,1.8,1.6,3.6,2.6,5.3
	c0.6,1.3,1.2,2.5,2,3.7c0.5,1.1,1.2,2.2,1.9,3.3c0.6,1.2,1.4,2.4,2.2,3.6c0.8,1.4,1.6,2.7,2.6,4c2.7,4.1,5.6,8.1,8.6,11.9
	c2.5,3.1,5.9,4.7,9.9,5.1c0.7,0.2,1.5-0.1,2.2,0.2c0.1,0,0.2,0,0.4,0c1-0.3,2.1-0.5,3.1-0.8c0.5-0.1,1-0.1,1.3-0.5
	c1.1-0.6,2.1-1.2,3.1-1.9c0.5-0.2,0.9-0.4,1.1-1c0.3-0.3,0.6-0.6,0.9-1c1.6-2.1,3.2-4.2,4.9-6.3c0.5-0.3,0.7-0.7,0.9-1.2
	c0-0.1,0-0.1,0.1-0.1c0.4-0.3,0.7-0.7,0.9-1.2c0.2-0.4,0.4-0.8,0.7-1c0.2-0.1,0.3-0.4,0.4-0.6c1-1.5,1.9-2.9,2.9-4.4
	c0.2-0.1,0.3-0.4,0.4-0.6c0.3-0.7,0.7-1.4,1.2-2c0.8-0.8,1.4-1.7,1.7-2.8c0.3-0.7,0.7-1.4,1.1-2c0.3-0.1,0.2-0.5,0.4-0.7
	c-0.1-0.2,0.1-0.4,0.2-0.6c0.1-0.1,0.2-0.2,0.2-0.4c0,0,0,0,0,0c0.5,0,0.4-0.5,0.5-0.7c0.2-0.6,0.5-1.2,0.9-1.7
	c0.6-0.5,0.8-1.1,1-1.8c0.1-0.2,0.1-0.5,0.2-0.7c0.2-0.3,0.3-0.5,0.5-0.8c0.6-0.5,0.8-1.1,0.9-1.9c0.2-0.7,0.6-1.3,0.9-2
	c0.2-0.2,0.4-0.3,0.3-0.6c0.2-0.1,0.2-0.3,0.3-0.5c0.5-1.2,1-2.4,1.5-3.6c0.5-1.1,1-2.2,1.5-3.3c0.3-0.3,0.6-0.6,0.4-1.1
	c0.6-0.2,0.3-0.8,0.5-1.2c0.2-0.9,0.4-1.8,0.6-2.7c0.1-0.2,0.3-0.4,0.2-0.6c-0.2-0.7,0-1.5-0.1-2.3c0-0.1-0.1-0.1-0.1-0.1
	c0.1-0.1,0.1-0.2,0-0.3c-0.2-0.7-0.4-1.3-0.4-2c0.1-0.6,0-1.1-0.5-1.5c-0.1-0.1-0.2-0.2-0.3-0.4c-0.3-1-0.9-1.9-1.5-2.8
	c0,0,0-0.1,0-0.1c-0.2-0.5-0.4-1-0.9-1.2c-0.1-0.1-0.1-0.1-0.2-0.2c-0.2-0.3-0.3-0.8-0.7-0.8c0.1-0.4-0.4-0.3-0.5-0.4
	c-0.6-0.5-1.2-0.9-1.9-1.4c-0.1-0.2-0.2-0.2-0.3-0.2c-0.1-0.4-0.5-0.3-0.7-0.4c-0.3,0-0.5-0.2-0.8-0.3c-1.3-0.5-2.6-1.2-4.1-0.8
	c-0.7,0.2-1.3,0.5-1.4,1.3l0,0c-0.4,0.2-0.5,0.5-0.6,0.9c-0.3,0.5-0.6,1-0.9,1.4c-0.1,0.1,0,0.3-0.2,0.4c-0.3,0.2-0.5,0.5-0.5,0.9
	c-0.3,0.5-0.7,1.1-1,1.6c-0.1,0.1-0.1,0.2-0.1,0.2c-0.5,0.2-0.3,0.7-0.5,1.1c0,0.4,0,0.7,0,1.1c0.2,0.3-0.1,0.8,0.5,0.9
	c0,0.1,0.1,0.3,0.2,0.4c0.2,0.3,0.4,0.5,0.8,0.6c0.4,0.5,0.9,0.3,1.3,0.3c0.8,0.1,1.6,0.2,2.3,0.6c1.3,1.3,1.5,2.7,0.6,4.2
	c-0.1,0.2-0.2,0.5-0.3,0.7c-0.4,0.3-0.4,0.7-0.5,1.2c0,0,0,0.1,0,0.1c-0.4,0.3-0.5,0.7-0.5,1.2c0,0.1,0,0.1,0,0.1
	c-0.4,0.3-0.5,0.7-0.5,1.2c0,0.1,0,0.1,0,0.1c-0.4,0.3-0.4,0.7-0.5,1.2c0,0.3-0.5,0.5-0.4,0.9c-0.4,0.8-0.8,1.6-1.2,2.4
	c-0.3,0.3-0.5,0.7-0.5,1.1c-0.2,0.4-0.4,0.7-0.6,1.1c-0.2,0.1-0.4,0.1-0.6,0.2c-0.2-0.2-0.5-0.1-0.7-0.2c-0.5-0.5-1.2,0.2-1.7-0.2
	c-0.2,0-0.3,0-0.5,0c-0.5-0.5-1,0.1-1.5-0.2c-0.3,0-0.6,0-0.9-0.1c-0.3-0.1-0.7,0-1-0.1c-0.2,0-0.5,0-0.7,0c-0.3-0.1-0.7,0-1-0.1
	c-1.4,0.1-2.8-0.4-4.2-0.4c-0.6-0.3-1.4-0.2-1.8-0.8c-0.2-0.4-0.3-0.9-0.8-1c-0.7-1-0.2-2,0.1-3c0.1-0.2,0.3-0.4,0.4-0.6
	c0.4-0.3,0.5-0.7,0.5-1.2c0.3-1.2,1-2.3,1.3-3.4c0.5-1,1-1.9,1.3-2.9c0.2-0.2,0.5-0.4,0.3-0.7c0,0,0,0,0,0c0.3,0,0.2-0.3,0.3-0.4
	c0.2-0.8,0.8-1.5,1-2.4c0.5-0.9,1-1.8,1.5-2.8l0,0l0,0c0.2-0.4,0.5-0.7,0.7-1.1c0.5-0.3,0.6-0.9,0.8-1.4c0-0.1,0-0.1,0-0.2
	c0.1-0.1,0.2-0.3,0.3-0.4c0.5-0.2,0.5-0.7,0.6-1.1c0.2-0.5,0.5-1,0.7-1.5c0,0,0.1,0,0.1,0c0.4-0.2,0.5-0.5,0.6-0.9
	c0.1-0.3,0.3-0.7,0.5-0.9c0.4-0.3,0.7-0.7,0.6-1.2c0,0,0,0,0.1,0c0.4,0,0.5-0.3,0.5-0.6c0-0.2,0.2-0.4,0.3-0.6
	c0.5-0.2,0.5-0.7,0.6-1.1c0.1-0.1,0.1-0.2,0.2-0.4c0.4-0.7,0.9-1.3,1.3-2c0.4-0.5,0.8-1,1.1-1.5c0.2-0.2,0.4-0.4,0.3-0.7
	c0.3-0.1,0.4-0.4,0.5-0.6c0.1-0.2,0.3-0.4,0.4-0.6c0.5-0.3,0.7-0.7,0.9-1.2c0-0.1,0-0.1,0.1-0.1c0.2-0.2,0.4-0.4,0.4-0.7
	c0,0,0,0,0,0c0.3,0,0.4-0.2,0.5-0.5c0.6-1.2,1.6-2.1,2.3-3.3c0-0.1,0.1-0.1,0.1-0.2c0.6,0,0.7-0.6,0.9-1c0.1-0.3,0.2-0.6,0.5-0.7
	c0.4-0.2,0.8-0.4,1.1-0.7c0.5-0.3,1-0.2,1.5-0.2c0.5,0.4,1.1,0.5,1.6,0.9c0.1,0.1,0.1,0.1,0.2,0.2c0.3,0.4,0.6,0.9,0.9,1.3
	c0.3,0.5,0.4,1.1,1.1,1.2c0,0,0,0,0,0c0.2,1,0.8,1.7,1.6,2.2c0,0.3,0.2,0.5,0.5,0.7c0,0,0.1,0.1,0.1,0.1c0.2,0.5,0.4,0.9,0.9,1.2
	c0,0,0.1,0.1,0.1,0.1c0.2,0.4,0.3,1,0.9,1c0,0,0,0,0,0c0,0,0,0-0.1,0c0,0,0,0.1,0,0.1c0.1,0.3,0.3,0.5,0.4,0.7
	c0.3,0.6,0.5,1.3,1.2,1.6c0,0.1,0,0.1,0,0.2c0.3,0.4,0.6,0.8,0.8,1.3c0.2,0.6,0.4,1.1,1,1.4c0,0.1,0,0.2,0.1,0.3
	c0.2,0.3,0.4,0.6,0.6,0.9c0,0.4,0.2,0.7,0.5,0.9c0.2,0.3,0.5,0.6,0.7,0.9c0.3,0.8,0.7,1.5,1.3,2.2c0.2,0.8,0.8,1.3,1.1,2.1
	c0,0,0.1,0,0.1,0c0,0,0,0,0,0c-0.1,0.4,0.1,0.8,0.4,1.1c0.2,0.3,0.4,0.6,0.5,1c0.1,0.2,0.1,0.6,0.4,0.7c0,0.3,0.1,0.5,0.3,0.7
	c0.7,1.3,1.4,2.6,2,3.8c0.1,0.3,0.3,0.6,0.4,0.9c0,0.4,0.2,0.8,0.5,1.1c0.1,0.5,0.4,0.8,0.6,1.2c0,0.4,0.2,0.8,0.5,1.2
	c0,0.3,0.2,0.5,0.4,0.7c0.2,0.5,0.2,1,0.6,1.4c0,0.4,0.2,0.9,0.5,1.2c0,0,0.1,0.1,0,0.1c0.1,0.3,0,0.7,0.5,0.8c0,0,0,0,0,0
	c0,0.1,0,0.2,0,0.3c0.4,1,0.8,1.9,1.1,2.9c0.1,0.2,0,0.4,0.2,0.6c-0.4,0.5-0.4,1.1-0.6,1.7c-0.1,0.1-0.1,0.1-0.2,0.2
	c-0.4,0.2-0.7,0.6-1.1,0.9c-0.8,0.3-1.5,0.4-2.4,0.4c-0.4,0.2-0.9-0.3-1.3,0.2c0,0-0.1,0-0.1,0c-0.4,0.2-0.9-0.3-1.3,0.2
	c-1.2,0.2-2.4,0.4-3.6,0.4c-0.5,0.3-1.1-0.3-1.5,0.2c0,0-0.1,0-0.2,0c-0.5,0.1-1.1,0.1-1.3,0.7c-0.2,0.2-0.5,0.4-0.6,0.8
	c-0.4,0.3-0.4,0.7-0.5,1.2c-0.1,0.3-0.3,0.6-0.4,0.9c-0.3,0.3-0.5,0.7-0.5,1.1c-0.3,0.5-0.5,1.1-0.8,1.6c-0.3,0.3-0.5,0.7-0.5,1.1
	c-0.2,0.4-0.3,0.7-0.5,1.1c0,0.1,0,0.2-0.1,0.4c-0.2,0.6-0.3,1.1,0.2,1.6c0.4,0.9,1,1.4,2,1.5c0.4,0.1,0.7,0.1,1.1,0
	c0.3,0,0.6,0,0.9,0c0.5-0.3,1.2,0.3,1.7-0.2c0.2,0,0.3,0,0.5,0c0.6-0.2,1.2,0.3,1.7-0.2c0.1,0,0.2,0,0.3,0c0.5-0.2,1.1,0.3,1.6-0.2
	l0.1,0l0.1,0c0.4-0.2,0.8,0.1,1.2-0.1c2-0.3,4-0.5,6.1-0.8c0.6,0.2,1-0.1,1.5-0.3c0.2-0.1,0.3-0.2,0.5-0.2c0.5-0.1,1-0.1,1.3-0.5
	c0.6-0.3,1.2-0.7,1.8-1c0.5,0,0.7-0.3,0.9-0.6c2-1.7,3.6-3.7,4.6-6.1c0,0,0,0,0-0.1c0,0,0,0,0-0.1c0.4-0.1,0.5-0.4,0.3-0.8
	c0.2-1,0.5-2,0.7-3C166,54.4,165.9,54,166,53.6z M110.5,72.9c-2.5,3.8-5.2,7.4-8,11c-1.4,1.8-3.4,1.8-4.8,0
	c-1.6-2.1-3.2-4.2-4.7-6.3c-0.2-0.3-0.4-0.6-0.8-0.7c0,0,0.1-0.1,0-0.1c-0.8-1.4-1.6-2.8-2.8-4c0,0-0.1,0-0.1,0
	c-0.4-1.4-1.2-2.6-2.3-3.6c-0.1-1.2-1-1.9-1.5-2.9c-0.1-0.1-0.2-0.2-0.3-0.2c0.1-0.2,0-0.4-0.1-0.6c-0.4-0.9-0.9-1.7-1.4-2.6
	c-0.1-0.2-0.2-0.4-0.5-0.4c0,0,0,0,0,0c0.1-0.3,0-0.6-0.1-0.8c-0.6-1.3-1.4-2.6-2.1-3.9c-0.1-0.3-0.3-0.5-0.6-0.7
	c0.1-0.1,0.1-0.2,0.1-0.4c-0.5-1.3-1-2.6-2-3.7c0.1-1.1-0.4-1.9-1.1-2.6c0-1-0.4-1.8-1.1-2.5c0-1-0.2-1.8-1-2.3
	c0.2-0.4,0.1-0.7-0.2-0.9c0,0,0.1,0,0.1-0.1c0-0.1,0.1-0.2,0.1-0.3c0.4-2.1,0.9-2.7,3.1-3c4.1-0.6,8.1-1,12.2-1.2
	c0.3,0,0.7,0,0.9-0.4c0,0,0,0,0-0.1c0,0,0,0,0.1,0c0.5,0.4,1.1,0.2,1.7,0.2c0.6-0.2,1.3-0.1,1.9-0.1c0.5-0.1,1,0,1.3,0.5
	c-0.8,0.6-0.9,1.5-1.2,2.3c-0.1,0.2-0.1,0.3,0,0.5c0,0,0,0,0,0c-0.8,0.8-1.2,1.7-1.2,2.8c0,0,0,0-0.1,0c-0.7,0.9-1,1.9-1.3,3
	c0,0.1,0,0.3,0,0.4c0,0-0.1,0.1-0.1,0.1C92.1,50.6,92,52,92,53.5c0,0.2,0,0.5,0.3,0.6c-0.2,0.3-0.2,0.6-0.2,0.9
	c0.2,1.6,0.6,3,1.3,4.5c0.1,0.2,0.2,0.4,0.5,0.4c0.3,1.5,1.2,2.7,2.6,3.5c0,0.3,0.2,0.5,0.4,0.7c0.8,0.9,1.9,1.6,3,2.2
	c0.2,0.1,0.5,0.2,0.8,0.1c0.1,0.4,0.5,0.5,0.9,0.6c1.9,0.7,3.9,1,5.9,1.2c1.2,0.1,2.4,0.5,3.6,0.2c0,0,0.1,0,0.1,0
	c0.1,0.2,0.4,0.3,0.6,0.3c1.3,0.2,1.3,0.2,0.6,1.3c-0.2,0.3-0.4,0.6-0.6,0.9c-0.2,0.4-0.5,0.6-0.5,1.1
	C111,72.2,110.8,72.6,110.5,72.9z"/>
<g>
	<path class="st0" d="M0,125.6c0-9.9,7.3-17.5,17.5-17.5c6.1,0,11.5,3,14.4,7.8l-6.6,3.8c-1.5-2.6-4.4-4.1-7.8-4.1
		c-6,0-9.8,4-9.8,10s3.8,10,9.8,10c3.4,0,6.3-1.5,7.8-4.1l6.6,3.8c-2.9,4.8-8.3,7.8-14.4,7.8C7.3,143.1,0,135.5,0,125.6z"/>
	<path class="st0" d="M50.1,118v8.2c-3-0.5-7.2,0.7-7.2,5.5v10.8h-7.2v-24h7.2v4.3C43.9,119.5,47.1,118,50.1,118z"/>
	<path class="st0" d="M76.7,118.4l-8.2,23.3c-2.7,7.6-7,10.7-13.7,10.3v-6.7c3.4,0,4.9-1.1,6-4l-9.5-22.9h7.9l5.3,14.7l4.5-14.7
		H76.7z"/>
	<path class="st0" d="M105.2,130.4c0,7.1-5.2,12.7-11.5,12.7c-3.2,0-5.6-1.1-7.1-2.9V152h-7.2v-33.6h7.2v2.3
		c1.6-1.8,3.9-2.9,7.1-2.9C100,117.8,105.2,123.3,105.2,130.4z M98,130.4c0-3.6-2.4-5.9-5.7-5.9s-5.7,2.3-5.7,5.9
		c0,3.6,2.4,5.9,5.7,5.9S98,134,98,130.4z"/>
	<path class="st0" d="M117.9,125.3v8.5c0,2.1,1.8,2.3,4.9,2.1v6.5c-9.4,1-12.1-1.9-12.1-8.6v-8.5h-3.8v-6.9h3.8v-4.6l7.2-2.2v6.7
		h4.9v6.9H117.9z"/>
	<path class="st0" d="M125.3,130.4c0-7.1,5.7-12.7,12.7-12.7s12.7,5.5,12.7,12.7s-5.7,12.7-12.7,12.7S125.3,137.6,125.3,130.4z
		 M143.5,130.4c0-3.4-2.4-5.7-5.5-5.7s-5.5,2.3-5.5,5.7c0,3.4,2.4,5.7,5.5,5.7S143.5,133.8,143.5,130.4z"/>
	<path class="st0" d="M188.6,142.4h-7.7v-19.5l-8.7,14.3h-0.9l-8.7-14.3v19.5H155v-33.6h7.7l9.1,14.9l9.1-14.9h7.7V142.4z"/>
	<path class="st0" d="M193.4,112c0-2.4,2-4.3,4.3-4.3c2.4,0,4.3,2,4.3,4.3c0,2.4-2,4.3-4.3,4.3C195.4,116.3,193.4,114.4,193.4,112z
		 M194.1,118.4h7.2v24h-7.2V118.4z"/>
	<path class="st0" d="M221.1,142.4l-4.5-6.3l-4.5,6.3H204l8.6-12.2l-8.3-11.8h8.3l4.2,6l4.2-6h8.3l-8.3,11.8l8.6,12.2H221.1z"/>
</g>
</svg>
