<?xml version="1.0" encoding="utf-8"?>
<!-- Generator: Adobe Illustrator 21.0.0, SVG Export Plug-In . SVG Version: 6.00 Build 0)  -->
<svg version="1.1"
	 id="Слой_1" shape-rendering="geometricPrecision" text-rendering="geometricPrecision" image-rendering="optimizeQuality"
	 xmlns="http://www.w3.org/2000/svg" xmlns:xlink="http://www.w3.org/1999/xlink" x="0px" y="0px" viewBox="0 0 229.4 152.5"
	 style="enable-background:new 0 0 229.4 152.5;" xml:space="preserve">
<style type="text/css">
	.st0{fill:#FFFFFF;}
</style>
<g>
	<path class="st0" d="M13.1,130.6c0.4-2.6,1.3-5.2,2-8.3l4.1-15.4h6.3v32.4H21V123c0-2.4,0-5.2,0.2-8.3H21c-0.2,0.9-0.4,2-0.7,3
		c-0.2,1.1-0.7,2.2-0.9,3.5l-5,18.3h-2.8l-5-18.5c-0.2-1.1-0.7-2.2-0.9-3.5c-0.2-1.1-0.4-2.2-0.7-3H4.9c0.2,3,0.2,5.7,0.2,8.3v16.3
		H0.5v-32.2h6.3l4.1,15.4C11.6,125,12.5,127.6,13.1,130.6L13.1,130.6z"/>
	<path class="st0" d="M47.9,127.6c0,1.7-0.2,3.5-0.7,5c-0.4,1.5-1.1,2.8-1.7,3.9c-0.9,1.1-1.7,2-2.8,2.4c-1.1,0.7-2.4,0.9-3.7,0.9
		s-2.6-0.2-3.7-0.9c-1.1-0.7-2-1.5-2.8-2.4c-0.9-1.1-1.3-2.4-1.7-3.9c-0.4-1.5-0.7-3.3-0.7-5s0.2-3.5,0.7-5c0.4-1.5,1.1-2.8,1.7-3.9
		c0.9-1.1,1.7-2,2.8-2.4c1.1-0.7,2.4-0.9,3.7-0.9s2.6,0.2,3.7,0.9s2,1.5,2.8,2.4c0.9,1.1,1.3,2.4,1.7,3.9
		C47.7,124.1,47.9,125.8,47.9,127.6z M43.4,127.6c0-1.3-0.2-2.4-0.4-3.3c-0.2-0.9-0.4-1.7-0.9-2.4c-0.4-0.7-0.9-1.1-1.3-1.5
		c-0.7-0.2-1.1-0.4-1.7-0.4s-1.3,0.2-1.7,0.4c-0.4,0.2-1.1,0.9-1.3,1.5c-0.4,0.7-0.7,1.5-0.9,2.4s-0.4,2-0.4,3.3s0.2,2.4,0.4,3.3
		s0.4,1.7,0.9,2.4c0.4,0.7,0.9,1.1,1.3,1.5c0.4,0.4,1.1,0.4,1.7,0.4s1.3-0.2,1.7-0.4c0.4-0.4,1.1-0.9,1.3-1.5
		c0.4-0.7,0.7-1.5,0.9-2.4C43.1,130,43.4,128.9,43.4,127.6z"/>
	<path class="st0" d="M55.7,119.1L55.7,119.1c0.4-0.4,0.7-0.9,1.1-1.5c0.4-0.4,0.9-0.9,1.3-1.3c0.4-0.4,1.1-0.7,1.7-0.9
		c0.7-0.2,1.3-0.2,2-0.2s1.3,0,2,0.2c0.7,0.2,1.1,0.4,1.7,0.9c0.4,0.4,0.9,0.9,1.3,1.5s0.7,1.5,0.9,2.4c0.2,0.4,0.2,1.1,0.2,1.5
		c0,0.7,0,1.3,0,2v15.2h-4.3v-14.3c0-0.7,0-1.1,0-1.5s0-0.9-0.2-1.1c-0.2-0.7-0.7-1.3-1.1-1.5c-0.4-0.2-1.1-0.4-1.5-0.4
		c-0.9,0-1.7,0.2-2.4,0.9c-0.9,0.4-1.5,1.3-2,2.2v16.1H52v-23.3h3.5L55.7,119.1z"/>
	<path class="st0" d="M81.6,135.2c0.9,0,1.7-0.2,2.6-0.4s1.7-0.7,2.8-0.9v4.6c-0.7,0.2-1.5,0.7-2.6,0.9s-2.4,0.4-3.7,0.4
		c-1.3,0-2.4-0.2-3.5-0.7s-2.2-1.1-3-2c-0.9-0.9-1.5-2.2-2-3.7c-0.4-1.5-0.7-3.3-0.7-5.4s0.2-3.9,0.7-5.7c0.4-1.5,1.1-2.8,2-3.9
		c0.9-1.1,1.7-1.7,2.6-2.4c1.1-0.4,2-0.9,3-0.9s2.2,0.2,3,0.7c0.9,0.4,1.7,1.1,2.4,2.2c0.7,0.9,1.3,2.2,1.5,3.7
		c0.2,1.5,0.7,3.3,0.7,5.4c0,0.9,0,1.5,0,2H76c0,1.1,0.2,2,0.7,2.8c0.2,0.9,0.7,1.3,1.3,2c0.4,0.4,1.1,0.9,1.7,1.1
		C80.1,135.2,80.7,135.2,81.6,135.2z M79.9,119.7c-0.7,0-1.1,0.2-1.5,0.4s-0.9,0.7-1.1,1.1c-0.2,0.4-0.7,1.1-0.7,1.5
		c-0.2,0.7-0.2,1.3-0.4,2h7c0-0.7,0-1.3-0.2-2c-0.2-0.7-0.4-1.1-0.7-1.5c-0.2-0.4-0.7-0.9-1.1-1.1C80.7,120,80.3,119.7,79.9,119.7z"
		/>
	<path class="st0" d="M89.2,115.8h4.6l2.6,8.5c1.1,3.3,1.7,5.7,2.2,7.2l0,0c0.2-1.3,0.9-3.5,2-6.7l2.8-8.9h4.8l-11.3,34.6h-4.3
		l4.1-12.6L89.2,115.8z"/>
	<path class="st0" d="M109.4,132.8h5v6.5h-5V132.8z"/>
	<path class="st0" d="M129,135.2c0.9,0,1.7-0.2,2.6-0.4s1.7-0.7,2.8-0.9v4.6c-0.7,0.2-1.5,0.7-2.6,0.9s-2.4,0.4-3.7,0.4
		c-1.3,0-2.4-0.2-3.5-0.7s-2.2-1.1-3-2s-1.5-2.2-2-3.7c-0.4-1.5-0.7-3.3-0.7-5.4s0.2-3.9,0.7-5.7c0.4-1.5,1.1-2.8,2-3.9
		s1.7-1.7,2.6-2.4c1.1-0.4,2-0.9,3-0.9c1.1,0,2.2,0.2,3,0.7c0.9,0.4,1.7,1.1,2.4,2.2c0.7,0.9,1.3,2.2,1.5,3.7s0.7,3.3,0.7,5.4
		c0,0.9,0,1.5,0,2h-11.5c0,1.1,0.2,2,0.7,2.8c0.2,0.9,0.7,1.3,1.3,2c0.4,0.4,1.1,0.9,1.7,1.1C127.5,135.2,128.1,135.2,129,135.2z
		 M127.2,119.7c-0.7,0-1.1,0.2-1.5,0.4s-0.9,0.7-1.1,1.1s-0.7,1.1-0.7,1.5c-0.2,0.7-0.2,1.3-0.4,2h7c0-0.7,0-1.3-0.2-2
		c-0.2-0.7-0.4-1.1-0.7-1.5s-0.7-0.9-1.1-1.1C128.1,120,127.7,119.7,127.2,119.7z"/>
	<path class="st0" d="M142.9,119.1L142.9,119.1c0.4-0.4,0.7-0.9,1.1-1.5c0.4-0.4,0.9-0.9,1.3-1.3c0.4-0.4,1.1-0.7,1.7-0.9
		c0.7-0.2,1.3-0.2,2-0.2c0.7,0,1.3,0,2,0.2c0.7,0.2,1.1,0.4,1.7,0.9c0.4,0.4,0.9,0.9,1.3,1.5c0.4,0.7,0.7,1.5,0.9,2.4
		c0.2,0.4,0.2,1.1,0.2,1.5c0,0.7,0,1.3,0,2v15.2h-4.3v-14.3c0-0.7,0-1.1,0-1.5s0-0.9-0.2-1.1c-0.2-0.7-0.7-1.3-1.1-1.5
		c-0.4-0.2-1.1-0.4-1.5-0.4c-0.9,0-1.7,0.2-2.4,0.9c-0.9,0.4-1.5,1.3-2,2.2v16.1h-4.3v-23.3h3.5L142.9,119.1z"/>
	<path class="st0" d="M168.8,135.2c0.9,0,1.7-0.2,2.6-0.4s1.7-0.7,2.8-0.9v4.6c-0.7,0.2-1.5,0.7-2.6,0.9s-2.4,0.4-3.7,0.4
		c-1.3,0-2.4-0.2-3.5-0.7s-2.2-1.1-3-2s-1.5-2.2-2-3.7c-0.4-1.5-0.7-3.3-0.7-5.4s0.2-3.9,0.7-5.7c0.4-1.5,1.1-2.8,2-3.9
		s1.7-1.7,2.6-2.4c1.1-0.4,2-0.9,3-0.9s2.2,0.2,3,0.7c0.9,0.4,1.7,1.1,2.4,2.2c0.7,0.9,1.3,2.2,1.5,3.7c0.2,1.5,0.7,3.3,0.7,5.4
		c0,0.9,0,1.5,0,2h-11.5c0,1.1,0.2,2,0.7,2.8c0.2,0.9,0.7,1.3,1.3,2c0.4,0.4,1.1,0.9,1.7,1.1C167.5,135.2,168.1,135.2,168.8,135.2z
		 M167,119.7c-0.7,0-1.1,0.2-1.5,0.4c-0.4,0.2-0.9,0.7-1.1,1.1c-0.2,0.4-0.7,1.1-0.7,1.5c-0.2,0.7-0.2,1.3-0.4,2h7
		c0-0.7,0-1.3-0.2-2s-0.4-1.1-0.7-1.5c-0.2-0.4-0.7-0.9-1.1-1.1C168.1,120,167.7,119.7,167,119.7z"/>
	<path class="st0" d="M189.4,120.4h-0.2c-1.3,0-2.4,0.2-3.5,0.9c-1.1,0.4-1.7,1.3-2.4,2.4v15.6H179v-23.5h3.5l0.4,3.3l0,0
		c0.4-1.1,1.3-2.2,2.2-2.8s2-1.1,3.3-1.1c0.4,0,0.9,0,1.1,0L189.4,120.4L189.4,120.4z"/>
	<path class="st0" d="M203.5,140c0-0.2,0-0.7,0-1.1s0-0.9,0-1.1l0,0c-0.2,0.2-0.7,0.7-0.9,0.9c-0.4,0.2-0.7,0.4-1.1,0.9
		c-0.4,0.2-0.9,0.4-1.3,0.7c-0.4,0.2-1.1,0.2-1.5,0.2c-0.9,0-2-0.2-2.8-0.7c-0.9-0.4-1.7-1.1-2.4-2.2c-0.7-0.9-1.3-2.2-1.7-3.7
		c-0.4-1.5-0.7-3.3-0.7-5.4s0.2-3.9,0.7-5.4c0.4-1.5,1.1-2.8,1.7-3.9c0.7-1.1,1.5-2,2.4-2.4c0.9-0.4,2-0.9,2.8-0.9
		c1.1,0,2,0.2,2.8,0.9c0.9,0.7,1.5,1.3,2.2,2.4l0,0l0.2-2.6h3.7v23.9c0,1.3,0,2.6-0.2,3.5c-0.2,1.1-0.4,2-0.7,2.6
		c-0.4,0.9-0.9,1.7-1.5,2.4c-0.7,0.7-1.3,1.3-2.2,1.7c-0.9,0.4-1.5,0.7-2.6,0.9c-0.9,0.2-2,0.2-3,0.2c-0.7,0-1.1,0-1.7,0
		s-1.1-0.2-1.5-0.2c-0.4,0-0.9-0.2-1.3-0.4c-0.4-0.2-0.7-0.2-1.1-0.4V146c0.9,0.4,1.7,0.7,2.6,0.9s1.7,0.2,2.8,0.2
		c2,0,3.5-0.4,4.6-1.5s1.5-2.4,1.5-4.6V140H203.5z M199.6,135.4c0.4,0,0.9,0,1.3-0.2c0.4-0.2,0.7-0.4,1.1-0.7s0.7-0.4,0.9-0.7
		c0.2-0.2,0.4-0.7,0.7-0.9v-10.4c-0.4-0.7-1.1-1.3-1.7-1.7c-0.7-0.4-1.3-0.7-2.2-0.7c-0.2,0-0.7,0-0.9,0.2c-0.2,0-0.7,0.2-0.9,0.4
		c-0.2,0.2-0.7,0.4-0.9,0.9c-0.2,0.4-0.4,0.9-0.7,1.5c-0.2,0.7-0.4,1.3-0.4,2.2c-0.2,0.9-0.2,1.7-0.2,2.8s0,2.2,0.2,3
		s0.4,1.7,0.9,2.4s0.9,1.1,1.3,1.5C198.3,135.2,199,135.4,199.6,135.4z"/>
	<path class="st0" d="M210.5,115.8h4.6l2.6,8.5c1.1,3.3,1.7,5.7,2.2,7.2l0,0c0.2-1.3,0.9-3.5,2-6.7l2.8-8.9h4.8l-11.3,34.6h-4.3
		l4.1-12.6L210.5,115.8z"/>
</g>
<g>
	<g>
		<circle class="st0" cx="103.6" cy="41.7" r="5"/>
		<circle class="st0" cx="85.7" cy="63.5" r="5"/>
		<circle class="st0" cx="124.9" cy="61.5" r="5"/>
		<circle class="st0" cx="139.8" cy="37.2" r="5"/>
		<g>
			<path class="st0" d="M139.8,46.2c-1,0-2,0-3-0.5l-5.5,9.4c1.5,1.5,2.5,4,2.5,6.5c0,5-4,8.9-8.9,8.9c-5,0-8.9-4-8.9-8.9
				c0-2,0.5-3.5,1.5-5l-8.4-7.4c-1.5,1-3.5,1.5-5.5,1.5c-1.5,0-3-0.5-4-1l-6.9,8.4c1,1.5,2,3.5,2,5.5c0,5-4,8.9-8.9,8.9
				c-5,0-8.9-4-8.9-8.9c0-0.5,0-0.5,0-1l-11.4-4c4,23.8,24.8,41.7,49.6,41.7c27.8,0,50.6-22.8,50.6-50.6c0-4-0.5-8.4-1.5-12.4h-14.9
				C148.2,42.2,144.7,46.2,139.8,46.2z"/>
			<path class="st0" d="M85.7,54.6c1.5,0,2.5,0.5,4,1l6.9-7.9c-1-1.5-1.5-3.5-1.5-5.5c0-5,4-8.9,8.9-8.9s8.9,4,8.9,8.9
				c0,1.5-0.5,3-1,4l8.9,7.4c1.5-1,3-1,4.5-1c1,0,2,0,3,0.5l5.5-9.4c-1.5-1.5-2.5-4-2.5-6c0-5,4-8.9,8.9-8.9c4,0,6.9,2.5,8.4,5.5
				h14.4C156.2,14.4,137.3,0,115.5,0C87.7,0,64.8,22.8,64.8,50.6c0,1.5,0,2.5,0,4l13.4,4.5C79.7,56.1,82.2,54.6,85.7,54.6z"/>
		</g>
	</g>
</g>
</svg>
