<?xml version="1.0" encoding="utf-8"?>
<!-- Roman Inozemtsev: https://github.com/mir-one/  -->
<svg version="1.1" id="Слой_1" xmlns="http://www.w3.org/2000/svg" xmlns:xlink="http://www.w3.org/1999/xlink" x="0px" y="0px"
	 viewBox="0 0 64.5 64.5" style="enable-background:new 0 0 64.5 64.5;" xml:space="preserve">
<style type="text/css">
	.st0{fill:#FFFFFF;}
	.st1{fill:#262261;}
	.st2{fill:url(#SVGID_1_);}
</style>
<path class="st0" d="M32.2,2.5C15.8,2.5,2.5,15.8,2.5,32.2C2.5,48.7,15.8,62,32.2,62c0.3,0,0.6,0,1,0c15-0.5,27.2-12,28.7-26.7
	c0.1-1,0.2-2,0.2-3C62,15.8,48.7,2.5,32.2,2.5z M52,52c-5.7,5.7-13.2,8.4-20.6,8.1c-6.8-0.2-13.6-2.9-18.9-8.1
	c-10.9-10.9-10.9-28.6,0-39.5C23.4,1.6,41.1,1.6,52,12.5c5.8,5.8,8.5,13.5,8.1,21C59.8,40.2,57.1,46.9,52,52z"/>
<path class="st1" d="M32.2,0C14.4,0,0,14.4,0,32.2s14.4,32.2,32.2,32.2c1.1,0,2.2-0.1,3.3-0.2C50.1,62.8,61.7,51.7,64,37.4
	c0.3-1.7,0.5-3.4,0.5-5.2C64.5,14.4,50.1,0,32.2,0z M33.2,62c-0.3,0-0.6,0-1,0C15.8,62,2.5,48.7,2.5,32.2
	c0-16.4,13.3-29.8,29.8-29.8C48.7,2.5,62,15.8,62,32.2c0,1-0.1,2-0.2,3C60.4,50,48.2,61.5,33.2,62z"/>
<path class="st1" d="M52,12.5c-10.9-10.9-28.6-10.9-39.5,0C1.6,23.4,1.6,41.1,12.5,52c5.2,5.2,12,7.9,18.9,8.1
	c7.4,0.2,15-2.5,20.6-8.1c5.1-5.1,7.8-11.8,8.1-18.5C60.5,26,57.8,18.3,52,12.5z"/>
<linearGradient id="SVGID_1_" gradientUnits="userSpaceOnUse" x1="35.7551" y1="53.0526" x2="27.2044" y2="2.4047">
	<stop  offset="0" style="stop-color:#2B388F"/>
	<stop  offset="0.1142" style="stop-color:#38348F"/>
	<stop  offset="0.3279" style="stop-color:#5C2A8E"/>
	<stop  offset="0.618" style="stop-color:#95198D"/>
	<stop  offset="0.97" style="stop-color:#E4028B"/>
	<stop  offset="1" style="stop-color:#EB008B"/>
</linearGradient>
<path class="st2" d="M53.4,34.3c0-0.2,0-0.3,0-0.5c-0.1-0.2,0-0.3-0.1-0.5c0-0.2-0.1-0.3-0.1-0.5c-0.1-0.6-0.3-1.2-0.6-1.7
	c-0.1-0.5-0.4-1-0.6-1.5c-0.3-0.8-0.6-1.5-1.1-2.3c-0.2-0.6-0.5-1.2-0.8-1.7c-0.2-0.3-0.3-0.7-0.5-1c-0.1-0.3-0.3-0.7-0.5-1
	c-0.1-0.4-0.3-0.7-0.5-1c-0.2-0.4-0.5-0.8-0.7-1.2l0,0c-0.2-0.4-0.4-0.8-0.7-1.1c-0.2-0.4-0.5-0.7-0.7-1.1c-0.3-0.4-0.6-0.9-0.9-1.3
	c-0.2-0.3-0.4-0.6-0.6-0.8c-0.2-0.4-0.5-0.8-0.9-1.1c-0.3-0.6-0.8-1.1-1.2-1.6c-0.3-0.4-0.6-0.7-1-1c-0.4-0.3-0.8-0.6-1.3-0.8
	c-2.2-1.1-5.4-0.5-7.1,1.7c-0.4,0.4-0.7,0.8-1,1.3c-0.4,0.5-0.8,1-1.2,1.6l0,0l0,0c-0.6,0.7-1.1,1.5-1.6,2.3c-0.4,0.5-0.7,1-1,1.6
	c-0.3,0.4-0.5,0.8-0.7,1.2c-0.2,0.3-0.4,0.6-0.5,0.9l0,0c-0.2,0.3-0.4,0.4-0.8,0.4c-1.5-0.1-2.9,0-4.4,0.1c-0.1,0-0.2,0-0.2,0
	c-2,0.1-3.9,0.3-5.9,0.6c-1.4,0.2-2.6,0.7-3.5,1.8c-0.6,0.6-1,1.2-1.3,2l0,0c-0.1,0.3-0.2,0.6-0.3,0.9c-0.1,0.4-0.2,0.7-0.1,1.1
	c0,0.4,0,0.9,0.1,1.3l0,0c0,0.3,0.1,0.6,0.2,0.8l0,0c0.1,0.3,0.2,0.7,0.4,1l0,0c0.1,0.4,0.3,0.7,0.5,1.1c0,0,0,0,0,0
	c0.1,0.4,0.3,0.7,0.5,1c0.2,0.6,0.5,1.1,0.7,1.6l0,0c0.3,0.7,0.7,1.5,1.1,2.2c0.2,0.5,0.5,1,0.8,1.5c0.2,0.5,0.5,0.9,0.8,1.3
	c0.3,0.5,0.6,1,0.9,1.5c0.3,0.6,0.7,1.1,1.1,1.6c1.1,1.7,2.3,3.3,3.6,4.9c1,1.3,2.4,2,4.1,2.1c0.3,0.1,0.6,0,0.9,0.1
	c0.1,0,0.1,0,0.2,0c0.4-0.1,0.8-0.2,1.3-0.3c0.2,0,0.4,0,0.5-0.2c0.4-0.2,0.9-0.5,1.3-0.8c0.2-0.1,0.4-0.2,0.5-0.4
	c0.1-0.1,0.3-0.3,0.4-0.4c0.7-0.9,1.3-1.7,2-2.6c0.2-0.1,0.3-0.3,0.4-0.5c0,0,0,0,0,0c0.2-0.1,0.3-0.3,0.4-0.5
	c0.1-0.2,0.2-0.3,0.3-0.4c0.1,0,0.1-0.2,0.2-0.2c0.4-0.6,0.8-1.2,1.2-1.8c0.1-0.1,0.1-0.2,0.2-0.2c0.1-0.3,0.3-0.6,0.5-0.8
	c0.3-0.3,0.6-0.7,0.7-1.1c0.1-0.3,0.3-0.6,0.5-0.8c0.1-0.1,0.1-0.2,0.2-0.3c0-0.1,0-0.2,0.1-0.2c0,0,0.1-0.1,0.1-0.1c0,0,0,0,0,0
	c0.2,0,0.2-0.2,0.2-0.3c0.1-0.2,0.2-0.5,0.4-0.7c0.2-0.2,0.3-0.5,0.4-0.7c0-0.1,0.1-0.2,0.1-0.3c0.1-0.1,0.1-0.2,0.2-0.3
	c0.2-0.2,0.3-0.5,0.4-0.8c0.1-0.3,0.2-0.6,0.4-0.8c0.1-0.1,0.2-0.1,0.1-0.3c0.1,0,0.1-0.1,0.1-0.2c0.2-0.5,0.4-1,0.6-1.5
	c0.2-0.5,0.4-0.9,0.6-1.4c0.1-0.1,0.2-0.2,0.1-0.4c0.3-0.1,0.1-0.3,0.2-0.5c0.1-0.4,0.2-0.7,0.2-1.1c0.1-0.1,0.1-0.2,0.1-0.2
	c-0.1-0.3,0-0.6,0-0.9c0,0,0,0-0.1-0.1c0,0,0-0.1,0-0.1c-0.1-0.3-0.2-0.5-0.2-0.8c0-0.2,0-0.4-0.2-0.6c0-0.1-0.1-0.1-0.1-0.2
	c-0.1-0.4-0.4-0.8-0.6-1.1c0,0,0,0,0-0.1c-0.1-0.2-0.2-0.4-0.4-0.5c0,0,0-0.1-0.1-0.1c-0.1-0.1-0.1-0.3-0.3-0.3
	c0-0.2-0.2-0.1-0.2-0.2c-0.3-0.2-0.5-0.4-0.8-0.6c0-0.1-0.1-0.1-0.1-0.1c0-0.1-0.2-0.1-0.3-0.2c-0.1,0-0.2-0.1-0.3-0.1
	c-0.6-0.2-1.1-0.5-1.7-0.3c-0.3,0.1-0.5,0.2-0.6,0.5l0,0c-0.1,0.1-0.2,0.2-0.2,0.4c-0.1,0.2-0.3,0.4-0.4,0.6c0,0.1,0,0.1-0.1,0.2
	c-0.1,0.1-0.2,0.2-0.2,0.4c-0.1,0.2-0.3,0.4-0.4,0.7c0,0,0,0.1,0,0.1C34,27.5,34,27.7,34,27.8c0,0.1,0,0.3,0,0.4
	c0.1,0.1,0,0.3,0.2,0.4c0,0.1,0,0.1,0.1,0.2c0.1,0.1,0.2,0.2,0.3,0.2c0.1,0.2,0.4,0.1,0.6,0.1c0.3,0,0.7,0.1,1,0.2
	c0.5,0.5,0.6,1.1,0.2,1.7c0,0.1-0.1,0.2-0.1,0.3c-0.2,0.1-0.2,0.3-0.2,0.5c0,0,0,0,0,0c-0.1,0.1-0.2,0.3-0.2,0.5c0,0,0,0,0,0
	c-0.1,0.1-0.2,0.3-0.2,0.5c0,0,0,0,0,0c-0.2,0.1-0.2,0.3-0.2,0.5c0,0.1-0.2,0.2-0.1,0.4c-0.2,0.3-0.3,0.7-0.5,1
	c-0.1,0.1-0.2,0.3-0.2,0.5c-0.1,0.2-0.2,0.3-0.2,0.5c-0.1,0-0.2,0-0.2,0.1c-0.1-0.1-0.2,0-0.3-0.1c-0.2-0.2-0.5,0.1-0.7-0.1
	c-0.1,0-0.1,0-0.2,0c-0.2-0.2-0.4,0-0.6-0.1c-0.1,0-0.2,0-0.4,0c-0.1-0.1-0.3,0-0.4-0.1c-0.1,0-0.2,0-0.3,0c-0.1-0.1-0.3,0-0.4-0.1
	c-0.6,0-1.1-0.2-1.7-0.2c-0.2-0.1-0.6-0.1-0.8-0.3c-0.1-0.1-0.1-0.4-0.3-0.4c-0.3-0.4-0.1-0.8,0-1.2c0.1-0.1,0.1-0.2,0.2-0.2
	c0.1-0.1,0.2-0.3,0.2-0.5c0.1-0.5,0.4-0.9,0.5-1.4c0.2-0.4,0.4-0.8,0.5-1.2c0.1-0.1,0.2-0.2,0.1-0.3c0,0,0,0,0,0
	c0.1,0,0.1-0.1,0.1-0.2c0.1-0.3,0.3-0.6,0.4-1c0.2-0.4,0.4-0.8,0.6-1.1l0,0l0,0c0.1-0.2,0.2-0.3,0.3-0.5c0.2-0.1,0.3-0.4,0.3-0.6
	c0,0,0-0.1,0-0.1c0-0.1,0.1-0.1,0.1-0.2c0.2-0.1,0.2-0.3,0.3-0.4c0.1-0.2,0.2-0.4,0.3-0.6c0,0,0,0,0,0c0.2-0.1,0.2-0.2,0.2-0.4
	c0-0.1,0.1-0.3,0.2-0.4c0.2-0.1,0.3-0.3,0.2-0.5c0,0,0,0,0,0c0.2,0,0.2-0.1,0.2-0.2c0-0.1,0.1-0.2,0.1-0.2c0.2-0.1,0.2-0.3,0.3-0.4
	c0,0,0-0.1,0.1-0.1c0.2-0.3,0.4-0.6,0.5-0.8c0.2-0.2,0.3-0.4,0.5-0.6c0.1-0.1,0.2-0.1,0.1-0.3c0.1,0,0.2-0.2,0.2-0.3
	c0.1-0.1,0.1-0.2,0.2-0.2c0.2-0.1,0.3-0.3,0.4-0.5c0,0,0,0,0,0c0.1-0.1,0.2-0.1,0.1-0.3c0,0,0,0,0,0c0.1,0,0.2-0.1,0.2-0.2
	c0.3-0.5,0.7-0.9,0.9-1.3c0,0,0,0,0.1-0.1c0.3,0,0.3-0.2,0.4-0.4c0.1-0.1,0.1-0.2,0.2-0.3c0.2-0.1,0.3-0.2,0.5-0.3
	c0.2-0.1,0.4-0.1,0.6-0.1c0.2,0.2,0.5,0.2,0.7,0.4c0,0,0.1,0.1,0.1,0.1c0.1,0.2,0.3,0.4,0.4,0.5c0.1,0.2,0.2,0.5,0.4,0.5
	c0,0,0,0,0,0c0.1,0.4,0.3,0.7,0.6,0.9c0,0.1,0.1,0.2,0.2,0.3c0,0,0,0,0,0c0.1,0.2,0.2,0.4,0.4,0.5c0,0,0,0,0,0
	c0.1,0.2,0.1,0.4,0.4,0.4c0,0,0,0,0,0c0,0,0,0,0,0c0,0,0,0,0,0c0,0.1,0.1,0.2,0.2,0.3c0.1,0.3,0.2,0.5,0.5,0.7c0,0,0,0,0,0.1
	c0.1,0.2,0.2,0.3,0.3,0.5c0.1,0.2,0.2,0.5,0.4,0.6c0,0,0,0.1,0,0.1c0.1,0.1,0.2,0.2,0.3,0.4c0,0.2,0.1,0.3,0.2,0.4
	c0.1,0.1,0.2,0.3,0.3,0.4c0.1,0.3,0.3,0.6,0.5,0.9c0.1,0.3,0.3,0.6,0.5,0.8c0,0,0,0,0.1,0c0,0,0,0,0,0c-0.1,0.2,0,0.3,0.2,0.4
	c0.1,0.1,0.1,0.3,0.2,0.4c0,0.1,0,0.2,0.2,0.3c0,0.1,0.1,0.2,0.1,0.3c0.3,0.5,0.6,1.1,0.8,1.6c0.1,0.1,0.1,0.3,0.2,0.4
	c0,0.2,0.1,0.3,0.2,0.5c0,0.2,0.2,0.3,0.2,0.5c0,0.2,0.1,0.3,0.2,0.5c0,0.1,0.1,0.2,0.2,0.3c0.1,0.2,0.1,0.4,0.2,0.6
	c0,0.2,0.1,0.4,0.2,0.5c0,0,0,0,0,0c0.1,0.1,0,0.3,0.2,0.3c0,0,0,0,0,0c0,0,0,0.1,0,0.1c0.2,0.4,0.3,0.8,0.5,1.2
	c0,0.1,0,0.2,0.1,0.2c-0.1,0.2-0.2,0.5-0.2,0.7c0,0,0,0.1-0.1,0.1c-0.2,0.1-0.3,0.3-0.5,0.4c-0.3,0.1-0.6,0.2-1,0.2
	c-0.2,0.1-0.4-0.1-0.5,0.1c0,0,0,0-0.1,0c-0.2,0.1-0.4-0.1-0.5,0.1c-0.5,0.1-1,0.2-1.5,0.2c-0.2,0.1-0.4-0.1-0.6,0.1c0,0,0,0-0.1,0
	c-0.2,0-0.4,0-0.5,0.3c-0.1,0.1-0.2,0.2-0.2,0.3c-0.1,0.1-0.2,0.3-0.2,0.5c-0.1,0.1-0.1,0.2-0.2,0.4c-0.1,0.1-0.2,0.3-0.2,0.5
	c-0.1,0.2-0.2,0.4-0.3,0.7c-0.1,0.1-0.2,0.3-0.2,0.5c-0.1,0.1-0.1,0.3-0.2,0.4c0,0.1,0,0.1,0,0.2c-0.1,0.2-0.1,0.5,0.1,0.7
	c0.2,0.4,0.4,0.6,0.8,0.6c0.2,0,0.3,0.1,0.5,0c0.1,0,0.2,0,0.4,0c0.2-0.1,0.5,0.1,0.7-0.1c0.1,0,0.1,0,0.2,0
	c0.2-0.1,0.5,0.1,0.7-0.1c0,0,0.1,0,0.1,0c0.2-0.1,0.4,0.1,0.6-0.1l0,0l0,0c0.2-0.1,0.3,0,0.5-0.1c0.8-0.1,1.7-0.2,2.5-0.3
	c0.2,0.1,0.4,0,0.6-0.1c0.1,0,0.1-0.1,0.2-0.1c0.2,0,0.4,0,0.5-0.2c0.2-0.1,0.5-0.3,0.7-0.4c0.2,0,0.3-0.1,0.4-0.3
	c0.8-0.7,1.5-1.5,1.9-2.5c0,0,0,0,0,0c0,0,0,0,0,0c0.1-0.1,0.2-0.2,0.1-0.3c0.1-0.4,0.2-0.8,0.3-1.2C53.4,34.6,53.3,34.4,53.4,34.3z
	 M30.5,42.2c-1,1.5-2.1,3.1-3.3,4.5c-0.6,0.7-1.4,0.7-2,0c-0.7-0.9-1.3-1.7-1.9-2.6c-0.1-0.1-0.2-0.3-0.3-0.3c0,0,0,0,0,0
	c-0.3-0.6-0.7-1.2-1.1-1.6c0,0,0,0,0,0c-0.2-0.6-0.5-1.1-1-1.5c0-0.5-0.4-0.8-0.6-1.2c0-0.1-0.1-0.1-0.1-0.1c0-0.1,0-0.2,0-0.2
	c-0.2-0.4-0.4-0.7-0.6-1.1c0-0.1-0.1-0.1-0.2-0.1c0,0,0,0,0,0c0.1-0.1,0-0.2-0.1-0.3c-0.3-0.5-0.6-1.1-0.8-1.6
	c-0.1-0.1-0.1-0.2-0.2-0.3c0,0,0-0.1,0-0.2c-0.2-0.5-0.4-1.1-0.8-1.5c0-0.4-0.2-0.8-0.5-1.1c0-0.4-0.2-0.8-0.5-1
	c0-0.4-0.1-0.7-0.4-1c0.1-0.2,0-0.3-0.1-0.4c0,0,0,0,0.1,0c0,0,0-0.1,0-0.1c0.2-0.9,0.4-1.1,1.3-1.2c1.7-0.2,3.4-0.4,5-0.5
	c0.1,0,0.3,0,0.4-0.1c0,0,0,0,0,0c0,0,0,0,0,0c0.2,0.2,0.5,0.1,0.7,0.1c0.3-0.1,0.5,0,0.8-0.1c0.2,0,0.4,0,0.5,0.2
	c-0.3,0.2-0.4,0.6-0.5,0.9c0,0.1,0,0.1,0,0.2c0,0,0,0,0,0c-0.3,0.3-0.5,0.7-0.5,1.1c0,0,0,0,0,0c-0.3,0.4-0.4,0.8-0.5,1.2
	c0,0.1,0,0.1,0,0.2c0,0,0,0,0,0c-0.2,0.6-0.3,1.1-0.3,1.7c0,0.1,0,0.2,0.1,0.2C23,34.6,23,34.7,23,34.8c0.1,0.6,0.3,1.3,0.6,1.8
	c0,0.1,0.1,0.2,0.2,0.2c0.1,0.6,0.5,1.1,1.1,1.5c0,0.1,0.1,0.2,0.2,0.3c0.3,0.4,0.8,0.6,1.2,0.9c0.1,0.1,0.2,0.1,0.3,0.1
	c0.1,0.2,0.2,0.2,0.4,0.3c0.8,0.3,1.6,0.4,2.4,0.5c0.5,0.1,1,0.2,1.5,0.1c0,0,0,0,0,0c0.1,0.1,0.2,0.1,0.3,0.1
	c0.5,0.1,0.5,0.1,0.2,0.5c-0.1,0.1-0.2,0.2-0.2,0.4c-0.1,0.1-0.2,0.3-0.2,0.5C30.7,41.9,30.6,42.1,30.5,42.2z"/>
</svg>
