<?xml version="1.0" encoding="utf-8"?>
<!-- Roman Inozemtsev: https://github.com/mir-one/  -->
<svg version="1.1" id="Слой_1" xmlns="http://www.w3.org/2000/svg" xmlns:xlink="http://www.w3.org/1999/xlink" x="0px" y="0px"
	 viewBox="0 0 7.8 7.9" style="enable-background:new 0 0 7.8 7.9;" xml:space="preserve">
<style type="text/css">
	.st0{fill:#FFFFFF;}
</style>
<g id="Layer_x0020_1">
	<path id="wIcon_clip.svg" class="st0" d="M0.2,3.4l3.2-3.2C3.6,0.1,3.7,0,3.9,0C4,0,4.2,0.1,4.3,0.2l3.2,3.2c0.3,0.2,0.3,0.7,0,1
		L5.9,6.1L4.1,2.4L3.9,2L3.7,2.4L1.9,6.1L0.2,4.4C-0.1,4.1-0.1,3.7,0.2,3.4z M3.9,7.9c0.1,0,0.3-0.1,0.4-0.2l0.9-0.9L3.9,4.1
		L2.6,6.8l0.9,0.9C3.6,7.8,3.7,7.9,3.9,7.9z"/>
</g>
</svg>
