<?xml version="1.0" encoding="utf-8"?>
<!-- Roman Inozemtsev: https://github.com/mir-one/  -->
<svg version="1.1"
	 id="Слой_1" shape-rendering="geometricPrecision" text-rendering="geometricPrecision" image-rendering="optimizeQuality"
	 xmlns="http://www.w3.org/2000/svg" xmlns:xlink="http://www.w3.org/1999/xlink" x="0px" y="0px" viewBox="0 0 256.7 32.3"
	 style="enable-background:new 0 0 256.7 32.3;" xml:space="preserve">
<style type="text/css">
	.st0{fill:#4062ad;}
	.st1{fill:#161616;}
</style>
<rect id="Rectangle-path_1_" x="159" y="9.9" transform="matrix(0.7071 -0.7071 0.7071 0.7071 38.4942 117.8717)" class="st0" width="5.1" height="5.1"/>
<g id="Group_2_" transform="translate(0.000000, 9.831094)">
	<polygon id="Shape_14_" class="st1" points="112,2.6 110,2.6 109.8,2.8 107.7,10 107.7,10 105.3,2.8 105.1,2.6 103,2.6 102.8,2.8 
		100.4,10 100.4,9.9 100.4,9.9 98.3,2.8 98.1,2.6 96,2.6 95.9,2.8 99.1,12.9 99.4,13.1 101.4,13.1 101.6,12.9 104,5.7 104,5.7 
		106.4,12.9 106.6,13.1 108.7,13.1 108.9,12.9 112.1,2.8 	"/>
	<polygon id="Shape_13_" class="st1" points="135,2.6 133,2.6 132.7,2.8 129.9,10.3 129.9,10.3 127,2.8 126.8,2.6 124.7,2.6 
		124.6,2.8 128.7,12.9 128.9,13.1 130.8,13.1 131,12.9 135.2,2.8 	"/>
	<path id="Shape_12_" class="st1" d="M145.6,8.4l0.2-0.2V7.9c0-1.6-0.5-3-1.4-4c-0.9-1-2.2-1.5-3.7-1.5c-1.5,0-2.7,0.5-3.6,1.6
		c-0.9,1.1-1.4,2.4-1.4,3.8c0,1.6,0.5,2.9,1.5,3.9s2.2,1.5,3.8,1.5c1.1,0,2.1-0.3,2.8-0.8c0.8-0.5,1.6-1.4,1.9-2.6l-0.1-0.2h-1.9
		l-0.3,0.2c-0.5,1-1.2,1.4-2.4,1.4c-0.8,0-1.5-0.3-2.1-0.8c-0.6-0.5-0.9-1.1-1-2L145.6,8.4z M138,6.6c0.3-1.2,1.4-2.2,2.7-2.2
		c1.8,0,2.5,1.3,2.8,2.2H138z"/>
	<path id="Shape_11_" class="st1" d="M121.3,2.6l-0.2,0.2v1l0,0c-0.3-0.3-0.6-0.7-1.1-0.9c-0.1-0.1-0.2-0.1-0.3-0.2
		c-0.6-0.3-1.2-0.4-1.9-0.4c-1.3,0-2.5,0.5-3.4,1.6s-1.4,2.3-1.4,3.9s0.5,2.8,1.4,3.9s2.1,1.6,3.4,1.6c0.7,0,1.3-0.1,1.9-0.4
		c0.1-0.1,0.2-0.1,0.3-0.2c0.4-0.3,0.8-0.5,1-0.9c0,0,0.1,0,0.1,0v1.1l0.2,0.2h1.7l0.2-0.2V2.8L123,2.6L121.3,2.6L121.3,2.6z
		 M120.2,10.4c-0.6,0.6-1.3,0.9-2.1,0.9c-0.8,0-1.4-0.3-2-0.9c-0.6-0.6-0.9-1.5-0.9-2.5c0-1,0.3-1.9,0.9-2.5c0.6-0.6,1.2-0.9,2-0.9
		s1.5,0.3,2.1,0.9c0.4,0.4,0.6,0.9,0.8,1.5v2C120.8,9.5,120.6,10,120.2,10.4z"/>
	<path id="Shape_10_" class="st1" d="M153,7.1c0,0-1.1-0.2-2.1-0.5c-0.9-0.2-1.3-0.5-1.3-1.1c0-0.7,0.6-1.2,2-1.2c1.3,0,2,0.6,2,1.1
		l0.2,0.2h1.9l0.1-0.2c0-1.4-1.2-3-4.3-3c-3.2,0-4.2,1.9-4.2,3.1c0,1,0.4,2.2,2.8,2.8c0,0,1.2,0.3,2.1,0.5c1.1,0.2,1.5,0.6,1.5,1.2
		c0,0.6-0.6,1.3-2.1,1.3c-1.4,0-2.2-0.7-2.3-1.4l-0.2-0.2h-2l-0.1,0.2c0.2,1.8,1.5,3.4,4.6,3.4c3.5,0,4.2-2.2,4.2-3.3
		C156,8.5,155.1,7.5,153,7.1z"/>
</g>
</svg>
