<?xml version="1.0" encoding="utf-8"?>
<!-- Roman Inozemtsev: https://github.com/mir-one/  -->
<svg version="1.1"
	 id="Слой_1" shape-rendering="geometricPrecision" text-rendering="geometricPrecision" image-rendering="optimizeQuality"
	 xmlns="http://www.w3.org/2000/svg" xmlns:xlink="http://www.w3.org/1999/xlink" x="0px" y="0px" viewBox="0 0 256.7 32.2"
	 style="enable-background:new 0 0 256.7 32.2;" xml:space="preserve">
<style type="text/css">
	.st0{fill:#224099;}
	.st1{fill:#161616;}
</style>
<rect id="Rectangle-path_1_" x="157" y="9.9" transform="matrix(0.7071 -0.7071 0.7071 0.7071 37.9084 116.4574)" class="st0" width="5.1" height="5.1"/>
<g id="Group_2_" transform="translate(0.000000, 9.831094)">
	<polygon id="Shape_14_" class="st1" points="110,2.6 108,2.6 107.8,2.8 105.7,10 105.7,10 103.3,2.8 103.1,2.6 101,2.6 100.8,2.8 
		98.4,10 98.4,9.9 98.4,9.9 96.3,2.8 96.1,2.6 94,2.6 93.9,2.8 97.1,12.9 97.4,13.1 99.4,13.1 99.6,12.9 102,5.7 102,5.7 
		104.4,12.9 104.6,13.1 106.7,13.1 106.9,12.9 110.1,2.8 	"/>
	<polygon id="Shape_13_" class="st1" points="133,2.6 131,2.6 130.7,2.8 127.9,10.3 127.9,10.3 125,2.8 124.8,2.6 122.7,2.6 
		122.6,2.8 126.7,12.9 126.9,13.1 128.8,13.1 129,12.9 133.2,2.8 	"/>
	<path id="Shape_12_" class="st1" d="M143.6,8.4l0.2-0.2V7.9c0-1.6-0.5-3-1.4-4c-0.9-1-2.2-1.5-3.7-1.5c-1.5,0-2.7,0.5-3.6,1.6
		c-0.9,1.1-1.4,2.4-1.4,3.8c0,1.6,0.5,2.9,1.5,3.9s2.2,1.5,3.8,1.5c1.1,0,2.1-0.3,2.8-0.8c0.8-0.5,1.6-1.4,1.9-2.6l-0.1-0.2h-1.9
		l-0.3,0.2c-0.5,1-1.2,1.4-2.4,1.4c-0.8,0-1.5-0.3-2.1-0.8c-0.6-0.5-0.9-1.1-1-2L143.6,8.4z M136,6.6c0.3-1.2,1.4-2.2,2.7-2.2
		c1.8,0,2.5,1.3,2.8,2.2H136z"/>
	<path id="Shape_11_" class="st1" d="M119.3,2.6l-0.2,0.2v1l0,0c-0.3-0.3-0.6-0.7-1.1-0.9c-0.1-0.1-0.2-0.1-0.3-0.2
		c-0.6-0.3-1.2-0.4-1.9-0.4c-1.3,0-2.5,0.5-3.4,1.6s-1.4,2.3-1.4,3.9s0.5,2.8,1.4,3.9s2.1,1.6,3.4,1.6c0.7,0,1.3-0.1,1.9-0.4
		c0.1-0.1,0.2-0.1,0.3-0.2c0.4-0.3,0.8-0.5,1-0.9c0,0,0.1,0,0.1,0v1.1l0.2,0.2h1.7l0.2-0.2V2.8L121,2.6L119.3,2.6L119.3,2.6z
		 M118.2,10.4c-0.6,0.6-1.3,0.9-2.1,0.9c-0.8,0-1.4-0.3-2-0.9c-0.6-0.6-0.9-1.5-0.9-2.5c0-1,0.3-1.9,0.9-2.5c0.6-0.6,1.2-0.9,2-0.9
		s1.5,0.3,2.1,0.9c0.4,0.4,0.6,0.9,0.8,1.5v2C118.8,9.5,118.6,10,118.2,10.4z"/>
	<path id="Shape_10_" class="st1" d="M151,7.1c0,0-1.1-0.2-2.1-0.5c-0.9-0.2-1.3-0.5-1.3-1.1c0-0.7,0.6-1.2,2-1.2c1.3,0,2,0.6,2,1.1
		l0.2,0.2h1.9l0.1-0.2c0-1.4-1.2-3-4.3-3c-3.2,0-4.2,1.9-4.2,3.1c0,1,0.4,2.2,2.8,2.8c0,0,1.2,0.3,2.1,0.5c1.1,0.2,1.5,0.6,1.5,1.2
		c0,0.6-0.6,1.3-2.1,1.3c-1.4,0-2.2-0.7-2.3-1.4l-0.2-0.2h-2l-0.1,0.2c0.2,1.8,1.5,3.4,4.6,3.4c3.5,0,4.2-2.2,4.2-3.3
		C154,8.5,153.1,7.5,151,7.1z"/>
</g>
</svg>
