<?xml version="1.0" encoding="utf-8"?>
<!-- Generator: Adobe Illustrator 21.0.0, SVG Export Plug-In . SVG Version: 6.00 Build 0)  -->
<svg version="1.1"
	 id="Слой_1" shape-rendering="geometricPrecision" text-rendering="geometricPrecision" image-rendering="optimizeQuality"
	 xmlns="http://www.w3.org/2000/svg" xmlns:xlink="http://www.w3.org/1999/xlink" x="0px" y="0px" viewBox="0 0 24 24"
	 style="enable-background:new 0 0 24 24;" xml:space="preserve">
<style type="text/css">
	.st0{fill:#21409A;}
	.st1{fill:#FFFFFF;}
</style>
<path class="st0" d="M22,24H2c-1.1,0-2-0.9-2-2V2c0-1.1,0.9-2,2-2h20c1.1,0,2,0.9,2,2v20C24,23.1,23.1,24,22,24z"/>
<path class="st1" d="M20.9,23H3.1C2,23,1,22,1,20.9V3.1C1,2,2,1,3.1,1h17.8C22,1,23,2,23,3.1v17.8C23,22,22,23,20.9,23z"/>
<g>
	<path class="st0" d="M15.5,9.8c0.6,0,1.1,0,1.7,0c0,2.5,0,5,0,7.5c-0.6,0-1.1,0-1.7,0C15.5,14.8,15.5,12.4,15.5,9.8z"/>
	<path class="st0" d="M15.5,7.4c-0.1-0.2-0.2-0.4-0.4-0.7c0.7,0.1,1.4,0.1,2.1,0.2c-0.3,0.7-0.6,1.3-0.9,1.9
		c-0.2-0.3-0.3-0.5-0.4-0.7c-1.5,0.8-3,1.7-4.5,2.5C10,11.4,8.5,12.3,7,13.1c-0.1-0.2-0.3-0.4-0.4-0.7C9.6,10.7,12.5,9,15.5,7.4z"/>
	<path class="st0" d="M14.2,17.4c-0.6,0-1.1,0-1.7,0c0-2,0-3.9,0-5.9c0.5,0,1.1,0,1.7,0C14.2,13.4,14.2,15.3,14.2,17.4z"/>
	<path class="st0" d="M11.3,13c0,0.1,0,0.3,0,0.4c0,1.3,0,2.6,0,4c-0.6,0-1.2,0-1.8,0c0-1.4,0-2.9,0-4.4C10.1,13,10.6,13,11.3,13z"
		/>
	<path class="st0" d="M8.3,14.4c0,1,0,1.9,0,2.9c-0.6,0-1.1,0-1.7,0c0-1,0-1.9,0-2.9C7.1,14.4,7.7,14.4,8.3,14.4z"/>
</g>
</svg>
