<?xml version="1.0" encoding="utf-8"?>
<!-- Roman Inozemtsev: https://github.com/mir-one/  -->
<svg version="1.1"
	 id="Слой_1" shape-rendering="geometricPrecision" text-rendering="geometricPrecision" image-rendering="optimizeQuality"
	 xmlns="http://www.w3.org/2000/svg" xmlns:xlink="http://www.w3.org/1999/xlink" x="0px" y="0px" viewBox="0 0 24 24"
	 style="enable-background:new 0 0 24 24;" xml:space="preserve">
<style type="text/css">
	.st0{fill:#21409A;}
	.st1{fill:#FFFFFF;}
</style>
<path class="st0" d="M22,24H2c-1.1,0-2-0.9-2-2V2c0-1.1,0.9-2,2-2h20c1.1,0,2,0.9,2,2v20C24,23.1,23.1,24,22,24z"/>
<path class="st1" d="M21.6,23H2.4C1.6,23,1,22.4,1,21.6V2.4C1,1.6,1.6,1,2.4,1h19.3C22.4,1,23,1.6,23,2.4v19.3
	C23,22.4,22.4,23,21.6,23z"/>
<path class="st0" d="M15.6,7.7c-1.9-2.2-5.3-2.2-7.1,0.1C7.3,9.3,7.2,11,8,12.7c0.4,0.9,1,1.6,1.6,2.3c0.8,1,1.7,1.9,2.4,2.9
	c0.1,0.2,0.1,0.1,0.2,0c0.5-0.7,1-1.3,1.6-2c0.7-0.8,1.4-1.5,1.9-2.4c0.6-0.8,0.9-1.8,0.9-2.7C16.6,9.6,16.2,8.7,15.6,7.7z"/>
<path class="st1" d="M14.9,8.2c-1.6-1.8-4.3-1.8-5.8,0.1c-1,1.2-1.1,2.6-0.4,3.9C9,13,9.5,13.5,10,14.1c0.7,0.8,1.4,1.5,2,2.3
	c0.1,0.2,0.1,0.1,0.2,0c0.4-0.6,0.8-1,1.3-1.6c0.6-0.6,1.1-1.2,1.6-1.9c0.5-0.6,0.7-1.4,0.7-2.2C15.7,9.8,15.4,9.1,14.9,8.2z"/>
<rect id="Rectangle-path_4_" x="10.3" y="9.1" transform="matrix(0.7071 -0.7071 0.7071 0.7071 -4.1003 11.6404)" class="st0" width="3.4" height="3.4"/>
</svg>
