<?xml version="1.0" encoding="utf-8"?>
<!-- Roman Inozemtsev: https://github.com/mir-one/  -->
<svg version="1.1"
	 id="Слой_1" shape-rendering="geometricPrecision" text-rendering="geometricPrecision" image-rendering="optimizeQuality"
	 xmlns="http://www.w3.org/2000/svg" xmlns:xlink="http://www.w3.org/1999/xlink" x="0px" y="0px" viewBox="0 0 229.4 152.5"
	 style="enable-background:new 0 0 229.4 152.5;" xml:space="preserve">
<style type="text/css">
	.st0{fill:#4062ad;}
	.st1{fill:#FFFFFF;}
</style>
<rect id="Rectangle-path_1_" x="83.9" y="12.2" transform="matrix(0.7071 -0.7071 0.7071 0.7071 2.7053 94.7875)" class="st0" width="63.8" height="63.8"/>
<g id="Group_2_" transform="translate(0.000000, 9.831094)">
	<polygon id="Shape_14_" class="st1" points="60.8,101 53,101 52.2,101.7 44.2,129.1 44.1,129.1 35.2,101.7 34.4,101 26.2,101 
		25.4,101.7 16.5,129 16.3,128.9 16.3,128.8 8.3,101.7 7.5,101 -0.5,101 -1,101.7 11.5,140.4 12.3,141.1 20.2,141.1 21.1,140.4 
		30,112.7 30.2,112.7 39.1,140.4 40,141.1 48,141.1 48.8,140.4 61.3,101.7 	"/>
	<polygon id="Shape_13_" class="st1" points="149,101 141.1,101 140.3,101.7 129.3,130.3 129.2,130.3 118.4,101.7 117.5,101 
		109.5,101 109,101.7 124.6,140.4 125.5,141.1 132.8,141.1 133.7,140.4 149.5,101.7 	"/>
	<path id="Shape_12_" class="st1" d="M189.4,123.2l0.8-0.7v-1.2c0-6.3-1.8-11.7-5.3-15.4c-3.5-3.8-8.3-5.7-14.1-5.7
		c-5.6,0-10.3,2.1-13.9,6.2s-5.4,9-5.4,14.6c0,6,1.9,11,5.6,14.9c3.7,3.9,8.6,5.9,14.5,5.9c4.3,0,7.9-1,10.9-3.1c3-2,6.1-5.4,7.1-10
		l-0.6-0.8h-7.3l-1,0.8c-1.8,3.7-4.6,5.4-9.3,5.4c-3,0-5.7-1.1-7.9-3.2c-2.1-2-3.4-4.4-3.7-7.8L189.4,123.2z M160.4,116.1
		c1.3-4.7,5.2-8.3,10.4-8.3c6.9,0,9.7,4.9,10.5,8.3H160.4z"/>
	<path id="Shape_11_" class="st1" d="M96.2,101l-0.8,0.8v4l-0.2,0.2c-1-1.3-2.4-2.5-4-3.5c-0.4-0.2-0.8-0.4-1.2-0.6
		c-2.2-1.1-4.7-1.6-7.4-1.6c-5,0-9.5,2-13.1,6c-3.7,4-5.5,9-5.5,14.8c0,5.9,1.8,10.9,5.5,14.8c3.7,4,8.1,6,13.1,6
		c2.7,0,5.1-0.5,7.3-1.6c0.4-0.2,0.9-0.4,1.3-0.7c1.6-1,2.9-2,3.9-3.3c0.1-0.1,0.2,0.1,0.3,0v4.1l0.8,0.8h6.7l0.8-0.8v-38.8
		l-0.8-0.8L96.2,101L96.2,101z M92.1,130.6c-2.2,2.4-4.9,3.6-8.2,3.6c-3.2,0-5.5-1.2-7.8-3.6c-2.3-2.4-3.4-5.6-3.4-9.6
		c0-4,1.2-7.2,3.4-9.6c2.3-2.4,4.6-3.6,7.8-3.6s5.9,1.2,8.2,3.6c1.5,1.6,2.4,3.5,3,5.8v7.7C94.6,127.2,93.6,129.1,92.1,130.6z"/>
	<path id="Shape_10_" class="st1" d="M217.7,117.9c0,0-4.4-0.9-8-1.7c-3.3-0.8-5-1.7-5-4.1c0-2.5,2.4-4.6,7.5-4.6
		c5,0,7.8,2.2,7.8,4.2l0.9,0.8h7.3l0.6-0.7c0-5.2-4.5-11.5-16.4-11.5c-12.4,0-16.2,7.3-16.2,12c0,3.9,1.4,8.6,10.9,10.7
		c0,0,4.5,1,8.2,1.8c4.1,0.9,5.9,2.3,5.9,4.7c0,2.2-2.2,4.8-7.9,4.8c-5.3,0-8.5-2.5-8.7-5.6l-0.9-0.8h-7.5l-0.6,0.8
		c0.7,6.7,5.7,13,17.6,13c13.5,0,16.2-8.3,16.2-12.6C229.4,123.5,226.1,119.7,217.7,117.9z"/>
</g>
</svg>
