<?xml version="1.0" encoding="utf-8"?>
<!-- Roman Inozemtsev: https://github.com/mir-one/  -->
<svg version="1.1"
	 id="Слой_1" shape-rendering="geometricPrecision" image-rendering="optimizeQuality" text-rendering="geometricPrecision"
	 xmlns="http://www.w3.org/2000/svg" xmlns:xlink="http://www.w3.org/1999/xlink" x="0px" y="0px" viewBox="0 0 114 114"
	 style="enable-background:new 0 0 114 114;" xml:space="preserve">
<style type="text/css">
	.st0{fill:#3B5999;}
</style>
<path id="Layer_x0020_1" class="st0" d="M4.2,46.9L46.9,4.2c5.5-5.5,14.6-5.5,20.1,0l42.8,42.8c5.5,5.5,5.5,14.6,0,20.1l-42.8,42.8
	c-5.5,5.5-14.6,5.5-20.1,0L4.2,67.1C-1.4,61.5-1.4,52.5,4.2,46.9z M68.6,35h6.1V22.7H61.5c-8,0-14.5,6.5-14.5,14.5v7.4H36.6v12.3H47
	v37.8h16.2V56.8h11.5V44.6H63.1v-4.1C63.1,37.4,65.6,35,68.6,35z"/>
</svg>
