<?xml version="1.0" encoding="utf-8"?>
<!-- Roman Inozemtsev: https://github.com/mir-one/  -->
<svg version="1.1"
	 id="Слой_1" image-rendering="optimizeQuality" shape-rendering="geometricPrecision" text-rendering="geometricPrecision"
	 xmlns="http://www.w3.org/2000/svg" xmlns:xlink="http://www.w3.org/1999/xlink" x="0px" y="0px" viewBox="0 0 256.7 32.3"
	 style="enable-background:new 0 0 256.7 32.3;" xml:space="preserve">
<style type="text/css">
	.st0{fill:#FFFFFF;}
	.st1{fill:#39B44A;}
	.st2{fill:#F9EE5D;}
</style>
<circle class="st0" cx="80.6" cy="17.1" r="10.3"/>
<g>
	<path class="st1" d="M70.4,17.3c0-0.1,0-0.2,0-0.3c0-0.1,0-0.2,0-0.2v0c0-0.6,0.1-1.1,0.2-1.7c0.2-0.9,0.5-1.7,0.9-2.5
		c0.5-1,1.2-2,2.1-2.8c0.9-0.8,1.9-1.5,3-2c1-0.4,2-0.7,3.1-0.8c0.5-0.1,1-0.1,1.4-0.1c0.6,0,1.1,0.1,1.7,0.2c1,0.2,1.9,0.5,2.8,1
		c1.3,0.7,2.4,1.6,3.3,2.8c0.7,0.9,1.2,1.8,1.6,2.9c0.2,0.6,0.4,1.3,0.5,1.9c0.1,0.3,0.1,0.7,0.1,1c0,0.1,0,0.2,0,0.2
		c0,0.1,0,0.2,0,0.3c0,0.1,0,0.2,0,0.2c0,0.2,0,0.5-0.1,0.7c-0.1,0.6-0.2,1.2-0.4,1.8c-0.5,1.8-1.5,3.3-2.8,4.6
		c-1.1,1-2.3,1.8-3.8,2.3c-0.6,0.2-1.2,0.3-1.9,0.4c-0.3,0.1-0.7,0.1-1,0.1c-0.1,0-0.2,0-0.2,0c-0.1,0-0.2,0-0.3,0
		c-0.1,0-0.2,0-0.2,0c-0.5,0-0.9-0.1-1.3-0.2c-1-0.2-2-0.5-2.9-0.9c-1.1-0.6-2.1-1.3-3-2.3c-0.9-1.1-1.7-2.3-2.1-3.6
		c-0.2-0.6-0.3-1.2-0.4-1.9c-0.1-0.3-0.1-0.7-0.1-1C70.4,17.5,70.4,17.4,70.4,17.3z M90.1,17.1c0-5.2-4.2-9.4-9.3-9.5
		c-5.3-0.1-9.5,4.2-9.5,9.3c-0.1,5.3,4.2,9.5,9.3,9.5C85.8,26.6,90.1,22.4,90.1,17.1z"/>
	<path class="st2" d="M70.4,16.7L70.4,16.7c0,0.1,0,0.2,0,0.3C70.4,16.9,70.4,16.8,70.4,16.7z"/>
	<path class="st2" d="M70.4,17.5C70.4,17.5,70.4,17.6,70.4,17.5c0-0.1,0-0.2,0-0.2C70.4,17.4,70.4,17.5,70.4,17.5z"/>
	<path class="st1" d="M80.7,26c-4.8,0-8.8-3.9-8.8-8.7c-0.1-4.9,3.9-8.9,8.7-9c4.9-0.1,8.9,3.9,9,8.7C89.6,22,85.6,26,80.7,26z
		 M81.5,10C81.5,10,81.5,10,81.5,10c0.4,1,0.6,2,0.7,2.9c0,0.6,0,1.3-0.1,1.9c-0.2,0.9-0.5,1.8-1,2.5c-0.4,0.6-0.7,1.3-0.9,1.9
		c-0.3,0.9-0.4,1.8-0.4,2.7c0,0.4,0,0.9,0.1,1.3c0,0.3,0.1,0.6,0.2,1c0,0,0,0.1,0.1,0.1c0.1,0,0.2,0,0.3,0c0.7,0,1.3-0.1,2-0.3
		c0.8-0.3,1.5-0.9,2.1-1.5c0.6-0.7,1.1-1.6,1.4-2.5c0.4-1.2,0.5-2.5,0.4-3.7c-0.1-0.7-0.2-1.3-0.4-2c-0.4-1.1-0.9-2.1-1.8-2.8
		c-0.5-0.5-1-0.9-1.7-1.1C82.1,10.2,81.8,10.1,81.5,10z M78.9,24C78.9,24,78.9,24,78.9,24c-0.1-0.7-0.2-1.4-0.2-2.1
		c0-0.6,0.1-1.2,0.2-1.8c0.2-1.2,0.6-2.2,1.3-3.2c0.5-0.8,0.8-1.7,0.9-2.7c0.1-0.6,0-1.2-0.1-1.8c-0.1-0.8-0.4-1.6-0.7-2.3
		c0-0.1,0-0.1-0.1-0.1c-0.5,0-0.9,0.2-1.3,0.3c-0.8,0.3-1.5,0.9-2.1,1.5c-0.6,0.7-1.1,1.6-1.4,2.5c-0.3,1-0.5,2.1-0.4,3.2
		c0,0.6,0.1,1.2,0.3,1.8c0.2,0.9,0.6,1.8,1.2,2.6c0.5,0.7,1.1,1.3,1.9,1.8C78.6,23.8,78.7,23.9,78.9,24z"/>
	<path class="st2" d="M81.5,10c0.3,0.1,0.6,0.2,0.9,0.3c0.6,0.3,1.2,0.6,1.7,1.1c0.8,0.8,1.4,1.8,1.8,2.8c0.2,0.6,0.4,1.3,0.4,2
		c0.1,1.3,0,2.5-0.4,3.7c-0.3,0.9-0.8,1.7-1.4,2.5c-0.6,0.7-1.3,1.2-2.1,1.5c-0.6,0.2-1.3,0.4-2,0.3c-0.1,0-0.2,0-0.3,0
		c0,0-0.1,0-0.1-0.1c-0.1-0.3-0.1-0.6-0.2-1c-0.1-0.4-0.1-0.9-0.1-1.3c0-0.9,0.2-1.8,0.4-2.7c0.2-0.7,0.5-1.3,0.9-1.9
		c0.5-0.8,0.8-1.6,1-2.5c0.1-0.6,0.2-1.3,0.1-1.9C82.1,11.9,81.9,11,81.5,10C81.5,10,81.5,10,81.5,10z"/>
	<path class="st2" d="M78.9,24c-0.2-0.1-0.4-0.2-0.6-0.3c-0.8-0.4-1.4-1-1.9-1.8c-0.6-0.8-0.9-1.7-1.2-2.6c-0.2-0.6-0.2-1.2-0.3-1.8
		c-0.1-1.1,0.1-2.2,0.4-3.2c0.3-0.9,0.8-1.7,1.4-2.5c0.6-0.7,1.3-1.2,2.1-1.5c0.4-0.2,0.9-0.3,1.3-0.3c0.1,0,0.1,0,0.1,0.1
		c0.3,0.7,0.6,1.5,0.7,2.3c0.1,0.6,0.1,1.2,0.1,1.8c-0.1,0.9-0.4,1.8-0.9,2.7c-0.6,1-1,2.1-1.3,3.2c-0.1,0.6-0.2,1.2-0.2,1.8
		C78.8,22.6,78.8,23.3,78.9,24C78.9,24,78.9,24,78.9,24z"/>
</g>
<path class="st1" d="M92.4,17.1C92.4,17.2,92.4,17.2,92.4,17.1C92.4,17.2,92.4,17.1,92.4,17.1C92.4,17.1,92.4,17.1,92.4,17.1z"/>
<g>
	<path class="st1" d="M110.7,22.4c-0.5,0.2-1.5,0.5-2.8,0.5c-3.8,0-5.8-2.4-5.8-5.5c0-3.8,2.7-5.9,6-5.9c1.3,0,2.3,0.3,2.7,0.5
		l-0.5,2c-0.5-0.2-1.2-0.4-2.1-0.4c-2,0-3.5,1.2-3.5,3.6c0,2.2,1.3,3.6,3.5,3.6c0.8,0,1.6-0.2,2.1-0.4L110.7,22.4z"/>
	<path class="st1" d="M121.9,17c0,3.6-2.2,5.8-5.4,5.8c-3.3,0-5.2-2.5-5.2-5.6c0-3.3,2.1-5.8,5.4-5.8C120.1,11.5,121.9,14,121.9,17z
		 M113.9,17.2c0,2.2,1,3.7,2.7,3.7c1.7,0,2.6-1.6,2.6-3.7c0-2-0.9-3.7-2.7-3.7C114.9,13.4,113.9,15,113.9,17.2z"/>
	<path class="st1" d="M123.5,11.6h6.7v2H126v2.5h4v2h-4v4.4h-2.5V11.6z"/>
	<path class="st1" d="M132.1,11.6h6.7v2h-4.2v2.5h4v2h-4v4.4h-2.5V11.6z"/>
	<path class="st1" d="M147.2,18h-4.1v2.6h4.5v2h-7v-11h6.8v2h-4.3V16h4.1V18z"/>
	<path class="st1" d="M155.9,18h-4.1v2.6h4.5v2h-7v-11h6.8v2h-4.3V16h4.1V18z"/>
	<path class="st1" d="M166.2,22.4c-0.5,0.2-1.5,0.5-2.8,0.5c-3.8,0-5.8-2.4-5.8-5.5c0-3.8,2.7-5.9,6-5.9c1.3,0,2.3,0.3,2.7,0.5
		l-0.5,2c-0.5-0.2-1.2-0.4-2.1-0.4c-2,0-3.5,1.2-3.5,3.6c0,2.2,1.3,3.6,3.5,3.6c0.8,0,1.6-0.2,2.1-0.4L166.2,22.4z"/>
	<path class="st1" d="M177.4,17c0,3.6-2.2,5.8-5.4,5.8c-3.3,0-5.2-2.5-5.2-5.6c0-3.3,2.1-5.8,5.4-5.8C175.5,11.5,177.4,14,177.4,17z
		 M169.4,17.2c0,2.2,1,3.7,2.7,3.7c1.7,0,2.6-1.6,2.6-3.7c0-2-0.9-3.7-2.7-3.7C170.4,13.4,169.4,15,169.4,17.2z"/>
	<path class="st1" d="M181.5,11.6v11H179v-11H181.5z"/>
	<path class="st1" d="M183.6,22.7v-11h2.9l2.3,4c0.7,1.2,1.3,2.5,1.8,3.8h0c-0.2-1.5-0.2-2.9-0.2-4.6v-3.2h2.3v11h-2.6l-2.4-4.3
		c-0.7-1.2-1.4-2.6-1.9-3.9l0,0c0.1,1.5,0.1,3,0.1,4.8v3.3H183.6z"/>
</g>
</svg>
