<?xml version="1.0" encoding="utf-8"?>
<!-- Roman Inozemtsev: https://github.com/mir-one/  -->
<svg version="1.1" id="Слой_1" xmlns="http://www.w3.org/2000/svg" xmlns:xlink="http://www.w3.org/1999/xlink" x="0px" y="0px"
	 viewBox="0 0 67 67" style="enable-background:new 0 0 67 67;" xml:space="preserve">
<style type="text/css">
	.st0{fill:#FFFFFF;}
	.st1{fill:#39B44A;}
	.st2{fill:#215F30;}
	.st3{fill:#58595B;}
	.st4{fill:#F9EE5D;}
</style>
<g>
	<path class="st0" d="M38.4,20.3c0.1,2.1,0,4.1-0.3,6.1c-0.5,3-1.6,5.8-3.2,8.3c-1.2,2-2.2,4.1-2.9,6.3c-0.9,2.9-1.3,5.8-1.4,8.8
		c0,1.4,0,2.8,0.2,4.1c0.1,1.1,0.3,2.1,0.5,3.2c0,0.1,0.1,0.2,0.2,0.2c0.4,0,0.8,0.1,1.1,0.1c2.3,0.1,4.4-0.2,6.5-1.1
		c2.7-1.1,5-2.8,6.8-5c2.1-2.4,3.5-5.1,4.5-8.1c1.3-4,1.7-8.1,1.3-12.1c-0.2-2.2-0.7-4.4-1.4-6.5c-1.2-3.5-3.1-6.7-5.8-9.3
		c-1.6-1.5-3.4-2.8-5.4-3.6c-0.9-0.4-1.9-0.7-3-0.9c0,0.1,0.1,0.1,0.1,0.2C37.4,13.9,38.1,17.1,38.4,20.3z"/>
	<path class="st0" d="M16.1,41.2c0.8,3,2,5.8,3.8,8.4c1.7,2.4,3.7,4.4,6.3,5.8c0.5,0.3,1.1,0.6,1.8,0.9c-0.4-2.3-0.5-4.6-0.5-6.9
		c0-2,0.3-3.9,0.6-5.9c0.7-3.8,2.1-7.2,4.1-10.5c1.7-2.7,2.6-5.6,3-8.7c0.2-2,0.1-4-0.2-6c-0.4-2.6-1.2-5.2-2.3-7.6
		c-0.1-0.3-0.1-0.3-0.4-0.2c-1.5,0.1-3,0.5-4.4,1.1c-2.7,1.1-4.9,2.8-6.8,5c-2.1,2.4-3.5,5.1-4.5,8.1c-1.1,3.4-1.6,6.9-1.4,10.5
		C15.3,37.2,15.6,39.2,16.1,41.2z"/>
	<path class="st1" d="M33.6,62.6c15.9,0,29-13,28.7-29.3C61.9,17.7,49,4.9,33,5.2C17.3,5.5,4.5,18.4,4.8,34.5
		C5.1,50.1,17.8,62.6,33.6,62.6z M39.1,11.7c2,0.8,3.8,2.1,5.4,3.6c2.7,2.6,4.6,5.8,5.8,9.3c0.7,2.1,1.2,4.3,1.4,6.5
		c0.4,4.1,0,8.2-1.3,12.1c-1,3-2.4,5.7-4.5,8.1c-1.8,2.2-4.1,3.9-6.8,5c-2.1,0.9-4.2,1.2-6.5,1.1c-0.3,0-0.7-0.1-1.1-0.1
		c-0.1,0-0.2-0.1-0.2-0.2c-0.2-1.1-0.4-2.1-0.5-3.2c-0.2-1.3-0.2-2.7-0.2-4.1c0.1-3,0.5-5.9,1.4-8.8c0.7-2.2,1.7-4.3,2.9-6.3
		c1.6-2.5,2.7-5.3,3.2-8.3c0.3-2,0.4-4,0.3-6.1c-0.3-3.2-1-6.4-2.2-9.4c0-0.1-0.1-0.1-0.1-0.2C37.2,11,38.2,11.3,39.1,11.7z
		 M16.6,24.8c1-3,2.4-5.7,4.5-8.1c1.9-2.2,4.1-3.9,6.8-5c1.4-0.6,2.9-1,4.4-1.1c0.3-0.1,0.3-0.1,0.4,0.2c1.1,2.4,1.9,5,2.3,7.6
		c0.3,2,0.4,4,0.2,6c-0.4,3.1-1.3,6-3,8.7c-2,3.3-3.4,6.7-4.1,10.5c-0.3,2-0.6,3.9-0.6,5.9c0,2.3,0.1,4.6,0.5,6.9c0-0.1,0-0.1,0-0.1
		s0,0,0,0.1c-0.7-0.3-1.3-0.6-1.8-0.9c-2.6-1.4-4.6-3.4-6.3-5.8c-1.8-2.6-3-5.4-3.8-8.4c-0.5-2-0.8-4-0.9-6
		C15,31.7,15.5,28.2,16.6,24.8z"/>
	<path class="st1" d="M32.3,10.7l8.4,10.2l3.9-5.6l22.2,22.3c0.2-1.4,0.3-2.7,0.3-4.1C67,14.9,52-0.1,33.5-0.1S0,14.9,0,33.4
		s15,33.5,33.5,33.5c1.1,0,2.1-0.1,3.2-0.2L21.5,51.6L32.3,10.7z"/>
	<path class="st2" d="M66.7,37.6L44.5,15.2l-3.9,5.6l-8.4-10.2l-10.7,41l15.2,15.2C52.3,65.3,64.8,53.1,66.7,37.6z"/>
	<g>
		<path class="st3" d="M37.2,12.2c1.1,0.2,2.1,0.5,3.1,0.9c2,0.9,3.8,2.1,5.4,3.6c2.7,2.6,4.5,5.8,5.8,9.3c0.7,2.1,1.2,4.2,1.4,6.5
			c0.4,4.2,0,8.2-1.3,12.1c-1,3-2.5,5.7-4.5,8.1c-1.9,2.2-4.1,3.9-6.8,5c-2.1,0.8-4.3,1.2-6.5,1.1c-0.4,0-0.8-0.1-1.1-0.1
			c-0.1,0-0.2-0.1-0.2-0.2c-0.2-1.1-0.4-2.1-0.5-3.2c-0.2-1.4-0.2-2.8-0.2-4.1c0-3,0.5-5.9,1.4-8.8c0.7-2.2,1.7-4.3,2.9-6.3
			c1.6-2.6,2.7-5.3,3.2-8.3c0.4-2,0.5-4.1,0.3-6.1c-0.2-3.3-1-6.4-2.2-9.4C37.3,12.3,37.2,12.3,37.2,12.2z"/>
		<path class="st3" d="M29.1,57.7c-0.6-0.3-1.2-0.5-1.8-0.9c-2.6-1.4-4.6-3.4-6.3-5.8c-1.8-2.5-3-5.4-3.8-8.4c-0.5-2-0.8-4-0.9-6
			c-0.2-3.6,0.3-7.1,1.4-10.5c1-3,2.5-5.7,4.5-8.1c1.9-2.2,4.1-3.9,6.8-5c1.4-0.6,2.9-0.9,4.4-1.1c0.3,0,0.3,0,0.4,0.2
			c1.1,2.4,1.9,5,2.3,7.6c0.3,2,0.4,4,0.2,6c-0.3,3.1-1.3,6-3,8.7c-2,3.2-3.4,6.7-4.1,10.5c-0.4,1.9-0.6,3.9-0.6,5.9
			C28.5,53.1,28.7,55.3,29.1,57.7C29.1,57.6,29.1,57.6,29.1,57.7z"/>
	</g>
	<g>
		<path class="st4" d="M36.1,10.8c1.1,0.2,2.1,0.5,3.1,0.9c2,0.9,3.8,2.1,5.4,3.6c2.7,2.6,4.5,5.8,5.8,9.3c0.7,2.1,1.2,4.2,1.4,6.5
			c0.4,4.2,0,8.2-1.3,12.1c-1,3-2.5,5.7-4.5,8.1c-1.9,2.2-4.1,3.9-6.8,5c-2.1,0.8-4.3,1.2-6.5,1.1c-0.4,0-0.8-0.1-1.1-0.1
			c-0.1,0-0.2-0.1-0.2-0.2c-0.2-1.1-0.4-2.1-0.5-3.2c-0.2-1.4-0.2-2.8-0.2-4.1c0-3,0.5-5.9,1.4-8.8c0.7-2.2,1.7-4.3,2.9-6.3
			c1.6-2.6,2.7-5.3,3.2-8.3c0.4-2,0.5-4.1,0.3-6.1c-0.2-3.3-1-6.4-2.2-9.4C36.2,10.9,36.1,10.9,36.1,10.8z"/>
		<path class="st4" d="M28,56.3c-0.6-0.3-1.2-0.5-1.8-0.9c-2.6-1.4-4.6-3.4-6.3-5.8c-1.8-2.5-3-5.4-3.8-8.4c-0.5-2-0.8-4-0.9-6
			c-0.2-3.6,0.3-7.1,1.4-10.5c1-3,2.5-5.7,4.5-8.1c1.9-2.2,4.1-3.9,6.8-5c1.4-0.6,2.9-0.9,4.4-1.1c0.3,0,0.3,0,0.4,0.2
			c1.1,2.4,1.9,5,2.3,7.6c0.3,2,0.4,4,0.2,6c-0.3,3.1-1.3,6-3,8.7c-2,3.2-3.4,6.7-4.1,10.5c-0.4,1.9-0.6,3.9-0.6,5.9
			C27.4,51.7,27.6,53.9,28,56.3C28,56.2,28,56.2,28,56.3z"/>
	</g>
</g>
<path class="st0" d="M33.2,64.1c17.2,0.2,31.1-13.6,31.1-30.7c0-16.9-13.6-30.6-30.4-30.8C16.7,2.5,3,16.3,2.8,33.1
	C2.6,50.2,16.3,64,33.2,64.1z M33,4.7c16-0.3,29,12.5,29.3,28.2c0.3,16.2-12.7,29.3-28.7,29.3C17.8,62.2,5.1,49.6,4.8,34
	C4.5,17.9,17.3,5,33,4.7z"/>
</svg>
