<?xml version="1.0" encoding="utf-8"?>
<!-- Roman Inozemtsev: https://github.com/mir-one/  -->
<svg version="1.1"
	 id="Слой_1" shape-rendering="geometricPrecision" text-rendering="geometricPrecision" image-rendering="optimizeQuality"
	 xmlns="http://www.w3.org/2000/svg" xmlns:xlink="http://www.w3.org/1999/xlink" x="0px" y="0px" viewBox="0 0 94 94"
	 style="enable-background:new 0 0 94 94;" xml:space="preserve">
<style type="text/css">
	.st0{fill:#58595B;}
	.st1{fill:#FFFFFF;}
	.st2{fill:#3A678A;}
	.st3{fill:#71c8f1;}
</style>
<g>
	<ellipse class="st0" cx="47" cy="46.9" rx="47" ry="46.9"/>
	<g>
		<circle class="st1" cx="36.4" cy="39.4" r="4.5"/>
		<circle class="st1" cx="19.7" cy="59.5" r="4.5"/>
		<circle class="st1" cx="56.3" cy="57.5" r="4.5"/>
		<circle class="st1" cx="70.2" cy="34.9" r="4.5"/>
		<g>
			<path class="st2" d="M70.2,43.3c-1,0-2-0.2-2.9-0.5l-5.1,8.8c1.5,1.5,2.4,3.6,2.4,5.9c0,4.6-3.8,8.4-8.4,8.4
				c-4.6,0-8.4-3.8-8.4-8.4c0-1.7,0.5-3.3,1.4-4.6l-7.9-6.7c-1.4,1-3.1,1.6-4.9,1.6c-1.4,0-2.7-0.3-3.9-1l-6.3,7.4
				c1.1,1.4,1.8,3.2,1.8,5.2c0,4.6-3.8,8.4-8.4,8.4s-8.4-3.8-8.4-8.4c0-0.3,0-0.6,0.1-0.9L0.7,55C4.5,77.1,23.8,94,47,94
				c26,0,47-21,47-47c0-3.9-0.5-7.7-1.4-11.4H78.5C78.2,39.9,74.6,43.3,70.2,43.3z"/>
			<path class="st3" d="M19.7,51.1c1.2,0,2.4,0.3,3.5,0.8l6.5-7.6c-1-1.4-1.6-3-1.6-4.9c0-4.6,3.8-8.4,8.4-8.4
				c4.6,0,8.4,3.8,8.4,8.4c0,1.4-0.3,2.7-0.9,3.8l8.2,7c1.2-0.7,2.7-1.1,4.2-1.1c0.9,0,1.8,0.2,2.6,0.4l5.1-8.9
				c-1.4-1.5-2.3-3.5-2.3-5.7c0-4.6,3.8-8.4,8.4-8.4c3.5,0,6.5,2.1,7.7,5.2h13.5C85.1,13.3,67.6,0,47,0C21.1,0,0,21,0,47
				c0,1.3,0.1,2.5,0.2,3.7l12.5,4.2C14.1,52.7,16.7,51.1,19.7,51.1z"/>
		</g>
	</g>
</g>
</svg>
