<?xml version="1.0" encoding="utf-8"?>
<!-- Roman Inozemtsev: https://github.com/mir-one/  -->
<svg version="1.1"
	 id="Слой_1" shape-rendering="geometricPrecision" text-rendering="geometricPrecision" image-rendering="optimizeQuality"
	 xmlns="http://www.w3.org/2000/svg" xmlns:xlink="http://www.w3.org/1999/xlink" x="0px" y="0px" viewBox="0 0 24 24"
	 style="enable-background:new 0 0 24 24;" xml:space="preserve">
<style type="text/css">
	.st0{fill:#3F58A7;}
	.st1{fill:#FFFFFF;}
</style>
<circle class="st0" cx="12" cy="12" r="12"/>
<circle class="st1" cx="12" cy="12" r="11.1"/>
<ellipse transform="matrix(0.7071 -0.7071 0.7071 0.7071 -4.9705 11.9998)" class="st1" cx="12" cy="12" rx="10.4" ry="10.4"/>
<g>
	<path class="st0" d="M12.9,16.3c-1.4,0.7-2.7,0.8-4.1,0c-1.5-0.9-2.3-2.9-1.7-4.5c0.7-1.9,2.4-2.8,4-2.6c2,0.2,3.4,1.6,3.5,3.4
		c0,0.7-0.1,1.4-0.3,2.1c-0.1,0.3-0.1,0.5,0.2,0.7c0.7,0.7,1.4,1.4,2.1,2.1c0.5,0.5,0.5,1,0.1,1.4s-0.9,0.3-1.4-0.1
		C14.4,17.9,13.7,17.1,12.9,16.3z M8.1,13c0,1.5,1.2,2.7,2.7,2.8c1.5,0,2.7-1.2,2.7-2.7c0-1.6-1.1-2.8-2.7-2.8
		C9.3,10.3,8.1,11.4,8.1,13z"/>
	<path class="st0" d="M16.1,7.2c0.3,0,0.6,0,1,0c0,2.5,0,5,0,7.6c-0.3,0-0.6,0-1,0C16.1,12.3,16.1,9.8,16.1,7.2z"/>
	<path class="st0" d="M15.8,14.8c-0.2,0-0.5,0-0.7,0c0-2.5,0-5,0-7.6c0.2,0,0.5,0,0.7,0C15.8,9.7,15.8,12.2,15.8,14.8z"/>
	<path class="st0" d="M6.5,13.6c-0.1,0-0.3,0-0.4,0c0-0.1,0-0.2,0-0.3c0-1.9,0-3.8,0-5.7c0-0.3,0.1-0.5,0.4-0.3
		C6.5,9.3,6.5,11.4,6.5,13.6z"/>
	<path class="st0" d="M17.3,7.2c0.2,0,0.3,0,0.5,0c0,2.5,0,5,0,7.5l-0.1,0.1c-0.1-0.1-0.4-0.2-0.4-0.3C17.3,12.1,17.3,9.7,17.3,7.2z
		"/>
	<path class="st0" d="M7,10.5c0-1,0-2.1,0-3.2c0.4,0,0.8,0,1.3,0c0,0.7,0,1.4,0,2c0,0.1-0.1,0.2-0.1,0.2C7.7,9.8,7.3,10.2,7,10.5z"
		/>
	<path class="st0" d="M14.5,10.5c-0.4-0.4-0.7-0.7-1.1-1c-0.1-0.1-0.2-0.2-0.2-0.4c0-0.6,0-1.2,0-1.9c0.4,0,0.8,0,1.3,0
		C14.5,8.3,14.5,9.4,14.5,10.5z"/>
	<path class="st0" d="M9.7,8.7c0-0.5,0-1,0-1.5c0.3,0,0.6,0,1,0c0,0.4,0,0.8,0,1.4C10.4,8.6,10.1,8.7,9.7,8.7z"/>
	<path class="st0" d="M13,9.1c-0.6-0.1-0.9-0.4-0.8-1c0-0.3,0-0.6,0-0.9c0.3,0,0.5,0,0.8,0C13,7.9,13,8.5,13,9.1z"/>
	<path class="st0" d="M9,8.9c0.1-0.6-0.1-1.2,0.2-1.7C9.6,8.1,9.5,8.8,9,8.9z"/>
	<path class="st0" d="M8.5,9.3c0-0.7,0-1.4,0-2.1C8.9,7.5,8.9,8.8,8.5,9.3z"/>
	<path class="st0" d="M11.8,8.8c-0.1-0.1-0.2-0.2-0.2-0.3c0-0.4,0-0.7,0-1.1c0-0.1,0.1-0.2,0.1-0.2c0.1,0.1,0.2,0.2,0.2,0.2
		c0,0.4,0,0.8,0,1.3C11.9,8.7,11.9,8.7,11.8,8.8z"/>
</g>
</svg>
