<?xml version="1.0" encoding="utf-8"?>
<!-- Generator: Adobe Illustrator 21.0.0, SVG Export Plug-In . SVG Version: 6.00 Build 0)  -->
<svg version="1.1"
	 id="Слой_1" shape-rendering="geometricPrecision" text-rendering="geometricPrecision" image-rendering="optimizeQuality"
	 xmlns="http://www.w3.org/2000/svg" xmlns:xlink="http://www.w3.org/1999/xlink" x="0px" y="0px" viewBox="0 0 93.5 18.3"
	 style="enable-background:new 0 0 93.5 18.3;" xml:space="preserve">
<style type="text/css">
	.st0{fill:#3B6889;}
	.st1{fill:#A8A7A7;}
</style>
<g>
	<path class="st0" d="M5.2,9.7C5.3,8.6,5.7,7.6,6,6.3L7.6,0h2.6v13.2H8.4V6.6c0-1,0-2.1,0.1-3.4H8.4C8.3,3.6,8.2,4,8.1,4.4
		C8,4.9,7.8,5.3,7.7,5.9l-2,7.5H4.5l-2-7.6C2.4,5.3,2.2,4.9,2.1,4.4C2,3.9,2,3.5,1.9,3.1H1.8c0.1,1.2,0.1,2.3,0.1,3.4v6.7H0V0h2.6
		l1.7,6.3C4.5,7.4,4.9,8.4,5.2,9.7L5.2,9.7z"/>
	<path class="st0" d="M19.4,8.4c0,0.7-0.1,1.4-0.3,2c-0.2,0.6-0.4,1.2-0.7,1.6c-0.4,0.4-0.7,0.8-1.2,1c-0.4,0.3-1,0.4-1.5,0.4
		c-0.5,0-1.1-0.1-1.5-0.4s-0.8-0.6-1.2-1c-0.4-0.4-0.5-1-0.7-1.6c-0.2-0.6-0.3-1.3-0.3-2c0-0.7,0.1-1.4,0.3-2
		c0.2-0.6,0.4-1.2,0.7-1.6c0.4-0.4,0.7-0.8,1.2-1c0.4-0.3,1-0.4,1.5-0.4c0.5,0,1.1,0.1,1.5,0.4c0.4,0.3,0.8,0.6,1.2,1
		c0.4,0.4,0.5,1,0.7,1.6C19.3,7,19.4,7.7,19.4,8.4z M17.5,8.4c0-0.5-0.1-1-0.2-1.3c-0.1-0.4-0.2-0.7-0.4-1c-0.2-0.3-0.4-0.4-0.5-0.6
		c-0.3-0.1-0.4-0.2-0.7-0.2S15.2,5.4,15,5.5c-0.2,0.1-0.4,0.4-0.5,0.6c-0.2,0.3-0.3,0.6-0.4,1c-0.1,0.4-0.2,0.8-0.2,1.3
		c0,0.5,0.1,1,0.2,1.3c0.1,0.4,0.2,0.7,0.4,1c0.2,0.3,0.4,0.4,0.5,0.6c0.2,0.2,0.4,0.2,0.7,0.2s0.5-0.1,0.7-0.2
		c0.2-0.2,0.4-0.4,0.5-0.6c0.2-0.3,0.3-0.6,0.4-1C17.4,9.4,17.5,9,17.5,8.4z"/>
	<path class="st0" d="M22.6,5L22.6,5c0.2-0.2,0.3-0.4,0.4-0.6c0.2-0.2,0.4-0.4,0.5-0.5c0.2-0.2,0.4-0.3,0.7-0.4
		c0.3-0.1,0.5-0.1,0.8-0.1s0.5,0,0.8,0.1c0.3,0.1,0.4,0.2,0.7,0.4c0.2,0.2,0.4,0.4,0.5,0.6c0.2,0.3,0.3,0.6,0.4,1
		c0.1,0.2,0.1,0.4,0.1,0.6c0,0.3,0,0.5,0,0.8v6.2h-1.8V7.2c0-0.3,0-0.4,0-0.6c0-0.2,0-0.4-0.1-0.4c-0.1-0.3-0.3-0.5-0.4-0.6
		c-0.2-0.1-0.4-0.2-0.6-0.2c-0.4,0-0.7,0.1-1,0.4c-0.4,0.2-0.6,0.5-0.8,0.9v6.6h-1.8V3.6h1.4L22.6,5z"/>
	<path class="st0" d="M33.1,11.5c0.4,0,0.7-0.1,1.1-0.2c0.4-0.1,0.7-0.3,1.2-0.4v1.9c-0.3,0.1-0.6,0.3-1.1,0.4
		c-0.4,0.1-1,0.2-1.5,0.2s-1-0.1-1.4-0.3c-0.4-0.2-0.9-0.4-1.2-0.8c-0.4-0.4-0.6-0.9-0.8-1.5C29.1,10.2,29,9.5,29,8.6
		s0.1-1.6,0.3-2.3c0.2-0.6,0.4-1.2,0.8-1.6c0.4-0.4,0.7-0.7,1.1-1c0.4-0.2,0.8-0.4,1.2-0.4c0.4,0,0.9,0.1,1.2,0.3
		c0.4,0.2,0.7,0.4,1,0.9c0.3,0.4,0.5,0.9,0.6,1.5c0.1,0.6,0.3,1.3,0.3,2.2c0,0.4,0,0.6,0,0.8h-4.7c0,0.4,0.1,0.8,0.3,1.2
		c0.1,0.4,0.3,0.5,0.5,0.8c0.2,0.2,0.4,0.4,0.7,0.4C32.5,11.5,32.8,11.5,33.1,11.5z M32.4,5.2c-0.3,0-0.4,0.1-0.6,0.2
		c-0.2,0.1-0.4,0.3-0.4,0.4c-0.1,0.2-0.3,0.4-0.3,0.6C31,6.8,31,7,30.9,7.3h2.8c0-0.3,0-0.5-0.1-0.8c-0.1-0.3-0.2-0.4-0.3-0.6
		c-0.1-0.2-0.3-0.4-0.4-0.4C32.8,5.3,32.6,5.2,32.4,5.2z"/>
	<path class="st0" d="M36.2,3.6h1.9l1.1,3.5c0.4,1.3,0.7,2.3,0.9,2.9l0,0c0.1-0.5,0.4-1.4,0.8-2.8L42,3.6h2l-4.6,14.1h-1.8l1.7-5.2
		L36.2,3.6z"/>
	<path class="st1" d="M44.5,10.6h2v2.7h-2V10.6z"/>
	<path class="st1" d="M52.5,11.5c0.4,0,0.7-0.1,1.1-0.2c0.4-0.1,0.7-0.3,1.2-0.4v1.9c-0.3,0.1-0.6,0.3-1.1,0.4
		c-0.4,0.1-1,0.2-1.5,0.2c-0.5,0-1-0.1-1.4-0.3c-0.4-0.2-0.9-0.4-1.2-0.8c-0.4-0.4-0.6-0.9-0.8-1.5c-0.2-0.6-0.3-1.3-0.3-2.2
		s0.1-1.6,0.3-2.3c0.2-0.6,0.4-1.2,0.8-1.6c0.4-0.4,0.7-0.7,1.1-1c0.4-0.2,0.8-0.4,1.2-0.4s0.9,0.1,1.2,0.3c0.4,0.2,0.7,0.4,1,0.9
		c0.3,0.4,0.5,0.9,0.6,1.5c0.1,0.6,0.3,1.3,0.3,2.2c0,0.4,0,0.6,0,0.8h-4.7c0,0.4,0.1,0.8,0.3,1.2c0.1,0.4,0.3,0.5,0.5,0.8
		c0.2,0.2,0.4,0.4,0.7,0.4C51.9,11.5,52.1,11.5,52.5,11.5z M51.8,5.2c-0.3,0-0.4,0.1-0.6,0.2c-0.2,0.1-0.4,0.3-0.4,0.4
		c-0.1,0.2-0.3,0.4-0.3,0.6c-0.1,0.3-0.1,0.5-0.2,0.8h2.8c0-0.3,0-0.5-0.1-0.8c-0.1-0.3-0.2-0.4-0.3-0.6c-0.1-0.2-0.3-0.4-0.4-0.4
		S52,5.2,51.8,5.2z"/>
	<path class="st1" d="M58.2,5L58.2,5c0.2-0.2,0.3-0.4,0.4-0.6C58.8,4.2,59,4,59.2,3.8c0.2-0.2,0.4-0.3,0.7-0.4
		c0.3-0.1,0.5-0.1,0.8-0.1c0.3,0,0.5,0,0.8,0.1c0.3,0.1,0.4,0.2,0.7,0.4c0.2,0.2,0.4,0.4,0.5,0.6c0.2,0.3,0.3,0.6,0.4,1
		c0.1,0.2,0.1,0.4,0.1,0.6c0,0.3,0,0.5,0,0.8v6.2h-1.8V7.2c0-0.3,0-0.4,0-0.6c0-0.2,0-0.4-0.1-0.4c-0.1-0.3-0.3-0.5-0.4-0.6
		c-0.2-0.1-0.4-0.2-0.6-0.2c-0.4,0-0.7,0.1-1,0.4c-0.4,0.2-0.6,0.5-0.8,0.9v6.6h-1.8V3.6h1.4L58.2,5z"/>
	<path class="st1" d="M68.8,11.5c0.4,0,0.7-0.1,1.1-0.2c0.4-0.1,0.7-0.3,1.2-0.4v1.9c-0.3,0.1-0.6,0.3-1.1,0.4
		c-0.4,0.1-1,0.2-1.5,0.2c-0.5,0-1-0.1-1.4-0.3c-0.4-0.2-0.9-0.4-1.2-0.8c-0.4-0.4-0.6-0.9-0.8-1.5s-0.3-1.3-0.3-2.2
		s0.1-1.6,0.3-2.3c0.2-0.6,0.4-1.2,0.8-1.6c0.4-0.4,0.7-0.7,1.1-1c0.4-0.2,0.8-0.4,1.2-0.4c0.4,0,0.9,0.1,1.2,0.3
		c0.4,0.2,0.7,0.4,1,0.9c0.3,0.4,0.5,0.9,0.6,1.5s0.3,1.3,0.3,2.2c0,0.4,0,0.6,0,0.8h-4.7c0,0.4,0.1,0.8,0.3,1.2
		c0.1,0.4,0.3,0.5,0.5,0.8c0.2,0.2,0.4,0.4,0.7,0.4C68.2,11.5,68.5,11.5,68.8,11.5z M68,5.2c-0.3,0-0.4,0.1-0.6,0.2
		c-0.2,0.1-0.4,0.3-0.4,0.4c-0.1,0.2-0.3,0.4-0.3,0.6c-0.1,0.3-0.1,0.5-0.2,0.8h2.8c0-0.3,0-0.5-0.1-0.8C69.2,6.2,69.1,6,69,5.9
		c-0.1-0.2-0.3-0.4-0.4-0.4C68.5,5.3,68.3,5.2,68,5.2z"/>
	<path class="st1" d="M77.2,5.5L77.2,5.5c-0.6,0-1.1,0.1-1.5,0.4c-0.4,0.2-0.7,0.5-1,1v6.4h-1.8V3.6h1.4L74.5,5l0,0
		c0.2-0.4,0.5-0.9,0.9-1.2c0.4-0.3,0.8-0.4,1.3-0.4c0.2,0,0.4,0,0.4,0L77.2,5.5L77.2,5.5z"/>
	<path class="st1" d="M83,13.5c0-0.1,0-0.3,0-0.4s0-0.4,0-0.4l0,0c-0.1,0.1-0.3,0.3-0.4,0.4c-0.2,0.1-0.3,0.2-0.4,0.4
		c-0.2,0.1-0.4,0.2-0.5,0.3c-0.2,0.1-0.4,0.1-0.6,0.1c-0.4,0-0.8-0.1-1.2-0.3c-0.4-0.2-0.7-0.4-1-0.9c-0.3-0.4-0.5-0.9-0.7-1.5
		s-0.3-1.3-0.3-2.2s0.1-1.6,0.3-2.2s0.4-1.2,0.7-1.6c0.3-0.4,0.6-0.8,1-1c0.4-0.2,0.8-0.4,1.2-0.4c0.4,0,0.8,0.1,1.2,0.4
		c0.4,0.3,0.6,0.5,0.9,1l0,0l0.1-1.1h1.5v9.8c0,0.5,0,1.1-0.1,1.4c-0.1,0.4-0.2,0.8-0.3,1.1c-0.2,0.4-0.4,0.7-0.6,1
		c-0.3,0.3-0.5,0.5-0.9,0.7c-0.4,0.2-0.6,0.3-1.1,0.4c-0.4,0.1-0.8,0.1-1.2,0.1c-0.3,0-0.4,0-0.7,0s-0.4-0.1-0.6-0.1
		s-0.4-0.1-0.5-0.2c-0.2-0.1-0.3-0.1-0.4-0.2V16c0.4,0.2,0.7,0.3,1.1,0.4c0.4,0.1,0.7,0.1,1.2,0.1c0.8,0,1.4-0.2,1.9-0.6
		c0.4-0.4,0.6-1,0.6-1.9L83,13.5L83,13.5z M81.4,11.6c0.2,0,0.4,0,0.5-0.1c0.2-0.1,0.3-0.2,0.4-0.3c0.2-0.1,0.3-0.2,0.4-0.3
		c0.1-0.1,0.2-0.3,0.3-0.4V6.4c-0.2-0.3-0.4-0.5-0.7-0.7c-0.3-0.2-0.5-0.3-0.9-0.3c-0.1,0-0.3,0-0.4,0.1c-0.1,0-0.3,0.1-0.4,0.2
		c-0.1,0.1-0.3,0.2-0.4,0.4c-0.1,0.2-0.2,0.4-0.3,0.6c-0.1,0.3-0.2,0.5-0.2,0.9c-0.1,0.4-0.1,0.7-0.1,1.2s0,0.9,0.1,1.2
		c0.1,0.4,0.2,0.7,0.4,1c0.2,0.3,0.4,0.4,0.5,0.6C80.8,11.5,81.1,11.6,81.4,11.6z"/>
	<path class="st1" d="M85.8,3.6h1.9l1.1,3.5c0.4,1.3,0.7,2.3,0.9,2.9l0,0c0.1-0.5,0.4-1.4,0.8-2.8l1.2-3.6h2l-4.6,14.1h-1.8l1.7-5.2
		L85.8,3.6z"/>
</g>
</svg>
