<?xml version="1.0" encoding="utf-8"?>
<!-- Generator: Adobe Illustrator 21.0.0, SVG Export Plug-In . SVG Version: 6.00 Build 0)  -->
<svg version="1.1"
	 id="Слой_1" shape-rendering="geometricPrecision" text-rendering="geometricPrecision" image-rendering="optimizeQuality"
	 xmlns="http://www.w3.org/2000/svg" xmlns:xlink="http://www.w3.org/1999/xlink" x="0px" y="0px" viewBox="0 0 234 155.1"
	 style="enable-background:new 0 0 234 155.1;" xml:space="preserve">
<style type="text/css">
	.st0{fill:#3B6889;}
	.st1{fill:#A8A7A7;}
	.st2{fill:#59595C;}
	.st3{fill:#FFFFFF;}
	.st4{fill:#71c8f1;}
</style>
<g>
	<path class="st0" d="M12.8,133.4c0.4-2.7,1.3-5.3,2-8.4l4.2-15.8h6.4v33.1h-4.7v-16.7c0-2.4,0-5.3,0.2-8.4h-0.2
		c-0.2,0.9-0.4,2-0.7,3.1c-0.2,1.1-0.7,2.2-0.9,3.6l-5.1,18.7h-2.9l-5.1-18.9c-0.2-1.1-0.7-2.2-0.9-3.6C5,119,4.8,117.9,4.5,117H4.3
		c0.2,3.1,0.2,5.8,0.2,8.4v16.7h-4.7v-32.9h6.4l4.2,15.8C11.2,127.7,12.1,130.3,12.8,133.4L12.8,133.4z"/>
	<path class="st0" d="M48.3,130.3c0,1.8-0.2,3.6-0.7,5.1c-0.4,1.6-1.1,2.9-1.8,4c-0.9,1.1-1.8,2-2.9,2.4c-1.1,0.7-2.4,0.9-3.8,0.9
		c-1.3,0-2.7-0.2-3.8-0.9s-2-1.6-2.9-2.4c-0.9-1.1-1.3-2.4-1.8-4c-0.4-1.6-0.7-3.3-0.7-5.1c0-1.8,0.2-3.6,0.7-5.1
		c0.4-1.6,1.1-2.9,1.8-4c0.9-1.1,1.8-2,2.9-2.4c1.1-0.7,2.4-0.9,3.8-0.9c1.3,0,2.7,0.2,3.8,0.9s2,1.6,2.9,2.4c0.9,1.1,1.3,2.4,1.8,4
		C48.1,126.8,48.3,128.6,48.3,130.3z M43.7,130.3c0-1.3-0.2-2.4-0.4-3.3c-0.2-0.9-0.4-1.8-0.9-2.4c-0.4-0.7-0.9-1.1-1.3-1.6
		c-0.7-0.2-1.1-0.4-1.8-0.4c-0.7,0-1.3,0.2-1.8,0.4c-0.4,0.2-1.1,0.9-1.3,1.6c-0.4,0.7-0.7,1.6-0.9,2.4c-0.2,0.9-0.4,2-0.4,3.3
		c0,1.3,0.2,2.4,0.4,3.3c0.2,0.9,0.4,1.8,0.9,2.4c0.4,0.7,0.9,1.1,1.3,1.6c0.4,0.4,1.1,0.4,1.8,0.4c0.7,0,1.3-0.2,1.8-0.4
		c0.4-0.4,1.1-0.9,1.3-1.6c0.4-0.7,0.7-1.6,0.9-2.4C43.4,132.8,43.7,131.7,43.7,130.3z"/>
	<path class="st0" d="M56.3,121.7L56.3,121.7c0.4-0.4,0.7-0.9,1.1-1.6c0.4-0.4,0.9-0.9,1.3-1.3c0.4-0.4,1.1-0.7,1.8-0.9
		c0.7-0.2,1.3-0.2,2-0.2s1.3,0,2,0.2c0.7,0.2,1.1,0.4,1.8,0.9c0.4,0.4,0.9,0.9,1.3,1.6c0.4,0.7,0.7,1.6,0.9,2.4
		c0.2,0.4,0.2,1.1,0.2,1.6c0,0.7,0,1.3,0,2v15.6h-4.4v-14.7c0-0.7,0-1.1,0-1.6s0-0.9-0.2-1.1c-0.2-0.7-0.7-1.3-1.1-1.6
		c-0.4-0.2-1.1-0.4-1.6-0.4c-0.9,0-1.8,0.2-2.4,0.9c-0.9,0.4-1.6,1.3-2,2.2v16.4h-4.4v-23.8h3.6L56.3,121.7z"/>
	<path class="st0" d="M82.8,138.1c0.9,0,1.8-0.2,2.7-0.4c0.9-0.2,1.8-0.7,2.9-0.9v4.7c-0.7,0.2-1.6,0.7-2.7,0.9
		c-1.1,0.2-2.4,0.4-3.8,0.4s-2.4-0.2-3.6-0.7c-1.1-0.4-2.2-1.1-3.1-2c-0.9-0.9-1.6-2.2-2-3.8c-0.4-1.6-0.7-3.3-0.7-5.6
		c0-2.2,0.2-4,0.7-5.8c0.4-1.6,1.1-2.9,2-4c0.9-1.1,1.8-1.8,2.7-2.4c1.1-0.4,2-0.9,3.1-0.9s2.2,0.2,3.1,0.7c0.9,0.4,1.8,1.1,2.4,2.2
		c0.7,0.9,1.3,2.2,1.6,3.8c0.2,1.6,0.7,3.3,0.7,5.6c0,0.9,0,1.6,0,2H77c0,1.1,0.2,2,0.7,2.9c0.2,0.9,0.7,1.3,1.3,2
		c0.4,0.4,1.1,0.9,1.8,1.1C81.2,138.1,81.9,138.1,82.8,138.1z M81,122.3c-0.7,0-1.1,0.2-1.6,0.4s-0.9,0.7-1.1,1.1
		c-0.2,0.4-0.7,1.1-0.7,1.6c-0.2,0.7-0.2,1.3-0.4,2h7.1c0-0.7,0-1.3-0.2-2c-0.2-0.7-0.4-1.1-0.7-1.6c-0.2-0.4-0.7-0.9-1.1-1.1
		C81.9,122.6,81.4,122.3,81,122.3z"/>
	<path class="st0" d="M90.5,118.3h4.7l2.7,8.7c1.1,3.3,1.8,5.8,2.2,7.3l0,0c0.2-1.3,0.9-3.6,2-6.9l2.9-9.1h4.9l-11.6,35.3h-4.4
		l4.2-12.9L90.5,118.3z"/>
	<path class="st1" d="M111.2,135.7h5.1v6.7h-5.1V135.7z"/>
	<path class="st1" d="M131.2,138.1c0.9,0,1.8-0.2,2.7-0.4c0.9-0.2,1.8-0.7,2.9-0.9v4.7c-0.7,0.2-1.6,0.7-2.7,0.9
		c-1.1,0.2-2.4,0.4-3.8,0.4c-1.3,0-2.4-0.2-3.6-0.7c-1.1-0.4-2.2-1.1-3.1-2c-0.9-0.9-1.6-2.2-2-3.8c-0.4-1.6-0.7-3.3-0.7-5.6
		c0-2.2,0.2-4,0.7-5.8c0.4-1.6,1.1-2.9,2-4c0.9-1.1,1.8-1.8,2.7-2.4c1.1-0.4,2-0.9,3.1-0.9c1.1,0,2.2,0.2,3.1,0.7
		c0.9,0.4,1.8,1.1,2.4,2.2c0.7,0.9,1.3,2.2,1.6,3.8c0.2,1.6,0.7,3.3,0.7,5.6c0,0.9,0,1.6,0,2h-11.8c0,1.1,0.2,2,0.7,2.9
		c0.2,0.9,0.7,1.3,1.3,2c0.4,0.4,1.1,0.9,1.8,1.1C129.7,138.1,130.3,138.1,131.2,138.1z M129.4,122.3c-0.7,0-1.1,0.2-1.6,0.4
		c-0.4,0.2-0.9,0.7-1.1,1.1c-0.2,0.4-0.7,1.1-0.7,1.6c-0.2,0.7-0.2,1.3-0.4,2h7.1c0-0.7,0-1.3-0.2-2c-0.2-0.7-0.4-1.1-0.7-1.6
		c-0.2-0.4-0.7-0.9-1.1-1.1C130.3,122.6,129.9,122.3,129.4,122.3z"/>
	<path class="st1" d="M145.4,121.7L145.4,121.7c0.4-0.4,0.7-0.9,1.1-1.6c0.4-0.4,0.9-0.9,1.3-1.3c0.4-0.4,1.1-0.7,1.8-0.9
		s1.3-0.2,2-0.2c0.7,0,1.3,0,2,0.2c0.7,0.2,1.1,0.4,1.8,0.9c0.4,0.4,0.9,0.9,1.3,1.6c0.4,0.7,0.7,1.6,0.9,2.4
		c0.2,0.4,0.2,1.1,0.2,1.6c0,0.7,0,1.3,0,2v15.6h-4.4v-14.7c0-0.7,0-1.1,0-1.6s0-0.9-0.2-1.1c-0.2-0.7-0.7-1.3-1.1-1.6
		c-0.4-0.2-1.1-0.4-1.6-0.4c-0.9,0-1.8,0.2-2.4,0.9c-0.9,0.4-1.6,1.3-2,2.2v16.4h-4.4v-23.8h3.6L145.4,121.7z"/>
	<path class="st1" d="M171.9,138.1c0.9,0,1.8-0.2,2.7-0.4c0.9-0.2,1.8-0.7,2.9-0.9v4.7c-0.7,0.2-1.6,0.7-2.7,0.9
		c-1.1,0.2-2.4,0.4-3.8,0.4c-1.3,0-2.4-0.2-3.6-0.7s-2.2-1.1-3.1-2c-0.9-0.9-1.6-2.2-2-3.8c-0.4-1.6-0.7-3.3-0.7-5.6
		c0-2.2,0.2-4,0.7-5.8c0.4-1.6,1.1-2.9,2-4c0.9-1.1,1.8-1.8,2.7-2.4c1.1-0.4,2-0.9,3.1-0.9c1.1,0,2.2,0.2,3.1,0.7
		c0.9,0.4,1.8,1.1,2.4,2.2c0.7,0.9,1.3,2.2,1.6,3.8c0.2,1.6,0.7,3.3,0.7,5.6c0,0.9,0,1.6,0,2h-11.8c0,1.1,0.2,2,0.7,2.9
		c0.2,0.9,0.7,1.3,1.3,2c0.4,0.4,1.1,0.9,1.8,1.1C170.5,138.1,171.2,138.1,171.9,138.1z M170.1,122.3c-0.7,0-1.1,0.2-1.6,0.4
		s-0.9,0.7-1.1,1.1c-0.2,0.4-0.7,1.1-0.7,1.6c-0.2,0.7-0.2,1.3-0.4,2h7.1c0-0.7,0-1.3-0.2-2c-0.2-0.7-0.4-1.1-0.7-1.6
		c-0.2-0.4-0.7-0.9-1.1-1.1C171.2,122.6,170.8,122.3,170.1,122.3z"/>
	<path class="st1" d="M193,123h-0.2c-1.3,0-2.4,0.2-3.6,0.9c-1.1,0.4-1.8,1.3-2.4,2.4v16h-4.4v-24h3.6l0.4,3.3l0,0
		c0.4-1.1,1.3-2.2,2.2-2.9c0.9-0.7,2-1.1,3.3-1.1c0.4,0,0.9,0,1.1,0L193,123L193,123z"/>
	<path class="st1" d="M207.4,143c0-0.2,0-0.7,0-1.1c0-0.4,0-0.9,0-1.1l0,0c-0.2,0.2-0.7,0.7-0.9,0.9c-0.4,0.2-0.7,0.4-1.1,0.9
		c-0.4,0.2-0.9,0.4-1.3,0.7c-0.4,0.2-1.1,0.2-1.6,0.2c-0.9,0-2-0.2-2.9-0.7c-0.9-0.4-1.8-1.1-2.4-2.2c-0.7-0.9-1.3-2.2-1.8-3.8
		c-0.4-1.6-0.7-3.3-0.7-5.6c0-2.2,0.2-4,0.7-5.6c0.4-1.6,1.1-2.9,1.8-4c0.7-1.1,1.6-2,2.4-2.4c0.9-0.4,2-0.9,2.9-0.9
		c1.1,0,2,0.2,2.9,0.9s1.6,1.3,2.2,2.4l0,0l0.2-2.7h3.8v24.4c0,1.3,0,2.7-0.2,3.6c-0.2,1.1-0.4,2-0.7,2.7c-0.4,0.9-0.9,1.8-1.6,2.4
		c-0.7,0.7-1.3,1.3-2.2,1.8c-0.9,0.4-1.6,0.7-2.7,0.9c-0.9,0.2-2,0.2-3.1,0.2c-0.7,0-1.1,0-1.8,0c-0.7,0-1.1-0.2-1.6-0.2
		s-0.9-0.2-1.3-0.4c-0.4-0.2-0.7-0.2-1.1-0.4v-4.7c0.9,0.4,1.8,0.7,2.7,0.9c0.9,0.2,1.8,0.2,2.9,0.2c2,0,3.6-0.4,4.7-1.6
		c1.1-1.1,1.6-2.4,1.6-4.7V143H207.4z M203.4,138.3c0.4,0,0.9,0,1.3-0.2c0.4-0.2,0.7-0.4,1.1-0.7c0.4-0.2,0.7-0.4,0.9-0.7
		c0.2-0.2,0.4-0.7,0.7-0.9v-10.7c-0.4-0.7-1.1-1.3-1.8-1.8s-1.3-0.7-2.2-0.7c-0.2,0-0.7,0-0.9,0.2c-0.2,0-0.7,0.2-0.9,0.4
		c-0.2,0.2-0.7,0.4-0.9,0.9c-0.2,0.4-0.4,0.9-0.7,1.6c-0.2,0.7-0.4,1.3-0.4,2.2c-0.2,0.9-0.2,1.8-0.2,2.9s0,2.2,0.2,3.1
		c0.2,0.9,0.4,1.8,0.9,2.4c0.4,0.7,0.9,1.1,1.3,1.6C202.1,138.1,202.8,138.3,203.4,138.3z"/>
	<path class="st1" d="M214.5,118.3h4.7l2.7,8.7c1.1,3.3,1.8,5.8,2.2,7.3l0,0c0.2-1.3,0.9-3.6,2-6.9l2.9-9.1h4.9l-11.6,35.3h-4.4
		l4.2-12.9L214.5,118.3z"/>
</g>
<g>
	<ellipse class="st2" cx="117.1" cy="51.2" rx="51.5" ry="51.2"/>
	<g>
		<circle class="st3" cx="105.2" cy="42.5" r="5.1"/>
		<circle class="st3" cx="86.9" cy="64.8" r="5.1"/>
		<circle class="st3" cx="127" cy="62.8" r="5.1"/>
		<circle class="st3" cx="142.2" cy="38" r="5.1"/>
		<g>
			<path class="st0" d="M142.2,47.1c-1,0-2,0-3-0.5l-5.6,9.6c1.5,1.5,2.5,4.1,2.5,6.6c0,5.1-4.1,9.1-9.1,9.1c-5.1,0-9.1-4.1-9.1-9.1
				c0-2,0.5-3.6,1.5-5.1l-8.6-7.6c-1.5,1-3.6,1.5-5.6,1.5c-1.5,0-3-0.5-4.1-1L94,59.3c1,1.5,2,3.6,2,5.6c0,5.1-4.1,9.1-9.1,9.1
				s-9.1-4.1-9.1-9.1c0-0.5,0-0.5,0-1l-11.7-4.1c4.1,24.4,25.4,42.6,50.7,42.6c28.4,0,51.8-23.3,51.8-51.8c0-4.1-0.5-8.6-1.5-12.7
				h-15.2C150.9,43,147.3,47.1,142.2,47.1z"/>
			<path class="st4" d="M86.9,55.7c1.5,0,2.5,0.5,4.1,1l7.1-8.1c-1-1.5-1.5-3.6-1.5-5.6c0-5.1,4.1-9.1,9.1-9.1s9.1,4.1,9.1,9.1
				c0,1.5-0.5,3-1,4.1l9.1,7.6c1.5-1,3-1,4.6-1c1,0,2,0,3,0.5l5.6-9.6c-1.5-1.5-2.5-4.1-2.5-6.1c0-5.1,4.1-9.1,9.1-9.1
				c4.1,0,7.1,2.5,8.6,5.6h14.7c-7.1-20.3-26.4-35-48.7-35C89-0.1,65.6,23.2,65.6,51.7c0,1.5,0,2.5,0,4.1l13.7,4.6
				C80.9,57.2,83.4,55.7,86.9,55.7z"/>
		</g>
	</g>
</g>
</svg>
