<?xml version="1.0" encoding="utf-8"?>
<!-- Roman Inozemtsev: https://github.com/mir-one/  -->
<svg version="1.1"
	 id="Слой_1" shape-rendering="geometricPrecision" text-rendering="geometricPrecision" image-rendering="optimizeQuality"
	 xmlns="http://www.w3.org/2000/svg" xmlns:xlink="http://www.w3.org/1999/xlink" x="0px" y="0px" viewBox="0 0 229.4 152.5"
	 style="enable-background:new 0 0 229.4 152.5;" xml:space="preserve">
<style type="text/css">
	.st0{fill:#FFFFFF;}
</style>
<g>
	<path class="st0" d="M112.9,0c1,0.2,2,0.7,2.8,1.4c0.3,0.2,0.5,0.5,0.7,0.7c1.7,1.7,3.4,3.5,5.2,5.2c2,1.9,4,3.9,5.9,5.9
		c0.5,0.5,0.9,1,1.2,1.5c1,1.7,0.9,3.4-0.3,4.9c-0.7,1-1.6,1.8-2.5,2.7c-1.6,1.5-3,3-4.6,4.5c-1.8,1.8-3.5,3.5-5.3,5.3
		c-0.8,0.8-1.6,1.4-2.8,1.7c-0.9,0.2-1.7,0.1-2.5-0.2c-0.9-0.4-1.6-1-2.3-1.7c-3.8-3.8-7.6-7.6-11.4-11.4c-1-1-1.7-2.2-1.7-3.7
		c0-1.1,0.5-2,1.2-2.8c0.8-1,1.8-1.9,2.7-2.8c2.9-2.9,5.8-5.7,8.6-8.6c1.1-1.2,2.3-2.2,3.9-2.6C112.1,0,112.5,0,112.9,0z"/>
	<path class="st0" d="M112.7,94.4c-1.7,0-2.9-0.8-4-1.9c-6.4-6.4-12.9-12.8-19.3-19.3c-3.4-3.4-6.8-6.6-10-10.1
		C79,62.6,78.5,62,78,61.5c-1.2-1.3-1.3-2.7-1-4.3c0.2-0.9,0.7-1.7,1.3-2.3c6.8-6.7,13.5-13.5,20.3-20.2c0.7-0.7,1.5-1.5,2.2-2.2
		c0.2-0.2,0.3-0.2,0.5,0c1.2,1.2,2.5,2.5,3.7,3.7c1,1,1.7,2.2,1.6,3.7c-0.1,1.4-0.8,2.5-1.7,3.4c-3.2,3.2-6.4,6.4-9.6,9.6
		c-0.8,0.8-1,1.7-0.7,2.7c0.3,1,1,1.6,2.1,1.8c1,0.2,1.8-0.2,2.5-0.9c1.1-1.1,2.2-2.2,3.3-3.3c3.6-3.6,7.2-7.2,10.9-10.8
		c4.8-4.8,9.7-9.7,14.5-14.5c1.3-1.3,2.6-2.6,3.9-3.8c1.2-1.1,2.6-1.6,4.3-1.1c0.9,0.3,1.7,0.8,2.3,1.4c6.5,6.5,13,12.9,19.5,19.4
		c0.4,0.4,0.8,0.9,1.1,1.4c0.9,1.5,1,2.9,0.1,4.4c-0.3,0.6-0.7,1-1.2,1.5c-5.7,5.7-11.5,11.4-17.2,17.1c-1.9,1.9-3.7,3.7-5.6,5.6
		c-5.1,5.1-10.2,10.2-15.4,15.3c-1.4,1.4-2.7,2.7-4.1,4.1C114.8,93.9,113.8,94.4,112.7,94.4z"/>
	<path class="st0" d="M95,27.8c0,2-0.5,3.2-1.5,4.2c-5.2,5.2-10.4,10.3-15.6,15.5c-1.2,1.2-2.4,2.4-3.6,3.6c-1.9,1.8-5,1.8-7,0.1
		c-2.4-2.2-2.5-5.5-0.2-7.9c5.1-5.1,10.2-10.2,15.4-15.3c1.2-1.2,2.3-2.4,3.6-3.5c1.7-1.5,3.7-1.9,5.8-1C93.9,24.3,94.9,26,95,27.8z
		"/>
</g>
<g>
	<path class="st0" d="M29.6,109.4h9.2v42.7H30L9.3,124.7v27.5H0.1v-42.7h8.8L29.6,137V109.4z"/>
	<path class="st0" d="M72,121.1c2.7,1.4,4.7,3.3,6.2,5.9c1.5,2.5,2.2,5.5,2.2,8.8c0,3.3-0.7,6.2-2.2,8.8c-1.5,2.5-3.5,4.5-6.2,5.9
		c-2.7,1.4-5.7,2.1-9.2,2.1c-3.5,0-6.6-0.7-9.2-2.1c-2.7-1.4-4.7-3.4-6.2-5.9c-1.5-2.5-2.2-5.5-2.2-8.8c0-3.3,0.7-6.3,2.2-8.8
		c1.5-2.5,3.5-4.5,6.2-5.9c2.7-1.4,5.7-2.1,9.2-2.1C66.3,119,69.4,119.7,72,121.1z M56.9,129.3c-1.5,1.7-2.3,3.8-2.3,6.5
		c0,2.7,0.8,4.9,2.3,6.5c1.5,1.7,3.5,2.5,6,2.5c2.4,0,4.4-0.8,5.9-2.5c1.5-1.7,2.3-3.8,2.3-6.5c0-2.7-0.8-4.9-2.3-6.5
		c-1.5-1.7-3.5-2.5-5.9-2.5C60.4,126.8,58.4,127.6,56.9,129.3z"/>
	<path class="st0" d="M81.5,119.3h10.7l6,9.9l6.4-9.9H115l-10.4,16l11.2,16.8h-10.8l-6.6-10.7l-7.2,10.7H80.7l11.4-16.8L81.5,119.3z
		"/>
	<path class="st0" d="M148.9,121.1c2.3,1.4,4.1,3.4,5.4,5.9c1.3,2.6,1.9,5.5,1.9,8.8c0,3.3-0.6,6.2-1.9,8.7c-1.3,2.5-3,4.4-5.3,5.8
		c-2.3,1.4-5,2.1-8,2.1c-2.3,0-4.3-0.4-6.1-1.3s-3.3-2.1-4.5-3.8v4.8h-9.4v-45.3h9.4v17.3c1.2-1.7,2.7-2.9,4.4-3.8
		c1.8-0.9,3.8-1.3,6-1.3C143.9,119,146.6,119.7,148.9,121.1z M144.5,142.2c1.5-1.7,2.3-3.9,2.3-6.6c0-2.6-0.8-4.8-2.3-6.5
		c-1.5-1.7-3.5-2.5-5.9-2.5c-2.4,0-4.4,0.8-5.9,2.5c-1.5,1.7-2.3,3.9-2.3,6.5c0,2.7,0.8,4.9,2.3,6.6c1.5,1.7,3.5,2.5,5.9,2.5
		C141,144.7,143,143.8,144.5,142.2z"/>
	<path class="st0" d="M186.5,121.1c2.7,1.4,4.7,3.3,6.2,5.9c1.5,2.5,2.2,5.5,2.2,8.8c0,3.3-0.7,6.2-2.2,8.8
		c-1.5,2.5-3.5,4.5-6.2,5.9c-2.7,1.4-5.7,2.1-9.2,2.1c-3.5,0-6.6-0.7-9.2-2.1c-2.7-1.4-4.7-3.4-6.2-5.9c-1.5-2.5-2.2-5.5-2.2-8.8
		c0-3.3,0.7-6.3,2.2-8.8c1.5-2.5,3.5-4.5,6.2-5.9c2.7-1.4,5.7-2.1,9.2-2.1C180.8,119,183.8,119.7,186.5,121.1z M171.4,129.3
		c-1.5,1.7-2.3,3.8-2.3,6.5c0,2.7,0.8,4.9,2.3,6.5c1.5,1.7,3.5,2.5,6,2.5c2.4,0,4.4-0.8,5.9-2.5c1.5-1.7,2.3-3.8,2.3-6.5
		c0-2.7-0.8-4.9-2.3-6.5c-1.5-1.7-3.5-2.5-5.9-2.5C174.9,126.8,172.9,127.6,171.4,129.3z"/>
	<path class="st0" d="M196,119.3h10.7l6,9.9l6.4-9.9h10.3l-10.4,16l11.2,16.8h-10.8l-6.6-10.7l-7.2,10.7h-10.4l11.4-16.8L196,119.3z
		"/>
</g>
</svg>
