<?xml version="1.0" encoding="utf-8"?>
<!-- Roman Inozemtsev: https://github.com/mir-one/  -->
<svg version="1.1" id="Слой_1" xmlns="http://www.w3.org/2000/svg" xmlns:xlink="http://www.w3.org/1999/xlink" x="0px" y="0px"
	 viewBox="0 0 64.5 64.5" style="enable-background:new 0 0 64.5 64.5;" xml:space="preserve">
<style type="text/css">
	.st0{fill:#58595B;}
	.st1{fill:#FFFFFF;}
	.st2{fill:#3A678A;}
	.st3{fill:#71c8f1;}
</style>
<path class="st0" d="M32.3,0.1C14.4,0.1,0,14.6,0,32.4s14.4,32.2,32.3,32.2c1.1,0,2.2-0.1,3.3-0.2C50.1,63,61.7,51.8,64,37.5
	c0.3-1.7,0.5-3.4,0.5-5.2C64.5,14.6,50.1,0.1,32.3,0.1z M33.2,62.1c-0.3,0-0.6,0-1,0c-16.5,0-29.8-13.3-29.8-29.8
	c0-16.5,13.3-29.8,29.8-29.8C48.7,2.6,62,15.9,62,32.4c0,1-0.1,2-0.2,3C60.4,50.1,48.2,61.6,33.2,62.1z"/>
<path class="st0" d="M52,12.6c-10.9-10.9-28.6-10.9-39.5,0c-10.9,10.9-10.9,28.6,0,39.5c5.2,5.2,12,7.9,18.9,8.1
	c7.4,0.2,15-2.5,20.6-8.1c5.1-5.1,7.8-11.8,8.1-18.5C60.5,26.1,57.8,18.4,52,12.6z"/>
<g>
	<circle class="st1" cx="25" cy="27.1" r="3.1"/>
	<circle class="st1" cx="13.5" cy="40.8" r="3.1"/>
	<circle class="st1" cx="38.6" cy="39.5" r="3.1"/>
	<circle class="st1" cx="48.2" cy="24" r="3.1"/>
	<g>
		<path class="st2" d="M48.2,29.7c-0.7,0-1.4-0.1-2-0.4l-3.5,6c1,1,1.7,2.5,1.7,4.1c0,3.2-2.6,5.8-5.8,5.8c-3.2,0-5.8-2.6-5.8-5.8
			c0-1.2,0.3-2.2,0.9-3.1l-5.4-4.6c-0.9,0.7-2.1,1.1-3.4,1.1c-1,0-1.9-0.2-2.7-0.7L18,37.3c0.8,1,1.3,2.2,1.3,3.6
			c0,3.2-2.6,5.8-5.8,5.8S7.7,44,7.7,40.8c0-0.2,0-0.4,0-0.6l-7.3-2.5c2.6,15.2,15.8,26.7,31.8,26.7c17.8,0,32.3-14.4,32.3-32.3
			c0-2.7-0.3-5.3-1-7.8h-9.7C53.6,27.4,51.2,29.7,48.2,29.7z"/>
		<path class="st3" d="M13.5,35.1c0.9,0,1.7,0.2,2.4,0.5l4.4-5.2c-0.7-0.9-1.1-2.1-1.1-3.3c0-3.2,2.6-5.8,5.8-5.8
			c3.2,0,5.8,2.6,5.8,5.8c0,0.9-0.2,1.8-0.6,2.6l5.6,4.8c0.8-0.5,1.8-0.8,2.9-0.8c0.6,0,1.2,0.1,1.8,0.3l3.5-6.1
			c-1-1-1.6-2.4-1.6-3.9c0-3.2,2.6-5.8,5.8-5.8c2.4,0,4.5,1.5,5.3,3.6h9.3C58.4,9.1,46.4,0,32.3,0C14.4,0,0,14.4,0,32.3
			c0,0.9,0,1.7,0.1,2.6l8.6,2.9C9.7,36.1,11.5,35.1,13.5,35.1z"/>
	</g>
</g>
<path class="st1" d="M32.3,2.6C15.8,2.6,2.5,15.9,2.5,32.4c0,16.5,13.3,29.8,29.8,29.8c0.3,0,0.6,0,1,0c15-0.5,27.2-12,28.7-26.7
	c0.1-1,0.2-2,0.2-3C62,15.9,48.7,2.6,32.3,2.6z M52,52.1c-5.7,5.7-13.2,8.4-20.6,8.1c-6.8-0.2-13.6-2.9-18.9-8.1
	c-10.9-10.9-10.9-28.6,0-39.5C23.4,1.7,41.1,1.7,52,12.6c5.8,5.8,8.5,13.5,8.1,21C59.8,40.4,57.1,47,52,52.1z"/>
</svg>
