<?xml version="1.0" encoding="utf-8"?>
<!-- Generator: Adobe Illustrator 21.0.0, SVG Export Plug-In . SVG Version: 6.00 Build 0)  -->
<svg version="1.1"
	 id="Слой_1" image-rendering="optimizeQuality" shape-rendering="geometricPrecision" text-rendering="geometricPrecision"
	 xmlns="http://www.w3.org/2000/svg" xmlns:xlink="http://www.w3.org/1999/xlink" x="0px" y="0px" viewBox="0 0 24 24"
	 style="enable-background:new 0 0 24 24;" xml:space="preserve">
<style type="text/css">
	.st0{fill:#4397C5;}
	.st1{fill:#FFFFFF;}
</style>
<circle class="st0" cx="12" cy="12" r="12"/>
<circle class="st1" cx="12" cy="12" r="11.1"/>
<ellipse transform="matrix(0.7071 -0.7071 0.7071 0.7071 -4.9649 12.0138)" class="st1" cx="12" cy="12" rx="10.4" ry="10.4"/>
<path class="st0" d="M16.6,11.6c0,0.9-0.3,1.9-0.9,2.7c-0.5,0.9-1.2,1.6-1.9,2.4c-0.6,0.7-1.1,1.3-1.6,2c-0.1,0.1-0.1,0.2-0.2,0
	c-0.7-1-1.6-1.9-2.4-2.9c-0.6-0.7-1.2-1.4-1.6-2.3c-0.8-1.7-0.7-3.4,0.5-4.9c1.8-2.3,5.2-2.3,7.1-0.1C16.2,9.5,16.6,10.4,16.6,11.6z
	 M9.5,11.3c0.1,0.2,0.1,0.6,0.2,0.9c0.4,1,1.1,1.7,2.2,2c0.3,0.1,0.7,0.1,1-0.1c0.2-0.1,0.2-0.2,0.2-0.4c0-0.1-0.1-0.2-0.1-0.3
	c-0.2-0.7-0.5-1.3-1-1.9c-0.6-0.7-1.1-1.3-1.3-2.2c-0.1-0.2-0.1-0.2-0.3-0.1C9.7,9.8,9.5,10.4,9.5,11.3z M14.5,11.9
	c-0.1-1.2-0.7-2.2-1.8-2.9c-0.5-0.3-1.1-0.4-1.7-0.1C10.9,9,10.9,9.1,11,9.2c0.1,0.1,0.1,0.2,0.2,0.4c0.2,0.5,0.4,0.9,0.7,1.3
	c0.2,0.3,0.5,0.6,0.7,0.9c0.4,0.5,0.6,1.2,0.8,1.8c0.1,0.3,0.2,0.3,0.4,0.1C14.3,13.2,14.5,12.6,14.5,11.9z"/>
</svg>
