<?xml version="1.0" encoding="utf-8"?>
<!-- Roman Inozemtsev: https://github.com/mir-one/  -->
<svg version="1.1"
	 id="Слой_1" shape-rendering="geometricPrecision" text-rendering="geometricPrecision" image-rendering="optimizeQuality"
	 xmlns="http://www.w3.org/2000/svg" xmlns:xlink="http://www.w3.org/1999/xlink" x="0px" y="0px" viewBox="0 0 256.7 32.3"
	 style="enable-background:new 0 0 256.7 32.3;" xml:space="preserve">
<style type="text/css">
	.st0{fill:#71C8F0;}
	.st1{fill:#EE3B24;}
	.st2{fill:#FDCD08;}
</style>
<g>
	<path class="st0" d="M68.5,6.2c0.2,0,0.4,0.2,0.6,0.3c0.1,0,0.1,0.1,0.2,0.2c0.4,0.4,0.8,0.8,1.2,1.2c0.4,0.4,0.9,0.9,1.3,1.3
		c0.1,0.1,0.2,0.2,0.3,0.3c0.2,0.4,0.2,0.8-0.1,1.1c-0.2,0.2-0.4,0.4-0.6,0.6c-0.3,0.3-0.7,0.7-1,1c-0.4,0.4-0.8,0.8-1.2,1.2
		c-0.2,0.2-0.4,0.3-0.6,0.4c-0.2,0-0.4,0-0.6-0.1c-0.2-0.1-0.4-0.2-0.5-0.4c-0.8-0.8-1.7-1.7-2.5-2.5c-0.2-0.2-0.4-0.5-0.4-0.8
		c0-0.2,0.1-0.4,0.3-0.6c0.2-0.2,0.4-0.4,0.6-0.6c0.6-0.6,1.3-1.3,1.9-1.9c0.3-0.3,0.5-0.5,0.9-0.6C68.3,6.2,68.4,6.2,68.5,6.2z"/>
	<path class="st1" d="M68.4,27.2c-0.4,0-0.6-0.2-0.9-0.4c-1.4-1.4-2.9-2.9-4.3-4.3c-0.7-0.7-1.5-1.5-2.2-2.3
		c-0.1-0.1-0.2-0.2-0.3-0.4c-0.3-0.3-0.3-0.6-0.2-1c0-0.2,0.1-0.4,0.3-0.5c1.5-1.5,3-3,4.5-4.5c0.2-0.2,0.3-0.3,0.5-0.5
		c0,0,0.1,0,0.1,0c0.3,0.3,0.6,0.5,0.8,0.8c0.2,0.2,0.4,0.5,0.4,0.8c0,0.3-0.2,0.5-0.4,0.8c-0.7,0.7-1.4,1.4-2.1,2.1
		c-0.2,0.2-0.2,0.4-0.1,0.6c0.1,0.2,0.2,0.4,0.5,0.4c0.2,0,0.4,0,0.6-0.2c0.2-0.2,0.5-0.5,0.7-0.7c0.8-0.8,1.6-1.6,2.4-2.4
		c1.1-1.1,2.2-2.1,3.2-3.2c0.3-0.3,0.6-0.6,0.9-0.9c0.3-0.2,0.6-0.4,1-0.2c0.2,0.1,0.4,0.2,0.5,0.3c1.4,1.4,2.9,2.9,4.3,4.3
		c0.1,0.1,0.2,0.2,0.2,0.3c0.2,0.3,0.2,0.7,0,1c-0.1,0.1-0.2,0.2-0.3,0.3c-1.3,1.3-2.5,2.5-3.8,3.8c-0.4,0.4-0.8,0.8-1.2,1.2
		c-1.1,1.1-2.3,2.3-3.4,3.4c-0.3,0.3-0.6,0.6-0.9,0.9C68.9,27.1,68.7,27.2,68.4,27.2z"/>
	<path class="st2" d="M64.5,12.4c0,0.4-0.1,0.7-0.3,0.9c-1.2,1.1-2.3,2.3-3.5,3.4c-0.3,0.3-0.5,0.5-0.8,0.8c-0.4,0.4-1.1,0.4-1.6,0
		c-0.5-0.5-0.6-1.2,0-1.7c1.1-1.1,2.3-2.3,3.4-3.4c0.3-0.3,0.5-0.5,0.8-0.8c0.4-0.3,0.8-0.4,1.3-0.2C64.2,11.6,64.5,12,64.5,12.4z"
		/>
</g>
<g>
	<path class="st0" d="M96.4,11.7h2.3v10.5h-2.2l-5.1-6.8v6.8h-2.3V11.7h2.2l5.1,6.8V11.7z"/>
	<path class="st0" d="M106.8,14.6c0.7,0.3,1.2,0.8,1.5,1.4c0.4,0.6,0.5,1.3,0.5,2.2c0,0.8-0.2,1.5-0.5,2.2c-0.4,0.6-0.9,1.1-1.5,1.5
		c-0.7,0.3-1.4,0.5-2.3,0.5c-0.9,0-1.6-0.2-2.3-0.5c-0.7-0.3-1.2-0.8-1.5-1.5c-0.4-0.6-0.5-1.3-0.5-2.2c0-0.8,0.2-1.5,0.5-2.2
		c0.4-0.6,0.9-1.1,1.5-1.4c0.7-0.3,1.4-0.5,2.3-0.5C105.4,14.1,106.2,14.3,106.8,14.6z M103.1,16.6c-0.4,0.4-0.6,0.9-0.6,1.6
		c0,0.7,0.2,1.2,0.6,1.6c0.4,0.4,0.9,0.6,1.5,0.6c0.6,0,1.1-0.2,1.4-0.6c0.4-0.4,0.6-0.9,0.6-1.6c0-0.7-0.2-1.2-0.6-1.6
		c-0.4-0.4-0.9-0.6-1.4-0.6C104,16,103.5,16.2,103.1,16.6z"/>
	<path class="st0" d="M109.2,14.2h2.6l1.5,2.4l1.6-2.4h2.5l-2.6,3.9l2.7,4.1h-2.7l-1.6-2.6l-1.8,2.6H109l2.8-4.1L109.2,14.2z"/>
	<path class="st0" d="M125.7,14.6c0.6,0.3,1,0.8,1.3,1.5c0.3,0.6,0.5,1.4,0.5,2.2c0,0.8-0.2,1.5-0.5,2.1c-0.3,0.6-0.7,1.1-1.3,1.4
		c-0.6,0.3-1.2,0.5-2,0.5c-0.6,0-1.1-0.1-1.5-0.3s-0.8-0.5-1.1-0.9v1.2h-2.3V11.1h2.3v4.2c0.3-0.4,0.7-0.7,1.1-0.9
		c0.4-0.2,0.9-0.3,1.5-0.3C124.5,14.1,125.2,14.3,125.7,14.6z M124.6,19.8c0.4-0.4,0.6-1,0.6-1.6c0-0.6-0.2-1.2-0.6-1.6
		c-0.4-0.4-0.9-0.6-1.4-0.6c-0.6,0-1.1,0.2-1.4,0.6c-0.4,0.4-0.6,0.9-0.6,1.6c0,0.7,0.2,1.2,0.6,1.6c0.4,0.4,0.9,0.6,1.4,0.6
		C123.8,20.4,124.3,20.2,124.6,19.8z"/>
	<path class="st0" d="M135,14.6c0.7,0.3,1.2,0.8,1.5,1.4c0.4,0.6,0.5,1.3,0.5,2.2c0,0.8-0.2,1.5-0.5,2.2c-0.4,0.6-0.9,1.1-1.5,1.5
		c-0.7,0.3-1.4,0.5-2.3,0.5c-0.9,0-1.6-0.2-2.3-0.5c-0.7-0.3-1.2-0.8-1.5-1.5c-0.4-0.6-0.5-1.3-0.5-2.2c0-0.8,0.2-1.5,0.5-2.2
		c0.4-0.6,0.9-1.1,1.5-1.4c0.7-0.3,1.4-0.5,2.3-0.5C133.6,14.1,134.3,14.3,135,14.6z M131.3,16.6c-0.4,0.4-0.6,0.9-0.6,1.6
		c0,0.7,0.2,1.2,0.6,1.6c0.4,0.4,0.9,0.6,1.5,0.6c0.6,0,1.1-0.2,1.4-0.6c0.4-0.4,0.6-0.9,0.6-1.6c0-0.7-0.2-1.2-0.6-1.6
		c-0.4-0.4-0.9-0.6-1.4-0.6C132.1,16,131.6,16.2,131.3,16.6z"/>
	<path class="st0" d="M137.3,14.2h2.6l1.5,2.4l1.6-2.4h2.5l-2.6,3.9l2.7,4.1H143l-1.6-2.6l-1.8,2.6h-2.5l2.8-4.1L137.3,14.2z"/>
	<path class="st0" d="M163.3,11.7h2.4l-3.6,10.5h-2.4l-2.2-7.6l-2.2,7.6h-2.4l-3.5-10.5h2.5l2.3,8l2.3-8h2.3l2.3,8L163.3,11.7z"/>
	<path class="st0" d="M170.7,22.2v-0.9c-0.3,0.3-0.6,0.6-1.1,0.8c-0.4,0.2-0.9,0.3-1.5,0.3c-0.9,0-1.5-0.2-2-0.7
		c-0.5-0.5-0.8-1.1-0.8-1.8c0-0.8,0.3-1.4,0.8-1.8c0.5-0.4,1.3-0.6,2.3-0.7h2.2v-0.2c0-0.4-0.1-0.8-0.4-1c-0.3-0.2-0.7-0.4-1.3-0.4
		c-0.8,0-1.6,0.2-2.4,0.7l-0.7-1.6c0.6-0.3,1.2-0.6,1.8-0.7c0.6-0.1,1.2-0.2,1.8-0.2c1.1,0,1.9,0.3,2.5,0.8c0.6,0.5,0.9,1.2,0.9,2.1
		l0,5.3H170.7z M170.1,20.3c0.3-0.2,0.6-0.5,0.6-0.9v-0.7h-1.8c-0.4,0-0.8,0.1-1,0.2c-0.2,0.1-0.3,0.4-0.3,0.7
		c0,0.3,0.1,0.6,0.3,0.7c0.2,0.2,0.5,0.3,0.9,0.3C169.3,20.7,169.7,20.6,170.1,20.3z"/>
	<path class="st0" d="M175.1,11.1h2.3v11.1h-2.3V11.1z"/>
	<path class="st0" d="M179.8,11.1h2.3v11.1h-2.3V11.1z"/>
	<path class="st0" d="M190.8,15.2c0.7,0.8,1,1.8,1,3.1c0,0.2,0,0.4,0,0.6H186c0.1,0.5,0.4,0.9,0.8,1.2c0.4,0.3,0.8,0.4,1.3,0.4
		c0.4,0,0.7-0.1,1.1-0.2c0.3-0.1,0.7-0.4,0.9-0.6l1.2,1.2c-0.4,0.5-0.9,0.8-1.5,1.1c-0.6,0.2-1.2,0.4-2,0.4c-0.9,0-1.6-0.2-2.2-0.5
		c-0.6-0.3-1.1-0.8-1.5-1.4c-0.3-0.6-0.5-1.3-0.5-2.1c0-0.8,0.2-1.5,0.5-2.2c0.3-0.6,0.8-1.1,1.5-1.5s1.4-0.5,2.2-0.5
		C189.1,14.1,190.1,14.5,190.8,15.2z M189.6,17.5c0-0.5-0.2-1-0.5-1.3c-0.3-0.3-0.7-0.5-1.3-0.5c-0.5,0-0.9,0.2-1.3,0.5
		c-0.3,0.3-0.5,0.7-0.6,1.3H189.6z"/>
	<path class="st0" d="M198.3,21.8c-0.3,0.2-0.6,0.3-1,0.4c-0.4,0.1-0.7,0.1-1.1,0.1c-0.8,0-1.4-0.2-1.8-0.6c-0.5-0.4-0.7-1-0.7-1.8
		v-3.7h-1.1v-1.6h1.1v-2.2h2.3v2.2h2.2v1.6H196v3.3c0,0.6,0.2,0.9,0.7,0.9c0.3,0,0.7-0.1,1.1-0.3L198.3,21.8z"/>
</g>
</svg>
