<?xml version="1.0" encoding="utf-8"?>
<!-- Roman Inozemtsev: https://github.com/mir-one/  -->
<svg version="1.1"
	 id="Слой_1" shape-rendering="geometricPrecision" text-rendering="geometricPrecision" image-rendering="optimizeQuality"
	 xmlns="http://www.w3.org/2000/svg" xmlns:xlink="http://www.w3.org/1999/xlink" x="0px" y="0px" viewBox="0 0 234 155.1"
	 style="enable-background:new 0 0 234 155.1;" xml:space="preserve">
<style type="text/css">
	.st0{fill:#71C8F0;}
	.st1{fill:#EE3B24;}
	.st2{fill:#FDCD08;}
	.st3{fill:#404041;}
</style>
<g>
	<path class="st0" d="M114.7,0c1.1,0.2,2,0.7,2.8,1.4c0.3,0.2,0.5,0.5,0.7,0.7c1.8,1.8,3.5,3.6,5.3,5.3c2,2,4,4,6.1,6
		c0.5,0.5,0.9,1,1.3,1.6c1,1.7,0.9,3.4-0.3,5c-0.7,1-1.7,1.9-2.6,2.7c-1.6,1.5-3.1,3.1-4.6,4.6c-1.8,1.8-3.6,3.6-5.4,5.4
		c-0.8,0.8-1.7,1.5-2.8,1.7c-0.9,0.2-1.7,0.1-2.6-0.2c-0.9-0.4-1.7-1-2.3-1.7c-3.9-3.9-7.8-7.7-11.6-11.6c-1-1-1.7-2.2-1.7-3.8
		c0-1.1,0.6-2,1.2-2.9c0.8-1,1.8-1.9,2.7-2.8c2.9-2.9,5.9-5.8,8.8-8.7c1.2-1.2,2.3-2.2,4-2.7C113.9,0,114.3,0,114.7,0z"/>
	<path class="st1" d="M114.5,96c-1.8,0-3-0.9-4-1.9C104,87.6,97.4,81,90.9,74.5c-3.4-3.4-6.9-6.8-10.2-10.3c-0.5-0.5-1-1.1-1.5-1.6
		c-1.2-1.3-1.3-2.8-1-4.4c0.2-0.9,0.7-1.7,1.3-2.4c6.9-6.9,13.8-13.7,20.7-20.6c0.8-0.7,1.5-1.5,2.3-2.2c0.2-0.2,0.3-0.2,0.5,0
		c1.3,1.3,2.5,2.5,3.8,3.8c1,1,1.7,2.2,1.6,3.8c-0.1,1.4-0.8,2.5-1.8,3.5c-3.3,3.3-6.5,6.5-9.8,9.8c-0.8,0.8-1,1.7-0.7,2.7
		c0.3,1,1.1,1.6,2.1,1.8c1,0.2,1.8-0.2,2.5-0.9c1.1-1.1,2.3-2.2,3.4-3.4c3.7-3.7,7.4-7.3,11-11c4.9-4.9,9.8-9.8,14.8-14.7
		c1.3-1.3,2.6-2.7,4-3.9c1.2-1.1,2.7-1.6,4.4-1.1c0.9,0.3,1.7,0.8,2.3,1.4c6.6,6.6,13.2,13.2,19.8,19.7c0.4,0.4,0.8,0.9,1.1,1.4
		c0.9,1.5,1,3,0.1,4.5c-0.3,0.6-0.7,1.1-1.2,1.5c-5.8,5.8-11.7,11.6-17.5,17.4c-1.9,1.9-3.8,3.8-5.7,5.7
		c-5.2,5.2-10.4,10.4-15.6,15.6c-1.4,1.4-2.8,2.8-4.2,4.1C116.7,95.5,115.6,96.1,114.5,96z"/>
	<path class="st2" d="M96.5,28.3c0,2-0.5,3.2-1.6,4.3c-5.3,5.3-10.5,10.5-15.8,15.8c-1.2,1.2-2.4,2.4-3.7,3.6
		c-1.9,1.8-5.1,1.9-7.1,0.1c-2.5-2.2-2.5-5.6-0.2-8c5.2-5.2,10.4-10.4,15.6-15.6c1.2-1.2,2.4-2.5,3.6-3.6c1.7-1.5,3.7-1.9,5.9-1
		C95.4,24.7,96.4,26.5,96.5,28.3z"/>
</g>
<g>
	<path class="st3" d="M30,111.3h9.3v43.4h-8.9l-21-27.9v27.9H0v-43.4h8.9L30,139.3V111.3z"/>
	<path class="st3" d="M73.1,123.1c2.7,1.4,4.8,3.4,6.3,6c1.5,2.6,2.2,5.5,2.2,8.9c0,3.4-0.7,6.3-2.2,8.9c-1.5,2.6-3.6,4.6-6.3,6
		c-2.7,1.4-5.8,2.1-9.3,2.1c-3.6,0-6.7-0.7-9.4-2.1c-2.7-1.4-4.8-3.4-6.3-6c-1.5-2.6-2.2-5.6-2.2-8.9c0-3.4,0.7-6.4,2.2-8.9
		c1.5-2.6,3.6-4.6,6.3-6c2.7-1.4,5.8-2.1,9.4-2.1C67.3,121,70.4,121.7,73.1,123.1z M57.8,131.5c-1.6,1.7-2.3,3.9-2.3,6.6
		c0,2.7,0.8,4.9,2.3,6.6c1.6,1.7,3.6,2.5,6.1,2.5c2.4,0,4.4-0.8,6-2.5c1.6-1.7,2.3-3.9,2.3-6.6c0-2.7-0.8-4.9-2.3-6.6
		c-1.6-1.7-3.5-2.5-6-2.5C61.3,129,59.3,129.8,57.8,131.5z"/>
	<path class="st3" d="M82.8,121.3h10.9l6.1,10.1l6.5-10.1h10.4l-10.6,16.3l11.4,17.1h-11l-6.7-10.9l-7.3,10.9H82l11.5-17.1
		L82.8,121.3z"/>
	<path class="st3" d="M151.4,123.2c2.4,1.4,4.2,3.4,5.5,6.1c1.3,2.6,2,5.6,2,9c0,3.4-0.6,6.3-1.9,8.8c-1.3,2.5-3.1,4.5-5.4,5.9
		c-2.3,1.4-5.1,2.1-8.2,2.1c-2.3,0-4.4-0.4-6.2-1.3s-3.3-2.2-4.6-3.9v4.8H123v-46.1h9.6v17.6c1.2-1.7,2.7-3,4.5-3.9
		c1.8-0.9,3.8-1.3,6.1-1.3C146.2,121,149,121.7,151.4,123.2z M146.9,144.6c1.5-1.7,2.3-3.9,2.3-6.7c0-2.7-0.8-4.9-2.3-6.6
		c-1.5-1.7-3.5-2.6-6-2.6c-2.4,0-4.4,0.9-6,2.6c-1.6,1.7-2.3,3.9-2.3,6.6c0,2.8,0.8,5,2.3,6.7c1.6,1.7,3.5,2.5,6,2.5
		C143.3,147.2,145.3,146.3,146.9,144.6z"/>
	<path class="st3" d="M189.6,123.1c2.7,1.4,4.8,3.4,6.3,6c1.5,2.6,2.2,5.5,2.2,8.9c0,3.4-0.7,6.3-2.2,8.9c-1.5,2.6-3.6,4.6-6.3,6
		c-2.7,1.4-5.8,2.1-9.3,2.1c-3.6,0-6.7-0.7-9.4-2.1c-2.7-1.4-4.8-3.4-6.3-6c-1.5-2.6-2.2-5.6-2.2-8.9c0-3.4,0.7-6.4,2.2-8.9
		c1.5-2.6,3.6-4.6,6.3-6c2.7-1.4,5.8-2.1,9.4-2.1C183.8,121,186.9,121.7,189.6,123.1z M174.2,131.5c-1.6,1.7-2.3,3.9-2.3,6.6
		c0,2.7,0.8,4.9,2.3,6.6c1.6,1.7,3.6,2.5,6.1,2.5c2.4,0,4.4-0.8,6-2.5c1.6-1.7,2.3-3.9,2.3-6.6c0-2.7-0.8-4.9-2.3-6.6
		c-1.6-1.7-3.5-2.5-6-2.5C177.8,129,175.7,129.8,174.2,131.5z"/>
	<path class="st3" d="M199.2,121.3h10.9l6.1,10.1l6.5-10.1h10.4l-10.6,16.3l11.4,17.1h-11l-6.7-10.9l-7.3,10.9h-10.6l11.5-17.1
		L199.2,121.3z"/>
</g>
</svg>
