<?xml version="1.0" encoding="utf-8"?>
<!-- Roman Inozemtsev: https://github.com/mir-one/  -->
<svg version="1.1"
	 id="Слой_1" shape-rendering="geometricPrecision" text-rendering="geometricPrecision" image-rendering="optimizeQuality"
	 xmlns="http://www.w3.org/2000/svg" xmlns:xlink="http://www.w3.org/1999/xlink" x="0px" y="0px" viewBox="0 0 92 18.3"
	 style="enable-background:new 0 0 92 18.3;" xml:space="preserve">
<style type="text/css">
	.st0{fill:#404041;}
</style>
<path class="st0" d="M11.8,1h3.7v17.1H12l-8.3-11v11H0V1h3.5l8.3,11V1z"/>
<path class="st0" d="M28.8,5.7C29.8,6.2,30.7,7,31.2,8c0.6,1,0.9,2.2,0.9,3.5c0,1.3-0.3,2.5-0.9,3.5c-0.6,1-1.4,1.8-2.5,2.4
	c-1.1,0.6-2.3,0.8-3.7,0.8c-1.4,0-2.6-0.3-3.7-0.8c-1.1-0.6-1.9-1.4-2.5-2.4c-0.6-1-0.9-2.2-0.9-3.5c0-1.3,0.3-2.5,0.9-3.5
	c0.6-1,1.4-1.8,2.5-2.3c1.1-0.6,2.3-0.8,3.7-0.8C26.5,4.9,27.7,5.1,28.8,5.7z M22.7,9c-0.6,0.7-0.9,1.5-0.9,2.6
	c0,1.1,0.3,1.9,0.9,2.6c0.6,0.7,1.4,1,2.4,1c1,0,1.7-0.3,2.4-1c0.6-0.7,0.9-1.5,0.9-2.6c0-1.1-0.3-1.9-0.9-2.6c-0.6-0.7-1.4-1-2.4-1
	C24.1,8,23.3,8.3,22.7,9z"/>
<path class="st0" d="M32.6,5h4.3l2.4,4l2.6-4h4.1l-4.2,6.4l4.5,6.7h-4.3l-2.6-4.3l-2.9,4.3h-4.1l4.5-6.7L32.6,5z"/>
<path class="st0" d="M59.5,5.7c0.9,0.6,1.7,1.4,2.2,2.4c0.5,1,0.8,2.2,0.8,3.5c0,1.3-0.3,2.5-0.8,3.5c-0.5,1-1.2,1.8-2.1,2.3
	c-0.9,0.6-2,0.8-3.2,0.8c-0.9,0-1.7-0.2-2.4-0.5s-1.3-0.9-1.8-1.5v1.9h-3.8V0h3.8v6.9c0.5-0.7,1.1-1.2,1.8-1.5
	c0.7-0.3,1.5-0.5,2.4-0.5C57.5,4.9,58.6,5.1,59.5,5.7z M57.7,14.1c0.6-0.7,0.9-1.5,0.9-2.6c0-1.1-0.3-1.9-0.9-2.6
	c-0.6-0.7-1.4-1-2.3-1c-1,0-1.7,0.3-2.4,1c-0.6,0.7-0.9,1.5-0.9,2.6c0,1.1,0.3,2,0.9,2.6c0.6,0.7,1.4,1,2.4,1
	C56.4,15.1,57.1,14.8,57.7,14.1z"/>
<path class="st0" d="M74.5,5.7C75.6,6.2,76.4,7,77,8c0.6,1,0.9,2.2,0.9,3.5c0,1.3-0.3,2.5-0.9,3.5c-0.6,1-1.4,1.8-2.5,2.4
	c-1.1,0.6-2.3,0.8-3.7,0.8c-1.4,0-2.6-0.3-3.7-0.8c-1.1-0.6-1.9-1.4-2.5-2.4c-0.6-1-0.9-2.2-0.9-3.5c0-1.3,0.3-2.5,0.9-3.5
	c0.6-1,1.4-1.8,2.5-2.3c1.1-0.6,2.3-0.8,3.7-0.8C72.2,4.9,73.5,5.1,74.5,5.7z M68.5,9c-0.6,0.7-0.9,1.5-0.9,2.6
	c0,1.1,0.3,1.9,0.9,2.6c0.6,0.7,1.4,1,2.4,1c1,0,1.7-0.3,2.4-1c0.6-0.7,0.9-1.5,0.9-2.6c0-1.1-0.3-1.9-0.9-2.6c-0.6-0.7-1.4-1-2.4-1
	C69.9,8,69.1,8.3,68.5,9z"/>
<path class="st0" d="M78.3,5h4.3L85,9l2.6-4h4.1l-4.2,6.4l4.5,6.7h-4.3L85,13.8l-2.9,4.3H78l4.5-6.7L78.3,5z"/>
</svg>
