<?xml version="1.0" encoding="utf-8"?>
<!-- Roman Inozemtsev: https://github.com/mir-one/  -->
<svg version="1.1" id="Слой_1" xmlns="http://www.w3.org/2000/svg" xmlns:xlink="http://www.w3.org/1999/xlink" x="0px" y="0px"
	 viewBox="0 0 67 67" style="enable-background:new 0 0 67 67;" xml:space="preserve">
<style type="text/css">
	.st0{fill:#F16622;}
	.st1{fill:none;}
	.st2{fill:#CC5528;}
	.st3{fill:#FFFFFF;}
	.st4{fill:#58595B;}
</style>
<g>
	<path class="st0" d="M54,13C42.7,1.7,24.3,1.7,13,13C1.7,24.3,1.7,42.7,13,54c5.4,5.4,12.5,8.2,19.6,8.5c7.7,0.2,15.5-2.6,21.4-8.5
		c5.3-5.3,8.1-12.2,8.4-19.2C62.8,27,60,19,54,13z"/>
	<path class="st1" d="M64.4,33.5c0-17.1-13.9-30.9-30.9-30.9C16.4,2.6,2.6,16.4,2.6,33.5c0,17.1,13.9,30.9,30.9,30.9
		c0.3,0,0.7,0,1-0.1c1.1,0,2.2-0.1,3.2-0.3L19.9,46.3l26.4-26.4l17.8,17.8c0-0.4,0.1-0.7,0.2-1C64.4,35.6,64.4,34.6,64.4,33.5z"/>
	<path class="st0" d="M34.5,64.4c-0.3,0-0.7,0.1-1,0.1c-17.1,0-30.9-13.9-30.9-30.9c0-17.1,13.9-30.9,30.9-30.9
		c17.1,0,30.9,13.9,30.9,30.9c0,1.1-0.1,2.1-0.2,3.2c0,0.4-0.1,0.7-0.2,1l2.2,2.2c0.1-0.3,0.2-0.7,0.2-1c0.3-1.8,0.5-3.5,0.5-5.4
		C67,15,52,0,33.5,0S0,15,0,33.5S15,67,33.5,67c1.2,0,2.3-0.1,3.4-0.2c1-0.1,2-0.3,3-0.5l-2.3-2.3C36.7,64.3,35.6,64.4,34.5,64.4z"
		/>
	<path class="st2" d="M19.9,46.3l17.8,17.8c13.7-1.9,24.5-12.7,26.4-26.4L46.3,19.9l-25,3.8l-5.6,15.7l10.7,11.4L19.9,46.3z"/>
	<path class="st2" d="M66.3,39.9l-2.2-2.2c-1.9,13.7-12.7,24.5-26.4,26.4l2.3,2.3C53.3,63.8,63.7,53.2,66.3,39.9z"/>
	<path class="st3" d="M33.5,2.6C16.4,2.6,2.6,16.4,2.6,33.5c0,17.1,13.9,30.9,30.9,30.9c0.3,0,0.7,0,1-0.1
		c15.6-0.5,28.2-12.5,29.8-27.7c0.1-1,0.2-2.1,0.2-3.2C64.4,16.4,50.6,2.6,33.5,2.6z M54,54c-5.9,5.9-13.7,8.7-21.4,8.5
		c-7.1-0.2-14.2-3-19.6-8.5C1.7,42.7,1.7,24.3,13,13C24.3,1.7,42.7,1.7,54,13c6,6,8.8,14,8.4,21.8C62.1,41.8,59.3,48.7,54,54z"/>
	<g>
		<path id="path22_2_" class="st4" d="M34.3,15.9c-10.3,0-18.7,8.4-18.7,18.7c0,2.1,0.3,4,1,5.9h5.6V24.8l12.1,12.1l12.1-12.1v15.7
			h5.6c0.6-1.9,1-3.8,1-5.9C53,24.3,44.6,15.9,34.3,15.9"/>
		<path id="path26_1_" class="st4" d="M26.2,34.4v9.9h-7.9c3.3,5.4,9.2,9,16,9s12.7-3.6,16-9h-7.9v-9.9l-8.1,8.1L26.2,34.4z"/>
	</g>
	<g>
		<path id="path22_1_" class="st3" d="M33.5,14.8c-10.3,0-18.7,8.4-18.7,18.7c0,2.1,0.3,4,1,5.9h5.6V23.7l12.1,12.1l12.1-12.1v15.7
			h5.6c0.6-1.9,1-3.8,1-5.9C52.2,23.2,43.8,14.8,33.5,14.8"/>
		<path id="path26" class="st3" d="M25.4,33.3v9.9h-7.9c3.3,5.4,9.2,9,16,9s12.7-3.6,16-9h-7.9v-9.9l-8.1,8.1L25.4,33.3z"/>
	</g>
</g>
</svg>
