<?xml version="1.0" encoding="utf-8"?>
<!-- Roman Inozemtsev: https://github.com/mir-one/  -->
<svg version="1.1"
	 id="Слой_1" shape-rendering="geometricPrecision" text-rendering="geometricPrecision" image-rendering="optimizeQuality"
	 xmlns="http://www.w3.org/2000/svg" xmlns:xlink="http://www.w3.org/1999/xlink" x="0px" y="0px" viewBox="0 0 211.7 126.6"
	 style="enable-background:new 0 0 211.7 126.6;" xml:space="preserve">
<style type="text/css">
	.st0{fill:#FFFFFF;}
</style>
<g>
	<path class="st0" d="M9.3,114.5l-3.1,3.3v8.6H1.3V98.7h4.8v13l2.7-3.3l8.1-9.7h5.8L12.4,111l10.9,15.4h-5.7L9.3,114.5z"/>
	<path class="st0" d="M47.4,113.3c0,2.7-0.5,5.1-1.4,7.1c-0.9,2-2.3,3.6-4,4.7c-1.7,1.1-3.8,1.6-6,1.6c-2.2,0-4.2-0.5-6-1.6
		c-1.8-1.1-3.1-2.7-4.1-4.7c-1-2-1.4-4.4-1.5-7v-1.6c0-2.7,0.5-5.1,1.4-7.2c1-2.1,2.3-3.6,4.1-4.7c1.7-1.1,3.7-1.6,6-1.6
		c2.3,0,4.3,0.5,6,1.6c1.7,1.1,3.1,2.6,4,4.7c1,2,1.4,4.4,1.4,7.1V113.3z M42.6,111.9c0-3.1-0.6-5.4-1.7-7.1
		c-1.2-1.6-2.8-2.5-4.9-2.5c-2.1,0-3.7,0.8-4.9,2.4c-1.2,1.6-1.8,3.9-1.8,6.9v1.6c0,3,0.6,5.4,1.8,7.1c1.2,1.7,2.8,2.5,4.9,2.5
		c2.1,0,3.8-0.8,4.9-2.4c1.1-1.6,1.7-4,1.7-7.1V111.9z"/>
	<path class="st0" d="M57,122.6h12.6v3.9H52.2V98.7H57V122.6z"/>
	<path class="st0" d="M78.4,126.4h-4.8V98.7h4.8V126.4z"/>
	<path class="st0" d="M106.4,113.3c0,2.7-0.5,5.1-1.4,7.1c-0.9,2-2.3,3.6-4,4.7c-1.7,1.1-3.8,1.6-6,1.6c-2.2,0-4.2-0.5-6-1.6
		c-1.8-1.1-3.1-2.7-4.1-4.7c-1-2-1.4-4.4-1.5-7v-1.6c0-2.7,0.5-5.1,1.4-7.2c1-2.1,2.3-3.6,4.1-4.7c1.7-1.1,3.7-1.6,6-1.6
		c2.3,0,4.3,0.5,6,1.6c1.7,1.1,3.1,2.6,4,4.7c1,2,1.4,4.4,1.4,7.1V113.3z M101.6,111.9c0-3.1-0.6-5.4-1.7-7.1s-2.8-2.5-4.9-2.5
		c-2.1,0-3.7,0.8-4.9,2.4c-1.2,1.6-1.8,3.9-1.8,6.9v1.6c0,3,0.6,5.4,1.8,7.1c1.2,1.7,2.8,2.5,4.9,2.5c2.1,0,3.8-0.8,4.9-2.4
		c1.1-1.6,1.7-4,1.7-7.1V111.9z"/>
	<path class="st0" d="M133.1,126.4h-4.8L116,106.8v19.6h-4.8V98.7h4.8l12.4,19.7V98.7h4.8V126.4z"/>
	<path class="st0" d="M160.9,113.3c0,2.7-0.5,5.1-1.4,7.1c-0.9,2-2.3,3.6-4,4.7c-1.7,1.1-3.8,1.6-6,1.6c-2.2,0-4.2-0.5-6-1.6
		c-1.8-1.1-3.1-2.7-4.1-4.7c-1-2-1.4-4.4-1.5-7v-1.6c0-2.7,0.5-5.1,1.4-7.2c1-2.1,2.3-3.6,4.1-4.7c1.7-1.1,3.7-1.6,6-1.6
		c2.3,0,4.3,0.5,6,1.6c1.7,1.1,3.1,2.6,4,4.7c1,2,1.4,4.4,1.4,7.1V113.3z M156.1,111.9c0-3.1-0.6-5.4-1.7-7.1
		c-1.2-1.6-2.8-2.5-4.9-2.5c-2.1,0-3.7,0.8-4.9,2.4c-1.2,1.6-1.8,3.9-1.8,6.9v1.6c0,3,0.6,5.4,1.8,7.1c1.2,1.7,2.8,2.5,4.9,2.5
		c2.1,0,3.8-0.8,4.9-2.4c1.1-1.6,1.7-4,1.7-7.1V111.9z"/>
	<path class="st0" d="M175.1,120.4l7-21.7h5.3l-10,27.7h-4.7l-9.9-27.7h5.3L175.1,120.4z"/>
	<path class="st0" d="M212.4,113.3c0,2.7-0.5,5.1-1.4,7.1c-0.9,2-2.3,3.6-4,4.7c-1.7,1.1-3.8,1.6-6,1.6c-2.2,0-4.2-0.5-6-1.6
		c-1.8-1.1-3.1-2.7-4.1-4.7c-1-2-1.4-4.4-1.5-7v-1.6c0-2.7,0.5-5.1,1.4-7.2c1-2.1,2.3-3.6,4.1-4.7c1.7-1.1,3.7-1.6,6-1.6
		c2.3,0,4.3,0.5,6,1.6c1.7,1.1,3.1,2.6,4,4.7c1,2,1.4,4.4,1.4,7.1V113.3z M207.6,111.9c0-3.1-0.6-5.4-1.7-7.1
		c-1.2-1.6-2.8-2.5-4.9-2.5c-2.1,0-3.7,0.8-4.9,2.4c-1.2,1.6-1.8,3.9-1.8,6.9v1.6c0,3,0.6,5.4,1.8,7.1c1.2,1.7,2.8,2.5,4.9,2.5
		c2.1,0,3.8-0.8,4.9-2.4c1.1-1.6,1.7-4,1.7-7.1V111.9z"/>
</g>
<path class="st0" d="M106.8-0.2C81.9-0.2,61.7,20,61.7,44.9c0,24.9,20.2,45.1,45.1,45.1c24.9,0,45.1-20.2,45.1-45.1
	C152,20,131.8-0.2,106.8-0.2z M106.8,86.3c-22.8,0-41.4-18.5-41.4-41.4c0-22.8,18.5-41.4,41.4-41.4c22.8,0,41.4,18.5,41.4,41.4
	C148.2,67.8,129.7,86.3,106.8,86.3z"/>
<path class="st0" d="M106.8,12.6c-17.8,0-32.3,14.5-32.3,32.3c0,17.8,14.5,32.3,32.3,32.3c17.8,0,32.3-14.5,32.3-32.3
	C139.2,27.1,124.7,12.6,106.8,12.6z M112.6,66.8l-7.2-12.3v12.3H97V30.7h-6.2V22h14.7v21.4l7.2-9.4v-0.1h8.6l-9.4,13.8L123,66.8
	H112.6z"/>
</svg>
