<?xml version="1.0" encoding="utf-8"?>
<!-- Roman Inozemtsev: https://github.com/mir-one/  -->
<svg version="1.1" id="Слой_1" xmlns="http://www.w3.org/2000/svg" xmlns:xlink="http://www.w3.org/1999/xlink" x="0px" y="0px"
	 viewBox="0 0 64.5 64.5" style="enable-background:new 0 0 64.5 64.5;" xml:space="preserve">
<style type="text/css">
	.st0{fill:#FFFFFF;}
	.st1{fill:#4372B7;}
</style>
<path class="st0" d="M32.2,2.5C15.8,2.5,2.5,15.8,2.5,32.2C2.5,48.6,15.8,62,32.2,62c0.3,0,0.6,0,1,0c15-0.5,27.1-12,28.6-26.7
	c0.1-1,0.2-2,0.2-3C62,15.8,48.6,2.5,32.2,2.5z M51.9,51.9c-5.7,5.7-13.2,8.4-20.6,8.1c-6.8-0.2-13.6-2.9-18.8-8.1
	C1.6,41,1.6,23.4,12.5,12.5C23.4,1.6,41,1.6,51.9,12.5c5.8,5.8,8.5,13.4,8.1,21C59.7,40.2,57,46.8,51.9,51.9z"/>
<path class="st1" d="M32.2,0C14.4,0,0,14.4,0,32.2s14.4,32.2,32.2,32.2c1.1,0,2.2-0.1,3.3-0.2C50,62.8,61.6,51.6,64,37.4
	c0.3-1.7,0.5-3.4,0.5-5.2C64.4,14.4,50,0,32.2,0z M33.2,61.9c-0.3,0-0.6,0-1,0C15.8,62,2.5,48.6,2.5,32.2
	c0-16.4,13.3-29.7,29.7-29.7C48.6,2.5,62,15.8,62,32.2c0,1-0.1,2-0.2,3C60.3,49.9,48.1,61.4,33.2,61.9z"/>
<path class="st1" d="M51.9,12.5C41,1.6,23.4,1.6,12.5,12.5C1.6,23.4,1.6,41,12.5,51.9c5.2,5.2,12,7.9,18.8,8.1
	c7.4,0.2,14.9-2.5,20.6-8.1c5.1-5.1,7.8-11.7,8.1-18.4C60.4,25.9,57.7,18.3,51.9,12.5z"/>
<g>
	
		<rect x="19.8" y="20.2" transform="matrix(0.7071 -0.7071 0.7071 0.7071 -13.6289 32.325)" class="st0" width="24.8" height="24.8"/>
	<g transform="rotate(45 -4.53 32.657)">
		<polygon class="st1" points="21,6.3 22.8,6.3 22.8,11.7 21,11.7 		"/>
		<polygon class="st1" points="24.6,1.9 26.3,1.9 26.3,11.7 24.6,11.7 		"/>
		<polygon class="st1" points="17.5,9 19.2,9 19.2,11.7 17.5,11.7 		"/>
	</g>
</g>
</svg>
