<?xml version="1.0" encoding="utf-8"?>
<!-- Roman Inozemtsev: https://github.com/mir-one/  -->
<svg version="1.1" id="Layer_1" xmlns="http://www.w3.org/2000/svg" xmlns:xlink="http://www.w3.org/1999/xlink" x="0px" y="0px"
	 viewBox="0 0 67 67" style="enable-background:new 0 0 67 67;" xml:space="preserve">
<style type="text/css">
	.st0{fill:#FFFFFF;}
	.st1{fill:#06AFA6;}
	.st2{fill:#F3F5F4;}
</style>
<g>
	<path class="st0" d="M33.5,2.6C16.4,2.6,2.6,16.4,2.6,33.5c0,17.1,13.9,30.9,30.9,30.9c0.3,0,0.7,0,1-0.1
		c15.6-0.5,28.2-12.5,29.8-27.7c0.1-1,0.2-2.1,0.2-3.2C64.4,16.4,50.6,2.6,33.5,2.6z M54,54c-5.9,5.9-13.7,8.7-21.4,8.5
		c-7.1-0.2-14.2-3-19.6-8.5C1.7,42.7,1.7,24.3,13,13C24.3,1.7,42.7,1.7,54,13c6,6,8.8,14,8.4,21.8C62.1,41.8,59.3,48.7,54,54z"/>
	<path class="st1" d="M33.5,0C15,0,0,15,0,33.5S15,67,33.5,67c1.2,0,2.3-0.1,3.4-0.2C52,65.3,64.1,53.7,66.5,38.9
		c0.3-1.8,0.5-3.5,0.5-5.4C67,15,52,0,33.5,0z M34.5,64.4c-0.3,0-0.7,0.1-1,0.1c-17.1,0-30.9-13.9-30.9-30.9
		c0-17.1,13.9-30.9,30.9-30.9c17.1,0,30.9,13.9,30.9,30.9c0,1.1-0.1,2.1-0.2,3.2C62.7,51.9,50.1,63.9,34.5,64.4z"/>
	<path class="st1" d="M54,13C42.7,1.7,24.3,1.7,13,13C1.7,24.3,1.7,42.7,13,54c5.4,5.4,12.5,8.2,19.6,8.5c7.7,0.2,15.5-2.6,21.4-8.5
		c5.3-5.3,8.1-12.2,8.4-19.2C62.8,27,60,19,54,13z"/>
</g>
<g>
	<path class="st2" d="M25.2,15.6c0.7-0.4,1.3-0.8,2-1.2c0.4-0.1,0.8-0.3,1.1-0.5c0,0,0,0,0,0c1.1-0.3,2.1-0.7,3.2-0.8
		c1.6-0.2,3.1-0.1,4.7,0.1c0.7,0.1,1.5,0.3,2.1,0.5c0.8,0.3,1.6,0.7,2.3,1.1c1.3,0.8,2.5,1.7,3.5,2.8c0.1,0.1,0.2,0.2,0.4,0.3l0,0
		c0,0.1,0.1,0.2,0.2,0.3c0.4,0.6,0.8,1.2,1.2,1.8c0.5,0.9,0.9,1.7,1.3,2.6c0.1,0.4,0.2,0.9,0.4,1.3c0.4,1.7,0.5,3.4,0.4,5.1
		c-0.2,1.1-0.4,2.1-0.8,3.1c0,0,0,0.1,0,0.1c-0.2,0.3-0.3,0.7-0.5,1c-0.6,1-1.3,1.9-2.1,2.9c-0.6,0.6-1.1,1.2-1.7,1.8
		c-0.8,0.8-1.6,1.7-2.4,2.4c0-0.2,0-0.3,0-0.5c0-2.4,0-4.9,0-7.3c0.8-1,1.3-2.3,1.5-3.6c0.4-2.6-0.2-4.9-1.9-6.9
		c-1.2-1.4-2.6-2.4-4.5-2.7c-0.4-0.1-0.8-0.1-1.2-0.3c-0.6-0.1-1.1-0.1-1.7,0c-1.3,0.1-2.6,0.6-3.7,1.3c-2.1,1.4-3.5,3.3-3.9,5.9
		c-0.3,2.1,0.1,4,1.1,5.8c0,0.1,0,0.1,0.1,0.1l0,0c0.2,0.2,0.2,0.5,0.2,0.8c0,0.7,0,1.4,0,2.1c0,1.7,0,3.4,0,5.1
		c-0.1,0-0.1,0.1-0.2,0.1c-0.1-0.2-0.2-0.3-0.3-0.4c-0.9-0.9-1.7-1.8-2.6-2.7C22.1,36,21,34.6,20.2,33c-0.6-1.1-0.9-2.4-1.2-3.7
		c0-0.2,0-0.3,0-0.5c0-0.1,0-0.1,0-0.2c0-0.2,0-0.5,0-0.7c0-1.5,0.2-3,0.6-4.4c0.4-1.3,0.9-2.4,1.5-3.5c0.3-0.4,0.5-0.8,0.8-1.1
		c0.5-0.5,0.9-1.1,1.5-1.6c0.5-0.5,1-0.9,1.5-1.3c0.2,0,0.3-0.1,0.3-0.2C25.1,15.6,25.2,15.6,25.2,15.6z"/>
	<path class="st2" d="M37.7,53.4c0-0.1-0.1-0.1-0.2-0.1c0,0,0-0.1,0-0.1c0-0.4-0.3-0.9,0.1-1.2c0,0,0-0.1-0.1-0.2
		c-0.5-0.4-0.9-1-1.4-1.4c-0.4-0.5-0.9-0.9-1.4-1.3c-0.2-0.2-0.3-0.4-0.5-0.5c-0.7-0.7-0.7-0.7-1.4,0.1c-0.3,0.2-0.6,0.5-0.8,0.8
		c0,0,0,0,0,0c-0.1,0.1-0.2,0.2-0.3,0.3c0,0,0,0,0,0c-0.1,0.1-0.1,0.1-0.2,0.2c-0.1,0-0.1,0.1-0.2,0.2c-0.6,0.5-1.1,1.1-1.7,1.6
		c-0.1,0.1-0.1,0.2-0.1,0.4c0.1,0.7,0,1.3-0.5,1.7c-0.6,0.5-1.4,0.5-2,0c-0.6-0.4-0.7-1.3-0.4-2c0.3-0.6,1.3-1.1,1.9-0.8
		c0.1,0.1,0.3,0.2,0.5,0c0.3-0.3,0.7-0.7,1-1c0,0,0,0,0,0c0.3-0.2,0.5-0.5,0.8-0.7c0.6-0.5,1.1-1,1.6-1.5c0.1-0.1,0.1-0.1,0.2-0.2
		c0,0,0.1,0,0.1-0.1c0.1,0,0.1-0.1,0.1-0.1l0,0c0.3-0.2,0.3-0.4,0.3-0.7c0-3.4,0-6.8,0-10.1c0-0.4,0.1-0.6,0.5-0.6
		c0.4,0,0.5,0.3,0.5,0.6c0,3.2,0,6.4,0,9.7c0,0.3-0.1,0.6,0.1,0.9c0,0.1,0.1,0.1,0.2,0.2l0,0c0,0.1,0.1,0.2,0.2,0.2c0,0,0,0,0,0
		c0.1,0.2,0.3,0.4,0.5,0.5c0,0.1,0.1,0.1,0.1,0.1c0.4,0.5,0.9,1,1.4,1.4c0.4,0.5,0.9,0.9,1.4,1.4c0.2,0.3,0.5,0.3,0.8,0.2
		c0.2-0.1,0.5-0.1,0.7,0c1.1,0.3,1.5,1.2,1.1,2.4C39.6,54.4,38.6,54.4,37.7,53.4z M27.5,53c0.4,0.3,0.7,0.2,0.9-0.2
		c0.2-0.3,0.2-0.6-0.2-0.8c-0.3-0.3-0.6-0.2-0.8,0.1C27.1,52.4,27.1,52.7,27.5,53z M39,53.1c0.4,0,0.6-0.2,0.7-0.6
		c0-0.4-0.2-0.7-0.6-0.7c-0.3,0-0.7,0.2-0.7,0.6C38.4,52.8,38.6,53.1,39,53.1z"/>
	<path class="st2" d="M26.9,48c1.2-1.1,2.3-2.3,3.5-3.4c0.2-0.2,0.1-0.3,0.1-0.5c0-2.7,0-5.5,0-8.2c0-0.3,0-0.7,0.5-0.7
		c0.4,0,0.5,0.3,0.5,0.6c0,2.9,0,5.8,0,8.7c0,0.3-0.2,0.5-0.4,0.6c-0.2,0.2-0.5,0.5-0.7,0.7c0,0,0,0,0,0c-0.4,0.3-0.8,0.7-1.1,1.1
		c0,0,0,0,0,0c0,0-0.1,0.1-0.1,0.1c0,0-0.1,0.1-0.1,0.1c-1.1,1.1-2.2,2.3-3.4,3.3c-0.3,0-0.4-0.1-0.6-0.3c-0.5-0.5-0.9-0.9-1.4-1.4
		c-0.1-0.1-0.2-0.2-0.4-0.2c-1.2,0.3-1.9-0.3-2.2-1.4c0-0.3,0-0.5,0.1-0.7c0.3-0.7,0.9-1,1.6-1c0.1,0,0.1,0,0.2,0c0,0,0.1,0,0.1,0
		c1,0.4,1.4,1.1,1.1,2.2c0,0.1-0.1,0.3,0.1,0.4c0.3,0.2,0.4,0.5,0.7,0.7l0,0c0,0,0.1,0.1,0.1,0.1c0.2,0.1,0.2,0.6,0.6,0.3
		c0.4-0.4,0.8-0.8,1.2-1.2c0,0,0,0,0,0s0,0,0,0C26.8,48.1,26.8,48.1,26.9,48C26.9,48,26.9,48,26.9,48z M22,47.3
		c0,0.4,0.3,0.7,0.7,0.7c0.3,0,0.6-0.3,0.6-0.7c0-0.4-0.3-0.7-0.7-0.7C22.3,46.6,22,46.9,22,47.3z"/>
	<path class="st2" d="M24.3,42.2c-0.2,0.3-0.2,0.5,0.1,0.7c0.3,0.2,0.4,0.5,0.7,0.7c0.1,0.2,0.3,0.3,0.5,0.5c0.1,0.1,0.2,0.1,0.3,0
		c0.5-0.6,1.1-1,1.6-1.7c0,0,0.1-0.1,0.1-0.1c0.3-0.1,0.5-0.3,0.5-0.7c0-2.3,0-4.7,0-7c0-0.2,0-0.3,0.1-0.5c0.1-0.2,0.2-0.3,0.5-0.3
		c0.3,0,0.4,0.1,0.4,0.4c0,0.3,0,0.6,0,0.9c0,2.4,0,4.8,0,7.2c-0.1,0.1-0.2,0.3-0.4,0.4c-0.1,0.1-0.3,0.3-0.4,0.4l0,0
		c-0.3,0.2-0.5,0.5-0.8,0.7c0,0-0.1,0,0,0.1c0,0,0,0,0,0c-0.4,0.3-0.8,0.6-1,1.1c-0.2,0.1-0.4,0.2-0.6,0.4c-0.4,0-0.6-0.4-0.9-0.6
		c-0.1-0.1-0.2-0.3-0.4-0.3c-0.3-0.4-0.7-0.7-1-1.1c-0.1-0.1-0.1-0.1-0.3-0.1c-1.2,0.2-1.6,0-2.2-1c-0.3-1.2,0.8-2.5,2.3-2
		c0,0,0.1,0,0.1,0.1C24.1,40.9,24.4,41.5,24.3,42.2z M23.3,41.9c0-0.4-0.2-0.7-0.6-0.7c-0.4,0-0.7,0.2-0.7,0.6
		c0,0.4,0.2,0.7,0.6,0.7C23,42.5,23.3,42.3,23.3,41.9z"/>
	<path class="st2" d="M37.9,35.5c0-0.2,0-0.4,0-0.7c0-0.2,0-0.4,0-0.6c0,0,0,0,0,0c0.1,0,0.1-0.1,0.1-0.2c0.1-0.3,0.4-0.3,0.6-0.2
		c0.3,0.1,0.3,0.3,0.3,0.6c0,2.3,0,4.6,0,6.8c0,0.6,0.2,1,0.6,1.2c0,0,0.1,0.1,0.1,0.1c0.5,0.5,0.9,1,1.4,1.4c0.1,0.1,0.2,0.2,0.4,0
		c0.4-0.4,0.9-0.9,1.3-1.3c0.1-0.1,0.1-0.2,0.1-0.3c-0.4-1.3,0.4-2.3,1.7-2.2c0.3,0,0.5,0.2,0.8,0.3c0.1,0.1,0.2,0.3,0.4,0.4
		c0.1,0.2,0.1,0.5,0.2,0.7c0,0.1,0,0.2,0,0.4c-0.3,1.1-1,1.6-2.1,1.3c-0.2,0-0.3-0.1-0.4,0.1c-0.3,0.3-0.7,0.6-0.9,0.9c0,0,0,0,0,0
		c-0.3,0.1-0.4,0.4-0.6,0.6c-0.2,0.1-0.3,0.2-0.5,0.4c-0.3,0.1-0.4-0.2-0.6-0.3c-0.1-0.1-0.2-0.2-0.3-0.3c-0.3-0.4-0.7-0.8-1.1-1.1
		c-0.4-0.4-0.8-0.8-1.2-1.2c-0.1-0.3-0.2-0.5-0.2-0.8c0-1.5,0-2.9,0-4.4c0-0.1,0-0.2,0-0.4C38,36.5,38,36,37.9,35.5z M44.5,41.3
		c-0.3-0.1-0.6-0.1-0.8,0.3c-0.2,0.2-0.2,0.3-0.1,0.5c0.1,0.3,0.3,0.5,0.7,0.4c0.6-0.1,0.7-0.5,0.3-1.1
		C44.6,41.3,44.6,41.3,44.5,41.3z"/>
	<path class="st2" d="M41,48.9c0.6,0.6,0.4,0.6,1,0c0,0,0.1-0.1,0.1-0.1c0.4-0.4,0.7-0.7,0.6-1.4c-0.2-0.9,0.4-1.6,1.4-1.8
		c0.6-0.1,1.5,0.5,1.7,1.1c0.2,0.7,0.1,1.6-0.9,2c-0.1,0-0.2,0.1-0.2,0.2c-0.1,0-0.3,0-0.4,0c-0.6-0.3-1,0-1.4,0.5
		c-0.3,0.4-0.6,0.7-1,1c-0.3,0.3-0.6,0.3-0.9,0c-1.4-1.4-2.9-2.9-4.3-4.3c-0.2-0.2-0.4-0.5-0.7-0.7c-0.2-0.2-0.5-0.4-0.6-0.8
		c0-0.1,0-0.1,0-0.2c0-3,0-5.9,0-8.9c0.2-0.3,0.4-0.4,0.7-0.3c0.3,0.1,0.3,0.4,0.3,0.6c0,2.6,0,5.2,0,7.8c0,0.6,0.1,1.1,0.6,1.3
		c1.1,1.2,2.2,2.2,3.3,3.3c0,0,0,0,0,0C40.6,48.5,40.8,48.7,41,48.9z M43.7,47.5C43.7,47.5,43.7,47.5,43.7,47.5
		c0.1,0.3,0.3,0.4,0.6,0.3c0.2,0,0.5,0,0.5-0.4c0.2-0.3,0.1-0.5-0.1-0.8c-0.4-0.3-0.7-0.3-1,0.2c-0.1,0.2-0.3,0.3-0.1,0.5
		C43.7,47.5,43.7,47.5,43.7,47.5z"/>
</g>
</svg>
