<?xml version="1.0" encoding="utf-8"?>
<!-- Generator: Adobe Illustrator 21.0.0, SVG Export Plug-In . SVG Version: 6.00 Build 0)  -->
<svg version="1.1"
	 id="Слой_1" text-rendering="geometricPrecision" image-rendering="optimizeQuality" shape-rendering="geometricPrecision"
	 xmlns="http://www.w3.org/2000/svg" xmlns:xlink="http://www.w3.org/1999/xlink" x="0px" y="0px" viewBox="0 0 100 100"
	 style="enable-background:new 0 0 100 100;" xml:space="preserve">
<style type="text/css">
	.st0{fill:none;}
	.st1{fill:url(#SVGID_1_);}
	.st2{fill:url(#SVGID_2_);}
	.st3{fill:url(#SVGID_3_);}
	.st4{fill:url(#SVGID_4_);}
	.st5{fill:#FFFFFF;}
	.st6{fill:#F6921E;}
	.st7{fill:#58595B;}
</style>
<path class="st0" d="M93.3,51.9c0.4-11.6-3.7-23.6-12.7-32.5c-16.9-16.9-44.3-16.9-61.2,0s-16.9,44.3,0,61.2
	c8.1,8.1,18.7,12.2,29.3,12.7c11.5,0.3,23.1-3.9,31.9-12.7C88.5,72.7,92.7,62.4,93.3,51.9z"/>
<path class="st0" d="M96.1,50c0-20.7-13.6-38.2-32.4-44.2c-4.3-1.3-9-2.1-13.7-2.1C24.5,3.9,3.9,24.5,3.9,50S24.6,96.1,50,96.1l0,0
	c0.4,0,1,0,1.5-0.1c4-0.1,8.1-0.7,11.8-1.9l-34-33.9l-2.4-14.3l3.6-13.9l11-6h13.3l39.1,39.1c1.2-3.3,1.9-6.7,2.2-10.3
	C96.1,53.1,96.1,51.6,96.1,50z"/>
<g>
	
		<linearGradient id="SVGID_1_" gradientUnits="userSpaceOnUse" x1="-4.597" y1="96.2295" x2="105.7223" y2="6.8647" gradientTransform="matrix(1 0 0 -1 0 102)">
		<stop  offset="0" style="stop-color:#FFFFFF"/>
		<stop  offset="1" style="stop-color:#231F20"/>
	</linearGradient>
	<path class="st1" d="M80.6,19.4c-16.9-16.9-44.3-16.9-61.2,0s-16.9,44.3,0,61.2c8.1,8.1,18.7,12.2,29.3,12.7
		c11.5,0.3,23.1-3.9,31.9-12.7c7.9-7.9,12.1-18.2,12.5-28.7C93.7,40.3,89.6,28.4,80.6,19.4z"/>
	
		<linearGradient id="SVGID_2_" gradientUnits="userSpaceOnUse" x1="-4.6071" y1="96.2169" x2="105.7121" y2="6.8522" gradientTransform="matrix(1 0 0 -1 0 102)">
		<stop  offset="0" style="stop-color:#FFFFFF"/>
		<stop  offset="1" style="stop-color:#231F20"/>
	</linearGradient>
	<path class="st2" d="M51.5,96.1c-0.4,0-1,0.1-1.5,0.1l0,0c-25.5,0-46.1-20.7-46.1-46.1C3.9,24.6,24.6,4,50,4
		c4.8,0,9.4,0.7,13.7,2.1c18.8,5.8,32.4,23.4,32.4,44.2c0,1.6-0.1,3.1-0.3,4.8c-0.3,3.6-1.2,7-2.2,10.3l3,3c1.2-3.1,2.1-6.4,2.7-9.9
		c0.4-2.7,0.7-5.2,0.7-8.1C100,22.4,77.6,0,50,0S0,22.4,0,50s22.4,50,50,50c1.8,0,3.4-0.1,5.1-0.3c3.9-0.4,7.6-1.2,11.2-2.5L63.1,94
		C59.6,95.2,55.5,96,51.5,96.1z"/>
</g>
<g>
	
		<linearGradient id="SVGID_3_" gradientUnits="userSpaceOnUse" x1="-4.141" y1="101.0645" x2="92.3113" y2="10.7753" gradientTransform="matrix(1 0 0 -1 0 102)">
		<stop  offset="0" style="stop-color:#FFFFFF"/>
		<stop  offset="1" style="stop-color:#231F20"/>
	</linearGradient>
	<path class="st3" d="M41.3,25.8l-11,6l-3.4,14l2.4,14.3l34,34C77.5,89.9,88.8,79,93.7,64.9L54.6,25.8H41.3z"/>
	
		<linearGradient id="SVGID_4_" gradientUnits="userSpaceOnUse" x1="-4.884" y1="100.2708" x2="91.5684" y2="9.9816" gradientTransform="matrix(1 0 0 -1 0 102)">
		<stop  offset="0" style="stop-color:#FFFFFF"/>
		<stop  offset="1" style="stop-color:#231F20"/>
	</linearGradient>
	<path class="st4" d="M96.6,67.9l-3-3c-4.8,14-16.1,24.9-30.4,29.3l3.1,3.1C80.3,92.4,91.3,81.6,96.6,67.9z"/>
</g>
<path class="st5" d="M96,54.8c0.1-1.5,0.3-3.1,0.3-4.8c0-20.7-13.6-38.2-32.4-44.2c-4.3-1.3-9-2.1-13.7-2.1
	C24.5,3.9,3.9,24.5,3.9,50S24.6,96.1,50,96.1c0.4,0,1,0,1.5-0.1C74.8,95.4,93.6,77.5,96,54.8z M48.7,93.3
	C38.1,93,27.5,88.8,19.4,80.6c-16.9-16.9-16.9-44.3,0-61.2s44.3-16.9,61.2,0c9,9,13.1,20.9,12.5,32.5c-0.4,10.4-4.6,20.7-12.5,28.7
	C71.8,89.4,60.1,93.6,48.7,93.3z"/>
<path class="st5" d="M63.7,5.8C82.5,11.6,96.1,29.3,96.1,50c0,1.6-0.1,3.1-0.3,4.8c-2.2,22.8-21.2,40.6-44.5,41.3
	c-0.4,0-1,0.1-1.5,0.1l0,0c0.4,0,1,0,1.5-0.1c23.3-0.7,42.1-18.7,44.5-41.3c0.1-1.5,0.3-3.1,0.3-4.8C96.1,29.3,82.5,11.8,63.7,5.8z"
	/>
<path class="st0" d="M48.7,48.5c0.9,0.9,1.8,1.9,2.7,3C50.4,50.4,49.6,49.4,48.7,48.5z"/>
<path class="st6" d="M49.7,49.7c0.1,0.3,0.4,0.4,0.6,0.7C50.1,50.1,49.9,49.9,49.7,49.7z"/>
<g>
	<path class="st7" d="M57.3,51c-0.6,4.3-2.5,7.8-5.7,10.3c-3.3,2.5-7.2,3.7-11.8,3.7c-2.7,0-5.2-0.7-7.3-1.9s-3.7-3-4.9-5.2
		c-1.2-2.2-1.9-4.9-2.1-7.9c-0.1-3.3,0.1-6.6,1-10s2.4-6.4,4.2-8.8c1.9-2.5,4.2-4.5,6.7-5.7c2.5-1.3,5.4-1.9,8.4-1.8
		c4.3,0,7.6,1.3,10.1,3.9c2.5,2.5,3.9,6,4,10.4h-8.1c-0.1-2.5-0.7-4.5-1.8-5.7c-1-1.2-2.7-1.8-4.8-1.9c-2.2,0-4.2,0.6-6,1.9
		c-1.8,1.3-3.1,3.4-4.2,6.1c-1,2.7-1.6,5.8-1.8,9.6c-0.1,3.3,0.3,5.8,1.5,7.8c1.2,1.8,2.8,2.8,5.2,2.8c2.2,0.1,4.2-0.4,5.8-1.8
		c1.6-1.3,2.7-3.1,3.3-5.5L57.3,51z"/>
	<path class="st7" d="M63.3,72.2c-2.4-0.4-4.2-1.3-5.4-3c-1.2-1.6-1.6-3.7-1.3-6.1c0.1-1.5,0.6-3,1.3-4.3s1.8-2.5,3-3.4l2.8,2.4
		c-1,1-1.8,2.2-2.2,3.4c-0.4,1.3-0.7,2.5-0.7,3.7c0.1,1.9,1,3.1,2.8,3.7l1.5-8.8c0.1-1.3,0.7-2.4,1.6-3.3c0.9-0.9,2.1-1.3,3.4-1.2
		c1.5,0,2.8,0.4,3.9,1.2c1.2,0.7,1.9,1.8,2.5,3c0.6,1.2,0.7,2.5,0.6,4c-0.3,2.5-1.2,4.5-3,6.1c-1.6,1.5-4,2.5-6.7,2.8l-1.3,7.2h-4.3
		L63.3,72.2z M67.9,68.8c1.6-0.4,2.8-1,3.7-2.1c0.9-1,1.3-2.4,1.3-4c0-1.2-0.1-2.2-0.6-2.8c-0.4-0.6-1-0.9-1.8-0.9
		c-0.4,0-0.9,0.3-0.9,0.7L67.9,68.8z"/>
</g>
<g>
	<path class="st5" d="M56,49.6c-0.6,4.3-2.5,7.8-5.7,10.3c-3.3,2.5-7.2,3.7-11.8,3.7c-2.7,0-5.2-0.7-7.3-1.9s-3.7-3-4.9-5.2
		c-1.2-2.2-1.9-4.9-2.1-7.9c-0.1-3.3,0.1-6.6,1-10c0.9-3.4,2.4-6.4,4.2-8.8c1.9-2.5,4.2-4.5,6.7-5.7c2.5-1.3,5.4-1.9,8.4-1.8
		c4.3,0,7.6,1.3,10.1,3.9c2.5,2.5,3.9,6,4,10.4h-8.1c-0.1-2.5-0.7-4.5-1.8-5.7S46.1,29.1,44,29c-2.2,0-4.2,0.6-6,1.9
		s-3.1,3.4-4.2,6.1c-1,2.7-1.6,5.8-1.8,9.6c-0.1,3.3,0.3,5.8,1.5,7.8c1.2,1.8,2.8,2.8,5.2,2.8c2.2,0.1,4.2-0.4,5.8-1.8
		c1.6-1.3,2.7-3.1,3.3-5.5L56,49.6z"/>
	<path class="st5" d="M61.9,70.7c-2.4-0.4-4.2-1.3-5.4-3c-1.2-1.6-1.6-3.7-1.3-6.1c0.1-1.5,0.6-3,1.3-4.3c0.7-1.3,1.8-2.5,3-3.4
		l2.8,2.4c-1,1-1.8,2.2-2.2,3.4c-0.4,1.3-0.7,2.5-0.7,3.7c0.1,1.9,1,3.1,2.8,3.7l1.5-8.8c0.1-1.3,0.7-2.4,1.6-3.3
		c0.9-0.9,2.1-1.3,3.4-1.2c1.5,0,2.8,0.4,3.9,1.2c1.2,0.7,1.9,1.8,2.5,3c0.6,1.2,0.7,2.5,0.6,4c-0.3,2.5-1.2,4.5-3,6.1
		c-1.6,1.5-4,2.5-6.7,2.8l-1.3,7.2h-4.3L61.9,70.7z M66.6,67.3c1.6-0.4,2.8-1,3.7-2.1c0.9-1.2,1.3-2.5,1.3-4c0-1.2-0.1-2.2-0.6-2.8
		s-1-0.9-1.8-0.9c-0.4,0-0.9,0.3-0.9,0.7L66.6,67.3z"/>
</g>
</svg>
