<?xml version="1.0" encoding="utf-8"?>
<!-- Roman Inozemtsev: https://github.com/mir-one/  -->
<svg version="1.1"
	 id="Слой_1" shape-rendering="geometricPrecision" text-rendering="geometricPrecision" image-rendering="optimizeQuality"
	 xmlns="http://www.w3.org/2000/svg" xmlns:xlink="http://www.w3.org/1999/xlink" x="0px" y="0px" viewBox="0 0 256.7 32.3"
	 style="enable-background:new 0 0 256.7 32.3;" xml:space="preserve">
<style type="text/css">
	.st0{fill:#2BB673;}
</style>
<g>
	<path class="st0" d="M28.1,12.8h-4.5v2.3h2c0.7,0,1.3,0.1,1.9,0.4c0.5,0.2,0.9,0.6,1.2,1c0.3,0.4,0.4,1,0.4,1.6
		c0,0.9-0.3,1.6-0.9,2.2c-0.6,0.5-1.5,0.8-2.5,0.8H22v-9.7h6.1V12.8z M23.7,16.5v3.3h2c0.6,0,1-0.2,1.3-0.5c0.3-0.3,0.5-0.7,0.5-1.2
		c0-0.5-0.2-0.9-0.5-1.2c-0.3-0.3-0.7-0.4-1.3-0.4H23.7z"/>
	<path class="st0" d="M36.5,14v7.2h-1.6v-5.9h-2l-0.1,2.5c-0.1,1.2-0.3,2.1-0.7,2.6c-0.4,0.5-1,0.8-1.7,0.8h-0.5l0-1.4l0.3,0
		c0.4,0,0.6-0.3,0.8-0.6c0.2-0.4,0.3-1.1,0.3-2.1l0.1-3.1H36.5z"/>
	<path class="st0" d="M38,17.5c0-0.7,0.1-1.3,0.4-1.9c0.3-0.6,0.7-1,1.2-1.3c0.5-0.3,1.1-0.5,1.7-0.5c1,0,1.8,0.3,2.4,0.9
		c0.6,0.6,0.9,1.5,1,2.5l0,0.4c0,0.7-0.1,1.3-0.4,1.9c-0.3,0.6-0.7,1-1.2,1.3c-0.5,0.3-1.1,0.5-1.8,0.5c-1,0-1.8-0.3-2.4-1
		S38,18.7,38,17.5L38,17.5z M39.6,17.6c0,0.7,0.2,1.3,0.5,1.7c0.3,0.4,0.7,0.6,1.3,0.6c0.5,0,1-0.2,1.3-0.6s0.5-1,0.5-1.9
		c0-0.7-0.2-1.3-0.5-1.7c-0.3-0.4-0.7-0.6-1.3-0.6c-0.5,0-0.9,0.2-1.3,0.6C39.7,16.2,39.6,16.8,39.6,17.6z"/>
	<path class="st0" d="M48.6,18.3h-0.8v2.8h-1.6V14h1.6v2.9h0.7l2-2.9h2l-2.6,3.4l2.8,3.8h-2.1L48.6,18.3z"/>
	<path class="st0" d="M59.3,21.1h-1.6v-2.4c-0.4,0.1-0.9,0.1-1.3,0.1c-1,0-1.7-0.2-2.3-0.7c-0.5-0.5-0.8-1.1-0.8-2v-2.2H55v2.2
		c0,0.5,0.1,0.9,0.3,1.1c0.2,0.2,0.6,0.3,1.1,0.3c0.4,0,0.9-0.1,1.3-0.2V14h1.6V21.1z"/>
	<path class="st0" d="M64.2,21.3c-1,0-1.9-0.3-2.5-1c-0.6-0.6-1-1.5-1-2.6v-0.2c0-0.7,0.1-1.4,0.4-1.9s0.7-1,1.2-1.3
		c0.5-0.3,1.1-0.5,1.7-0.5c1,0,1.7,0.3,2.3,0.9c0.5,0.6,0.8,1.5,0.8,2.7v0.7h-4.7c0,0.6,0.2,1.1,0.6,1.4c0.3,0.3,0.8,0.5,1.3,0.5
		c0.7,0,1.3-0.3,1.8-0.9l0.9,0.8c-0.3,0.4-0.7,0.8-1.2,1S64.8,21.3,64.2,21.3z M64,15.1c-0.4,0-0.8,0.2-1.1,0.5
		c-0.3,0.3-0.4,0.7-0.5,1.3h3.1v-0.1c0-0.5-0.2-0.9-0.4-1.2C64.8,15.3,64.5,15.1,64,15.1z"/>
	<path class="st0" d="M72.8,14h1.6v7.2h-1.6v-4.8L70,21.1h-1.6V14H70v4.8L72.8,14z M73.6,11.2c0,0.6-0.2,1-0.6,1.4
		c-0.4,0.3-0.9,0.5-1.6,0.5c-0.7,0-1.2-0.2-1.6-0.5s-0.6-0.8-0.6-1.4h1.2c0,0.3,0.1,0.5,0.2,0.7c0.2,0.2,0.4,0.2,0.7,0.2
		s0.5-0.1,0.7-0.2s0.2-0.4,0.2-0.7H73.6z"/>
	<path class="st0" d="M82.3,21.1h-1.6v-2.9h-2.8v2.9h-1.6V14h1.6v3h2.8v-3h1.6V21.1z"/>
	<path class="st0" d="M89.9,15.1c-0.4,0-0.7,0.1-1,0.3c-0.3,0.2-0.4,0.5-0.4,0.9h-1.5c0-0.4,0.1-0.9,0.4-1.2
		c0.3-0.4,0.6-0.7,1.1-0.9c0.4-0.2,0.9-0.3,1.4-0.3c1,0,1.8,0.3,2.4,1c0.6,0.7,0.9,1.6,0.9,2.7v0.2c0,0.7-0.1,1.3-0.4,1.9
		c-0.3,0.6-0.6,1-1.1,1.3c-0.5,0.3-1.1,0.5-1.7,0.5c-0.5,0-1-0.1-1.5-0.3c-0.4-0.2-0.8-0.5-1-1c-0.2-0.4-0.4-0.9-0.4-1.4h1.5
		c0,0.4,0.1,0.8,0.4,1s0.6,0.4,1,0.4c0.5,0,0.8-0.2,1.1-0.5c0.3-0.3,0.4-0.8,0.5-1.4h-2.3v-1.1h2.3c-0.1-0.6-0.2-1-0.5-1.4
		S90.4,15.1,89.9,15.1z"/>
	<path class="st0" d="M97.1,18.3h-0.8v2.8h-1.6V14h1.6v2.9H97l2-2.9h2l-2.6,3.4l2.8,3.8h-2.1L97.1,18.3z"/>
	<path class="st0" d="M101.4,17.5c0-0.7,0.1-1.3,0.4-1.9c0.3-0.6,0.7-1,1.2-1.3c0.5-0.3,1.1-0.5,1.7-0.5c1,0,1.8,0.3,2.4,0.9
		c0.6,0.6,0.9,1.5,1,2.5l0,0.4c0,0.7-0.1,1.3-0.4,1.9c-0.3,0.6-0.7,1-1.2,1.3c-0.5,0.3-1.1,0.5-1.8,0.5c-1,0-1.8-0.3-2.4-1
		S101.4,18.7,101.4,17.5L101.4,17.5z M103,17.6c0,0.7,0.2,1.3,0.5,1.7c0.3,0.4,0.7,0.6,1.3,0.6c0.5,0,1-0.2,1.3-0.6s0.5-1,0.5-1.9
		c0-0.7-0.2-1.3-0.5-1.7c-0.3-0.4-0.7-0.6-1.3-0.6c-0.5,0-0.9,0.2-1.3,0.6C103.2,16.2,103,16.8,103,17.6z"/>
	<path class="st0" d="M112.4,20c0.4,0,0.7-0.1,1-0.4c0.3-0.2,0.4-0.5,0.4-0.9h1.5c0,0.4-0.2,0.9-0.4,1.3c-0.3,0.4-0.6,0.7-1.1,0.9
		c-0.4,0.2-0.9,0.3-1.4,0.3c-1,0-1.8-0.3-2.4-1c-0.6-0.7-0.9-1.6-0.9-2.7v-0.2c0-1.1,0.3-2,0.9-2.6c0.6-0.7,1.4-1,2.4-1
		c0.9,0,1.6,0.2,2.1,0.7c0.5,0.5,0.8,1.2,0.8,2h-1.5c0-0.4-0.2-0.8-0.4-1c-0.3-0.3-0.6-0.4-1-0.4c-0.5,0-0.9,0.2-1.2,0.6
		s-0.4,1-0.4,1.7v0.3c0,0.8,0.1,1.4,0.4,1.7C111.5,19.8,111.9,20,112.4,20z"/>
	<path class="st0" d="M121.1,14h1.6v7.2h-1.6v-4.8l-2.8,4.8h-1.6V14h1.6v4.8L121.1,14z"/>
	<path class="st0" d="M127.4,20c0.4,0,0.7-0.1,1-0.4c0.3-0.2,0.4-0.5,0.4-0.9h1.5c0,0.4-0.2,0.9-0.4,1.3c-0.3,0.4-0.6,0.7-1.1,0.9
		c-0.4,0.2-0.9,0.3-1.4,0.3c-1,0-1.8-0.3-2.4-1c-0.6-0.7-0.9-1.6-0.9-2.7v-0.2c0-1.1,0.3-2,0.9-2.6c0.6-0.7,1.4-1,2.4-1
		c0.9,0,1.6,0.2,2.1,0.7c0.5,0.5,0.8,1.2,0.8,2h-1.5c0-0.4-0.2-0.8-0.4-1c-0.3-0.3-0.6-0.4-1-0.4c-0.5,0-0.9,0.2-1.2,0.6
		s-0.4,1-0.4,1.7v0.3c0,0.8,0.1,1.4,0.4,1.7C126.4,19.8,126.9,20,127.4,20z"/>
	<path class="st0" d="M137.2,15.2h-2.3v5.9h-1.6v-5.9H131V14h6.3V15.2z"/>
	<path class="st0" d="M141,21.3c-1,0-1.9-0.3-2.5-1c-0.6-0.6-1-1.5-1-2.6v-0.2c0-0.7,0.1-1.4,0.4-1.9c0.3-0.6,0.7-1,1.2-1.3
		c0.5-0.3,1.1-0.5,1.7-0.5c1,0,1.7,0.3,2.3,0.9c0.5,0.6,0.8,1.5,0.8,2.7v0.7h-4.7c0,0.6,0.2,1.1,0.6,1.4s0.8,0.5,1.3,0.5
		c0.7,0,1.3-0.3,1.8-0.9l0.9,0.8c-0.3,0.4-0.7,0.8-1.2,1C142.2,21.2,141.6,21.3,141,21.3z M140.8,15.1c-0.4,0-0.8,0.2-1.1,0.5
		c-0.3,0.3-0.4,0.7-0.5,1.3h3.1v-0.1c0-0.5-0.2-0.9-0.4-1.2C141.6,15.3,141.3,15.1,140.8,15.1z"/>
	<path class="st0" d="M149.4,19.2l2.1-5.2h2v7.2H152v-4.8l-2,4.8h-1.1l-2-4.8v4.8h-1.6V14h2L149.4,19.2z"/>
	<path class="st0" d="M159.7,21.1c-0.1-0.1-0.1-0.4-0.2-0.7c-0.5,0.5-1.1,0.8-1.9,0.8c-0.7,0-1.3-0.2-1.8-0.6
		c-0.5-0.4-0.7-0.9-0.7-1.5c0-0.8,0.3-1.4,0.9-1.8c0.6-0.4,1.4-0.6,2.4-0.6h1v-0.5c0-0.4-0.1-0.7-0.3-0.9c-0.2-0.2-0.5-0.3-1-0.3
		c-0.4,0-0.7,0.1-0.9,0.3c-0.2,0.2-0.4,0.4-0.4,0.7h-1.6c0-0.4,0.1-0.8,0.4-1.1c0.3-0.3,0.6-0.6,1.1-0.8c0.4-0.2,1-0.3,1.5-0.3
		c0.8,0,1.5,0.2,2,0.6s0.8,1,0.8,1.8v3.2c0,0.6,0.1,1.2,0.3,1.5v0.1H159.7z M157.9,20c0.3,0,0.6-0.1,0.9-0.2
		c0.3-0.2,0.5-0.4,0.6-0.6v-1.4h-0.9c-0.6,0-1,0.1-1.3,0.3c-0.3,0.2-0.5,0.5-0.5,0.9c0,0.3,0.1,0.6,0.3,0.7S157.6,20,157.9,20z"/>
	<path class="st0" d="M169.2,17H168v4.1h-1.7v-9.7h1.7v4.1h0.9l2.8-4.1h2.1l-3.3,4.6l3.6,5h-2L169.2,17z"/>
	<path class="st0" d="M174.5,17.5c0-0.7,0.1-1.3,0.4-1.9s0.7-1,1.2-1.3c0.5-0.3,1.1-0.5,1.7-0.5c1,0,1.8,0.3,2.4,0.9
		c0.6,0.6,0.9,1.5,1,2.5l0,0.4c0,0.7-0.1,1.3-0.4,1.9s-0.7,1-1.2,1.3c-0.5,0.3-1.1,0.5-1.8,0.5c-1,0-1.8-0.3-2.4-1
		S174.5,18.7,174.5,17.5L174.5,17.5z M176.1,17.6c0,0.7,0.2,1.3,0.5,1.7s0.7,0.6,1.3,0.6s1-0.2,1.3-0.6c0.3-0.4,0.5-1,0.5-1.9
		c0-0.7-0.2-1.3-0.5-1.7c-0.3-0.4-0.7-0.6-1.3-0.6c-0.5,0-0.9,0.2-1.3,0.6C176.2,16.2,176.1,16.8,176.1,17.6z"/>
	<path class="st0" d="M188.5,14v7.2h-1.6v-5.9h-2l-0.1,2.5c-0.1,1.2-0.3,2.1-0.7,2.6s-1,0.8-1.7,0.8h-0.5l0-1.4l0.3,0
		c0.4,0,0.6-0.3,0.8-0.6s0.3-1.1,0.3-2.1l0.1-3.1H188.5z"/>
	<path class="st0" d="M194.7,14h1.6v7.2h-1.6v-4.8l-2.8,4.8h-1.6V14h1.6v4.8L194.7,14z"/>
	<path class="st0" d="M197.7,17.5c0-0.7,0.1-1.3,0.4-1.9s0.7-1,1.2-1.3c0.5-0.3,1.1-0.5,1.7-0.5c1,0,1.8,0.3,2.4,0.9
		c0.6,0.6,0.9,1.5,1,2.5l0,0.4c0,0.7-0.1,1.3-0.4,1.9s-0.7,1-1.2,1.3c-0.5,0.3-1.1,0.5-1.8,0.5c-1,0-1.8-0.3-2.4-1
		S197.7,18.7,197.7,17.5L197.7,17.5z M199.4,17.6c0,0.7,0.2,1.3,0.5,1.7s0.7,0.6,1.3,0.6s1-0.2,1.3-0.6c0.3-0.4,0.5-1,0.5-1.9
		c0-0.7-0.2-1.3-0.5-1.7c-0.3-0.4-0.7-0.6-1.3-0.6c-0.5,0-0.9,0.2-1.3,0.6C199.5,16.2,199.4,16.8,199.4,17.6z"/>
	<path class="st0" d="M211.9,21.1h-1.6v-2.9h-2.8v2.9h-1.6V14h1.6v3h2.8v-3h1.6V21.1z"/>
	<path class="st0" d="M213.3,17.5c0-0.7,0.1-1.3,0.4-1.9s0.7-1,1.2-1.3c0.5-0.3,1.1-0.5,1.7-0.5c1,0,1.8,0.3,2.4,0.9
		c0.6,0.6,0.9,1.5,1,2.5l0,0.4c0,0.7-0.1,1.3-0.4,1.9s-0.7,1-1.2,1.3c-0.5,0.3-1.1,0.5-1.8,0.5c-1,0-1.8-0.3-2.4-1
		S213.3,18.7,213.3,17.5L213.3,17.5z M214.9,17.6c0,0.7,0.2,1.3,0.5,1.7s0.7,0.6,1.3,0.6s1-0.2,1.3-0.6c0.3-0.4,0.5-1,0.5-1.9
		c0-0.7-0.2-1.3-0.5-1.7c-0.3-0.4-0.7-0.6-1.3-0.6c-0.5,0-0.9,0.2-1.3,0.6C215.1,16.2,214.9,16.8,214.9,17.6z"/>
	<path class="st0" d="M221.5,21.1V14h2.9c1,0,1.7,0.2,2.2,0.5c0.5,0.3,0.8,0.8,0.8,1.5c0,0.3-0.1,0.6-0.3,0.9s-0.5,0.5-0.9,0.6
		c0.5,0.1,0.8,0.3,1.1,0.6c0.3,0.3,0.4,0.6,0.4,1c0,0.7-0.2,1.2-0.7,1.5c-0.5,0.4-1.2,0.5-2.1,0.5H221.5z M223.1,16.9h1.3
		c0.9,0,1.4-0.3,1.4-0.8c0-0.6-0.4-0.9-1.3-0.9h-1.4V16.9z M223.1,18.1v1.8h1.8c0.8,0,1.2-0.3,1.2-0.9c0-0.6-0.4-0.9-1.3-0.9H223.1z
		"/>
	<path class="st0" d="M228.8,17.5c0-0.7,0.1-1.3,0.4-1.9s0.7-1,1.2-1.3c0.5-0.3,1.1-0.5,1.7-0.5c1,0,1.8,0.3,2.4,0.9
		c0.6,0.6,0.9,1.5,1,2.5l0,0.4c0,0.7-0.1,1.3-0.4,1.9s-0.7,1-1.2,1.3c-0.5,0.3-1.1,0.5-1.8,0.5c-1,0-1.8-0.3-2.4-1
		S228.8,18.7,228.8,17.5L228.8,17.5z M230.4,17.6c0,0.7,0.2,1.3,0.5,1.7s0.7,0.6,1.3,0.6s1-0.2,1.3-0.6c0.3-0.4,0.5-1,0.5-1.9
		c0-0.7-0.2-1.3-0.5-1.7c-0.3-0.4-0.7-0.6-1.3-0.6c-0.5,0-0.9,0.2-1.3,0.6C230.6,16.2,230.4,16.8,230.4,17.6z"/>
</g>
</svg>
