<?xml version="1.0" encoding="utf-8"?>
<!-- Roman Inozemtsev: https://github.com/mir-one/  -->
<svg version="1.1"
	 id="Слой_1" shape-rendering="geometricPrecision" text-rendering="geometricPrecision" image-rendering="optimizeQuality"
	 xmlns="http://www.w3.org/2000/svg" xmlns:xlink="http://www.w3.org/1999/xlink" x="0px" y="0px" viewBox="0 0 24 24"
	 style="enable-background:new 0 0 24 24;" xml:space="preserve">
<style type="text/css">
	.st0{fill:#2BB673;}
	.st1{fill:#FFFFFF;}
</style>
<circle class="st0" cx="12" cy="12" r="12"/>
<circle class="st1" cx="12" cy="12" r="11.1"/>
<ellipse transform="matrix(0.7071 -0.7071 0.7071 0.7071 -4.9786 11.9964)" class="st1" cx="12" cy="12" rx="10.4" ry="10.4"/>
<path class="st0" d="M15.6,8.5c-1.9-2.2-5.3-2.2-7.1,0.1c-1.2,1.5-1.3,3.2-0.5,4.9c0.4,0.9,1,1.6,1.6,2.3c0.8,1,1.7,1.9,2.4,2.9
	c0.1,0.2,0.1,0.1,0.2,0c0.5-0.7,1-1.3,1.6-2c0.7-0.8,1.4-1.5,1.9-2.4c0.6-0.8,0.9-1.8,0.9-2.7C16.6,10.4,16.2,9.5,15.6,8.5z"/>
<polygon class="st1" points="12.7,12.3 13.9,10.5 12.8,10.5 12.8,10.5 11.9,11.7 11.9,9 10,9 10,10.1 10.8,10.1 10.8,14.7 
	11.9,14.7 11.9,13.1 12.8,14.7 14.1,14.7 "/>
</svg>
