<?xml version="1.0" encoding="utf-8"?>
<!-- Generator: Adobe Illustrator 21.0.0, SVG Export Plug-In . SVG Version: 6.00 Build 0)  -->
<svg version="1.1"
	 id="Слой_1" text-rendering="geometricPrecision" image-rendering="optimizeQuality" shape-rendering="geometricPrecision"
	 xmlns="http://www.w3.org/2000/svg" xmlns:xlink="http://www.w3.org/1999/xlink" x="0px" y="0px" viewBox="0 0 267 124.3"
	 style="enable-background:new 0 0 267 124.3;" xml:space="preserve">
<style type="text/css">
	.st0{fill:#4062AD;}
</style>
<g>
	<path class="st0" d="M12.4,25.9v11.9H6.9v-32h12.2c3.6,0,6.4,0.9,8.5,2.8c2.1,1.9,3.2,4.3,3.2,7.4c0,3.1-1,5.6-3.1,7.3
		c-2.1,1.7-4.9,2.6-8.6,2.6H12.4z M12.4,21.4h6.7c2,0,3.5-0.5,4.5-1.4c1-0.9,1.6-2.3,1.6-4c0-1.7-0.5-3.1-1.6-4.1
		c-1.1-1-2.5-1.6-4.4-1.6h-6.8V21.4z"/>
	<path class="st0" d="M33.8,25.6c0-2.3,0.5-4.4,1.4-6.3c0.9-1.9,2.2-3.3,3.9-4.3c1.7-1,3.6-1.5,5.8-1.5c3.2,0,5.8,1,7.8,3.1
		c2,2.1,3.1,4.8,3.2,8.2l0,1.3c0,2.3-0.5,4.4-1.4,6.3c-0.9,1.8-2.2,3.3-3.9,4.3c-1.7,1-3.6,1.5-5.8,1.5c-3.4,0-6-1.1-8.1-3.4
		s-3-5.2-3-8.9V25.6z M39.2,26.1c0,2.4,0.5,4.4,1.5,5.7c1,1.4,2.4,2.1,4.2,2.1s3.2-0.7,4.2-2.1s1.5-3.5,1.5-6.2
		c0-2.4-0.5-4.3-1.5-5.7c-1-1.4-2.4-2.1-4.2-2.1c-1.7,0-3.1,0.7-4.2,2.1C39.7,21.3,39.2,23.4,39.2,26.1z"/>
	<path class="st0" d="M58.9,33.5c1.5-1.7,2.5-3.2,3-4.7c0.5-1.5,0.8-3.4,0.9-5.7l0.3-9.1h16.5v19.5h3.3v11.3h-5.3v-7.1H62.4v7.1H57
		l0-11.3H58.9z M65.2,33.5h9.1V18.6h-6l-0.2,4.5C68,27.5,67,30.9,65.2,33.5z"/>
	<path class="st0" d="M85.8,25.6c0-2.3,0.5-4.4,1.4-6.3c0.9-1.9,2.2-3.3,3.9-4.3c1.7-1,3.6-1.5,5.8-1.5c3.2,0,5.8,1,7.8,3.1
		c2,2.1,3.1,4.8,3.2,8.2l0,1.3c0,2.3-0.5,4.4-1.4,6.3c-0.9,1.8-2.2,3.3-3.9,4.3c-1.7,1-3.6,1.5-5.8,1.5c-3.4,0-6-1.1-8.1-3.4
		s-3-5.2-3-8.9V25.6z M91.1,26.1c0,2.4,0.5,4.4,1.5,5.7c1,1.4,2.4,2.1,4.2,2.1s3.2-0.7,4.2-2.1s1.5-3.5,1.5-6.2
		c0-2.4-0.5-4.3-1.5-5.7c-1-1.4-2.4-2.1-4.2-2.1c-1.7,0-3.1,0.7-4.2,2.1C91.6,21.3,91.1,23.4,91.1,26.1z"/>
	<path class="st0" d="M112.8,37.8V14h9.6c3.3,0,5.7,0.6,7.4,1.7s2.5,2.8,2.5,4.9c0,1.1-0.3,2.1-1,3c-0.7,0.9-1.7,1.5-3,2
		c1.6,0.3,2.8,1,3.7,2s1.4,2.1,1.4,3.5c0,2.2-0.8,3.9-2.5,5.1c-1.6,1.2-4,1.7-7,1.7H112.8z M118.1,23.8h4.4c3,0,4.5-0.9,4.5-2.7
		c0-1.9-1.4-2.8-4.3-2.9h-4.6V23.8z M118.1,27.6v5.9h5.8c2.7,0,4.1-1,4.1-2.9c0-2-1.4-3-4.2-3H118.1z"/>
	<path class="st0" d="M152.2,37.8c-0.2-0.5-0.4-1.2-0.6-2.2c-1.7,1.8-3.8,2.7-6.2,2.7c-2.4,0-4.3-0.7-5.8-2s-2.3-3-2.3-5.1
		c0-2.5,0.9-4.5,2.8-5.8c1.9-1.4,4.6-2,8.1-2h3.3v-1.6c0-1.2-0.3-2.2-1-3s-1.7-1.1-3.1-1.1c-1.2,0-2.2,0.3-3,0.9
		c-0.8,0.6-1.2,1.4-1.2,2.3h-5.3c0-1.3,0.4-2.5,1.3-3.7s2-2,3.5-2.7c1.5-0.6,3.1-1,5-1c2.8,0,5,0.7,6.7,2.1s2.5,3.4,2.5,5.9v10.7
		c0,2.1,0.3,3.8,0.9,5.1v0.4H152.2z M146.4,33.9c1.1,0,2-0.3,3-0.8c0.9-0.5,1.6-1.2,2.1-2.1v-4.5h-2.9c-2,0-3.5,0.3-4.5,1
		s-1.5,1.7-1.5,2.9c0,1,0.3,1.8,1,2.5C144.3,33.6,145.2,33.9,146.4,33.9z"/>
	<path class="st0" d="M181.4,14v23.8h-5.3V29h-5l-5.1,8.7h-5.5l5.6-9.6c-1.5-0.6-2.6-1.5-3.4-2.6c-0.8-1.1-1.2-2.5-1.2-3.9
		c0-2.2,0.9-4,2.6-5.4c1.7-1.4,4-2.1,6.9-2.2H181.4z M166.9,21.7c0,1,0.4,1.8,1.1,2.4c0.7,0.6,1.7,0.9,2.8,0.9h5.3v-6.9h-4.9
		c-1.3,0-2.3,0.3-3.1,1S166.9,20.7,166.9,21.7z"/>
	<path class="st0" d="M24.3,48.8c2.7,0,5.1,0.6,7.2,1.7s3.6,2.7,4.7,4.7c1.1,2,1.7,4.2,1.7,6.8c0,2.5-0.6,4.7-1.7,6.7
		c-1.1,2-2.7,3.5-4.7,4.6c-2,1.1-4.4,1.7-7.2,1.7v4.2H19v-4.2h-0.5c-2.5,0-4.7-0.6-6.7-1.7S8.1,70.6,7,68.6c-1.1-2-1.7-4.2-1.7-6.7
		c0-2.5,0.6-4.8,1.7-6.8s2.7-3.6,4.7-4.7s4.4-1.7,7.2-1.7v-4.4h5.3V48.8z M18.6,53.3c-2.5,0-4.4,0.8-5.9,2.3s-2.1,3.6-2.1,6.4
		c0,2.6,0.7,4.7,2.1,6.2c1.4,1.5,3.3,2.3,5.8,2.3H19V53.3H18.6z M24.3,53.3v17.1h0.4c2.5,0,4.5-0.8,5.9-2.3c1.4-1.5,2.1-3.6,2.1-6.3
		c0-2.7-0.7-4.8-2.1-6.3c-1.4-1.5-3.4-2.3-5.9-2.3H24.3z"/>
	<path class="st0" d="M57,54h5.3v23.8H57V61.9l-9.3,15.9h-5.3V54h5.3v15.9L57,54z"/>
	<path class="st0" d="M88.2,77.8h-5.3v-9.6h-9.3v9.6h-5.3V54h5.3v9.9h9.3V54h5.3V77.8z"/>
	<path class="st0" d="M108,77.8c-0.2-0.5-0.4-1.2-0.6-2.2c-1.7,1.8-3.8,2.7-6.2,2.7c-2.4,0-4.3-0.7-5.8-2c-1.5-1.4-2.3-3-2.3-5.1
		c0-2.5,0.9-4.5,2.8-5.8c1.9-1.4,4.6-2,8.1-2h3.3v-1.6c0-1.2-0.3-2.2-1-3s-1.7-1.1-3.1-1.1c-1.2,0-2.2,0.3-3,0.9
		c-0.8,0.6-1.2,1.4-1.2,2.3h-5.3c0-1.3,0.4-2.5,1.3-3.7s2-2,3.5-2.7s3.1-1,5-1c2.8,0,5,0.7,6.7,2.1c1.7,1.4,2.5,3.4,2.5,5.9v10.7
		c0,2.1,0.3,3.8,0.9,5.1v0.4H108z M102.2,73.9c1.1,0,2-0.3,3-0.8c0.9-0.5,1.6-1.2,2.1-2.1v-4.5h-2.9c-2,0-3.5,0.3-4.5,1
		c-1,0.7-1.5,1.7-1.5,2.9c0,1,0.3,1.8,1,2.5C100.1,73.6,101,73.9,102.2,73.9z"/>
	<path class="st0" d="M138.3,77.8H133v-9.6h-9.3v9.6h-5.3V54h5.3v9.9h9.3V54h5.3V77.8z"/>
	<path class="st0" d="M153.8,73.9c1.3,0,2.4-0.4,3.3-1.2c0.9-0.8,1.3-1.7,1.4-2.9h5c-0.1,1.5-0.5,2.9-1.4,4.1c-0.9,1.3-2,2.3-3.5,3
		c-1.5,0.7-3.1,1.1-4.8,1.1c-3.3,0-6-1.1-7.9-3.2c-1.9-2.2-2.9-5.1-2.9-8.9v-0.5c0-3.6,1-6.5,2.9-8.7c1.9-2.2,4.6-3.3,7.9-3.3
		c2.8,0,5.1,0.8,6.9,2.5c1.8,1.6,2.7,3.8,2.8,6.5h-5c-0.1-1.4-0.5-2.5-1.4-3.4c-0.9-0.9-2-1.3-3.3-1.3c-1.7,0-3.1,0.6-4,1.9
		c-0.9,1.3-1.4,3.2-1.4,5.7v0.9c0,2.6,0.5,4.5,1.4,5.8C150.7,73.3,152,73.9,153.8,73.9z"/>
	<path class="st0" d="M166.5,65.6c0-2.3,0.5-4.4,1.4-6.3c0.9-1.9,2.2-3.3,3.9-4.3c1.7-1,3.6-1.5,5.8-1.5c3.2,0,5.8,1,7.8,3.1
		c2,2.1,3.1,4.8,3.2,8.2l0,1.3c0,2.3-0.5,4.4-1.4,6.3c-0.9,1.8-2.2,3.3-3.9,4.3c-1.7,1-3.6,1.5-5.8,1.5c-3.4,0-6-1.1-8.1-3.4
		c-2-2.2-3-5.2-3-8.9V65.6z M171.9,66.1c0,2.4,0.5,4.4,1.5,5.7c1,1.4,2.4,2.1,4.2,2.1s3.2-0.7,4.2-2.1c1-1.4,1.5-3.5,1.5-6.2
		c0-2.4-0.5-4.3-1.5-5.7c-1-1.4-2.4-2.1-4.2-2.1c-1.7,0-3.1,0.7-4.2,2.1C172.4,61.3,171.9,63.4,171.9,66.1z"/>
	<path class="st0" d="M193.6,77.8V54h9.6c3.3,0,5.7,0.6,7.4,1.7s2.5,2.8,2.5,4.9c0,1.1-0.3,2.1-1,3c-0.7,0.9-1.7,1.5-3,2
		c1.6,0.3,2.8,1,3.7,2c0.9,1,1.4,2.1,1.4,3.5c0,2.2-0.8,3.9-2.5,5.1c-1.6,1.2-4,1.7-7,1.7H193.6z M198.9,63.8h4.4
		c3,0,4.5-0.9,4.5-2.7c0-1.9-1.4-2.8-4.3-2.9h-4.6V63.8z M198.9,67.6v5.9h5.8c2.7,0,4.1-1,4.1-2.9c0-2-1.4-3-4.2-3H198.9z"/>
	<path class="st0" d="M233,77.8c-0.2-0.5-0.4-1.2-0.6-2.2c-1.7,1.8-3.8,2.7-6.2,2.7c-2.4,0-4.3-0.7-5.8-2c-1.5-1.4-2.3-3-2.3-5.1
		c0-2.5,0.9-4.5,2.8-5.8c1.9-1.4,4.6-2,8.1-2h3.3v-1.6c0-1.2-0.3-2.2-1-3s-1.7-1.1-3.1-1.1c-1.2,0-2.2,0.3-3,0.9
		c-0.8,0.6-1.2,1.4-1.2,2.3h-5.3c0-1.3,0.4-2.5,1.3-3.7s2-2,3.5-2.7c1.5-0.6,3.1-1,5-1c2.8,0,5,0.7,6.7,2.1s2.5,3.4,2.5,5.9v10.7
		c0,2.1,0.3,3.8,0.9,5.1v0.4H233z M227.1,73.9c1.1,0,2-0.3,3-0.8c0.9-0.5,1.6-1.2,2.1-2.1v-4.5h-2.9c-2,0-3.5,0.3-4.5,1
		c-1,0.7-1.5,1.7-1.5,2.9c0,1,0.3,1.8,1,2.5C225.1,73.6,226,73.9,227.1,73.9z"/>
	<path class="st0" d="M262.2,54v23.8h-5.3V69h-5l-5.1,8.7h-5.5l5.6-9.6c-1.5-0.6-2.6-1.5-3.4-2.6c-0.8-1.1-1.2-2.5-1.2-3.9
		c0-2.2,0.9-4,2.6-5.4c1.7-1.4,4-2.1,6.9-2.2H262.2z M247.7,61.7c0,1,0.4,1.8,1.1,2.4c0.7,0.6,1.7,0.9,2.8,0.9h5.3v-6.9H252
		c-1.3,0-2.3,0.3-3.1,1S247.7,60.7,247.7,61.7z"/>
	<path class="st0" d="M31.3,107.3c-0.3,3.4-1.6,6.1-3.8,8c-2.2,1.9-5.1,2.9-8.8,2.9c-2.5,0-4.8-0.6-6.7-1.8
		c-1.9-1.2-3.4-2.9-4.5-5.2s-1.6-4.8-1.6-7.8v-3c0-3,0.5-5.7,1.6-8c1.1-2.3,2.6-4.1,4.6-5.3c2-1.2,4.3-1.9,6.9-1.9
		c3.5,0,6.4,1,8.5,2.9c2.2,1.9,3.4,4.6,3.8,8.1h-5.5c-0.3-2.3-0.9-4-2-5c-1.1-1-2.7-1.5-4.7-1.5c-2.4,0-4.3,0.9-5.6,2.7
		c-1.3,1.8-2,4.4-2,7.8v2.8c0,3.5,0.6,6.1,1.9,7.9c1.2,1.8,3.1,2.7,5.4,2.7c2.2,0,3.8-0.5,4.9-1.5c1.1-1,1.8-2.6,2.1-4.9H31.3z"/>
	<path class="st0" d="M50.6,94h5.3v23.8h-5.3v-15.9l-9.3,15.9h-5.3V94h5.3v15.9L50.6,94z"/>
	<path class="st0" d="M71.3,113.9c1.3,0,2.4-0.4,3.3-1.2c0.9-0.8,1.3-1.7,1.4-2.9h5c-0.1,1.5-0.5,2.9-1.4,4.1c-0.9,1.3-2,2.3-3.5,3
		c-1.5,0.7-3.1,1.1-4.8,1.1c-3.3,0-6-1.1-7.9-3.2c-1.9-2.2-2.9-5.1-2.9-8.9v-0.5c0-3.6,1-6.5,2.9-8.7c1.9-2.2,4.6-3.3,7.9-3.3
		c2.8,0,5.1,0.8,6.9,2.5c1.8,1.6,2.7,3.8,2.8,6.5h-5c-0.1-1.4-0.5-2.5-1.4-3.4s-2-1.3-3.3-1.3c-1.7,0-3.1,0.6-4,1.9
		c-0.9,1.3-1.4,3.2-1.4,5.7v0.9c0,2.6,0.5,4.5,1.4,5.8C68.2,113.3,69.6,113.9,71.3,113.9z"/>
	<path class="st0" d="M103.8,98.2h-7.7v19.5h-5.3V98.2h-7.6V94h20.7V98.2z"/>
	<path class="st0" d="M116.4,118.2c-3.4,0-6.1-1.1-8.2-3.2c-2.1-2.1-3.2-5-3.2-8.5v-0.7c0-2.4,0.5-4.5,1.4-6.4
		c0.9-1.9,2.2-3.3,3.9-4.4c1.7-1,3.5-1.6,5.5-1.6c3.2,0,5.7,1,7.5,3.1c1.8,2.1,2.6,5,2.6,8.8v2.2h-15.5c0.2,2,0.8,3.5,2,4.7
		c1.1,1.1,2.6,1.7,4.3,1.7c2.4,0,4.4-1,6-3l2.9,2.7c-1,1.4-2.2,2.5-3.8,3.3C120.2,117.8,118.4,118.2,116.4,118.2z M115.8,97.8
		c-1.5,0-2.6,0.5-3.5,1.5c-0.9,1-1.5,2.5-1.7,4.3h10.2v-0.4c-0.1-1.8-0.6-3.1-1.4-4.1S117.3,97.8,115.8,97.8z"/>
	<path class="st0" d="M144.2,111.2l7-17.2h6.7v23.8h-5.3V102l-6.5,15.7h-3.6l-6.6-15.8v15.8h-5.3V94h6.7L144.2,111.2z"/>
	<path class="st0" d="M178.1,117.8c-0.2-0.5-0.4-1.2-0.6-2.2c-1.7,1.8-3.8,2.7-6.2,2.7c-2.4,0-4.3-0.7-5.8-2c-1.5-1.4-2.3-3-2.3-5.1
		c0-2.5,0.9-4.5,2.8-5.8c1.9-1.4,4.6-2,8.1-2h3.3v-1.6c0-1.2-0.3-2.2-1-3s-1.7-1.1-3.1-1.1c-1.2,0-2.2,0.3-3,0.9
		c-0.8,0.6-1.2,1.4-1.2,2.3h-5.3c0-1.3,0.4-2.5,1.3-3.7s2-2,3.5-2.7c1.5-0.6,3.1-1,5-1c2.8,0,5,0.7,6.7,2.1s2.5,3.4,2.5,5.9v10.7
		c0,2.1,0.3,3.8,0.9,5.1v0.4H178.1z M172.3,113.9c1.1,0,2-0.3,3-0.8c0.9-0.5,1.6-1.2,2.1-2.1v-4.5h-2.9c-2,0-3.5,0.3-4.5,1
		s-1.5,1.7-1.5,2.9c0,1,0.3,1.8,1,2.5C170.2,113.6,171.1,113.9,172.3,113.9z"/>
</g>
</svg>
