<?xml version="1.0" encoding="utf-8"?>
<!-- Roman Inozemtsev: https://github.com/mir-one/  -->
<svg version="1.1" id="Слой_1" xmlns="http://www.w3.org/2000/svg" xmlns:xlink="http://www.w3.org/1999/xlink" x="0px" y="0px"
	 viewBox="0 0 67 67" style="enable-background:new 0 0 67 67;" xml:space="preserve">
<style type="text/css">
	.st0{fill:none;}
	.st1{fill:url(#SVGID_1_);}
	.st2{fill:url(#SVGID_2_);}
	.st3{fill:url(#SVGID_3_);}
	.st4{fill:url(#SVGID_4_);}
	.st5{fill:#FFFFFF;}
	.st6{fill:#F6921E;}
	.st7{fill:#58595B;}
</style>
<path class="st0" d="M62.5,34.8C62.8,27,60,19,54,13C42.7,1.7,24.3,1.7,13,13C1.7,24.3,1.7,42.7,13,54c5.4,5.4,12.5,8.2,19.6,8.5
	c7.7,0.2,15.5-2.6,21.4-8.5C59.3,48.7,62.1,41.8,62.5,34.8z"/>
<path class="st0" d="M64.4,33.5c0-13.9-9.1-25.6-21.7-29.6c-2.9-0.9-6-1.4-9.2-1.4C16.4,2.6,2.6,16.4,2.6,33.5
	c0,17.1,13.9,30.9,30.9,30.9c0,0,0,0,0,0c0.3,0,0.7,0,1-0.1c2.7-0.1,5.4-0.5,7.9-1.3L19.6,40.3L18,30.7l2.4-9.3l7.4-4h8.9l26.2,26.2
	c0.8-2.2,1.3-4.5,1.5-6.9C64.4,35.6,64.4,34.6,64.4,33.5z"/>
<g>
	<linearGradient id="SVGID_1_" gradientUnits="userSpaceOnUse" x1="-3.081" y1="3.8675" x2="70.8329" y2="63.7419">
		<stop  offset="0" style="stop-color:#FFFFFF"/>
		<stop  offset="1" style="stop-color:#231F20"/>
	</linearGradient>
	<path class="st1" d="M54,13C42.7,1.7,24.3,1.7,13,13C1.7,24.3,1.7,42.7,13,54c5.4,5.4,12.5,8.2,19.6,8.5c7.7,0.2,15.5-2.6,21.4-8.5
		c5.3-5.3,8.1-12.2,8.4-19.2C62.8,27,60,19,54,13z"/>
	<linearGradient id="SVGID_2_" gradientUnits="userSpaceOnUse" x1="-3.0806" y1="3.867" x2="70.8333" y2="63.7414">
		<stop  offset="0" style="stop-color:#FFFFFF"/>
		<stop  offset="1" style="stop-color:#231F20"/>
	</linearGradient>
	<path class="st2" d="M34.5,64.4c-0.3,0-0.7,0.1-1,0.1c0,0,0,0,0,0c-17.1,0-30.9-13.9-30.9-30.9c0-17.1,13.9-30.9,30.9-30.9
		c3.2,0,6.3,0.5,9.2,1.4c12.6,3.9,21.7,15.7,21.7,29.6c0,1.1-0.1,2.1-0.2,3.2c-0.2,2.4-0.8,4.7-1.5,6.9l2,2c0.8-2.1,1.4-4.3,1.8-6.6
		c0.3-1.8,0.5-3.5,0.5-5.4C67,15,52,0,33.5,0S0,15,0,33.5S15,67,33.5,67c1.2,0,2.3-0.1,3.4-0.2c2.6-0.3,5.1-0.8,7.5-1.7l-2.1-2.1
		C39.9,63.8,37.2,64.3,34.5,64.4z"/>
</g>
<g>
	<linearGradient id="SVGID_3_" gradientUnits="userSpaceOnUse" x1="-2.7931" y1="0.6467" x2="61.8299" y2="61.1405">
		<stop  offset="0" style="stop-color:#FFFFFF"/>
		<stop  offset="1" style="stop-color:#231F20"/>
	</linearGradient>
	<path class="st3" d="M27.7,17.3l-7.4,4L18,30.7l1.6,9.6l22.8,22.8c9.5-2.9,17.1-10.2,20.4-19.6L36.6,17.3H27.7z"/>
	<linearGradient id="SVGID_4_" gradientUnits="userSpaceOnUse" x1="-3.2433" y1="1.1276" x2="61.3798" y2="61.6214">
		<stop  offset="0" style="stop-color:#FFFFFF"/>
		<stop  offset="1" style="stop-color:#231F20"/>
	</linearGradient>
	<path class="st4" d="M64.7,45.5l-2-2c-3.2,9.4-10.8,16.7-20.4,19.6l2.1,2.1C53.8,61.9,61.2,54.7,64.7,45.5z"/>
</g>
<path class="st5" d="M64.3,36.7c0.1-1,0.2-2.1,0.2-3.2c0-13.9-9.1-25.6-21.7-29.6c-2.9-0.9-6-1.4-9.2-1.4
	C16.4,2.6,2.6,16.4,2.6,33.5c0,17.1,13.9,30.9,30.9,30.9c0.3,0,0.7,0,1-0.1C50.1,63.9,62.7,51.9,64.3,36.7z M32.6,62.5
	c-7.1-0.2-14.2-3-19.6-8.5C1.7,42.7,1.7,24.3,13,13C24.3,1.7,42.7,1.7,54,13c6,6,8.8,14,8.4,21.8c-0.3,7-3.1,13.9-8.4,19.2
	C48.1,59.9,40.3,62.7,32.6,62.5z"/>
<path class="st5" d="M42.7,3.9c12.6,3.9,21.7,15.7,21.7,29.6c0,1.1-0.1,2.1-0.2,3.2c-1.5,15.3-14.2,27.2-29.8,27.7
	c-0.3,0-0.7,0.1-1,0.1c0,0,0,0,0,0c0.3,0,0.7,0,1-0.1c15.6-0.5,28.2-12.5,29.8-27.7c0.1-1,0.2-2.1,0.2-3.2
	C64.4,19.6,55.3,7.9,42.7,3.9z"/>
<path class="st0" d="M32.6,32.5c0.6,0.6,1.2,1.3,1.8,2C33.8,33.8,33.2,33.1,32.6,32.5z"/>
<path class="st6" d="M33.3,33.3c0.1,0.2,0.3,0.3,0.4,0.5C33.6,33.6,33.4,33.4,33.3,33.3z"/>
<g>
	<path class="st7" d="M38.4,34.2c-0.4,2.9-1.7,5.2-3.8,6.9c-2.2,1.7-4.8,2.5-7.9,2.5c-1.8,0-3.5-0.5-4.9-1.3c-1.4-0.8-2.5-2-3.3-3.5
		c-0.8-1.5-1.3-3.3-1.4-5.3c-0.1-2.2,0.1-4.4,0.7-6.7s1.6-4.3,2.8-5.9c1.3-1.7,2.8-3,4.5-3.8c1.7-0.9,3.6-1.3,5.6-1.2
		c2.9,0,5.1,0.9,6.8,2.6c1.7,1.7,2.6,4,2.7,7l-5.4,0c-0.1-1.7-0.5-3-1.2-3.8c-0.7-0.8-1.8-1.2-3.2-1.3c-1.5,0-2.8,0.4-4,1.3
		s-2.1,2.3-2.8,4.1c-0.7,1.8-1.1,3.9-1.2,6.4c-0.1,2.2,0.2,3.9,1,5.2c0.8,1.2,1.9,1.9,3.5,1.9c1.5,0.1,2.8-0.3,3.9-1.2
		c1.1-0.9,1.8-2.1,2.2-3.7L38.4,34.2z"/>
	<path class="st7" d="M42.4,48.4c-1.6-0.3-2.8-0.9-3.6-2c-0.8-1.1-1.1-2.5-0.9-4.1c0.1-1,0.4-2,0.9-2.9c0.5-0.9,1.2-1.7,2-2.3
		l1.9,1.6c-0.7,0.7-1.2,1.5-1.5,2.3c-0.3,0.9-0.5,1.7-0.5,2.5c0.1,1.3,0.7,2.1,1.9,2.5l1-5.9c0.1-0.9,0.5-1.6,1.1-2.2
		c0.6-0.6,1.4-0.9,2.3-0.8c1,0,1.9,0.3,2.6,0.8c0.8,0.5,1.3,1.2,1.7,2s0.5,1.7,0.4,2.7c-0.2,1.7-0.8,3-2,4.1c-1.1,1-2.7,1.7-4.5,1.9
		l-0.9,4.8h-2.9L42.4,48.4z M45.5,46.1c1.1-0.3,1.9-0.7,2.5-1.4c0.6-0.7,0.9-1.6,0.9-2.7c0-0.8-0.1-1.5-0.4-1.9
		c-0.3-0.4-0.7-0.6-1.2-0.6c-0.3,0-0.6,0.2-0.6,0.5L45.5,46.1z"/>
</g>
<g>
	<path class="st5" d="M37.5,33.2c-0.4,2.9-1.7,5.2-3.8,6.9c-2.2,1.7-4.8,2.5-7.9,2.5c-1.8,0-3.5-0.5-4.9-1.3c-1.4-0.8-2.5-2-3.3-3.5
		s-1.3-3.3-1.4-5.3c-0.1-2.2,0.1-4.4,0.7-6.7s1.6-4.3,2.8-5.9c1.3-1.7,2.8-3,4.5-3.8c1.7-0.9,3.6-1.3,5.6-1.2c2.9,0,5.1,0.9,6.8,2.6
		c1.7,1.7,2.6,4,2.7,7l-5.4,0c-0.1-1.7-0.5-3-1.2-3.8c-0.7-0.8-1.8-1.2-3.2-1.3c-1.5,0-2.8,0.4-4,1.3s-2.1,2.3-2.8,4.1
		c-0.7,1.8-1.1,3.9-1.2,6.4c-0.1,2.2,0.2,3.9,1,5.2c0.8,1.2,1.9,1.9,3.5,1.9c1.5,0.1,2.8-0.3,3.9-1.2c1.1-0.9,1.8-2.1,2.2-3.7
		L37.5,33.2z"/>
	<path class="st5" d="M41.5,47.4c-1.6-0.3-2.8-0.9-3.6-2c-0.8-1.1-1.1-2.5-0.9-4.1c0.1-1,0.4-2,0.9-2.9c0.5-0.9,1.2-1.7,2-2.3
		l1.9,1.6c-0.7,0.7-1.2,1.5-1.5,2.3c-0.3,0.9-0.5,1.7-0.5,2.5c0.1,1.3,0.7,2.1,1.9,2.5l1-5.9c0.1-0.9,0.5-1.6,1.1-2.2
		c0.6-0.6,1.4-0.9,2.3-0.8c1,0,1.9,0.3,2.6,0.8c0.8,0.5,1.3,1.2,1.7,2c0.4,0.8,0.5,1.7,0.4,2.7c-0.2,1.7-0.8,3-2,4.1
		c-1.1,1-2.7,1.7-4.5,1.9l-0.9,4.8h-2.9L41.5,47.4z M44.6,45.1c1.1-0.3,1.9-0.7,2.5-1.4C47.7,42.9,48,42,48,41
		c0-0.8-0.1-1.5-0.4-1.9c-0.3-0.4-0.7-0.6-1.2-0.6c-0.3,0-0.6,0.2-0.6,0.5L44.6,45.1z"/>
</g>
</svg>
