<?xml version="1.0" encoding="utf-8"?>
<!-- Roman Inozemtsev: https://github.com/mir-one/  -->
<svg version="1.1" id="Слой_1" xmlns="http://www.w3.org/2000/svg" xmlns:xlink="http://www.w3.org/1999/xlink" x="0px" y="0px"
	 viewBox="0 0 67 67" style="enable-background:new 0 0 67 67;" xml:space="preserve">
<style type="text/css">
	.st0{fill:#F6921E;}
	.st1{fill:#F05A28;}
	.st2{fill:#FFFFFF;}
	.st3{fill:#58595B;}
</style>
<g>
	<path class="st0" d="M33.5,64.4c-17.1,0-30.9-13.9-30.9-30.9c0-17.1,13.9-30.9,30.9-30.9c17.1,0,30.9,13.9,30.9,30.9
		c0,1.1-0.1,2.1-0.2,3.2l2.2,2.2c0.3-1.8,0.5-3.5,0.5-5.4C67,15,52,0,33.5,0S0,15,0,33.5S15,67,33.5,67c1.2,0,2.3-0.1,3.4-0.2
		l-2.4-2.4C34.2,64.4,33.8,64.4,33.5,64.4z"/>
	<path class="st0" d="M22.4,50.9l-6.2-6.8l5.6-1l13.9-29.9l3.8,4.6l2.7-3l20.2,20C62.8,27,60,19,54,13C42.7,1.7,24.3,1.7,13,13
		C1.7,24.3,1.7,42.7,13,54c5.4,5.4,12.5,8.2,19.6,8.5L22.2,52.1L22.4,50.9z"/>
	<path class="st1" d="M66.5,38.9l-2.2-2.2c-1.5,15.3-14.2,27.2-29.8,27.7l2.4,2.4C52,65.3,64.1,53.7,66.5,38.9z"/>
	<path class="st2" d="M33.5,2.6C16.4,2.6,2.6,16.4,2.6,33.5c0,17.1,13.9,30.9,30.9,30.9c0.3,0,0.7,0,1-0.1
		c15.6-0.5,28.2-12.5,29.8-27.7c0.1-1,0.2-2.1,0.2-3.2C64.4,16.4,50.6,2.6,33.5,2.6z M54,54c-5.9,5.9-13.7,8.7-21.4,8.5
		c-7.1-0.2-14.2-3-19.6-8.5C1.7,42.7,1.7,24.3,13,13C24.3,1.7,42.7,1.7,54,13c6,6,8.8,14,8.4,21.8C62.1,41.8,59.3,48.7,54,54z"/>
	<path class="st1" d="M62.5,34.8l-20.2-20l-2.7,3l-3.8-4.6L21.9,43.1l-5.6,1l6.2,6.8l-0.3,1.2l10.4,10.4c7.7,0.2,15.5-2.6,21.4-8.5
		C59.3,48.7,62.1,41.8,62.5,34.8z"/>
	<path class="st3" d="M48.9,30.1c0.7-4.5-2.7-6.9-7.4-8.5l1.5-6l-3.7-0.9l-1.4,5.9c-1-0.2-2-0.5-2.9-0.7l1.5-5.9l-3.7-0.9l-1.5,6
		l-7.4-1.8l-1,3.9c0,0,2.7,0.6,2.7,0.7c1.5,0.4,1.8,1.4,1.7,2.1l-4.1,16.5c-0.2,0.5-0.6,1.1-1.7,0.9c0,0.1-2.7-0.7-2.7-0.7L17,44.9
		l7.4,1.9l-1.5,6.1l3.7,0.9l1.5-6c1,0.3,2,0.5,2.9,0.8l-1.5,6l3.7,0.9l1.5-6.1c6.3,1.2,11,0.7,13-5c1.6-4.6-0.1-7.2-3.4-8.9
		C46.6,35,48.5,33.4,48.9,30.1 M40.5,41.9c-1.1,4.6-8.8,2.1-11.3,1.5l2-8.1C33.7,35.9,41.7,37.1,40.5,41.9 M41.7,30.1
		c-1,4.2-7.4,2-9.5,1.5l1.8-7.3C36.1,24.8,42.8,25.7,41.7,30.1"/>
	<path class="st2" d="M48.2,29.3c0.7-4.5-2.7-6.9-7.4-8.5l1.5-6l-3.7-0.9l-1.4,5.9c-1-0.2-2-0.5-2.9-0.7l1.5-5.9l-3.7-0.9l-1.5,6
		l-7.4-1.8l-1,3.9c0,0,2.7,0.6,2.7,0.7c1.5,0.4,1.8,1.4,1.7,2.1l-4.1,16.5c-0.2,0.5-0.6,1.1-1.7,0.9c0,0.1-2.7-0.7-2.7-0.7l-1.8,4.2
		l7.4,1.9l-1.5,6.1l3.7,0.9l1.5-6c1,0.3,2,0.5,2.9,0.8l-1.5,6l3.7,0.9l1.5-6.1c6.3,1.2,11,0.7,13-5c1.6-4.6-0.1-7.2-3.4-8.9
		C45.9,34.2,47.8,32.6,48.2,29.3 M39.8,41.1c-1.1,4.6-8.8,2.1-11.3,1.5l2-8.1C33,35.1,41,36.3,39.8,41.1 M41,29.3
		c-1,4.2-7.4,2-9.5,1.5l1.8-7.3C35.4,24,42.1,24.9,41,29.3"/>
</g>
</svg>
